# https://github.com/mikedh/trimesh
v -0.05483400 -0.04044100 0.00533600
v -0.00952100 -0.04577900 -0.02350500
v -0.05634400 -0.04269200 0.01030400
v -0.04423200 -0.04113000 -0.00784300
v -0.00881700 -0.06130000 -0.00769900
v -0.03501800 -0.02816800 -0.02446800
v -0.03546500 -0.05203500 -0.00582500
v -0.01753200 -0.06717400 0.00643500
v -0.00789400 -0.06083200 -0.00683300
v -0.03571900 -0.02780000 -0.02317600
v -0.04430100 0.00097800 -0.02347200
v -0.01298500 -0.04414800 -0.02433400
v -0.03521000 -0.06278500 0.01281700
v -0.04566800 -0.00033000 -0.02382200
v -0.04612200 -0.03818200 -0.00888100
v -0.02878800 -0.05131500 -0.00928100
v -0.01975200 -0.06613100 0.00807900
v 0.00358800 -0.06831200 0.00634400
v 0.03278000 -0.04964100 -0.00921500
v 0.01084400 -0.07037800 0.00885700
v -0.04431500 -0.06610300 0.02894300
v 0.06237500 -0.03694900 0.01341600
v 0.02358000 -0.03874200 -0.02325000
v 0.01099600 -0.05681300 -0.01102600
v 0.03950200 -0.02108500 -0.02351500
v -0.00136100 -0.07432600 0.02761700
v -0.01131000 -0.07455300 0.02728500
v 0.03011200 -0.03424500 -0.02445000
v 0.05247200 -0.03264700 -0.00731800
v 0.05121300 -0.03180200 -0.00804600
v 0.01487800 -0.07369600 0.02712000
v 0.04476300 -0.06679100 0.02893300
v 0.04367200 -0.04596100 -0.00510700
v 0.00748300 -0.08000200 0.02906800
v 0.02636500 -0.07010000 0.02828900
v 0.05048900 -0.04639700 0.00621500
v 0.03479000 -0.06728200 0.02835300
v 0.04806500 -0.05696600 0.02791300
v 0.02109900 -0.05539200 -0.01167200
v 0.03057500 -0.05987100 0.00186100
v 0.05993700 -0.04324100 0.02757600
v 0.07627300 -0.02465900 0.02958000
v 0.04447500 -0.05730300 0.01584100
v -0.01052100 -0.07573900 0.02964300
v 0.06089200 -0.04517300 0.02822900
v 0.02369700 -0.06682900 0.01166400
v -0.05893100 0.00878300 -0.00845800
v 0.03077700 0.03150100 -0.02436000
v -0.04157900 0.01670600 -0.02419400
v 0.01557300 -0.04283400 -0.02419400
v -0.03530500 0.02575000 -0.02348000
v -0.02656600 0.04605300 -0.01634000
v -0.00842400 0.06069600 -0.00530700
v -0.01373500 -0.00271800 -0.02176900
v 0.02440500 0.00687400 -0.02320300
v -0.05115300 0.02999100 -0.00797300
v 0.01625400 0.04030500 -0.02438000
v -0.01310000 0.04327200 -0.02321700
v -0.01280200 0.04241500 -0.02438500
v -0.05145800 0.02754300 -0.01045700
v -0.02929600 0.00613300 -0.02290000
v 0.01422600 0.04300000 -0.02357600
v 0.02354200 0.05837200 -0.00238600
v 0.04064400 0.04156100 -0.01122300
v 0.02749900 0.00580900 -0.02236100
v 0.03211200 0.04681000 -0.01238400
v 0.04063400 -0.02165300 -0.02364200
v 0.04145300 0.01617600 -0.02427700
v 0.04514500 0.00156500 -0.02337800
v 0.07143500 -0.01979600 0.02720600
v 0.05570700 -0.01327800 -0.01235300
v 0.07106700 -0.00968700 0.01322400
v 0.03748200 0.02313600 -0.02348900
v 0.05592000 0.01785100 -0.00938600
v 0.06960900 -0.02069500 0.01776400
v 0.04495300 -0.00240400 -0.02440000
v 0.08088300 0.00437100 0.02913300
v 0.07000100 0.00384200 0.00827700
v 0.05975100 -0.01011400 -0.00795400
v 0.07392900 0.00886500 0.02699000
v 0.06339800 -0.01433400 -0.00253200
v 0.03701100 0.04471700 -0.00939900
v 0.05772400 0.00439700 -0.01163000
v 0.06679500 0.01979000 0.00996500
v 0.06889900 0.00106200 0.00847200
v 0.06305100 0.03452800 0.01396000
v 0.05575000 0.02587100 -0.00736500
v 0.07325800 -0.01717000 0.02805100
v -0.06894600 -0.01097500 0.01171700
v -0.07277900 -0.02937000 0.02828000
v -0.06760200 -0.02921600 0.02134600
v -0.06306600 -0.04973500 0.02969900
v -0.07486100 -0.00109600 0.02745600
v -0.02758600 -0.07655400 0.02721600
v -0.03775900 -0.06352800 0.02763500
v -0.07277400 -0.01090600 0.02687000
v -0.04032800 -0.06331600 0.02678700
v -0.05576100 -0.02420700 -0.00843700
v -0.06164900 0.00252100 -0.00681600
v -0.03864500 -0.05738300 0.00892800
v -0.06562000 0.01060100 0.00394700
v -0.05834400 -0.01825700 -0.00649600
v -0.07821300 -0.00473100 0.02937000
v -0.06991300 -0.01095300 0.01102400
v -0.05269600 -0.05185600 0.02209300
v -0.07007600 0.01780900 0.02105500
v -0.06842100 -0.02946000 0.02775200
v -0.05648700 -0.04728100 0.02680100
v -0.08082100 -0.00327100 0.02612700
v 0.01373300 0.06815700 0.01050300
v -0.02108600 0.06450100 0.00957500
v -0.03923300 0.05973400 0.01829900
v -0.01404300 0.06881600 0.01074200
v -0.06594100 0.02184500 0.00716400
v -0.03048900 0.06549800 0.02631200
v -0.06930700 0.02550500 0.02684300
v -0.02559300 0.07444600 0.02760200
v -0.03261800 0.05004600 -0.00654300
v -0.05871100 0.04489600 0.02677900
v -0.02797200 0.06843200 0.02612700
v -0.05008500 0.04629200 0.00607400
v -0.06567900 0.03282300 0.02732000
v -0.07334700 0.02597200 0.02799700
v -0.05715200 0.05499700 0.02804500
v -0.02958800 0.05634000 -0.00250000
v -0.00261900 0.06845000 0.01025200
v -0.00869200 0.07166100 0.02583000
v -0.06087500 0.03325100 0.01208000
v 0.02119900 0.06955600 0.02617600
v -0.04430400 0.05168300 0.00806100
v 0.01487800 0.05685300 -0.00984800
v 0.01143700 0.07810700 0.02818100
v 0.00662000 0.07277200 0.02570700
v 0.02759500 0.05832400 -0.00021900
v -0.00134800 0.06073900 -0.00710500
v -0.05007300 0.05240600 0.02683900
v 0.02034400 0.06561700 0.00993300
v 0.04415000 0.05272100 0.00785700
v 0.07158600 0.01054000 0.02470700
v 0.03764200 0.06213700 0.02666000
v 0.02635100 0.06844000 0.02672300
v 0.03191100 0.06254300 0.01222400
v 0.06573000 0.03257600 0.02647800
v 0.04069300 0.05618600 0.01217600
v 0.02991600 0.07304800 0.02869700
v 0.05375300 0.04980200 0.02631000
v 0.05325400 0.03814300 0.00014800
v 0.04520000 0.05857200 0.02631400
v 0.03473000 0.07065100 0.02531600
v 0.05262500 0.05710300 0.02848900
v 0.07240800 0.02672000 0.02873400
v 0.06469700 0.03747500 0.02760600
vn 0.75196065 0.52806075 0.39459730
vn 0.09904814 0.42604130 0.89926541
vn -0.75384293 -0.55268588 -0.35532963
vn 0.58021951 0.54283957 0.60718244
vn -0.10784588 -0.79769524 -0.59333934
vn -0.31793865 -0.24463704 -0.91600640
vn -0.47071639 -0.67896207 -0.56341511
vn -0.23386534 -0.89269251 -0.38523640
vn 0.11831018 0.81773121 0.56331018
vn 0.33676048 0.25149580 0.90738208
vn 0.40322267 -0.00756067 0.91507066
vn -0.12130120 -0.41237882 -0.90290073
vn -0.46611603 -0.82602883 -0.31687886
vn -0.42584212 -0.00322797 -0.90479173
vn -0.61641054 -0.50960228 -0.60028623
vn 0.39406049 0.67725090 0.62132725
vn 0.27774286 0.88350223 0.37720382
vn -0.04689759 0.92136452 0.38586012
vn -0.44478730 0.66737273 0.59730888
vn 0.13601279 -0.92132311 -0.36423104
vn -0.32201510 -0.88525388 0.33560669
vn 0.82156655 -0.47409901 -0.31663627
vn -0.21750963 0.35291949 0.91002055
vn -0.16641274 0.75536395 0.63382341
vn -0.35371989 0.19346010 0.91512591
vn 0.02281469 0.74601352 0.66553987
vn -0.07290133 -0.64325341 -0.76217482
vn 0.27268266 -0.30410102 -0.91277968
vn 0.69481319 -0.42259061 -0.58193798
vn -0.69162372 0.42221867 0.58599319
vn 0.19922741 -0.77185002 -0.60378471
vn -0.22042629 0.96918082 -0.11000355
vn 0.57848071 -0.61065733 -0.54079358
vn 0.02120115 -0.97285915 0.23042481
vn -0.22763463 0.61845199 0.75213005
vn -0.67893360 0.62070486 0.39214111
vn 0.28868966 -0.58128499 -0.76076674
vn -0.41202965 0.49836927 0.76279724
vn 0.25743389 -0.72727918 -0.63623328
vn 0.41894251 -0.80019603 -0.42915438
vn -0.59630833 0.39809945 0.69708909
vn -0.66399652 0.59766665 -0.44933639
vn 0.60178700 -0.74881225 -0.27772760
vn 0.01389318 0.24685527 0.96895276
vn 0.56663046 -0.43814242 0.69782601
vn -0.32690525 0.87823290 0.34905577
vn 0.78631592 -0.12399502 0.60525409
vn 0.26824835 0.26777828 -0.92538512
vn -0.37366005 0.16216269 -0.91328059
vn 0.10437816 -0.38733380 -0.91601186
vn 0.32415494 -0.24709728 0.91316291
vn -0.38156960 0.60419580 -0.69953704
vn 0.10474838 -0.82489649 0.55549398
vn -0.01592194 -0.00196088 0.99987132
vn -0.02776995 -0.00685189 -0.99959086
vn 0.68468335 -0.42372370 0.59301512
vn 0.11712500 0.36831854 -0.92229235
vn 0.14119397 -0.42164876 0.89569894
vn -0.10867457 0.39858366 -0.91067058
vn -0.67403932 0.39288469 -0.62554985
vn 0.03056025 -0.01247316 -0.99945510
vn -0.13609479 -0.42576173 0.89454187
vn -0.29878205 -0.79631636 0.52593682
vn 0.56753162 0.55626480 -0.60702334
vn 0.03388519 0.00722942 0.99939958
vn 0.40740202 0.65568359 -0.63569066
vn 0.44627379 -0.22546271 -0.86602902
vn 0.36075519 0.15378889 -0.91989384
vn -0.40868744 -0.02250893 0.91239680
vn -0.07738777 0.90478838 0.41877096
vn 0.72495896 -0.17345874 -0.66659325
vn 0.94645399 -0.13773982 -0.29198045
vn -0.33312501 -0.22137192 0.91652725
vn -0.74950022 -0.23947584 0.61717157
vn -0.88865683 0.30301111 0.34419951
vn 0.39062346 -0.00973463 -0.92049908
vn 0.99066170 0.03689193 0.13125695
vn 0.92268452 0.09819127 -0.37284280
vn -0.80231490 0.13047311 0.58246679
vn 0.71987348 0.12339804 -0.68304839
vn 0.84188843 -0.18971636 -0.50520449
vn -0.49373242 -0.60852676 0.62122740
vn 0.77248784 0.08268955 -0.62962288
vn -0.90063542 -0.27040514 0.34020127
vn -0.93604589 -0.01712229 0.35146112
vn 0.82779435 0.46224369 -0.31794226
vn 0.74209535 0.35792936 -0.56672838
vn 0.68579841 -0.16437582 -0.70898599
vn 0.92933611 0.13097535 0.34522436
vn -0.84862995 -0.24708177 0.46773690
vn -0.82824859 -0.34632249 -0.44052810
vn 0.79317759 0.53335145 -0.29394821
vn -0.44831446 -0.02699222 -0.89346828
vn -0.44923292 -0.86040905 -0.24059520
vn 0.33731328 0.61655232 0.71139510
vn 0.75569080 0.09948635 0.64732827
vn -0.32838226 -0.69205600 -0.64282469
vn -0.75068486 -0.30341003 -0.58686847
vn -0.82066502 0.04064940 -0.56996189
vn 0.52598444 0.77147654 0.35800043
vn 0.90062338 -0.14908926 0.40822778
vn 0.78565633 0.23427954 0.57258818
vn -0.23094504 0.00392055 0.97295890
vn -0.92721300 -0.14086716 -0.34703386
vn -0.69414670 -0.63656618 -0.33607121
vn 0.86668517 -0.20429185 0.45510620
vn 0.55732065 0.27130925 0.78471968
vn 0.56224828 0.50629922 0.65386389
vn -0.87425996 -0.00928460 -0.48536926
vn 0.17056245 0.92454041 -0.34078363
vn 0.31275711 -0.88344892 0.34885669
vn -0.55189284 0.80777818 -0.20714419
vn -0.18090320 0.92918456 -0.32231986
vn -0.87643409 0.29901780 -0.37742765
vn 0.30653320 -0.60639110 0.73370787
vn -0.64713082 0.26510373 -0.71480187
vn -0.09536877 0.97041330 0.22181712
vn 0.44329014 -0.68151844 0.58225979
vn -0.55677228 0.41704149 -0.71838780
vn -0.31794168 0.64815860 -0.69195630
vn -0.66477463 0.62539965 -0.40859512
vn 0.55754886 -0.35095234 0.75231092
vn 0.72780641 -0.50023088 -0.46911288
vn 0.23714329 0.96797677 0.08236529
vn -0.40187539 0.76347656 -0.50556870
vn 0.01592340 -0.94301751 0.33236190
vn 0.07410569 -0.73688410 0.67194507
vn 0.81031918 -0.47299721 0.34591396
vn -0.17842520 -0.74844539 0.63874404
vn 0.59875743 -0.71006976 0.37052729
vn 0.18022146 0.76000804 -0.62442614
vn -0.14023001 0.95239647 0.27069634
vn 0.02384166 0.75324746 -0.65730498
vn 0.37370806 0.79363216 -0.48009403
vn -0.03169916 0.81053394 -0.58483323
vn 0.45653380 -0.47105885 0.75477179
vn -0.25646602 -0.90313090 0.34435412
vn 0.60865810 0.69380725 -0.38492444
vn -0.93133470 -0.10280147 0.34935303
vn -0.37761748 -0.63481762 0.67410061
vn 0.19457389 0.37126198 -0.90791274
vn 0.41700850 0.85235595 -0.31558399
vn -0.71262650 -0.37562581 0.59251052
vn -0.54101375 -0.77275731 0.33188894
vn 0.20244441 0.66813148 0.71597248
vn -0.58904182 -0.51616971 0.62177051
vn -0.70501060 -0.52514155 0.47664075
vn 0.49067719 0.51101627 -0.70576077
vn 0.39367575 0.60093203 -0.69562928
vn 0.87862601 -0.46157019 0.12234906
vn -0.86391679 -0.28161317 -0.41754257
vn 0.55350395 0.28820557 0.78139038
f 3//3 98//98 15//15
f 9//9 16//16 17//17
f 10//10 4//4 2//2
f 4//4 100//100 16//16
f 10//10 2//2 54//54
f 97//97 105//105 13//13
f 3//3 7//7 13//13
f 100//100 4//4 1//1
f 105//105 3//3 13//13
f 7//7 12//12 5//5
f 2//2 16//16 9//9
f 98//98 14//14 6//6
f 102//102 10//10 11//11
f 8//8 7//7 5//5
f 7//7 8//8 13//13
f 16//16 100//100 17//17
f 6//6 14//14 61//61
f 6//6 61//61 12//12
f 97//97 13//13 27//27
f 27//27 13//13 8//8
f 12//12 61//61 50//50
f 14//14 98//98 99//99
f 104//104 99//99 98//98
f 102//102 11//11 47//47
f 7//7 3//3 15//15
f 15//15 6//6 7//7
f 6//6 15//15 98//98
f 12//12 7//7 6//6
f 10//10 102//102 4//4
f 4//4 16//16 2//2
f 1//1 4//4 102//102
f 11//11 10//10 54//54
f 44//44 17//17 95//95
f 95//95 17//17 100//100
f 38//38 46//46 35//35
f 28//28 39//39 50//50
f 23//23 2//2 24//24
f 50//50 39//39 12//12
f 2//2 9//9 24//24
f 27//27 34//34 94//94
f 33//33 22//22 43//43
f 44//44 21//21 94//94
f 8//8 20//20 27//27
f 23//23 24//24 19//19
f 9//9 17//17 18//18
f 8//8 5//5 20//20
f 23//23 30//30 25//25
f 29//29 81//81 22//22
f 75//75 30//30 36//36
f 39//39 28//28 33//33
f 24//24 9//9 18//18
f 30//30 19//19 36//36
f 26//26 44//44 34//34
f 20//20 31//31 27//27
f 39//39 20//20 5//5
f 31//31 34//34 27//27
f 29//29 33//33 28//28
f 29//29 28//28 67//67
f 46//46 24//24 18//18
f 30//30 23//23 19//19
f 37//37 31//31 20//20
f 43//43 22//22 45//45
f 45//45 32//32 37//37
f 40//40 20//20 39//39
f 45//45 37//37 43//43
f 35//35 26//26 34//34
f 19//19 24//24 46//46
f 32//32 45//45 41//41
f 38//38 35//35 32//32
f 35//35 34//34 32//32
f 39//39 33//33 40//40
f 22//22 33//33 29//29
f 38//38 32//32 41//41
f 39//39 5//5 12//12
f 36//36 38//38 41//41
f 75//75 36//36 41//41
f 70//70 75//75 41//41
f 20//20 40//40 37//37
f 43//43 37//37 40//40
f 33//33 43//43 40//40
f 41//41 45//45 42//42
f 19//19 46//46 36//36
f 46//46 38//38 36//36
f 54//54 23//23 25//25
f 42//42 70//70 41//41
f 23//23 54//54 2//2
f 31//31 37//37 34//34
f 44//44 94//94 34//34
f 18//18 17//17 26//26
f 18//18 26//26 46//46
f 44//44 26//26 17//17
f 26//26 35//35 46//46
f 37//37 32//32 34//34
f 42//42 45//45 88//88
f 88//88 45//45 22//22
f 14//14 49//49 61//61
f 61//61 55//55 50//50
f 47//47 11//11 51//51
f 54//54 51//51 11//11
f 49//49 59//59 61//61
f 135//135 59//59 52//52
f 58//58 51//51 54//54
f 61//61 59//59 55//55
f 60//60 49//49 14//14
f 53//53 58//58 62//62
f 57//57 59//59 135//135
f 131//131 57//57 135//135
f 56//56 47//47 51//51
f 59//59 57//57 55//55
f 52//52 49//49 60//60
f 66//66 57//57 131//131
f 65//65 62//62 58//58
f 52//52 59//59 49//49
f 51//51 58//58 118//118
f 57//57 48//48 55//55
f 54//54 65//65 58//58
f 63//63 62//62 82//82
f 76//76 55//55 68//68
f 76//76 68//68 83//83
f 80//80 78//78 86//86
f 28//28 50//50 55//55
f 30//30 75//75 79//79
f 76//76 28//28 55//55
f 73//73 82//82 62//62
f 22//22 81//81 72//72
f 64//64 48//48 66//66
f 22//22 72//72 88//88
f 25//25 69//69 65//65
f 73//73 65//65 69//69
f 66//66 48//48 57//57
f 72//72 81//81 78//78
f 85//85 79//79 75//75
f 65//65 54//54 25//25
f 65//65 73//73 62//62
f 48//48 68//68 55//55
f 73//73 147//147 82//82
f 76//76 67//67 28//28
f 147//147 73//73 74//74
f 87//87 83//83 68//68
f 30//30 79//79 25//25
f 74//74 73//73 69//69
f 71//71 29//29 67//67
f 64//64 68//68 48//48
f 70//70 42//42 75//75
f 25//25 79//79 69//69
f 88//88 72//72 80//80
f 76//76 71//71 67//67
f 64//64 87//87 68//68
f 42//42 88//88 77//77
f 71//71 81//81 29//29
f 86//86 78//78 87//87
f 134//134 64//64 66//66
f 74//74 69//69 79//79
f 131//131 134//134 66//66
f 85//85 139//139 84//84
f 139//139 85//85 75//75
f 71//71 76//76 83//83
f 83//83 81//81 71//71
f 72//72 78//78 80//80
f 87//87 64//64 138//138
f 77//77 88//88 80//80
f 79//79 85//85 74//74
f 138//138 86//86 87//87
f 78//78 81//81 83//83
f 78//78 83//83 87//87
f 84//84 74//74 85//85
f 143//143 147//147 84//84
f 84//84 147//147 74//74
f 90//90 91//91 105//105
f 3//3 105//105 91//91
f 90//90 105//105 21//21
f 90//90 96//96 103//103
f 104//104 91//91 93//93
f 103//103 109//109 90//90
f 1//1 107//107 108//108
f 93//93 91//91 90//90
f 97//97 27//27 21//21
f 89//89 102//102 47//47
f 107//107 90//90 92//92
f 92//92 108//108 107//107
f 93//93 90//90 109//109
f 21//21 44//44 95//95
f 92//92 21//21 95//95
f 94//94 21//21 27//27
f 47//47 101//101 89//89
f 106//106 103//103 96//96
f 102//102 107//107 1//1
f 123//123 109//109 103//103
f 3//3 91//91 98//98
f 104//104 98//98 91//91
f 95//95 108//108 92//92
f 108//108 95//95 100//100
f 21//21 105//105 97//97
f 104//104 114//114 99//99
f 96//96 89//89 101//101
f 106//106 96//96 101//101
f 89//89 107//107 102//102
f 93//93 114//114 104//104
f 116//116 114//114 93//93
f 106//106 123//123 103//103
f 123//123 106//106 122//122
f 93//93 109//109 116//116
f 96//96 90//90 107//107
f 96//96 107//107 89//89
f 1//1 108//108 100//100
f 90//90 21//21 92//92
f 123//123 116//116 109//109
f 60//60 14//14 99//99
f 101//101 47//47 56//56
f 58//58 53//53 118//118
f 142//142 110//110 141//141
f 122//122 106//106 128//128
f 101//101 56//56 128//128
f 115//115 130//130 111//111
f 125//125 112//112 113//113
f 114//114 60//60 99//99
f 120//120 113//113 112//112
f 115//115 111//111 127//127
f 128//128 106//106 101//101
f 127//127 111//111 126//126
f 119//119 114//114 116//116
f 125//125 135//135 52//52
f 121//121 114//114 119//119
f 60//60 114//114 121//121
f 56//56 130//130 128//128
f 52//52 60//60 121//121
f 117//117 124//124 115//115
f 130//130 56//56 118//118
f 118//118 56//56 51//51
f 124//124 123//123 122//122
f 117//117 115//115 127//127
f 123//123 119//119 116//116
f 111//111 130//130 118//118
f 122//122 128//128 136//136
f 118//118 53//53 111//111
f 113//113 135//135 125//125
f 123//123 124//124 119//119
f 111//111 53//53 126//126
f 125//125 52//52 121//121
f 132//132 117//117 127//127
f 110//110 113//113 133//133
f 124//124 122//122 136//136
f 62//62 63//63 53//53
f 113//113 120//120 133//133
f 129//129 127//127 126//126
f 126//126 137//137 129//129
f 136//136 128//128 130//130
f 110//110 131//131 135//135
f 137//137 53//53 63//63
f 110//110 133//133 141//141
f 145//145 132//132 127//127
f 131//131 110//110 134//134
f 117//117 133//133 120//120
f 112//112 125//125 121//121
f 145//145 127//127 129//129
f 141//141 133//133 149//149
f 135//135 113//113 110//110
f 126//126 53//53 137//137
f 136//136 130//130 115//115
f 121//121 119//119 112//112
f 119//119 117//117 120//120
f 119//119 120//120 112//112
f 124//124 136//136 115//115
f 124//124 117//117 119//119
f 133//133 132//132 149//149
f 117//117 132//132 133//133
f 144//144 82//82 147//147
f 139//139 75//75 42//42
f 139//139 42//42 151//151
f 42//42 77//77 151//151
f 143//143 84//84 139//139
f 140//140 145//145 129//129
f 142//142 141//141 148//148
f 129//129 137//137 144//144
f 152//152 80//80 86//86
f 139//139 151//151 143//143
f 150//150 145//145 140//140
f 148//148 86//86 138//138
f 140//140 129//129 144//144
f 151//151 80//80 152//152
f 152//152 86//86 148//148
f 148//148 138//138 142//142
f 152//152 143//143 151//151
f 64//64 134//134 138//138
f 143//143 152//152 146//146
f 134//134 142//142 138//138
f 147//147 146//146 144//144
f 142//142 134//134 110//110
f 137//137 63//63 144//144
f 144//144 146//146 140//140
f 144//144 63//63 82//82
f 146//146 152//152 150//150
f 140//140 146//146 150//150
f 148//148 149//149 150//150
f 146//146 147//147 143//143
f 149//149 148//148 141//141
f 132//132 145//145 149//149
f 77//77 80//80 151//151
f 152//152 148//148 150//150
f 150//150 149//149 145//145

