# https://github.com/mikedh/trimesh
v -0.02965100 -0.03407900 -0.02308700
v -0.05065300 -0.03750600 -0.00292100
v -0.00362900 -0.05818700 -0.01137600
v -0.02228300 -0.03994900 -0.02373600
v -0.00966200 -0.05947000 -0.00757300
v -0.00578400 -0.06445600 -0.00285000
v -0.02700700 -0.07570900 0.02697300
v -0.05774400 -0.03357700 0.00443500
v -0.02011700 -0.07885600 0.02860800
v -0.01345000 -0.04369900 -0.02402800
v -0.01968900 -0.04059600 -0.02319100
v -0.02022500 -0.03184600 -0.02410800
v -0.00167500 -0.04657000 -0.02314000
v -0.05634400 -0.04269200 0.01030400
v -0.04232500 -0.04550900 -0.00443200
v -0.05954000 -0.01542000 -0.00490300
v -0.05708900 -0.04213800 0.01496800
v -0.05272100 -0.02187400 -0.01242000
v -0.05171900 -0.04655700 0.01089600
v -0.01612900 -0.05357200 -0.01368900
v -0.00325900 -0.04402700 -0.02345000
v -0.03718400 -0.05937000 0.00860300
v -0.03908300 -0.02117600 -0.02438000
v -0.02101000 -0.05555800 -0.00790700
v -0.02168600 -0.06868300 0.01396800
v -0.03049500 -0.05130800 -0.00974100
v -0.04788000 -0.02491200 -0.01366100
v -0.02256200 -0.05949000 -0.00364900
v -0.00570000 -0.04826100 -0.02001500
v -0.02353800 -0.06323600 0.00526000
v 0.00909900 -0.02913500 -0.02271900
v -0.03802700 -0.02271600 -0.02342300
v -0.04403800 -0.00585100 -0.02415400
v -0.04369900 -0.00395000 -0.02346200
v -0.00799400 -0.06494100 0.00090700
v -0.03213700 -0.01980400 -0.02302100
v -0.03615800 -0.05997800 0.01314000
v -0.00196600 -0.04305900 -0.02426800
v -0.03335600 -0.06416100 0.01471700
v -0.01232700 -0.01102400 -0.02213000
v -0.06119100 -0.00097800 -0.00472400
v -0.02525100 -0.07156600 0.02799600
v -0.01986900 -0.07476000 0.02853100
v -0.01818500 -0.07191700 0.02552200
v -0.01206600 -0.02907700 -0.02262300
v -0.03102300 0.00760400 -0.02299400
v -0.01763600 -0.00080000 -0.02197700
v -0.05067000 -0.01254300 -0.01569700
v -0.03886900 -0.05169000 -0.00212300
v -0.04200400 -0.03716000 -0.01231100
v -0.05702400 0.00169500 -0.01181900
v -0.04612200 -0.03818200 -0.00888100
v -0.03236800 -0.04968800 -0.00854400
v -0.03098000 -0.03325300 -0.02392600
v -0.03995400 -0.05595000 0.00838600
v -0.01363900 -0.06929000 0.01351400
v -0.03087800 -0.06035800 0.00641000
v -0.02507300 -0.06715500 0.01871000
v -0.01700200 -0.06977600 0.02056100
v 0.00778000 -0.04432900 -0.02321200
v 0.03369100 -0.06599000 0.02839000
v 0.00944900 -0.06592100 0.00050200
v 0.00732100 -0.06480800 0.00040300
v 0.03286200 -0.04323000 -0.01468900
v 0.02534400 -0.06623700 0.01006400
v 0.00581200 -0.04632500 -0.02309700
v -0.01658300 -0.07793200 0.02733900
v 0.02314100 -0.03883900 -0.02437200
v -0.02265600 -0.07598100 0.03041900
v -0.00750300 -0.08061800 0.02754500
v -0.00939100 -0.07936600 0.03010900
v 0.02103500 -0.02799600 -0.02314500
v 0.05728000 -0.04065400 0.00867200
v 0.02948100 -0.03646000 -0.02117200
v -0.01430600 -0.07056500 0.01336400
v 0.01846800 -0.05328200 -0.01367100
v 0.02127600 -0.05512700 -0.00916700
v 0.00131900 -0.07158800 0.01204200
v 0.01092700 -0.07156400 0.01450800
v 0.01887300 -0.04366500 -0.02049400
v 0.03462800 -0.02736700 -0.02315500
v 0.02916800 -0.05377700 -0.00622200
v -0.00632600 -0.07240700 0.02334300
v -0.00808000 -0.07421200 0.02637200
v 0.03804600 -0.04833800 -0.00515000
v 0.03610600 -0.06860100 0.02845700
v 0.04373200 -0.06829700 0.02901000
v -0.00945000 -0.07554000 0.02930300
v -0.00829400 -0.07729100 0.02853600
v 0.00210900 -0.07785500 0.02848900
v -0.00061600 -0.07479900 0.02664600
v 0.04712700 -0.06014800 0.02850200
v 0.03284200 -0.03735500 -0.02020000
v 0.00290100 -0.07431200 0.02872900
v -0.00269400 -0.07531900 0.02879200
v 0.00126800 -0.07976300 0.03035100
v 0.02304400 -0.05601200 -0.00880700
v 0.04405100 -0.04383200 -0.00664600
v 0.05247200 -0.03264700 -0.00731800
v 0.04744700 -0.03078000 -0.01222100
v 0.04857300 -0.05519900 0.02284400
v 0.02286800 -0.07125800 0.02698300
v 0.02354700 -0.07736100 0.02693800
v 0.01027000 -0.07982200 0.02750800
v 0.01304100 -0.07529900 0.02796700
v 0.05606300 -0.05521000 0.02984200
v 0.01543000 -0.07919300 0.02813400
v 0.04334500 -0.05028900 0.00063700
v 0.00998200 -0.07903300 0.03036800
v 0.02956900 -0.05112600 -0.01071100
v 0.01697200 -0.07487400 0.02986500
v 0.04223500 -0.06599500 0.03016800
v 0.01599200 -0.07181200 0.02670900
v 0.05718000 -0.04064700 0.01119000
v 0.04705600 -0.04402300 -0.00077900
v 0.02401900 -0.07647000 0.02995800
v 0.02237100 -0.07443100 0.02834500
v 0.03561500 -0.06655300 0.02729400
v 0.02785900 -0.07086600 0.02934000
v 0.05165100 -0.05637000 0.02933000
v 0.03353000 -0.07225800 0.03018600
v 0.00744900 -0.05778300 -0.01029000
v 0.00772700 -0.05792700 -0.01132600
v 0.03259800 -0.06664700 0.02305400
v 0.05957500 -0.04313700 0.02083700
v 0.05626700 -0.05160800 0.02831000
v 0.02293600 -0.06254500 0.00296300
v 0.03057500 -0.05987100 0.00186100
v 0.06584500 -0.02959800 0.01494000
v 0.03583300 -0.05557400 0.00308500
v 0.06161000 -0.04771400 0.02961700
v 0.05905500 -0.04371500 0.02621800
v 0.04519400 -0.05239700 0.00853300
v 0.06647400 -0.03980500 0.02811600
v 0.06908100 -0.03955300 0.02969800
v 0.06750800 -0.03352900 0.02875100
v 0.04394100 -0.05661100 0.01211000
v 0.06328900 -0.03954500 0.02624700
v 0.06813400 -0.03312500 0.02777600
v 0.07225200 -0.03196500 0.02662400
v 0.07252000 -0.02684700 0.02805400
v 0.02127200 -0.03764500 -0.02331900
v 0.01408000 -0.04278300 -0.02437400
v 0.03343600 -0.07272300 0.02680800
v 0.04741900 -0.06481800 0.02666000
v 0.04275300 -0.06070900 0.02802300
v 0.05157200 -0.06266100 0.02861200
v 0.04528400 -0.05610600 0.01868600
v -0.02223600 -0.07107200 0.02832800
v 0.05019500 -0.05291700 0.02380700
v -0.00180400 -0.08147200 0.02825700
v 0.00382200 -0.08080400 0.02764600
v 0.05486000 -0.05782700 0.02686900
v 0.00145100 -0.07060700 0.01293800
v 0.05879600 -0.05541200 0.02887700
v 0.00950700 -0.07419200 0.02568700
v 0.03166000 -0.06323100 0.01232800
v 0.03285100 -0.07431600 0.02813200
v 0.06219900 -0.04930700 0.02691500
v 0.06500700 -0.04844200 0.02787900
v 0.01698400 -0.06979400 0.01654900
v 0.06904300 -0.04156800 0.02724800
v 0.06858400 -0.02771200 0.02528400
v 0.07109000 -0.03776800 0.02635700
v -0.04216700 0.01079700 -0.02349300
v 0.00947500 0.04215700 -0.02435200
v 0.01280000 -0.00714500 -0.02221400
v -0.01270600 0.01340300 -0.02221300
v -0.05256200 0.00475100 -0.01495500
v 0.00477700 0.03232800 -0.02299600
v 0.02396800 0.03596100 -0.02439100
v 0.02579300 0.03481000 -0.02357200
v -0.04356400 0.00801300 -0.02410700
v -0.04448900 0.01772600 -0.02014500
v -0.03345100 0.01311600 -0.02274100
v 0.00748200 -0.01589800 -0.02336000
v -0.00368000 0.04349000 -0.02320300
v -0.03815300 0.02059800 -0.02425500
v -0.03811700 0.02081200 -0.02336200
v -0.01708200 0.03983700 -0.02341700
v -0.03450400 0.02737200 -0.02358900
v -0.01760500 0.05101100 -0.01447800
v -0.03291000 0.02798900 -0.02349000
v -0.00117000 0.02273300 -0.02349400
v -0.00006600 -0.00009700 -0.02202900
v -0.05315900 0.02394300 -0.01000500
v -0.01326800 0.05240000 -0.01307800
v -0.02023600 0.02277700 -0.02263000
v -0.00943700 0.05932900 -0.00599400
v -0.04861800 0.02503900 -0.01220400
v 0.00086400 0.00467300 -0.02309800
v 0.01685700 0.04139100 -0.02352200
v 0.00872100 0.04233300 -0.02353900
v -0.00223800 0.05229000 -0.01613400
v -0.04618000 0.03267900 -0.01054900
v -0.00987200 0.04203500 -0.02432000
v 0.01358400 0.04516100 -0.02057700
v -0.02669700 0.03430500 -0.02421400
v 0.01697600 0.03791000 -0.02439500
v 0.02348100 0.04101700 -0.02067400
v -0.00734200 0.03257900 -0.02283700
v -0.00043200 0.04345800 -0.02428200
v 0.01640000 0.04011100 -0.02347600
v -0.04823600 0.03299700 -0.00991500
v -0.02090200 0.03954500 -0.02299500
v 0.01233200 0.01793400 -0.02255800
v -0.03214100 0.00482200 -0.02242400
v 0.01206900 0.05422900 -0.01312800
v -0.01647100 -0.00625600 -0.02310400
v 0.01222900 0.05096300 -0.01506000
v 0.02292300 0.04219400 -0.01890200
v 0.02751800 0.05687100 -0.00120300
v 0.04496800 0.00231600 -0.02316400
v 0.06664800 0.01986500 0.01114100
v 0.02925100 -0.01047900 -0.02286600
v 0.06127700 -0.01943300 -0.00313200
v 0.06840500 0.01301200 0.01130700
v 0.02836000 0.00616600 -0.02231100
v 0.07172100 0.01671900 0.02554100
v 0.06390700 -0.03012100 0.01286600
v 0.03705500 -0.01884000 -0.02437200
v 0.03332500 -0.03062000 -0.02428500
v 0.06175700 -0.02128900 0.00196000
v 0.03981100 -0.02049500 -0.02345800
v 0.02926300 0.03446600 -0.02307900
v 0.04296600 0.03056500 -0.01614800
v 0.04427500 0.00397300 -0.02430900
v 0.06546100 -0.01222300 0.00449600
v 0.03516000 0.02613900 -0.02444500
v 0.03066000 0.00592400 -0.02335100
v 0.02814100 0.01639100 -0.02281100
v 0.03655400 0.04109700 -0.01399900
v 0.04063400 -0.02165300 -0.02364200
v 0.06783200 -0.02644300 0.02512800
v 0.04145300 0.01617600 -0.02427700
v 0.07440300 -0.01871900 0.02794400
v 0.07275200 -0.01494200 0.02568400
v 0.04216500 0.01293000 -0.02346500
v 0.07209200 -0.01832600 0.02790800
v 0.06848300 -0.01754900 0.01385900
v 0.05570700 -0.01327800 -0.01235300
v 0.07106700 -0.00968700 0.01322400
v 0.03748200 0.02313600 -0.02348900
v 0.03515300 0.03770400 -0.01602400
v 0.05185000 0.01985200 -0.01277000
v 0.05621600 -0.02991400 -0.00237900
v 0.07305800 -0.00494500 0.02645300
v 0.07546300 -0.00526800 0.02881400
v 0.07510400 -0.00419900 0.02731900
v 0.04036300 0.04612200 -0.00605600
v 0.07523900 -0.02993700 0.02774600
v 0.07429700 -0.02667700 0.02960700
v 0.04521000 -0.00646600 -0.02361100
v 0.07883300 -0.01717400 0.02829700
v 0.07599300 -0.01656100 0.02982200
v 0.07896700 -0.00744200 0.02927300
v 0.06847700 0.00983800 0.00729000
v 0.02668100 0.05099900 -0.01099600
v 0.05322200 -0.01263700 -0.01380300
v 0.07096000 -0.00097900 0.01090400
v 0.05969600 -0.01603500 -0.00487800
v 0.06020000 -0.00364900 -0.00714400
v 0.07955300 0.00604300 0.02916700
v 0.04417000 -0.00545300 -0.02359800
v 0.03533400 0.04818800 -0.00676600
v 0.07314600 0.00565900 0.02390600
v 0.04495600 0.05046200 0.00523100
v 0.06463000 -0.00499400 -0.00158300
v 0.04506000 0.04584700 0.00180800
v 0.05893600 0.01429300 -0.00629600
v 0.05772400 0.00439700 -0.01163000
v 0.05017500 0.03362500 -0.00646000
v 0.04975800 0.03752400 -0.00466600
v 0.06108200 0.02859000 0.00638500
v 0.06745900 0.00378000 0.00586500
v 0.05334400 0.03517500 -0.00024800
v 0.06177000 0.02162200 -0.00009300
v 0.06579900 0.02753700 0.01356600
v 0.05381400 0.02356700 -0.01019600
v 0.04813900 0.04684600 0.00717800
v 0.07096900 -0.00634100 0.01569700
v 0.07885800 -0.01107900 0.02646100
v 0.07729800 -0.02072000 0.02632400
v 0.08003800 -0.00432200 0.02620300
v 0.07934700 0.00850200 0.02711000
v -0.06894600 -0.01097500 0.01171700
v -0.07446100 -0.01589200 0.02802600
v -0.05699500 -0.05138500 0.02810100
v -0.06474100 -0.03506700 0.02505700
v -0.07183300 -0.01530100 0.02739200
v -0.07232600 -0.02505500 0.02786600
v -0.06617100 -0.04540100 0.02949300
v -0.06628600 -0.04489400 0.02646900
v -0.07814500 -0.01702400 0.02634300
v -0.06319400 -0.04308900 0.02832600
v -0.06774400 -0.04046800 0.03020600
v -0.07253100 -0.03148300 0.02631300
v -0.07318600 -0.03401900 0.02806200
v -0.03685500 -0.06813400 0.02840100
v -0.06820000 -0.03513500 0.02823700
v -0.06372200 -0.00405200 -0.00232800
v -0.07334500 -0.00952500 0.02610200
v -0.04191600 -0.06079300 0.02778100
v -0.03797200 -0.07075600 0.02686300
v -0.03329200 -0.06586200 0.02777200
v -0.07641100 -0.00165400 0.02781200
v -0.04336100 -0.06856800 0.02815700
v -0.03638900 -0.07078900 0.02995300
v -0.04709100 -0.06405300 0.02992200
v -0.03067900 -0.07537200 0.02874500
v -0.07803600 -0.00866900 0.02943200
v -0.07262400 -0.00672900 0.02615300
v -0.07999800 0.00464800 0.02707300
v -0.03600400 -0.06523300 0.02640100
v -0.05947200 -0.02525900 -0.00167700
v -0.07867300 0.01275100 0.02806600
v -0.06075700 0.01155700 -0.00561800
v -0.07589300 0.02311500 0.02719200
v -0.07639100 0.01928400 0.02901600
v -0.04245800 -0.05791000 0.01931000
v -0.06206500 0.01159100 -0.00165000
v -0.05078000 -0.05883500 0.02834500
v -0.06397500 -0.02109600 0.00611200
v -0.07241800 0.00687100 0.02589700
v -0.07372100 0.00007900 0.02575500
v -0.04692800 -0.05790000 0.02639600
v -0.07769700 0.00260800 0.02929000
v -0.05108700 -0.05329100 0.02781300
v -0.06985700 0.00949800 0.01202200
v -0.05841900 -0.02195200 -0.00365700
v -0.06769800 -0.01723800 0.00947100
v -0.06874100 0.00422400 0.01158000
v -0.06949100 0.02241000 0.02432300
v -0.05717400 -0.04720400 0.02588700
v -0.06909800 0.02178400 0.02608000
v -0.05269800 -0.04962100 0.01571400
v -0.06929900 -0.02261100 0.02163400
v -0.06759300 0.01672800 0.01234400
v -0.07537500 0.01077400 0.02761200
v -0.07492800 0.01382900 0.02890300
v -0.07289200 0.00937000 0.02536300
v -0.06515100 -0.03027600 0.01532300
v -0.07675400 -0.02191600 0.02923500
v -0.07128600 0.02300900 0.02721600
v -0.06503700 -0.02813900 0.01488400
v -0.05846500 -0.04835900 0.02904000
v -0.06184700 -0.05155200 0.02896000
v -0.05565200 -0.05689600 0.02960400
v -0.07251400 0.02430800 0.02918300
v -0.07142600 -0.02993200 0.02954300
v -0.06501800 -0.03209900 0.02315200
v -0.07118000 -0.01942900 0.02577300
v -0.06900800 -0.02585900 0.02688400
v -0.07069000 -0.00610800 0.01281200
v -0.06130200 -0.04029800 0.02652300
v -0.07994100 -0.00389800 0.02624900
v -0.07768700 0.01173900 0.02605700
v -0.05099000 -0.06222600 0.02687200
v -0.05679200 -0.05729900 0.02715000
v -0.04368500 0.06025200 0.02748600
v -0.03885100 0.06887100 0.02643800
v -0.07342500 0.03021200 0.02789600
v -0.03917200 0.06598100 0.02893800
v -0.05238200 0.01501700 -0.01303600
v 0.01633000 0.06633800 0.00978400
v -0.02614000 0.04296300 -0.01678000
v -0.05905300 0.02545400 -0.00084500
v 0.01373300 0.06815700 0.01050300
v -0.02719500 0.05512500 -0.00521500
v -0.02351200 0.06621600 0.01466300
v -0.02108600 0.06450100 0.00957500
v -0.03473800 0.06760400 0.02668000
v -0.03923300 0.05973400 0.01829900
v -0.06518800 0.03157800 0.02623200
v -0.06637700 0.02141900 0.01040900
v -0.01453900 0.06852200 0.01260900
v -0.00474400 0.07024200 0.01427800
v -0.06018500 0.03410000 0.00943500
v -0.03394300 0.06336500 0.02261100
v -0.05611500 0.02868600 -0.00141900
v -0.02517600 0.06806800 0.02482400
v -0.02406900 0.06808200 0.02655700
v 0.00020800 0.06168200 -0.00315700
v -0.06720000 0.02967800 0.02628500
v -0.00871800 0.05987500 -0.00584600
v -0.02827100 0.07089400 0.02887400
v -0.03030500 0.07243900 0.02647800
v -0.03732800 0.04503700 -0.00789300
v -0.06947800 0.03326100 0.02914800
v -0.06260000 0.03667800 0.02304700
v -0.03355200 0.04212600 -0.01490000
v -0.02120200 0.06119000 0.00068100
v -0.01081800 0.07137200 0.02457500
v -0.02249100 0.07138200 0.02710700
v -0.04692200 0.04198100 -0.00335800
v -0.02428400 0.05736100 -0.00207700
v -0.06350300 0.03963200 0.02849900
v -0.07192200 0.03037700 0.02594400
v -0.06912200 0.03919100 0.02801300
v -0.00860600 0.07444900 0.02703400
v -0.06767300 0.03434300 0.02741000
v -0.01418400 0.07067900 0.02629200
v -0.01321400 0.07619400 0.02866900
v -0.02246200 0.07431200 0.02561300
v -0.06607800 0.04282900 0.02632900
v -0.06136600 0.04887300 0.02900200
v -0.05876500 0.04656700 0.02740200
v -0.03383700 0.05489500 0.00001400
v -0.00892900 0.06676300 0.00812800
v 0.00294500 0.06890800 0.01227000
v -0.01030400 0.06475600 0.00235800
v -0.00444700 0.07173900 0.02538300
v -0.05066200 0.04012400 0.00199700
v -0.06078000 0.03250600 0.01071900
v -0.05771200 0.04081000 0.01990600
v 0.01031600 0.07116900 0.02541100
v -0.04951900 0.04534300 0.00704300
v 0.00932300 0.07196800 0.02474600
v 0.01698000 0.05857900 -0.00612000
v -0.00673800 0.07551300 0.02845500
v 0.00314300 0.07261400 0.02494000
v 0.00276400 0.07908800 0.02623700
v -0.05161400 0.04808800 0.01257300
v 0.00573400 0.07501100 0.02830200
v 0.01775000 0.05772800 -0.00550600
v 0.02759500 0.05832400 -0.00021900
v 0.00361100 0.07502000 0.02675200
v -0.00641500 0.07823800 0.02624100
v 0.00992900 0.07326100 0.02649600
v 0.00247100 0.07759700 0.02862500
v 0.01377000 0.07634700 0.02531400
v 0.01642200 0.07319700 0.02697400
v 0.00168700 0.06216800 -0.00406400
v 0.00744300 0.07703800 0.02549900
v -0.05199600 0.04992000 0.02566000
v -0.05607500 0.04630600 0.02503800
v -0.05571100 0.04470100 0.01713600
v -0.06095900 0.04999100 0.02653900
v -0.05655800 0.05037500 0.02890500
v -0.05597600 0.05485900 0.02630300
v -0.03924500 0.05609800 0.01047300
v -0.04758400 0.05708100 0.02799100
v -0.05322400 0.05827800 0.02827700
v -0.04438100 0.05585200 0.02424300
v -0.03439700 0.06333200 0.02600500
v -0.04900100 0.06111600 0.02599500
v -0.04724600 0.06176300 0.02889000
v -0.04950800 0.05548200 0.02682100
v -0.02145100 0.07524400 0.02810300
v -0.01369000 0.07735000 0.02636200
v 0.01160900 0.07868400 0.02724400
v 0.06571800 0.04576300 0.02763700
v 0.06067800 0.04692200 0.02875400
v 0.07714200 -0.00155600 0.02756600
v 0.05746300 0.04618400 0.02655500
v 0.02507900 0.06496200 0.01382700
v 0.04178500 0.05730100 0.01462800
v 0.07354700 0.01511500 0.02836600
v 0.06136400 0.03941000 0.02680300
v 0.02637300 0.06779900 0.02497500
v 0.06352800 0.03714000 0.02530400
v 0.02725200 0.06719200 0.02632600
v 0.07158600 0.01054000 0.02470700
v 0.03764200 0.06213700 0.02666000
v 0.02190600 0.06816300 0.02051800
v 0.03843900 0.06452600 0.02699400
v 0.03946800 0.06771200 0.02869600
v 0.04805900 0.06036300 0.02858500
v 0.03191100 0.06254300 0.01222400
v 0.02695500 0.07313300 0.02529800
v 0.02843200 0.06969600 0.02683500
v 0.06643900 0.02952200 0.02474900
v 0.04069300 0.05618600 0.01217600
v 0.01481800 0.07515000 0.02885100
v 0.03558600 0.07129400 0.02719700
v 0.07486700 0.01361500 0.02770400
v 0.02868000 0.07188700 0.02855900
v 0.06823800 0.02808000 0.02600500
v 0.07231000 0.02747400 0.02748800
v 0.07850600 0.01674900 0.02858800
v 0.05375300 0.04980200 0.02631000
v 0.07315700 0.02576200 0.02948400
v 0.05581300 0.04136900 0.00909800
v 0.06862100 0.03958100 0.02595900
v 0.06846200 0.03894400 0.02897800
v 0.05611000 0.04037600 0.01110300
v 0.05142400 0.04870600 0.01913700
v 0.04015700 0.06124300 0.02540700
v 0.05047200 0.05289300 0.02479600
v 0.04744300 0.05885900 0.02713300
v 0.05505100 0.05320300 0.02651500
v 0.05579300 0.05554100 0.02846600
v 0.02216300 0.07641100 0.02702400
v 0.04442600 0.06474000 0.02546800
v 0.07655700 0.01916300 0.02674300
v 0.06322400 0.04684400 0.02562700
v 0.06142000 0.05006500 0.02700800
v 0.05756400 0.05453600 0.02623200
v 0.07437100 0.02834800 0.02648700
v 0.05150300 0.06096900 0.02650000
v 0.06672500 0.03731300 0.02746800
v 0.07377100 0.03095000 0.02795600
vn 0.26614010 0.32185117 0.90861503
vn 0.69275896 0.49027735 0.52887914
vn -0.06312375 -0.75803346 -0.64915381
vn -0.22209278 -0.37101075 -0.90167945
vn 0.14063068 0.78701885 0.60068656
vn -0.09846370 -0.85145076 -0.51510825
vn -0.11894734 -0.39760488 -0.90981421
vn 0.78767821 0.44822458 0.42267926
vn -0.18558563 -0.98257512 0.01020350
vn -0.13082080 -0.39984578 -0.90719858
vn 0.18106834 0.36112813 0.91476813
vn 0.00000007 0.00042993 -0.99999991
vn -0.02179690 -0.53704407 -0.84327253
vn -0.75292571 -0.55349771 -0.35601006
vn 0.57372115 0.62356379 0.53104824
vn 0.80442959 0.17231380 0.56850769
vn 0.77961415 0.56010178 0.28015669
vn -0.70517978 -0.27379091 -0.65403365
vn 0.68695618 0.63914542 0.34580969
vn -0.21977573 -0.71578260 -0.66283776
vn 0.02806759 0.31705995 0.94799008
vn -0.50919504 -0.77492982 -0.37443849
vn -0.34005090 -0.17978328 -0.92306195
vn 0.29014296 0.74130788 0.60521044
vn -0.31249953 -0.90104818 -0.30075940
vn -0.40979232 -0.66865865 -0.62045617
vn 0.66476406 0.32693106 0.67171782
vn -0.30108572 -0.80125722 -0.51704376
vn 0.09582420 0.66835704 0.73764259
vn 0.32006033 0.85033372 0.41772474
vn 0.01562790 -0.03110230 0.99939402
vn 0.32671064 0.18309111 0.92722047
vn -0.37858720 -0.04092503 -0.92466041
vn 0.36681293 0.02947757 0.92982759
vn 0.11068927 0.87915547 0.46350139
vn -0.04768144 -0.01922012 0.99867766
vn 0.47331570 0.83653708 0.27600356
vn 0.00029130 -0.14248576 -0.98979681
vn -0.44212766 -0.84965767 -0.28741083
vn -0.01023572 -0.02424110 0.99965374
vn 0.83506682 0.00742822 0.55009838
vn -0.10831103 -0.28588189 -0.95212408
vn -0.02193305 -0.08767022 -0.99590806
vn -0.24083179 -0.85224370 -0.46441439
vn -0.00712969 -0.03485173 0.99936706
vn 0.04374013 -0.01579413 -0.99891809
vn -0.01802301 -0.00404896 0.99982937
vn 0.69886936 0.16307292 0.69641140
vn -0.54040765 -0.67638488 -0.50046285
vn 0.56509180 0.48314804 0.66875947
vn -0.75236349 0.02112073 -0.65840952
vn -0.61976130 -0.49948763 -0.60531648
vn 0.42376876 0.66979204 0.60975295
vn -0.30466717 -0.31204824 -0.89989100
vn 0.54891112 0.74771107 0.37366394
vn 0.19242323 0.93864308 0.28622101
vn 0.42275690 0.81259775 0.40120008
vn 0.35027355 0.89660842 0.27092763
vn 0.21263768 0.94932466 0.23144742
vn -0.08220266 0.38785926 0.91804570
vn -0.36226180 0.64508488 0.67277922
vn 0.13687459 -0.86644208 -0.48014943
vn -0.10089830 0.87438754 0.47462191
vn -0.44977960 0.56903921 0.68839864
vn 0.34909943 -0.87180410 -0.34363818
vn 0.06428352 -0.55182831 -0.83147649
vn 0.05373168 -0.27800343 -0.95907612
vn 0.18968609 -0.33375253 -0.92337882
vn -0.06248513 -0.16759445 0.98387383
vn -0.15347493 -0.71119344 -0.68603887
vn -0.11676995 -0.51581155 0.84870680
vn 0.02565537 -0.02118408 0.99944637
vn 0.75969050 -0.53575209 -0.36856485
vn -0.37588231 0.45146312 0.80925493
vn -0.18779872 -0.93066370 -0.31400113
vn 0.23066483 -0.68727991 -0.68879609
vn -0.26583050 0.73310704 0.62600976
vn -0.00117076 -0.94724830 -0.32049851
vn 0.16027583 -0.94492932 -0.28534232
vn -0.25832423 0.58358569 0.76986774
vn -0.27846913 0.26116291 0.92425585
vn -0.40959658 0.72002789 0.56017004
vn 0.09633317 0.93620266 0.33800073
vn -0.09971014 -0.82556781 -0.55542388
vn -0.52913918 0.64033433 0.55676177
vn -0.03713229 0.07010100 -0.99684856
vn 0.50420489 -0.79326090 0.34134231
vn 0.11584749 0.53841860 0.83467644
vn 0.00440379 -0.11852225 -0.99294163
vn -0.04369438 -0.18100771 -0.98251057
vn -0.02847676 -0.80754008 -0.58912486
vn 0.13876757 -0.23226663 -0.96270233
vn 0.47664138 -0.51287433 -0.71398383
vn -0.06106353 0.70901975 0.70253985
vn -0.05136386 0.60818975 0.79212813
vn 0.04126849 -0.37228269 0.92720144
vn 0.29216709 -0.75868177 -0.58227173
vn 0.58007529 -0.57131082 -0.58061744
vn 0.69466874 -0.42034867 -0.58373139
vn -0.63089599 0.41318017 0.65669810
vn 0.61998031 -0.71256729 -0.32843915
vn 0.23989426 -0.74116376 -0.62699843
vn 0.08254098 -0.64409447 -0.76047965
vn 0.08288091 -0.73118889 -0.67712153
vn 0.12870610 -0.37486603 -0.91810141
vn 0.03771691 -0.01225352 0.99921333
vn 0.36302832 -0.88990133 -0.27619932
vn 0.57960194 -0.66747713 -0.46747821
vn 0.07920586 -0.48737693 0.86959195
vn 0.40827321 -0.65812608 -0.63260023
vn -0.05098354 0.21320211 0.97567696
vn 0.02139585 0.02678937 0.99941210
vn -0.13254394 0.89121937 0.43377428
vn -0.76622173 0.55389705 0.32573352
vn -0.63143318 0.58130007 0.51320791
vn 0.15266238 -0.56350322 0.81188566
vn -0.04197197 -0.01414219 -0.99901869
vn 0.38938163 -0.65392154 -0.64866676
vn -0.24398338 0.50930520 0.82527590
vn -0.29287689 0.31231476 0.90370494
vn 0.13736688 -0.29038348 0.94699935
vn -0.09801481 0.76872361 0.63202620
vn 0.10332012 -0.76268196 -0.63846784
vn 0.42903617 -0.86515215 -0.25969158
vn 0.78073247 -0.56511171 -0.26665628
vn 0.22247352 -0.22274972 -0.94915125
vn -0.29817844 0.84204388 0.44950164
vn 0.40796850 -0.79372437 -0.45117992
vn 0.87979392 -0.37375686 -0.29371494
vn -0.48033123 0.74910501 0.45620566
vn -0.06958786 0.04042471 0.99675643
vn -0.69827528 0.47392739 0.53647410
vn -0.61027456 0.70161260 0.36783790
vn 0.04441006 -0.05650831 -0.99741393
vn 0.46008871 -0.22607616 0.85860815
vn -0.45592617 0.23492701 0.85845246
vn 0.58843032 -0.75210218 -0.29680307
vn 0.71423157 -0.43116295 -0.55133635
vn 0.24155267 -0.15116518 -0.95854129
vn -0.00620458 0.08529760 -0.99633620
vn -0.02924673 0.03267118 -0.99903815
vn -0.14076435 0.24947017 0.95809709
vn 0.11728417 -0.35704545 -0.92669465
vn 0.12289661 -0.15238450 -0.98065049
vn 0.22380185 -0.33747191 -0.91434427
vn -0.42933200 0.64864763 0.62843479
vn 0.64627186 -0.67453260 0.35684514
vn -0.61514102 0.75022813 0.24240313
vn 0.21011287 0.70231536 0.68015125
vn -0.66282552 0.65768612 0.35792639
vn 0.04910337 -0.92988078 -0.36456906
vn 0.02439855 -0.76425047 -0.64445785
vn 0.23549046 -0.21753960 -0.94721738
vn -0.01301726 0.94913796 0.31459129
vn 0.73093935 -0.61809089 0.28929451
vn 0.13604753 -0.88405028 -0.44715341
vn -0.42974185 0.84639253 0.31454988
vn 0.42147495 -0.90611307 -0.03630374
vn 0.07509219 -0.11443383 -0.99058875
vn 0.77714174 -0.62920645 -0.01224548
vn -0.21424192 0.93293943 0.28935172
vn 0.66178843 -0.40056673 -0.63370527
vn 0.80881169 -0.34172620 -0.47858840
vn 0.52577185 -0.40892308 -0.74588597
vn 0.33601909 -0.09452541 0.93709985
vn 0.05970798 0.38214456 -0.92217162
vn 0.01777669 -0.01396191 0.99974449
vn -0.00643488 0.02585276 0.99964505
vn 0.72774459 -0.05706261 0.68347031
vn 0.01638040 0.03869154 0.99911693
vn 0.15645895 0.31606035 -0.93574914
vn -0.21814561 -0.29889026 0.92901943
vn -0.36614804 0.07720150 -0.92734866
vn -0.62716240 0.28329749 -0.72554108
vn -0.05988240 0.03283815 0.99766515
vn -0.01023848 0.02430824 -0.99965208
vn 0.03345992 -0.40254806 0.91478713
vn -0.32508023 0.18078059 -0.92824632
vn 0.32264735 -0.17415622 0.93035923
vn 0.15155080 -0.34417470 0.92659383
vn -0.44351970 0.34972472 -0.82521688
vn -0.23335256 0.70125324 -0.67363972
vn 0.27148421 -0.25101741 0.92913216
vn -0.00537400 -0.03309683 -0.99943770
vn 0.00971330 0.00413000 0.99994430
vn -0.70262381 0.30852620 -0.64119527
vn 0.19257101 -0.71382202 0.67333092
vn -0.02929680 0.04099809 0.99872962
vn 0.12585578 -0.80842846 0.57498152
vn 0.66929589 -0.33233148 0.66452900
vn -0.00660560 -0.00603957 -0.99995994
vn 0.26894610 0.48859684 -0.83002477
vn -0.05530813 -0.35792998 0.93210897
vn -0.03791547 0.71566717 -0.69741159
vn 0.61847450 -0.46207247 0.63559289
vn -0.08308648 0.36081252 -0.92893001
vn 0.17773585 0.67551384 -0.71560535
vn -0.24087622 0.30407831 -0.92169140
vn 0.57465486 0.78750227 0.22273743
vn 0.30517653 0.58998615 -0.74751831
vn -0.00545659 0.03785176 0.99926847
vn 0.00033951 0.38373720 -0.92344228
vn -0.14518796 -0.34614066 0.92688031
vn -0.64056688 0.44238174 -0.62767226
vn -0.26510020 0.53799519 -0.80017690
vn 0.01368027 0.03088593 0.99942929
vn -0.05772449 0.00755754 0.99830395
vn 0.14333747 0.71819136 -0.68092256
vn 0.00879989 0.02265193 -0.99970468
vn -0.15866172 -0.71524635 0.68062407
vn -0.33485569 -0.63153783 0.69930797
vn -0.38647285 -0.77786963 0.49553766
vn -0.41047116 -0.04430988 0.91079639
vn -0.90240215 -0.28791977 0.32058161
vn 0.04107581 -0.02600158 0.99881765
vn 0.82317942 -0.25167856 -0.50895339
vn -0.93424323 -0.17326184 0.31172091
vn 0.03480461 0.01129633 0.99933029
vn 0.84280029 0.23303090 -0.48516417
vn -0.86953458 0.39604297 0.29505860
vn 0.06035249 -0.01334712 -0.99808789
vn 0.32913799 -0.27068340 -0.90465390
vn -0.85441236 0.27927742 0.43815938
vn -0.34313245 0.18271830 0.92134366
vn 0.38768850 0.47388858 -0.79064989
vn 0.57929989 0.42769562 -0.69389343
vn 0.36096952 0.05005620 -0.93123326
vn -0.88980581 0.15181721 0.43034539
vn 0.28462036 0.21872413 -0.93335471
vn -0.03927203 -0.00606671 -0.99921014
vn 0.03619435 0.04464548 0.99834701
vn 0.49412987 0.54756603 -0.67528298
vn 0.43991770 -0.21883872 -0.87096615
vn -0.86882124 0.35537148 0.34476189
vn 0.35639963 0.13702677 -0.92423102
vn 0.10872601 -0.04277305 -0.99315111
vn 0.86699203 -0.14321028 -0.47730035
vn -0.34080459 -0.10010504 0.93478939
vn -0.73411924 0.16554061 0.65853265
vn -0.92128247 0.23418599 0.31047629
vn 0.74455792 -0.16038326 -0.64800518
vn 0.94430090 -0.13895420 -0.29830779
vn -0.31700759 -0.21404237 0.92395457
vn -0.48257187 -0.52972295 0.69750841
vn -0.69812333 -0.27773919 0.65991269
vn -0.75862945 0.39437163 0.51860619
vn -0.87001167 0.05066477 0.49042102
vn -0.41730021 0.05179413 0.90729152
vn 0.40722503 -0.03538453 -0.91264216
vn 0.53744858 0.63356614 -0.55654557
vn 0.93437808 -0.34828311 -0.07507654
vn 0.33294077 -0.04284600 0.94197381
vn 0.47561151 -0.07464550 -0.87648260
vn 0.93381150 -0.18454799 0.30649328
vn -0.00223230 -0.01511687 0.99988324
vn 0.61305632 -0.03859575 0.78909588
vn 0.91132055 0.15652553 -0.38078157
vn 0.35312011 0.68370083 -0.63863868
vn -0.71374795 0.17400559 0.67844375
vn 0.94761540 0.00601155 -0.31935702
vn -0.80672728 0.22059956 0.54820337
vn -0.81102759 0.02472333 0.58448525
vn 0.67591730 0.05483867 0.73493437
vn -0.36786806 0.03951409 0.92903807
vn -0.47861035 -0.66766462 0.57022460
vn 0.89196114 0.08938362 -0.44318832
vn 0.59696405 0.69361669 -0.40314985
vn 0.85497978 -0.06513652 -0.51455497
vn -0.59984863 -0.64367887 0.47524640
vn -0.79911594 -0.19678119 0.56805887
vn 0.76958715 0.07325001 -0.63432645
vn -0.66570555 -0.47038214 0.57928988
vn 0.66784282 0.50637550 -0.54549960
vn -0.82575314 -0.39793783 0.39972145
vn -0.90985952 -0.05262483 0.41156564
vn -0.72172709 -0.51151276 0.46633110
vn 0.82136179 0.30157644 -0.48416574
vn 0.87615156 0.37524411 -0.30257279
vn 0.71180407 0.32043856 -0.62502327
vn -0.65177920 -0.63905510 0.40840233
vn -0.96162783 0.06762206 0.26589317
vn 0.58936710 -0.04226304 -0.80675910
vn 0.49375232 -0.25234820 -0.83218330
vn 0.66755683 -0.03084453 -0.74391969
vn 0.65942272 0.06234695 -0.74918258
vn 0.93451333 0.11859863 0.33558784
vn -0.13537545 -0.02534017 -0.99047027
vn -0.09237424 -0.13410130 -0.98665285
vn -0.76763189 -0.43798767 -0.46787614
vn 0.71300146 0.15582968 0.68362712
vn -0.17302449 -0.03322115 -0.98435709
vn -0.58726074 -0.29110200 0.75523801
vn -0.49244223 -0.23500555 -0.83801733
vn -0.67099128 -0.07742306 -0.73741195
vn -0.11005608 -0.07441669 -0.99113562
vn -0.22273094 -0.23195888 0.94688226
vn -0.19341557 -0.03084554 -0.98063192
vn -0.92250025 -0.36005553 0.13911613
vn 0.00521842 -0.01835205 -0.99981797
vn -0.03218915 -0.04506066 -0.99846552
vn -0.85462059 -0.05893512 -0.51589757
vn -0.84424275 -0.12209989 -0.52186760
vn 0.41634419 0.60955508 0.67461109
vn -0.22536974 -0.52452421 -0.82102548
vn 0.33035160 0.66643306 0.66838222
vn -0.12437595 0.00946287 -0.99219004
vn -0.53662729 -0.84269192 0.04360588
vn -0.24491145 -0.36639654 0.89764801
vn -0.27807911 -0.28490646 0.91733327
vn -0.39822906 -0.89348192 0.20761425
vn -0.35626178 -0.02052638 0.93416070
vn 0.80380345 0.06204897 0.59165018
vn -0.93522605 -0.09673968 -0.34057844
vn -0.38934221 -0.73192680 -0.55919210
vn -0.79887713 -0.33074718 -0.50239589
vn -0.90176739 0.27512044 0.33335315
vn -0.81053161 0.16535630 -0.56186813
vn -0.85978581 0.37310856 -0.34865221
vn -0.56034531 0.14417785 0.81561381
vn 0.57769366 0.77675874 0.25083043
vn 0.84532658 -0.17120391 0.50607528
vn -0.02103046 0.00893934 -0.99973887
vn 0.87089532 0.27638370 0.40639070
vn 0.81934678 -0.09740194 0.56496346
vn -0.83398460 0.01918333 -0.55145416
vn -0.50239476 -0.63284900 -0.58915333
vn -0.13277785 -0.02672723 0.99078539
vn 0.50908263 0.51471382 0.68985836
vn -0.93667997 0.13137849 -0.32460795
vn 0.77442505 0.30562088 0.55395101
vn -0.90458800 -0.22508218 -0.36202011
vn 0.93930965 -0.05193608 0.33911652
vn -0.87967418 0.28919620 -0.37754323
vn -0.68494545 -0.52408284 -0.50614910
vn 0.76768282 -0.27573802 0.57847354
vn -0.69330785 -0.66322440 -0.28188229
vn -0.91289431 -0.25914302 -0.31538688
vn 0.91546791 -0.23917695 0.32359371
vn -0.02220483 -0.01091332 -0.99969388
vn 0.22958398 -0.05336896 0.97182455
vn -0.84476674 0.11988642 -0.52153274
vn -0.87497163 -0.39948433 -0.27356337
vn -0.67213991 -0.19425881 0.71448685
vn -0.38884723 0.09170552 -0.91672675
vn 0.88036009 0.37371135 0.29207179
vn 0.21249638 0.22570570 0.95073773
vn -0.63203708 -0.50040428 0.59171335
vn -0.28879664 -0.33443724 0.89707761
vn 0.04195903 -0.08702044 0.99532250
vn 0.09544587 0.03418100 0.99484760
vn 0.86415506 0.46228517 0.19881765
vn -0.84367932 -0.12694182 -0.52162340
vn 0.79092764 0.25612574 0.55572752
vn -0.94646416 -0.06221157 -0.31675751
vn 0.66696265 0.43516218 0.60480964
vn -0.76918640 0.07638660 -0.63444257
vn -0.25635958 0.07851606 -0.96338725
vn -0.46378612 -0.47400711 -0.74847825
vn -0.47060711 -0.59416385 -0.65230228
vn -0.21458787 0.36461614 -0.90609443
vn -0.41691758 0.79867203 -0.43393860
vn -0.89321695 0.36184945 0.26688658
vn -0.04423210 0.15469172 0.98697213
vn 0.71680500 -0.22737779 0.65915851
vn -0.20650451 -0.91253449 0.35303923
vn 0.37683180 -0.60654360 0.70007332
vn -0.79402505 0.36442289 -0.48653898
vn 0.17652306 0.92486004 -0.33685830
vn -0.35920743 0.74349850 -0.56407447
vn -0.34463455 0.89588039 -0.28040214
vn 0.30207781 -0.88863430 0.34507691
vn -0.13863562 0.25131407 -0.95792557
vn -0.50339919 0.80918645 -0.30299594
vn 0.73815943 -0.35131175 0.57593464
vn -0.89176391 0.30049812 -0.33831643
vn -0.21351694 0.93393536 -0.28666229
vn -0.04617389 0.95714330 -0.28591026
vn -0.80750599 0.46933626 -0.35729196
vn -0.40511855 0.80293123 -0.43724180
vn 0.77020676 -0.38195144 0.51077847
vn -0.24936719 0.80999721 -0.53077351
vn 0.26333511 -0.74082031 0.61793194
vn -0.02542830 -0.84319523 0.53700578
vn -0.57211654 0.27187813 -0.77379903
vn -0.13818982 0.80306309 -0.57964924
vn -0.06420164 0.13875523 0.98824346
vn -0.36211192 0.81290456 -0.45613719
vn 0.50559031 -0.62641475 0.59328155
vn 0.00936068 -0.00154227 0.99995500
vn -0.78669258 0.47799792 -0.39068245
vn -0.45452232 0.57956231 -0.67640002
vn -0.29151248 0.83564550 -0.46552880
vn -0.14930905 0.86315116 -0.48236593
vn -0.06255016 0.12927318 -0.98963424
vn -0.62736043 0.58257607 -0.51674367
vn 0.34858894 -0.78047945 0.51897744
vn 0.38444738 -0.24493543 0.89006003
vn -0.36061822 0.16407882 -0.91816809
vn -0.79655956 0.47144847 0.37845634
vn -0.02140515 0.23073715 -0.97278065
vn -0.06630221 0.04895234 -0.99659806
vn 0.13638203 -0.73452026 0.66474049
vn -0.06818663 0.33621846 0.93931237
vn -0.15360349 0.36885318 -0.91670786
vn -0.45439240 0.36341132 -0.81330176
vn -0.50557847 0.39535814 0.76686527
vn -0.21035713 0.19422846 -0.95813631
vn -0.47752398 0.75159578 -0.45505453
vn 0.13093387 -0.92207668 0.36418527
vn -0.03451924 -0.94822264 0.31572494
vn -0.12850917 0.88200216 -0.45338458
vn 0.05364470 -0.84018935 0.53963330
vn 0.64060460 -0.58028102 0.50289133
vn 0.82864734 -0.45053508 0.33220735
vn 0.76017181 -0.57443358 0.30358670
vn -0.11608680 -0.83065873 0.54454561
vn 0.66835670 -0.63750833 0.38325247
vn 0.19391361 0.81105355 -0.55189642
vn 0.21991765 0.81147129 -0.54143381
vn 0.02109654 0.00193150 0.99977558
vn 0.00911074 0.83212373 -0.55451518
vn -0.11895635 0.85188872 -0.51003431
vn -0.67903362 0.68029649 -0.27588046
vn 0.02635000 -0.30186732 0.95298573
vn -0.22673078 -0.78852478 0.57168332
vn 0.37733328 0.79748508 -0.47078354
vn -0.11075791 0.20367456 -0.97275349
vn -0.08286580 0.87567896 -0.47573061
vn 0.30328212 0.30700860 -0.90208962
vn -0.01312295 0.44156823 0.89713170
vn 0.06229592 0.18194069 -0.98133420
vn 0.02666163 0.00815391 -0.99961126
vn 0.01888530 0.85065386 -0.52538686
vn -0.01978629 0.24706929 -0.96879578
vn 0.60729043 -0.60251241 0.51785822
vn -0.65154938 0.59927304 -0.46514002
vn -0.75780976 0.61907700 -0.20607776
vn -0.54196848 0.48158799 -0.68872576
vn 0.24592475 -0.16710224 0.95477634
vn -0.48165759 0.38224213 -0.78860441
vn 0.52913028 -0.77606418 0.34314070
vn 0.29052947 -0.38503538 0.87597967
vn -0.52955902 0.62370531 0.57494255
vn 0.55250464 -0.72918833 0.40376107
vn 0.37570279 -0.72054663 0.58280355
vn -0.31940048 0.56059886 -0.76401063
vn -0.34045436 0.42186198 0.84031143
vn -0.30823394 0.28055446 -0.90900002
vn -0.16808791 0.72028853 0.67300140
vn -0.06134522 0.84211853 -0.53579207
vn 0.08871688 0.98028314 0.17656238
vn 0.74711567 0.60646314 0.27206735
vn -0.03915219 0.02788627 0.99884406
vn 0.00998134 -0.02888044 -0.99953304
vn 0.42333909 0.33725443 -0.84085877
vn -0.34981589 -0.89054115 0.29080113
vn 0.57332342 0.76756427 -0.28661009
vn -0.44552244 -0.09808477 0.88988153
vn -0.62575284 -0.41774905 0.65872538
vn 0.28735761 0.78768219 -0.54496089
vn 0.71439991 0.46011808 -0.52718510
vn -0.26324721 -0.71166173 0.65133593
vn -0.90964736 -0.12868454 0.39494554
vn -0.38392654 -0.61949981 0.68470461
vn 0.27108208 0.94012318 -0.20659845
vn 0.04375441 0.05643224 -0.99744722
vn 0.30855144 0.37093568 0.87590110
vn 0.07275680 0.21443591 0.97402448
vn 0.41244327 0.85340021 -0.31874540
vn 0.08568282 0.19847224 -0.97635405
vn 0.00798245 0.01252675 -0.99988967
vn -0.80310720 -0.39650388 0.44475105
vn -0.54473804 -0.76914074 0.33419005
vn -0.01705935 -0.00458650 0.99984396
vn 0.42058044 0.90627602 0.04214098
vn 0.25069357 0.05628314 -0.96642896
vn 0.05222876 0.11360584 0.99215214
vn 0.71663677 0.28993597 -0.63432553
vn -0.04607904 -0.04332892 -0.99799766
vn 0.87199000 0.19474776 0.44911774
vn -0.59068051 -0.53165830 0.60698928
vn 0.10368145 0.05898098 0.99286021
vn 0.74463079 0.56516135 -0.35513045
vn 0.53371727 0.20602951 -0.82018151
vn 0.44249386 0.27594760 0.85325969
vn -0.75710185 -0.56641380 0.32553372
vn -0.70540591 -0.64544455 0.29292291
vn 0.45145555 0.71732315 -0.53069331
vn 0.54069034 0.59840416 -0.59124141
vn 0.13382014 0.14143788 -0.98086059
vn 0.10284746 0.06758770 -0.99239826
vn 0.46118029 0.44266024 0.76900238
vn 0.25760775 0.96245172 0.08558579
vn 0.46716062 0.46083712 -0.75457942
vn 0.29144533 0.05612490 -0.95493959
vn 0.30167677 0.24115237 -0.92240808
vn 0.69236274 0.72139248 -0.01505733
vn 0.58131402 0.46508296 -0.66766148
vn 0.69610647 0.04697705 -0.71639999
vn 0.48058471 0.78661972 -0.38764385
vn 0.04985640 -0.01052289 -0.99870096
vn 0.88360923 0.34342784 0.31826411
f 209//209 12//12 46//46
f 23//23 54//54 18//18
f 30//30 24//24 53//53
f 27//27 16//16 330//330
f 14//14 315//315 52//52
f 5//5 24//24 30//30
f 315//315 18//18 52//52
f 28//28 20//20 6//6
f 47//47 36//36 40//40
f 12//12 4//4 54//54
f 36//36 1//1 45//45
f 1//1 50//50 11//11
f 67//67 9//9 7//7
f 9//9 310//310 7//7
f 10//10 3//3 20//20
f 10//10 13//13 3//3
f 26//26 28//28 49//49
f 122//122 29//29 5//5
f 57//57 53//53 55//55
f 15//15 55//55 53//53
f 4//4 10//10 20//20
f 2//2 27//27 330//330
f 12//12 38//38 10//10
f 10//10 4//4 12//12
f 1//1 11//11 45//45
f 45//45 11//11 21//21
f 10//10 38//38 13//13
f 11//11 29//29 21//21
f 320//320 37//37 55//55
f 326//326 39//39 314//314
f 326//326 336//336 39//39
f 14//14 49//49 22//22
f 8//8 2//2 330//330
f 38//38 66//66 13//13
f 8//8 330//330 323//323
f 55//55 15//15 19//19
f 21//21 29//29 60//60
f 31//31 21//21 60//60
f 336//336 14//14 22//22
f 38//38 143//143 66//66
f 17//17 19//19 8//8
f 26//26 4//4 20//20
f 11//11 24//24 29//29
f 29//29 24//24 5//5
f 18//18 33//33 23//23
f 48//48 32//32 34//34
f 336//336 22//22 39//39
f 320//320 55//55 19//19
f 22//22 25//25 39//39
f 53//53 24//24 11//11
f 45//45 21//21 31//31
f 28//28 26//26 20//20
f 49//49 28//28 22//22
f 3//3 6//6 20//20
f 53//53 57//57 30//30
f 12//12 54//54 23//23
f 36//36 32//32 1//1
f 28//28 25//25 22//22
f 23//23 33//33 46//46
f 35//35 5//5 30//30
f 6//6 75//75 28//28
f 75//75 25//25 28//28
f 12//12 209//209 38//38
f 56//56 35//35 30//30
f 40//40 36//36 45//45
f 314//314 39//39 25//25
f 23//23 46//46 12//12
f 42//42 314//314 44//44
f 314//314 25//25 44//44
f 18//18 51//51 33//33
f 44//44 25//25 75//75
f 38//38 209//209 176//176
f 41//41 16//16 48//48
f 42//42 44//44 43//43
f 315//315 301//301 18//18
f 51//51 18//18 301//301
f 167//167 40//40 45//45
f 331//331 301//301 315//315
f 45//45 31//31 167//167
f 16//16 27//27 48//48
f 15//15 53//53 50//50
f 48//48 34//34 169//169
f 169//169 41//41 48//48
f 51//51 173//173 33//33
f 49//49 52//52 26//26
f 50//50 2//2 15//15
f 49//49 14//14 52//52
f 317//317 51//51 301//301
f 41//41 169//169 321//321
f 321//321 169//169 364//364
f 52//52 54//54 26//26
f 54//54 52//52 18//18
f 4//4 26//26 54//54
f 32//32 27//27 50//50
f 50//50 53//53 11//11
f 2//2 50//50 27//27
f 8//8 19//19 2//2
f 15//15 2//2 19//19
f 48//48 27//27 32//32
f 50//50 1//1 32//32
f 34//34 32//32 36//36
f 149//149 58//58 305//305
f 149//149 59//59 58//58
f 43//43 67//67 7//7
f 55//55 37//37 57//57
f 57//57 58//58 30//30
f 305//305 58//58 37//37
f 37//37 320//320 305//305
f 58//58 57//57 37//37
f 56//56 58//58 59//59
f 56//56 30//30 58//58
f 110//110 143//143 68//68
f 143//143 110//110 76//76
f 154//154 63//63 35//35
f 124//124 137//137 101//101
f 148//148 157//157 61//61
f 64//64 74//74 80//80
f 74//74 142//142 80//80
f 93//93 110//110 68//68
f 80//80 60//60 122//122
f 79//79 78//78 62//62
f 66//66 123//123 13//13
f 143//143 38//38 176//176
f 60//60 29//29 122//122
f 127//127 63//63 161//161
f 79//79 62//62 65//65
f 43//43 89//89 67//67
f 108//108 73//73 137//137
f 71//71 69//69 9//9
f 68//68 176//176 230//230
f 133//133 114//114 115//115
f 70//70 151//151 71//71
f 151//151 96//96 71//71
f 143//143 123//123 66//66
f 91//91 78//78 79//79
f 75//75 78//78 84//84
f 91//91 84//84 78//78
f 80//80 77//77 64//64
f 123//123 143//143 76//76
f 78//78 6//6 62//62
f 35//35 56//56 154//154
f 75//75 6//6 78//78
f 142//142 74//74 81//81
f 72//72 142//142 81//81
f 68//68 222//222 93//93
f 77//77 80//80 122//122
f 74//74 100//100 81//81
f 77//77 82//82 64//64
f 44//44 75//75 84//84
f 99//99 216//216 73//73
f 220//220 246//246 114//114
f 110//110 93//93 98//98
f 76//76 110//110 97//97
f 64//64 82//82 85//85
f 43//43 44//44 84//84
f 84//84 89//89 43//43
f 129//129 73//73 216//216
f 88//88 149//149 69//69
f 6//6 3//3 123//123
f 92//92 145//145 86//86
f 88//88 83//83 149//149
f 118//118 92//92 86//86
f 91//91 89//89 84//84
f 83//83 88//88 95//95
f 88//88 69//69 71//71
f 122//122 5//5 63//63
f 70//70 89//89 90//90
f 63//63 5//5 35//35
f 89//89 91//91 90//90
f 152//152 96//96 151//151
f 96//96 152//152 109//109
f 100//100 64//64 85//85
f 100//100 85//85 115//115
f 94//94 96//96 109//109
f 101//101 92//92 118//118
f 79//79 156//156 91//91
f 145//145 147//147 87//87
f 147//147 112//112 87//87
f 112//112 147//147 120//120
f 120//120 147//147 106//106
f 123//123 62//62 6//6
f 156//156 90//90 91//91
f 105//105 90//90 156//156
f 147//147 155//155 106//106
f 94//94 111//111 113//113
f 71//71 95//95 88//88
f 95//95 71//71 96//96
f 95//95 96//96 94//94
f 99//99 98//98 93//93
f 93//93 222//222 233//233
f 99//99 93//93 233//233
f 161//161 157//157 127//127
f 224//224 81//81 100//100
f 127//127 122//122 63//63
f 150//150 133//133 148//148
f 100//100 74//74 64//64
f 79//79 65//65 102//102
f 124//124 102//102 65//65
f 125//125 101//101 137//137
f 137//137 73//73 125//125
f 79//79 102//102 156//156
f 122//122 127//127 77//77
f 158//158 116//116 103//103
f 126//126 153//153 92//92
f 121//121 116//116 158//158
f 86//86 144//144 117//117
f 128//128 62//62 97//97
f 161//161 61//61 157//157
f 126//126 92//92 101//101
f 109//109 104//104 107//107
f 126//126 101//101 125//125
f 105//105 104//104 90//90
f 111//111 94//94 109//109
f 116//116 107//107 103//103
f 82//82 77//77 127//127
f 107//107 116//116 111//111
f 128//128 97//97 110//110
f 107//107 111//111 109//109
f 155//155 160//160 131//131
f 146//146 61//61 112//112
f 102//102 105//105 156//156
f 102//102 117//117 105//105
f 146//146 112//112 120//120
f 73//73 108//108 98//98
f 111//111 116//116 119//119
f 117//117 102//102 118//118
f 113//113 111//111 119//119
f 117//117 118//118 86//86
f 146//146 120//120 150//150
f 119//119 116//116 121//121
f 120//120 132//132 150//150
f 113//113 119//119 161//161
f 61//61 161//161 119//119
f 110//110 108//108 128//128
f 73//73 98//98 99//99
f 119//119 121//121 61//61
f 120//120 106//106 132//132
f 110//110 98//98 108//108
f 106//106 155//155 131//131
f 87//87 158//158 144//144
f 121//121 158//158 87//87
f 132//132 106//106 131//131
f 112//112 61//61 121//121
f 114//114 246//246 115//115
f 121//121 87//87 112//112
f 65//65 62//62 128//128
f 100//100 115//115 246//246
f 133//133 150//150 114//114
f 123//123 3//3 13//13
f 123//123 97//97 62//62
f 123//123 76//76 97//97
f 114//114 150//150 132//132
f 126//126 125//125 138//138
f 220//220 114//114 132//132
f 234//234 220//220 132//132
f 65//65 128//128 124//124
f 135//135 160//160 162//162
f 130//130 127//127 157//157
f 137//137 124//124 128//128
f 125//125 73//73 129//129
f 130//130 82//82 127//127
f 82//82 130//130 85//85
f 234//234 240//240 220//220
f 108//108 137//137 128//128
f 126//126 134//134 159//159
f 134//134 126//126 138//138
f 136//136 132//132 131//131
f 115//115 85//85 133//133
f 131//131 160//160 135//135
f 132//132 136//136 234//234
f 130//130 157//157 133//133
f 136//136 131//131 135//135
f 157//157 148//148 133//133
f 138//138 163//163 139//139
f 139//139 134//134 138//138
f 162//162 164//164 135//135
f 139//139 140//140 164//164
f 140//140 139//139 141//141
f 135//135 252//252 136//136
f 60//60 80//80 142//142
f 31//31 142//142 72//72
f 163//163 141//141 139//139
f 239//239 234//234 136//136
f 252//252 239//239 136//136
f 142//142 31//31 60//60
f 135//135 164//164 251//251
f 251//251 252//252 135//135
f 143//143 176//176 68//68
f 105//105 117//117 107//107
f 67//67 71//71 9//9
f 71//71 67//67 70//70
f 70//70 67//67 89//89
f 86//86 145//145 144//144
f 145//145 87//87 144//144
f 154//154 56//56 83//83
f 124//124 101//101 118//118
f 154//154 94//94 161//161
f 150//150 148//148 146//146
f 145//145 92//92 153//153
f 63//63 154//154 161//161
f 83//83 56//56 59//59
f 149//149 83//83 59//59
f 90//90 151//151 70//70
f 90//90 152//152 151//151
f 104//104 152//152 90//90
f 153//153 147//147 145//145
f 155//155 147//147 153//153
f 146//146 148//148 61//61
f 154//154 83//83 94//94
f 83//83 95//95 94//94
f 159//159 153//153 126//126
f 155//155 153//153 159//159
f 94//94 113//113 161//161
f 160//160 155//155 159//159
f 117//117 103//103 107//107
f 103//103 117//117 144//144
f 103//103 144//144 158//158
f 159//159 162//162 160//160
f 118//118 102//102 124//124
f 104//104 109//109 152//152
f 134//134 162//162 159//159
f 133//133 85//85 130//130
f 164//164 162//162 134//134
f 104//104 105//105 107//107
f 129//129 138//138 125//125
f 251//251 164//164 140//140
f 163//163 138//138 129//129
f 164//164 134//134 139//139
f 188//188 175//175 168//168
f 175//175 207//207 168//168
f 40//40 167//167 185//185
f 207//207 165//165 34//34
f 207//207 34//34 36//36
f 33//33 173//173 46//46
f 169//169 34//34 165//165
f 209//209 191//191 176//176
f 40//40 185//185 47//47
f 199//199 171//171 166//166
f 183//183 175//175 188//188
f 364//364 169//169 165//165
f 182//182 202//202 196//196
f 209//209 46//46 191//191
f 175//175 165//165 207//207
f 174//174 178//178 173//173
f 46//46 184//184 191//191
f 364//364 165//165 179//179
f 173//173 178//178 46//46
f 175//175 179//179 165//165
f 366//366 180//180 187//187
f 181//181 178//178 174//174
f 191//191 230//230 176//176
f 178//178 196//196 46//46
f 179//179 175//175 183//183
f 194//194 202//202 182//182
f 187//187 180//180 177//177
f 180//180 183//183 188//188
f 46//46 196//196 184//184
f 178//178 198//198 196//196
f 168//168 47//47 185//185
f 186//186 173//173 51//51
f 206//206 168//168 185//185
f 177//177 189//189 187//187
f 189//189 177//177 210//210
f 201//201 188//188 168//168
f 186//186 174//174 173//173
f 433//433 208//208 194//194
f 193//193 170//170 203//203
f 186//186 181//181 174//174
f 204//204 181//181 186//186
f 202//202 184//184 196//196
f 192//192 199//199 166//166
f 206//206 185//185 167//167
f 197//197 192//192 166//166
f 193//193 177//177 170//170
f 364//364 179//179 190//190
f 206//206 167//167 218//218
f 198//198 205//205 196//196
f 195//195 179//179 183//183
f 197//197 202//202 194//194
f 202//202 197//197 166//166
f 180//180 188//188 201//201
f 208//208 197//197 194//194
f 195//195 190//190 179//179
f 198//198 178//178 181//181
f 203//203 210//210 193//193
f 205//205 182//182 196//196
f 191//191 184//184 230//230
f 202//202 166//166 184//184
f 211//211 203//203 172//172
f 211//211 172//172 244//244
f 192//192 200//200 199//199
f 200//200 192//192 197//197
f 200//200 171//171 199//199
f 225//225 171//171 200//200
f 366//366 183//183 180//180
f 177//177 180//180 201//201
f 231//231 206//206 218//218
f 258//258 200//200 197//197
f 201//201 170//170 177//177
f 203//203 211//211 210//210
f 391//391 181//181 204//204
f 258//258 197//197 208//208
f 206//206 203//203 170//170
f 391//391 205//205 198//198
f 391//391 198//198 181//181
f 232//232 200//200 258//258
f 425//425 211//211 265//265
f 210//210 177//177 193//193
f 391//391 182//182 205//205
f 183//183 366//366 388//388
f 203//203 206//206 172//172
f 166//166 171//171 184//184
f 47//47 207//207 36//36
f 189//189 210//210 383//383
f 168//168 206//206 201//201
f 168//168 207//207 47//47
f 425//425 210//210 211//211
f 170//170 201//201 206//206
f 425//425 265//265 212//212
f 258//258 208//208 419//419
f 227//227 230//230 235//235
f 31//31 72//72 215//215
f 167//167 31//31 215//215
f 227//227 235//235 271//271
f 472//472 274//274 214//214
f 219//219 257//257 278//278
f 221//221 68//68 230//230
f 246//246 220//220 223//223
f 214//214 217//217 463//463
f 221//221 222//222 68//68
f 233//233 222//222 221//221
f 224//224 72//72 81//81
f 261//261 223//223 228//228
f 72//72 224//224 215//215
f 228//228 262//262 261//261
f 264//264 215//215 224//224
f 227//227 221//221 230//230
f 225//225 226//226 229//229
f 231//231 218//218 238//238
f 171//171 225//225 229//229
f 216//216 268//268 260//260
f 243//243 244//244 172//172
f 240//240 223//223 220//220
f 129//129 216//216 242//242
f 226//226 225//225 232//232
f 227//227 253//253 221//221
f 163//163 129//129 237//237
f 129//129 242//242 237//237
f 215//215 264//264 218//218
f 230//230 171//171 229//229
f 243//243 231//231 238//238
f 228//228 223//223 240//240
f 232//232 225//225 200//200
f 242//242 216//216 260//260
f 281//281 228//228 240//240
f 184//184 171//171 230//230
f 275//275 262//262 228//228
f 281//281 275//275 228//228
f 172//172 206//206 231//231
f 265//265 211//211 244//244
f 218//218 167//167 215//215
f 231//231 243//243 172//172
f 229//229 235//235 230//230
f 239//239 240//240 234//234
f 236//236 141//141 163//163
f 255//255 239//239 252//252
f 243//243 272//272 244//244
f 236//236 163//163 237//237
f 253//253 233//233 221//221
f 272//272 243//243 245//245
f 279//279 271//271 235//235
f 238//238 213//213 245//245
f 100//100 259//259 224//224
f 240//240 247//247 281//281
f 250//250 226//226 232//232
f 245//245 243//243 238//238
f 241//241 99//99 233//233
f 247//247 240//240 239//239
f 226//226 235//235 229//229
f 259//259 100//100 246//246
f 265//265 244//244 272//272
f 237//237 249//249 236//236
f 239//239 248//248 247//247
f 248//248 239//239 255//255
f 249//249 282//282 236//236
f 248//248 255//255 256//256
f 454//454 282//282 249//249
f 224//224 259//259 264//264
f 237//237 242//242 266//266
f 226//226 273//273 279//279
f 266//266 249//249 237//237
f 273//273 226//226 250//250
f 253//253 241//241 233//233
f 248//248 256//256 263//263
f 256//256 284//284 263//263
f 226//226 279//279 235//235
f 251//251 283//283 252//252
f 252//252 283//283 254//254
f 254//254 255//255 252//252
f 271//271 253//253 227//227
f 256//256 254//254 282//282
f 255//255 254//254 256//256
f 272//272 276//276 269//269
f 269//269 265//265 272//272
f 260//260 268//268 257//257
f 241//241 216//216 99//99
f 213//213 264//264 262//262
f 259//259 246//246 261//261
f 258//258 250//250 232//232
f 261//261 246//246 223//223
f 264//264 259//259 262//262
f 278//278 257//257 277//277
f 426//426 250//250 258//258
f 270//270 213//213 262//262
f 213//213 270//270 245//245
f 217//217 275//275 281//281
f 419//419 426//426 258//258
f 281//281 463//463 217//217
f 463//463 281//281 247//247
f 241//241 253//253 271//271
f 219//219 260//260 257//257
f 266//266 260//260 219//219
f 271//271 216//216 241//241
f 262//262 259//259 261//261
f 268//268 216//216 271//271
f 242//242 260//260 266//266
f 273//273 250//250 267//267
f 266//266 454//454 249//249
f 263//263 284//284 285//285
f 213//213 218//218 264//264
f 213//213 238//238 218//218
f 262//262 275//275 270//270
f 276//276 272//272 274//274
f 273//273 277//277 279//279
f 277//277 273//273 483//483
f 267//267 483//483 273//273
f 257//257 268//268 271//271
f 276//276 486//486 269//269
f 280//280 269//269 486//486
f 272//272 245//245 270//270
f 483//483 278//278 277//277
f 257//257 271//271 277//277
f 279//279 277//277 271//271
f 276//276 274//274 486//486
f 217//217 270//270 275//275
f 472//472 486//486 274//274
f 214//214 270//270 217//217
f 274//274 272//272 270//270
f 274//274 270//270 214//214
f 141//141 283//283 140//140
f 283//283 141//141 236//236
f 236//236 282//282 283//283
f 284//284 282//282 454//454
f 251//251 140//140 283//283
f 283//283 282//282 254//254
f 282//282 284//284 256//256
f 285//285 284//284 454//454
f 348//348 328//328 346//346
f 326//326 322//322 288//288
f 331//331 302//302 354//354
f 295//295 289//289 334//334
f 14//14 336//336 289//289
f 287//287 291//291 294//294
f 295//295 334//334 288//288
f 343//343 290//290 311//311
f 289//289 342//342 14//14
f 331//331 337//337 302//302
f 311//311 294//294 343//343
f 17//17 351//351 355//355
f 343//343 298//298 350//350
f 298//298 297//297 293//293
f 290//290 350//350 353//353
f 296//296 293//293 292//292
f 286//286 312//312 290//290
f 291//291 287//287 352//352
f 293//293 296//296 298//298
f 300//300 295//295 293//293
f 292//292 346//346 355//355
f 296//296 292//292 355//355
f 302//302 352//352 287//287
f 314//314 42//42 299//299
f 296//296 353//353 350//350
f 286//286 16//16 41//41
f 289//289 295//295 300//300
f 302//302 325//325 354//354
f 350//350 298//298 296//296
f 296//296 355//355 353//353
f 311//311 356//356 294//294
f 306//306 287//287 294//294
f 309//309 358//358 307//307
f 302//302 287//287 306//306
f 312//312 311//311 290//290
f 309//309 307//307 308//308
f 304//304 310//310 308//308
f 306//306 294//294 356//356
f 7//7 310//310 304//304
f 301//301 331//331 354//354
f 308//308 307//307 304//304
f 69//69 149//149 305//305
f 308//308 305//305 303//303
f 69//69 308//308 310//310
f 308//308 69//69 305//305
f 302//302 306//306 325//325
f 309//309 308//308 303//303
f 69//69 310//310 9//9
f 7//7 299//299 42//42
f 41//41 332//332 286//286
f 327//327 356//356 311//311
f 7//7 42//42 43//43
f 311//311 312//312 327//327
f 17//17 8//8 345//345
f 324//324 327//327 312//312
f 323//323 345//345 8//8
f 316//316 313//313 327//327
f 14//14 342//342 315//315
f 357//357 316//316 319//319
f 316//316 340//340 319//319
f 319//319 318//318 357//357
f 331//331 315//315 342//342
f 332//332 41//41 321//321
f 309//309 348//348 359//359
f 329//329 317//317 301//301
f 309//309 328//328 348//348
f 322//322 326//326 299//299
f 341//341 354//354 325//325
f 299//299 326//326 314//314
f 324//324 332//332 338//338
f 351//351 17//17 345//345
f 303//303 328//328 309//309
f 328//328 303//303 320//320
f 339//339 341//341 325//325
f 288//288 334//334 326//326
f 313//313 356//356 327//327
f 306//306 356//356 313//313
f 357//357 306//306 313//313
f 306//306 357//357 339//339
f 339//339 325//325 306//306
f 354//354 329//329 301//301
f 16//16 323//323 330//330
f 312//312 286//286 332//332
f 334//334 336//336 326//326
f 324//324 312//312 332//332
f 286//286 323//323 16//16
f 286//286 345//345 323//323
f 341//341 329//329 354//354
f 333//333 375//375 329//329
f 333//333 329//329 341//341
f 317//317 329//329 375//375
f 335//335 324//324 338//338
f 355//355 328//328 17//17
f 338//338 332//332 321//321
f 289//289 336//336 334//334
f 324//324 340//340 327//327
f 316//316 327//327 340//340
f 352//352 302//302 337//337
f 348//348 347//347 359//359
f 343//343 297//297 298//298
f 297//297 343//343 294//294
f 341//341 339//339 344//344
f 340//340 324//324 335//335
f 346//346 292//292 347//347
f 339//339 357//357 344//344
f 290//290 343//343 350//350
f 344//344 333//333 341//341
f 340//340 335//335 319//319
f 319//319 335//335 349//349
f 337//337 331//331 342//342
f 318//318 319//319 349//349
f 347//347 348//348 346//346
f 290//290 345//345 286//286
f 353//353 351//351 345//345
f 291//291 300//300 297//297
f 289//289 300//300 291//291
f 337//337 289//289 291//291
f 291//291 352//352 337//337
f 337//337 342//342 289//289
f 355//355 351//351 353//353
f 290//290 353//353 345//345
f 19//19 328//328 320//320
f 293//293 359//359 347//347
f 288//288 293//293 295//295
f 292//292 293//293 347//347
f 300//300 293//293 297//297
f 288//288 359//359 293//293
f 322//322 359//359 288//288
f 346//346 328//328 355//355
f 304//304 299//299 7//7
f 316//316 357//357 313//313
f 303//303 305//305 320//320
f 322//322 358//358 359//359
f 318//318 344//344 357//357
f 358//358 309//309 359//359
f 304//304 307//307 358//358
f 299//299 304//304 358//358
f 358//358 322//322 299//299
f 297//297 294//294 291//291
f 328//328 19//19 17//17
f 186//186 51//51 317//317
f 318//318 362//362 398//398
f 360//360 361//361 372//372
f 372//372 379//379 360//360
f 321//321 364//364 380//380
f 362//362 318//318 349//349
f 379//379 372//372 381//381
f 363//363 445//445 382//382
f 398//398 362//362 399//399
f 384//384 375//375 333//333
f 391//391 369//369 182//182
f 375//375 367//367 317//317
f 366//366 187//187 396//396
f 388//388 366//366 396//396
f 469//469 368//368 465//465
f 335//335 338//338 414//414
f 408//408 370//370 392//392
f 321//321 380//380 414//414
f 384//384 378//378 375//375
f 445//445 441//441 371//371
f 364//364 190//190 380//380
f 370//370 376//376 392//392
f 408//408 373//373 370//370
f 335//335 414//414 374//374
f 380//380 190//190 195//195
f 367//367 186//186 317//317
f 447//447 363//363 361//361
f 382//382 445//445 371//371
f 379//379 370//370 373//373
f 380//380 195//195 413//413
f 367//367 204//204 186//186
f 382//382 371//371 402//402
f 414//414 338//338 321//321
f 402//402 371//371 409//409
f 390//390 378//378 384//384
f 189//189 396//396 187//187
f 369//369 385//385 182//182
f 415//415 374//374 414//414
f 437//437 423//423 378//378
f 437//437 378//378 390//390
f 392//392 385//385 369//369
f 409//409 412//412 402//402
f 378//378 204//204 367//367
f 182//182 385//385 194//194
f 204//204 378//378 395//395
f 375//375 378//378 367//367
f 381//381 370//370 379//379
f 349//349 335//335 374//374
f 395//395 378//378 423//423
f 384//384 344//344 398//398
f 398//398 401//401 384//384
f 380//380 413//413 414//414
f 333//333 344//344 384//384
f 393//393 370//370 381//381
f 433//433 194//194 385//385
f 391//391 204//204 395//395
f 361//361 387//387 372//372
f 394//394 381//381 372//372
f 386//386 363//363 382//382
f 195//195 417//417 413//413
f 417//417 195//195 388//388
f 394//394 387//387 404//404
f 433//433 385//385 411//411
f 389//389 362//362 349//349
f 349//349 374//374 389//389
f 361//361 363//363 386//386
f 386//386 387//387 361//361
f 388//388 195//195 183//183
f 399//399 362//362 389//389
f 369//369 408//408 392//392
f 389//389 374//374 397//397
f 386//386 382//382 402//402
f 386//386 402//402 449//449
f 401//401 390//390 384//384
f 387//387 386//386 449//449
f 393//393 376//376 370//370
f 397//397 374//374 415//415
f 393//393 381//381 394//394
f 436//436 437//437 390//390
f 449//449 404//404 387//387
f 393//393 377//377 376//376
f 400//400 393//393 394//394
f 371//371 441//441 396//396
f 404//404 450//450 400//400
f 436//436 390//390 407//407
f 397//397 415//415 435//435
f 396//396 189//189 371//371
f 399//399 405//405 398//398
f 399//399 389//389 397//397
f 376//376 411//411 392//392
f 409//409 189//189 383//383
f 411//411 385//385 392//392
f 390//390 401//401 407//407
f 400//400 450//450 428//428
f 401//401 405//405 407//407
f 371//371 189//189 409//409
f 408//408 391//391 395//395
f 400//400 394//394 404//404
f 402//402 403//403 449//449
f 406//406 399//399 397//397
f 449//449 450//450 404//404
f 406//406 405//405 399//399
f 403//403 450//450 449//449
f 420//420 402//402 412//412
f 420//420 403//403 402//402
f 438//438 405//405 406//406
f 369//369 391//391 408//408
f 428//428 403//403 420//420
f 412//412 409//409 410//410
f 409//409 383//383 410//410
f 441//441 388//388 396//396
f 368//368 377//377 421//421
f 406//406 397//397 439//439
f 414//414 413//413 417//417
f 377//377 411//411 376//376
f 417//417 415//415 414//414
f 210//210 425//425 383//383
f 377//377 393//393 421//421
f 419//419 208//208 433//433
f 416//416 412//412 410//410
f 418//418 421//421 427//427
f 410//410 365//365 416//416
f 435//435 415//415 417//417
f 456//456 416//416 365//365
f 418//418 368//368 421//421
f 368//368 419//419 433//433
f 365//365 383//383 425//425
f 429//429 432//432 418//418
f 368//368 418//418 465//465
f 460//460 465//465 418//418
f 432//432 460//460 418//418
f 456//456 462//462 416//416
f 416//416 462//462 474//474
f 435//435 417//417 441//441
f 423//423 408//408 395//395
f 388//388 441//441 417//417
f 424//424 420//420 412//412
f 419//419 368//368 426//426
f 400//400 421//421 393//393
f 421//421 400//400 427//427
f 400//400 428//428 422//422
f 422//422 427//427 400//400
f 430//430 420//420 424//424
f 365//365 425//425 212//212
f 373//373 408//408 423//423
f 424//424 412//412 416//416
f 434//434 418//418 427//427
f 420//420 430//430 428//428
f 418//418 434//434 429//429
f 416//416 474//474 424//424
f 432//432 429//429 431//431
f 451//451 493//493 431//431
f 470//470 432//432 431//431
f 493//493 470//470 431//431
f 377//377 433//433 411//411
f 422//422 434//434 427//427
f 433//433 377//377 368//368
f 422//422 430//430 451//451
f 451//451 430//430 424//424
f 451//451 424//424 474//474
f 410//410 383//383 365//365
f 444//444 441//441 445//445
f 435//435 439//439 397//397
f 440//440 407//407 438//438
f 407//407 440//440 448//448
f 443//443 406//406 439//439
f 443//443 439//439 442//442
f 373//373 423//423 437//437
f 435//435 441//441 444//444
f 437//437 436//436 373//373
f 448//448 373//373 436//436
f 448//448 436//436 407//407
f 435//435 444//444 442//442
f 439//439 435//435 442//442
f 443//443 442//442 447//447
f 443//443 446//446 440//440
f 379//379 373//373 360//360
f 448//448 446//446 360//360
f 446//446 443//443 447//447
f 442//442 363//363 447//447
f 448//448 360//360 373//373
f 445//445 442//442 444//444
f 363//363 442//442 445//445
f 344//344 318//318 398//398
f 401//401 398//398 405//405
f 394//394 372//372 387//387
f 407//407 405//405 438//438
f 450//450 403//403 428//428
f 440//440 446//446 448//448
f 406//406 440//440 438//438
f 440//440 406//406 443//443
f 422//422 428//428 430//430
f 361//361 360//360 446//446
f 447//447 361//361 446//446
f 434//434 431//431 429//429
f 434//434 451//451 431//431
f 422//422 451//451 434//434
f 451//451 474//474 493//493
f 473//473 269//269 280//280
f 463//463 247//247 248//248
f 497//497 453//453 452//452
f 463//463 248//248 458//458
f 266//266 476//476 454//454
f 248//248 263//263 458//458
f 497//497 492//492 453//453
f 267//267 469//469 457//457
f 487//487 486//486 459//459
f 460//460 469//469 465//465
f 476//476 266//266 219//219
f 365//365 212//212 456//456
f 476//476 285//285 454//454
f 460//460 432//432 471//471
f 501//501 461//461 455//455
f 263//263 285//285 480//480
f 458//458 263//263 480//480
f 472//472 214//214 463//463
f 464//464 467//467 462//462
f 469//469 460//460 488//488
f 466//466 488//488 460//460
f 462//462 456//456 473//473
f 478//478 219//219 278//278
f 487//487 280//280 486//486
f 460//460 471//471 466//466
f 473//473 280//280 487//487
f 463//463 458//458 472//472
f 219//219 478//478 476//476
f 466//466 490//490 488//488
f 468//468 467//467 464//464
f 489//489 483//483 267//267
f 267//267 457//457 489//489
f 462//462 477//477 474//474
f 477//477 493//493 474//474
f 464//464 462//462 473//473
f 467//467 477//477 462//462
f 471//471 470//470 494//494
f 466//466 471//471 494//494
f 475//475 494//494 470//470
f 495//495 476//476 479//479
f 472//472 458//458 482//482
f 477//477 467//467 475//475
f 482//482 459//459 472//472
f 479//479 476//476 478//478
f 455//455 483//483 489//489
f 488//488 457//457 469//469
f 480//480 482//482 458//458
f 478//478 278//278 461//461
f 488//488 489//489 457//457
f 478//478 461//461 501//501
f 480//480 499//499 482//482
f 485//485 459//459 482//482
f 499//499 502//502 482//482
f 501//501 499//499 479//479
f 501//501 479//479 478//478
f 502//502 485//485 482//482
f 499//499 484//484 502//502
f 250//250 426//426 267//267
f 459//459 453//453 481//481
f 453//453 459//459 485//485
f 484//484 501//501 496//496
f 484//484 485//485 502//502
f 453//453 485//485 452//452
f 426//426 469//469 267//267
f 278//278 483//483 461//461
f 487//487 481//481 473//473
f 469//469 426//426 368//368
f 456//456 212//212 473//473
f 455//455 461//461 483//483
f 486//486 472//472 459//459
f 212//212 265//265 269//269
f 473//473 481//481 464//464
f 473//473 212//212 269//269
f 489//489 490//490 491//491
f 481//481 453//453 468//468
f 490//490 489//489 488//488
f 464//464 481//481 468//468
f 491//491 500//500 498//498
f 491//491 490//490 500//500
f 453//453 492//492 468//468
f 492//492 498//498 500//500
f 490//490 494//494 500//500
f 468//468 492//492 500//500
f 481//481 487//487 459//459
f 489//489 491//491 455//455
f 491//491 498//498 497//497
f 494//494 490//490 466//466
f 470//470 471//471 432//432
f 493//493 475//475 470//470
f 476//476 495//495 285//285
f 475//475 493//493 477//477
f 480//480 285//285 495//495
f 480//480 495//495 499//499
f 494//494 475//475 467//467
f 499//499 495//495 479//479
f 496//496 491//491 497//497
f 491//491 496//496 455//455
f 501//501 455//455 496//496
f 494//494 468//468 500//500
f 468//468 494//494 467//467
f 452//452 496//496 497//497
f 492//492 497//497 498//498
f 499//499 501//501 484//484
f 496//496 452//452 484//484
f 485//485 484//484 452//452

