# https://github.com/mikedh/trimesh
v -0.02665511 -0.03072167 -0.02955514
v -0.01549820 -0.03853768 -0.02955514
v 0.02326332 0.02548642 -0.02955514
v -0.03182083 -0.02434456 -0.02955514
v 0.03569008 -0.01467487 -0.01382599
v 0.00246629 0.03376380 -0.02955514
v -0.03651505 0.00613598 -0.02955514
v -0.03804318 -0.00557427 -0.02955514
v -0.03509217 -0.01804210 -0.02955514
v 0.03126661 0.01649820 -0.02955514
v 0.00065379 -0.04156296 -0.02955514
v -0.01593656 0.03020176 0.02040324
v -0.00952007 0.03244616 -0.00352716
v -0.01643663 0.03015883 -0.02955514
v -0.00451528 0.03350342 0.01980094
v 0.03123631 0.01650668 -0.01754382
v 0.00697651 0.03292138 0.01859831
v 0.03175210 -0.02346796 -0.02955514
v 0.03559901 -0.01507696 -0.02955514
v 0.03613273 0.00573155 -0.02955514
v -0.03259960 0.01531057 0.02219887
v -0.02999545 0.01901339 0.02289154
v -0.00869895 0.03265906 -0.00694595
v 0.03482465 0.00931818 -0.01683753
v -0.03092277 -0.02575372 0.02125597
v 0.03718456 -0.00059894 -0.01553212
v 0.00942904 -0.04020205 0.01976200
v 0.02611905 -0.03057126 0.00630515
v -0.00148359 0.03365673 0.00677305
v 0.01383354 0.03092203 -0.02955514
v -0.02768086 0.02175389 0.02191743
v 0.02502024 0.02384243 -0.01680909
v -0.03777124 -0.00721474 0.02182615
v 0.00558081 0.03321080 -0.01365091
v -0.00742617 0.03293912 -0.02955514
v -0.02121371 0.02738517 0.02109304
v -0.02609597 0.02344484 -0.02955514
v 0.01284497 -0.03913517 -0.02955514
v -0.03264177 0.01533335 -0.02955514
v -0.01140743 0.03194779 0.01959083
v 0.03721830 -0.00567385 -0.02955514
v 0.02391642 -0.03285099 -0.02955514
v 0.00163107 -0.04144148 0.02014639
v -0.05766217 0.05772374 -0.02955514
v 0.01881886 -0.03625487 0.01909380
v 0.00509118 0.03321786 0.01271014
v -0.03560381 -0.01680412 0.02158841
v -0.00453788 0.03343822 -0.00998431
v 0.03203823 -0.02313408 -0.01071090
v -0.00053862 -0.04140287 0.02021455
v -0.02496699 -0.03226800 0.02088005
v 0.03426395 -0.01856228 -0.01346749
v 0.01521506 0.03036060 -0.01460781
v -0.01889130 -0.03651711 0.02062776
v -0.01241652 -0.03946216 0.02042030
v -0.00411445 -0.04125491 0.02021020
v 0.00120497 -0.08391725 -0.02954565
v -0.00852358 0.03270741 0.00062436
v 0.03653660 -0.01090336 -0.01441356
v 0.03671579 -0.01006527 -0.01455981
v -0.03730776 0.00282279 0.02204829
v -0.03544817 0.00920777 0.02211983
v -0.01013418 -0.08325538 -0.02955439
v 0.06183405 -0.05545644 -0.02955521
v -0.06079996 0.05507572 -0.02955455
v -0.03640672 0.07198419 -0.02955818
v -0.05542303 -0.06162650 -0.02955554
v 0.07718261 -0.03027610 -0.02955490
v -0.08083400 -0.00315456 -0.02955596
v 0.07581646 0.01917253 -0.02955673
v 0.06351824 0.04275591 -0.02955668
v 0.02651594 -0.07959000 -0.02953771
v -0.08025040 -0.01323488 -0.02955367
v -0.04624568 0.06785728 -0.02955713
v 0.07735254 -0.01426488 -0.02955516
v 0.07493159 -0.03526341 -0.02955493
v 0.01263985 -0.08304951 -0.02955498
v -0.06959187 0.04332991 -0.02955455
v -0.07277748 -0.03776388 -0.02955956
v -0.07829890 0.01976443 -0.02955848
v -0.07507176 -0.03088292 -0.02955370
v -0.05838352 0.05709770 -0.02955514
v 0.07754117 -0.01173647 -0.02955513
v 0.04160587 -0.07272536 -0.02955489
v -0.04844082 0.06645192 -0.02955755
v 0.05927662 -0.05818687 -0.02955521
v -0.08055314 0.00620703 -0.02955530
v -0.06671152 0.04761617 -0.02955717
v -0.06420731 0.05127413 -0.02955444
v -0.08017159 0.01078985 -0.02955610
v -0.05653451 0.05930786 -0.02955588
v 0.07232699 0.02924463 -0.02955284
v -0.07622273 0.02764843 -0.02955448
v -0.07465880 -0.03324894 -0.02955441
v -0.02750857 0.07471700 -0.02955646
v -0.04352146 0.06918313 -0.02955631
v -0.07887256 -0.01868280 -0.02955572
v 0.07882448 -0.00336678 -0.02955497
v 0.02281125 -0.08086675 -0.02955530
v -0.02027947 0.07642324 -0.02955420
v 0.05723342 0.05011950 -0.02955505
v -0.07620976 -0.02797360 -0.02955595
v -0.02080369 -0.08127719 -0.02955032
v 0.07732237 0.01282610 -0.02955563
v 0.04857252 0.05912488 -0.02955525
v 0.07773471 -0.01594884 -0.02955501
v -0.00431702 0.07665698 -0.02955477
v -0.07469327 0.03236206 -0.02955572
v 0.07833883 0.00598035 -0.02955109
v -0.07081144 -0.04147857 -0.02955524
v 0.00417240 0.07610471 -0.02954816
v -0.06869871 -0.04652429 -0.02955725
v -0.06639694 -0.04945381 -0.02955407
v 0.04988726 0.05831391 -0.02955368
v -0.06434225 -0.05238141 -0.02955405
v -0.07110636 0.03931091 -0.02955550
v -0.06164090 -0.05566655 -0.02955366
v 0.03333583 -0.07708038 -0.02955507
v -0.05902447 -0.05816069 -0.02955549
v 0.04066426 0.06457872 -0.02955995
v -0.06243216 -0.05431802 -0.02955518
v 0.01253578 0.07488851 -0.02955387
v -0.05156761 -0.06547780 -0.02955977
v 0.08066563 -0.01816513 -0.02956206
v 0.03233331 0.06770144 -0.02955565
v 0.03638546 0.06633278 -0.02955507
v 0.04433365 0.06265594 -0.02955543
v 0.05458708 0.05389096 -0.02955107
v 0.04673916 -0.06925315 -0.02955505
v 0.06190809 0.04505408 -0.02955435
v 0.06936344 0.03431715 -0.02955290
v 0.07823049 -0.00783984 -0.02955513
v 0.05303498 -0.06410790 -0.02955459
v 0.06499767 -0.05121337 -0.02955547
v 0.07913367 -0.02493870 -0.02955496
v 0.07078347 -0.04160691 -0.02955548
v -0.04310235 -0.07088304 -0.02955571
v -0.02672646 -0.07937675 -0.02955469
v -0.03354995 -0.07652425 -0.02955258
v -0.01149388 0.07802157 -0.02943917
v 0.01850221 0.07036042 -0.02953911
v 0.02657325 0.06994302 -0.02955031
v 0.04629154 0.06127359 -0.02955585
v 0.06520832 0.03958480 -0.02955620
v 0.05525825 -0.06199826 -0.02955324
v -0.08080530 -0.00366948 -0.02955633
v -0.08063952 0.00117480 -0.02951517
v -0.04890300 0.06664777 -0.02918914
v -0.05089047 0.06434011 -0.02955715
v -0.07801205 -0.02507001 0.02216409
v 0.03444644 -0.07735020 0.01930863
v 0.03538963 -0.07763371 0.01790116
v -0.07679512 -0.03105400 0.00963295
v 0.04552064 -0.07203090 0.01773407
v 0.00484028 -0.04978753 0.02112585
v 0.04105723 -0.07415963 0.01903208
v 0.05342087 -0.06643061 0.01815003
v -0.08087502 -0.01206216 -0.02775588
v 0.07831222 -0.01664466 0.00129337
v -0.07353315 -0.03831791 0.00445865
v 0.00773374 -0.04122248 0.02019164
v 0.03783505 -0.07593862 0.00598615
v -0.07830536 -0.02654500 0.02039217
v 0.04792650 -0.07039742 0.01705296
v -0.02730816 -0.07909108 -0.02886357
v -0.07598682 -0.02973143 0.02204757
v 0.07898547 -0.00480850 -0.00789613
v 0.01451444 -0.03905059 0.01996166
v 0.03210965 -0.02766168 0.02041279
v -0.00120248 0.03589919 0.02174317
v 0.00256005 0.03938603 0.02214446
v 0.01659885 -0.04122020 0.02053822
v 0.05433168 -0.06506896 0.01924447
v 0.02000357 -0.03609788 0.01982719
v 0.05852764 -0.05991572 0.01932849
v 0.05797678 -0.06224067 0.01861733
v 0.05956954 -0.06073353 0.01776526
v -0.05655847 -0.02413754 0.02224099
v -0.07301291 -0.03722934 0.02190056
v -0.07418191 -0.03668637 0.02153064
v -0.05056205 -0.02604668 0.02207475
v 0.02700001 -0.03383922 0.02049512
v -0.00051504 0.03536478 0.00401651
v 0.02586055 -0.03131829 0.01916825
v -0.04870024 -0.02578427 0.02235734
v 0.05293760 -0.06562699 -0.00464522
v 0.06635113 -0.05178530 0.01923634
v 0.07619208 0.01549024 0.01692882
v -0.05275430 -0.01066487 0.02266634
v -0.07183849 -0.04143140 0.02147151
v -0.04565745 -0.04057795 0.02184764
v 0.06189360 -0.05722931 0.01899206
v 0.03025853 -0.02767237 0.01977702
v -0.08171982 -0.00059000 0.01655750
v 0.03111330 -0.02573877 0.01904179
v 0.06207454 -0.05456840 0.01948046
v -0.08153663 -0.00979682 0.00976490
v 0.03791943 -0.02592984 0.02092318
v 0.00404584 0.03570051 -0.00839375
v -0.04328893 -0.03677199 0.02185213
v 0.00816977 0.03497416 0.00920467
v -0.08017317 -0.01692765 0.02203674
v -0.06893161 -0.04637336 0.01235536
v -0.07026830 -0.04389868 0.02159268
v 0.03522150 -0.02089708 0.01992139
v 0.01716088 0.03223711 0.01691562
v -0.06797372 -0.04800754 0.02142934
v -0.08208557 -0.00495859 -0.02412632
v 0.01201912 0.03420851 0.01453108
v -0.06642201 -0.04994137 0.02064695
v 0.03706825 -0.02098795 0.02059071
v -0.07403731 -0.02254895 0.02193028
v -0.06315602 -0.05454895 0.02041674
v 0.03928058 -0.00615222 0.01982587
v -0.07181662 -0.02450275 0.02240827
v -0.03335843 -0.04015762 0.02169417
v 0.04903055 -0.00244030 0.02211059
v -0.06524647 -0.05041412 0.02147879
v 0.03754540 -0.01369450 0.01936229
v 0.01329252 0.03887702 0.02224751
v -0.08160239 -0.01140249 -0.02420645
v 0.07900951 0.00248130 0.01939738
v 0.02900772 0.02457677 0.02118268
v -0.03116412 -0.04842155 0.02147432
v 0.03610575 -0.01460847 -0.01242285
v 0.03267192 0.01954920 0.02038018
v 0.03226727 0.02070568 0.02103832
v -0.08050237 -0.01853364 -0.02411450
v 0.04754588 -0.01309992 0.02155684
v -0.01952132 -0.04985053 0.02125781
v -0.08003148 -0.01508348 -0.02708514
v 0.06833047 -0.05000408 0.01758735
v -0.08098901 -0.00696009 -0.02678818
v 0.03898813 0.00952278 0.02129593
v -0.06068438 -0.05732236 0.02029696
v -0.01735651 -0.04199803 0.02119813
v 0.03783645 0.00893081 0.02005237
v 0.05264546 -0.03286753 0.02085011
v 0.03923594 -0.00074129 0.00187576
v 0.05893345 -0.04422656 0.02083746
v 0.00611317 -0.05598559 0.02091575
v 0.06432247 -0.03041651 0.02134981
v -0.04898803 -0.06285891 0.02071197
v 0.06318191 -0.05662206 0.01754065
v 0.03781248 0.00889335 0.00833484
v -0.01803485 -0.06382827 0.02085276
v -0.02174358 -0.05521377 0.02101485
v 0.06059264 -0.04557069 0.02006096
v 0.06443229 -0.03775068 0.02061709
v 0.03887939 -0.00439894 -0.01040187
v 0.06965640 -0.04637367 0.01932747
v -0.00802932 -0.05809766 0.02093858
v 0.06002990 -0.01819877 0.02095474
v 0.08158264 -0.01959814 0.01809535
v 0.07243173 -0.04289674 0.01940904
v 0.07934598 -0.02830436 0.01890111
v 0.07749782 -0.03212233 0.01959546
v -0.05408438 -0.06367237 0.02086338
v -0.07610052 -0.03266347 -0.02510741
v 0.05063913 0.02247822 0.02193851
v -0.05577527 -0.06221595 0.01793531
v -0.05125477 -0.06642588 0.02024338
v -0.04711755 -0.06875543 0.02091318
v 0.01021772 -0.06400111 0.02052608
v 0.01782718 -0.05749389 0.02112360
v -0.05366671 0.05386030 0.02269230
v 0.07614602 -0.03628372 0.01862401
v -0.03998283 0.06265636 0.02363366
v -0.03943200 0.06977347 0.02226511
v -0.04691374 -0.06974727 0.02041662
v 0.06376625 0.02933122 0.02299412
v -0.05483854 0.05822636 0.02341455
v 0.06115370 0.01025469 0.02160108
v -0.03594464 0.04213692 0.02310122
v 0.08116453 -0.01854586 0.01219844
v 0.06163713 0.02783090 0.02269825
v 0.06380133 0.04078526 0.02119512
v 0.06256944 0.04239207 0.02046662
v 0.08103429 -0.01916769 0.00379371
v -0.04246895 -0.07261470 0.02031627
v 0.01796088 -0.06397349 0.02047950
v 0.06808362 0.02092468 0.02389853
v 0.06655236 0.03721390 0.01929473
v -0.03111311 0.06711043 0.02357835
v 0.02051822 -0.07136198 0.02079558
v -0.03922953 0.06888795 0.02344524
v -0.01723367 0.07606541 0.02310468
v 0.06823498 0.02770540 0.02362565
v 0.02853666 -0.05272619 0.02086448
v 0.07788853 -0.02813753 -0.02840547
v 0.07778980 -0.01683978 -0.01429451
v 0.07090533 -0.03390368 0.02012260
v 0.03438533 -0.06575969 0.02073593
v 0.06887018 0.03286566 0.02275564
v 0.03383650 -0.06761012 0.01986415
v -0.03861559 -0.07439127 0.02065632
v 0.07800645 -0.01643827 -0.02384158
v -0.06820104 -0.04710294 -0.02500922
v 0.07074061 0.00855886 0.02416384
v -0.07954873 -0.02193839 0.02102366
v 0.07078175 0.02097801 0.02403315
v 0.07353671 0.02146246 0.02286740
v -0.03582824 0.06693853 0.02274298
v -0.06354108 -0.05347530 -0.02344039
v -0.08093893 -0.01625367 -0.01039348
v 0.04607662 -0.04414491 0.02069643
v -0.03724579 -0.07575291 0.01988644
v -0.00616460 0.06791832 0.02296872
v 0.07905732 -0.02524635 0.01985739
v -0.03169917 0.07199819 0.02332022
v -0.03028864 -0.07907825 0.01962234
v 0.08143347 -0.01799766 0.01929473
v 0.08000993 -0.01771297 0.02016993
v 0.07584087 0.00778251 0.02321670
v -0.02987577 0.07357977 0.02226102
v -0.02824808 0.07375187 0.02303222
v -0.07965326 -0.01419214 0.02241149
v 0.03172155 0.02141070 -0.01145232
v -0.06333781 -0.05411881 -0.00194948
v -0.02506640 0.07404290 0.02322715
v -0.05708236 -0.06053519 -0.02568137
v -0.05401627 -0.06377441 0.00342327
v -0.02510018 -0.07469428 0.02061402
v 0.02855257 0.04756975 0.02198201
v -0.08080273 0.00939960 0.02234632
v -0.02371456 0.06541664 0.02322192
v -0.07886264 -0.02083408 -0.02738414
v 0.03990040 0.05880308 0.02188582
v -0.02197112 0.06960500 0.02351963
v -0.01905427 0.06492211 0.02347990
v 0.04698254 0.05867773 0.01971865
v 0.04111004 0.06169873 0.02192518
v -0.07240614 0.03592337 0.02244346
v -0.08201202 0.00321666 -0.02191053
v -0.02915500 -0.07887665 0.02038883
v -0.03178390 -0.07801506 0.00289216
v -0.03774015 0.03061535 0.02347048
v -0.08015305 0.01653441 -0.02504651
v -0.08153145 -0.00141307 -0.02695019
v -0.08074716 0.00261842 -0.02662766
v 0.05127264 0.05554125 -0.00034998
v -0.04742230 -0.06872430 -0.02354383
v -0.08074896 0.01151110 -0.02737353
v -0.06468774 0.04718552 0.02339161
v -0.07925817 0.01766587 -0.02766699
v -0.03216430 -0.07338339 0.02023806
v -0.07818299 0.02398931 -0.02539337
v -0.03856053 -0.07414098 -0.02554617
v -0.06919560 0.04160737 0.02262776
v -0.06931157 0.04479450 -0.02835913
v -0.06611451 0.04860735 -0.02862069
v 0.08097393 -0.01873307 -0.00049909
v 0.01071988 -0.06111200 0.02131159
v -0.07034834 -0.03350297 0.02166279
v 0.01194793 -0.05890831 0.02089635
v -0.06423499 0.05159595 -0.02824582
v 0.07844886 -0.00551651 -0.02697974
v 0.07695658 0.01118721 -0.02781875
v -0.05673096 0.05764708 0.01963372
v 0.07818907 0.00312629 -0.02818652
v -0.06141665 0.05488943 -0.02830231
v -0.06960804 -0.01843034 0.02234385
v -0.00925497 0.07647138 0.02287457
v -0.05883613 0.05691692 -0.02874989
v 0.02318214 -0.05182631 0.02080415
v -0.06051651 0.05496324 -0.02618010
v -0.05554227 0.05976126 -0.02617822
v -0.07640556 0.02682589 0.02249479
v -0.05602797 0.06017959 -0.02819331
v 0.04267631 -0.06268626 0.01993039
v 0.05170624 -0.05325385 0.02070993
v 0.04842898 -0.06883616 0.01916188
v -0.07890786 -0.02510307 -0.02362925
v 0.04232338 -0.04133904 0.02063002
v 0.05349643 -0.05384915 0.01994105
v -0.07277386 -0.03967563 -0.02497837
v -0.03392969 0.07297800 -0.02049287
v -0.06515574 0.04870574 -0.00550531
v 0.03977244 -0.01081404 0.02051386
v -0.02203769 0.07613922 -0.00730366
v -0.05026657 0.04995374 0.02317149
v -0.06606832 -0.02696253 0.02251642
v -0.00887207 0.07721011 0.00882250
v -0.05221552 0.06316687 -0.02849816
v -0.03874114 0.05936021 0.02322633
v -0.05232762 0.03809242 0.02340207
v -0.06347120 -0.04580269 0.02137210
v -0.01325814 0.07089105 0.02339518
v 0.08046127 -0.01814805 -0.01404100
v 0.08049565 -0.02036447 -0.02332088
v 0.00812439 0.07642459 -0.02542723
v 0.01560579 0.07479668 -0.01458275
v 0.07375562 -0.04036331 0.01891841
v 0.00622747 0.03575818 -0.01011430
v 0.08026446 -0.01850283 -0.02048737
v -0.08154799 -0.00482296 0.02245121
v -0.00144417 0.06564330 0.02322332
v 0.07118915 -0.04258336 -0.02706325
v 0.07569051 -0.03632579 0.01944894
v 0.07237701 -0.04264296 0.00250971
v 0.01933985 0.03069897 -0.01077520
v 0.01896375 0.07295616 -0.02269424
v -0.07664450 -0.03168692 -0.00752110
v -0.04279820 0.04249965 0.02274434
v -0.05859567 0.03707754 0.02362007
v 0.08064509 -0.02262510 0.00175348
v -0.02474484 -0.08102486 0.01969510
v 0.08094399 -0.01965222 -0.01085937
v -0.01867105 -0.08185479 0.02017068
v -0.00021394 0.07085011 0.02322800
v -0.04214986 0.04105114 0.02322581
v -0.04076671 0.06940247 0.01483836
v -0.07922438 -0.02357598 0.00040957
v -0.05043882 0.04755159 0.02371806
v 0.01535659 0.06820328 0.02292027
v -0.05841142 -0.05916646 0.02118210
v -0.03415218 0.04762233 0.02330782
v -0.05825003 0.04033728 0.02316934
v -0.06413171 -0.04204860 0.02186746
v -0.06165797 -0.03955481 0.02181995
v -0.02783825 0.07525880 -0.02781024
v -0.06839367 -0.04721120 -0.01174708
v -0.03880115 -0.01831579 0.02201748
v -0.03494484 0.04922181 0.02283228
v -0.04336717 -0.02714427 0.02210024
v 0.02147674 0.04911799 0.02241824
v -0.04839588 0.02649850 0.02287676
v -0.02001412 -0.08218742 0.01974845
v 0.02843134 0.06959708 0.02174662
v -0.04710205 -0.01044486 0.02263784
v -0.03969674 0.05698068 0.02369006
v -0.05043969 0.03331544 0.02284154
v -0.02088005 -0.08212953 0.01292853
v 0.03445007 0.06680091 0.02053503
v -0.00609052 0.03497429 -0.00749637
v -0.02053415 0.05547921 0.02276103
v -0.02456777 0.07593923 -0.02508737
v -0.03021203 -0.03177921 0.02151549
v -0.01325444 -0.08375635 0.01967733
v 0.02041239 0.03111265 -0.00693222
v -0.04543392 0.02837261 0.02326580
v 0.03492967 -0.01988580 0.01880830
v -0.04242005 0.03497050 0.02283888
v -0.00909661 0.07263710 0.02250090
v -0.03451840 0.02557129 0.02413052
v -0.05987024 -0.03864864 0.02239247
v -0.02459848 0.04892087 0.02287279
v 0.00127468 -0.04446291 0.02110496
v -0.04353559 0.03782900 0.02342030
v 0.03673009 -0.01427301 -0.00956229
v 0.03865060 -0.00816778 0.00730157
v 0.02921364 0.02421412 -0.00004676
v 0.03999760 0.06420075 -0.01596482
v -0.02304125 0.05304897 0.02323503
v 0.03412305 0.01757245 0.00044039
v -0.06862364 -0.01360593 0.02299525
v -0.01336389 0.05445971 0.02314506
v 0.02542393 0.02767802 -0.01008688
v -0.03475253 0.03818108 0.02320117
v 0.03798530 -0.00791696 -0.01243871
v 0.03697189 0.01121476 -0.01114614
v 0.04410609 0.06144608 -0.02679061
v -0.05464532 -0.04526343 0.02216260
v -0.07617870 -0.02866300 -0.02724811
v 0.00965478 -0.08367012 -0.02243794
v 0.03798399 0.06474326 0.02111229
v -0.02136939 0.07678783 -0.02800821
v 0.04931431 0.05633395 0.02127899
v 0.03331765 0.01736173 -0.01360038
v 0.04589615 0.05729597 0.02182336
v -0.00835977 -0.07341393 0.02108778
v -0.00235885 -0.08433266 0.01983622
v 0.06501386 -0.00735623 0.02149444
v 0.00612937 -0.07373003 0.02086007
v 0.01271367 -0.08299281 -0.02868121
v 0.04132669 0.06293070 0.00609436
v 0.01113422 0.04812556 0.02258257
v -0.07495960 -0.03248849 -0.02758544
v 0.07500628 0.01906338 -0.02789861
v -0.01513270 0.07732379 -0.02612879
v 0.02595483 -0.03242194 0.01996749
v -0.05775780 -0.05111595 0.02161726
v 0.00150813 0.07222562 0.02254746
v -0.07347963 -0.03667220 -0.02866897
v 0.07351607 0.02328130 0.00471359
v -0.07898765 0.01851040 0.02261817
v 0.06508511 0.03971339 -0.02690171
v 0.01088708 0.05475648 0.02239484
v -0.07179251 -0.03839508 -0.02726547
v -0.00887693 0.07763290 -0.02622111
v -0.01606489 -0.08252848 -0.01933980
v -0.08135419 0.00674667 -0.02621531
v 0.07715990 -0.01456348 -0.02596033
v -0.05114646 -0.05068733 0.02209549
v 0.07505360 -0.01625996 0.02071998
v -0.00656651 0.07762610 -0.02800549
v -0.00255000 0.07672185 0.02261159
v -0.00085510 0.07742873 -0.02667955
v -0.01063842 -0.08312394 -0.02871601
v -0.06890499 -0.04371839 -0.02754987
v 0.01243976 0.03414528 0.00717379
v -0.07072912 0.04092756 -0.02414045
v 0.00425232 0.07610980 0.02220468
v 0.00224340 0.07714695 -0.02814349
v -0.00129830 -0.08107366 0.01955290
v 0.01087337 -0.08050240 0.01942733
v -0.06781565 0.04548450 -0.02613742
v -0.07110002 -0.04115043 -0.02893816
v 0.02368768 0.04316657 0.02224173
v 0.00424915 0.07532846 0.02295316
v 0.00784542 -0.08445515 0.01967050
v 0.00986071 0.07635343 -0.02800338
v 0.00547509 0.07651676 -0.02829949
v -0.06499340 -0.04938791 -0.02785050
v -0.06828632 -0.04694124 -0.02899926
v 0.01533165 0.03329957 -0.00763237
v 0.01056230 0.07467247 0.02256924
v 0.00592941 0.03492861 0.02175191
v -0.06609127 -0.04954497 -0.02893737
v 0.01425963 0.06998053 0.02232548
v -0.07464707 0.03325564 -0.02235905
v 0.03792493 -0.00358140 -0.01368052
v 0.07898709 -0.01508895 0.02005851
v -0.06456560 -0.05157786 -0.02612496
v -0.06451200 -0.05208455 -0.02907015
v 0.01398030 0.07530758 -0.02798810
v 0.01780208 0.07289795 0.02259523
v -0.06346438 -0.05187135 -0.02789933
v 0.00981342 0.03298909 0.01791516
v -0.03629838 0.02333519 0.02286455
v -0.03554420 0.04075908 0.02367508
v -0.06050910 -0.03472058 0.02239139
v 0.02261343 0.07098864 0.02256804
v -0.06158839 -0.05561212 -0.02919939
v 0.01753107 0.07372235 0.01971220
v 0.01875833 0.03135664 0.02117960
v 0.01188074 -0.08453618 0.01899728
v 0.01112421 0.03478643 0.02134959
v -0.04825651 -0.04116390 0.02165316
v -0.04993861 0.06437476 -0.02634036
v -0.03421197 0.03123248 0.02301212
v -0.05367534 -0.05047987 0.02146811
v -0.02969105 0.02846615 0.02169264
v -0.04108717 0.06993985 -0.02615173
v -0.05759972 -0.05897535 -0.02800862
v 0.02479480 0.06504173 0.02274900
v -0.04610064 0.06790489 -0.02769909
v 0.04135737 -0.07335292 -0.01313841
v -0.05450378 -0.06209472 -0.02787745
v 0.02799041 0.05623728 0.02253690
v -0.07964442 0.01257111 0.02295431
v 0.01886094 -0.08266379 0.01945005
v 0.07851637 -0.01605315 0.01394775
v -0.04064974 0.07094915 -0.02828256
v -0.02613625 0.04315434 0.02312201
v 0.02225776 0.02952399 0.02096596
v -0.04762665 -0.06794361 -0.02855159
v 0.02768253 -0.07647720 0.01935945
v 0.02672514 0.02606758 0.02074105
v -0.02793498 0.04509657 0.02361449
v 0.05242615 0.05265167 0.02168706
v 0.02701236 0.03002835 0.02195532
v 0.05420143 0.05242582 0.02031676
v 0.02284414 0.07255298 -0.01958405
v 0.04232526 -0.07216784 -0.02855817
v 0.02029398 0.07137840 -0.02723836
v 0.05367223 0.05262204 0.02094648
v -0.01963781 0.04921217 0.02367100
v 0.03053771 0.06934680 -0.01200013
v 0.05718651 0.04992049 -0.02784903
v 0.03554779 0.01598081 0.02097151
v 0.05687807 0.04914046 0.02069670
v 0.07050768 0.03019322 -0.00215541
v -0.01349665 0.04689255 0.02307836
v -0.01570706 0.05151193 0.02355703
v 0.02779615 -0.08008206 0.01927728
v -0.01102121 0.03363625 0.02061195
v 0.02300792 -0.08198090 0.01907495
v 0.02650178 0.07110640 -0.02805973
v -0.07643181 0.02452678 0.02322217
v -0.00916314 0.05474502 0.02396422
v 0.07874132 -0.00296085 -0.02955163
v -0.00847272 0.05689433 0.02269941
v -0.00702354 0.05409856 0.02313579
v 0.05859024 0.04534486 0.02122493
v -0.07992782 0.01610678 -0.00045602
v -0.04316599 -0.06518352 0.02110191
v -0.04293674 -0.05813570 0.02153253
v 0.03249486 0.06820545 -0.02825015
v 0.03574347 0.01424918 0.02019617
v -0.07623077 0.02964013 -0.02810571
v -0.03501110 -0.06521668 0.02087920
v 0.04246821 0.06359594 -0.02906383
v -0.07293718 0.03347607 0.02328073
v 0.03586403 0.06671376 -0.02604467
v 0.01550300 -0.07825202 0.01996324
v -0.07400422 0.03451477 -0.02790309
v -0.04340729 -0.07211054 0.01639081
v -0.07190741 0.03843331 -0.02741714
v -0.07170386 0.02599107 0.02258011
v -0.03365789 0.07204945 0.02296307
v -0.00110838 -0.08426428 -0.02004146
v 0.04892185 0.05784267 -0.02726728
v 0.03596125 0.01874740 0.02164469
v -0.02724740 -0.06959378 0.02055974
v 0.06962287 -0.02954551 0.02046524
v -0.02320537 0.07098929 0.02277087
v -0.02342399 -0.06953181 0.02128959
v -0.01936138 0.07596954 0.02246986
v -0.08092127 0.00997989 0.00544482
v 0.03887154 0.00132611 -0.01070089
v 0.04783886 0.04082963 0.02198555
v 0.04824150 0.03352643 0.02167004
v 0.04999964 0.05049110 0.02171048
v 0.05416869 0.05419166 -0.02905122
v -0.01646447 -0.07901281 0.01979860
v 0.05720554 0.03947472 0.02205923
v -0.03173352 -0.06556366 0.02143999
v 0.03916070 0.00334518 0.02014399
v 0.06279328 0.04350086 -0.02771907
v 0.04203213 -0.00030199 0.02119484
v -0.00755300 -0.08480491 0.01882806
v -0.03950792 -0.04972166 0.02139333
v 0.06122433 0.03915447 0.02114441
v -0.02301880 0.07533348 0.02257236
v 0.06201361 0.04081700 0.02125918
v 0.06189921 0.04386863 0.01609455
v 0.02152870 -0.08118242 -0.02859132
v -0.06827143 0.04159834 0.02336593
v 0.00370893 -0.08522827 0.01917751
v -0.03289195 -0.05275363 0.02136205
v 0.01215601 -0.07464155 0.02000093
v -0.04892949 0.06405273 0.02228124
v -0.00812465 0.03429462 -0.00120351
v 0.07801526 -0.01390690 0.02074005
v 0.07190806 -0.00822864 0.02170500
v 0.06070438 0.03448866 0.02305137
v 0.04963048 0.01535523 0.02255270
v 0.04583349 0.01972642 0.02184315
v 0.06528891 0.03366427 0.02408107
v 0.06462972 0.03839678 0.02351161
v 0.06605354 0.03831089 0.02309455
v 0.07143626 0.02828502 -0.02781982
v 0.06736375 0.03626081 -0.02765293
v -0.04996913 0.06249305 0.02336418
v -0.04849901 0.05671063 0.02370005
v -0.06808867 0.03353079 0.02273072
v -0.04570529 0.06090017 0.02264756
v -0.04596067 0.06522606 0.02357010
v 0.01961893 -0.08307148 0.01857980
v 0.03601388 0.05934708 0.02246410
v 0.07976079 -0.00700824 0.02059257
v 0.07331803 0.02361330 -0.02787638
v 0.08015727 -0.01781248 -0.02669646
v 0.03282471 0.06673681 0.02228971
v 0.02653480 0.06609087 0.02221671
v 0.07024641 0.02816084 0.02242871
v 0.07914148 -0.01155828 0.02028232
v 0.05343769 0.00203196 0.02264471
v -0.06630546 0.02577158 0.02307510
v 0.07420490 0.01036817 0.02381412
v 0.03336349 -0.07691810 -0.02824495
v 0.06599763 -0.05054960 -0.02769669
v 0.05964659 -0.05813511 -0.02854433
v 0.05622139 0.01905390 0.02195238
v 0.07727637 0.01201238 0.02161920
v 0.07957856 -0.00536270 0.01947947
v 0.07780504 -0.01494710 0.00176482
v 0.07835139 0.00412906 0.02111733
v 0.06238676 -0.00072962 0.02134010
v 0.07677683 -0.00214916 0.02137591
v -0.06343803 0.05001761 0.02219666
v 0.06049011 0.00366888 0.02253996
v -0.06724091 0.03254420 0.02345591
v -0.06002305 0.05327619 0.02334020
v 0.07896023 -0.00340696 0.02072259
v 0.05113023 -0.06606171 -0.02831179
v -0.08152150 0.00269297 0.02198369
v -0.05914379 0.04780927 0.02271672
v -0.07652628 -0.00606479 0.02248895
v -0.07370609 0.01272643 0.02322919
v 0.07744332 -0.01589721 -0.00915711
v -0.06940583 0.00479890 0.02333583
v -0.05975860 0.04470577 0.02364883
v -0.06387059 0.04132026 0.02269559
v 0.07455392 -0.03608864 -0.02856079
v 0.06611620 0.00556413 0.02340859
v -0.08088082 0.00011826 0.02277573
v 0.07174618 0.00196251 0.02319244
v -0.07524267 0.01374223 0.02249614
v 0.07235404 0.02534718 0.02194933
v -0.06349618 0.02736264 0.02361905
v -0.07148584 0.00520957 0.02286631
v 0.07294651 0.02487100 0.02096163
v -0.07090857 0.02357292 0.02329876
v 0.07550737 0.00315026 0.02160411
v -0.01462447 -0.07368416 0.02039111
v -0.05837877 0.01718475 0.02292410
v 0.07495176 0.02021305 0.02127821
v -0.05940207 -0.00425745 0.02272539
v 0.07772355 0.00580543 0.02151691
v -0.05337641 0.01154552 0.02305304
v -0.06113847 -0.05473420 -0.02769949
v -0.03865717 0.02738217 0.02316729
v -0.05185907 0.02729073 0.02327548
v -0.00143548 -0.07542351 0.02015720
v -0.01160281 -0.07832299 0.02032857
v -0.04212351 0.00275027 0.02253151
v -0.00285477 -0.08508632 0.01926580
v 0.02813777 -0.08031188 0.01015557
v 0.02343859 -0.07196302 0.01988907
v -0.04030229 0.03369119 0.02331396
v -0.03303832 0.01786770 0.02209106
v -0.03105953 0.01920928 0.02297799
v 0.04176669 -0.06835372 0.01960526
v 0.04263988 -0.06046262 0.02069295
v 0.05220411 -0.06228346 0.01950332
v -0.04137476 -0.07246095 -0.02767623
v -0.02081155 0.03183790 0.02216151
v -0.02786680 0.03523015 0.02292987
v -0.02470830 0.02897912 0.02239412
v -0.01234113 0.03616715 0.02207552
v -0.08092912 -0.01352864 0.02164416
v -0.01989488 -0.08126238 -0.02887166
vn 0.46037074 0.49292388 -0.73829860
vn 0.25501487 0.60350554 -0.75547897
vn -0.42248613 -0.51703753 -0.74443110
vn 0.57213836 0.37297177 -0.73044490
vn -0.94806146 0.29328027 0.12315094
vn -0.05367389 -0.66658202 -0.74349682
vn 0.65248804 -0.17713725 -0.73680510
vn 0.07801051 -0.82772380 -0.55568666
vn 0.67368937 0.27373033 0.68645053
vn -0.56110516 -0.36980527 -0.74054376
vn -0.00460216 0.66203423 -0.74945947
vn 0.38964773 -0.73981554 0.54849578
vn 0.81748775 -0.57286260 0.05951654
vn 0.29357600 -0.60329845 -0.74151474
vn 0.07654281 -0.90244790 0.42394456
vn -0.80781451 -0.53086324 0.25616390
vn 0.01511096 -0.96736933 0.25291945
vn -0.57098456 0.36379595 -0.73595458
vn -0.64969097 0.20147057 -0.73301518
vn -0.64834239 -0.17381110 -0.74124345
vn 0.54352591 -0.37587682 0.75053062
vn 0.57959460 -0.33182591 0.74428601
vn 0.43394423 -0.89323523 0.11757221
vn -0.92895408 -0.30320184 0.21239810
vn 0.61653670 0.39864603 0.67894318
vn -0.97773567 -0.07516743 0.19591535
vn -0.23083054 0.85506373 0.46430946
vn -0.68624888 0.72722975 0.01411957
vn 0.18941846 -0.95824901 -0.21419498
vn -0.25292633 -0.62732575 -0.73653966
vn 0.59830726 -0.44241289 0.66805633
vn -0.62438512 -0.74369612 0.23887090
vn 0.74831818 0.06635440 0.66001287
vn -0.07671071 -0.96110089 0.26533100
vn 0.13106510 -0.67074669 -0.73001426
vn 0.50053066 -0.62539753 0.59862090
vn 0.46020638 -0.49265533 -0.73858027
vn -0.23354718 0.62811985 -0.74224064
vn 0.57839087 -0.34591896 -0.73878554
vn 0.28254035 -0.83355880 0.47471116
vn -0.72888590 0.03087060 0.68393885
vn -0.42644959 0.50835750 -0.74813996
vn 0.00085587 0.76898506 0.63926618
vn 0.00499741 -0.00470305 -0.99997645
vn -0.46708500 0.83681353 0.28561288
vn 0.09540604 -0.98264259 -0.15909500
vn 0.68911725 0.22668958 0.68827992
vn 0.17906121 -0.94087617 0.28755714
vn -0.83433440 0.55092371 0.01921410
vn 0.03019937 0.79874905 0.60090595
vn 0.50303432 0.55296968 0.66421457
vn -0.90709679 0.41877221 0.04248832
vn -0.37980860 -0.89209264 0.24477776
vn 0.40101470 0.63854861 0.65684312
vn 0.24977343 0.69279417 0.67649795
vn 0.13665407 0.82841619 0.54318715
vn 0.00453806 -0.70804475 -0.70615298
vn 0.43123686 -0.88453312 -0.17786490
vn -0.96002391 0.23570345 0.15098998
vn -0.96904044 0.17770087 0.17141477
vn 0.70629573 -0.12753018 0.69633497
vn 0.27306208 -0.19806928 0.94138497
vn -0.07423176 -0.74925467 -0.65810872
vn 0.60319410 -0.45943635 -0.65197786
vn -0.43635525 0.47064294 -0.76686982
vn -0.19218028 0.58035022 -0.79136613
vn -0.54777135 -0.54471355 -0.63500685
vn 0.71047117 -0.31107328 -0.63124015
vn -0.62487308 -0.01049379 -0.78065583
vn 0.81818690 0.24848572 -0.51848341
vn 0.65900280 0.38764889 -0.64454918
vn 0.23650862 -0.66458422 -0.70879580
vn -0.64928350 -0.13911363 -0.74771541
vn -0.30388032 0.63845831 -0.70712639
vn 0.69032004 0.04621383 -0.72202668
vn 0.65057657 -0.31175263 -0.69250302
vn 0.09962916 -0.73200724 -0.67397287
vn -0.58031567 0.25344589 -0.77395019
vn -0.59579426 -0.28758429 -0.74988298
vn -0.60874332 0.14660185 -0.77970473
vn -0.61049648 -0.17398346 -0.77267316
vn -0.36959032 -0.61650483 -0.69521564
vn 0.69677678 -0.08886109 -0.71176248
vn 0.37529660 -0.66438574 -0.64633122
vn -0.20927654 0.29385899 -0.93265761
vn 0.44632241 -0.44852763 -0.77435087
vn -0.62299809 0.02513992 -0.78181927
vn -0.50523089 0.39203993 -0.76879545
vn -0.53212722 0.39489259 -0.74893289
vn -0.60492470 0.08460448 -0.79177534
vn -0.47462870 0.45377953 -0.75419609
vn 0.81217294 0.36724117 -0.45333104
vn -0.55700570 0.15389691 -0.81612523
vn -0.68754046 -0.22084978 -0.69174669
vn -0.15223304 0.56654776 -0.80984488
vn -0.31727659 0.59560836 -0.73796087
vn -0.62554067 -0.14277818 -0.76701582
vn 0.80712102 0.07563936 -0.58552058
vn 0.22803859 -0.71480233 -0.66110214
vn -0.10891973 0.56745118 -0.81617134
vn 0.56488366 0.45324251 -0.68954890
vn -0.63913804 -0.22938564 -0.73408773
vn -0.21846398 -0.79911305 -0.56008199
vn 0.81736331 0.17309377 -0.54950502
vn 0.50001546 0.61607312 -0.60863655
vn 0.51896361 0.34713747 -0.78113530
vn 0.03273641 0.50009857 -0.86534949
vn -0.58841168 0.26726171 -0.76311393
vn 0.82087808 0.10109831 -0.56208390
vn -0.56546747 -0.25571059 -0.78412922
vn 0.06628217 0.52030945 -0.85140164
vn -0.70978630 -0.40109829 -0.57907130
vn -0.63844167 -0.48085589 -0.60097408
vn 0.51439334 0.67213744 -0.53256995
vn -0.57935699 -0.53255009 -0.61703799
vn -0.57210964 0.24714531 -0.78205483
vn -0.62731637 -0.49921940 -0.59770742
vn 0.30643918 -0.69159692 -0.65405560
vn -0.54303461 -0.57122641 -0.61547851
vn 0.33604658 0.69927694 -0.63093935
vn -0.62287166 -0.50094129 -0.60090659
vn 0.18953261 0.50765266 -0.84045593
vn -0.53154094 -0.66423690 -0.52559829
vn 0.74662605 0.28807498 -0.59963518
vn 0.18836429 0.51998084 -0.83314994
vn 0.23706219 0.58925886 -0.77238301
vn 0.49718420 0.72040929 -0.48354766
vn 0.60744959 0.51753969 -0.60262564
vn 0.42573374 -0.61019175 -0.66814431
vn 0.59521212 0.49572071 -0.63244249
vn 0.70738349 0.42793209 -0.56256797
vn 0.72333446 -0.11940212 -0.68009587
vn 0.46098200 -0.49557347 -0.73614029
vn 0.51767063 -0.38019544 -0.76646497
vn 0.69243137 -0.22611460 -0.68513574
vn 0.49527819 -0.30485063 -0.81348977
vn -0.35958644 -0.53915233 -0.76158542
vn -0.24658708 -0.71375104 -0.65555645
vn -0.29735538 -0.66791544 -0.68225270
vn -0.01893862 0.76733936 -0.64096149
vn 0.16034340 0.43069499 -0.88813953
vn 0.10958950 0.48710144 -0.86644234
vn 0.51387550 0.69699202 -0.50013407
vn 0.57354009 0.39470517 -0.71781585
vn 0.44570522 -0.47993576 -0.75565105
vn 0.17308485 -0.39169044 -0.90367042
vn -0.91175137 0.04973394 0.40772046
vn -0.58684595 0.77414626 -0.23729603
vn -0.25034246 -0.34734864 -0.90370215
vn -0.50077461 -0.19313222 0.84375633
vn 0.22637371 -0.51686449 0.82559436
vn 0.41001311 -0.89196997 0.19047000
vn -0.93082805 -0.36539247 0.00689111
vn 0.53053389 -0.81219243 0.24264636
vn -0.01700079 0.01955938 0.99966415
vn 0.34191834 -0.58061080 0.73890659
vn 0.58466016 -0.77573355 0.23750781
vn -0.96954075 -0.14532657 -0.19715709
vn 0.82951191 0.55823071 -0.01698437
vn -0.88404569 -0.46738413 -0.00391077
vn -0.01907753 0.25790398 0.96598219
vn 0.45331026 -0.89080897 -0.03113176
vn -0.91889118 -0.32873422 0.21811192
vn 0.56818962 -0.82288846 0.00389001
vn -0.35270897 -0.93507419 0.03510888
vn -0.39113277 -0.14624619 0.90864031
vn 0.99948949 -0.02229780 -0.02288151
vn -0.11507434 0.35844951 0.92642962
vn -0.21357974 0.16809498 0.96235533
vn -0.01398550 -0.35854778 0.93340661
vn 0.00990555 -0.08902333 0.99598028
vn -0.05020031 0.07730148 0.99574314
vn 0.37254372 -0.45924758 0.80641356
vn -0.34360501 0.57514724 0.74238888
vn 0.21678732 -0.20750485 0.95391037
vn 0.63205862 -0.62317736 0.46059948
vn 0.73781594 -0.66523750 0.11439716
vn 0.03092608 -0.01588144 0.99939550
vn -0.14806529 -0.09845678 0.98406450
vn -0.76589521 -0.35081268 0.53882742
vn -0.04820183 -0.04210761 0.99794966
vn -0.11686985 0.11920469 0.98596738
vn 0.18216094 -0.95572325 -0.23110701
vn -0.59445410 0.68053879 0.42835882
vn -0.05209875 -0.05317441 0.99722525
vn 0.63880787 -0.76844615 -0.03761683
vn 0.53101008 -0.42014996 0.73586840
vn 0.96276403 0.26925418 -0.02424078
vn -0.01224476 -0.03025989 0.99946706
vn -0.74995857 -0.40726063 0.52124939
vn -0.01974086 -0.04746405 0.99867786
vn 0.52634215 -0.43777214 0.72891666
vn -0.42907626 0.39603555 0.81181858
vn -0.99987834 0.00665367 0.01410794
vn -0.75603201 0.58104787 0.30132868
vn 0.11711453 -0.11946558 0.98590677
vn -0.99637758 -0.08422534 0.01173923
vn -0.05587377 0.01417221 0.99833725
vn 0.08555270 -0.97954630 0.18212572
vn 0.01179073 -0.02097374 0.99971050
vn 0.00533892 -0.99063676 -0.13641962
vn -0.70717778 -0.13272019 0.69446738
vn -0.83787377 -0.54570907 -0.01300610
vn -0.58117699 -0.36811716 0.72575689
vn -0.53808172 0.29738465 0.78868906
vn -0.35844199 -0.93207493 -0.05249435
vn -0.62643072 -0.45735341 0.63119918
vn -0.98901603 -0.04624097 -0.14038897
vn -0.12686693 -0.97189987 -0.19828116
vn -0.74109415 -0.62811391 0.23717584
vn -0.21416510 0.08746070 0.97287406
vn -0.10103341 -0.04549116 0.99384244
vn -0.73125963 -0.60931228 0.30659077
vn -0.85592359 0.08872244 0.50943414
vn -0.16388109 -0.06584089 0.98428043
vn 0.02162975 -0.01080260 0.99970769
vn -0.10995248 -0.03171277 0.99343080
vn -0.30853857 -0.27646111 0.91015010
vn -0.87419460 0.29598844 0.38493459
vn -0.01975071 -0.10190936 0.99459760
vn -0.98756207 -0.10564420 -0.11644938
vn 0.98452135 0.11597427 0.13140656
vn -0.35644324 -0.33555118 0.87198258
vn 0.01219241 -0.02889762 0.99950802
vn -0.94708007 -0.19894685 0.25191168
vn -0.78147509 -0.56906353 0.25585814
vn -0.48326334 -0.41997265 0.76816634
vn -0.96673020 -0.19567824 -0.16475056
vn -0.05108538 -0.03034216 0.99823326
vn 0.01814825 -0.00936957 0.99979140
vn -0.95335498 -0.21738033 -0.20942795
vn 0.81748586 -0.54809370 0.17694678
vn -0.97757789 -0.04514371 -0.20567820
vn -0.38303451 -0.14135986 0.91285374
vn -0.72002136 -0.66450683 0.19999981
vn 0.06053171 0.06418264 0.99610065
vn -0.87814652 -0.27436993 0.39189263
vn -0.00731819 -0.01932697 0.99978643
vn -0.99936560 -0.03341550 0.01232103
vn 0.13575975 -0.10907810 0.98471887
vn -0.08004276 -0.05207662 0.99543015
vn 0.05537589 -0.05810027 0.99677373
vn -0.04610702 -0.07419998 0.99617694
vn 0.75884092 -0.62731493 0.17503269
vn -0.96065332 -0.27739605 0.01402232
vn 0.01956185 0.01563772 0.99968635
vn 0.00692140 -0.04369735 0.99902084
vn 0.12537484 -0.13586169 0.98276282
vn 0.08156905 -0.07036840 0.99418046
vn -0.98647927 0.08951364 0.13728061
vn 0.48448102 -0.39314194 0.78148420
vn 0.00751805 -0.03260022 0.99944020
vn -0.01309557 -0.01824083 0.99974786
vn 0.98071335 -0.11009985 0.16149099
vn 0.67300850 -0.38753012 0.62998410
vn 0.88458650 -0.27462978 0.37694192
vn 0.57039282 -0.24608471 0.78364172
vn -0.46873446 -0.51553131 0.71729734
vn -0.90018338 -0.36705848 -0.23438848
vn -0.03313369 0.02614050 0.99910902
vn -0.69932055 -0.71436478 0.02517402
vn -0.58791977 -0.74086108 0.32476945
vn -0.16935127 -0.23404349 0.95736294
vn -0.00843014 -0.05501037 0.99845020
vn -0.00224906 0.00552994 0.99998218
vn -0.12061065 0.10662183 0.98695737
vn 0.88451507 -0.42383843 0.19492067
vn -0.11688930 0.19080882 0.97464295
vn -0.42229830 0.85179851 0.31000557
vn -0.51735427 -0.73057686 0.44564786
vn -0.08165272 -0.13780071 0.98708855
vn -0.37496361 0.41497290 0.82897514
vn -0.09676713 0.05644614 0.99370517
vn -0.07164090 0.15439536 0.98540837
vn 0.90203131 0.42590416 -0.07032187
vn -0.12970124 -0.03663273 0.99087619
vn 0.51718799 0.73992102 0.43015517
vn 0.64351919 0.56859669 0.51242644
vn 0.94420696 0.32902083 -0.01478194
vn -0.46201532 -0.75322446 0.46818240
vn 0.01004050 -0.01733284 0.99979936
vn -0.14177111 0.00189523 0.98989765
vn 0.84988809 0.52693151 -0.00578099
vn -0.07731619 0.23497752 0.96892093
vn 0.07774173 -0.27329608 0.95878333
vn -0.15934750 0.32053719 0.93373673
vn -0.02636858 0.65276782 0.75709899
vn 0.17112431 0.08404207 0.98165850
vn 0.02325351 -0.02495266 0.99941815
vn 0.93579508 -0.35132256 0.02932630
vn 0.75123457 0.65870701 -0.04185317
vn 0.10101871 -0.06011621 0.99306659
vn 0.12348909 -0.23800733 0.96338100
vn 0.76455406 0.33651348 0.54974154
vn 0.12066566 -0.26393908 0.95696184
vn -0.18343665 -0.38385650 0.90498905
vn 0.76966359 0.63673465 0.04676475
vn -0.81043659 -0.54029397 -0.22643975
vn 0.00567252 -0.06663863 0.99776105
vn -0.93849700 -0.22214360 0.26433995
vn 0.18169238 0.07970518 0.98011987
vn 0.62412180 0.22988909 0.74674158
vn -0.04159600 0.08904898 0.99515831
vn -0.76988760 -0.63382052 -0.07446228
vn -0.98442413 -0.17575198 0.00451280
vn -0.00839410 -0.00055177 0.99996462
vn -0.42207250 -0.84280854 0.33395895
vn 0.01032198 0.00834981 0.99991186
vn 0.45052130 -0.10854999 0.88614190
vn -0.05157643 0.15450207 0.98664532
vn -0.36385018 -0.87584860 0.31702093
vn 0.87178045 0.26306818 0.41327229
vn 0.37526564 0.03995554 0.92605575
vn 0.45047490 -0.07083005 0.88997498
vn -0.30009338 0.93430862 0.19238339
vn -0.18867830 0.68873793 0.70002898
vn -0.24184796 -0.04138481 0.96943121
vn -0.75956840 -0.60440278 0.24031878
vn -0.77643832 -0.63019261 -0.00090457
vn -0.03264387 0.24441619 0.96912079
vn -0.69811208 -0.70060542 -0.14761969
vn -0.66579153 -0.74606817 -0.01019464
vn -0.05337095 -0.20847515 0.97657035
vn 0.01275697 -0.02292676 0.99965575
vn -0.87805778 0.11096759 0.46551125
vn -0.00181103 0.02327394 0.99972748
vn -0.93008889 -0.24585779 -0.27292600
vn 0.08667066 0.08546117 0.99256465
vn -0.02367868 0.18761771 0.98195668
vn -0.00253156 0.10028832 0.99495520
vn 0.58778215 0.78985675 0.17503844
vn 0.31467512 0.38953652 0.86558701
vn -0.84021409 0.42853400 0.33226330
vn -0.99713608 0.06525115 -0.03823520
vn -0.13536926 -0.39694773 0.90780376
vn -0.40195002 -0.91547109 -0.01867784
vn -0.03758267 0.00342265 0.99928766
vn -0.97367772 0.20799325 -0.09322283
vn -0.97461360 0.02872756 -0.22204293
vn -0.75491532 0.03345548 -0.65496839
vn 0.65511958 0.75547464 0.00874056
vn -0.59026035 -0.80583667 -0.04711667
vn -0.97154863 0.14634844 -0.18621329
vn -0.41209699 0.26620330 0.87138503
vn -0.94562537 0.21989887 -0.23966047
vn -0.01788298 -0.08645443 0.99609529
vn -0.95720728 0.27770169 -0.08146165
vn -0.46821430 -0.88319893 -0.02711104
vn -0.77448667 0.48319248 0.40828351
vn -0.85698341 0.51534266 0.00117419
vn -0.82465260 0.56563602 0.00199751
vn 0.91445917 0.40445900 0.01331710
vn -0.03913423 -0.14077987 0.98926717
vn -0.05548153 -0.05346251 0.99702736
vn 0.01578989 0.12084305 0.99254604
vn -0.79129316 0.60301604 0.10112757
vn 0.99710737 -0.07301714 0.02110431
vn 0.96531397 0.18701386 0.18219427
vn -0.68879548 0.71740161 0.10438251
vn 0.98845978 0.08320323 0.12658784
vn -0.70118736 0.71257856 0.02383440
vn -0.08614140 -0.04076970 0.99544839
vn -0.02246216 0.65980981 0.75109684
vn -0.70080544 0.70843129 -0.08364714
vn -0.00519644 0.03671803 0.99931216
vn -0.71813645 0.68422061 0.12697322
vn -0.65465457 0.73876783 0.16015454
vn -0.86083023 0.32049657 0.39528884
vn -0.67697906 0.73460875 0.04526960
vn 0.12953320 -0.18919456 0.97335840
vn 0.15352999 -0.16905139 0.97357597
vn 0.27323899 -0.41368865 0.86844813
vn -0.94329971 -0.28959072 -0.16224327
vn -0.00068922 -0.00109948 0.99999916
vn 0.16604680 -0.16789177 0.97172054
vn -0.85295817 -0.44996583 -0.26456211
vn -0.34804643 0.93739895 0.01211983
vn -0.79937904 0.60047582 0.02054137
vn -0.34450654 0.04862897 0.93752358
vn -0.18918668 0.98177924 0.01783023
vn -0.05136168 0.05762979 0.99701594
vn -0.01157920 -0.02828908 0.99953272
vn -0.01473116 0.99968800 0.02017188
vn -0.60146454 0.75562179 0.25937642
vn -0.01854789 0.05536155 0.99829408
vn 0.07370039 -0.05422641 0.99580508
vn -0.07775736 -0.07851740 0.99387565
vn -0.00956884 0.24441548 0.96962338
vn 0.79311500 0.60590894 -0.06199147
vn 0.99555595 -0.09375287 -0.00887442
vn 0.13495463 0.99070324 0.01715613
vn 0.25064815 0.96807817 0.00040388
vn 0.87934079 -0.47232569 0.06056584
vn 0.01393805 -0.94634588 0.32285477
vn 0.86213298 0.50668035 0.00132437
vn -0.76732625 -0.04684976 0.63954321
vn 0.00680152 0.02375503 0.99969467
vn 0.84566779 -0.50606396 -0.16954424
vn 0.53189892 -0.27650453 0.80039289
vn 0.86882529 -0.49420915 -0.02999882
vn -0.40844877 -0.83337572 0.37236341
vn 0.31133592 0.93776625 -0.15383243
vn -0.92830594 -0.37180688 -0.00277924
vn -0.02295671 0.00297147 0.99973204
vn -0.14621090 0.07571612 0.98635158
vn 0.97509552 -0.22074346 -0.02147216
vn -0.25426767 -0.85951583 0.44337398
vn 0.99948866 -0.00421195 -0.03169679
vn -0.04314258 -0.24731935 0.96797307
vn 0.01899736 0.17583782 0.98423583
vn -0.14402609 0.13154180 0.98079215
vn -0.45762791 0.88880367 0.02459117
vn -0.96401260 -0.26579383 -0.00577523
vn -0.11065317 0.09922153 0.98889381
vn 0.07018768 0.19491450 0.97830569
vn -0.41750036 -0.47591386 0.77407974
vn -0.05550537 0.09219262 0.99419298
vn -0.05965287 0.03740664 0.99751806
vn -0.12170618 -0.09957712 0.98755861
vn -0.07065041 -0.07172448 0.99491915
vn -0.27389311 0.95256913 -0.13264471
vn -0.83994012 -0.54267136 0.00289787
vn 0.08616624 -0.00246484 0.99627772
vn -0.03137482 0.05724267 0.99786717
vn 0.03868506 -0.01695849 0.99910754
vn 0.06516992 0.08552383 0.99420247
vn -0.02474553 0.00341035 0.99968797
vn -0.20696123 -0.84718800 0.48932559
vn 0.35324216 0.81659350 0.45650305
vn 0.03117935 -0.02104170 0.99929230
vn -0.08468855 0.11087162 0.99021984
vn -0.00857025 0.01791322 0.99980281
vn -0.25872350 -0.96585813 -0.01342480
vn 0.45540493 0.86774902 0.19904270
vn 0.39402275 -0.84907286 0.35188258
vn -0.00070462 0.06025528 0.99818275
vn -0.21725326 0.97504404 0.04571800
vn 0.08080962 0.03488794 0.99611879
vn -0.13909926 -0.81365026 0.56446846
vn -0.46900226 -0.87982517 0.07710088
vn -0.11354523 0.07372436 0.99079372
vn -0.85862551 0.42961749 0.27962660
vn -0.13450016 -0.14224069 0.98065146
vn 0.00836953 0.16570209 0.98614034
vn -0.00576254 -0.04940590 0.99876216
vn -0.12110902 -0.06600822 0.99044208
vn -0.05818647 0.11032352 0.99219104
vn 0.12251150 0.14810694 0.98135379
vn -0.09182345 0.04633801 0.99469656
vn -0.93840730 0.33463458 0.08608975
vn -0.98430233 0.17484008 0.02408044
vn -0.72575679 -0.68782596 -0.01313485
vn 0.53872215 0.84235470 0.01473117
vn -0.06271504 0.13680299 0.98861103
vn -0.86849477 -0.49569286 -0.00233023
vn -0.16453622 -0.03787446 0.98564363
vn -0.10708811 0.25929484 0.95984286
vn -0.57327054 -0.78481948 0.23541299
vn 0.07937503 -0.08301314 0.99338231
vn -0.95322925 0.17424127 0.24696958
vn -0.93084904 -0.30161908 0.20626681
vn 0.58289507 0.79701378 0.15812141
vn -0.06023274 -0.07067662 0.99567908
vn -0.91739056 -0.29630430 -0.26570344
vn 0.11765551 -0.99243362 -0.03510970
vn 0.49556185 0.78063485 0.38082500
vn -0.18159187 0.97626723 -0.11801140
vn 0.49409431 0.60010454 0.62908295
vn -0.81274711 -0.44689775 0.37379745
vn 0.10794508 0.09955351 0.98915972
vn -0.02482413 -0.29243767 0.95596233
vn 0.00267137 -0.28401981 0.95881469
vn -0.08083023 -0.05947626 0.99495178
vn 0.02622150 -0.26338891 0.96433330
vn 0.15147051 -0.98840604 0.01049655
vn 0.55056761 0.83473327 0.00978130
vn 0.01410156 -0.03818095 0.99917134
vn -0.91649260 -0.32774875 -0.22939501
vn 0.56805935 0.17866529 0.80336000
vn -0.09669003 0.99332476 0.06290432
vn -0.29639738 0.36301900 0.88338316
vn -0.15387273 -0.16535310 0.97415683
vn 0.02697113 0.12157184 0.99221613
vn -0.93450561 -0.35594799 0.00054281
vn 0.93386193 0.35761857 -0.00329536
vn -0.83281298 0.20679005 0.51347873
vn 0.82197537 0.56805340 0.04088798
vn 0.01862742 -0.00098383 0.99982601
vn -0.88191320 -0.46595981 -0.07148823
vn 0.00540255 0.99871739 0.05034273
vn -0.21065875 -0.97713703 -0.02874222
vn -0.98575604 0.05895431 -0.15751007
vn 0.99141950 0.13068488 0.00297163
vn -0.10251482 -0.15515402 0.98255684
vn 0.10631832 -0.07586651 0.99143365
vn 0.08728956 0.98454592 -0.15182184
vn 0.04246842 0.82628738 0.56164544
vn 0.06548675 0.99771892 -0.01638444
vn -0.13818923 -0.99030224 0.01432512
vn -0.86579912 -0.49738371 0.05478434
vn -0.29267342 -0.95617044 -0.00896458
vn -0.86495309 0.50152627 -0.01809830
vn 0.13019287 0.91435741 0.38340624
vn 0.09566279 0.95831704 -0.26921567
vn 0.01623732 -0.07091556 0.99735016
vn 0.01900122 -0.11256023 0.99346321
vn -0.81000897 0.56501327 0.15698873
vn -0.87708214 -0.46047644 0.13670538
vn 0.02448311 -0.01019111 0.99964830
vn 0.05746559 0.31295088 0.94802925
vn 0.05163442 -0.42855676 0.90203824
vn 0.16452119 0.96125043 -0.22120214
vn 0.11560119 0.95944888 -0.25708794
vn -0.82091925 -0.55082377 0.15061459
vn -0.73409348 -0.53503897 0.41813881
vn -0.34181087 -0.92989263 0.13588609
vn 0.17228979 0.77068557 0.61348185
vn 0.03257312 -0.48954169 0.87137129
vn -0.70141118 -0.51807959 0.48950577
vn 0.04470130 0.12969569 0.99054572
vn -0.91175621 0.41058703 0.01090442
vn -0.92008821 0.05387444 0.38798869
vn 0.89630575 0.27879144 0.34483523
vn -0.77001508 -0.57405884 -0.27844790
vn -0.75207716 -0.55979878 0.34785813
vn 0.41553786 0.85842914 -0.30071198
vn 0.19652468 0.57632512 0.79323856
vn -0.79432210 -0.58132640 0.17638599
vn -0.01297634 -0.99750136 0.06944528
vn -0.10127526 -0.14417637 0.98435588
vn -0.03646093 0.09624824 0.99468934
vn -0.02807776 -0.03573496 0.99896679
vn 0.16409828 0.49336191 0.85420477
vn -0.74770424 -0.56127158 0.35484162
vn 0.27375685 0.95407076 0.12168061
vn -0.30091237 -0.71885797 0.62665379
vn 0.13990155 -0.90515096 0.40140913
vn -0.09526130 -0.51834980 0.84984632
vn 0.00904843 -0.02472379 0.99965337
vn -0.60312255 0.77656440 0.18218376
vn 0.15440933 0.02190141 0.98776419
vn -0.09361818 -0.09849938 0.99072373
vn 0.11776421 -0.03145523 0.99254328
vn -0.43556200 0.88264249 0.17671440
vn -0.72696145 -0.68658961 0.01103471
vn 0.07230909 0.13673994 0.98796436
vn -0.47553690 0.82918968 0.29378417
vn 0.51525606 -0.85637154 -0.03374877
vn -0.68529472 -0.72778953 -0.02633513
vn 0.00487031 -0.03890588 0.99923101
vn -0.33034491 0.05005398 0.94253214
vn 0.10861043 -0.45923258 0.88165141
vn 0.91868439 0.38610626 -0.08331231
vn -0.38081162 0.92430410 -0.02538586
vn 0.05191739 -0.10031451 0.99360031
vn -0.40810700 -0.71785058 0.56403831
vn -0.57762279 -0.81613453 -0.01662336
vn 0.03852172 -0.08589997 0.99555877
vn -0.57506177 -0.60485989 0.55086158
vn -0.05034719 0.09553697 0.99415182
vn 0.30350404 0.28781913 0.90832012
vn -0.09230147 -0.13773119 0.98615950
vn 0.68304969 0.69971491 0.20938521
vn 0.29145505 0.95576207 -0.03965869
vn 0.52945866 -0.84787101 0.02807638
vn -0.01946193 0.92487595 -0.37977060
vn 0.24394983 0.94844452 0.20233997
vn -0.05662435 0.10433752 0.99292868
vn 0.42588939 0.90464568 0.01531062
vn 0.75245528 0.65218822 0.09198682
vn -0.50908060 -0.28054652 0.81371408
vn 0.66404117 0.52957260 0.52782779
vn 0.89496139 0.44614329 0.00053030
vn 0.04322122 -0.07526420 0.99622649
vn -0.04348616 0.08967762 0.99502104
vn 0.24534164 -0.65498858 0.71470094
vn 0.02106428 -0.52345852 0.85179075
vn 0.27609487 -0.82788222 0.48824447
vn 0.22445699 0.90805084 -0.35364209
vn -0.30801991 0.09783206 0.94633642
vn 0.11629812 0.09425540 0.98873185
vn 0.17803777 -0.13003591 0.97539388
vn 0.04226072 0.12500443 0.99125573
vn 0.10888791 0.04428701 0.99306701
vn 0.23163233 0.15920945 0.95968683
vn -0.97608114 0.21709016 0.01172461
vn -0.10406439 -0.21508008 0.97103613
vn -0.00330032 -0.03785627 0.99927774
vn 0.38531321 0.89810773 -0.21198170
vn -0.84506248 -0.41369639 0.33871034
vn -0.92754588 0.32827105 -0.17859663
vn -0.07653469 -0.16871809 0.98268848
vn 0.49975048 0.83898603 0.21529493
vn -0.39865934 0.16969057 0.90126347
vn 0.46054108 0.88761433 0.00653607
vn 0.05850107 -0.22416695 0.97279330
vn -0.88772558 0.44857158 -0.10357045
vn -0.54157900 -0.84052687 -0.01437938
vn -0.88823342 0.45501934 -0.06323607
vn -0.12142969 0.03475184 0.99199150
vn -0.30558427 0.78099553 0.54466893
vn -0.02368388 -0.99918820 -0.03258856
vn 0.62696028 0.75138206 0.20578098
vn -0.14894034 -0.10596346 0.98315234
vn -0.06195718 -0.18282292 0.98119167
vn 0.13327387 -0.07120869 0.98851778
vn -0.01931817 0.14323309 0.98950042
vn -0.06716183 -0.24447717 0.96732632
vn -0.13327326 0.97446098 0.18073196
vn -0.98987368 0.14157342 0.01034681
vn -0.97646668 -0.10093551 0.19059078
vn -0.00128279 -0.01883450 0.99982179
vn -0.01881596 -0.00323862 0.99981772
vn 0.04403388 0.01004132 0.99897957
vn 0.66667390 0.65577969 0.35425826
vn -0.00807631 -0.10150934 0.99480180
vn 0.08464509 0.11857643 0.98933050
vn -0.08518531 -0.18988831 0.97810321
vn -0.84664483 -0.15270258 0.50977883
vn 0.72178549 0.55052142 0.41946617
vn -0.25653568 -0.03744745 0.96580906
vn -0.11321295 -0.97266523 0.20274410
vn 0.00289961 -0.03091703 0.99951775
vn -0.14837549 0.24150394 0.95898934
vn -0.19655863 0.88623088 0.41947530
vn -0.05747546 0.27727159 0.95907092
vn 0.78203734 0.62192527 0.04033056
vn 0.23919891 -0.97075627 -0.02039969
vn -0.25472739 0.17787165 0.95051335
vn 0.02384325 -0.89664362 0.44211053
vn -0.01226871 -0.06440993 0.99784810
vn 0.04068487 -0.20375318 0.97817656
vn -0.57364660 0.77608792 0.26194871
vn 0.58852264 -0.79151923 -0.16473737
vn 0.28437334 -0.05963175 0.95685728
vn 0.06446280 -0.07671474 0.99496703
vn -0.28896242 0.04256435 0.95639375
vn -0.01725350 0.03403393 0.99927174
vn -0.03009725 0.06581125 0.99737808
vn 0.05554986 0.02965898 0.99801531
vn -0.02106154 0.42392510 0.90545233
vn 0.64533021 0.53479681 0.54547346
vn 0.87092670 0.38735033 0.30240108
vn 0.84665349 0.48292116 0.22352856
vn -0.35503324 0.36897753 0.85895691
vn -0.18102687 0.20540499 0.96178899
vn -0.17638681 0.08186057 0.98091108
vn -0.08646347 0.11246551 0.98988665
vn -0.24093915 0.38452539 0.89111646
vn 0.22422579 -0.94099028 0.25349573
vn 0.10347385 0.13576376 0.98532297
vn 0.85538855 -0.05740962 0.51479565
vn 0.91075566 0.32156865 0.25907088
vn 0.80212516 0.59249463 0.07446706
vn 0.25913298 0.42185791 0.86884176
vn 0.06407772 0.08618085 0.99421673
vn 0.53958304 0.17769460 0.82296706
vn 0.90080020 -0.11145416 0.41968674
vn -0.00702273 -0.04191251 0.99909660
vn -0.06657592 0.00711091 0.99775602
vn 0.31684638 0.03672286 0.94776569
vn 0.41485718 -0.90938007 0.03035470
vn 0.81030936 -0.56843351 -0.14241519
vn 0.71763006 -0.68631260 -0.11824598
vn 0.00684173 -0.01987437 0.99977908
vn 0.87602171 0.19015769 0.44319975
vn 0.99750576 0.05809052 0.04009666
vn 0.99645996 0.07584550 -0.03626297
vn 0.79758641 0.10851491 0.59336366
vn -0.08807343 -0.12785181 0.98787499
vn 0.24572963 -0.04769543 0.96816429
vn -0.75916682 0.59406594 0.26599134
vn -0.01079389 -0.08665885 0.99617957
vn -0.21493396 0.09682654 0.97181686
vn -0.42075304 0.40910847 0.80968953
vn 0.68741488 0.05987419 0.72379269
vn 0.62566112 -0.77142583 -0.11597566
vn -0.92641463 0.05507260 0.37245529
vn -0.13126421 0.12082778 0.98395648
vn -0.00395836 -0.02008576 0.99979042
vn -0.18269781 0.01532731 0.98304963
vn 0.92552372 0.37801883 -0.02253020
vn -0.10173757 -0.00626834 0.99479152
vn -0.20003733 0.14321539 0.96926489
vn -0.12760090 0.07340801 0.98910529
vn 0.88139504 -0.46594085 -0.07772969
vn -0.15922022 -0.06647553 0.98500250
vn -0.35742065 0.01320266 0.93385018
vn 0.13878305 -0.13661321 0.98085478
vn -0.12373842 0.01575465 0.99218980
vn 0.76354711 0.45386528 0.45934966
vn -0.10947389 0.04824838 0.99281799
vn -0.08845164 -0.01558819 0.99595849
vn 0.89719166 0.41419545 0.15326206
vn -0.20764205 0.05069552 0.97689034
vn 0.32873844 -0.15118833 0.93224092
vn -0.03170625 -0.19427892 0.98043379
vn 0.03274344 -0.01300615 0.99937916
vn 0.92035837 0.33728533 0.19793706
vn 0.01993979 -0.01929565 0.99961497
vn 0.81531426 0.09315664 0.57147572
vn -0.00648169 -0.01309890 0.99989320
vn -0.77062923 -0.63320165 0.07201571
vn -0.00525135 -0.04957367 0.99875666
vn -0.08416417 0.04300354 0.99552352
vn 0.00914722 -0.20039517 0.97967245
vn -0.01320030 -0.21127403 0.97733773
vn 0.11980133 -0.03523198 0.99217254
vn -0.03971708 -0.89599828 0.44227778
vn 0.33846992 -0.94082586 -0.01687668
vn 0.09546004 -0.23343003 0.96767650
vn -0.06412406 -0.00605660 0.99792356
vn -0.13993819 -0.09432866 0.98565684
vn -0.00100913 -0.09019636 0.99592349
vn 0.04663173 -0.07931691 0.99575816
vn 0.11873450 -0.16184203 0.97964753
vn 0.04572623 -0.06317588 0.99695432
vn -0.51696990 -0.84772819 -0.11873936
vn 0.14984454 -0.17851660 0.97245999
vn 0.03540878 -0.07761150 0.99635469
vn 0.07996964 -0.12531951 0.98888820
vn 0.08294953 -0.25204556 0.96415373
vn -0.88322789 -0.12142881 0.45294982
vn -0.23239142 -0.96258709 0.13935679
f 12//12 36//36 14//14
f 14//14 36//36 37//37
f 37//37 36//36 31//31
f 37//37 31//31 39//39
f 39//39 31//31 22//22
f 39//39 22//22 21//21
f 21//21 62//62 39//39
f 62//62 7//7 39//39
f 7//7 61//61 8//8
f 1//1 2//2 57//57
f 51//51 2//2 1//1
f 51//51 54//54 2//2
f 9//9 47//47 25//25
f 25//25 51//51 1//1
f 40//40 13//13 58//58
f 58//58 15//15 40//40
f 45//45 38//38 27//27
f 45//45 42//42 38//38
f 40//40 14//14 35//35
f 35//35 23//23 13//13
f 35//35 13//13 40//40
f 56//56 2//2 55//55
f 56//56 11//11 2//2
f 50//50 11//11 56//56
f 11//11 50//50 43//43
f 43//43 27//27 11//11
f 42//42 49//49 18//18
f 49//49 42//42 28//28
f 45//45 28//28 42//42
f 18//18 49//49 52//52
f 19//19 52//52 5//5
f 24//24 20//20 26//26
f 60//60 26//26 41//41
f 23//23 35//35 48//48
f 32//32 3//3 16//16
f 6//6 34//34 48//48
f 30//30 3//3 53//53
f 34//34 30//30 53//53
f 34//34 6//6 30//30
f 53//53 3//3 32//32
f 35//35 6//6 48//48
f 16//16 3//3 10//10
f 16//16 10//10 24//24
f 10//10 20//20 24//24
f 60//60 41//41 19//19
f 5//5 59//59 19//19
f 60//60 19//19 59//59
f 41//41 26//26 20//20
f 19//19 18//18 52//52
f 17//17 15//15 46//46
f 15//15 29//29 46//46
f 27//27 38//38 11//11
f 29//29 15//15 58//58
f 12//12 14//14 40//40
f 54//54 55//55 2//2
f 4//4 25//25 1//1
f 4//4 9//9 25//25
f 44//44 47//47 9//9
f 8//8 47//47 44//44
f 8//8 33//33 47//47
f 33//33 8//8 61//61
f 61//61 7//7 62//62
f 97//97 73//73 90//90
f 102//102 93//93 81//81
f 73//73 69//69 87//87
f 116//116 110//110 79//79
f 79//79 108//108 116//116
f 94//94 108//108 79//79
f 108//108 94//94 81//81
f 81//81 93//93 108//108
f 121//121 65//65 117//117
f 89//89 113//113 88//88
f 112//112 88//88 113//113
f 88//88 112//112 78//78
f 110//110 78//78 112//112
f 82//82 74//74 44//44
f 74//74 96//96 44//44
f 96//96 66//66 44//44
f 66//66 95//95 44//44
f 95//95 100//100 44//44
f 44//44 100//100 14//14
f 37//37 44//44 14//14
f 39//39 44//44 37//37
f 7//7 44//44 39//39
f 8//8 44//44 7//7
f 63//63 9//9 4//4
f 63//63 4//4 1//1
f 44//44 63//63 103//103
f 44//44 138//138 139//139
f 44//44 139//139 137//137
f 44//44 137//137 123//123
f 44//44 123//123 67//67
f 44//44 67//67 119//119
f 44//44 119//119 65//65
f 65//65 119//119 117//117
f 115//115 89//89 121//121
f 91//91 85//85 82//82
f 85//85 74//74 82//82
f 77//77 2//2 11//11
f 77//77 11//11 38//38
f 42//42 77//77 38//38
f 99//99 77//77 42//42
f 140//140 35//35 14//14
f 18//18 72//72 42//42
f 118//118 72//72 18//18
f 19//19 118//118 18//18
f 143//143 105//105 129//129
f 126//126 118//118 41//41
f 20//20 126//126 41//41
f 120//120 118//118 126//126
f 84//84 127//127 129//129
f 129//129 127//127 143//143
f 129//129 114//114 133//133
f 19//19 41//41 118//118
f 125//125 126//126 20//20
f 118//118 120//120 84//84
f 114//114 129//129 105//105
f 86//86 145//145 128//128
f 70//70 76//76 92//92
f 130//130 71//71 64//64
f 64//64 71//71 134//134
f 134//134 131//131 136//136
f 92//92 136//136 131//131
f 104//104 68//68 70//70
f 76//76 70//70 68//68
f 106//106 124//124 135//135
f 134//134 71//71 144//144
f 83//83 75//75 104//104
f 104//104 75//75 68//68
f 68//68 75//75 106//106
f 68//68 106//106 135//135
f 104//104 109//109 83//83
f 83//83 109//109 132//132
f 132//132 109//109 98//98
f 64//64 86//86 130//130
f 3//3 142//142 10//10
f 107//107 6//6 35//35
f 141//141 142//142 3//3
f 141//141 3//3 30//30
f 122//122 30//30 6//6
f 122//122 141//141 30//30
f 6//6 111//111 122//122
f 107//107 111//111 6//6
f 140//140 107//107 35//35
f 144//144 131//131 134//134
f 86//86 101//101 130//130
f 10//10 142//142 125//125
f 136//136 92//92 76//76
f 133//133 128//128 145//145
f 101//101 86//86 128//128
f 133//133 114//114 128//128
f 10//10 125//125 20//20
f 127//127 84//84 120//120
f 72//72 99//99 42//42
f 77//77 57//57 2//2
f 14//14 100//100 140//140
f 113//113 89//89 115//115
f 63//63 44//44 9//9
f 65//65 121//121 89//89
f 78//78 110//110 116//116
f 102//102 97//97 80//80
f 80//80 97//97 90//90
f 93//93 102//102 80//80
f 231//231 327//327 228//228
f 228//228 373//373 305//305
f 300//300 413//413 163//163
f 317//317 212//212 680//680
f 688//688 317//317 680//680
f 413//413 300//300 305//305
f 158//158 221//221 233//233
f 231//231 221//221 158//158
f 231//231 158//158 73//73
f 97//97 327//327 231//231
f 327//327 373//373 228//228
f 163//163 150//150 300//300
f 396//396 317//317 688//688
f 202//202 317//317 723//723
f 208//208 305//305 197//197
f 347//347 80//80 345//345
f 599//599 116//116 597//597
f 80//80 591//591 93//93
f 464//464 327//327 102//102
f 464//464 102//102 81//81
f 373//373 464//464 259//259
f 464//464 478//478 259//259
f 478//478 489//489 259//259
f 373//373 403//403 305//305
f 413//413 403//403 153//153
f 150//150 163//163 166//166
f 166//166 163//163 180//180
f 166//166 180//180 179//179
f 212//212 166//166 354//354
f 680//680 215//215 693//693
f 693//693 681//681 680//680
f 680//680 212//212 215//215
f 688//688 680//680 551//551
f 194//194 334//334 197//197
f 396//396 197//197 723//723
f 147//147 339//339 340//340
f 492//492 87//87 147//147
f 90//90 87//87 343//343
f 521//521 502//502 599//599
f 507//507 599//599 502//502
f 350//350 507//507 351//351
f 350//350 116//116 599//599
f 350//350 78//78 116//116
f 508//508 79//79 110//110
f 597//597 116//116 108//108
f 79//79 478//478 94//94
f 591//591 597//597 108//108
f 591//591 108//108 93//93
f 478//478 464//464 81//81
f 489//489 376//376 259//259
f 190//190 179//179 180//180
f 190//190 153//153 160//160
f 190//190 204//204 179//179
f 204//204 354//354 179//179
f 215//215 212//212 354//354
f 693//693 215//215 362//362
f 456//456 693//693 362//362
f 683//683 693//693 456//456
f 418//418 414//414 381//381
f 660//660 674//674 695//695
f 681//681 695//695 600//600
f 690//690 680//680 681//681
f 690//690 551//551 680//680
f 600//600 690//690 681//681
f 690//690 600//600 580//580
f 325//325 688//688 551//551
f 208//208 334//334 339//339
f 521//521 347//347 368//368
f 356//356 366//366 361//361
f 361//361 364//364 65//65
f 534//534 121//121 117//117
f 534//534 703//703 121//121
f 88//88 351//351 89//89
f 515//515 519//519 514//514
f 519//519 112//112 113//113
f 519//519 515//515 112//112
f 112//112 508//508 110//110
f 508//508 484//484 79//79
f 484//484 508//508 489//489
f 489//489 478//478 484//484
f 422//422 160//160 403//403
f 203//203 160//160 319//319
f 203//203 204//204 190//190
f 382//382 215//215 419//419
f 362//362 215//215 382//382
f 692//692 683//683 700//700
f 692//692 418//418 660//660
f 692//692 405//405 418//418
f 405//405 386//386 414//414
f 646//646 684//684 381//381
f 381//381 684//684 418//418
f 647//647 674//674 685//685
f 647//647 629//629 600//600
f 695//695 674//674 600//600
f 629//629 349//349 594//594
f 368//368 486//486 580//580
f 486//486 368//368 586//586
f 586//586 325//325 486//486
f 610//610 325//325 586//586
f 325//325 551//551 486//486
f 194//194 396//396 678//678
f 194//194 678//678 334//334
f 502//502 521//521 333//333
f 507//507 502//502 378//378
f 21//21 714//714 713//713
f 62//62 21//21 713//713
f 708//708 61//61 713//713
f 61//61 708//708 33//33
f 499//499 63//63 57//57
f 499//499 103//103 63//63
f 364//364 44//44 65//65
f 119//119 545//545 534//534
f 119//119 534//534 117//117
f 703//703 115//115 121//121
f 356//356 361//361 89//89
f 525//525 528//528 519//519
f 514//514 298//298 500//500
f 528//528 524//524 514//514
f 524//524 298//298 514//514
f 524//524 304//304 298//298
f 203//203 207//207 204//204
f 354//354 204//204 387//387
f 387//387 419//419 354//354
f 419//419 215//215 354//354
f 382//382 419//419 420//420
f 382//382 420//420 532//532
f 382//382 532//532 178//178
f 382//382 178//178 456//456
f 698//698 386//386 692//692
f 385//385 268//268 646//646
f 266//266 679//679 684//684
f 675//675 679//679 266//266
f 675//675 685//685 679//679
f 344//344 685//685 675//675
f 344//344 629//629 685//685
f 349//349 333//333 594//594
f 594//594 333//333 368//368
f 521//521 368//368 333//333
f 586//586 368//368 347//347
f 610//610 334//334 678//678
f 610//610 678//678 325//325
f 586//586 334//334 610//610
f 586//586 338//338 334//334
f 338//338 343//343 334//334
f 338//338 586//586 347//347
f 368//368 580//580 594//594
f 502//502 333//333 349//349
f 366//366 378//378 359//359
f 367//367 366//366 359//359
f 554//554 547//547 544//544
f 96//96 547//547 554//554
f 467//467 437//437 480//480
f 722//722 719//719 12//12
f 720//720 719//719 722//722
f 574//574 568//568 555//555
f 574//574 555//555 720//720
f 31//31 543//543 714//714
f 708//708 423//423 47//47
f 423//423 438//438 25//25
f 47//47 423//423 25//25
f 475//475 57//57 77//77
f 650//650 465//465 628//628
f 537//537 465//465 650//650
f 465//465 602//602 57//57
f 602//602 465//465 630//630
f 724//724 491//491 165//165
f 499//499 724//724 103//103
f 724//724 165//165 103//103
f 139//139 165//165 348//348
f 718//718 139//139 348//348
f 718//718 557//557 137//137
f 557//557 549//549 123//123
f 67//67 549//549 545//545
f 549//549 321//321 545//545
f 545//545 321//321 703//703
f 321//321 524//524 703//703
f 203//203 319//319 235//235
f 203//203 213//213 210//210
f 203//203 210//210 207//207
f 532//532 420//420 446//446
f 424//424 386//386 404//404
f 648//648 266//266 646//646
f 266//266 684//684 646//646
f 672//672 675//675 359//359
f 369//369 91//91 364//364
f 91//91 82//82 364//364
f 369//369 384//384 85//85
f 384//384 149//149 85//85
f 547//547 148//148 540//540
f 540//540 544//544 547//547
f 377//377 421//421 544//544
f 421//421 437//437 467//467
f 437//437 380//380 480//480
f 380//380 383//383 480//480
f 383//383 490//490 480//480
f 467//467 480//480 140//140
f 577//577 170//170 722//722
f 722//722 40//40 577//577
f 574//574 720//720 722//722
f 426//426 584//584 477//477
f 584//584 426//426 488//488
f 584//584 574//574 477//477
f 447//447 575//575 457//457
f 720//720 543//543 721//721
f 543//543 445//445 714//714
f 704//704 708//708 530//530
f 704//704 430//430 708//708
f 423//423 708//708 430//430
f 438//438 236//236 51//51
f 55//55 54//54 236//236
f 45//45 27//27 168//168
f 628//628 77//77 99//99
f 77//77 628//628 475//475
f 576//576 152//152 151//151
f 558//558 151//151 715//715
f 151//151 558//558 576//576
f 558//558 552//552 576//576
f 552//552 650//650 578//578
f 552//552 537//537 650//650
f 630//630 465//465 537//537
f 616//616 472//472 505//505
f 491//491 433//433 165//165
f 319//319 304//304 321//321
f 235//235 213//213 203//203
f 420//420 419//419 482//482
f 178//178 191//191 181//181
f 700//700 181//181 189//189
f 705//705 427//427 449//449
f 698//698 700//700 705//705
f 705//705 700//700 702//702
f 432//432 698//698 705//705
f 404//404 417//417 424//424
f 385//385 326//326 329//329
f 329//329 284//284 385//385
f 310//310 303//303 607//607
f 320//320 316//316 310//310
f 268//268 385//385 284//284
f 646//646 268//268 648//648
f 269//269 649//649 286//286
f 645//645 272//272 648//648
f 266//266 648//648 272//272
f 266//266 272//272 675//675
f 649//649 633//633 645//645
f 645//645 648//648 649//649
f 359//359 645//645 633//633
f 272//272 645//645 359//359
f 369//369 366//366 367//367
f 540//540 384//384 369//369
f 149//149 384//384 148//148
f 369//369 367//367 540//540
f 58//58 13//13 634//634
f 634//634 435//435 183//183
f 201//201 29//29 183//183
f 562//562 556//556 559//559
f 536//536 220//220 538//538
f 538//538 220//220 171//171
f 538//538 171//171 518//518
f 574//574 722//722 171//171
f 171//171 722//722 170//170
f 574//574 171//171 477//477
f 550//550 651//651 546//546
f 546//546 415//415 550//550
f 656//656 655//655 533//533
f 656//656 415//415 546//546
f 520//520 415//415 656//656
f 415//415 397//397 550//550
f 550//550 397//397 488//488
f 308//308 415//415 410//410
f 308//308 330//330 397//397
f 397//397 330//330 583//583
f 583//583 584//584 488//488
f 584//584 575//575 574//574
f 581//581 457//457 575//575
f 583//583 457//457 581//581
f 457//457 454//454 447//447
f 568//568 560//560 555//555
f 459//459 541//541 720//720
f 541//541 445//445 543//543
f 530//530 337//337 704//704
f 445//445 337//337 530//530
f 425//425 216//216 438//438
f 56//56 55//55 448//448
f 161//161 27//27 43//43
f 155//155 365//365 161//161
f 27//27 161//161 168//168
f 172//172 168//168 161//161
f 172//172 182//182 168//168
f 481//481 184//184 174//174
f 162//162 662//662 548//548
f 662//662 710//710 72//72
f 710//710 628//628 72//72
f 151//151 152//152 156//156
f 372//372 717//717 715//715
f 716//716 293//293 370//370
f 370//370 295//295 715//715
f 293//293 295//295 370//370
f 295//295 711//711 715//715
f 711//711 596//596 715//715
f 558//558 715//715 596//596
f 511//511 630//630 537//537
f 602//602 709//709 622//622
f 472//472 709//709 630//630
f 472//472 630//630 511//511
f 511//511 505//505 472//472
f 506//506 505//505 511//511
f 281//281 285//285 293//293
f 365//365 289//289 374//374
f 264//264 285//285 281//281
f 285//285 632//632 711//711
f 707//707 596//596 706//706
f 596//596 505//505 506//506
f 439//439 709//709 472//472
f 439//439 433//433 622//622
f 433//433 491//491 622//622
f 428//428 407//407 433//433
f 557//557 718//718 342//342
f 549//549 557//557 321//321
f 210//210 213//213 218//218
f 218//218 213//213 416//416
f 416//416 387//387 218//218
f 463//463 446//446 420//420
f 532//532 463//463 539//539
f 200//200 425//425 185//185
f 702//702 430//430 704//704
f 189//189 181//181 185//185
f 700//700 189//189 702//702
f 702//702 189//189 430//430
f 189//189 425//425 430//430
f 181//181 191//191 200//200
f 181//181 200//200 185//185
f 189//189 185//185 425//425
f 216//216 236//236 438//438
f 56//56 448//448 50//50
f 50//50 448//448 43//43
f 43//43 448//448 155//155
f 365//365 182//182 172//172
f 481//481 174//174 182//182
f 195//195 193//193 205//205
f 28//28 195//195 49//49
f 174//174 184//184 45//45
f 164//164 162//162 548//548
f 164//164 154//154 162//162
f 710//710 662//662 162//162
f 152//152 710//710 162//162
f 152//152 162//162 154//154
f 157//157 372//372 154//154
f 157//157 173//173 372//372
f 173//173 176//176 175//175
f 192//192 196//196 175//175
f 717//717 175//175 196//196
f 375//375 196//196 248//248
f 173//173 175//175 717//717
f 715//715 717//717 370//370
f 370//370 717//717 375//375
f 371//371 370//370 375//375
f 558//558 596//596 506//506
f 552//552 558//558 506//506
f 285//285 711//711 293//293
f 293//293 711//711 295//295
f 621//621 229//229 217//217
f 193//193 184//184 481//481
f 193//193 481//481 169//169
f 193//193 169//169 205//205
f 662//662 72//72 118//118
f 49//49 195//195 442//442
f 548//548 662//662 565//565
f 548//548 565//565 677//677
f 677//677 186//186 548//548
f 186//186 164//164 548//548
f 663//663 400//400 232//232
f 244//244 232//232 192//192
f 196//196 255//255 292//292
f 292//292 255//255 399//399
f 309//309 256//256 254//254
f 313//313 309//309 312//312
f 635//635 495//495 313//313
f 523//523 313//313 312//312
f 523//523 312//312 553//553
f 312//312 275//275 553//553
f 658//658 553//553 667//667
f 658//658 635//635 523//523
f 606//606 292//292 309//309
f 257//257 292//292 399//399
f 249//249 248//248 196//196
f 249//249 240//240 248//248
f 375//375 240//240 371//371
f 248//248 240//240 375//375
f 253//253 229//229 238//238
f 217//217 229//229 659//659
f 260//260 638//638 665//665
f 638//638 234//234 621//621
f 621//621 234//234 619//619
f 211//211 229//229 379//379
f 205//205 211//211 379//379
f 211//211 169//169 198//198
f 219//219 442//442 205//205
f 451//451 450//450 219//219
f 442//442 195//195 205//205
f 52//52 225//225 5//5
f 126//126 589//589 120//120
f 129//129 565//565 84//84
f 120//120 593//593 127//127
f 677//677 565//565 129//129
f 603//603 143//143 593//593
f 143//143 127//127 593//593
f 133//133 677//677 129//129
f 312//312 254//254 275//275
f 275//275 254//254 406//406
f 668//668 667//667 553//553
f 652//652 667//667 676//676
f 652//652 635//635 658//658
f 636//636 495//495 635//635
f 606//606 249//249 292//292
f 242//242 249//249 606//606
f 253//253 473//473 670//670
f 659//659 229//229 253//253
f 273//273 673//673 687//687
f 273//273 276//276 665//665
f 276//276 640//640 637//637
f 276//276 260//260 665//665
f 214//214 379//379 621//621
f 379//379 219//219 205//205
f 214//214 239//239 451//451
f 451//451 219//219 214//214
f 450//450 451//451 250//250
f 450//450 460//460 5//5
f 59//59 460//460 60//60
f 26//26 522//522 611//611
f 125//125 589//589 126//126
f 461//461 469//469 24//24
f 24//24 469//469 16//16
f 120//120 589//589 593//593
f 565//565 118//118 84//84
f 593//593 462//462 603//603
f 653//653 70//70 92//92
f 686//686 136//136 76//76
f 686//686 398//398 136//136
f 267//267 686//686 290//290
f 408//408 406//406 290//290
f 408//408 389//389 352//352
f 406//406 408//408 352//352
f 279//279 352//352 159//159
f 667//667 167//167 222//222
f 687//687 670//670 473//473
f 687//687 673//673 670//670
f 271//271 276//276 282//282
f 288//288 271//271 282//282
f 288//288 640//640 271//271
f 617//617 637//637 624//624
f 624//624 626//626 585//585
f 561//561 572//572 567//567
f 278//278 627//627 572//572
f 563//563 572//572 627//627
f 614//614 612//612 617//617
f 617//617 613//613 276//276
f 613//613 260//260 276//276
f 613//613 509//509 639//639
f 639//639 260//260 613//613
f 226//226 590//590 571//571
f 571//571 234//234 604//604
f 571//571 604//604 227//227
f 590//590 455//455 245//245
f 245//245 237//237 590//590
f 239//239 619//619 245//245
f 611//611 239//239 245//245
f 461//461 611//611 245//245
f 214//214 619//619 239//239
f 24//24 611//611 461//461
f 26//26 611//611 24//24
f 250//250 239//239 611//611
f 522//522 26//26 60//60
f 522//522 60//60 460//460
f 250//250 451//451 239//239
f 250//250 460//460 450//450
f 460//460 250//250 522//522
f 522//522 250//250 611//611
f 619//619 237//237 245//245
f 469//469 461//461 318//318
f 142//142 589//589 125//125
f 579//579 589//589 142//142
f 615//615 603//603 570//570
f 615//615 570//570 128//128
f 570//570 101//101 128//128
f 86//86 664//664 145//145
f 134//134 663//663 664//664
f 136//136 663//663 134//134
f 644//644 643//643 92//92
f 131//131 644//644 92//92
f 70//70 653//653 479//479
f 358//358 479//479 653//653
f 188//188 358//358 653//653
f 70//70 358//358 104//104
f 76//76 68//68 290//290
f 479//479 358//358 70//70
f 390//390 290//290 135//135
f 159//159 682//682 668//668
f 699//699 188//188 694//694
f 696//696 671//671 669//669
f 314//314 696//696 669//669
f 636//636 671//671 689//689
f 689//689 671//671 696//696
f 696//696 314//314 689//689
f 689//689 299//299 687//687
f 473//473 636//636 689//689
f 689//689 687//687 473//473
f 694//694 573//573 283//283
f 694//694 283//283 294//294
f 294//294 288//288 657//657
f 642//642 294//294 283//283
f 627//627 283//283 487//487
f 71//71 620//620 144//144
f 144//144 487//487 131//131
f 487//487 644//644 131//131
f 644//644 573//573 643//643
f 643//643 573//573 653//653
f 653//653 573//573 485//485
f 297//297 654//654 106//106
f 654//654 297//297 395//395
f 654//654 395//395 390//390
f 654//654 390//390 124//124
f 222//222 167//167 358//358
f 360//360 358//358 167//167
f 358//358 109//109 104//104
f 493//493 83//83 357//357
f 493//493 297//297 106//106
f 297//297 291//291 395//395
f 682//682 291//291 493//493
f 389//389 291//291 682//682
f 291//291 297//297 493//493
f 682//682 493//493 167//167
f 357//357 167//167 493//493
f 360//360 167//167 357//357
f 360//360 357//357 582//582
f 132//132 357//357 83//83
f 357//357 132//132 98//98
f 582//582 357//357 98//98
f 360//360 582//582 98//98
f 360//360 98//98 109//109
f 358//358 360//360 109//109
f 188//188 222//222 358//358
f 701//701 669//669 222//222
f 222//222 666//666 701//701
f 666//666 301//301 661//661
f 301//301 282//282 299//299
f 687//687 299//299 282//282
f 288//288 282//282 301//301
f 694//694 657//657 691//691
f 657//657 694//694 294//294
f 188//188 653//653 485//485
f 694//694 485//485 573//573
f 283//283 573//573 487//487
f 642//642 640//640 294//294
f 642//642 641//641 640//640
f 302//302 666//666 699//699
f 699//699 694//694 691//691
f 302//302 288//288 301//301
f 657//657 288//288 302//302
f 691//691 302//302 699//699
f 302//302 691//691 657//657
f 302//302 301//301 666//666
f 299//299 661//661 301//301
f 701//701 666//666 314//314
f 314//314 669//669 701//701
f 694//694 188//188 485//485
f 291//291 389//389 395//395
f 395//395 389//389 390//390
f 389//389 408//408 390//390
f 75//75 493//493 106//106
f 290//290 68//68 135//135
f 493//493 75//75 83//83
f 487//487 573//573 644//644
f 144//144 620//620 487//487
f 101//101 570//570 130//130
f 570//570 620//620 130//130
f 570//570 627//627 487//487
f 277//277 641//641 642//642
f 624//624 641//641 626//626
f 627//627 278//278 283//283
f 567//567 572//572 563//563
f 612//612 324//324 613//613
f 324//324 509//509 613//613
f 604//604 223//223 227//227
f 318//318 16//16 469//469
f 589//589 579//579 595//595
f 579//579 569//569 595//595
f 603//603 341//341 570//570
f 331//331 563//563 341//341
f 468//468 563//563 331//331
f 563//563 561//561 567//567
f 612//612 614//614 651//651
f 612//612 550//550 324//324
f 651//651 328//328 656//656
f 466//466 655//655 332//332
f 655//655 656//656 332//332
f 533//533 655//655 429//429
f 535//535 533//533 429//429
f 453//453 462//462 595//595
f 453//453 341//341 462//462
f 328//328 651//651 614//614
f 550//550 612//612 651//651
f 453//453 569//569 476//476
f 468//468 332//332 470//470
f 331//331 332//332 468//468
f 470//470 332//332 328//328
f 466//466 332//332 331//331
f 331//331 476//476 466//466
f 466//466 434//434 655//655
f 476//476 569//569 434//434
f 453//453 476//476 341//341
f 476//476 434//434 466//466
f 434//434 429//429 655//655
f 434//434 569//569 429//429
f 332//332 656//656 328//328
f 470//470 328//328 614//614
f 331//331 341//341 476//476
f 563//563 570//570 341//341
f 570//570 563//563 627//627
f 579//579 564//564 569//569
f 535//535 527//527 533//533
f 656//656 533//533 520//520
f 533//533 527//527 520//520
f 415//415 308//308 397//397
f 483//483 410//410 415//415
f 483//483 444//444 410//410
f 444//444 388//388 410//410
f 436//436 583//583 330//330
f 436//436 457//457 583//583
f 560//560 459//459 555//555
f 459//459 712//712 337//337
f 704//704 337//337 712//712
f 441//441 702//702 704//704
f 441//441 427//427 702//702
f 531//531 449//449 712//712
f 712//712 449//449 443//443
f 443//443 427//427 441//441
f 449//449 427//427 443//443
f 424//424 330//330 431//431
f 320//320 607//607 287//287
f 625//625 320//320 287//287
f 310//310 607//607 320//320
f 437//437 377//377 380//380
f 310//310 286//286 303//303
f 310//310 316//316 601//601
f 315//315 269//269 601//601
f 315//315 412//412 269//269
f 412//412 377//377 544//544
f 412//412 633//633 269//269
f 540//540 633//633 412//412
f 269//269 633//633 649//649
f 412//412 544//544 540//540
f 377//377 412//412 315//315
f 496//496 504//504 107//107
f 496//496 490//490 498//498
f 490//490 496//496 140//140
f 435//435 634//634 23//23
f 48//48 435//435 23//23
f 435//435 199//199 183//183
f 458//458 452//452 556//556
f 223//223 559//559 226//226
f 16//16 318//318 32//32
f 566//566 579//579 142//142
f 566//566 402//402 579//579
f 564//564 535//535 569//569
f 535//535 429//429 569//569
f 535//535 392//392 503//503
f 498//498 391//391 504//504
f 510//510 520//520 527//527
f 497//497 510//510 503//503
f 444//444 483//483 510//510
f 388//388 607//607 329//329
f 444//444 607//607 388//388
f 383//383 363//363 497//497
f 503//503 510//510 517//517
f 503//503 391//391 383//383
f 383//383 497//497 503//503
f 363//363 444//444 510//510
f 444//444 363//363 287//287
f 497//497 363//363 510//510
f 517//517 535//535 503//503
f 527//527 535//535 517//517
f 517//517 510//510 527//527
f 498//498 383//383 391//391
f 380//380 609//609 383//383
f 625//625 287//287 609//609
f 607//607 444//444 287//287
f 380//380 625//625 609//609
f 383//383 609//609 287//287
f 490//490 383//383 498//498
f 383//383 287//287 363//363
f 326//326 388//388 329//329
f 326//326 330//330 308//308
f 388//388 326//326 308//308
f 520//520 510//510 483//483
f 199//199 435//435 48//48
f 201//201 183//183 199//199
f 209//209 529//529 201//201
f 17//17 46//46 529//529
f 529//529 46//46 201//201
f 529//529 536//536 538//538
f 556//556 536//536 206//206
f 206//206 501//501 556//556
f 556//556 501//501 440//440
f 440//440 458//458 556//556
f 458//458 401//401 53//53
f 458//458 53//53 32//32
f 512//512 391//391 526//526
f 513//513 111//111 504//504
f 34//34 199//199 48//48
f 206//206 529//529 209//209
f 209//209 501//501 206//206
f 141//141 526//526 402//402
f 526//526 391//391 392//392
f 501//501 394//394 516//516
f 122//122 526//526 141//141
f 401//401 394//394 53//53
f 440//440 516//516 401//401
f 440//440 501//501 516//516
f 516//516 394//394 401//401
f 394//394 34//34 53//53
f 512//512 526//526 122//122
f 318//318 452//452 458//458
f 440//440 401//401 458//458
f 199//199 501//501 201//201
f 209//209 201//201 501//501
f 199//199 34//34 394//394
f 513//513 512//512 111//111
f 512//512 122//122 111//111
f 513//513 391//391 512//512
f 402//402 392//392 564//564
f 392//392 402//402 526//526
f 402//402 566//566 141//141
f 455//455 452//452 318//318
f 226//226 559//559 452//452
f 536//536 529//529 206//206
f 501//501 199//199 394//394
f 107//107 504//504 111//111
f 391//391 513//513 504//504
f 392//392 391//391 503//503
f 564//564 392//392 535//535
f 402//402 564//564 579//579
f 566//566 142//142 141//141
f 458//458 32//32 318//318
f 226//226 227//227 223//223
f 220//220 536//536 562//562
f 509//509 426//426 477//477
f 426//426 324//324 488//488
f 639//639 509//509 562//562
f 604//604 562//562 223//223
f 562//562 509//509 220//220
f 559//559 223//223 562//562
f 518//518 17//17 538//538
f 538//538 17//17 529//529
f 140//140 496//496 107//107
f 496//496 498//498 504//504
f 380//380 377//377 315//315
f 421//421 377//377 437//437
f 601//601 286//286 310//310
f 601//601 316//316 315//315
f 316//316 625//625 315//315
f 315//315 625//625 380//380
f 320//320 625//625 316//316
f 329//329 607//607 284//284
f 385//385 431//431 326//326
f 431//431 330//330 326//326
f 712//712 459//459 531//531
f 417//417 274//274 447//447
f 274//274 449//449 531//531
f 417//417 411//411 274//274
f 417//417 454//454 436//436
f 330//330 424//424 436//436
f 424//424 417//417 436//436
f 454//454 417//417 447//447
f 531//531 560//560 274//274
f 531//531 459//459 560//560
f 447//447 274//274 560//560
f 712//712 443//443 441//441
f 712//712 441//441 704//704
f 404//404 411//411 417//417
f 449//449 274//274 411//411
f 560//560 568//568 447//447
f 436//436 454//454 457//457
f 520//520 483//483 415//415
f 656//656 546//546 651//651
f 470//470 614//614 561//561
f 468//468 470//470 561//561
f 563//563 468//468 561//561
f 341//341 603//603 462//462
f 569//569 453//453 595//595
f 318//318 461//461 455//455
f 461//461 245//245 455//455
f 590//590 226//226 455//455
f 226//226 452//452 455//455
f 562//562 604//604 639//639
f 426//426 509//509 324//324
f 278//278 626//626 277//277
f 278//278 585//585 626//626
f 585//585 278//278 572//572
f 277//277 642//642 283//283
f 283//283 278//278 277//277
f 277//277 626//626 641//641
f 624//624 637//637 641//641
f 664//664 86//86 64//64
f 487//487 620//620 570//570
f 294//294 640//640 288//288
f 314//314 666//666 661//661
f 314//314 661//661 299//299
f 299//299 689//689 314//314
f 671//671 676//676 669//669
f 222//222 188//188 666//666
f 666//666 188//188 699//699
f 668//668 682//682 167//167
f 682//682 159//159 352//352
f 682//682 352//352 389//389
f 290//290 390//390 408//408
f 124//124 390//390 135//135
f 654//654 124//124 106//106
f 290//290 686//686 76//76
f 620//620 71//71 130//130
f 134//134 664//664 64//64
f 462//462 593//593 595//595
f 226//226 571//571 227//227
f 639//639 604//604 638//638
f 571//571 590//590 234//234
f 237//237 234//234 590//590
f 604//604 234//234 638//638
f 260//260 639//639 638//638
f 617//617 612//612 613//613
f 561//561 614//614 585//585
f 585//585 572//572 561//561
f 624//624 614//614 617//617
f 624//624 585//585 614//614
f 276//276 637//637 617//617
f 640//640 641//641 637//637
f 276//276 273//273 282//282
f 687//687 282//282 273//273
f 635//635 652//652 636//636
f 671//671 652//652 676//676
f 652//652 671//671 636//636
f 167//167 667//667 668//668
f 668//668 553//553 159//159
f 553//553 279//279 159//159
f 279//279 553//553 275//275
f 352//352 279//279 406//406
f 643//643 653//653 92//92
f 136//136 398//398 663//663
f 232//232 244//244 663//663
f 186//186 664//664 244//244
f 677//677 664//664 186//186
f 244//244 664//664 663//663
f 186//186 244//244 177//177
f 186//186 177//177 157//157
f 677//677 133//133 145//145
f 677//677 145//145 664//664
f 114//114 615//615 128//128
f 114//114 603//603 615//615
f 565//565 662//662 118//118
f 589//589 595//595 593//593
f 5//5 460//460 59//59
f 450//450 5//5 225//225
f 49//49 442//442 450//450
f 225//225 52//52 450//450
f 442//442 219//219 450//450
f 379//379 214//214 219//219
f 214//214 621//621 619//619
f 234//234 237//237 619//619
f 271//271 640//640 276//276
f 273//273 638//638 673//673
f 638//638 659//659 673//673
f 670//670 673//673 659//659
f 659//659 253//253 670//670
f 473//473 253//253 636//636
f 253//253 238//238 242//242
f 636//636 242//242 495//495
f 249//249 238//238 240//240
f 636//636 253//253 242//242
f 242//242 238//238 249//249
f 257//257 309//309 292//292
f 309//309 495//495 606//606
f 606//606 495//495 242//242
f 667//667 652//652 658//658
f 222//222 669//669 676//676
f 222//222 676//676 667//667
f 523//523 553//553 658//658
f 267//267 400//400 686//686
f 176//176 157//157 177//177
f 105//105 603//603 114//114
f 52//52 49//49 450//450
f 205//205 169//169 211//211
f 211//211 198//198 229//229
f 229//229 621//621 379//379
f 217//217 638//638 621//621
f 638//638 273//273 665//665
f 229//229 198//198 238//238
f 198//198 374//374 238//238
f 306//306 238//238 374//374
f 281//281 306//306 289//289
f 238//238 306//306 240//240
f 313//313 523//523 635//635
f 313//313 495//495 309//309
f 309//309 254//254 312//312
f 275//275 406//406 279//279
f 400//400 393//393 232//232
f 251//251 187//187 232//232
f 232//232 187//187 192//192
f 256//256 267//267 406//406
f 267//267 256//256 257//257
f 393//393 255//255 232//232
f 255//255 393//393 399//399
f 267//267 399//399 393//393
f 257//257 399//399 267//267
f 232//232 255//255 251//251
f 254//254 256//256 406//406
f 256//256 309//309 257//257
f 196//196 251//251 255//255
f 196//196 292//292 249//249
f 196//196 187//187 251//251
f 400//400 267//267 393//393
f 400//400 663//663 398//398
f 406//406 267//267 290//290
f 400//400 398//398 686//686
f 192//192 177//177 244//244
f 176//176 173//173 157//157
f 164//164 186//186 157//157
f 603//603 105//105 143//143
f 72//72 628//628 99//99
f 195//195 184//184 193//193
f 169//169 481//481 182//182
f 169//169 182//182 198//198
f 198//198 182//182 365//365
f 217//217 659//659 638//638
f 374//374 198//198 365//365
f 374//374 289//289 306//306
f 281//281 293//293 716//716
f 306//306 281//281 716//716
f 306//306 716//716 371//371
f 306//306 371//371 240//240
f 375//375 717//717 196//196
f 371//371 716//716 370//370
f 187//187 196//196 192//192
f 192//192 176//176 177//177
f 175//175 176//176 192//192
f 154//154 164//164 157//157
f 152//152 154//154 156//156
f 45//45 184//184 28//28
f 28//28 184//184 195//195
f 365//365 265//265 289//289
f 246//246 474//474 264//264
f 285//285 474//474 632//632
f 632//632 706//706 596//596
f 632//632 474//474 706//706
f 409//409 407//407 428//428
f 348//348 342//342 718//718
f 261//261 235//235 322//322
f 321//321 342//342 322//322
f 342//342 598//598 322//322
f 243//243 416//416 258//258
f 387//387 416//416 243//243
f 463//463 542//542 494//494
f 216//216 230//230 236//236
f 448//448 241//241 155//155
f 155//155 355//355 365//365
f 281//281 265//265 264//264
f 353//353 241//241 264//264
f 252//252 247//247 246//246
f 471//471 697//697 706//706
f 697//697 707//707 706//706
f 505//505 707//707 616//616
f 409//409 428//428 439//439
f 697//697 471//471 608//608
f 707//707 323//323 616//616
f 323//323 707//707 697//697
f 433//433 407//407 311//311
f 258//258 261//261 262//262
f 261//261 258//258 416//416
f 243//243 587//587 482//482
f 542//542 587//587 588//588
f 588//588 539//539 494//494
f 539//539 588//588 623//623
f 200//200 631//631 224//224
f 200//200 191//191 631//631
f 191//191 539//539 623//623
f 155//155 353//353 355//355
f 365//365 355//355 265//265
f 264//264 265//265 353//353
f 355//355 353//353 265//265
f 353//353 155//155 241//241
f 252//252 246//246 264//264
f 241//241 230//230 252//252
f 697//697 608//608 605//605
f 346//346 335//335 616//616
f 616//616 335//335 409//409
f 336//336 311//311 307//307
f 336//336 307//307 598//598
f 336//336 598//598 348//348
f 598//598 270//270 262//262
f 270//270 263//263 262//262
f 542//542 482//482 587//587
f 631//631 623//623 246//246
f 246//246 247//247 631//631
f 323//323 346//346 616//616
f 598//598 280//280 270//270
f 296//296 263//263 280//280
f 307//307 296//296 280//280
f 263//263 258//258 262//262
f 587//587 243//243 346//346
f 623//623 588//588 246//246
f 588//588 618//618 246//246
f 618//618 608//608 246//246
f 608//608 618//618 605//605
f 605//605 587//587 323//323
f 598//598 307//307 280//280
f 296//296 307//307 311//311
f 587//587 346//346 323//323
f 335//335 346//346 296//296
f 243//243 296//296 346//346
f 243//243 263//263 296//296
f 311//311 335//335 296//296
f 618//618 588//588 592//592
f 592//592 605//605 618//618
f 592//592 587//587 605//605
f 588//588 587//587 592//592
f 280//280 263//263 270//270
f 409//409 335//335 407//407
f 407//407 335//335 311//311
f 216//216 224//224 230//230
f 247//247 252//252 224//224
f 252//252 230//230 224//224
f 216//216 200//200 224//224
f 224//224 631//631 247//247
f 243//243 258//258 263//263
f 348//348 598//598 342//342
f 191//191 623//623 631//631
f 322//322 598//598 262//262
f 697//697 605//605 323//323
f 474//474 246//246 471//471
f 608//608 471//471 246//246
f 252//252 264//264 241//241
f 539//539 463//463 494//494
f 588//588 494//494 542//542
f 482//482 387//387 243//243
f 416//416 213//213 235//235
f 416//416 235//235 261//261
f 322//322 262//262 261//261
f 322//322 319//319 321//321
f 433//433 311//311 336//336
f 428//428 433//433 439//439
f 471//471 706//706 474//474
f 265//265 281//281 289//289
f 172//172 161//161 365//365
f 55//55 241//241 448//448
f 236//236 230//230 241//241
f 425//425 200//200 216//216
f 463//463 420//420 542//542
f 420//420 482//482 542//542
f 387//387 482//482 419//419
f 557//557 342//342 321//321
f 336//336 348//348 165//165
f 433//433 336//336 165//165
f 439//439 622//622 709//709
f 409//409 439//439 472//472
f 505//505 596//596 707//707
f 264//264 474//474 285//285
f 596//596 711//711 632//632
f 506//506 511//511 552//552
f 511//511 537//537 552//552
f 156//156 715//715 151//151
f 715//715 156//156 372//372
f 717//717 372//372 173//173
f 372//372 156//156 154//154
f 168//168 174//174 45//45
f 155//155 161//161 43//43
f 236//236 241//241 55//55
f 236//236 54//54 51//51
f 337//337 541//541 459//459
f 720//720 541//541 543//543
f 541//541 337//337 445//445
f 530//530 714//714 445//445
f 459//459 720//720 555//555
f 575//575 447//447 568//568
f 583//583 581//581 584//584
f 581//581 575//575 584//584
f 388//388 308//308 410//410
f 397//397 583//583 488//488
f 550//550 488//488 324//324
f 477//477 171//171 220//220
f 170//170 518//518 171//171
f 46//46 29//29 201//201
f 518//518 15//15 17//17
f 477//477 220//220 509//509
f 562//562 536//536 556//556
f 559//559 556//556 452//452
f 634//634 13//13 23//23
f 490//490 140//140 480//480
f 384//384 540//540 148//148
f 367//367 359//359 540//540
f 540//540 359//359 633//633
f 272//272 359//359 675//675
f 286//286 601//601 269//269
f 286//286 649//649 648//648
f 286//286 648//648 303//303
f 303//303 648//648 268//268
f 268//268 284//284 303//303
f 607//607 303//303 284//284
f 404//404 449//449 411//411
f 432//432 705//705 449//449
f 404//404 432//432 449//449
f 705//705 702//702 427//427
f 178//178 181//181 700//700
f 178//178 539//539 191//191
f 178//178 532//532 539//539
f 532//532 446//446 463//463
f 322//322 235//235 319//319
f 616//616 409//409 472//472
f 576//576 552//552 578//578
f 576//576 710//710 152//152
f 578//578 650//650 710//710
f 710//710 650//650 628//628
f 628//628 465//465 475//475
f 174//174 168//168 182//182
f 438//438 423//423 425//425
f 423//423 430//430 425//425
f 574//574 575//575 568//568
f 170//170 15//15 518//518
f 634//634 29//29 58//58
f 15//15 170//170 577//577
f 183//183 29//29 634//634
f 577//577 40//40 15//15
f 554//554 544//544 421//421
f 148//148 85//85 149//149
f 359//359 378//378 672//672
f 672//672 344//344 675//675
f 672//672 629//629 344//344
f 349//349 629//629 672//672
f 432//432 404//404 386//386
f 700//700 683//683 456//456
f 700//700 456//456 178//178
f 207//207 218//218 204//204
f 218//218 207//207 210//210
f 321//321 304//304 524//524
f 528//528 525//525 703//703
f 115//115 525//525 519//519
f 528//528 703//703 524//524
f 703//703 534//534 545//545
f 165//165 138//138 103//103
f 491//491 724//724 499//499
f 499//499 622//622 491//491
f 602//602 630//630 709//709
f 576//576 578//578 710//710
f 57//57 475//475 465//465
f 25//25 438//438 51//51
f 714//714 21//21 22//22
f 714//714 530//530 713//713
f 721//721 543//543 31//31
f 720//720 721//721 719//719
f 719//719 721//721 36//36
f 722//722 12//12 40//40
f 100//100 467//467 140//140
f 421//421 467//467 100//100
f 554//554 421//421 66//66
f 547//547 96//96 74//74
f 148//148 547//547 74//74
f 85//85 148//148 74//74
f 91//91 369//369 85//85
f 672//672 378//378 349//349
f 684//684 679//679 685//685
f 432//432 386//386 698//698
f 204//204 218//218 387//387
f 319//319 422//422 304//304
f 113//113 115//115 519//519
f 356//356 89//89 351//351
f 703//703 525//525 115//115
f 545//545 119//119 67//67
f 123//123 549//549 67//67
f 137//137 557//557 123//123
f 718//718 137//137 139//139
f 138//138 165//165 139//139
f 138//138 44//44 103//103
f 622//622 499//499 602//602
f 602//602 499//499 57//57
f 63//63 1//1 57//57
f 47//47 33//33 708//708
f 708//708 713//713 530//530
f 713//713 61//61 62//62
f 31//31 714//714 22//22
f 721//721 31//31 36//36
f 719//719 36//36 12//12
f 95//95 421//421 100//100
f 66//66 421//421 95//95
f 554//554 66//66 96//96
f 82//82 44//44 364//364
f 369//369 364//364 366//366
f 502//502 349//349 378//378
f 507//507 378//378 366//366
f 492//492 334//334 343//343
f 600//600 594//594 580//580
f 647//647 600//600 674//674
f 594//594 600//600 629//629
f 629//629 647//647 685//685
f 646//646 381//381 385//385
f 431//431 385//385 381//381
f 431//431 381//381 414//414
f 424//424 431//431 414//414
f 424//424 414//414 386//386
f 414//414 418//418 405//405
f 660//660 418//418 674//674
f 693//693 683//683 660//660
f 683//683 692//692 660//660
f 681//681 693//693 660//660
f 386//386 405//405 692//692
f 700//700 698//698 692//692
f 456//456 362//362 382//382
f 422//422 376//376 298//298
f 304//304 422//422 298//298
f 319//319 160//160 422//422
f 403//403 376//376 422//422
f 500//500 508//508 515//515
f 489//489 508//508 500//500
f 500//500 298//298 376//376
f 500//500 376//376 489//489
f 500//500 515//515 514//514
f 78//78 350//350 88//88
f 350//350 351//351 88//88
f 528//528 514//514 519//519
f 361//361 65//65 89//89
f 364//364 361//361 366//366
f 356//356 507//507 366//366
f 345//345 338//338 347//347
f 338//338 345//345 343//343
f 340//340 339//339 492//492
f 492//492 339//339 334//334
f 208//208 197//197 334//334
f 396//396 194//194 197//197
f 396//396 688//688 678//678
f 678//678 688//688 325//325
f 580//580 486//486 551//551
f 660//660 695//695 681//681
f 674//674 684//684 685//685
f 684//684 674//674 418//418
f 160//160 203//203 190//190
f 180//180 163//163 153//153
f 180//180 153//153 190//190
f 153//153 403//403 160//160
f 259//259 376//376 403//403
f 94//94 478//478 81//81
f 478//478 79//79 484//484
f 508//508 112//112 515//515
f 599//599 507//507 350//350
f 356//356 351//351 507//507
f 521//521 599//599 597//597
f 597//597 591//591 521//521
f 73//73 87//87 90//90
f 492//492 343//343 87//87
f 158//158 69//69 73//73
f 339//339 69//69 146//146
f 233//233 339//339 146//146
f 233//233 208//208 339//339
f 233//233 146//146 69//69
f 158//158 233//233 69//69
f 208//208 233//233 221//221
f 69//69 339//339 147//147
f 69//69 147//147 87//87
f 492//492 147//147 340//340
f 305//305 208//208 221//221
f 317//317 396//396 723//723
f 690//690 580//580 551//551
f 354//354 166//166 179//179
f 150//150 166//166 212//212
f 347//347 591//591 80//80
f 521//521 591//591 347//347
f 345//345 80//80 90//90
f 343//343 345//345 90//90
f 300//300 723//723 197//197
f 300//300 202//202 723//723
f 202//202 300//300 150//150
f 153//153 163//163 413//413
f 305//305 403//403 413//413
f 259//259 403//403 373//373
f 464//464 373//373 327//327
f 327//327 97//97 102//102
f 97//97 231//231 73//73
f 197//197 305//305 300//300
f 150//150 317//317 202//202
f 317//317 150//150 212//212
f 231//231 228//228 221//221
f 305//305 221//221 228//228