# https://github.com/mikedh/trimesh
v -0.02406982 -0.00338188 -0.05561724
v -0.03160210 -0.02932597 -0.00429767
v -0.01022042 -0.01007386 0.04173608
v 0.03317834 -0.02257765 -0.00089506
v -0.02553124 -0.03187362 -0.00577164
v -0.03841156 0.00259074 -0.04881722
v -0.00459412 -0.03483341 0.01033120
v -0.03959014 0.01464604 -0.04339518
v 0.03170901 -0.00438344 -0.01632692
v -0.02693365 -0.02002797 0.02991354
v -0.00250013 -0.02480852 0.03492957
v -0.02380037 -0.03024130 0.00368686
v -0.01913285 -0.02838804 0.01516947
v -0.02396195 -0.01795084 0.03373913
v 0.01075488 -0.01795902 0.03142944
v -0.01497761 -0.02346603 0.03399871
v -0.03835330 -0.02496979 0.00493205
v -0.02842278 -0.02837128 0.01027165
v -0.03612947 0.01524565 -0.04513007
v 0.02788844 -0.02410065 0.00459021
v -0.02696491 -0.00304801 0.03721109
v -0.01280624 -0.02965451 0.01381236
v 0.00466445 -0.02424903 0.04796982
v -0.02466586 -0.02739367 0.01830526
v 0.01418956 -0.01597911 0.03217196
v 0.01611260 -0.01634264 0.03347421
v -0.03273248 0.01546131 -0.04286516
v -0.01247183 -0.02828580 0.01841865
v -0.00572112 -0.03275611 0.01472930
v 0.01515863 -0.00616792 0.03354003
v 0.03459405 -0.02516295 0.00932513
v -0.03821775 -0.02174976 0.01589260
v -0.00393318 -0.03272651 0.02222191
v -0.02879294 0.00811057 -0.06127109
v -0.03089424 -0.02634439 0.01487599
v 0.00643379 -0.02508921 0.05240675
v -0.03076327 -0.02507466 0.01857758
v -0.03095447 0.02055690 -0.04076398
v -0.02240858 -0.02040849 -0.03980715
v -0.02800240 0.02344165 -0.04152782
v -0.02063996 -0.02494868 -0.03491313
v -0.03286228 0.02345671 -0.03766415
v -0.04126761 -0.01544283 0.01962791
v 0.00229880 -0.02627884 0.05036258
v -0.06068792 0.00415848 0.01482056
v 0.01497221 -0.01708565 0.03572830
v -0.02999704 -0.02284891 -0.03197135
v -0.02718111 -0.01279952 0.03459211
v 0.00169815 -0.02816042 0.05583016
v -0.03232404 -0.01808700 0.02757888
v -0.03359505 -0.02530751 -0.02382568
v -0.03990994 -0.01032508 0.02447061
v -0.03918490 -0.00384519 0.02710802
v -0.03530101 -0.00911623 0.02991842
v -0.01608333 -0.01135693 0.04068244
v -0.04380856 0.00775342 -0.03766041
v -0.04324609 0.00422369 -0.03508710
v -0.01297420 -0.01568768 0.04027657
v -0.00988184 -0.01570642 0.04073338
v -0.02760423 0.00173354 -0.06080597
v 0.02541043 -0.02417231 0.01161215
v -0.05106247 -0.00951993 -0.01553378
v -0.03128532 -0.00577142 0.03400791
v 0.01979811 -0.02529286 0.01489402
v -0.02936905 -0.02377173 0.02278811
v -0.03473084 -0.00028571 0.03218557
v 0.00785518 -0.01820377 0.03426926
v 0.03388977 -0.02427876 0.01768045
v -0.01464665 0.00018924 -0.05946280
v -0.01352857 -0.00019604 -0.05584424
v -0.03880703 0.00725155 -0.05682246
v -0.02704726 0.04205967 -0.00657789
v -0.01871278 0.00319905 -0.06123992
v -0.01965265 0.01232508 -0.04896149
v 0.00218087 0.04002532 -0.02129179
v -0.04131689 0.00736224 -0.05562936
v -0.02011218 -0.01786996 0.03620864
v 0.04635840 0.00315794 -0.01525604
v -0.01477849 0.01878685 -0.04832483
v -0.00197285 -0.01199096 -0.04868390
v 0.00889222 -0.01778731 0.03942404
v 0.00076374 -0.02073062 -0.04366416
v -0.03954777 0.02420633 -0.02964267
v 0.04512476 -0.00812782 -0.02122422
v -0.02075346 0.02095798 -0.04619242
v -0.01121260 -0.02562788 0.05512055
v -0.04379524 0.02083124 -0.02670215
v -0.00359453 -0.02856606 0.05872636
v -0.02490880 0.01178039 -0.05523441
v -0.03475238 0.00442828 -0.05689075
v -0.00226713 -0.00561499 -0.05021533
v -0.00289621 0.01603875 0.03471258
v 0.00208983 -0.00444330 -0.04987599
v -0.02137806 0.00085631 -0.06150225
v 0.01800720 0.03125901 -0.01496384
v -0.04530706 0.00403825 -0.03198920
v -0.00458811 -0.00706266 0.04151762
v 0.01646888 -0.00350610 -0.04466409
v 0.05528554 -0.00305198 0.01677273
v -0.03413756 0.03850673 -0.00095237
v 0.00047980 -0.02716122 -0.03536556
v -0.02768005 0.03139771 -0.03490375
v -0.00551679 -0.01528819 0.04056005
v 0.00478549 -0.01304471 -0.04740993
v -0.01478983 -0.00298731 -0.05370473
v 0.00809541 -0.02166620 0.04448827
v 0.04171520 -0.00975334 -0.01551724
v 0.04900160 0.00922950 -0.01204242
v 0.05661495 0.00064239 -0.01356406
v 0.05274327 0.00404234 -0.01362570
v -0.00838220 -0.00825856 -0.04969884
v 0.00063439 -0.01419494 0.04664309
v -0.01191640 -0.00340784 -0.05015850
v -0.02460395 0.03739720 -0.02800464
v -0.03776784 -0.01975626 -0.02817685
v 0.01515992 0.01199148 -0.04217935
v 0.04384953 -0.02081978 -0.01453725
v -0.04500331 0.01303383 -0.05440238
v -0.03616574 0.03168900 -0.02505239
v 0.00329399 -0.02841135 -0.02964569
v 0.06072756 -0.01840149 -0.01912566
v -0.01959884 -0.00478721 -0.05136427
v 0.00904683 -0.01932540 -0.04341184
v -0.01542970 -0.00504879 -0.04950242
v -0.04517067 0.02236641 -0.02231093
v -0.00027338 -0.02444232 0.04633725
v 0.05503238 0.00735205 -0.00872959
v 0.01341172 0.01976690 -0.03914587
v 0.04419339 -0.02701235 -0.00902531
v -0.04016384 0.03165000 -0.01831883
v 0.00361745 -0.02971369 -0.02383859
v -0.04042821 -0.02426052 -0.01508544
v -0.00610450 -0.02088603 -0.04389105
v -0.01458620 -0.02076421 -0.04279777
v -0.04816979 0.01691017 -0.02160795
v -0.04483006 0.02600989 -0.01751380
v 0.03633230 0.03407802 -0.00259560
v -0.00264315 -0.03086846 -0.02098900
v 0.04655160 0.01449324 -0.00822585
v 0.01165886 -0.02217122 0.04728214
v 0.02801545 -0.02241640 0.02074886
v 0.00205195 0.00903775 -0.04950420
v 0.03665676 -0.02599570 -0.00731095
v 0.02563315 0.01187682 -0.02977014
v 0.05280857 -0.00156347 -0.01804133
v 0.05023613 -0.02542586 -0.00946830
v -0.00328557 -0.01635684 0.05208539
v 0.02002710 0.01731339 -0.03410981
v 0.02708309 0.00247840 -0.03407641
v 0.00839621 -0.02606910 -0.03664781
v 0.00928080 -0.03522312 -0.01560465
v 0.01600218 -0.02722810 -0.03364026
v 0.04017362 0.03406841 -0.00349504
v 0.02759633 0.00055783 -0.02231295
v 0.01183017 -0.03324514 -0.02260901
v 0.06269148 -0.01883650 -0.01551649
v 0.01138945 0.00044607 -0.04712194
v 0.01197922 0.03647912 -0.00272277
v 0.02169545 0.02162608 -0.02634466
v -0.01677519 -0.02731943 0.02309257
v -0.05500387 0.01220120 -0.00929128
v -0.03967376 0.03389829 -0.01208095
v 0.00466998 0.02199025 -0.04369579
v 0.00613449 -0.01653879 0.05554744
v 0.02236524 -0.02194234 0.01913819
v 0.03810089 -0.00582700 0.05411358
v 0.03078913 -0.00969506 0.05283224
v -0.03740696 0.03653639 -0.00241118
v -0.05588386 0.01681147 -0.00337203
v 0.05441687 -0.00731842 -0.02105268
v 0.03181644 0.03190833 -0.00373565
v -0.00272052 0.04179320 0.00421491
v 0.04404090 -0.00143320 -0.01635839
v 0.05526645 -0.02541249 -0.00531400
v -0.06016975 0.00414661 0.02062379
v -0.03428498 0.03828244 -0.00967776
v 0.02145563 0.00856426 -0.03802150
v 0.03325403 0.02483112 -0.00131020
v -0.06170938 0.01206862 -0.00513386
v -0.00038438 -0.02753209 0.05887144
v -0.04475134 -0.00834854 -0.02940047
v -0.00259360 -0.02031355 0.05930398
v 0.02523852 -0.02866012 -0.01199578
v 0.04439859 0.02906604 -0.00711904
v -0.01063711 -0.02904299 0.02416287
v 0.04267426 0.02227529 -0.00433309
v -0.03314184 0.03851339 0.00388932
v 0.00632997 0.03370386 -0.03057924
v 0.00396315 0.03972388 0.00341188
v 0.00856282 -0.02958602 -0.02932803
v -0.04123658 0.03254110 0.00532475
v 0.05218587 -0.03074082 -0.00421508
v -0.01203742 0.04436288 -0.00727060
v -0.04618271 -0.01874388 -0.01354829
v -0.00812171 -0.02099401 0.05713301
v -0.00515113 -0.02980892 0.02922732
v -0.04359907 -0.02218603 -0.00651947
v 0.04965514 0.01839216 -0.00263451
v 0.05235293 0.01345440 -0.00480549
v 0.04795414 -0.03017479 -0.00598707
v -0.01372569 0.00587127 -0.05175805
v -0.00716844 0.04291605 -0.01835430
v 0.03259877 0.02853494 0.00184152
v 0.00440485 -0.03644887 -0.00789922
v -0.03097461 0.00585915 -0.06186860
v -0.03988232 -0.02492824 -0.00450098
v -0.02641600 -0.00428755 -0.04587263
v 0.03463831 0.02689470 0.00376763
v 0.01458005 -0.03034642 -0.02911674
v -0.02587964 0.01432068 -0.04704305
v 0.05122282 -0.02399562 -0.01813892
v 0.04966813 0.02668886 0.00123737
v -0.00690236 0.01403414 -0.05014835
v 0.01720410 -0.03271264 -0.02206222
v -0.04528457 -0.00236475 -0.03064937
v -0.04910439 -0.01400576 -0.00311214
v 0.02429723 0.01614529 -0.02174382
v -0.00554128 -0.02931602 -0.02650379
v 0.02601793 -0.02239975 -0.01038978
v -0.00752088 0.01956595 -0.04829077
v 0.01847472 0.02827652 -0.02217202
v -0.04648768 0.02621716 0.00348017
v 0.00524292 0.03597534 0.01075836
v 0.00071992 0.03750589 0.01184001
v -0.04624573 0.02481757 0.00793990
v -0.05099311 0.01734167 0.00776053
v -0.00748011 0.02611010 -0.04482476
v 0.03164534 -0.02086551 0.02577910
v -0.03043416 -0.01130056 0.03291794
v -0.04992112 0.01841003 0.00485833
v 0.03951812 0.02306997 0.00950977
v -0.05135468 -0.00572927 0.00176273
v -0.05117889 0.00226274 -0.01892170
v 0.00875862 0.03429780 0.00949845
v -0.06414431 0.00840586 0.01720194
v 0.02693177 -0.02412294 -0.02412950
v 0.04793673 -0.03243193 -0.00151520
v 0.01847848 0.00255134 -0.04268987
v -0.05125494 0.00807488 -0.01821673
v -0.04819404 -0.00783094 -0.02310612
v 0.05240160 -0.03270178 -0.00053879
v 0.00872505 0.03073394 0.01510691
v -0.04677274 0.01122829 -0.05262183
v -0.04911962 0.01863190 -0.01655975
v -0.03473852 0.00002502 -0.04122525
v -0.04568200 0.00968880 -0.04887806
v 0.05484656 -0.02963631 0.00002284
v -0.03854746 -0.00950500 -0.03485010
v 0.02548237 -0.01525384 0.03107578
v -0.03532280 -0.00632481 -0.03927019
v 0.05791227 -0.02062580 -0.00187330
v 0.03692751 -0.01910345 0.02853939
v -0.01745262 -0.01500103 0.03908597
v 0.01143883 0.02593749 0.01671261
v 0.05289447 0.01826262 0.01010369
v -0.00186403 0.04205443 -0.01786623
v -0.01303392 0.04369587 -0.01562066
v 0.00249929 0.03240328 0.01808118
v 0.01305000 -0.03570662 -0.01105908
v -0.02204848 -0.00936831 0.03882518
v 0.02262326 -0.03114414 -0.01559897
v 0.01680230 -0.03483186 -0.00091495
v 0.01060229 -0.00812405 -0.04699077
v 0.00231403 -0.03686936 -0.00054754
v 0.00066065 0.04216937 -0.01265452
v -0.06083311 0.01298807 0.01643583
v -0.04317078 0.02649907 0.01344556
v 0.00890667 0.03786174 -0.01652027
v 0.00905175 -0.03680546 -0.00351203
v -0.04777005 0.01905617 0.01034096
v 0.01518988 0.02489444 -0.03242774
v 0.01317139 0.03611315 -0.01018728
v -0.03517201 -0.01683724 -0.03372921
v 0.04146402 0.03200045 -0.00634514
v 0.03897876 0.02249225 0.02285969
v 0.02766548 -0.01900404 -0.01469454
v -0.00052749 -0.04081369 -0.00504443
v 0.03474422 0.01861087 0.02726090
v 0.03077563 -0.01612761 -0.01497056
v 0.03924068 0.00770603 -0.01226899
v 0.05067734 -0.03328767 0.00069549
v -0.00444890 0.04369914 -0.00907261
v 0.01776174 -0.01343800 -0.04275477
v 0.04280086 -0.03059917 -0.00008144
v -0.04570365 0.01844950 0.01531248
v -0.00814542 -0.02023297 0.04633615
v 0.02833511 0.01678355 0.02356166
v -0.04659682 0.02556299 -0.01225992
v 0.03880312 -0.01597797 -0.01499682
v -0.03645849 0.02919394 0.01893168
v -0.04319987 0.03079881 -0.00698066
v -0.04444609 -0.01383004 -0.02570035
v 0.03923401 0.02048645 0.02756814
v 0.00428584 0.04120949 -0.00871613
v -0.03906349 0.03497258 -0.00739094
v 0.02670711 0.01217799 0.02949919
v 0.02077272 -0.01597678 -0.03962559
v -0.05163830 -0.00111405 0.00702534
v -0.00722748 -0.02563540 0.04765092
v 0.02572760 -0.02769343 -0.01995427
v -0.04253000 -0.01981875 -0.02190274
v 0.01566147 -0.02147858 -0.03985865
v -0.00305296 -0.02733207 0.05062459
v 0.01880120 -0.01560886 0.03231929
v -0.01010065 -0.02519796 0.04872955
v 0.00002916 -0.03092113 -0.01760349
v -0.00359205 0.04006924 -0.02580952
v 0.04611151 -0.03146012 0.00248276
v 0.03015653 0.00547397 0.03659310
v 0.03275150 0.02982700 -0.00634647
v 0.03813396 -0.02440806 0.00297203
v -0.04875941 -0.01432967 -0.01452760
v -0.00410841 0.01019712 0.03771114
v 0.02232248 -0.01949998 -0.03622991
v 0.03887039 0.02516948 -0.00605552
v -0.04070057 0.02327144 0.02021073
v 0.00142745 0.00360225 0.03835694
v 0.03661461 0.03054928 -0.00708609
v -0.01141401 -0.02410565 0.05219845
v 0.01756114 0.03140308 -0.00600711
v 0.01116638 -0.00380424 0.03319845
v -0.01263987 0.04154498 -0.02406778
v -0.04946328 -0.01434823 -0.00943866
v 0.03295122 0.00858427 0.04097404
v -0.03773055 0.03242155 0.01284425
v 0.02989249 0.00371031 0.04317471
v 0.04277334 0.01892810 -0.00240939
v -0.05847720 0.00604678 0.02441877
v 0.04146806 0.00666241 0.04852582
v -0.02024683 0.04307999 -0.01539029
v 0.00792706 -0.03711036 0.00328631
v 0.03566245 0.00207853 0.05359247
v -0.00722900 -0.02811656 0.05420147
v 0.02460132 -0.01490639 0.03401392
v 0.04777006 0.02417418 -0.00390595
v 0.00752037 0.03913333 -0.00280605
v 0.02748889 -0.01137697 0.03383270
v -0.03463887 0.02325173 0.02577986
v 0.04971507 -0.01247602 0.02675131
v 0.04978556 -0.03067425 0.00611895
v 0.00573241 -0.03336877 -0.01701904
v 0.01501173 0.03355817 -0.00288399
v -0.02597612 0.04029617 -0.01974104
v 0.02599589 0.00479161 -0.01562965
v 0.03088856 0.02813737 -0.00317155
v 0.05238563 -0.03175515 0.00487614
v -0.05372617 0.01157074 0.02355204
v 0.01737375 -0.03398299 -0.01498018
v 0.00022108 -0.03639566 0.00672333
v -0.00947314 -0.02641505 0.05855788
v -0.00004276 0.01359204 -0.04918978
v 0.03840518 0.02101515 0.00091870
v -0.05581761 0.00464771 0.02599341
v 0.01865510 -0.03389457 -0.00863835
v 0.02240611 0.02239603 -0.01929366
v 0.02380841 -0.02551522 -0.02855648
v 0.03645770 0.01908853 0.00150122
v 0.02607723 0.01629025 0.00327547
v 0.03490698 0.03256854 0.00055849
v -0.02329471 0.02527483 0.02952399
v -0.03059172 0.01346827 0.03295168
v 0.02356749 0.01656682 0.00417233
v 0.01386428 0.03057811 0.00645994
v -0.00073964 0.02484866 -0.04437233
v 0.00796918 0.02494484 -0.03943909
v 0.03377751 0.01671415 -0.00154080
v 0.02846981 -0.01273402 -0.02928967
v 0.02311584 -0.03121745 -0.00661325
v 0.02900450 -0.02167823 -0.00901115
v -0.04642797 0.02664756 -0.00365169
v -0.00595488 -0.04181037 -0.00373776
v -0.05239351 0.01294765 -0.01230663
v -0.00309339 0.03587261 -0.03402869
v 0.05261652 -0.00569640 0.02682952
v 0.01274734 -0.01810853 0.03869427
v -0.02254837 0.01899392 0.03345396
v 0.03746501 0.02099519 0.00495353
v -0.04705003 0.00375099 0.02773661
v 0.01036927 0.02996072 -0.03181818
v 0.04445049 0.03398178 -0.00346337
v -0.05081116 0.00105032 0.02639677
v 0.04797080 0.03115625 -0.00329648
v -0.05011095 -0.00203158 0.01333808
v 0.01651783 -0.02036804 0.04320328
v 0.02904246 0.01724909 0.00395775
v 0.00122256 0.03671218 -0.03010484
v -0.04405831 -0.02143932 -0.00118529
v 0.00143946 -0.03562563 -0.01159421
v -0.01947928 0.01077604 0.03733851
v 0.00921905 0.03554738 -0.02351794
v 0.01132204 0.03494546 0.00350045
v -0.02550251 0.01137614 0.03548675
v 0.03831706 0.03362988 0.00265282
v 0.02347956 -0.00348783 -0.03924159
v 0.05902273 -0.02226762 -0.01030818
v -0.01052410 0.00321312 0.04051419
v 0.02940219 0.00403570 -0.01132603
v 0.02742958 -0.01872382 -0.02990343
v 0.04380252 -0.02472201 0.00634242
v -0.04675110 -0.00365289 0.01795474
v -0.05006080 0.00488484 0.02774194
v -0.01921480 -0.00311389 -0.05735113
v -0.01472568 -0.00508798 0.04136935
v 0.00010522 -0.03499575 0.01611081
v 0.02865695 -0.00100506 0.03791533
v 0.03777614 -0.02677936 -0.00189080
v 0.05495070 -0.02263149 0.00619111
v -0.05140658 0.01775904 -0.00090142
v -0.04618701 -0.01937304 -0.00900791
v 0.00501303 -0.00987102 0.03969510
v 0.01253837 -0.00742387 0.03993922
v -0.03130006 0.03126048 0.02112831
v 0.02992773 -0.00634427 0.03846307
v -0.04558891 -0.00205863 0.02251751
v 0.04053112 -0.01246164 0.03727159
v 0.04577676 -0.01083990 0.03595010
v 0.00255137 -0.03215185 0.02438568
v 0.02863828 -0.02264728 -0.00145142
v 0.00315073 -0.02758896 0.03102692
v 0.00415162 -0.02000964 0.04382873
v -0.00311405 -0.01918411 0.04453629
v 0.02079555 0.02444450 -0.01066463
v 0.03095053 -0.00758631 0.04137693
v 0.03831230 -0.01230667 0.04337511
v 0.01114796 -0.02747055 0.02625908
v 0.04466485 0.03423025 0.00077056
v 0.02780565 0.01785204 0.01102495
v -0.02765173 0.02791120 0.02626691
v 0.00307565 -0.01851300 0.03674855
v -0.01987013 -0.03339766 -0.00349720
v 0.04130115 -0.02411895 0.01503938
v 0.02207745 -0.00904199 -0.04023110
v 0.01850237 0.01871853 0.00637572
v 0.02836391 -0.01489236 -0.01902066
v -0.01416911 0.02569982 0.02995920
v 0.02122483 0.01585628 0.01116036
v 0.01110791 -0.01976029 0.05283691
v 0.04288712 0.03247687 0.00537728
v -0.00618552 0.03988101 0.01139163
v -0.01401916 0.01631934 0.03595647
v 0.03188006 -0.00976751 -0.01863516
v 0.02202587 0.01654212 -0.00103955
v -0.01127080 -0.01442838 -0.04736752
v -0.01931977 -0.01048461 -0.04658532
v -0.04698436 -0.01624368 0.00336018
v -0.05423435 -0.00010606 0.02234745
v 0.03349244 0.02038029 0.01782914
v 0.03856725 0.02850732 0.00669707
v -0.00131544 0.04261898 -0.00242931
v -0.02211280 -0.02920212 0.00839907
v -0.01175185 0.04399670 -0.00026278
v -0.01551572 -0.03051791 0.00558845
v -0.02027391 0.00059899 0.03961098
v -0.03388158 -0.02103854 0.02302033
v -0.00470460 0.03593237 0.01721656
v 0.02015782 0.00990135 0.02470611
v 0.04949977 0.02392695 0.00882219
v 0.03282261 -0.01186164 -0.01675620
v 0.04312401 0.02491337 0.00973169
v 0.02722311 -0.00492233 0.05125751
v 0.02794980 -0.00662733 -0.03311605
v -0.02784689 -0.02277100 0.02577595
v 0.01750696 0.01381584 0.01817309
v -0.00714656 -0.02684575 0.06087910
v 0.04772118 -0.01974552 0.01924126
v -0.02046467 -0.02445519 0.02858907
v -0.01226119 -0.03433196 0.00252587
v -0.04316702 0.01381686 -0.03216160
v -0.04041439 0.01282291 -0.03580414
v 0.03761970 0.02232118 0.01356995
v 0.04309689 -0.01213646 0.04354948
v -0.00331860 -0.02555536 0.06181966
v -0.02456611 0.00741212 -0.06156862
v -0.05486123 0.00325452 -0.00980095
v 0.01006436 0.02046066 0.02384506
v 0.01861980 0.02614739 -0.00237229
v 0.04070270 -0.02180085 0.02290882
v -0.01054597 0.03509866 0.02032269
v 0.03502239 -0.01166785 -0.01526788
v 0.05420429 -0.02363120 -0.00859102
v 0.02358671 0.01548336 0.01689202
v 0.02013282 0.01828434 0.00351784
v -0.03073908 0.01157963 -0.05660481
v 0.02953807 -0.00656273 0.04232619
v 0.02466013 -0.02689907 -0.00307649
v -0.00872762 -0.02478632 0.03498019
v 0.05017608 -0.00312864 0.03552975
v -0.02370942 0.04166250 0.00599753
v 0.03444362 -0.01892165 -0.01371944
v -0.05535719 0.00181274 -0.00366110
v -0.04306977 0.01170495 -0.05643225
v -0.04303927 -0.01992168 0.00873361
v 0.00004154 0.02249628 0.02932402
v 0.02838694 -0.00126079 0.04702812
v -0.05834431 0.01048212 -0.00755516
v 0.04357766 -0.01857821 0.02696505
v 0.04681375 -0.02210338 -0.02635741
v -0.01016354 0.04280274 0.00512441
v 0.02219543 0.00492215 0.03179489
v -0.04209605 0.03237486 -0.00261490
v 0.00271272 0.00138606 -0.05007480
v -0.04302041 0.01426486 -0.05298054
v -0.03584950 0.00782977 0.03088861
v -0.04612988 -0.01239949 0.01247078
v 0.00568320 -0.00528522 -0.04900000
v -0.03057253 -0.01448566 -0.03887955
v -0.06347014 0.01570114 -0.00233730
v 0.03728223 -0.02162203 -0.01287250
v -0.00760890 0.02111850 0.03260705
v 0.04976494 -0.01757429 -0.02783368
v -0.01822027 0.01015177 -0.05345847
v 0.05775363 0.00522375 0.00867010
v 0.05526454 0.01184180 0.00400512
v 0.02138932 -0.03005889 0.00422239
v -0.06143887 0.01786872 0.00181582
v 0.01507680 0.00813798 0.02588628
v -0.01157586 0.00225921 -0.05083320
v 0.01413234 -0.00692525 -0.04575295
v -0.00751344 -0.00052733 -0.05075170
v -0.00392895 0.00069109 -0.05092942
v 0.00612697 0.01070009 0.03365612
v -0.01688727 0.04212679 0.00776766
v 0.01297143 -0.03533609 0.00734190
v 0.03261901 -0.01413481 0.03349062
v 0.01334662 -0.01330758 -0.04503737
v -0.05558973 0.01788050 0.00325170
v 0.02259181 -0.02619312 0.00798378
v -0.02182064 0.03997306 0.01226384
v 0.03720142 -0.01382777 0.03376899
v -0.00298038 -0.01914269 0.03874946
v 0.01952579 -0.00827004 -0.04245535
v -0.00646215 -0.02705455 -0.03594684
v -0.01019065 0.02956633 0.02602223
v -0.01177282 -0.02870503 -0.02965925
v -0.00699825 -0.02362216 0.04506806
v 0.01905128 -0.00340826 0.03662938
v -0.03589367 0.01528113 -0.05054454
v 0.03248447 -0.02335416 -0.00710503
v 0.05422877 -0.01338065 -0.02527756
v 0.05283646 0.01531557 0.01700597
v -0.00493028 0.00114506 0.04060054
v -0.02003194 -0.02899228 -0.02344660
v -0.03024618 -0.00162930 -0.05222444
v -0.01350537 0.03951865 0.01414465
v 0.04801817 -0.01331333 -0.02488204
v 0.01754785 -0.03207494 0.01145282
v 0.00762028 0.01573042 0.03019803
v 0.03246936 0.00518819 0.04690460
v 0.02598781 -0.00872724 -0.03639149
v 0.04468472 -0.01613502 -0.02518089
v -0.01529723 -0.03049884 -0.01805064
v 0.04832880 0.00612579 0.03803555
v -0.01481198 0.01148898 -0.04953601
v 0.02540353 -0.01154347 0.03590662
v -0.02134759 0.02511945 -0.04398888
v -0.00152543 0.03061630 0.02243351
v 0.05630658 -0.01760752 -0.02453963
v -0.06217828 0.01584796 0.01050847
v -0.02710224 -0.03111470 -0.01139695
v 0.01227016 0.00307119 0.03030577
v -0.00911544 -0.03057211 -0.01649900
v 0.00823510 -0.03494603 0.01416224
v 0.00710935 0.00440410 0.03553950
v -0.01341817 0.00816289 0.03914919
v -0.01505258 0.03222368 0.02399288
v 0.02676952 -0.01428688 -0.03383399
v 0.04316488 -0.01828890 -0.01682680
v -0.01949705 0.03021082 0.02610009
v -0.01377183 0.02636896 -0.04471251
v 0.03458428 -0.00995506 0.03888820
v -0.01691605 0.03071921 -0.04088618
v 0.04808314 -0.00655513 0.04797517
v -0.00452641 0.02727526 0.02679017
v -0.02474755 0.02780887 -0.04039568
v -0.01994952 0.00706310 -0.06016091
v 0.01696031 0.00104609 0.03054809
v -0.01437787 -0.03307881 -0.01233654
v -0.02316451 0.03255959 -0.03650605
v 0.01294952 -0.03081469 0.01974360
v 0.04736314 -0.00011066 0.04919851
v -0.01707781 0.00802445 -0.05720371
v -0.02489492 -0.01328695 -0.04310571
v 0.02699673 -0.00606865 0.03752664
v 0.02065183 -0.02464941 -0.03336167
v 0.01768758 -0.02284285 0.02066172
v -0.01246687 -0.03639422 -0.00702564
v 0.05880629 -0.01758165 -0.02237633
v 0.02855445 -0.00722796 -0.02468544
v -0.00538020 -0.03624722 -0.01037638
v 0.04597183 0.02370365 0.01887140
v 0.02011981 -0.03031272 -0.02513506
v -0.01795482 0.03369764 -0.03742404
v -0.05585333 0.01712328 0.00972957
v 0.05494607 -0.02381582 -0.01391492
v 0.02453752 -0.00927400 0.03813358
v -0.00404889 0.00754496 -0.05089652
v 0.04710356 -0.00522359 0.05093649
v 0.00275146 -0.00505662 0.03934672
v -0.00961313 -0.00393219 0.04166024
v 0.04356086 -0.02452513 -0.02029383
v -0.04920732 0.01604775 0.01306049
v -0.01096355 -0.02477715 -0.03908413
v 0.02173980 -0.01831334 0.03931198
v -0.04895979 0.01426452 0.01713790
v -0.01503119 0.03863085 -0.03074346
v -0.01455470 -0.03526167 -0.00134842
v 0.00437137 0.02641024 0.02351528
v -0.05660497 0.00360983 0.00209704
v -0.00698038 0.03727430 -0.03296600
v -0.00564367 -0.04140029 0.00149136
v -0.04467845 0.01527251 0.01869157
v -0.02002327 0.03971464 -0.02636286
v 0.00349653 -0.01404195 0.04248932
v 0.00806304 0.00990474 -0.04693898
v 0.01484326 -0.01765593 0.02656836
v 0.00097377 0.01872316 -0.04705675
v -0.02366074 -0.02688674 -0.02849529
v -0.00024914 -0.01432405 0.03999227
v 0.00854864 0.01510185 -0.04508265
v 0.01990349 -0.01729290 0.02592643
v 0.04016967 -0.02904372 -0.00293076
v -0.04123359 0.01522463 0.02384346
v -0.00495940 -0.03780769 0.00583541
v -0.01314001 0.03675576 -0.03416101
v 0.01874754 -0.01063296 0.04728625
v 0.02222261 -0.01543395 0.03135424
v -0.00974174 0.03326908 -0.03889320
v -0.03071396 0.03529596 -0.02605793
v -0.04717854 0.00872829 0.02634477
v 0.00474178 -0.01348407 0.05177323
v 0.04068631 0.00045734 0.05457905
v 0.01343976 -0.01148727 0.05051169
v 0.04956164 0.01089672 0.02994844
v 0.04561471 0.01962252 0.02618999
v -0.01011839 -0.03068726 0.00872297
v -0.04329841 0.00986705 0.02334112
v -0.04581121 0.00053370 0.02622679
v -0.04094172 0.00736511 0.02583526
v -0.06604007 0.00982374 0.00466787
v 0.04507733 -0.01906142 -0.02692118
v -0.03536346 -0.02514866 0.01135000
v -0.00374674 0.03110156 -0.04016743
v 0.00922146 -0.01196435 0.05117161
v 0.03604191 -0.00405646 -0.01494402
v -0.06901502 0.01472533 0.00338037
v -0.03755931 0.01558685 0.02754336
v -0.06595264 0.00952212 0.00960409
v 0.03998470 0.01686711 0.03388410
v -0.06634524 0.01672966 0.00598561
v -0.03076342 0.01897928 0.03084856
v -0.05878647 0.00278722 0.00795831
v 0.03179610 0.01429231 0.03112738
v -0.04136499 -0.00078285 0.02536737
v -0.00745256 0.04013703 -0.02736580
v 0.00583805 -0.01104304 0.04454201
v 0.04773624 -0.02452018 -0.01502421
v 0.04182296 -0.01065257 0.04831152
v 0.01638643 -0.00755256 0.04573608
v 0.00289916 0.03076722 -0.03741502
v -0.02583165 -0.03013156 -0.01678423
v -0.01891171 0.04403339 -0.00692378
v 0.03289489 0.01108107 0.03561620
v 0.06169332 -0.01343983 -0.01679503
v -0.05568187 0.01311174 0.01987640
v 0.05903388 -0.00639598 -0.01560460
v 0.02900753 -0.01033894 -0.02144956
v 0.04016632 -0.02517255 -0.01046107
v 0.03419707 -0.00399341 0.05575908
v -0.06078477 0.01001561 0.02166591
v 0.04297628 0.01177262 0.03950518
v 0.00282670 -0.02249024 0.05886874
v 0.02264036 -0.01022655 0.04267124
v -0.04685574 0.01200762 0.02074059
v 0.03049090 -0.00455918 0.05537071
v 0.02009598 -0.00505778 0.04203799
v 0.03146990 0.00038414 0.05297351
v -0.03391166 -0.02784010 -0.01513778
v 0.03404760 -0.01303793 0.04651446
v -0.03468028 0.03635107 -0.01809038
v -0.01783081 -0.03279245 -0.01187241
v -0.02903745 0.04058430 -0.01334890
v -0.04036068 0.01480907 -0.05254447
v -0.03276952 0.01522807 -0.04903596
v -0.05153430 0.00898823 0.02656145
v 0.01040806 -0.00877891 0.04409146
v 0.03823443 0.01296354 0.03847536
v -0.04074034 0.01454607 -0.04779407
v -0.04247541 0.00399856 0.02571394
v 0.03179498 0.00120527 -0.01326830
v 0.06214735 -0.01839437 -0.00911369
v -0.03443176 -0.02813357 -0.00947442
v 0.04025737 0.00933902 0.04485726
v 0.02836647 -0.01234589 0.04891514
v -0.03565515 0.01189267 0.03018972
v -0.04365861 0.01318860 -0.04761291
v 0.04348930 -0.01401280 0.03184226
v -0.04502676 0.01033688 -0.04516255
v -0.02960823 0.00554898 0.03512589
v 0.06011083 -0.01710918 -0.00520683
v -0.04492950 0.01048964 -0.04166606
v -0.03864393 0.00321169 -0.04241035
v -0.04993607 0.01878428 -0.00727251
v 0.02804059 0.00784947 -0.00833130
v -0.03545829 0.01017987 -0.05814868
v 0.02391674 -0.00420879 0.03719951
v -0.04151525 0.01396824 -0.04096603
v 0.02472705 0.01179727 -0.00530477
v -0.03662408 0.01532028 -0.03895937
v 0.03682697 0.01266321 -0.00790135
v -0.04454678 0.00995931 -0.03859955
v -0.06393273 0.01286393 -0.00274808
v -0.06601259 0.01378363 -0.00226119
v 0.04758734 -0.00810409 0.04261172
v -0.05989166 0.00994940 -0.00548278
v 0.02745895 0.01422424 -0.00207959
v -0.06836774 0.01486041 -0.00128704
v -0.03465665 0.02676069 -0.03329803
v -0.02305468 0.04288218 -0.00035658
v 0.05998254 -0.00864836 -0.00569590
v 0.00161617 -0.01865218 0.05801635
v -0.02788266 0.04104285 0.00333953
v -0.02648672 0.00403160 -0.06234475
v -0.03365544 0.03583343 0.01189049
v -0.02845058 0.03894403 0.01014005
v -0.02898982 0.01562122 -0.04451372
v 0.05311128 -0.01962779 -0.02583601
v 0.05847434 -0.00089494 -0.00219872
v -0.02081508 0.03664776 0.01865146
v 0.04938667 -0.00748776 -0.02210094
v -0.02707625 0.03598255 0.01712380
v -0.01705684 0.03501615 0.02096828
v 0.05691579 -0.01574872 0.00608995
v 0.05751442 -0.00804269 0.00668751
v 0.05727907 -0.00430865 0.00766692
v 0.04947743 -0.02216605 0.00864165
v -0.06404290 0.00909810 0.01287388
v 0.05186945 -0.01778045 0.01373825
vn -0.25044113 -0.88826152 -0.38505935
vn -0.38806542 -0.91618146 0.10008381
vn -0.03183059 -0.09479036 0.99498824
vn -0.26177032 -0.96478194 0.02592487
vn -0.30189456 -0.95202800 0.05002367
vn -0.58290087 -0.80560568 -0.10595309
vn -0.39967138 -0.85123014 0.34010297
vn -0.24814635 0.96869789 -0.00691283
vn 0.67831647 0.23502277 -0.69616885
vn -0.44571193 -0.62505057 0.64082186
vn 0.13131731 -0.63123347 0.76439523
vn -0.20829697 -0.95122862 0.22754448
vn -0.10315608 -0.97945870 0.17326133
vn -0.45943560 -0.55488355 0.69355834
vn 0.52938903 -0.75318827 0.39045446
vn -0.32231545 -0.72106548 0.61333296
vn -0.51681195 -0.84161634 0.15680351
vn -0.25908541 -0.95415908 0.14985057
vn -0.10579524 0.99412745 0.02275915
vn 0.30341439 -0.95156141 -0.04970501
vn -0.45612589 -0.03478530 0.88923515
vn -0.25621717 -0.94891402 0.18416010
vn 0.26055776 -0.83059919 -0.49215307
vn -0.21103230 -0.93881169 0.27220945
vn 0.30410509 -0.95165400 -0.04329858
vn 0.09877843 -0.94767769 -0.30356188
vn -0.33450905 0.85788398 -0.39004970
vn -0.30338682 -0.94211546 0.14274067
vn -0.46053423 -0.87267318 0.16232605
vn -0.20289400 0.80865011 0.55219473
vn -0.02639789 -0.99934276 -0.02484355
vn -0.61753558 -0.70438810 0.34998175
vn -0.25541029 -0.93321886 0.25272148
vn -0.02884637 0.57960737 -0.81438515
vn -0.38515336 -0.88309807 0.26794530
vn 0.59493980 -0.75876467 0.26518447
vn -0.40615302 -0.84412880 0.34998043
vn -0.60324465 0.43301755 -0.66976988
vn -0.36072433 -0.61956933 -0.69714547
vn -0.48107229 0.46183897 -0.74516724
vn -0.25415349 -0.83853716 -0.48193509
vn -0.59604054 0.46536883 -0.65434511
vn -0.74934052 -0.45481592 0.48128086
vn 0.26462380 -0.88750846 -0.37723067
vn -0.66601579 -0.74572233 0.01792145
vn 0.07888900 -0.95322275 -0.29179260
vn -0.42756641 -0.73364031 -0.52816556
vn -0.51685693 -0.34519621 0.78338910
vn 0.48707212 -0.85415438 0.18215664
vn -0.56657804 -0.52060897 0.63871405
vn -0.42652258 -0.83131258 -0.35636763
vn -0.71930096 -0.31389689 0.61973775
vn -0.72451336 -0.14935691 0.67288402
vn -0.65825091 -0.26504025 0.70459876
vn -0.26115769 -0.16415864 0.95123530
vn -0.97349659 -0.19512096 -0.11929876
vn -0.85569532 -0.25637421 -0.44950838
vn -0.20578414 -0.39965634 0.89326799
vn -0.03327012 -0.36694310 0.92964824
vn -0.34978022 -0.64576726 -0.67870350
vn 0.13486557 -0.97250877 0.18983671
vn -0.92777362 -0.30184778 -0.21937189
vn -0.55957115 -0.17610150 0.80985702
vn 0.59344728 -0.67750389 0.43452135
vn -0.36969687 -0.82526565 0.42692017
vn -0.61812997 -0.04828569 0.78459150
vn 0.35653892 -0.85301099 0.38111972
vn -0.02278299 -0.96909935 0.24561633
vn 0.69190636 -0.24596387 -0.67879847
vn 0.93182793 -0.22374369 -0.28571921
vn -0.37192832 -0.24012150 -0.89666660
vn -0.34224199 0.93940054 -0.01992582
vn 0.29083260 0.17913087 -0.93985559
vn 0.03878816 0.68322438 -0.72917757
vn 0.35287283 0.89567440 -0.27064391
vn -0.53851795 -0.57336287 -0.61745723
vn -0.39905874 -0.53024698 0.74805765
vn -0.05703030 0.41623501 -0.90746678
vn -0.11654165 0.32432858 -0.93873799
vn 0.06082088 -0.35046688 -0.93459819
vn -0.17468369 -0.94644218 -0.27153786
vn 0.06912791 -0.64178422 -0.76376328
vn -0.69954751 0.49238954 -0.51786660
vn -0.62790158 0.28020202 -0.72610359
vn -0.27331510 0.38309610 -0.88234700
vn -0.94208190 -0.31178405 0.12358153
vn -0.77467689 0.41237725 -0.47939620
vn 0.00677193 -0.94742359 0.31991042
vn 0.19135319 0.88424781 -0.42601617
vn -0.53863413 -0.59541164 -0.59611933
vn 0.06221441 -0.15766749 -0.98553048
vn 0.24370872 0.46381343 0.85175299
vn 0.15742609 -0.12990984 -0.97894865
vn 0.03795893 -0.40780139 -0.91228129
vn 0.80353796 0.58734604 -0.09670255
vn -0.88985518 -0.02407301 -0.45560756
vn 0.16518711 0.00578425 0.98624528
vn 0.52410262 0.02155632 -0.85138227
vn 0.95659206 -0.10466611 0.27198647
vn -0.48055171 0.87501342 0.05849410
vn 0.03553194 -0.90778503 -0.41792800
vn -0.46988635 0.67717776 -0.56624827
vn 0.08319337 -0.30120311 0.94992397
vn 0.16997968 -0.34446112 -0.92328405
vn 0.53353850 -0.74745213 -0.39579286
vn 0.00911063 -0.85057585 -0.52577346
vn -0.49118390 0.01732100 -0.87088367
vn 0.24188888 0.57172192 -0.78397947
vn 0.77845804 0.44359914 -0.44409783
vn 0.37504096 0.55953577 -0.73909675
vn -0.06488894 -0.23472674 -0.96989318
vn -0.59170783 0.74169756 -0.31585847
vn 0.19863531 -0.30285612 -0.93210632
vn -0.34088937 0.82897940 -0.44338199
vn -0.58893484 -0.62709659 -0.50980941
vn 0.56898975 0.31800750 -0.75836791
vn -0.65884064 -0.61718716 -0.43012676
vn -0.61270020 0.62666230 -0.48155251
vn -0.62017997 0.65679010 -0.42895636
vn -0.04744655 -0.96261898 -0.26667118
vn 0.73647603 -0.46013882 -0.49585817
vn -0.04186293 -0.89126265 -0.45155110
vn 0.19203474 -0.55828007 -0.80712206
vn 0.08107930 -0.62941920 -0.77282445
vn -0.79517482 0.48540166 -0.36343119
vn 0.09421867 -0.67387232 -0.73281576
vn 0.77949242 0.49271047 -0.38681773
vn 0.57725737 0.47676738 -0.66292292
vn -0.14350361 -0.81806716 -0.55693162
vn -0.70054466 0.65118664 -0.29187864
vn -0.14398961 -0.95069127 -0.27468727
vn -0.58882686 -0.78935861 -0.17376972
vn -0.01177420 -0.64519969 -0.76392325
vn -0.22909601 -0.62263320 -0.74822652
vn -0.88117044 0.27705462 -0.38311799
vn -0.79198264 0.54378847 -0.27759251
vn -0.24890349 0.95044113 -0.18630271
vn -0.02137346 -0.99030987 -0.13722076
vn 0.13099136 0.69009164 -0.71176878
vn 0.56711946 -0.82292804 0.03413143
vn -0.18045262 -0.91705657 0.35558978
vn 0.28996966 0.14686113 -0.94570048
vn -0.30177062 -0.90748388 -0.29224562
vn 0.89834801 0.37708772 -0.22533463
vn 0.26507901 0.54010255 -0.79876302
vn 0.31211510 -0.86641020 -0.38976600
vn -0.46332423 0.87049277 0.16605117
vn 0.73132240 0.45653098 -0.50670210
vn 0.90316041 0.18181726 -0.38890071
vn 0.06540038 -0.82637380 -0.55931131
vn -0.05639713 -0.95643490 -0.28644657
vn 0.25516406 -0.78508947 -0.56438092
vn -0.03798007 0.95008117 -0.30968257
vn 0.95001990 0.27267679 -0.15201828
vn -0.06986435 -0.94219101 -0.32771187
vn 0.88767761 -0.40704922 -0.21526587
vn 0.41004781 0.08265048 -0.90831145
vn 0.59424762 0.78917106 0.15517348
vn 0.85201720 0.42294599 -0.30851804
vn -0.21006472 -0.95479129 0.21034828
vn -0.73235243 0.33810833 -0.59105218
vn -0.67749159 0.72074640 -0.14673024
vn 0.42020969 0.48352635 -0.76787114
vn 0.34995755 0.38705493 0.85306400
vn 0.09413594 -0.88278920 0.46024086
vn 0.36718013 -0.36077215 0.85733436
vn -0.24200411 -0.62128264 0.74527974
vn -0.59088082 0.80563680 0.04253467
vn -0.30609438 0.86083859 -0.40652571
vn 0.45053279 0.49182537 -0.74506913
vn -0.73099493 0.65105876 -0.20437443
vn 0.23900445 0.93565639 0.25966130
vn -0.27963040 0.30639266 -0.90990680
vn 0.70887020 -0.61418414 -0.34681533
vn -0.73971508 -0.57655819 0.34699028
vn -0.52044245 0.84904516 -0.09089539
vn 0.70028132 0.30712647 -0.64442176
vn -0.69240854 -0.71151676 -0.11964242
vn -0.47905736 -0.08718954 -0.87344263
vn 0.46395616 -0.55459777 0.69077203
vn -0.77284289 -0.27895351 -0.56999895
vn -0.03749766 0.55159548 0.83326847
vn 0.90517102 -0.41775367 0.07840475
vn 0.29861928 0.07625062 -0.95132138
vn -0.38181580 -0.90298015 0.19708764
vn -0.07278947 -0.56259203 -0.82352407
vn -0.51295668 0.84000764 0.17681234
vn 0.46909913 0.75146671 -0.46394374
vn 0.40939941 0.87640745 0.25357860
vn -0.15415997 -0.90428307 -0.39812917
vn -0.67765533 0.71216747 0.18330507
vn 0.43325447 -0.66843972 -0.60454852
vn 0.01947288 0.99975041 -0.01095103
vn -0.78195771 -0.60340384 -0.15635200
vn -0.61096844 0.63181486 0.47699848
vn -0.15428250 -0.86364013 0.47991940
vn -0.67107884 -0.74137984 -0.00301958
vn 0.66170496 0.46515923 -0.58802503
vn 0.70497984 0.57536173 -0.41468337
vn -0.01522052 -0.79218686 -0.61008877
vn 0.54536969 0.31894088 -0.77514426
vn 0.10677918 0.97213131 -0.20870777
vn -0.81125738 0.07209744 0.58022705
vn 0.20689685 -0.96060786 -0.18554306
vn -0.42177301 -0.08587836 -0.90262530
vn -0.54491527 -0.83752064 0.04033029
vn -0.50020317 -0.67825776 -0.53829657
vn -0.63559222 -0.22229590 0.73932880
vn 0.10442519 -0.86942313 -0.48290662
vn -0.05712916 0.78723601 -0.61399978
vn 0.27407028 -0.92393042 -0.26690458
vn 0.93702057 0.33776957 0.08890541
vn 0.04279228 0.25026148 -0.96723214
vn 0.28824712 -0.92200907 -0.25848186
vn -0.81989292 -0.13382619 -0.55665623
vn -0.90476747 -0.41671348 0.08800965
vn 0.95329799 0.29402762 -0.06907028
vn -0.01738537 -0.97715084 -0.21183481
vn 0.79498065 -0.57845534 -0.18274351
vn 0.05893825 0.39663226 -0.91608358
vn 0.74924677 0.61409022 -0.24803726
vn -0.83679460 0.53552221 0.11397700
vn 0.44442218 0.78806666 0.42595758
vn 0.32675974 0.83030675 0.45146293
vn -0.84057296 0.45998491 0.28609609
vn -0.26220212 0.94063922 0.21551775
vn 0.07131664 0.54853850 -0.83307830
vn -0.10224012 -0.85480206 0.50878325
vn -0.56130618 -0.31354787 0.76591325
vn -0.61131784 0.76736311 0.19350543
vn -0.65899561 0.71167844 0.24338977
vn -0.91356846 -0.37729365 0.15179647
vn -0.91470360 -0.01855348 -0.40369925
vn 0.58426107 0.71620758 0.38168798
vn -0.97297397 -0.03130116 0.22878350
vn 0.90404780 -0.39298429 -0.16810984
vn -0.21495536 -0.94075704 -0.26224108
vn 0.59197391 0.16917315 -0.78800212
vn -0.90683379 -0.00314545 0.42147667
vn -0.88053043 -0.20506556 -0.42733391
vn 0.46275605 -0.85677000 -0.22760054
vn 0.58877877 0.63251445 0.50325444
vn -0.98591373 -0.00588575 -0.16715107
vn -0.89670391 0.36701723 -0.24742765
vn -0.65187067 -0.56402933 -0.50688811
vn -0.94101542 -0.30243012 0.15174320
vn 0.88658563 -0.46254542 -0.00420248
vn -0.64755195 -0.33185514 -0.68596547
vn 0.04546275 -0.85427114 0.51783584
vn -0.60364961 -0.27457068 -0.74847718
vn 0.94137821 -0.29833008 0.15749991
vn 0.07446664 -0.78643587 0.61316665
vn -0.35451073 -0.39959112 0.84536920
vn 0.72114577 0.51085460 0.46794910
vn 0.89048322 0.45164447 0.05528936
vn 0.22993674 0.95264945 -0.19896763
vn -0.01758527 0.98676825 -0.16118058
vn 0.38365183 0.72621830 0.57045443
vn 0.18736773 -0.97598093 -0.11115108
vn -0.41514508 -0.17881244 0.89200935
vn 0.58771482 -0.80183546 -0.10794063
vn 0.46985248 -0.87828240 0.08864916
vn 0.31622782 -0.14135977 -0.93809242
vn 0.27332231 -0.95110860 0.14383099
vn 0.30630796 0.94559558 -0.10965600
vn -0.54817667 0.74476935 0.38055348
vn -0.75825381 0.51885417 0.39476766
vn 0.50335721 0.84460373 -0.18241728
vn 0.11553370 -0.99217317 -0.04737477
vn -0.77005129 0.54514492 0.33141820
vn 0.63294608 0.59080332 -0.50033059
vn 0.60742524 0.79352363 -0.03680804
vn -0.56931006 -0.51026584 -0.64460440
vn 0.04993492 0.51038367 -0.85849578
vn -0.20039896 0.94336248 0.26440024
vn 0.82351458 -0.51977860 -0.22727503
vn 0.37389878 -0.91023871 -0.17794714
vn -0.42987140 0.80916055 0.40058680
vn 0.37462724 -0.58077817 -0.72273864
vn -0.16859414 0.48660917 -0.85719749
vn 0.02437566 -0.99935106 0.02651970
vn 0.16805320 0.98547941 -0.02425813
vn 0.50373205 -0.25190088 -0.82631711
vn -0.49466648 -0.85750187 0.14140587
vn -0.73902455 0.47575233 0.47697216
vn -0.67166210 0.53400202 -0.51352883
vn -0.48906867 0.82199283 0.29178693
vn -0.84657581 0.52256879 -0.10114966
vn -0.21225513 -0.17881785 -0.96071428
vn -0.55782189 0.62725924 0.54348927
vn -0.77935046 0.62207736 -0.07505079
vn -0.75923624 -0.44791181 -0.47216029
vn -0.08832172 0.88891822 0.44947043
vn 0.39346981 0.91925961 -0.01196980
vn -0.64925633 0.75780712 -0.06476565
vn -0.53220535 0.64037500 0.55378455
vn 0.60462280 -0.32197143 -0.72853666
vn -0.76972291 -0.62427164 0.13345997
vn -0.13767956 -0.83894593 -0.52651121
vn 0.83240586 -0.54387092 -0.10632452
vn -0.68622539 -0.62729146 -0.36823924
vn 0.34411392 -0.57892205 -0.73921233
vn 0.03329160 -0.92899423 -0.36859381
vn 0.05787524 -0.99572378 -0.07200427
vn -0.75265551 -0.48451262 -0.44582194
vn -0.12460195 -0.91817834 -0.37606234
vn 0.20831298 0.91224740 -0.35271855
vn -0.43203514 -0.80240352 0.41169676
vn -0.76004290 0.43344485 0.48421106
vn -0.45303207 -0.02763848 -0.89106569
vn -0.34808854 -0.92113588 0.17419257
vn -0.84467288 -0.48593022 -0.22449844
vn 0.19141144 0.35963617 0.91324886
vn 0.64249060 -0.44605694 -0.62308830
vn -0.25659624 -0.48737703 -0.83463885
vn -0.69736575 0.43564966 0.56911368
vn 0.35523032 0.22610312 0.90702194
vn -0.18730790 0.20654900 -0.96034018
vn -0.99781791 0.01210515 -0.06490671
vn 0.86634390 0.48591657 0.11547003
vn 0.35733428 0.47283012 0.80544639
vn -0.03713816 0.94800195 -0.31609027
vn -0.88972280 -0.45589777 0.02346387
vn -0.62152554 0.70223329 0.34723826
vn -0.58876681 0.70617070 0.39328944
vn -0.90909787 0.38674564 0.15481886
vn -0.28254841 0.30765675 -0.90857786
vn -0.61997606 -0.07859469 0.78067442
vn 0.33793794 0.75748639 0.55858064
vn -0.18929798 0.96524356 -0.18019753
vn 0.09965572 -0.99228346 0.07377173
vn -0.15071726 0.58115356 0.79971548
vn -0.29276566 -0.94968050 -0.11133378
vn 0.67207446 -0.72382053 0.15620422
vn 0.62387781 -0.12219821 -0.77190937
vn 0.46529687 0.87548032 0.13051066
vn 0.18078090 -0.58476966 0.79079878
vn -0.52093043 0.48805800 0.70030770
vn 0.78319060 -0.50049068 0.36894657
vn -0.08513750 -0.59223154 0.80125739
vn -0.28987094 -0.84789057 -0.44391036
vn 0.73628643 0.64829987 0.19388029
vn -0.34610980 0.89387099 -0.28496082
vn 0.88556432 0.40286943 -0.23124027
vn -0.94080070 -0.27995197 -0.19110454
vn 0.44263918 -0.69268184 0.56944044
vn -0.14613825 0.75028847 0.64475641
vn 0.33237978 -0.93182456 -0.14569376
vn 0.04891189 -0.97842460 0.20073099
vn -0.77174465 -0.37269990 0.51527175
vn 0.24264103 0.26063135 -0.93444991
vn -0.86402184 -0.17039000 -0.47374413
vn -0.47275661 -0.18085554 0.86243403
vn 0.43043550 -0.90203559 -0.03251262
vn 0.90749640 0.41966789 -0.01814242
vn 0.64960656 -0.61820562 -0.44253037
vn -0.45799209 0.80445685 -0.37827559
vn -0.01801926 0.97364756 -0.22734496
vn -0.56202588 0.70965288 0.42487611
vn -0.17077338 0.55970156 0.81090728
vn -0.42263309 0.26596462 0.86639719
vn 0.18595738 0.98197940 -0.03370906
vn 0.79590023 0.49803664 0.34424168
vn 0.26707152 0.53731982 -0.79997513
vn 0.49204872 0.57098420 -0.65716444
vn -0.28208461 0.82348373 -0.49224265
vn 0.98468726 -0.08916619 -0.14980118
vn 0.75360449 -0.64262767 0.13823874
vn 0.18289603 -0.87594965 -0.44638689
vn -0.85896632 0.50827259 -0.06193414
vn -0.21711604 -0.95027795 -0.22323181
vn -0.82821524 0.36670540 -0.42377667
vn 0.23009819 0.81003209 -0.53935409
vn 0.94998712 -0.17507595 0.25859791
vn -0.09777901 -0.89210501 -0.44112120
vn -0.19031300 0.44326626 0.87595433
vn -0.89249733 0.44654558 -0.06360473
vn 0.17758390 -0.07806559 0.98100445
vn 0.55958733 0.66913310 -0.48900195
vn 0.31587718 0.88180339 -0.35020622
vn -0.25728669 -0.58594350 0.76842291
vn 0.83112329 0.45994427 -0.31254656
vn -0.70008773 -0.69406669 0.16777545
vn 0.43427347 -0.88517398 0.16695379
vn -0.27994983 0.93079533 -0.23504922
vn 0.34135422 0.82848375 -0.44395042
vn -0.72394950 -0.68204082 0.10352510
vn -0.01783609 -0.85997731 -0.51002049
vn -0.19901300 0.29932398 0.93316611
vn 0.53048370 0.78261191 -0.32573861
vn 0.62435903 0.72453018 0.29194489
vn -0.30646283 0.26267448 0.91492221
vn -0.26449448 0.84603200 0.46289581
vn 0.70403318 0.06067253 -0.70757057
vn 0.60661273 -0.79358587 0.04735459
vn -0.01991205 0.22219167 0.97479966
vn 0.26995177 0.67099528 -0.69057322
vn 0.89417199 -0.31354473 -0.31960311
vn -0.14527742 -0.85558090 0.49686597
vn -0.79930441 -0.41934385 0.43042212
vn -0.32614406 0.00085176 0.94531969
vn 0.09441581 -0.85862072 -0.50384136
vn -0.18262586 0.03934516 0.98239491
vn -0.11798644 -0.96769270 0.22282290
vn -0.72766186 0.11657189 0.67595799
vn -0.61893225 -0.77394588 0.13390538
vn 0.70759546 -0.23636360 0.66591360
vn -0.50137624 0.86462264 -0.03239695
vn -0.81244383 -0.58192543 -0.03602513
vn -0.20995184 0.60543695 0.76770198
vn -0.26960651 0.92212849 0.27747322
vn -0.39459157 0.69452875 0.60160395
vn -0.70113157 -0.48122510 0.52615294
vn -0.46727361 -0.70952189 0.52747896
vn 0.03054773 -0.97834716 0.20470387
vn 0.63788868 -0.73204513 0.23918186
vn 0.14404619 -0.88653290 0.43967046
vn 0.35680687 -0.93105789 -0.07628930
vn 0.29457350 -0.67155165 0.67988590
vn -0.28499161 -0.43747514 -0.85287472
vn -0.27570899 0.34783406 -0.89610045
vn 0.91978451 0.37751255 0.10714819
vn -0.62945236 -0.71607197 -0.30171288
vn -0.02675860 -0.99914561 -0.03149648
vn 0.55431610 -0.56715873 0.60915075
vn 0.16932196 0.94737127 0.27169424
vn -0.33392503 0.94238069 -0.02031542
vn -0.29616365 0.62446808 0.72272174
vn 0.17589772 -0.68038750 0.71143014
vn -0.32280916 -0.93848684 0.12262424
vn 0.25570283 -0.94426113 0.20733301
vn 0.66800062 -0.11735297 -0.73484928
vn 0.73370563 0.64514112 0.21323455
vn 0.88999428 -0.34284036 -0.30061714
vn 0.02720745 0.60575017 0.79518959
vn 0.22233858 0.95238629 0.20862863
vn 0.71155170 -0.24640506 0.65801119
vn 0.25420744 0.72566421 0.63936690
vn 0.18867618 0.88491181 0.42583140
vn -0.02261507 0.44309318 0.89619027
vn 0.71069513 0.00838674 -0.70345014
vn 0.71782902 0.69467802 -0.04630280
vn -0.15019832 -0.41987759 -0.89506607
vn -0.29639645 -0.45074480 -0.84200847
vn -0.86046186 -0.47409925 0.18664214
vn -0.45488498 -0.83779547 0.30195762
vn -0.44235837 0.89173189 0.09556837
vn -0.54958988 0.31666235 0.77309503
vn 0.25760152 0.95960683 0.11312028
vn -0.08820311 -0.97581644 0.20000620
vn 0.02993250 0.99095321 0.13082729
vn -0.23724009 -0.90785041 0.34572356
vn -0.27553427 0.12239839 0.95346709
vn -0.55271875 -0.67015512 0.49537269
vn 0.23643274 0.79529121 0.55822168
vn -0.36727429 0.73387377 0.57143581
vn 0.66327777 0.73360641 0.14793321
vn 0.56189562 -0.45636063 -0.68993353
vn 0.00284944 0.86604630 0.49995568
vn -0.96139072 0.06412564 0.26761125
vn 0.95279770 0.01304468 -0.30332554
vn -0.39638961 -0.77014074 0.49975846
vn 0.39247430 0.72941791 0.56027978
vn -0.46069064 -0.37790560 0.80308872
vn 0.58843085 -0.75555124 0.28790879
vn -0.32516889 -0.82035245 0.47041158
vn -0.50873834 -0.68676833 0.51916718
vn -0.82138624 0.31511786 -0.47542126
vn -0.70898847 0.65115095 -0.27080950
vn -0.37730992 0.92606595 -0.00625123
vn 0.37971865 -0.90094369 0.21003387
vn 0.19658706 -0.04959484 0.97923127
vn 0.17194320 0.50414204 -0.84633111
vn -0.97122514 -0.13430978 -0.19667893
vn 0.64636678 0.49695661 0.57900269
vn 0.92298424 0.31257924 0.22448678
vn 0.23225603 -0.89213643 0.38749159
vn 0.13269646 0.77826374 0.61375664
vn 0.24353875 -0.13794206 -0.96003170
vn 0.31925248 -0.90596875 -0.27802603
vn -0.34472545 0.91096525 0.22650978
vn 0.62775544 0.76261353 0.15602471
vn 0.03105919 0.84868435 -0.52798693
vn -0.92575417 -0.25399447 -0.28011787
vn 0.78412251 -0.61976444 0.03230988
vn -0.13510261 -0.68253992 0.71825243
vn 0.95823160 -0.09231130 0.27068583
vn -0.20307229 0.95023383 0.23625686
vn -0.16767380 -0.50479887 -0.84679608
vn -0.88259931 -0.44054156 -0.16413895
vn -0.39182453 0.24438120 -0.88699006
vn -0.73923188 -0.62295388 0.25586068
vn 0.33780716 0.58294355 0.73896085
vn -0.96097202 0.27641325 -0.01133516
vn -0.67190550 -0.03832452 -0.73964467
vn 0.41665706 -0.73565656 0.53404712
vn -0.23629441 -0.67069418 -0.70308909
vn 0.08909745 0.95977406 0.26626188
vn -0.50368682 0.52304823 0.68754646
vn -0.73751932 0.67511580 0.01684968
vn 0.23769952 0.02540142 -0.97100654
vn -0.29382761 0.93415205 -0.20254698
vn -0.60520566 0.12592926 0.78604575
vn -0.85750769 -0.40366458 0.31895999
vn 0.26051451 -0.12431638 -0.95743283
vn -0.51638686 -0.45225578 -0.72719277
vn -0.31229469 0.69857097 -0.64379393
vn -0.27802526 -0.56608861 -0.77604487
vn 0.14030926 0.55708683 0.81851547
vn 0.07897161 0.07972693 -0.99368360
vn 0.43587123 0.80326915 -0.40592481
vn 0.97678626 0.16877276 0.13192556
vn 0.91506663 0.39312852 -0.09001684
vn 0.68626819 -0.70870252 0.16363591
vn -0.17345080 0.97979505 -0.09958154
vn 0.38233846 0.53134342 0.75597054
vn 0.44051716 -0.04022049 -0.89684276
vn 0.42732574 -0.08905150 -0.89970136
vn -0.02444594 -0.08681922 -0.99592410
vn 0.04128574 -0.04506642 -0.99813051
vn 0.50448794 0.34822267 0.79008411
vn -0.05206006 0.95664680 0.28656004
vn 0.36147448 -0.91566923 0.17574430
vn -0.14051083 -0.69223898 0.70785726
vn 0.35591545 -0.29147792 -0.88789910
vn -0.06440514 0.99772351 0.01999443
vn 0.61163854 -0.71842871 0.33129820
vn -0.15738736 0.90362918 0.39835100
vn 0.02299623 -0.80620855 0.59118436
vn 0.12753660 -0.46733092 0.87483497
vn 0.57933665 -0.08221226 -0.81093168
vn -0.02854440 -0.90029348 -0.43434647
vn 0.13350148 0.68033206 0.72064252
vn -0.08699133 -0.95827444 -0.27229139
vn -0.31792561 -0.35411870 -0.87950170
vn -0.35845264 0.78326659 0.50794208
vn 0.01877715 0.97171292 -0.23541756
vn -0.38376928 -0.88482927 -0.26419367
vn 0.38662676 0.36259077 -0.84796679
vn 0.86998177 0.20206958 0.44977728
vn 0.16071743 0.19721788 0.96709618
vn -0.12310223 -0.96190825 -0.24408677
vn -0.48129475 -0.83588317 -0.26392174
vn 0.05119909 0.88283029 0.46689327
vn -0.41080370 0.47508145 -0.77816318
vn 0.62304564 -0.71960737 0.30656055
vn 0.55427697 0.44753996 0.70177278
vn -0.55186228 0.71454485 0.42996940
vn 0.79061482 -0.08488784 -0.60640108
vn -0.78463904 0.44067901 -0.43605456
vn -0.03065539 -0.96093927 -0.27505631
vn 0.85303516 0.28329233 0.43826530
vn 0.04625271 0.40764900 -0.91196654
vn 0.77691251 -0.31711915 0.54391396
vn -0.28738518 0.49856235 -0.81782965
vn 0.28750650 0.70045057 0.65322968
vn 0.58694285 -0.30020336 -0.75191491
vn -0.42697089 0.78175336 0.45448602
vn -0.28745147 -0.94951581 -0.12566376
vn 0.48802632 0.35602399 0.79691733
vn -0.05448685 -0.92930267 -0.36527760
vn 0.19862343 -0.93926968 0.27985924
vn 0.55872578 0.18567503 0.80830086
vn -0.05701468 0.28878127 0.95569593
vn 0.04808066 0.71279636 0.69972109
vn 0.83657574 -0.21802925 -0.50259753
vn -0.88577938 -0.16880351 -0.43231964
vn -0.08002175 0.68590329 0.72327947
vn -0.06589504 0.53776561 -0.84051531
vn -0.46487106 -0.86897892 0.16961879
vn -0.15527054 0.66696907 -0.72872719
vn 0.89892018 -0.38673607 0.20585852
vn 0.22375047 0.65717777 0.71975906
vn -0.40075432 0.59154223 -0.69962402
vn 0.35380482 0.53533928 -0.76696415
vn -0.25860147 0.54432225 0.79802166
vn -0.05905940 -0.88090094 -0.46960146
vn -0.32533050 0.73544365 -0.59437589
vn 0.52732071 -0.71934876 0.45218385
vn 0.84441436 0.38508631 0.37238813
vn 0.60389569 0.64142017 -0.47317033
vn -0.40472024 -0.41879912 -0.81290149
vn -0.18743291 -0.24054807 0.95236838
vn 0.54165121 -0.63591502 -0.54975089
vn 0.54694641 -0.60763621 0.57587139
vn -0.38138601 -0.86614838 -0.32300418
vn 0.70872281 -0.28299355 -0.64624038
vn 0.98482196 0.06097349 -0.16250519
vn -0.14794189 -0.76837565 -0.62266529
vn 0.34908627 0.89216104 0.28668355
vn 0.47240914 -0.80518952 -0.35846818
vn -0.19431344 0.76992459 -0.60783091
vn -0.09142335 0.96539866 0.24422774
vn 0.38190027 -0.90845499 -0.16988734
vn 0.91388332 0.14812542 0.37798961
vn 0.11225618 0.07680830 -0.99070633
vn 0.63648928 -0.28309443 0.71745310
vn 0.37553718 0.15297609 0.91409526
vn -0.00156851 0.09227879 0.99573197
vn -0.65860618 -0.73629377 -0.15527193
vn -0.40137973 0.83404156 0.37850889
vn -0.12021697 -0.82148815 -0.55740927
vn 0.59393134 -0.79110038 0.14630705
vn -0.21444845 0.83815732 0.50150192
vn -0.11726503 0.87955156 -0.46112685
vn -0.50471168 -0.82032250 0.26895561
vn 0.45907122 0.60598008 0.64964741
vn -0.75540406 -0.63286954 -0.16982595
vn 0.10717830 0.85589479 -0.50592185
vn -0.08167419 -0.90504609 0.41739778
vn -0.60516514 0.47481402 0.63900454
vn -0.21749150 0.89714988 -0.38447306
vn -0.99211233 0.11130166 0.05766347
vn 0.42033134 0.20605612 -0.88366421
vn 0.43953813 -0.70937377 0.55099463
vn 0.28486019 0.38059401 -0.87977433
vn -0.24559508 -0.90527847 -0.34663230
vn 0.00346781 -0.24112487 0.97048790
vn 0.45512695 0.34353873 -0.82148682
vn 0.02438872 -0.86929532 0.49369103
vn -0.49793961 -0.84428358 -0.19809439
vn -0.73669173 0.25674441 0.62559380
vn -0.13823331 -0.82514764 0.54774348
vn -0.04870254 0.83461981 -0.54866915
vn 0.60914102 0.09159819 0.78775439
vn 0.12789895 -0.98961569 0.06559456
vn 0.03416729 0.73875093 -0.67311192
vn -0.48426735 0.76692544 -0.42108255
vn 0.22070645 0.57481859 0.78795448
vn -0.25848617 0.86338470 0.43330331
vn 0.26160382 0.22832964 0.93777877
vn 0.33802528 0.40539863 0.84934731
vn 0.84612729 0.40503480 0.34643240
vn 0.54901906 0.69260728 0.46783889
vn -0.41332223 -0.85989821 0.29956604
vn -0.28613372 0.49754110 0.81888970
vn 0.06903796 -0.55466427 0.82920523
vn -0.65477847 0.22132367 0.72269011
vn -0.71229371 -0.67225309 -0.20177575
vn -0.83919782 -0.17809271 -0.51383850
vn -0.47055505 -0.85166019 0.23076580
vn 0.20166528 0.68832188 -0.69680995
vn -0.01779699 0.74619566 0.66548877
vn 0.00567079 0.12263598 -0.99243552
vn -0.97796397 0.19147288 0.08321422
vn -0.63561858 0.27639319 0.72082996
vn -0.90664110 -0.26314668 0.32978134
vn 0.06630430 0.82262469 0.56470555
vn -0.53060708 0.77825999 0.33580874
vn -0.40571762 0.40398694 0.81987058
vn -0.57629559 -0.80315571 -0.15107715
vn -0.45867816 0.71665916 0.52537034
vn -0.49476520 -0.26532264 0.82753326
vn 0.09701005 0.91748916 -0.38574951
vn -0.52744813 0.82685721 0.19520660
vn -0.19348427 -0.96926901 -0.15192571
vn 0.34410534 -0.78681206 0.51236540
vn -0.01940912 0.83013060 0.55723107
vn 0.39275193 0.68135627 -0.61765650
vn -0.21410726 -0.93887499 -0.26957715
vn -0.13697472 0.99056574 -0.00417574
vn -0.60106643 0.60557087 0.52153913
vn 0.91994897 0.30030045 -0.25201889
vn -0.17675322 0.88706957 0.42645736
vn 0.86463179 0.37052330 -0.33929979
vn 0.93446004 -0.14274291 -0.32620376
vn -0.21194914 -0.76261828 -0.61113903
vn 0.09750847 -0.00604869 0.99521631
vn -0.64250486 0.40560187 0.65013432
vn 0.47279708 0.71285529 0.51797708
vn 0.47985601 -0.09518571 0.87216850
vn 0.82683340 0.04767234 0.56042294
vn -0.04660127 0.78229096 0.62116759
vn -0.45832814 0.00268144 0.88877901
vn 0.25534563 0.80506810 0.53541009
vn -0.55762638 0.56314379 0.60985399
vn -0.40724226 -0.89344471 -0.18950008
vn -0.08737764 -0.99617135 0.00279171
vn -0.53946205 0.79763276 -0.26974558
vn -0.19534708 -0.93580580 -0.29343997
vn -0.39894923 0.90343627 -0.15697905
vn -0.08031606 0.95248841 -0.29379441
vn 0.09462650 0.97501425 -0.20098021
vn -0.15804803 0.50308086 0.84966491
vn -0.30290942 0.90905220 0.28612930
vn -0.23186525 0.80085735 0.55214672
vn 0.12644698 0.33857680 0.93240384
vn -0.17523199 0.08931558 0.98046748
vn 0.26729401 0.52021229 -0.81113075
vn 0.92576481 -0.15743105 0.34376589
vn -0.45054572 -0.89239368 -0.02533913
vn 0.11991772 0.82833184 0.54725323
vn -0.64629325 -0.75639214 0.10087600
vn -0.59813250 0.20011050 0.77601114
vn -0.62826912 0.76779271 0.12558767
vn 0.36323365 -0.78302897 0.50490291
vn -0.98882166 -0.11787550 0.09130767
vn -0.42772426 0.12226013 0.89560283
vn 0.91617785 -0.10305787 0.38729474
vn -0.99283503 0.03161186 0.11523579
vn -0.66352869 -0.73680534 -0.12979820
vn -0.79625426 0.58770570 -0.14346135
vn 0.37751111 0.69925371 -0.60706639
vn -0.24305605 0.43027114 -0.86936212
vn 0.10892232 0.39367672 0.91277301
vn -0.51345364 0.84277330 0.16155036
vn 0.66126638 0.68210375 -0.31218783
vn -0.54940530 0.76286894 -0.34085892
vn -0.22970016 0.66655533 -0.70918391
vn -0.94753447 0.07030849 0.31182550
vn -0.62456602 -0.31343385 -0.71531567
vn -0.42591091 -0.30446232 -0.85199917
vn 0.85253347 -0.50203832 0.14541045
vn -0.66467330 -0.39831367 -0.63210412
vn -0.04186638 0.82562687 -0.56266106
vn -0.78637438 0.21437608 -0.57936019
vn -0.61511496 0.54877526 -0.56610891
vn -0.19858871 0.97422609 0.10698620
vn 0.99323865 0.08791083 0.07581999
vn 0.03960919 0.55630870 0.83003117
vn -0.34944188 0.92425858 0.15374152
vn -0.05416341 -0.13622318 -0.98919643
vn -0.47766024 0.80224745 0.35810574
vn -0.33742107 0.88060659 0.33268462
vn -0.22441039 0.75749345 -0.61306089
vn 0.49895811 -0.52085451 -0.69264088
vn 0.98515894 0.17161906 -0.00296098
vn -0.12291379 0.81297142 0.56918334
vn -0.07054599 0.52850425 -0.84599440
vn -0.29165386 0.80367115 0.51870099
vn -0.00368045 0.77943595 0.62647111
vn 0.89746984 -0.19559828 0.39533430
vn 0.95130367 -0.06905633 0.30042063
vn 0.97195201 -0.08472521 0.21938763
vn 0.40839479 -0.60556238 0.68301384
vn -0.94269106 -0.00033394 0.33366669
vn 0.76843154 -0.54870496 0.32929597
f 1//1 543//543 60//60
f 304//304 615//615 620//620
f 403//403 3//3 599//599
f 431//431 737//737 465//465
f 1//1 207//207 543//543
f 450//450 452//452 13//13
f 13//13 452//452 22//22
f 14//14 10//10 466//466
f 452//452 635//635 22//22
f 2//2 17//17 206//206
f 107//107 84//84 567//567
f 387//387 206//206 17//17
f 5//5 12//12 2//2
f 7//7 29//29 635//635
f 11//11 196//196 419//419
f 232//232 608//608 490//490
f 18//18 13//13 24//24
f 450//450 13//13 18//18
f 12//12 17//17 2//2
f 6//6 543//543 701//701
f 20//20 418//418 4//4
f 321//321 576//576 560//560
f 8//8 695//695 706//706
f 695//695 8//8 537//537
f 245//245 543//543 207//207
f 608//608 232//232 298//298
f 14//14 466//466 77//77
f 17//17 12//12 18//18
f 15//15 615//615 25//25
f 29//29 22//22 635//635
f 245//245 701//701 543//543
f 25//25 615//615 304//304
f 48//48 14//14 77//77
f 663//663 121//121 587//587
f 641//641 17//17 18//18
f 514//514 418//418 20//20
f 641//641 32//32 17//17
f 260//260 21//21 48//48
f 492//492 17//17 32//32
f 8//8 27//27 19//19
f 404//404 29//29 7//7
f 663//663 539//539 170//170
f 25//25 304//304 26//26
f 43//43 504//504 492//492
f 20//20 527//527 514//514
f 33//33 29//29 404//404
f 736//736 266//266 558//558
f 13//13 22//22 28//28
f 706//706 708//708 8//8
f 21//21 260//260 453//453
f 27//27 8//8 708//708
f 602//602 134//134 133//133
f 20//20 4//4 31//31
f 22//22 29//29 28//28
f 31//31 4//4 311//311
f 403//403 260//260 55//55
f 453//453 260//260 403//403
f 641//641 18//18 35//35
f 18//18 24//24 35//35
f 44//44 23//23 36//36
f 736//736 45//45 235//235
f 41//41 39//39 134//134
f 13//13 28//28 160//160
f 34//34 205//205 704//704
f 437//437 36//36 140//140
f 185//185 160//160 28//28
f 311//311 399//399 31//31
f 35//35 32//32 641//641
f 24//24 160//160 466//466
f 185//185 28//28 29//29
f 20//20 31//31 61//61
f 185//185 29//29 33//33
f 134//134 602//602 41//41
f 49//49 303//303 44//44
f 35//35 24//24 37//37
f 185//185 33//33 196//196
f 43//43 50//50 52//52
f 23//23 420//420 106//106
f 126//126 420//420 23//23
f 44//44 36//36 49//49
f 567//567 600//600 117//117
f 38//38 27//27 708//708
f 454//454 43//43 32//32
f 37//37 32//32 35//35
f 479//479 441//441 9//9
f 40//40 38//38 42//42
f 26//26 304//304 46//46
f 44//44 303//303 126//126
f 41//41 47//47 39//39
f 38//38 708//708 42//42
f 536//536 576//576 30//30
f 617//617 47//47 41//41
f 54//54 50//50 229//229
f 546//546 527//527 64//64
f 42//42 708//708 717//717
f 50//50 10//10 48//48
f 26//26 46//46 25//25
f 50//50 48//48 229//229
f 229//229 63//63 54//54
f 10//10 14//14 48//48
f 51//51 115//115 47//47
f 43//43 454//454 50//50
f 64//64 527//527 61//61
f 464//464 88//88 472//472
f 301//301 115//115 51//51
f 63//63 229//229 21//21
f 229//229 48//48 21//21
f 49//49 88//88 303//303
f 454//454 32//32 37//37
f 260//260 48//48 77//77
f 61//61 31//31 68//68
f 50//50 462//462 10//10
f 46//46 67//67 15//15
f 51//51 617//617 660//660
f 260//260 77//77 253//253
f 46//46 15//15 25//25
f 486//486 59//59 58//58
f 102//102 42//42 717//717
f 59//59 486//486 103//103
f 66//66 53//53 54//54
f 53//53 52//52 54//54
f 52//52 50//50 54//54
f 84//84 107//107 173//173
f 64//64 61//61 165//165
f 722//722 60//60 205//205
f 24//24 13//13 160//160
f 454//454 37//37 65//65
f 55//55 58//58 59//59
f 103//103 3//3 59//59
f 65//65 37//37 24//24
f 468//468 56//56 57//57
f 67//67 46//46 81//81
f 62//62 474//474 240//240
f 54//54 63//63 66//66
f 579//579 546//546 64//64
f 375//375 81//81 46//46
f 46//46 304//304 384//384
f 235//235 266//266 736//736
f 543//543 90//90 60//60
f 384//384 375//375 46//46
f 205//205 60//60 90//90
f 126//126 303//303 535//535
f 81//81 429//429 67//67
f 286//286 147//147 421//421
f 66//66 63//63 21//21
f 105//105 69//69 70//70
f 698//698 66//66 21//21
f 102//102 717//717 628//628
f 585//585 64//64 165//165
f 668//668 166//166 332//332
f 553//553 511//511 74//74
f 76//76 71//71 90//90
f 268//268 95//95 390//390
f 644//644 479//479 9//9
f 373//373 307//307 386//386
f 390//390 379//379 188//188
f 221//221 95//95 422//422
f 330//330 72//72 661//661
f 175//175 235//235 45//45
f 243//243 491//491 76//76
f 156//156 121//121 663//663
f 307//307 75//75 386//386
f 75//75 390//390 386//386
f 76//76 90//90 6//6
f 575//575 69//69 73//73
f 435//435 440//440 509//509
f 119//119 628//628 717//717
f 79//79 74//74 210//210
f 119//119 717//717 83//83
f 429//429 81//81 613//613
f 145//145 78//78 110//110
f 472//472 182//182 195//195
f 80//80 104//104 82//82
f 581//581 69//69 575//575
f 80//80 82//82 133//133
f 91//91 520//520 501//501
f 85//85 79//79 210//210
f 613//613 618//618 429//429
f 202//202 256//256 307//307
f 57//57 96//96 468//468
f 707//707 715//715 703//703
f 123//123 82//82 104//104
f 16//16 486//486 58//58
f 85//85 210//210 725//725
f 40//40 85//85 725//725
f 93//93 91//91 501//501
f 89//89 575//575 473//473
f 27//27 40//40 725//725
f 75//75 268//268 390//390
f 282//282 193//193 451//451
f 486//486 530//530 103//103
f 40//40 555//555 85//85
f 133//133 82//82 101//101
f 440//440 92//92 509//509
f 473//473 483//483 89//89
f 150//150 82//82 123//123
f 40//40 27//27 38//38
f 89//89 581//581 575//575
f 193//193 661//661 451//451
f 80//80 91//91 93//93
f 355//355 221//221 422//422
f 72//72 721//721 718//718
f 101//101 82//82 150//150
f 505//505 80//80 93//93
f 157//157 501//501 614//614
f 215//215 135//135 96//96
f 75//75 256//256 265//265
f 239//239 135//135 215//215
f 69//69 94//94 73//73
f 168//168 500//500 191//191
f 511//511 581//581 89//89
f 268//268 272//272 95//95
f 80//80 505//505 104//104
f 3//3 103//103 97//97
f 40//40 574//574 555//555
f 97//97 599//599 3//3
f 87//87 119//119 83//83
f 1//1 402//402 122//122
f 187//187 100//100 168//168
f 578//578 574//574 102//102
f 564//564 313//313 440//440
f 40//40 42//42 102//102
f 181//181 215//215 248//248
f 102//102 574//574 40//40
f 614//614 116//116 157//157
f 108//108 110//110 78//78
f 238//238 98//98 157//157
f 512//512 99//99 734//734
f 420//420 613//613 81//81
f 107//107 479//479 644//644
f 157//157 116//116 238//238
f 105//105 124//124 122//122
f 109//109 110//110 127//127
f 110//110 108//108 127//127
f 125//125 87//87 135//135
f 389//389 453//453 564//564
f 101//101 218//218 532//532
f 145//145 110//110 109//109
f 113//113 124//124 105//105
f 114//114 578//578 102//102
f 111//111 124//124 113//113
f 612//612 592//592 114//114
f 135//135 87//87 96//96
f 613//613 420//420 112//112
f 114//114 102//102 628//628
f 218//218 101//101 120//120
f 111//111 91//91 80//80
f 199//199 108//108 139//139
f 130//130 87//87 125//125
f 138//138 218//218 120//120
f 280//280 108//108 78//78
f 130//130 119//119 87//87
f 118//118 695//695 502//502
f 127//127 108//108 199//199
f 148//148 116//116 128//128
f 44//44 126//126 23//23
f 501//501 520//520 596//596
f 679//679 119//119 130//130
f 132//132 677//677 691//691
f 207//207 122//122 444//444
f 131//131 138//138 120//120
f 136//136 125//125 135//135
f 134//134 443//443 133//133
f 244//244 136//136 135//135
f 675//675 536//536 411//411
f 137//137 274//274 318//318
f 582//582 444//444 39//39
f 177//177 149//149 394//394
f 61//61 68//68 141//141
f 190//190 155//155 131//131
f 6//6 90//90 543//543
f 199//199 139//139 198//198
f 147//147 286//286 195//195
f 137//137 318//318 310//310
f 243//243 246//246 695//695
f 141//141 165//165 61//61
f 139//139 327//327 198//198
f 695//695 118//118 243//243
f 148//148 144//144 177//177
f 150//150 123//123 302//302
f 274//274 137//137 153//153
f 144//144 149//149 177//177
f 138//138 131//131 306//306
f 657//657 424//424 471//471
f 682//682 502//502 695//695
f 23//23 106//106 36//36
f 727//727 109//109 127//127
f 614//614 501//501 142//142
f 36//36 106//106 140//140
f 152//152 150//150 302//302
f 464//464 333//333 88//88
f 614//614 142//142 351//351
f 402//402 94//94 69//69
f 657//657 678//678 424//424
f 171//171 137//137 310//310
f 159//159 148//148 271//271
f 154//154 149//149 144//144
f 141//141 68//68 228//228
f 723//723 187//187 168//168
f 146//146 480//480 174//174
f 108//108 280//280 139//139
f 197//197 409//409 132//132
f 402//402 69//69 105//105
f 584//584 152//152 302//302
f 200//200 146//146 174//174
f 164//164 36//36 437//437
f 179//179 169//169 714//714
f 137//137 171//171 359//359
f 214//214 348//348 155//155
f 462//462 454//454 65//65
f 273//273 248//248 506//506
f 344//344 154//154 144//144
f 145//145 170//170 729//729
f 156//156 663//663 690//690
f 513//513 127//127 199//199
f 150//150 152//152 190//190
f 466//466 462//462 24//24
f 462//462 65//65 24//24
f 402//402 105//105 122//122
f 136//136 130//130 125//125
f 691//691 206//206 132//132
f 619//619 116//116 614//614
f 136//136 288//288 162//162
f 259//259 151//151 155//155
f 176//176 679//679 162//162
f 192//192 200//200 174//174
f 49//49 36//36 164//164
f 679//679 176//176 681//681
f 101//101 150//150 120//120
f 128//128 116//116 619//619
f 72//72 330//330 681//681
f 163//163 128//128 619//619
f 167//167 166//166 668//668
f 723//723 168//168 191//191
f 668//668 674//674 167//167
f 477//477 228//228 68//68
f 336//336 391//391 158//158
f 671//671 49//49 164//164
f 152//152 209//209 190//190
f 155//155 348//348 259//259
f 702//702 161//161 169//169
f 620//620 585//585 165//165
f 665//665 170//170 145//145
f 250//250 215//215 96//96
f 105//105 70//70 517//517
f 117//117 600//600 656//656
f 394//394 238//238 177//177
f 57//57 250//250 96//96
f 120//120 150//150 190//190
f 217//217 148//148 159//159
f 171//171 203//203 359//359
f 306//306 341//341 388//388
f 681//681 176//176 72//72
f 113//113 105//105 517//517
f 665//665 663//663 170//170
f 183//183 261//261 300//300
f 273//273 181//181 248//248
f 203//203 345//345 178//178
f 365//365 659//659 379//379
f 345//345 203//203 171//171
f 113//113 519//519 111//111
f 197//197 132//132 206//206
f 386//386 659//659 373//373
f 172//172 189//189 449//449
f 186//186 315//315 184//184
f 711//711 507//507 179//179
f 145//145 173//173 78//78
f 94//94 575//575 73//73
f 221//221 271//271 379//379
f 519//519 113//113 517//517
f 466//466 185//185 16//16
f 2//2 206//206 691//691
f 16//16 185//185 196//196
f 409//409 216//216 194//194
f 323//323 194//194 216//216
f 464//464 472//472 195//195
f 159//159 271//271 221//221
f 145//145 109//109 665//665
f 391//391 336//336 189//189
f 379//379 390//390 221//221
f 520//520 91//91 111//111
f 111//111 519//519 520//520
f 443//443 124//124 111//111
f 395//395 699//699 174//174
f 127//127 512//512 727//727
f 513//513 512//512 127//127
f 255//255 198//198 457//457
f 457//457 198//198 212//212
f 199//199 198//198 255//255
f 70//70 69//69 201//201
f 202//202 654//654 322//322
f 131//131 120//120 190//190
f 151//151 259//259 204//204
f 184//184 315//315 274//274
f 200//200 192//192 237//237
f 722//722 205//205 34//34
f 473//473 722//722 34//34
f 203//203 208//208 393//393
f 312//312 323//323 62//62
f 352//352 208//208 178//178
f 178//178 208//208 203//203
f 155//155 190//190 209//209
f 197//197 206//206 387//387
f 352//352 448//448 208//208
f 567//567 117//117 289//289
f 351//351 596//596 213//213
f 289//289 107//107 567//567
f 465//465 737//737 339//339
f 284//284 200//200 237//237
f 737//737 99//99 339//339
f 207//207 444//444 582//582
f 213//213 553//553 79//79
f 237//237 192//192 281//281
f 213//213 79//79 220//220
f 209//209 591//591 214//214
f 486//486 16//16 196//196
f 216//216 62//62 323//323
f 241//241 281//281 192//192
f 76//76 704//704 71//71
f 199//199 255//255 513//513
f 234//234 391//391 189//189
f 500//500 370//370 191//191
f 594//594 121//121 395//395
f 307//307 654//654 202//202
f 395//395 121//121 156//156
f 155//155 209//209 214//214
f 11//11 486//486 196//196
f 474//474 62//62 232//232
f 192//192 174//174 247//247
f 335//335 186//186 184//184
f 183//183 219//219 368//368
f 352//352 377//377 448//448
f 355//355 217//217 159//159
f 222//222 408//408 230//230
f 222//222 191//191 370//370
f 223//223 234//234 189//189
f 62//62 216//216 232//232
f 585//585 620//620 615//615
f 224//224 189//189 172//172
f 225//225 222//222 230//230
f 131//131 155//155 341//341
f 490//490 474//474 232//232
f 224//224 223//223 189//189
f 221//221 390//390 95//95
f 172//172 439//439 224//224
f 141//141 228//228 620//620
f 277//277 388//388 204//204
f 118//118 491//491 243//243
f 202//202 322//322 257//257
f 214//214 591//591 261//261
f 341//341 306//306 131//131
f 233//233 239//239 215//215
f 270//270 230//230 226//226
f 243//243 76//76 246//246
f 233//233 244//244 239//239
f 274//274 380//380 184//184
f 268//268 75//75 294//294
f 590//590 255//255 457//457
f 227//227 642//642 364//364
f 233//233 181//181 240//240
f 344//344 144//144 217//217
f 215//215 181//181 233//233
f 242//242 234//234 223//223
f 247//247 241//241 192//192
f 380//380 382//382 184//184
f 249//249 620//620 228//228
f 627//627 569//569 571//571
f 251//251 247//247 174//174
f 218//218 138//138 561//561
f 258//258 223//223 224//224
f 506//506 248//248 250//250
f 216//216 445//445 232//232
f 335//335 184//184 382//382
f 222//222 225//225 267//267
f 77//77 16//16 253//253
f 524//524 228//228 252//252
f 267//267 191//191 222//222
f 253//253 16//16 58//58
f 540//540 255//255 590//590
f 513//513 255//255 540//540
f 4//4 406//406 311//311
f 258//258 242//242 223//223
f 505//505 93//93 501//501
f 245//245 250//250 57//57
f 259//259 354//354 262//262
f 455//455 556//556 258//258
f 280//280 78//78 173//173
f 265//265 294//294 75//75
f 335//335 327//327 186//186
f 275//275 590//590 470//470
f 259//259 262//262 269//269
f 284//284 237//237 308//308
f 253//253 55//55 260//260
f 689//689 280//280 173//173
f 525//525 104//104 263//263
f 304//304 620//620 626//626
f 116//116 148//148 177//177
f 348//348 214//214 261//261
f 204//204 269//269 264//264
f 266//266 235//235 669//669
f 265//265 256//256 282//282
f 240//240 292//292 62//62
f 263//263 518//518 525//525
f 271//271 128//128 365//365
f 525//525 123//123 104//104
f 148//148 128//128 271//271
f 697//697 246//246 6//6
f 278//278 275//275 447//447
f 55//55 59//59 3//3
f 403//403 55//55 3//3
f 325//325 723//723 191//191
f 248//248 215//215 250//250
f 331//331 264//264 269//269
f 268//268 294//294 272//272
f 264//264 610//610 277//277
f 276//276 434//434 279//279
f 301//301 62//62 292//292
f 535//535 286//286 421//421
f 228//228 524//524 249//249
f 285//285 267//267 270//270
f 235//235 175//175 669//669
f 279//279 458//458 479//479
f 293//293 275//275 278//278
f 535//535 421//421 126//126
f 123//123 525//525 302//302
f 30//30 576//576 321//321
f 525//525 283//283 302//302
f 294//294 265//265 282//282
f 280//280 709//709 139//139
f 504//504 298//298 232//232
f 273//273 47//47 115//115
f 652//652 287//287 296//296
f 406//406 284//284 311//311
f 273//273 292//292 181//181
f 291//291 162//162 288//288
f 99//99 633//633 374//374
f 499//499 296//296 456//456
f 237//237 281//281 308//308
f 320//320 95//95 272//272
f 316//316 267//267 285//285
f 302//302 283//283 297//297
f 194//194 312//312 301//301
f 295//295 176//176 162//162
f 273//273 115//115 292//292
f 299//299 535//535 303//303
f 652//652 278//278 287//287
f 336//336 272//272 294//294
f 158//158 272//272 336//336
f 290//290 267//267 316//316
f 162//162 291//291 295//295
f 291//291 288//288 702//702
f 175//175 45//45 446//446
f 181//181 292//292 240//240
f 307//307 373//373 609//609
f 305//305 535//535 299//299
f 608//608 298//298 651//651
f 383//383 298//298 504//504
f 293//293 278//278 648//648
f 499//499 576//576 536//536
f 292//292 115//115 301//301
f 307//307 609//609 654//654
f 274//274 153//153 380//380
f 321//321 560//560 563//563
f 626//626 249//249 334//334
f 281//281 346//346 308//308
f 561//561 138//138 306//306
f 236//236 219//219 300//300
f 310//310 318//318 178//178
f 325//325 191//191 267//267
f 296//296 499//499 309//309
f 518//518 157//157 98//98
f 217//217 144//144 148//148
f 296//296 309//309 662//662
f 318//318 315//315 178//178
f 302//302 297//297 314//314
f 316//316 285//285 611//611
f 561//561 306//306 589//589
f 309//309 499//499 405//405
f 535//535 305//305 286//286
f 308//308 346//346 340//340
f 339//339 99//99 374//374
f 279//279 479//479 489//489
f 399//399 284//284 308//308
f 323//323 312//312 194//194
f 479//479 289//289 489//489
f 489//489 289//289 508//508
f 319//319 305//305 333//333
f 669//669 175//175 328//328
f 318//318 274//274 315//315
f 158//158 342//342 272//272
f 476//476 95//95 320//320
f 195//195 286//286 319//319
f 281//281 241//241 346//346
f 584//584 302//302 314//314
f 317//317 313//313 541//541
f 264//264 331//331 349//349
f 117//117 508//508 289//289
f 290//290 316//316 338//338
f 286//286 305//305 319//319
f 324//324 309//309 326//326
f 330//330 322//322 612//612
f 309//309 405//405 326//326
f 72//72 176//176 100//100
f 409//409 194//194 132//132
f 623//623 610//610 264//264
f 623//623 264//264 349//349
f 151//151 341//341 155//155
f 304//304 626//626 603//603
f 603//603 626//626 334//334
f 175//175 446//446 328//328
f 171//171 310//310 345//345
f 311//311 284//284 399//399
f 589//589 586//586 561//561
f 329//329 692//692 548//548
f 353//353 328//328 446//446
f 559//559 680//680 5//5
f 322//322 330//330 257//257
f 335//335 198//198 327//327
f 398//398 584//584 314//314
f 329//329 548//548 332//332
f 319//319 333//333 86//86
f 95//95 476//476 422//422
f 316//316 622//622 646//646
f 72//72 718//718 661//661
f 337//337 583//583 554//554
f 189//189 294//294 449//449
f 336//336 294//294 189//189
f 316//316 646//646 338//338
f 346//346 247//247 407//407
f 236//236 276//276 219//219
f 88//88 333//333 303//303
f 583//583 337//337 413//413
f 496//496 465//465 339//339
f 195//195 319//319 86//86
f 340//340 399//399 308//308
f 413//413 337//337 524//524
f 327//327 366//366 357//357
f 363//363 320//320 342//342
f 433//433 422//422 476//476
f 352//352 327//327 357//357
f 194//194 301//301 132//132
f 186//186 327//327 352//352
f 320//320 363//363 476//476
f 212//212 335//335 382//382
f 300//300 219//219 183//183
f 690//690 395//395 156//156
f 338//338 646//646 650//650
f 369//369 219//219 276//276
f 345//345 310//310 178//178
f 347//347 328//328 353//353
f 88//88 180//180 472//472
f 343//343 681//681 330//330
f 428//428 338//338 650//650
f 201//201 69//69 581//581
f 398//398 566//566 367//367
f 715//715 442//442 358//358
f 86//86 333//333 350//350
f 153//153 137//137 393//393
f 650//650 360//360 428//428
f 381//381 353//353 446//446
f 393//393 380//380 153//153
f 623//623 349//349 7//7
f 86//86 350//350 195//195
f 321//321 563//563 317//317
f 348//348 354//354 259//259
f 591//591 209//209 152//152
f 213//213 220//220 616//616
f 586//586 589//589 371//371
f 354//354 348//348 261//261
f 362//362 358//358 442//442
f 352//352 357//357 377//377
f 410//410 321//321 598//598
f 204//204 259//259 269//269
f 137//137 359//359 393//393
f 661//661 257//257 330//330
f 385//385 715//715 358//358
f 598//598 321//321 317//317
f 523//523 562//562 331//331
f 350//350 333//333 464//464
f 391//391 363//363 342//342
f 256//256 202//202 282//282
f 366//366 715//715 385//385
f 202//202 257//257 282//282
f 261//261 368//368 354//354
f 684//684 347//347 353//353
f 349//349 331//331 562//562
f 163//163 364//364 365//365
f 659//659 365//365 364//364
f 356//356 398//398 236//236
f 684//684 353//353 381//381
f 394//394 531//531 98//98
f 650//650 361//361 376//376
f 60//60 94//94 1//1
f 233//233 240//240 474//474
f 98//98 238//238 394//394
f 212//212 198//198 335//335
f 376//376 361//361 392//392
f 290//290 325//325 267//267
f 387//387 216//216 409//409
f 344//344 217//217 703//703
f 407//407 340//340 346//346
f 349//349 562//562 404//404
f 271//271 365//365 379//379
f 391//391 342//342 158//158
f 368//368 262//262 354//354
f 7//7 349//349 404//404
f 236//236 300//300 356//356
f 233//233 372//372 244//244
f 381//381 637//637 378//378
f 378//378 401//401 381//381
f 380//380 426//426 382//382
f 389//389 376//376 392//392
f 290//290 723//723 325//325
f 427//427 470//470 357//357
f 340//340 407//407 735//735
f 470//470 377//377 357//357
f 434//434 236//236 398//398
f 388//388 341//341 151//151
f 288//288 244//244 372//372
f 412//412 723//723 290//290
f 368//368 219//219 485//485
f 381//381 401//401 684//684
f 485//485 219//219 369//369
f 1//1 94//94 402//402
f 388//388 589//589 306//306
f 188//188 386//386 390//390
f 204//204 388//388 151//151
f 591//591 356//356 300//300
f 288//288 372//372 702//702
f 406//406 143//143 667//667
f 406//406 667//667 621//621
f 383//383 504//504 43//43
f 383//383 43//43 400//400
f 621//621 667//667 129//129
f 397//397 280//280 689//689
f 75//75 307//307 256//256
f 470//470 231//231 377//377
f 355//355 159//159 221//221
f 685//685 410//410 655//655
f 453//453 389//389 392//392
f 367//367 666//666 398//398
f 383//383 651//651 298//298
f 629//629 401//401 378//378
f 280//280 397//397 703//703
f 434//434 398//398 666//666
f 606//606 586//586 371//371
f 391//391 234//234 363//363
f 357//357 366//366 385//385
f 730//730 412//412 728//728
f 367//367 588//588 666//666
f 606//606 371//371 610//610
f 280//280 703//703 709//709
f 417//417 404//404 562//562
f 476//476 363//363 433//433
f 412//412 290//290 338//338
f 707//707 217//217 355//355
f 482//482 433//433 362//362
f 613//613 655//655 410//410
f 562//562 579//579 417//417
f 414//414 400//400 52//52
f 33//33 404//404 417//417
f 413//413 570//570 423//423
f 399//399 431//431 31//31
f 363//363 234//234 242//242
f 585//585 425//425 579//579
f 45//45 651//651 383//383
f 728//728 412//412 428//428
f 447//447 470//470 427//427
f 418//418 485//485 369//369
f 431//431 399//399 735//735
f 380//380 393//393 438//438
f 436//436 362//362 433//433
f 369//369 538//538 418//418
f 430//430 12//12 5//5
f 615//615 425//425 585//585
f 242//242 254//254 363//363
f 388//388 371//371 589//589
f 45//45 383//383 446//446
f 196//196 33//33 417//417
f 207//207 1//1 122//122
f 541//541 598//598 317//317
f 498//498 439//439 172//172
f 420//420 126//126 421//421
f 419//419 417//417 425//425
f 196//196 417//417 419//419
f 412//412 338//338 428//428
f 362//362 436//436 427//427
f 467//467 606//606 610//610
f 416//416 471//471 415//415
f 358//358 362//362 427//427
f 112//112 420//420 421//421
f 427//427 357//357 385//385
f 471//471 416//416 713//713
f 388//388 277//277 371//371
f 282//282 449//449 294//294
f 15//15 425//425 615//615
f 385//385 358//358 427//427
f 15//15 419//419 425//425
f 485//485 262//262 368//368
f 277//277 204//204 264//264
f 68//68 31//31 431//431
f 327//327 139//139 709//709
f 666//666 588//588 9//9
f 414//414 383//383 400//400
f 122//122 124//124 444//444
f 186//186 352//352 315//315
f 409//409 197//197 387//387
f 154//154 9//9 588//588
f 383//383 414//414 446//446
f 693//693 423//423 678//678
f 359//359 203//203 393//393
f 67//67 429//429 419//419
f 67//67 419//419 15//15
f 140//140 384//384 632//632
f 623//623 467//467 610//610
f 277//277 610//610 371//371
f 591//591 300//300 261//261
f 355//355 422//422 442//442
f 625//625 632//632 384//384
f 429//429 11//11 419//419
f 254//254 433//433 363//363
f 421//421 147//147 112//112
f 632//632 658//658 685//685
f 480//480 594//594 395//395
f 216//216 387//387 445//445
f 426//426 380//380 438//438
f 236//236 434//434 276//276
f 275//275 470//470 447//447
f 427//427 436//436 481//481
f 650//650 376//376 360//360
f 701//701 245//245 57//57
f 441//441 434//434 666//666
f 378//378 688//688 629//629
f 382//382 426//426 438//438
f 435//435 360//360 376//376
f 427//427 481//481 287//287
f 208//208 448//448 393//393
f 432//432 394//394 549//549
f 427//427 287//287 447//447
f 376//376 440//440 435//435
f 443//443 111//111 80//80
f 530//530 11//11 429//429
f 147//147 630//630 112//112
f 449//449 451//451 172//172
f 212//212 382//382 438//438
f 618//618 530//530 429//429
f 56//56 701//701 57//57
f 381//381 446//446 414//414
f 140//140 632//632 437//437
f 389//389 440//440 376//376
f 448//448 438//438 393//393
f 443//443 80//80 133//133
f 450//450 18//18 12//12
f 377//377 231//231 448//448
f 492//492 445//445 387//387
f 442//442 422//422 482//482
f 630//630 147//147 720//720
f 178//178 315//315 352//352
f 167//167 657//657 166//166
f 12//12 452//452 450//450
f 452//452 12//12 430//430
f 635//635 452//452 467//467
f 463//463 436//436 254//254
f 458//458 279//279 434//434
f 441//441 458//458 434//434
f 549//549 394//394 149//149
f 438//438 448//448 459//459
f 68//68 431//431 477//477
f 459//459 212//212 438//438
f 287//287 481//481 456//456
f 460//460 693//693 167//167
f 564//564 440//440 389//389
f 661//661 718//718 451//451
f 459//459 448//448 231//231
f 549//549 149//149 461//461
f 447//447 287//287 278//278
f 462//462 50//50 454//454
f 387//387 17//17 492//492
f 212//212 459//459 457//457
f 431//431 465//465 477//477
f 536//536 30//30 411//411
f 649//649 515//515 507//507
f 164//164 720//720 671//671
f 466//466 160//160 185//185
f 463//463 481//481 436//436
f 9//9 154//154 689//689
f 461//461 566//566 549//549
f 362//362 442//442 482//482
f 689//689 154//154 344//344
f 482//482 422//422 433//433
f 478//478 455//455 439//439
f 479//479 458//458 441//441
f 296//296 287//287 456//456
f 167//167 674//674 460//460
f 195//195 350//350 464//464
f 451//451 718//718 522//522
f 10//10 462//462 466//466
f 620//620 165//165 141//141
f 526//526 169//169 515//515
f 498//498 172//172 451//451
f 411//411 410//410 685//685
f 339//339 696//696 496//496
f 231//231 470//470 459//459
f 107//107 289//289 479//479
f 704//704 205//205 90//90
f 444//444 134//134 39//39
f 477//477 465//465 496//496
f 702//702 372//372 161//161
f 459//459 590//590 457//457
f 717//717 469//469 83//83
f 455//455 224//224 439//439
f 493//493 475//475 607//607
f 469//469 468//468 83//83
f 498//498 451//451 522//522
f 475//475 463//463 254//254
f 459//459 470//470 590//590
f 473//473 94//94 722//722
f 228//228 477//477 252//252
f 250//250 245//245 207//207
f 481//481 463//463 456//456
f 491//491 704//704 76//76
f 455//455 258//258 224//224
f 474//474 161//161 233//233
f 233//233 161//161 372//372
f 514//514 485//485 418//418
f 547//547 475//475 493//493
f 269//269 262//262 331//331
f 625//625 675//675 658//658
f 339//339 374//374 487//487
f 667//667 508//508 117//117
f 494//494 484//484 693//693
f 262//262 485//485 514//514
f 488//488 528//528 522//522
f 369//369 276//276 279//279
f 494//494 326//326 484//484
f 504//504 445//445 492//492
f 232//232 445//445 504//504
f 83//83 468//468 87//87
f 506//506 250//250 582//582
f 169//169 161//161 495//495
f 169//169 495//495 714//714
f 484//484 423//423 693//693
f 693//693 460//460 494//494
f 474//474 490//490 161//161
f 16//16 77//77 466//466
f 490//490 495//495 161//161
f 246//246 76//76 6//6
f 295//295 168//168 176//176
f 291//291 500//500 295//295
f 491//491 118//118 502//502
f 500//500 168//168 295//295
f 496//496 252//252 477//477
f 499//499 456//456 576//576
f 168//168 100//100 176//176
f 702//702 222//222 370//370
f 704//704 491//491 682//682
f 678//678 657//657 167//167
f 682//682 491//491 502//502
f 370//370 500//500 291//291
f 506//506 582//582 39//39
f 522//522 544//544 498//498
f 516//516 456//456 463//463
f 494//494 460//460 676//676
f 369//369 279//279 489//489
f 688//688 66//66 503//503
f 547//547 493//493 92//92
f 544//544 439//439 498//498
f 657//657 631//631 166//166
f 517//517 70//70 201//201
f 43//43 492//492 32//32
f 489//489 508//508 538//538
f 369//369 489//489 538//538
f 157//157 505//505 501//501
f 331//331 262//262 523//523
f 92//92 493//493 509//509
f 263//263 104//104 505//505
f 263//263 505//505 157//157
f 182//182 720//720 147//147
f 506//506 39//39 47//47
f 400//400 43//43 52//52
f 47//47 273//273 506//506
f 408//408 169//169 526//526
f 526//526 230//230 408//408
f 529//529 524//524 252//252
f 696//696 339//339 416//416
f 518//518 263//263 157//157
f 529//529 252//252 496//496
f 254//254 436//436 433//433
f 519//519 596//596 520//520
f 523//523 262//262 514//514
f 726//726 510//510 539//539
f 533//533 556//556 478//478
f 696//696 529//529 496//496
f 92//92 313//313 521//521
f 546//546 523//523 514//514
f 497//497 510//510 726//726
f 575//575 94//94 473//473
f 334//334 249//249 337//337
f 249//249 524//524 337//337
f 143//143 508//508 667//667
f 317//317 521//521 313//313
f 516//516 463//463 475//475
f 261//261 183//183 368//368
f 518//518 531//531 525//525
f 522//522 528//528 544//544
f 531//531 518//518 98//98
f 201//201 596//596 517//517
f 317//317 563//563 521//521
f 486//486 11//11 530//530
f 528//528 728//728 544//544
f 143//143 538//538 508//508
f 510//510 640//640 550//550
f 55//55 253//253 58//58
f 283//283 525//525 531//531
f 416//416 339//339 487//487
f 558//558 515//515 649//649
f 545//545 510//510 550//550
f 544//544 478//478 439//439
f 534//534 532//532 218//218
f 526//526 515//515 558//558
f 516//516 475//475 547//547
f 169//169 507//507 515//515
f 510//510 545//545 539//539
f 596//596 201//201 213//213
f 61//61 527//527 20//20
f 74//74 89//89 210//210
f 374//374 552//552 487//487
f 226//226 526//526 593//593
f 526//526 226//226 230//230
f 283//283 531//531 432//432
f 483//483 704//704 537//537
f 283//283 432//432 297//297
f 333//333 305//305 299//299
f 456//456 516//516 576//576
f 303//303 333//333 299//299
f 394//394 432//432 531//531
f 513//513 540//540 512//512
f 704//704 682//682 537//537
f 337//337 554//554 334//334
f 534//534 218//218 551//551
f 415//415 529//529 696//696
f 542//542 534//534 551//551
f 551//551 218//218 561//561
f 524//524 529//529 570//570
f 297//297 432//432 549//549
f 526//526 558//558 593//593
f 544//544 728//728 731//731
f 692//692 324//324 548//548
f 660//660 617//617 542//542
f 536//536 705//705 499//499
f 201//201 553//553 213//213
f 514//514 527//527 546//546
f 660//660 542//542 551//551
f 521//521 560//560 516//516
f 521//521 516//516 547//547
f 79//79 85//85 569//569
f 607//607 254//254 242//242
f 405//405 499//499 705//705
f 415//415 570//570 529//529
f 729//729 545//545 84//84
f 548//548 326//326 494//494
f 544//544 731//731 478//478
f 297//297 549//549 566//566
f 444//444 124//124 443//443
f 569//569 85//85 555//555
f 562//562 523//523 546//546
f 680//680 660//660 551//551
f 545//545 550//550 567//567
f 566//566 314//314 297//297
f 92//92 521//521 547//547
f 554//554 583//583 705//705
f 284//284 129//129 200//200
f 559//559 660//660 680//680
f 258//258 607//607 242//242
f 332//332 548//548 676//676
f 553//553 74//74 79//79
f 444//444 443//443 134//134
f 579//579 562//562 546//546
f 539//539 587//587 557//557
f 563//563 560//560 521//521
f 478//478 556//556 455//455
f 649//649 507//507 716//716
f 582//582 250//250 207//207
f 411//411 30//30 321//321
f 129//129 284//284 621//621
f 52//52 653//653 414//414
f 211//211 726//726 557//557
f 571//571 555//555 574//574
f 440//440 313//313 92//92
f 577//577 551//551 561//561
f 313//313 564//564 396//396
f 569//569 227//227 79//79
f 220//220 79//79 227//227
f 538//538 143//143 406//406
f 384//384 304//304 603//603
f 84//84 545//545 567//567
f 227//227 364//364 220//220
f 313//313 396//396 541//541
f 478//478 565//565 533//533
f 705//705 583//583 405//405
f 568//568 533//533 565//565
f 533//533 573//573 556//556
f 403//403 396//396 564//564
f 398//398 314//314 566//566
f 554//554 603//603 334//334
f 211//211 557//557 587//587
f 418//418 538//538 4//4
f 415//415 471//471 424//424
f 548//548 324//324 326//326
f 633//633 99//99 512//512
f 556//556 607//607 258//258
f 475//475 254//254 607//607
f 533//533 435//435 573//573
f 573//573 435//435 509//509
f 230//230 267//267 225//225
f 713//713 580//580 572//572
f 411//411 321//321 410//410
f 577//577 561//561 586//586
f 560//560 576//576 516//516
f 573//573 509//509 493//493
f 578//578 571//571 574//574
f 381//381 414//414 637//637
f 584//584 398//398 356//356
f 597//597 657//657 572//572
f 571//571 569//569 555//555
f 586//586 680//680 577//577
f 512//512 540//540 634//634
f 540//540 590//590 634//634
f 600//600 567//567 550//550
f 430//430 5//5 680//680
f 579//579 64//64 585//585
f 270//270 267//267 230//230
f 627//627 227//227 569//569
f 133//133 532//532 602//602
f 642//642 227//227 627//627
f 587//587 539//539 663//663
f 211//211 587//587 594//594
f 133//133 101//101 532//532
f 201//201 581//581 511//511
f 571//571 578//578 592//592
f 680//680 586//586 430//430
f 461//461 149//149 588//588
f 705//705 536//536 675//675
f 270//270 226//226 601//601
f 285//285 270//270 601//601
f 558//558 266//266 593//593
f 152//152 584//584 356//356
f 627//627 592//592 624//624
f 591//591 152//152 356//356
f 414//414 653//653 637//637
f 583//583 413//413 405//405
f 729//729 84//84 173//173
f 566//566 461//461 367//367
f 596//596 142//142 501//501
f 593//593 601//601 226//226
f 461//461 588//588 367//367
f 631//631 657//657 597//597
f 417//417 579//579 425//425
f 538//538 406//406 4//4
f 601//601 593//593 604//604
f 351//351 142//142 596//596
f 593//593 266//266 664//664
f 664//664 604//604 593//593
f 627//627 571//571 592//592
f 396//396 403//403 599//599
f 114//114 592//592 578//578
f 599//599 97//97 541//541
f 285//285 601//601 604//604
f 121//121 594//594 587//587
f 534//534 602//602 532//532
f 606//606 430//430 586//586
f 658//658 675//675 411//411
f 603//603 554//554 672//672
f 605//605 609//609 624//624
f 41//41 602//602 534//534
f 554//554 595//595 672//672
f 351//351 213//213 616//616
f 103//103 530//530 618//618
f 611//611 285//285 604//604
f 612//612 605//605 592//592
f 617//617 41//41 534//534
f 351//351 619//619 614//614
f 590//590 275//275 634//634
f 351//351 616//616 619//619
f 580//580 597//597 572//572
f 452//452 430//430 606//606
f 611//611 604//604 673//673
f 510//510 497//497 640//640
f 373//373 642//642 627//627
f 467//467 452//452 606//606
f 617//617 534//534 542//542
f 673//673 604//604 347//347
f 636//636 611//611 673//673
f 607//607 573//573 493//493
f 716//716 645//645 649//649
f 556//556 573//573 607//607
f 616//616 220//220 364//364
f 249//249 626//626 620//620
f 611//611 636//636 622//622
f 711//711 179//179 639//639
f 275//275 293//293 634//634
f 179//179 608//608 651//651
f 639//639 716//716 712//712
f 316//316 611//611 622//622
f 364//364 163//163 616//616
f 653//653 52//52 53//53
f 633//633 512//512 634//634
f 645//645 716//716 639//639
f 636//636 673//673 629//629
f 619//619 616//616 163//163
f 613//613 410//410 618//618
f 497//497 550//550 640//640
f 373//373 627//627 609//609
f 624//624 592//592 605//605
f 629//629 673//673 684//684
f 625//625 658//658 632//632
f 112//112 630//630 655//655
f 173//173 107//107 644//644
f 636//636 688//688 638//638
f 51//51 47//47 617//617
f 679//679 628//628 119//119
f 688//688 637//637 653//653
f 635//635 467//467 623//623
f 97//97 103//103 618//618
f 648//648 633//633 634//634
f 609//609 627//627 624//624
f 128//128 163//163 365//365
f 636//636 629//629 688//688
f 622//622 636//636 638//638
f 679//679 343//343 628//628
f 7//7 635//635 623//623
f 420//420 81//81 106//106
f 648//648 278//278 652//652
f 648//648 634//634 293//293
f 9//9 689//689 644//644
f 646//646 622//622 638//638
f 647//647 645//645 639//639
f 453//453 403//403 564//564
f 642//642 659//659 364//364
f 643//643 437//437 632//632
f 652//652 296//296 662//662
f 116//116 177//177 238//238
f 406//406 621//621 284//284
f 550//550 497//497 600//600
f 645//645 647//647 649//649
f 599//599 541//541 396//396
f 413//413 423//423 484//484
f 678//678 423//423 570//570
f 678//678 570//570 424//424
f 650//650 694//694 361//361
f 658//658 411//411 685//685
f 588//588 149//149 154//154
f 503//503 698//698 361//361
f 648//648 652//652 686//686
f 659//659 642//642 373//373
f 649//649 647//647 558//558
f 580//580 631//631 597//597
f 437//437 643//643 164//164
f 698//698 392//392 361//361
f 686//686 652//652 662//662
f 173//173 644//644 689//689
f 471//471 713//713 657//657
f 136//136 244//244 288//288
f 112//112 655//655 613//613
f 21//21 392//392 698//698
f 609//609 605//605 654//654
f 647//647 736//736 558//558
f 552//552 374//374 633//633
f 670//670 552//552 633//633
f 392//392 21//21 453//453
f 379//379 659//659 188//188
f 633//633 648//648 670//670
f 657//657 713//713 572//572
f 656//656 211//211 146//146
f 653//653 53//53 66//66
f 301//301 51//51 132//132
f 497//497 726//726 211//211
f 653//653 66//66 688//688
f 211//211 594//594 146//146
f 130//130 136//136 162//162
f 182//182 147//147 195//195
f 132//132 51//51 677//677
f 570//570 415//415 424//424
f 643//643 655//655 630//630
f 677//677 51//51 660//660
f 117//117 656//656 129//129
f 211//211 600//600 497//497
f 676//676 548//548 494//494
f 686//686 670//670 648//648
f 188//188 659//659 386//386
f 618//618 410//410 598//598
f 600//600 211//211 656//656
f 654//654 605//605 322//322
f 257//257 661//661 193//193
f 97//97 618//618 598//598
f 97//97 598//598 541//541
f 326//326 413//413 484//484
f 660//660 559//559 677//677
f 666//666 9//9 441//441
f 662//662 309//309 324//324
f 405//405 413//413 326//326
f 347//347 604//604 664//664
f 62//62 301//301 312//312
f 643//643 630//630 164//164
f 667//667 117//117 129//129
f 164//164 630//630 720//720
f 180//180 88//88 49//49
f 140//140 375//375 384//384
f 266//266 669//669 664//664
f 605//605 612//612 322//322
f 180//180 49//49 671//671
f 140//140 106//106 375//375
f 146//146 594//594 480//480
f 180//180 182//182 472//472
f 343//343 114//114 628//628
f 720//720 180//180 671//671
f 180//180 720//720 182//182
f 332//332 166//166 631//631
f 612//612 114//114 343//343
f 551//551 577//577 680//680
f 656//656 146//146 129//129
f 664//664 669//669 347//347
f 328//328 347//347 669//669
f 324//324 686//686 662//662
f 676//676 674//674 668//668
f 625//625 672//672 675//675
f 612//612 343//343 330//330
f 676//676 668//668 332//332
f 673//673 347//347 684//684
f 691//691 677//677 559//559
f 343//343 679//679 681//681
f 71//71 704//704 90//90
f 687//687 537//537 682//682
f 625//625 384//384 672//672
f 683//683 210//210 89//89
f 679//679 130//130 162//162
f 401//401 629//629 684//684
f 2//2 559//559 5//5
f 129//129 146//146 200//200
f 324//324 692//692 686//686
f 682//682 695//695 687//687
f 689//689 344//344 397//397
f 632//632 685//685 643//643
f 637//637 688//688 378//378
f 691//691 559//559 2//2
f 686//686 692//692 670//670
f 688//688 503//503 638//638
f 663//663 665//665 699//699
f 699//699 690//690 663//663
f 719//719 665//665 109//109
f 257//257 193//193 282//282
f 646//646 638//638 694//694
f 638//638 503//503 694//694
f 693//693 678//678 167//167
f 646//646 694//694 650//650
f 361//361 694//694 503//503
f 580//580 487//487 329//329
f 329//329 487//487 552//552
f 670//670 692//692 552//552
f 692//692 329//329 552//552
f 695//695 246//246 697//697
f 674//674 676//676 460//460
f 700//700 6//6 701//701
f 697//697 6//6 700//700
f 537//537 687//687 695//695
f 503//503 66//66 698//698
f 703//703 397//397 344//344
f 696//696 416//416 415//415
f 697//697 700//700 695//695
f 703//703 217//217 707//707
f 706//706 695//695 700//700
f 395//395 174//174 480//480
f 699//699 395//395 690//690
f 329//329 332//332 631//631
f 719//719 109//109 727//727
f 413//413 524//524 570//570
f 710//710 700//700 701//701
f 473//473 34//34 483//483
f 370//370 291//291 702//702
f 704//704 483//483 34//34
f 580//580 329//329 631//631
f 554//554 705//705 595//595
f 408//408 702//702 169//169
f 222//222 702//702 408//408
f 675//675 595//595 705//705
f 106//106 81//81 375//375
f 703//703 715//715 709//709
f 469//469 706//706 710//710
f 251//251 699//699 719//719
f 699//699 665//665 719//719
f 511//511 89//89 74//74
f 672//672 595//595 675//675
f 710//710 701//701 56//56
f 507//507 169//169 179//179
f 416//416 487//487 713//713
f 706//706 700//700 710//710
f 320//320 272//272 342//342
f 708//708 706//706 469//469
f 507//507 711//711 712//712
f 517//517 596//596 519//519
f 384//384 603//603 672//672
f 608//608 179//179 714//714
f 709//709 715//715 366//366
f 366//366 327//327 709//709
f 713//713 487//487 580//580
f 495//495 490//490 608//608
f 608//608 714//714 495//495
f 643//643 685//685 655//655
f 355//355 442//442 707//707
f 507//507 712//712 716//716
f 469//469 710//710 56//56
f 451//451 449//449 282//282
f 715//715 707//707 442//442
f 469//469 717//717 708//708
f 187//187 72//72 100//100
f 174//174 699//699 251//251
f 719//719 727//727 732//732
f 56//56 468//468 469//469
f 187//187 721//721 72//72
f 722//722 94//94 60//60
f 721//721 488//488 718//718
f 488//488 522//522 718//718
f 96//96 87//87 468//468
f 683//683 483//483 537//537
f 639//639 712//712 711//711
f 89//89 483//483 683//683
f 553//553 201//201 511//511
f 407//407 247//247 251//251
f 407//407 251//251 732//732
f 251//251 719//719 732//732
f 721//721 187//187 724//724
f 651//651 639//639 179//179
f 488//488 721//721 724//724
f 724//724 187//187 723//723
f 346//346 241//241 247//247
f 724//724 528//528 488//488
f 725//725 210//210 683//683
f 27//27 725//725 683//683
f 19//19 537//537 8//8
f 683//683 537//537 19//19
f 557//557 726//726 539//539
f 27//27 683//683 19//19
f 733//733 732//732 727//727
f 733//733 727//727 734//734
f 724//724 723//723 730//730
f 734//734 727//727 512//512
f 724//724 730//730 528//528
f 729//729 539//539 545//545
f 647//647 639//639 651//651
f 399//399 340//340 735//735
f 730//730 723//723 412//412
f 170//170 539//539 729//729
f 528//528 730//730 728//728
f 647//647 651//651 45//45
f 565//565 478//478 731//731
f 244//244 135//135 239//239
f 728//728 428//428 568//568
f 728//728 568//568 731//731
f 145//145 729//729 173//173
f 565//565 731//731 568//568
f 732//732 735//735 407//407
f 737//737 735//735 732//732
f 737//737 733//733 734//734
f 568//568 428//428 360//360
f 568//568 435//435 533//533
f 45//45 736//736 647//647
f 435//435 568//568 360//360
f 735//735 737//737 431//431
f 732//732 733//733 737//737
f 99//99 737//737 734//734