# https://github.com/mikedh/trimesh
v 0.00139074 0.03910990 0.11268500
v 0.00000000 0.03965890 0.11268500
v 0.00000000 0.03965630 0.09687410
v 0.01302760 0.03708240 0.05668640
v 0.00611034 0.03766870 0.00000000
v 0.01291070 0.03714090 0.00000000
v 0.01561800 0.03621900 0.05754980
v 0.01339100 0.03698080 0.00000000
v 0.01320060 0.03708240 0.11268500
v 0.01372070 0.03690890 0.11268500
v 0.00885417 0.03744220 0.05683030
v 0.01237030 0.03715400 0.11268500
v 0.01775160 0.03548910 0.11268500
v 0.02043900 0.03427620 0.05690220
v 0.01880660 0.03506420 0.11268500
v 0.02245380 0.03370050 0.05690220
v 0.01924530 0.03493890 0.11268500
v 0.02655520 0.03204550 0.05790960
v 0.02016380 0.03456850 0.11268500
v 0.02655520 0.03204550 0.11268500
v 0.00820989 0.00085072 0.11268500
v 0.00396120 0.00038511 0.05582290
v 0.00000000 0.00000143 0.11268500
v 0.00000000 0.00000000 0.10957400
v 0.00921396 0.00096075 0.05582290
v 0.00921396 0.00096075 0.11268500
v 0.00813648 0.00084267 0.00000000
v 0.00921396 0.00096075 0.00000000
v 0.00000000 0.00064919 0.01990800
v 0.00000000 0.00080558 0.00000000
v 0.00000000 0.00060710 0.02571690
v 0.00000000 0.00038511 0.05635700
v 0.01439480 0.00124858 0.05654250
v 0.01026590 0.00101920 0.00000000
v 0.01858100 0.00153530 0.00000000
v 0.05317880 0.02815990 0.01279350
v 0.05328030 0.02436930 0.00000000
v 0.05382190 0.02118780 0.00000000
v 0.05591310 0.00405484 0.01279350
v 0.05527010 0.00842087 0.00000000
v 0.05792790 0.00484636 0.01423260
v 0.05857550 0.00506223 0.01466430
v 0.05915110 0.00527809 0.01509610
v 0.05936700 0.02873560 0.01509610
v 0.05591310 0.02859170 0.01279350
v 0.05454600 0.02837580 0.05790960
v 0.05591310 0.02859170 0.02552960
v 0.05814370 0.02873560 0.02552960
v 0.05591310 0.02859170 0.09230440
v 0.05454600 0.02837580 0.06424170
v 0.05317880 0.02815990 0.10302600
v 0.05317880 0.02815990 0.05790960
v 0.05217140 0.02837580 0.05790960
v 0.05123600 0.02815990 0.01279350
v 0.05123600 0.02837580 0.05790960
v 0.04799800 0.02815990 0.07158120
v 0.04799800 0.02815990 0.05790960
v 0.04554780 0.02815990 0.11268500
v 0.04573120 0.02815990 0.11268500
v 0.04476000 0.02815990 0.05790960
v 0.04476000 0.02815990 0.11268500
v 0.04166590 0.02837580 0.05790960
v 0.04400720 0.02821250 0.11268500
v 0.04476000 0.02816000 0.00000000
v 0.04414360 0.02820300 0.00000000
v 0.03913060 0.02854870 0.00000000
v 0.05226500 0.02816000 0.00000000
v 0.05226500 0.02714460 0.00000000
v 0.04540500 0.02816000 0.00000000
v 0.05059100 0.02816000 0.00000000
v 0.03641320 0.02873560 0.05790960
v 0.03474210 0.02885080 0.00000000
v 0.03808420 0.02862040 0.00000000
v 0.03849990 0.02859170 0.05790960
v 0.03849990 0.02859170 0.00000000
v 0.03799220 0.02862670 0.11268500
v 0.03849990 0.02859170 0.11268500
v 0.03927020 0.02853920 0.11268500
v 0.03483410 0.02884450 0.11268500
v 0.03432640 0.02887950 0.05790960
v 0.03432640 0.02887950 0.11268500
v 0.03044090 0.03046250 0.05790960
v 0.03338110 0.02926460 0.11268500
v 0.03432640 0.02887950 0.00000000
v 0.03355240 0.02919490 0.00000000
v 0.02732930 0.03173020 0.00000000
v 0.02251120 0.03329860 0.00000000
v 0.02572670 0.03237990 0.00000000
v 0.02655520 0.03204550 0.00000000
v 0.02750060 0.03166040 0.11268500
v 0.03209580 0.00016924 0.05790960
v 0.02893780 0.00016924 0.11268500
v 0.03525390 0.00016924 0.11268500
v 0.02792240 0.00016924 0.05790960
v 0.02792240 0.00016924 0.11268500
v 0.02792240 0.00016924 0.00000000
v 0.02875380 0.00016924 0.00000000
v 0.03543790 0.00016924 0.00000000
v 0.02691500 0.00045707 0.05790960
v 0.02772170 0.00022658 0.00000000
v 0.02610830 0.00074517 0.00000000
v 0.02590760 0.00081684 0.05790960
v 0.02590760 0.00081684 0.00000000
v 0.02615270 0.00072931 0.11268500
v 0.02590760 0.00081684 0.11268500
v 0.02281360 0.00117662 0.05790960
v 0.02515490 0.00090437 0.11268500
v 0.02529130 0.00088851 0.00000000
v 0.02027820 0.00152235 0.00000000
v 0.01964750 0.00160835 0.05654250
v 0.01964750 0.00160835 0.00000000
v 0.02032120 0.00151649 0.11268500
v 0.01964750 0.00160835 0.11268500
v 0.01855140 0.00153328 0.11268500
v 0.03770830 0.00168031 0.05790960
v 0.03886080 0.00289036 0.00000000
v 0.03655590 0.00047026 0.00000000
v 0.03626920 0.00016924 0.05790960
v 0.03626920 0.00016924 0.00000000
v 0.03661940 0.00053688 0.11268500
v 0.03626920 0.00016924 0.11268500
v 0.03914750 0.00319138 0.05790960
v 0.03914750 0.00319138 0.00000000
v 0.03914750 0.00319138 0.11268500
v 0.03879730 0.00282374 0.11268500
v 0.04123420 0.00319138 0.05790960
v 0.03965510 0.00319138 0.11268500
v 0.04281320 0.00319138 0.11268500
v 0.04332090 0.00319138 0.05790960
v 0.04332090 0.00319138 0.11268500
v 0.04290520 0.00319138 0.00000000
v 0.04332090 0.00319138 0.00000000
v 0.03956310 0.00319138 0.00000000
v 0.04648690 0.00362311 0.05790960
v 0.04395160 0.00327737 0.00000000
v 0.04896470 0.00396884 0.00000000
v 0.04958100 0.00405484 0.05790960
v 0.04958100 0.00405484 0.00000000
v 0.04958100 0.00405484 0.11268500
v 0.04882820 0.00394980 0.11268500
v 0.04409120 0.00329641 0.11268500
v 0.05274710 0.00405484 0.05790960
v 0.05035130 0.00405484 0.11268500
v 0.05514280 0.00405484 0.11268500
v 0.05591310 0.00405484 0.10302600
v 0.05591310 0.00405484 0.11268500
v 0.05274710 0.00405484 0.04431000
v 0.05591310 0.00405484 0.09230440
v 0.05591310 0.00405484 0.04431000
v 0.05591310 0.00405484 0.02552960
v 0.05513630 0.00405484 0.00000000
v 0.05591310 0.00405484 0.00000000
v 0.05035780 0.00405484 0.00000000
v 0.05527010 0.00547633 0.00000000
v 0.05799980 0.00484636 0.02552960
v 0.05692050 0.00448657 0.01351300
v 0.05922310 0.00535004 0.02481010
v 0.05987070 0.00549396 0.02445030
v 0.06123780 0.00578178 0.01595950
v 0.06116590 0.00570982 0.02164400
v 0.06533930 0.00628546 0.02164400
v 0.07123960 0.00700502 0.02445030
v 0.07793150 0.00779654 0.02279530
v 0.06318060 0.00599765 0.02070860
v 0.06152570 0.02851970 0.01595950
v 0.06008650 0.02866370 0.02445030
v 0.06145370 0.02851970 0.02164400
v 0.06555520 0.02772820 0.02164400
v 0.07138360 0.02664890 0.02445030
v 0.07800350 0.02535370 0.02711260
v 0.06535770 0.02750710 0.03062790
v 0.06535770 0.02750710 0.03121390
v 0.06535770 0.02750710 0.03128580
v 0.06535770 0.02750710 0.03211890
v 0.06535770 0.02750710 0.03228590
v 0.06535770 0.02750710 0.03316640
v 0.06535770 0.02750710 0.03342960
v 0.06535770 0.02750710 0.03434950
v 0.06535770 0.02750710 0.03470990
v 0.06535770 0.02750710 0.03566390
v 0.06535770 0.02750710 0.03612180
v 0.06535770 0.02750710 0.03710500
v 0.06535770 0.02750710 0.03766050
v 0.06535770 0.02750710 0.03866540
v 0.06535770 0.02750710 0.03931810
v 0.06535770 0.02750710 0.04033840
v 0.06535770 0.02750710 0.04108730
v 0.06535770 0.02750710 0.04211800
v 0.06535770 0.02750710 0.04296200
v 0.06535770 0.02750710 0.04399530
v 0.06535770 0.02750710 0.04493260
v 0.06535770 0.02750710 0.04596350
v 0.06535770 0.02750710 0.04699220
v 0.06535770 0.02750710 0.04801310
v 0.06535770 0.02750710 0.04905350
v 0.06535770 0.00593542 0.03257850
v 0.06535770 0.00593542 0.03255530
v 0.06535770 0.00593542 0.03467660
v 0.06535770 0.02750660 0.04913030
v 0.06535770 0.02749950 0.05012950
v 0.06535770 0.02749100 0.05132630
v 0.06535770 0.02748410 0.05230530
v 0.06535770 0.02747510 0.05358370
v 0.06535770 0.02746840 0.05453480
v 0.06535770 0.02745880 0.05589140
v 0.06535770 0.02745230 0.05680950
v 0.06535770 0.02744210 0.05824040
v 0.06535770 0.02743590 0.05911880
v 0.06535770 0.02742530 0.06061970
v 0.06535770 0.02741940 0.06145320
v 0.06535770 0.02740830 0.06301950
v 0.06535770 0.02740280 0.06380290
v 0.06535770 0.02739130 0.06543000
v 0.06535770 0.02738620 0.06615760
v 0.06535770 0.02737420 0.06784040
v 0.06535770 0.02736950 0.06850700
v 0.06535770 0.02735730 0.07024020
v 0.06535770 0.02735300 0.07084160
v 0.06535770 0.02734040 0.07261980
v 0.06535770 0.02733670 0.07315100
v 0.06535770 0.02732380 0.07496830
v 0.06535770 0.02732060 0.07542530
v 0.06535770 0.02730750 0.07727610
v 0.06535770 0.02730480 0.07765510
v 0.06535770 0.02729150 0.07953330
v 0.06535770 0.02728940 0.07983050
v 0.06535770 0.02727600 0.08172980
v 0.06535770 0.02727450 0.08194230
v 0.06535770 0.02726100 0.08385680
v 0.06535770 0.02726010 0.08398150
v 0.06535770 0.02724650 0.08590480
v 0.06535770 0.02724620 0.08593930
v 0.06535770 0.02724130 0.08663930
v 0.06535770 0.00579123 0.07141230
v 0.06535770 0.00579677 0.07056870
v 0.06535770 0.00578450 0.07243760
v 0.06535770 0.02609010 0.08698850
v 0.06535770 0.00577899 0.07327750
v 0.06535770 0.02421670 0.08742530
v 0.11557800 0.01959110 0.06273380
v 0.08910920 0.02363120 0.07533090
v 0.07800350 0.02535370 0.08060800
v 0.07540890 0.02579550 0.08182890
v 0.07800350 0.02535370 0.09028960
v 0.07224700 0.02643300 0.09252020
v 0.05943890 0.02873560 0.09331170
v 0.05591310 0.02859170 0.10302600
v 0.05943890 0.02873560 0.10302600
v 0.06116590 0.02859170 0.09374350
v 0.06116590 0.02859170 0.10273800
v 0.06116590 0.02851970 0.10266600
v 0.06123780 0.02859170 0.10273800
v 0.06152570 0.02851970 0.09424720
v 0.06138170 0.02859170 0.10273800
v 0.06152570 0.02851970 0.10273800
v 0.06526730 0.02780020 0.09921210
v 0.06030240 0.02866370 0.10288200
v 0.06123780 0.00578178 0.10273800
v 0.06505150 0.00621352 0.09921210
v 0.07159940 0.02657690 0.09762910
v 0.07145550 0.00700502 0.09762910
v 0.07800350 0.02535370 0.09453500
v 0.07793150 0.00779654 0.09453500
v 0.08922850 0.02362680 0.08913830
v 0.08915660 0.00966737 0.08913830
v 0.09484110 0.02276330 0.08575640
v 0.09469720 0.01053080 0.08575640
v 0.10074100 0.02182790 0.08302210
v 0.10059800 0.01146630 0.08302210
v 0.11390900 0.01981310 0.07539480
v 0.11376500 0.01362490 0.07539480
v 0.11729100 0.01420060 0.07309220
v 0.11736300 0.01930940 0.07309220
v 0.12103300 0.01851790 0.07057380
v 0.12096100 0.01456030 0.07057380
v 0.12405500 0.01787030 0.06755170
v 0.12405500 0.01492010 0.06755170
v 0.12556600 0.01751050 0.06546490
v 0.12563800 0.01506400 0.06546490
v 0.12657300 0.01715080 0.06416970
v 0.12664500 0.01506400 0.06416970
v 0.12794100 0.01671900 0.06021220
v 0.12808500 0.01506400 0.06021220
v 0.12866000 0.01650320 0.05733400
v 0.12880400 0.01506400 0.05733400
v 0.12866000 0.01650320 0.05517530
v 0.12880400 0.01506400 0.05517530
v 0.12664500 0.01506400 0.04862730
v 0.12657300 0.01715080 0.04862730
v 0.12563800 0.01506400 0.04733210
v 0.12556600 0.01751050 0.04733210
v 0.12412700 0.01492010 0.04546130
v 0.12412700 0.01779840 0.04546130
v 0.12081700 0.01456030 0.04265500
v 0.12088900 0.01851790 0.04265500
v 0.11729100 0.01420060 0.04100010
v 0.11736300 0.01930940 0.04100010
v 0.07944260 0.02513780 0.02344290
v 0.07937060 0.00801241 0.02344290
v 0.07800350 0.02535370 0.02279530
v 0.06339650 0.02815990 0.02070860
v 0.08966030 0.02355480 0.03164580
v 0.07800350 0.02535370 0.03657860
v 0.08775800 0.02384840 0.04121600
v 0.11326200 0.01988510 0.04279900
v 0.11736300 0.01930940 0.04481370
v 0.10748100 0.02078170 0.05058550
v 0.11093400 0.02029670 0.05224170
v 0.11540800 0.01961310 0.05437090
v 0.11700100 0.01936980 0.05513140
v 0.11872300 0.01901120 0.05593140
v 0.11736300 0.01930940 0.05530320
v 0.11986100 0.01876170 0.05646650
v 0.06535770 0.02231880 0.02944850
v 0.06535770 0.02421670 0.02976100
v 0.06535770 0.02040440 0.02925990
v 0.12060900 0.01859750 0.05682620
v 0.06535770 0.01848170 0.02919620
v 0.12113800 0.01848170 0.05708650
v 0.06535770 0.01655910 0.02925990
v 0.12152900 0.01839600 0.05728490
v 0.12182900 0.01833010 0.05744200
v 0.12206500 0.01827820 0.05757040
v 0.06535770 0.01464470 0.02944850
v 0.06535770 0.01274670 0.02976100
v 0.12225600 0.01823650 0.05767800
v 0.06535770 0.01087330 0.03019850
v 0.12241200 0.01820220 0.05776990
v 0.06535770 0.00903239 0.03075630
v 0.12254200 0.01817380 0.05784990
v 0.12556600 0.01751050 0.05790960
v 0.12265100 0.01814990 0.05792050
v 0.06535770 0.00723155 0.03143460
v 0.07159390 0.00685847 0.03502500
v 0.06535770 0.00593542 0.03202180
v 0.07793150 0.00779654 0.02711260
v 0.07793150 0.00779654 0.03811470
v 0.07835920 0.00786133 0.03832240
v 0.08049840 0.00821153 0.03934740
v 0.08789750 0.00941856 0.04289480
v 0.09572760 0.01069590 0.04670830
v 0.12282200 0.01811240 0.05804060
v 0.09666110 0.01084530 0.04716480
v 0.12288900 0.01809760 0.05809270
v 0.10183800 0.01169010 0.04974230
v 0.09719340 0.01093050 0.04743090
v 0.11311800 0.01355300 0.04279900
v 0.08951630 0.00966737 0.03164580
v 0.11729100 0.01420060 0.04481370
v 0.11729100 0.01420060 0.06863100
v 0.11477100 0.01380190 0.05828660
v 0.11480000 0.01380610 0.05859330
v 0.11476900 0.01380050 0.05890020
v 0.11467600 0.01378490 0.05921170
v 0.11452000 0.01375880 0.05953280
v 0.11429400 0.01372120 0.05986890
v 0.11398900 0.01367060 0.06022650
v 0.11359400 0.01360510 0.06061330
v 0.11309100 0.01352170 0.06103930
v 0.11245300 0.01341630 0.06151790
v 0.11164700 0.01328310 0.06206690
v 0.11128400 0.01322320 0.06229440
v 0.11064600 0.01312440 0.06270400
v 0.11039200 0.01308510 0.06285590
v 0.11635600 0.01405670 0.06942250
v 0.10933600 0.01291230 0.06347750
v 0.10759300 0.01262740 0.06444760
v 0.10521400 0.01223850 0.06571230
v 0.10181400 0.01168280 0.06745380
v 0.09661820 0.01083340 0.07003980
v 0.12288900 0.01809760 0.05909390
v 0.12282200 0.01811240 0.05914600
v 0.08783470 0.00939764 0.07431560
v 0.08777380 0.00938765 0.07434520
v 0.08994810 0.00973933 0.08438930
v 0.07987770 0.00809142 0.07812680
v 0.08030600 0.00815631 0.08935420
v 0.07793150 0.00779654 0.07907200
v 0.07492950 0.00735219 0.08053570
v 0.07793150 0.00779654 0.09028960
v 0.06992060 0.00648842 0.08291230
v 0.06535770 0.00570168 0.08505920
v 0.07210310 0.00707698 0.09252020
v 0.05922310 0.00535004 0.09331170
v 0.06087800 0.00570982 0.09374350
v 0.06836140 0.00664525 0.09475080
v 0.06123780 0.00578178 0.09424720
v 0.06426000 0.00614156 0.09626190
v 0.06217330 0.00585373 0.09547040
v 0.06095000 0.00570982 0.10281000
v 0.06109390 0.00578178 0.10281000
v 0.06008650 0.00556592 0.10295400
v 0.05922310 0.00535004 0.10302600
v 0.06095000 0.00570982 0.10302600
v 0.05366310 0.02290950 0.11268500
v 0.05542880 0.00734273 0.11268500
v 0.05325530 0.02530540 0.11268500
v 0.05249060 0.02739530 0.11268500
v 0.05249060 0.02833840 0.11268500
v 0.05123600 0.02866370 0.10302600
v 0.05123600 0.02866370 0.11268500
v 0.04894210 0.02848520 0.11268500
v 0.05545430 0.00548213 0.11268500
v 0.06535770 0.00570432 0.08465790
v 0.06535770 0.00723155 0.08575240
v 0.06535770 0.00570482 0.08458090
v 0.06535770 0.00570831 0.08404810
v 0.06535770 0.00570941 0.08388030
v 0.06535770 0.00903239 0.08643000
v 0.06535770 0.00571327 0.08329090
v 0.06535770 0.01087330 0.08698850
v 0.06535770 0.00571500 0.08303020
v 0.06535770 0.00571919 0.08238930
v 0.06535770 0.00572153 0.08203470
v 0.06535770 0.01274670 0.08742530
v 0.12225600 0.01823650 0.05950860
v 0.12206500 0.01827820 0.05961620
v 0.12182900 0.01833010 0.05974460
v 0.06535770 0.01464470 0.08773870
v 0.06535770 0.01655910 0.08792720
v 0.06535770 0.00573376 0.08016990
v 0.06535770 0.00573735 0.07962320
v 0.06535770 0.00572899 0.08089740
v 0.06535770 0.00572603 0.08134760
v 0.06535770 0.00574236 0.07886110
v 0.06535770 0.00574657 0.07821820
v 0.06535770 0.01848170 0.08799020
v 0.12113800 0.01848170 0.06010010
v 0.12060900 0.01859750 0.06036040
v 0.06535770 0.02040440 0.08792720
v 0.11986100 0.01876170 0.06072020
v 0.06535770 0.02231880 0.08773870
v 0.06535770 0.00575661 0.07668740
v 0.06535770 0.00575175 0.07742730
v 0.06535770 0.00576195 0.07587410
v 0.06535770 0.00576743 0.07503830
v 0.11872300 0.01901120 0.06125520
v 0.06535770 0.00577287 0.07420850
v 0.11736300 0.01930940 0.06863100
v 0.11736300 0.01930940 0.06188350
v 0.11675400 0.01941090 0.06217240
v 0.11650000 0.01945330 0.06942250
v 0.12132100 0.01844600 0.06517710
v 0.12405500 0.01779840 0.06193910
v 0.12152900 0.01839600 0.05990180
v 0.12585400 0.01743860 0.05589490
v 0.12556600 0.01751050 0.05380820
v 0.09224630 0.02316650 0.07383360
v 0.08037800 0.02499390 0.08935420
v 0.09009200 0.02348280 0.08438930
v 0.08012880 0.02502570 0.07959760
v 0.12241200 0.01820220 0.05941670
v 0.12254200 0.01817380 0.05933670
v 0.12265100 0.01814990 0.05926620
v 0.12274300 0.01812970 0.05920310
v 0.12294700 0.01808480 0.05904590
v 0.12299700 0.01807380 0.05900120
v 0.12304100 0.01806430 0.05895940
v 0.12307800 0.01805610 0.05891990
v 0.12311000 0.01804910 0.05888240
v 0.12313800 0.01804300 0.05884660
v 0.12316100 0.01803790 0.05881220
v 0.12318100 0.01803360 0.05877890
v 0.12319700 0.01803000 0.05874660
v 0.12321000 0.01802720 0.05871510
v 0.12322000 0.01802500 0.05868420
v 0.12322700 0.01802350 0.05865360
v 0.12323100 0.01802260 0.05862340
v 0.12323200 0.01802230 0.05859330
v 0.12323100 0.01802260 0.05856320
v 0.12322700 0.01802350 0.05853300
v 0.11468200 0.01378760 0.05797530
v 0.12322000 0.01802500 0.05850250
v 0.12321000 0.01802720 0.05847150
v 0.11452900 0.01376290 0.05765470
v 0.11430600 0.01372680 0.05731930
v 0.12319700 0.01803000 0.05844000
v 0.11400500 0.01367790 0.05696260
v 0.11361400 0.01361430 0.05657720
v 0.12318100 0.01803360 0.05840770
v 0.12316100 0.01803790 0.05837440
v 0.12313800 0.01804300 0.05834000
v 0.11311600 0.01353310 0.05615290
v 0.11248500 0.01343010 0.05567670
v 0.11168700 0.01329990 0.05513100
v 0.12311000 0.01804910 0.05830420
v 0.12307800 0.01805610 0.05826670
v 0.12304100 0.01806430 0.05822730
v 0.11066900 0.01313370 0.05448970
v 0.10935200 0.01291840 0.05371440
v 0.10761100 0.01263390 0.05274560
v 0.12299700 0.01807380 0.05818540
v 0.10523500 0.01224540 0.05148250
v 0.12294700 0.01808480 0.05814080
v 0.12124900 0.01463230 0.06517710
v 0.12405500 0.01492010 0.06193910
v 0.11901800 0.01441640 0.04567720
v 0.12247200 0.01470430 0.04826760
v 0.12376700 0.01484820 0.04999450
v 0.12556600 0.01506400 0.05380820
v 0.12563800 0.01506400 0.05790960
v 0.12585400 0.01506400 0.05589490
v 0.12274300 0.01812970 0.05798350
v 0.12376700 0.01787030 0.04999450
v 0.12254400 0.01815810 0.04826760
v 0.11909000 0.01887770 0.04567720
v 0.06535770 0.02609010 0.03019850
v 0.06857730 0.02715260 0.09475080
v 0.06447580 0.02794410 0.09626190
v 0.06246110 0.02837580 0.09547040
v 0.06116590 0.02859170 0.10302600
v 0.06535770 0.00580409 0.06945150
v 0.06535770 0.00580962 0.06861030
v 0.06535770 0.00581754 0.06740270
v 0.06535770 0.00582300 0.06657040
v 0.06535770 0.00583150 0.06527480
v 0.06535770 0.00583685 0.06445770
v 0.06535770 0.00584592 0.06307750
v 0.06535770 0.00585114 0.06228160
v 0.06535770 0.00586073 0.06081930
v 0.06535770 0.00586577 0.06005090
v 0.06535770 0.00587589 0.05851080
v 0.06535770 0.00588071 0.05777590
v 0.06535770 0.00589130 0.05616120
v 0.06535770 0.00589586 0.05546560
v 0.06535770 0.00590692 0.05378060
v 0.06535770 0.00591119 0.05313000
v 0.06535770 0.00592267 0.05138010
v 0.06535770 0.00592661 0.05078000
v 0.06535770 0.00593542 0.04943610
v 0.06535770 0.00593542 0.04896660
v 0.06535770 0.00593542 0.04841980
v 0.06535770 0.00593542 0.04654270
v 0.06535770 0.00593542 0.04605800
v 0.06535770 0.00593542 0.04413000
v 0.06535770 0.00593542 0.04371190
v 0.06535770 0.00593542 0.04173800
v 0.06535770 0.00593542 0.04139110
v 0.06535770 0.00593542 0.03937590
v 0.06535770 0.00593542 0.03910450
v 0.06535770 0.00593542 0.03705580
v 0.06535770 0.00593542 0.03686370
v 0.06535770 0.00593542 0.03478570
v 0.05943890 0.02873560 0.02481010
v 0.05807180 0.02866370 0.01336910
v 0.05792790 0.00484636 0.01336910
v 0.05021170 0.00405484 0.00000000
v 0.02767730 0.00023927 0.11268500
v 0.05123600 0.02816000 0.00000000
v 0.01021450 0.00101634 0.11268500
v 0.02210420 0.03341490 0.00000000
v 0.01429850 0.03661540 0.00000000
v 0.00533527 0.03773550 0.00000000
v 0.00446489 0.03780200 0.05639860
v 0.00452345 0.03780200 0.00000000
v 0.00446489 0.03780200 0.11268500
v 0.00529019 0.03773440 0.11268500
v 0.00352947 0.03823370 0.05632660
v 0.00434919 0.03788240 0.00000000
v 0.00270927 0.03858530 0.11268500
v 0.00288347 0.03850490 0.11268500
v 0.00000000 0.03963530 0.00000000
v 0.00000000 0.03964940 0.03796170
v 0.00000000 0.03963830 0.05657870
v 0.00000000 0.00551620 0.11268500
v 0.00000000 0.00299014 0.11268500
v 0.00000000 0.00281564 0.11268500
v 0.00000000 0.00182523 0.11268500
v 0.00000000 0.00154617 0.11268500
v 0.00000000 0.01323770 0.00000000
v 0.00000000 0.01288880 0.00000000
v 0.00000000 0.01156580 0.00000000
v 0.00000000 0.01054310 0.00000000
vn -0.26072491 -0.65772093 -0.70670058
vn 0.46597213 -0.68498060 -0.56006389
vn 0.56135615 -0.82757425 0.00036266
vn -0.20229289 -0.97932505 0.00019020
vn -0.05788075 -0.70387872 0.70795802
vn -0.14517320 -0.71825780 0.68046343
vn -0.34528861 -0.93849563 0.00131537
vn -0.24565516 -0.66991298 0.70062125
vn -0.14845555 -0.71677374 -0.68131957
vn -0.22990052 -0.67091794 -0.70499281
vn -0.08378968 -0.99648346 0.00009080
vn -0.05936499 -0.70513630 -0.70658233
vn -0.25187722 -0.66646017 -0.70170415
vn -0.32471938 -0.94580144 0.00411906
vn -0.22669957 -0.65837360 -0.71774056
vn -0.32487064 -0.94575425 0.00282099
vn -0.23223691 -0.68088571 -0.69459389
vn -0.37555309 -0.92680085 -0.00024554
vn -0.26186642 -0.65574836 -0.70811021
vn -0.26364998 -0.65742791 -0.70588755
vn -0.07505957 0.70371988 -0.70650151
vn -0.05406060 0.99853104 0.00363450
vn 0.54932859 0.60890858 -0.57224859
vn 0.66973408 0.74260098 -0.00020681
vn -0.08223310 0.99661312 -0.00000002
vn -0.05764254 0.69859312 -0.71319352
vn -0.04254221 0.71593358 0.69687106
vn -0.05764543 0.69859272 0.71319368
vn 0.70549312 0.70869502 0.00555217
vn 0.57657081 0.57630513 0.57917053
vn 0.70745019 0.70674465 0.00512089
vn 0.70745089 0.70674398 0.00511716
vn -0.06190296 0.99808217 -0.00000025
vn -0.04144856 0.70653992 0.70645832
vn -0.04621057 0.70623550 0.70646727
vn -0.37941477 -0.87463141 0.30176867
vn -0.68352825 -0.16970551 0.70992195
vn -0.69944101 -0.09280822 0.70863877
vn -0.56376862 0.79142145 0.23625629
vn -0.70835574 -0.04851246 0.70418654
vn -0.52170549 0.77081910 0.36559717
vn -0.14508180 -0.77806685 0.61119820
vn -0.52121790 0.63566899 0.56943555
vn -0.25817407 -0.71582333 0.64880128
vn -0.24038555 -0.12813262 0.96218336
vn 0.15598669 -0.98775916 -0.00000000
vn 0.11030232 -0.99389808 0.00000000
vn -0.02639251 -0.99936950 -0.02374958
vn 0.04542180 -0.99858933 0.02749910
vn 0.15598669 -0.98775916 0.00000000
vn -0.38545743 -0.87104362 -0.30447591
vn -0.02724652 -0.99962874 0.00000000
vn -0.10561724 -0.99440289 0.00281004
vn 0.00070764 -0.99999899 0.00123248
vn 0.04356736 -0.99903675 0.00523926
vn 0.04666043 -0.99890595 0.00311516
vn -0.00000027 -1.00000000 -0.00000047
vn 0.00000000 -0.70710678 -0.70710678
vn 0.03391065 -0.69551595 -0.71770999
vn -0.03482568 -0.99939340 -0.00000054
vn -0.02437875 -0.69865753 -0.71504079
vn -0.06882157 -0.99762898 -0.00000014
vn -0.04898364 -0.70550394 -0.70701117
vn -0.02434030 -0.69867250 0.71502747
vn -0.04894104 -0.70549516 0.70702288
vn -0.04837045 -0.70553251 0.70702487
vn -0.55454231 -0.58119538 0.59556255
vn -0.62089762 -0.11459926 0.77546964
vn 0.00000000 -0.70710739 0.70710617
vn 0.00000000 -0.70710739 0.70710617
vn -0.06879547 -0.99763079 0.00000009
vn -0.04866642 -0.70541866 0.70711816
vn -0.04866869 -0.70544181 0.70709491
vn -0.06841618 -0.99765687 -0.00000009
vn -0.04839302 -0.70535257 0.70720285
vn -0.04864069 -0.70542878 -0.70710984
vn -0.04835095 -0.70536419 -0.70719413
vn -0.04836464 -0.70553669 -0.70702111
vn -0.04864093 -0.70543499 -0.70710362
vn -0.22589731 -0.97415112 0.00000004
vn -0.15078902 -0.65031995 -0.74454458
vn -0.37729256 -0.92609412 -0.00000036
vn -0.26678347 -0.65484528 -0.70710978
vn -0.15085175 -0.65030722 0.74454299
vn -0.26681639 -0.65484579 0.70709689
vn -0.26676404 -0.65486588 0.70709803
vn -0.19363182 -0.67767547 0.70941009
vn -0.23455471 -0.67806574 0.69657084
vn -0.26583019 -0.65562183 0.70674912
vn -0.26677455 -0.65486040 -0.70709914
vn 0.00000000 1.00000000 0.00000000
vn 0.00000000 0.70710678 -0.70710678
vn 0.00000000 0.70710678 -0.70710678
vn 0.13870185 0.99033418 -0.00000001
vn 0.10206077 0.72870538 -0.67717950
vn 0.10205379 0.72870460 0.67718138
vn 0.00000000 0.70710678 0.70710678
vn 0.00000000 0.70710678 0.70710678
vn 0.30568288 0.95213338 -0.00000002
vn 0.20627327 0.68007372 0.70352759
vn 0.22833896 0.67290205 0.70360795
vn 0.22738030 0.97380604 0.00000001
vn 0.15453389 0.66184956 0.73353557
vn 0.22834410 0.67290298 -0.70360539
vn 0.15453796 0.66184600 -0.73353793
vn 0.12531349 0.99211720 -0.00000024
vn 0.08528845 0.70302073 -0.70603664
vn 0.08521971 0.70300811 0.70605751
vn 0.09234652 0.70207959 0.70608524
vn 0.03356305 0.99943660 -0.00000003
vn 0.02290957 0.68226173 0.73074899
vn 0.09241237 0.70204700 -0.70610903
vn 0.02291015 0.68226316 -0.73074763
vn -0.04618784 0.70624225 -0.70646201
vn -0.72412948 0.68966404 0.00000021
vn -0.51203322 0.48766756 0.70710843
vn -0.51203593 0.48767009 0.70710472
vn -0.39392144 0.91914411 0.00000025
vn -0.30646101 0.71509959 0.62826286
vn -0.51203221 0.48768901 -0.70709436
vn -0.30643378 0.71510605 -0.62826880
vn -0.39390563 0.91915089 -0.00000001
vn -0.23241578 0.54232212 0.80738444
vn -0.23240194 0.54234123 -0.80737558
vn -0.51201348 0.48767236 -0.70711941
vn 0.00000000 1.00000000 0.00000000
vn 0.00000000 0.70710678 -0.70710678
vn 0.00000000 0.70710678 -0.70710678
vn -0.06771240 0.99770488 0.00000005
vn -0.04886439 0.72006817 -0.69218069
vn 0.00000000 0.70710678 0.70710678
vn -0.04886150 0.72006768 0.69218140
vn 0.00000000 0.70710678 0.70710678
vn -0.13665445 0.99061878 0.00000003
vn -0.09607793 0.70071500 0.70694237
vn -0.09720937 0.70056059 0.70694073
vn -0.06926361 0.99759839 -0.00000002
vn -0.04785115 0.68915189 0.72303523
vn -0.04784786 0.68915332 -0.72303409
vn -0.09720599 0.70055986 -0.70694192
vn -0.09608135 0.70071338 -0.70694352
vn 0.00000000 1.00000000 0.00000000
vn 0.00000000 0.70710678 -0.70710678
vn 0.00000000 0.70710678 -0.70710678
vn -0.41954353 0.86898191 -0.26239983
vn -0.66799953 0.48693583 -0.56273452
vn 0.00000000 1.00000000 0.00000000
vn -0.12702578 0.99142831 -0.03056730
vn -0.18028369 0.98361466 0.00000000
vn -0.18028369 0.98361466 0.00000000
vn 0.00000000 0.70710678 0.70710678
vn -0.69716238 0.44981378 0.55824025
vn 0.00000000 0.70710678 0.70710678
vn -0.62984651 -0.12542542 0.76652582
vn -0.28714279 0.95728292 0.03403576
vn 0.13854292 0.76325797 -0.63106508
vn 0.07677982 0.79121946 0.60669319
vn -0.15469241 0.97449934 0.16254631
vn -0.39016115 0.66019758 0.64180483
vn -0.13880063 0.99025353 0.01150320
vn -0.12446738 0.99219211 -0.00791750
vn -0.13441766 0.98996493 0.04360434
vn -0.36865179 0.67855193 0.63534489
vn -0.13072348 0.99139718 0.00655697
vn -0.35023016 -0.69037688 0.63302339
vn -0.15362105 -0.98125686 -0.11634235
vn -0.15323961 -0.98806542 -0.01563158
vn -0.18243971 -0.98300743 -0.02030136
vn -0.17637978 -0.98380910 -0.03177774
vn -0.16451699 -0.98636740 -0.00367670
vn -0.38686915 -0.88717906 -0.25148673
vn -0.76415870 -0.64502827 0.00000000
vn -0.76415870 -0.64502827 0.00000000
vn -0.76415870 -0.64502827 0.00000000
vn -0.76415870 -0.64502827 0.00000000
vn -0.76415870 -0.64502827 0.00000000
vn -0.76415870 -0.64502827 0.00000000
vn -0.76415870 -0.64502827 0.00000000
vn -0.76415870 -0.64502827 0.00000000
vn -0.76415870 -0.64502827 0.00000000
vn -0.76415870 -0.64502827 0.00000000
vn -0.76415870 -0.64502827 0.00000000
vn -0.76415870 -0.64502827 0.00000000
vn -0.76415870 -0.64502827 0.00000000
vn -0.76415870 -0.64502827 0.00000000
vn -0.76415870 -0.64502827 0.00000000
vn -0.76415870 -0.64502827 0.00000000
vn -0.76415870 -0.64502827 0.00000000
vn -0.76415870 -0.64502827 0.00000000
vn -0.76415870 -0.64502827 0.00000000
vn -0.76415870 -0.64502827 0.00000000
vn -0.76415870 -0.64502827 0.00000000
vn -0.76415870 -0.64502827 0.00000000
vn -0.76415870 -0.64502827 0.00000000
vn -0.75742059 -0.65291597 -0.00384403
vn -0.75710541 0.65329274 0.00000000
vn -0.75710541 0.65329274 0.00000000
vn -0.75710541 0.65329274 0.00000000
vn -0.75681603 -0.65361171 -0.00460726
vn -0.75682160 -0.65360501 -0.00464229
vn -0.75688382 -0.65353320 -0.00460922
vn -0.75689315 -0.65352245 -0.00460127
vn -0.75688761 -0.65352885 -0.00460353
vn -0.75684634 -0.65357650 -0.00462340
vn -0.75684193 -0.65358159 -0.00462709
vn -0.75677450 -0.65365944 -0.00465722
vn -0.75687639 -0.65354175 -0.00461608
vn -0.75687010 -0.65354904 -0.00461546
vn -0.75684494 -0.65357810 -0.00462572
vn -0.75683192 -0.65359314 -0.00463152
vn -0.75694188 -0.65346608 -0.00459042
vn -0.75686179 -0.65355865 -0.00461737
vn -0.75696531 -0.65343900 -0.00458238
vn -0.75674598 -0.65369246 -0.00465697
vn -0.75689681 -0.65351815 -0.00461061
vn -0.75691904 -0.65349247 -0.00460034
vn -0.75669886 -0.65374691 -0.00467055
vn -0.75682798 -0.65359769 -0.00463340
vn -0.75707949 -0.65330690 -0.00455437
vn -0.75679832 -0.65363202 -0.00463556
vn -0.75700948 -0.65338785 -0.00457808
vn -0.75684161 -0.65358198 -0.00462378
vn -0.75673608 -0.65370393 -0.00465565
vn -0.75683500 -0.65358959 -0.00462947
vn -0.75687162 -0.65354726 -0.00461836
vn -0.75689742 -0.65351743 -0.00461101
vn -0.75688846 -0.65352779 -0.00461304
vn -0.75690691 -0.65350646 -0.00460836
vn -0.75647762 -0.65400258 -0.00471585
vn -0.75685677 -0.65356441 -0.00462524
vn -0.75248178 -0.65858853 -0.00568601
vn -0.75705065 -0.65333989 -0.00461574
vn -0.36683836 -0.89601965 0.25015677
vn -0.76386077 0.64536717 0.00423625
vn -0.76386697 0.64535982 0.00423763
vn -0.76385352 0.64537577 0.00423398
vn -0.51795574 0.22138875 0.82626199
vn -0.76388054 0.64534373 0.00424179
vn -0.51796007 0.16688977 0.83896673
vn 0.24445039 -0.64906464 0.72038816
vn 0.25898556 -0.62314860 0.73797852
vn 0.24990771 -0.62559215 0.73904032
vn 0.24848347 -0.63134884 0.73461187
vn -0.15593896 -0.98775509 0.00478708
vn -0.16233081 -0.98417673 0.07102724
vn -0.06781957 -0.96345676 0.25913621
vn 0.06815749 -0.71460190 -0.69620305
vn -0.20134072 -0.66316445 -0.72088475
vn -0.14440617 -0.98088428 0.13043349
vn -0.12690681 0.94668949 -0.29609739
vn -0.35510135 -0.91937374 0.16927776
vn 0.60220310 0.17914270 0.77798414
vn -0.19290205 -0.98121801 -0.00010073
vn -0.23503070 -0.82888641 -0.50764937
vn -0.85117240 0.36603481 -0.37619683
vn -0.40857281 -0.71239304 -0.57058252
vn 0.06978651 0.99449465 -0.07816795
vn -0.35098710 0.65296431 -0.67115249
vn -0.39165333 0.74764300 -0.53631857
vn -0.35926230 -0.65116883 -0.66851310
vn -0.31650127 0.66723482 -0.67425859
vn -0.41509090 -0.66746406 -0.61821621
vn -0.38870749 0.68494832 -0.61624044
vn -0.43014160 -0.66411604 -0.61149660
vn -0.43643070 0.65699904 -0.61471985
vn -0.42311740 -0.68681429 -0.59098037
vn -0.42873408 0.68666097 -0.58709778
vn -0.42537508 -0.65429535 -0.62526286
vn -0.42009633 0.67266092 -0.60913575
vn -0.46567242 -0.65839432 -0.59132573
vn -0.46453228 0.66913860 -0.58005455
vn -0.47720958 0.66975924 -0.56894075
vn -0.49099800 -0.66778584 -0.55944886
vn -0.57041941 -0.62494835 -0.53297397
vn -0.50928060 0.67097279 -0.53891446
vn -0.64518143 -0.62497211 -0.43948923
vn -0.59567227 0.65764062 -0.46117607
vn -0.66155318 -0.64918854 -0.37536866
vn -0.60553454 0.67178265 -0.42665676
vn -0.76516328 -0.55683571 -0.32320141
vn -0.66037764 0.66055072 -0.35717519
vn -0.77176191 -0.60969819 -0.18069773
vn -0.71522784 0.66453817 -0.21642127
vn -0.79059155 -0.60725051 -0.07881511
vn -0.75952442 0.64383781 -0.09271210
vn -0.79673849 -0.59523326 0.10442776
vn -0.76187461 0.63629664 0.12113496
vn -0.66711371 0.65804497 0.34919352
vn -0.76863717 -0.55557106 0.31707680
vn -0.60274052 0.66773586 0.43684400
vn -0.65045947 -0.65161561 0.39025577
vn -0.57731336 0.65007726 0.49407372
vn -0.62682767 -0.61696445 0.47585917
vn -0.44912275 0.66021403 0.60200182
vn -0.51288187 -0.62060550 0.59312814
vn -0.38492131 0.67722925 0.62705353
vn -0.40420467 -0.67844157 0.61346200
vn -0.38590481 -0.68218764 0.62104550
vn -0.38000305 0.69024118 0.61576359
vn -0.39213336 -0.66414310 0.63651031
vn -0.18737705 -0.98225908 -0.00754539
vn -0.15158851 -0.98844169 -0.00198738
vn 0.24986055 -0.62570090 -0.73896420
vn 0.25314100 -0.62661408 -0.73707152
vn -0.14581521 -0.98930450 -0.00381256
vn -0.18504480 -0.98272888 0.00154088
vn 0.25734167 -0.62709245 -0.73520768
vn 0.25840855 -0.63006734 -0.73228421
vn 0.24470931 -0.64917291 -0.72020267
vn 0.23703421 -0.65193654 -0.72027323
vn 0.18851458 -0.67303772 -0.71518003
vn 0.20859284 -0.65359558 -0.72753134
vn 0.18140218 -0.69548357 -0.69526675
vn -0.51801272 0.11147777 -0.84807755
vn -0.51786277 0.16685720 -0.83903327
vn -0.51800175 0.05612024 -0.85353659
vn 0.17609932 -0.71471130 -0.67688757
vn -0.51786289 0.00000086 -0.85546363
vn 0.17000207 -0.73677785 -0.65441400
vn -0.51800331 -0.05612218 -0.85353551
vn 0.16470808 -0.75638515 -0.63305036
vn 0.15939403 -0.77710997 -0.60884615
vn 0.15667095 -0.79358523 -0.58794276
vn -0.51801374 -0.11147473 -0.84807733
vn -0.51786219 -0.16685252 -0.83903455
vn 0.15159903 -0.81263979 -0.56270268
vn -0.51803527 -0.22139620 -0.82621013
vn 0.14893633 -0.82890466 -0.53919851
vn -0.51788911 -0.27494755 -0.81005846
vn 0.14498372 -0.84593581 -0.51319814
vn -0.22790657 -0.97368251 -0.00098173
vn 0.14165025 -0.86207433 -0.48658304
vn -0.51799071 -0.32742442 -0.79023976
vn 0.28177824 0.58107534 -0.76351324
vn -0.39602450 0.88078223 -0.25959056
vn -0.14797339 0.98898237 0.00421280
vn 0.29496231 0.55478778 -0.77795100
vn 0.28497351 0.56045034 -0.77761528
vn 0.28255133 0.55867325 -0.77977493
vn 0.28273887 0.55888908 -0.77955226
vn 0.30094311 0.53306735 -0.79074171
vn 0.13552924 -0.89195791 -0.43132693
vn 0.30165020 0.53299918 -0.79051820
vn 0.13368825 -0.90387259 -0.40637641
vn 0.31425419 0.51287615 -0.79887568
vn 0.30666560 0.53104728 -0.78990189
vn -0.15789819 0.98744947 -0.00342104
vn -0.15287054 0.98806401 -0.01897634
vn -0.13284790 0.99113386 -0.00226027
vn -0.13219993 0.99122261 -0.00095535
vn 0.92745579 0.31751840 -0.19750400
vn 0.94774108 0.31900242 0.00492959
vn 0.92477249 0.31773968 0.20937370
vn 0.86802257 0.31665120 0.38245110
vn 0.79299537 0.31938698 0.51879697
vn 0.71531846 0.32522300 0.61850586
vn 0.64459696 0.33446111 0.68748129
vn 0.58225509 0.34722643 0.73512775
vn 0.52715640 0.36350423 0.76809557
vn 0.48189242 0.38091618 0.78910237
vn 0.44169201 0.40112852 0.80249865
vn 0.44457017 0.40251835 0.80021019
vn 0.41800856 0.42477680 0.80301526
vn 0.41199773 0.42110349 0.80804066
vn -0.15667613 0.98764978 -0.00070346
vn 0.38106312 0.44372442 0.81111006
vn 0.35586780 0.46613900 0.80998305
vn 0.33371826 0.48919594 0.80580360
vn 0.31468865 0.51197162 0.79928475
vn 0.29759439 0.53539504 0.79043642
vn 0.13489387 -0.90279806 0.40836174
vn 0.13535004 -0.89218287 0.43091774
vn 0.29639378 0.53648025 0.79015168
vn 0.28214961 0.55843793 0.78008889
vn -0.16269872 0.98666325 -0.00497501
vn 0.28533749 0.55964043 0.77806498
vn -0.15935212 0.98721493 -0.00368476
vn 0.29484830 0.55511183 0.77776304
vn 0.28787908 0.55432010 0.78093205
vn -0.14950339 0.98874632 -0.00542639
vn 0.26312072 0.57936399 0.77143040
vn -0.41463741 0.87186113 0.26064148
vn -0.14745230 0.98584869 -0.07975073
vn -0.23467086 0.93223461 -0.27544188
vn -0.16573230 0.97904318 -0.11835223
vn -0.12006871 0.99275957 -0.00345569
vn -0.14898460 0.98865599 -0.01905073
vn -0.12904222 0.99158363 0.01048869
vn 0.51715274 0.73183679 -0.44381073
vn -0.24285211 0.18630969 -0.95200397
vn -0.07240621 0.29304502 0.95335301
vn 0.07444622 0.29530556 0.95249797
vn -0.24560033 0.63657234 -0.73106506
vn 0.30937992 0.04286494 0.94997193
vn -0.69945560 -0.09281642 -0.70862330
vn -0.70729164 -0.05226734 -0.70498699
vn -0.68358226 -0.16975469 -0.70985818
vn -0.62096557 -0.11462031 -0.77541212
vn -0.61638926 -0.50025733 -0.60811749
vn -0.07643821 -0.99707013 0.00289123
vn -0.06511658 -0.73786400 -0.67180098
vn 0.06463014 -0.70788926 -0.70336033
vn -0.65386097 -0.09751769 -0.75030402
vn -0.76389925 0.64532157 0.00424313
vn -0.51794404 -0.32732159 0.79031294
vn -0.76368461 0.64557589 0.00419352
vn -0.76382764 0.64540643 0.00422774
vn -0.76384042 0.64539128 0.00423065
vn -0.51797096 -0.27493484 0.81001044
vn -0.76382448 0.64541017 0.00422911
vn -0.51795116 -0.22140676 0.82626003
vn -0.76403862 0.64515633 0.00427864
vn -0.76379763 0.64544199 0.00422134
vn -0.76394627 0.64526582 0.00425676
vn -0.51795892 -0.16688579 0.83896823
vn 0.14899862 -0.81632577 0.55804270
vn 0.15872432 -0.79021476 0.59191825
vn 0.16227698 -0.77349526 0.61267550
vn -0.51795046 -0.11165179 0.84809269
vn -0.51796404 -0.05594820 0.85357076
vn -0.76384453 0.64538641 0.00423188
vn -0.76386776 0.64535888 0.00423807
vn -0.76388740 0.64533561 0.00424249
vn -0.76382648 0.64540780 0.00422765
vn -0.76388454 0.64533900 0.00424169
vn -0.76382658 0.64540770 0.00422645
vn -0.51794870 0.00000104 0.85541168
vn 0.16998718 -0.73648627 0.65474600
vn 0.17612768 -0.71469726 0.67689502
vn -0.51796261 0.05594574 0.85357180
vn 0.18133134 -0.69571009 0.69505857
vn -0.51794973 0.11165508 0.84809270
vn -0.76387087 0.64535520 0.00423891
vn -0.76382892 0.64540492 0.00422764
vn -0.76386518 0.64536195 0.00423707
vn -0.76384532 0.64538549 0.00423151
vn 0.18858314 -0.67283285 0.71535471
vn -0.76384362 0.64538749 0.00423158
vn -0.18900977 -0.98197519 0.00019790
vn 0.20757205 -0.65550289 0.72610592
vn 0.23712256 -0.65133964 0.72078400
vn -0.15736323 -0.98754017 -0.00111162
vn -0.18926820 -0.98141344 0.03170503
vn -0.21474354 -0.97665311 -0.00582466
vn 0.16192943 -0.76077413 0.62849152
vn -0.30762546 -0.95150749 0.00026361
vn -0.25613045 -0.96663140 0.00457546
vn 0.25474332 -0.62696461 0.73622090
vn -0.14893821 -0.98883363 0.00504593
vn -0.16521586 -0.98594567 -0.02479644
vn 0.25507416 -0.62256104 0.73983439
vn 0.14958347 -0.82760800 0.54100812
vn 0.14370150 -0.84718800 0.51149034
vn 0.14138448 -0.86259891 0.48572991
vn 0.13942058 -0.87574318 0.46220751
vn 0.13190513 -0.91598339 0.37891354
vn 0.13053601 -0.92586212 0.35459791
vn 0.12479088 -0.94024342 0.31681153
vn 0.12609290 -0.94791205 0.29251208
vn 0.12448024 -0.95577288 0.26646366
vn 0.12013265 -0.96526273 0.23202588
vn 0.12209515 -0.97055280 0.20765367
vn 0.11736831 -0.97752859 0.17510722
vn 0.11864838 -0.98181514 0.14819441
vn 0.11639367 -0.98618815 0.11783651
vn 0.11516088 -0.98941966 0.08824232
vn 0.11420859 -0.99179000 0.05752379
vn 0.11380474 -0.99310607 0.02808582
vn 0.11689535 -0.99314421 0.00022691
vn 0.11326941 -0.99316386 -0.02820623
vn 0.11423154 -0.99177074 -0.05780959
vn 0.87035735 0.31921412 -0.37494058
vn 0.11542969 -0.98939331 -0.08818655
vn 0.11660206 -0.98615762 -0.11788603
vn 0.79601753 0.32092495 -0.51318931
vn 0.71895661 0.32655224 -0.61356747
vn 0.11822686 -0.98195914 -0.14757593
vn 0.64714369 0.33620105 -0.68423234
vn 0.58469467 0.34885118 -0.73241723
vn 0.11770979 -0.97735963 -0.17581966
vn 0.12191364 -0.97068257 -0.20715313
vn 0.12030252 -0.96515016 -0.23240583
vn 0.52982555 0.36473784 -0.76567042
vn 0.48331992 0.38264215 -0.78739243
vn 0.44385185 0.40215306 -0.80079239
vn 0.12469383 -0.95571402 -0.26657487
vn 0.12532978 -0.94823304 -0.29179880
vn 0.12613896 -0.93931903 -0.31901210
vn 0.41009636 0.42275847 -0.80814371
vn 0.38064738 0.44472286 -0.81075838
vn 0.35556136 0.46694475 -0.80965346
vn 0.13021103 -0.92634802 -0.35344652
vn 0.33344631 0.48992253 -0.80547469
vn 0.13136987 -0.91612900 -0.37874743
vn -0.10498401 0.99447277 0.00150288
vn -0.09686030 0.99529791 -0.00039353
vn -0.10774494 0.99417178 -0.00367348
vn -0.08221716 0.99643941 -0.01867729
vn -0.09969250 0.99497823 -0.00892913
vn -0.05071067 0.99871339 -0.00000310
vn -0.04726471 0.99888231 -0.00043151
vn 0.00000000 1.00000000 0.00000000
vn 0.13918808 -0.87591616 -0.46194974
vn -0.21583032 -0.97640717 0.00680513
vn -0.21441365 -0.97671741 -0.00706375
vn -0.26305085 -0.96245089 0.06702634
vn -0.51803195 0.22140683 -0.82620936
vn -0.19012681 -0.98175685 0.00229934
vn -0.19934590 -0.97991301 0.00563091
vn 0.34215982 -0.86459968 -0.36795932
vn 0.21966928 0.05387797 0.97408551
vn -0.76383814 0.64539400 0.00422944
vn -0.76387908 0.64534546 0.00424192
vn -0.76385064 0.64537918 0.00423276
vn -0.76385362 0.64537564 0.00423377
vn -0.76385457 0.64537452 0.00423359
vn -0.76383229 0.64540093 0.00422673
vn -0.76387211 0.64535372 0.00424043
vn -0.76385145 0.64537822 0.00423277
vn -0.76385074 0.64537906 0.00423254
vn -0.76385211 0.64537743 0.00423361
vn -0.76386968 0.64535659 0.00424008
vn -0.76385239 0.64537710 0.00423283
vn -0.76385209 0.64537746 0.00423256
vn -0.76384815 0.64538214 0.00423121
vn -0.76385877 0.64536954 0.00423604
vn -0.76385802 0.64537043 0.00423553
vn -0.76385471 0.64537435 0.00423420
vn -0.76386048 0.64536751 0.00423662
vn -0.76387043 0.64535831 0.00382312
vn -0.75710541 0.65329274 0.00000000
vn -0.75710541 0.65329274 0.00000000
vn -0.75710541 0.65329274 0.00000000
vn -0.75710541 0.65329274 0.00000000
vn -0.75710541 0.65329274 0.00000000
vn -0.75710541 0.65329274 0.00000000
vn -0.75710541 0.65329274 0.00000000
vn -0.75710541 0.65329274 0.00000000
vn -0.75710541 0.65329274 0.00000000
vn -0.75710541 0.65329274 0.00000000
vn -0.75710541 0.65329274 0.00000000
vn -0.75710541 0.65329274 0.00000000
vn -0.75710541 0.65329274 0.00000000
vn -0.36191337 -0.71079457 -0.60314990
vn 0.47695478 0.00217995 -0.87892513
vn -0.47490915 -0.20496374 0.85583361
vn 0.00000000 0.70710678 0.70710678
vn 0.20627750 0.68006987 -0.70353008
vn -0.00000137 -0.70710851 0.70710506
vn -0.04142389 0.70653435 -0.70646534
vn -0.22608233 -0.65454356 0.72142880
vn -0.26596485 -0.65499071 0.70728344
vn -0.05920393 -0.70508811 0.70664393
vn -0.25423218 -0.96714319 -0.00024142
vn -0.16849984 -0.64142066 0.74845664
vn -0.16452495 -0.64435980 -0.74681456
vn -0.05774854 -0.70475320 -0.70709832
vn -0.39466575 -0.91882474 -0.00023328
vn -0.28269609 -0.65409493 0.70160013
vn -0.28113023 -0.65529317 -0.70111102
vn -0.29116250 -0.64253603 -0.70878195
vn 0.46367364 -0.68663399 0.55994689
vn 0.55954241 -0.82880168 0.00025568
vn 0.56148222 -0.82748880 -0.00004399
vn 0.00000000 0.00000000 -1.00000000
vn 0.00000000 0.00000000 -1.00000000
vn 0.00000000 0.00000000 -1.00000000
vn 0.00000000 0.00000000 -1.00000000
vn 0.00000000 0.00000000 -1.00000000
vn 0.70710678 0.00000000 0.70710678
vn 0.70710678 0.00000000 0.70710678
vn 0.70710678 0.00000000 0.70710678
vn 0.70710678 0.00000000 0.70710678
f 1//1 2//2 3//3
f 4//4 5//5 6//6
f 7//7 4//4 8//8
f 4//4 6//6 8//8
f 4//4 7//7 9//9
f 7//7 10//10 9//9
f 11//11 4//4 12//12
f 4//4 9//9 12//12
f 7//7 13//13 10//10
f 7//7 14//14 13//13
f 14//14 15//15 13//13
f 14//14 16//16 15//15
f 16//16 17//17 15//15
f 16//16 18//18 17//17
f 18//18 19//19 17//17
f 18//18 20//20 19//19
f 21//21 22//22 23//23
f 22//22 24//24 23//23
f 25//25 22//22 26//26
f 22//22 21//21 26//26
f 22//22 25//25 27//27
f 25//25 28//28 27//27
f 22//22 27//27 29//29
f 27//27 30//30 29//29
f 22//22 31//31 32//32
f 22//22 29//29 31//31
f 25//25 33//33 28//28
f 33//33 34//34 28//28
f 33//33 35//35 34//34
f 36//36 37//37 38//38
f 39//39 36//36 40//40
f 36//36 38//38 40//40
f 39//39 41//41 36//36
f 41//41 42//42 36//36
f 42//42 43//43 36//36
f 43//43 44//44 36//36
f 44//44 45//45 36//36
f 46//46 36//36 45//45
f 47//47 46//46 45//45
f 45//45 48//48 47//47
f 47//47 48//48 49//49
f 49//49 50//50 47//47
f 50//50 49//49 51//51
f 50//50 51//51 46//46
f 52//52 46//46 51//51
f 51//51 53//53 52//52
f 52//52 53//53 36//36
f 54//54 36//36 53//53
f 53//53 55//55 54//54
f 55//55 56//56 54//54
f 57//57 54//54 56//56
f 57//57 56//56 58//58
f 56//56 59//59 58//58
f 60//60 57//57 61//61
f 57//57 58//58 61//61
f 62//62 60//60 63//63
f 60//60 61//61 63//63
f 60//60 62//62 64//64
f 62//62 65//65 64//64
f 62//62 66//66 65//65
f 36//36 67//67 68//68
f 57//57 69//69 70//70
f 71//71 72//72 73//73
f 74//74 71//71 75//75
f 71//71 73//73 75//75
f 71//71 74//74 76//76
f 74//74 77//77 76//76
f 74//74 62//62 77//77
f 62//62 78//78 77//77
f 71//71 76//76 79//79
f 80//80 71//71 81//81
f 71//71 79//79 81//81
f 82//82 80//80 83//83
f 80//80 81//81 83//83
f 80//80 82//82 84//84
f 82//82 85//85 84//84
f 82//82 86//86 85//85
f 16//16 87//87 88//88
f 82//82 18//18 86//86
f 18//18 89//89 86//86
f 82//82 83//83 90//90
f 91//91 92//92 93//93
f 91//91 94//94 92//92
f 94//94 95//95 92//92
f 94//94 91//91 96//96
f 91//91 97//97 96//96
f 91//91 98//98 97//97
f 99//99 100//100 101//101
f 102//102 99//99 103//103
f 99//99 101//101 103//103
f 99//99 102//102 104//104
f 102//102 105//105 104//104
f 102//102 106//106 105//105
f 106//106 107//107 105//105
f 106//106 102//102 108//108
f 102//102 103//103 108//108
f 106//106 108//108 109//109
f 110//110 106//106 111//111
f 106//106 109//109 111//111
f 106//106 110//110 112//112
f 110//110 113//113 112//112
f 110//110 33//33 113//113
f 33//33 114//114 113//113
f 115//115 116//116 117//117
f 118//118 115//115 119//119
f 115//115 117//117 119//119
f 115//115 118//118 120//120
f 118//118 121//121 120//120
f 115//115 122//122 116//116
f 122//122 123//123 116//116
f 122//122 115//115 124//124
f 115//115 125//125 124//124
f 126//126 122//122 127//127
f 122//122 124//124 127//127
f 126//126 127//127 128//128
f 129//129 126//126 130//130
f 126//126 128//128 130//130
f 126//126 129//129 131//131
f 129//129 132//132 131//131
f 126//126 131//131 133//133
f 129//129 134//134 132//132
f 134//134 135//135 132//132
f 134//134 136//136 135//135
f 134//134 137//137 136//136
f 137//137 138//138 136//136
f 137//137 134//134 139//139
f 134//134 140//140 139//139
f 134//134 141//141 140//140
f 142//142 143//143 144//144
f 145//145 142//142 146//146
f 142//142 144//144 146//146
f 147//147 142//142 145//145
f 145//145 148//148 147//147
f 148//148 149//149 147//147
f 149//149 150//150 147//147
f 150//150 39//39 147//147
f 147//147 39//39 151//151
f 39//39 152//152 151//151
f 147//147 151//151 153//153
f 39//39 154//154 152//152
f 39//39 150//150 155//155
f 156//156 39//39 155//155
f 41//41 156//156 155//155
f 41//41 155//155 43//43
f 157//157 43//43 155//155
f 155//155 158//158 157//157
f 158//158 159//159 157//157
f 160//160 159//159 158//158
f 161//161 160//160 158//158
f 162//162 161//161 158//158
f 162//162 163//163 161//161
f 161//161 163//163 164//164
f 163//163 159//159 164//164
f 159//159 163//163 165//165
f 159//159 165//165 44//44
f 166//166 44//44 165//165
f 166//166 165//165 167//167
f 166//166 167//167 168//168
f 166//166 168//168 169//169
f 48//48 166//166 169//169
f 48//48 169//169 170//170
f 48//48 170//170 171//171
f 48//48 171//171 172//172
f 48//48 172//172 173//173
f 48//48 173//173 174//174
f 48//48 174//174 175//175
f 48//48 175//175 176//176
f 48//48 176//176 177//177
f 48//48 177//177 178//178
f 48//48 178//178 179//179
f 48//48 179//179 180//180
f 48//48 180//180 181//181
f 48//48 181//181 182//182
f 48//48 182//182 183//183
f 48//48 183//183 184//184
f 48//48 184//184 185//185
f 48//48 185//185 186//186
f 48//48 186//186 187//187
f 48//48 187//187 188//188
f 48//48 188//188 189//189
f 48//48 189//189 190//190
f 48//48 190//190 191//191
f 48//48 191//191 192//192
f 48//48 192//192 193//193
f 48//48 193//193 194//194
f 195//195 48//48 194//194
f 196//196 195//195 194//194
f 194//194 197//197 196//196
f 197//197 155//155 196//196
f 196//196 155//155 198//198
f 199//199 196//196 198//198
f 199//199 198//198 200//200
f 48//48 199//199 200//200
f 48//48 200//200 201//201
f 48//48 201//201 202//202
f 48//48 202//202 203//203
f 48//48 203//203 204//204
f 48//48 204//204 205//205
f 48//48 205//205 206//206
f 48//48 206//206 207//207
f 48//48 207//207 208//208
f 48//48 208//208 209//209
f 48//48 209//209 210//210
f 48//48 210//210 211//211
f 48//48 211//211 212//212
f 48//48 212//212 213//213
f 48//48 213//213 214//214
f 48//48 214//214 215//215
f 48//48 215//215 216//216
f 48//48 216//216 217//217
f 48//48 217//217 218//218
f 48//48 218//218 219//219
f 48//48 219//219 220//220
f 48//48 220//220 221//221
f 48//48 221//221 222//222
f 48//48 222//222 223//223
f 48//48 223//223 224//224
f 48//48 224//224 225//225
f 48//48 225//225 226//226
f 48//48 226//226 227//227
f 48//48 227//227 228//228
f 48//48 228//228 229//229
f 48//48 229//229 230//230
f 48//48 230//230 231//231
f 48//48 231//231 232//232
f 48//48 232//232 233//233
f 234//234 233//233 232//232
f 232//232 235//235 234//234
f 235//235 155//155 234//234
f 234//234 155//155 236//236
f 237//237 234//234 236//236
f 237//237 236//236 238//238
f 237//237 238//238 239//239
f 239//239 240//240 237//237
f 240//240 241//241 237//237
f 241//241 242//242 237//237
f 242//242 243//243 237//237
f 237//237 243//243 233//233
f 244//244 233//233 243//243
f 49//49 233//233 244//244
f 244//244 245//245 49//49
f 245//245 246//246 49//49
f 49//49 246//246 247//247
f 248//248 247//247 246//246
f 249//249 248//248 246//246
f 250//250 248//248 249//249
f 251//251 250//250 249//249
f 252//252 251//251 249//249
f 249//249 253//253 252//252
f 254//254 252//252 253//253
f 255//255 254//254 253//253
f 253//253 256//256 255//255
f 252//252 255//255 256//256
f 250//250 252//252 256//256
f 257//257 250//250 256//256
f 248//248 257//257 256//256
f 258//258 248//248 256//256
f 259//259 258//258 256//256
f 259//259 256//256 260//260
f 261//261 259//259 260//260
f 261//261 260//260 262//262
f 263//263 261//261 262//262
f 263//263 262//262 264//264
f 265//265 263//263 264//264
f 265//265 264//264 266//266
f 267//267 265//265 266//266
f 267//267 266//266 268//268
f 269//269 267//267 268//268
f 269//269 268//268 270//270
f 271//271 269//269 270//270
f 272//272 271//271 270//270
f 272//272 270//270 273//273
f 272//272 273//273 274//274
f 275//275 272//272 274//274
f 275//275 274//274 276//276
f 277//277 275//275 276//276
f 277//277 276//276 278//278
f 279//279 277//277 278//278
f 279//279 278//278 280//280
f 281//281 279//279 280//280
f 281//281 280//280 282//282
f 283//283 281//281 282//282
f 283//283 282//282 284//284
f 285//285 283//283 284//284
f 284//284 286//286 285//285
f 287//287 285//285 286//286
f 288//288 287//287 286//286
f 288//288 286//286 289//289
f 290//290 288//288 289//289
f 290//290 289//289 291//291
f 292//292 290//290 291//291
f 292//292 291//291 293//293
f 294//294 292//292 293//293
f 294//294 293//293 295//295
f 296//296 294//294 295//295
f 296//296 295//295 297//297
f 296//296 297//297 298//298
f 299//299 296//296 298//298
f 299//299 298//298 300//300
f 299//299 300//300 165//165
f 301//301 165//165 300//300
f 301//301 300//300 168//168
f 302//302 300//300 298//298
f 300//300 302//302 170//170
f 303//303 170//170 302//302
f 304//304 303//303 302//302
f 305//305 304//304 302//302
f 302//302 297//297 305//305
f 305//305 297//297 306//306
f 307//307 305//305 306//306
f 308//308 307//307 306//306
f 308//308 306//306 309//309
f 306//306 310//310 309//309
f 311//311 309//309 310//310
f 311//311 310//310 312//312
f 312//312 306//306 311//311
f 311//311 306//306 313//313
f 311//311 313//313 314//314
f 315//315 311//311 314//314
f 175//175 315//315 314//314
f 314//314 313//313 316//316
f 316//316 177//177 314//314
f 317//317 316//316 313//313
f 318//318 316//316 317//317
f 317//317 319//319 318//318
f 318//318 319//319 320//320
f 181//181 318//318 320//320
f 320//320 319//319 321//321
f 322//322 320//320 321//321
f 321//321 306//306 322//322
f 322//322 306//306 323//323
f 323//323 324//324 322//322
f 323//323 325//325 324//324
f 185//185 324//324 325//325
f 326//326 325//325 323//323
f 326//326 327//327 325//325
f 187//187 325//325 327//327
f 327//327 326//326 328//328
f 328//328 329//329 327//327
f 189//189 327//327 329//329
f 330//330 329//329 328//328
f 328//328 306//306 330//330
f 306//306 331//331 330//330
f 331//331 332//332 330//330
f 333//333 330//330 332//332
f 332//332 334//334 333//333
f 334//334 335//335 333//333
f 335//335 197//197 333//333
f 333//333 197//197 193//193
f 336//336 335//335 334//334
f 337//337 336//336 334//334
f 334//334 338//338 337//337
f 334//334 339//339 338//338
f 338//338 339//339 336//336
f 336//336 339//339 340//340
f 341//341 336//336 340//340
f 340//340 342//342 341//341
f 341//341 342//342 343//343
f 342//342 344//344 343//343
f 344//344 345//345 343//343
f 343//343 345//345 346//346
f 346//346 336//336 343//343
f 346//346 347//347 336//336
f 347//347 348//348 336//336
f 336//336 348//348 163//163
f 299//299 163//163 348//348
f 347//347 296//296 348//348
f 349//349 296//296 347//347
f 350//350 349//349 347//347
f 350//350 347//347 351//351
f 350//350 351//351 352//352
f 350//350 352//352 353//353
f 350//350 353//353 354//354
f 350//350 354//354 355//355
f 350//350 355//355 356//356
f 350//350 356//356 357//357
f 350//350 357//357 358//358
f 350//350 358//358 359//359
f 350//350 359//359 360//360
f 350//350 360//360 361//361
f 350//350 361//361 362//362
f 350//350 362//362 363//363
f 350//350 363//363 364//364
f 365//365 350//350 364//364
f 365//365 364//364 366//366
f 365//365 366//366 367//367
f 365//365 367//367 368//368
f 365//365 368//368 369//369
f 370//370 365//365 369//369
f 369//369 371//371 370//370
f 370//370 371//371 372//372
f 370//370 372//372 373//373
f 373//373 372//372 374//374
f 375//375 373//373 374//374
f 375//375 374//374 376//376
f 377//377 375//375 376//376
f 378//378 377//377 376//376
f 378//378 376//376 379//379
f 379//379 380//380 378//378
f 380//380 379//379 381//381
f 380//380 381//381 382//382
f 382//382 148//148 380//380
f 148//148 383//383 380//380
f 380//380 383//383 263//263
f 380//380 263//263 377//377
f 148//148 384//384 383//383
f 384//384 385//385 383//383
f 385//385 386//386 383//383
f 383//383 386//386 261//261
f 385//385 387//387 386//386
f 387//387 388//388 386//386
f 386//386 388//388 259//259
f 388//388 389//389 259//259
f 389//389 387//387 259//259
f 387//387 389//389 388//388
f 385//385 390//390 387//387
f 390//390 391//391 387//387
f 391//391 258//258 387//387
f 258//258 391//391 392//392
f 392//392 393//393 258//258
f 258//258 393//393 394//394
f 258//258 394//394 390//390
f 390//390 247//247 258//258
f 393//393 247//247 390//390
f 247//247 393//393 51//51
f 145//145 51//51 393//393
f 51//51 145//145 395//395
f 145//145 396//396 395//395
f 51//51 395//395 397//397
f 51//51 397//397 398//398
f 51//51 398//398 399//399
f 400//400 51//51 401//401
f 51//51 399//399 401//401
f 400//400 401//401 402//402
f 145//145 403//403 396//396
f 394//394 393//393 390//390
f 393//393 392//392 385//385
f 391//391 390//390 392//392
f 392//392 390//390 385//385
f 384//384 393//393 385//385
f 393//393 384//384 148//148
f 155//155 148//148 382//382
f 404//404 155//155 382//382
f 404//404 382//382 405//405
f 405//405 406//406 404//404
f 406//406 405//405 407//407
f 407//407 155//155 406//406
f 408//408 155//155 407//407
f 408//408 407//407 409//409
f 408//408 409//409 410//410
f 410//410 409//409 411//411
f 411//411 412//412 410//410
f 412//412 155//155 410//410
f 413//413 155//155 412//412
f 414//414 155//155 413//413
f 415//415 414//414 413//413
f 413//413 411//411 415//415
f 415//415 411//411 416//416
f 417//417 415//415 416//416
f 416//416 331//331 417//417
f 417//417 331//331 418//418
f 418//418 419//419 417//417
f 418//418 420//420 419//419
f 421//421 419//419 420//420
f 420//420 422//422 421//421
f 422//422 155//155 421//421
f 421//421 155//155 423//423
f 423//423 155//155 424//424
f 419//419 423//423 424//424
f 424//424 415//415 419//419
f 425//425 155//155 422//422
f 426//426 155//155 425//425
f 427//427 426//426 425//425
f 425//425 420//420 427//427
f 420//420 428//428 427//427
f 427//427 428//428 429//429
f 430//430 427//427 429//429
f 430//430 429//429 431//431
f 430//430 431//431 432//432
f 432//432 433//433 430//430
f 433//433 434//434 430//430
f 430//430 434//434 426//426
f 433//433 155//155 434//434
f 435//435 155//155 433//433
f 436//436 155//155 435//435
f 432//432 436//436 435//435
f 239//239 436//436 432//432
f 432//432 437//437 239//239
f 239//239 438//438 436//436
f 438//438 155//155 436//436
f 238//238 155//155 438//438
f 432//432 435//435 433//433
f 432//432 431//431 437//437
f 431//431 439//439 437//437
f 437//437 439//439 440//440
f 440//440 441//441 437//437
f 441//441 240//240 437//437
f 442//442 240//240 441//441
f 439//439 442//442 441//441
f 273//273 442//442 439//439
f 443//443 273//273 439//439
f 444//444 443//443 439//439
f 331//331 444//444 439//439
f 331//331 439//439 428//428
f 445//445 331//331 428//428
f 278//278 444//444 331//331
f 446//446 278//278 331//331
f 446//446 331//331 447//447
f 447//447 289//289 446//446
f 280//280 446//446 289//289
f 276//276 443//443 444//444
f 442//442 448//448 240//240
f 244//244 448//448 442//442
f 442//442 449//449 244//244
f 449//449 262//262 244//244
f 442//442 450//450 449//449
f 264//264 449//449 450//450
f 266//266 450//450 442//442
f 244//244 241//241 448//448
f 241//241 244//244 451//451
f 244//244 242//242 451//451
f 439//439 441//441 440//440
f 429//429 439//439 431//431
f 428//428 439//439 429//429
f 445//445 428//428 420//420
f 430//430 426//426 427//427
f 434//434 155//155 426//426
f 422//422 420//420 425//425
f 423//423 419//419 421//421
f 445//445 420//420 418//418
f 418//418 331//331 445//445
f 452//452 331//331 416//416
f 453//453 331//331 452//452
f 452//452 409//409 453//453
f 453//453 409//409 405//405
f 453//453 405//405 454//454
f 405//405 381//381 454//454
f 381//381 455//455 454//454
f 455//455 331//331 454//454
f 372//372 331//331 455//455
f 454//454 331//331 453//453
f 415//415 417//417 419//419
f 416//416 411//411 452//452
f 414//414 415//415 424//424
f 424//424 155//155 414//414
f 412//412 411//411 413//413
f 452//452 411//411 409//409
f 410//410 155//155 408//408
f 407//407 405//405 409//409
f 406//406 155//155 404//404
f 405//405 382//382 381//381
f 379//379 455//455 381//381
f 374//374 455//455 379//379
f 380//380 377//377 378//378
f 375//375 377//377 265//265
f 376//376 374//374 379//379
f 375//375 365//365 373//373
f 365//365 375//375 267//267
f 374//374 372//372 455//455
f 371//371 331//331 372//372
f 456//456 331//331 371//371
f 457//457 331//331 456//456
f 368//368 457//457 456//456
f 458//458 331//331 457//457
f 366//366 458//458 457//457
f 459//459 331//331 458//458
f 363//363 459//459 458//458
f 460//460 331//331 459//459
f 361//361 460//460 459//459
f 461//461 331//331 460//460
f 360//360 461//461 460//460
f 462//462 331//331 461//461
f 359//359 462//462 461//461
f 463//463 331//331 462//462
f 358//358 463//463 462//462
f 464//464 331//331 463//463
f 357//357 464//464 463//463
f 465//465 331//331 464//464
f 356//356 465//465 464//464
f 466//466 331//331 465//465
f 355//355 466//466 465//465
f 467//467 331//331 466//466
f 354//354 467//467 466//466
f 468//468 331//331 467//467
f 353//353 468//468 467//467
f 469//469 331//331 468//468
f 468//468 352//352 469//469
f 470//470 331//331 469//469
f 470//470 469//469 351//351
f 470//470 351//351 471//471
f 472//472 471//471 351//351
f 471//471 472//472 473//473
f 473//473 331//331 471//471
f 474//474 331//331 473//473
f 473//473 475//475 474//474
f 475//475 476//476 474//474
f 474//474 476//476 477//477
f 478//478 477//477 476//476
f 347//347 478//478 476//476
f 347//347 479//479 478//478
f 479//479 480//480 478//478
f 480//480 479//479 481//481
f 481//481 331//331 480//480
f 480//480 331//331 477//477
f 482//482 331//331 481//481
f 481//481 483//483 482//482
f 484//484 482//482 483//483
f 347//347 484//484 483//483
f 347//347 485//485 484//484
f 485//485 486//486 484//484
f 486//486 485//485 487//487
f 487//487 331//331 486//486
f 488//488 331//331 487//487
f 487//487 489//489 488//488
f 490//490 488//488 489//489
f 347//347 490//490 489//489
f 347//347 491//491 490//490
f 491//491 492//492 490//490
f 492//492 491//491 493//493
f 494//494 492//492 493//493
f 345//345 494//494 493//493
f 347//347 345//345 493//493
f 494//494 331//331 492//492
f 344//344 331//331 494//494
f 347//347 493//493 491//491
f 488//488 490//490 492//492
f 492//492 331//331 488//488
f 485//485 489//489 487//487
f 347//347 489//489 485//485
f 482//482 484//484 486//486
f 486//486 331//331 482//482
f 479//479 483//483 481//481
f 347//347 483//483 479//479
f 477//477 478//478 480//480
f 347//347 476//476 475//475
f 347//347 475//475 472//472
f 477//477 331//331 474//474
f 475//475 473//473 472//472
f 471//471 331//331 470//470
f 369//369 456//456 371//371
f 365//365 370//370 373//373
f 368//368 456//456 369//369
f 367//367 457//457 368//368
f 457//457 367//367 366//366
f 366//366 364//364 458//458
f 350//350 365//365 272//272
f 350//350 272//272 495//495
f 458//458 364//364 363//363
f 363//363 362//362 459//459
f 459//459 362//362 361//361
f 460//460 361//361 360//360
f 359//359 461//461 360//360
f 462//462 359//359 358//358
f 463//463 358//358 357//357
f 356//356 464//464 357//357
f 355//355 465//465 356//356
f 466//466 355//355 354//354
f 353//353 467//467 354//354
f 353//353 352//352 468//468
f 469//469 352//352 351//351
f 347//347 472//472 351//351
f 349//349 350//350 495//495
f 495//495 496//496 349//349
f 496//496 497//497 349//349
f 497//497 294//294 349//349
f 498//498 294//294 497//497
f 499//499 498//498 497//497
f 500//500 499//499 497//497
f 501//501 500//500 497//497
f 500//500 501//501 502//502
f 502//502 288//288 500//500
f 288//288 502//502 281//281
f 502//502 501//501 281//281
f 500//500 292//292 499//499
f 499//499 292//292 498//498
f 496//496 501//501 497//497
f 501//501 496//496 279//279
f 496//496 495//495 277//277
f 347//347 346//346 345//345
f 344//344 494//494 345//345
f 342//342 331//331 344//344
f 503//503 331//331 342//342
f 503//503 342//342 340//340
f 503//503 340//340 334//334
f 343//343 336//336 341//341
f 334//334 340//340 339//339
f 336//336 337//337 338//338
f 336//336 155//155 335//335
f 155//155 336//336 162//162
f 332//332 503//503 334//334
f 332//332 331//331 503//503
f 447//447 331//331 306//306
f 504//504 447//447 306//306
f 505//505 504//504 306//306
f 506//506 505//505 306//306
f 306//306 295//295 506//506
f 506//506 295//295 505//505
f 505//505 293//293 504//504
f 504//504 293//293 447//447
f 330//330 333//333 329//329
f 191//191 329//329 333//333
f 326//326 306//306 328//328
f 323//323 306//306 326//326
f 322//322 324//324 320//320
f 183//183 320//320 324//324
f 319//319 306//306 321//321
f 317//317 306//306 319//319
f 318//318 179//179 316//316
f 313//313 306//306 317//317
f 315//315 309//309 311//311
f 507//507 309//309 315//315
f 315//315 173//173 507//507
f 507//507 307//307 309//309
f 507//507 303//303 307//307
f 171//171 303//303 507//507
f 306//306 312//312 310//310
f 309//309 307//307 308//308
f 305//305 307//307 304//304
f 307//307 303//303 304//304
f 296//296 299//299 348//348
f 302//302 298//298 297//297
f 295//295 306//306 297//297
f 296//296 349//349 294//294
f 505//505 295//295 293//293
f 292//292 294//294 498//498
f 447//447 293//293 291//291
f 290//290 292//292 500//500
f 289//289 447//447 291//291
f 290//290 500//500 288//288
f 280//280 289//289 286//286
f 287//287 288//288 281//281
f 285//285 287//287 283//283
f 282//282 286//286 284//284
f 283//283 287//287 281//281
f 280//280 286//286 282//282
f 279//279 281//281 501//501
f 278//278 446//446 280//280
f 279//279 496//496 277//277
f 276//276 444//444 278//278
f 277//277 495//495 275//275
f 274//274 443//443 276//276
f 275//275 495//495 272//272
f 273//273 443//443 274//274
f 270//270 442//442 273//273
f 272//272 365//365 271//271
f 271//271 365//365 269//269
f 268//268 442//442 270//270
f 269//269 365//365 267//267
f 266//266 442//442 268//268
f 267//267 375//375 265//265
f 264//264 450//450 266//266
f 265//265 377//377 263//263
f 262//262 449//449 264//264
f 263//263 383//383 261//261
f 260//260 245//245 262//262
f 260//260 508//508 245//245
f 245//245 508//508 249//249
f 261//261 386//386 259//259
f 256//256 508//508 260//260
f 256//256 509//509 508//508
f 508//508 509//509 253//253
f 509//509 510//510 253//253
f 256//256 510//510 509//509
f 258//258 259//259 387//387
f 257//257 248//248 511//511
f 248//248 255//255 511//511
f 250//250 257//257 511//511
f 250//250 511//511 252//252
f 255//255 252//252 511//511
f 256//256 253//253 510//510
f 254//254 255//255 248//248
f 252//252 254//254 248//248
f 508//508 253//253 249//249
f 251//251 252//252 248//248
f 250//250 251//251 248//248
f 258//258 247//247 248//248
f 245//245 249//249 246//246
f 262//262 245//245 244//244
f 243//243 242//242 244//244
f 451//451 242//242 241//241
f 448//448 241//241 240//240
f 437//437 240//240 239//239
f 238//238 438//438 239//239
f 236//236 155//155 238//238
f 512//512 155//155 235//235
f 231//231 512//512 235//235
f 513//513 155//155 512//512
f 230//230 513//513 512//512
f 514//514 155//155 513//513
f 229//229 514//514 513//513
f 515//515 155//155 514//514
f 228//228 515//515 514//514
f 516//516 155//155 515//515
f 227//227 516//516 515//515
f 517//517 155//155 516//516
f 226//226 517//517 516//516
f 518//518 155//155 517//517
f 225//225 518//518 517//517
f 519//519 155//155 518//518
f 224//224 519//519 518//518
f 520//520 155//155 519//519
f 223//223 520//520 519//519
f 521//521 155//155 520//520
f 222//222 521//521 520//520
f 522//522 155//155 521//521
f 221//221 522//522 521//521
f 523//523 155//155 522//522
f 220//220 523//523 522//522
f 524//524 155//155 523//523
f 219//219 524//524 523//523
f 525//525 155//155 524//524
f 218//218 525//525 524//524
f 526//526 155//155 525//525
f 217//217 526//526 525//525
f 527//527 155//155 526//526
f 216//216 527//527 526//526
f 528//528 155//155 527//527
f 215//215 528//528 527//527
f 529//529 155//155 528//528
f 214//214 529//529 528//528
f 530//530 155//155 529//529
f 530//530 529//529 213//213
f 531//531 530//530 213//213
f 155//155 530//530 531//531
f 532//532 155//155 531//531
f 212//212 532//532 531//531
f 533//533 155//155 532//532
f 211//211 533//533 532//532
f 534//534 155//155 533//533
f 210//210 534//534 533//533
f 535//535 155//155 534//534
f 209//209 535//535 534//534
f 536//536 155//155 535//535
f 208//208 536//536 535//535
f 537//537 155//155 536//536
f 207//207 537//537 536//536
f 538//538 155//155 537//537
f 206//206 538//538 537//537
f 539//539 155//155 538//538
f 205//205 539//539 538//538
f 540//540 155//155 539//539
f 204//204 540//540 539//539
f 541//541 155//155 540//540
f 203//203 541//541 540//540
f 542//542 155//155 541//541
f 202//202 542//542 541//541
f 543//543 155//155 542//542
f 201//201 543//543 542//542
f 237//237 233//233 234//234
f 231//231 235//235 232//232
f 230//230 512//512 231//231
f 513//513 230//230 229//229
f 228//228 514//514 229//229
f 515//515 228//228 227//227
f 226//226 516//516 227//227
f 517//517 226//226 225//225
f 224//224 518//518 225//225
f 223//223 519//519 224//224
f 222//222 520//520 223//223
f 521//521 222//222 221//221
f 220//220 522//522 221//221
f 523//523 220//220 219//219
f 218//218 524//524 219//219
f 525//525 218//218 217//217
f 216//216 526//526 217//217
f 527//527 216//216 215//215
f 214//214 528//528 215//215
f 529//529 214//214 213//213
f 212//212 531//531 213//213
f 211//211 532//532 212//212
f 210//210 533//533 211//211
f 534//534 210//210 209//209
f 208//208 535//535 209//209
f 207//207 536//536 208//208
f 206//206 537//537 207//207
f 538//538 206//206 205//205
f 539//539 205//205 204//204
f 540//540 204//204 203//203
f 202//202 541//541 203//203
f 542//542 202//202 201//201
f 200//200 543//543 201//201
f 200//200 198//198 543//543
f 198//198 155//155 543//543
f 335//335 155//155 197//197
f 199//199 195//195 196//196
f 48//48 195//195 199//199
f 197//197 194//194 193//193
f 333//333 193//193 192//192
f 191//191 333//333 192//192
f 329//329 191//191 190//190
f 189//189 329//329 190//190
f 327//327 189//189 188//188
f 187//187 327//327 188//188
f 325//325 187//187 186//186
f 325//325 186//186 185//185
f 324//324 185//185 184//184
f 183//183 324//324 184//184
f 320//320 183//183 182//182
f 320//320 182//182 181//181
f 181//181 180//180 318//318
f 180//180 179//179 318//318
f 316//316 179//179 178//178
f 178//178 177//177 316//316
f 314//314 177//177 176//176
f 176//176 175//175 314//314
f 315//315 175//175 174//174
f 174//174 173//173 315//315
f 507//507 173//173 172//172
f 507//507 172//172 171//171
f 303//303 171//171 170//170
f 169//169 300//300 170//170
f 48//48 544//544 166//166
f 48//48 44//44 544//544
f 48//48 545//545 44//44
f 168//168 300//300 169//169
f 167//167 301//301 168//168
f 165//165 301//301 167//167
f 44//44 166//166 544//544
f 163//163 299//299 165//165
f 336//336 163//163 162//162
f 161//161 164//164 160//160
f 160//160 164//164 159//159
f 155//155 162//162 158//158
f 43//43 157//157 159//159
f 156//156 41//41 43//43
f 39//39 156//156 43//43
f 43//43 546//546 39//39
f 150//150 149//149 155//155
f 149//149 148//148 155//155
f 148//148 145//145 393//393
f 142//142 147//147 547//547
f 147//147 153//153 547//547
f 145//145 146//146 403//403
f 142//142 137//137 143//143
f 137//137 139//139 143//143
f 137//137 142//142 138//138
f 142//142 547//547 138//138
f 134//134 129//129 141//141
f 129//129 130//130 141//141
f 122//122 126//126 123//123
f 126//126 133//133 123//123
f 91//91 118//118 98//98
f 118//118 119//119 98//98
f 99//99 94//94 100//100
f 94//94 96//96 100//100
f 94//94 99//99 95//95
f 99//99 548//548 95//95
f 118//118 91//91 121//121
f 91//91 93//93 121//121
f 99//99 104//104 548//548
f 115//115 120//120 125//125
f 71//71 80//80 72//72
f 80//80 84//84 72//72
f 62//62 74//74 66//66
f 74//74 75//75 66//66
f 62//62 63//63 78//78
f 57//57 60//60 69//69
f 60//60 64//64 69//69
f 56//56 400//400 59//59
f 400//400 402//402 59//59
f 54//54 57//57 549//549
f 57//57 70//70 549//549
f 55//55 400//400 56//56
f 55//55 53//53 400//400
f 36//36 54//54 67//67
f 54//54 549//549 67//67
f 51//51 400//400 53//53
f 247//247 51//51 49//49
f 49//49 48//48 233//233
f 48//48 45//45 545//545
f 46//46 47//47 50//50
f 36//36 46//46 52//52
f 44//44 545//545 45//45
f 43//43 159//159 44//44
f 43//43 42//42 546//546
f 42//42 41//41 546//546
f 41//41 39//39 546//546
f 36//36 68//68 37//37
f 39//39 40//40 154//154
f 33//33 110//110 35//35
f 110//110 111//111 35//35
f 33//33 25//25 550//550
f 25//25 26//26 550//550
f 22//22 32//32 24//24
f 33//33 550//550 114//114
f 106//106 112//112 107//107
f 18//18 82//82 20//20
f 82//82 90//90 20//20
f 18//18 16//16 89//89
f 16//16 88//88 89//89
f 16//16 14//14 87//87
f 14//14 551//551 87//87
f 14//14 552//552 551//551
f 14//14 7//7 552//552
f 7//7 8//8 552//552
f 4//4 11//11 5//5
f 11//11 553//553 5//5
f 11//11 554//554 553//553
f 554//554 555//555 553//553
f 554//554 11//11 556//556
f 11//11 557//557 556//556
f 554//554 558//558 555//555
f 558//558 559//559 555//555
f 558//558 554//554 560//560
f 554//554 561//561 560//560
f 559//559 558//558 562//562
f 558//558 563//563 562//562
f 11//11 12//12 557//557
f 554//554 556//556 561//561
f 558//558 1//1 564//564
f 1//1 3//3 564//564
f 558//558 560//560 1//1
f 558//558 564//564 563//563
f 1//1 565//565 2//2
f 1//1 560//560 565//565
f 560//560 566//566 565//565
f 560//560 561//561 566//566
f 561//561 567//567 566//566
f 561//561 556//556 567//567
f 556//556 568//568 567//567
f 556//556 557//557 568//568
f 557//557 569//569 568//568
f 557//557 21//21 569//569
f 21//21 23//23 569//569
f 557//557 12//12 550//550
f 557//557 550//550 26//26
f 557//557 26//26 21//21
f 550//550 12//12 9//9
f 550//550 9//9 10//10
f 550//550 10//10 13//13
f 550//550 13//13 114//114
f 107//107 112//112 19//19
f 112//112 113//113 19//19
f 19//19 113//113 17//17
f 113//113 114//114 17//17
f 17//17 114//114 15//15
f 114//114 13//13 15//15
f 19//19 20//20 104//104
f 19//19 104//104 105//105
f 19//19 105//105 107//107
f 90//90 83//83 92//92
f 90//90 92//92 95//95
f 90//90 95//95 548//548
f 90//90 548//548 104//104
f 90//90 104//104 20//20
f 121//121 93//93 79//79
f 93//93 92//92 79//79
f 79//79 92//92 81//81
f 92//92 83//83 81//81
f 120//120 121//121 79//79
f 120//120 79//79 76//76
f 120//120 76//76 77//77
f 120//120 77//77 125//125
f 128//128 127//127 78//78
f 127//127 124//124 78//78
f 78//78 124//124 77//77
f 124//124 125//125 77//77
f 128//128 78//78 130//130
f 78//78 63//63 130//130
f 130//130 63//63 141//141
f 63//63 61//61 141//141
f 141//141 61//61 58//58
f 143//143 139//139 402//402
f 139//139 140//140 402//402
f 402//402 140//140 59//59
f 140//140 141//141 59//59
f 59//59 141//141 58//58
f 143//143 402//402 401//401
f 143//143 401//401 399//399
f 143//143 399//399 398//398
f 143//143 398//398 397//397
f 143//143 397//397 395//395
f 143//143 395//395 144//144
f 144//144 395//395 396//396
f 144//144 396//396 403//403
f 144//144 403//403 146//146
f 559//559 562//562 570//570
f 555//555 559//559 571//571
f 559//559 570//570 571//571
f 553//553 555//555 572//572
f 555//555 571//571 572//572
f 5//5 553//553 573//573
f 553//553 572//572 573//573
f 27//27 5//5 30//30
f 5//5 573//573 30//30
f 5//5 34//34 6//6
f 5//5 28//28 34//34
f 5//5 27//27 28//28
f 111//111 552//552 35//35
f 35//35 552//552 34//34
f 552//552 8//8 34//34
f 34//34 8//8 6//6
f 109//109 552//552 111//111
f 109//109 551//551 552//552
f 109//109 87//87 551//551
f 109//109 108//108 87//87
f 88//88 101//101 89//89
f 88//88 103//103 101//101
f 88//88 108//108 103//103
f 88//88 87//87 108//108
f 86//86 97//97 85//85
f 86//86 96//96 97//97
f 86//86 100//100 96//96
f 86//86 101//101 100//100
f 86//86 89//89 101//101
f 119//119 72//72 98//98
f 98//98 72//72 97//97
f 72//72 84//84 97//97
f 97//97 84//84 85//85
f 117//117 72//72 119//119
f 117//117 73//73 72//72
f 117//117 75//75 73//73
f 117//117 116//116 75//75
f 66//66 135//135 65//65
f 66//66 132//132 135//135
f 66//66 131//131 132//132
f 66//66 133//133 131//131
f 66//66 123//123 133//133
f 66//66 116//116 123//123
f 66//66 75//75 116//116
f 138//138 69//69 136//136
f 136//136 69//69 135//135
f 69//69 64//64 135//135
f 135//135 64//64 65//65
f 69//69 153//153 70//70
f 69//69 547//547 153//153
f 69//69 138//138 547//547
f 153//153 549//549 70//70
f 153//153 67//67 549//549
f 153//153 68//68 67//67
f 153//153 37//37 68//68
f 153//153 38//38 37//37
f 153//153 151//151 38//38
f 151//151 40//40 38//38
f 151//151 154//154 40//40
f 151//151 152//152 154//154
f 2//2 24//24 3//3
f 2//2 23//23 24//24
f 2//2 569//569 23//23
f 2//2 568//568 569//569
f 2//2 567//567 568//568
f 2//2 566//566 567//567
f 2//2 565//565 566//566
f 29//29 563//563 31//31
f 31//31 563//563 32//32
f 563//563 564//564 32//32
f 32//32 564//564 24//24
f 564//564 3//3 24//24
f 29//29 562//562 563//563
f 29//29 570//570 562//562
f 29//29 571//571 570//570
f 29//29 572//572 571//571
f 29//29 573//573 572//572
f 29//29 30//30 573//573