# https://github.com/mikedh/trimesh
v 0.05013905 0.10381025 0.04000000 1.00000000 1.00000000 0.00000000
v 0.05013905 0.10381025 0.04000000 1.00000000 1.00000000 0.00000000
v 0.05013905 0.10381025 0.04000000 1.00000000 1.00000000 0.00000000
v 0.08213905 0.10381025 0.04000000 1.00000000 1.00000000 0.00000000
v 0.08213905 0.10381025 0.04000000 1.00000000 1.00000000 0.00000000
v 0.08213905 0.10381025 0.04000000 1.00000000 1.00000000 0.00000000
v 0.05013905 0.10381025 0.00000000 1.00000000 1.00000000 0.00000000
v 0.05013905 0.10381025 0.00000000 1.00000000 1.00000000 0.00000000
v 0.05013905 0.10381025 0.00000000 1.00000000 1.00000000 0.00000000
v 0.08213905 0.10381025 0.00000000 1.00000000 1.00000000 0.00000000
v 0.08213905 0.10381025 0.00000000 1.00000000 1.00000000 0.00000000
v 0.08213905 0.10381025 0.00000000 1.00000000 1.00000000 0.00000000
v 0.05013905 0.06981025 0.00000000 1.00000000 1.00000000 0.00000000
v 0.05013905 0.06981025 0.00000000 1.00000000 1.00000000 0.00000000
v 0.05013905 0.06981025 0.00000000 1.00000000 1.00000000 0.00000000
v 0.08213905 0.07981025 0.00000000 1.00000000 1.00000000 0.00000000
v 0.08213905 0.07981025 0.00000000 1.00000000 1.00000000 0.00000000
v 0.08213905 0.07981025 0.00000000 1.00000000 1.00000000 0.00000000
v 0.12148218 0.03481025 0.00000000 1.00000000 1.00000000 0.00000000
v 0.12148218 0.03481025 0.00000000 1.00000000 1.00000000 0.00000000
v 0.12148218 0.03481025 0.00000000 1.00000000 1.00000000 0.00000000
v 0.12148218 0.00000000 0.00000000 1.00000000 1.00000000 0.00000000
v 0.12148218 0.00000000 0.00000000 1.00000000 1.00000000 0.00000000
v 0.12148218 0.00000000 0.00000000 1.00000000 1.00000000 0.00000000
v 0.07148218 0.00000000 0.00000000 1.00000000 1.00000000 0.00000000
v 0.07148218 0.00000000 0.00000000 1.00000000 1.00000000 0.00000000
v 0.07148218 0.00000000 0.00000000 1.00000000 1.00000000 0.00000000
v 0.09713905 0.07981025 0.00000000 1.00000000 1.00000000 0.00000000
v 0.09713905 0.07981025 0.00000000 1.00000000 1.00000000 0.00000000
v 0.09713905 0.07981025 0.00000000 1.00000000 1.00000000 0.00000000
v 0.17213905 0.03481025 0.00000000 1.00000000 1.00000000 0.00000000
v 0.17213905 0.03481025 0.00000000 1.00000000 1.00000000 0.00000000
v 0.17213905 0.03481025 0.00000000 1.00000000 1.00000000 0.00000000
v 0.14213905 0.10381025 0.00000000 1.00000000 1.00000000 0.00000000
v 0.14213905 0.10381025 0.00000000 1.00000000 1.00000000 0.00000000
v 0.14213905 0.10381025 0.00000000 1.00000000 1.00000000 0.00000000
v 0.17213905 0.10381025 0.00000000 1.00000000 1.00000000 0.00000000
v 0.17213905 0.10381025 0.00000000 1.00000000 1.00000000 0.00000000
v 0.17213905 0.10381025 0.00000000 1.00000000 1.00000000 0.00000000
v 0.14213905 0.07981025 0.00000000 1.00000000 1.00000000 0.00000000
v 0.14213905 0.07981025 0.00000000 1.00000000 1.00000000 0.00000000
v 0.14213905 0.07981025 0.00000000 1.00000000 1.00000000 0.00000000
v 0.12713905 0.07981025 0.00000000 1.00000000 1.00000000 0.00000000
v 0.12713905 0.07981025 0.00000000 1.00000000 1.00000000 0.00000000
v 0.12713905 0.07981025 0.00000000 1.00000000 1.00000000 0.00000000
v 0.12713905 0.10381025 0.00000000 1.00000000 1.00000000 0.00000000
v 0.12713905 0.10381025 0.00000000 1.00000000 1.00000000 0.00000000
v 0.12713905 0.10381025 0.00000000 1.00000000 1.00000000 0.00000000
v 0.09713905 0.10381025 0.00000000 1.00000000 1.00000000 0.00000000
v 0.09713905 0.10381025 0.00000000 1.00000000 1.00000000 0.00000000
v 0.09713905 0.10381025 0.00000000 1.00000000 1.00000000 0.00000000
v 0.08213905 0.07981025 0.04000000 1.00000000 1.00000000 0.00000000
v 0.08213905 0.07981025 0.04000000 1.00000000 1.00000000 0.00000000
v 0.08213905 0.07981025 0.04000000 1.00000000 1.00000000 0.00000000
v 0.05013905 0.07981025 0.04000000 1.00000000 1.00000000 0.00000000
v 0.05013905 0.07981025 0.04000000 1.00000000 1.00000000 0.00000000
v 0.05013905 0.07981025 0.04000000 1.00000000 1.00000000 0.00000000
v 0.08213905 0.07981025 0.03000000 1.00000000 1.00000000 0.00000000
v 0.08213905 0.07981025 0.03000000 1.00000000 1.00000000 0.00000000
v 0.08213905 0.07981025 0.03000000 1.00000000 1.00000000 0.00000000
v 0.08213905 0.07981025 0.03000000 1.00000000 1.00000000 0.00000000
v 0.05013905 0.07981025 0.03000000 1.00000000 1.00000000 0.00000000
v 0.05013905 0.07981025 0.03000000 1.00000000 1.00000000 0.00000000
v 0.05013905 0.07981025 0.03000000 1.00000000 1.00000000 0.00000000
v 0.17213905 0.07981025 0.03000000 1.00000000 1.00000000 0.00000000
v 0.17213905 0.07981025 0.03000000 1.00000000 1.00000000 0.00000000
v 0.17213905 0.07981025 0.03000000 1.00000000 1.00000000 0.00000000
v 0.14213905 0.07981025 0.03000000 1.00000000 1.00000000 0.00000000
v 0.14213905 0.07981025 0.03000000 1.00000000 1.00000000 0.00000000
v 0.14213905 0.07981025 0.03000000 1.00000000 1.00000000 0.00000000
v 0.14213905 0.07981025 0.03000000 1.00000000 1.00000000 0.00000000
v 0.17213905 0.06381025 0.04600000 1.00000000 1.00000000 0.00000000
v 0.17213905 0.06381025 0.04600000 1.00000000 1.00000000 0.00000000
v 0.17213905 0.06381025 0.04600000 1.00000000 1.00000000 0.00000000
v 0.12713905 0.07981025 0.03000000 1.00000000 1.00000000 0.00000000
v 0.12713905 0.07981025 0.03000000 1.00000000 1.00000000 0.00000000
v 0.12713905 0.07981025 0.03000000 1.00000000 1.00000000 0.00000000
v 0.12713905 0.07981025 0.03000000 1.00000000 1.00000000 0.00000000
v 0.05197343 0.06381025 0.04600000 1.00000000 1.00000000 0.00000000
v 0.05197343 0.06381025 0.04600000 1.00000000 1.00000000 0.00000000
v 0.05197343 0.06381025 0.04600000 1.00000000 1.00000000 0.00000000
v 0.09713905 0.07981025 0.03000000 1.00000000 1.00000000 0.00000000
v 0.09713905 0.07981025 0.03000000 1.00000000 1.00000000 0.00000000
v 0.09713905 0.07981025 0.03000000 1.00000000 1.00000000 0.00000000
v 0.09713905 0.07981025 0.03000000 1.00000000 1.00000000 0.00000000
v 0.05013905 0.06981025 0.04000000 1.00000000 1.00000000 0.00000000
v 0.05013905 0.06981025 0.04000000 1.00000000 1.00000000 0.00000000
v 0.05013905 0.06981025 0.04000000 1.00000000 1.00000000 0.00000000
v 0.17213905 0.03481025 0.04600000 1.00000000 1.00000000 0.00000000
v 0.17213905 0.03481025 0.04600000 1.00000000 1.00000000 0.00000000
v 0.17213905 0.03481025 0.04600000 1.00000000 1.00000000 0.00000000
v 0.12148218 0.03481025 0.04600000 1.00000000 1.00000000 0.00000000
v 0.12148218 0.03481025 0.04600000 1.00000000 1.00000000 0.00000000
v 0.12148218 0.03481025 0.04600000 1.00000000 1.00000000 0.00000000
v 0.17213905 0.10381025 0.04000000 1.00000000 1.00000000 0.00000000
v 0.17213905 0.10381025 0.04000000 1.00000000 1.00000000 0.00000000
v 0.17213905 0.10381025 0.04000000 1.00000000 1.00000000 0.00000000
v 0.17213905 0.07981025 0.04000000 1.00000000 1.00000000 0.00000000
v 0.17213905 0.07981025 0.04000000 1.00000000 1.00000000 0.00000000
v 0.17213905 0.07981025 0.04000000 1.00000000 1.00000000 0.00000000
v 0.14213905 0.10381025 0.04000000 1.00000000 1.00000000 0.00000000
v 0.14213905 0.10381025 0.04000000 1.00000000 1.00000000 0.00000000
v 0.14213905 0.10381025 0.04000000 1.00000000 1.00000000 0.00000000
v 0.14213905 0.07981025 0.04000000 1.00000000 1.00000000 0.00000000
v 0.14213905 0.07981025 0.04000000 1.00000000 1.00000000 0.00000000
v 0.14213905 0.07981025 0.04000000 1.00000000 1.00000000 0.00000000
v 0.12713905 0.10381025 0.04000000 1.00000000 1.00000000 0.00000000
v 0.12713905 0.10381025 0.04000000 1.00000000 1.00000000 0.00000000
v 0.12713905 0.10381025 0.04000000 1.00000000 1.00000000 0.00000000
v 0.12713905 0.07981025 0.04000000 1.00000000 1.00000000 0.00000000
v 0.12713905 0.07981025 0.04000000 1.00000000 1.00000000 0.00000000
v 0.12713905 0.07981025 0.04000000 1.00000000 1.00000000 0.00000000
v 0.09713905 0.10381025 0.04000000 1.00000000 1.00000000 0.00000000
v 0.09713905 0.10381025 0.04000000 1.00000000 1.00000000 0.00000000
v 0.09713905 0.10381025 0.04000000 1.00000000 1.00000000 0.00000000
v 0.09713905 0.07981025 0.04000000 1.00000000 1.00000000 0.00000000
v 0.09713905 0.07981025 0.04000000 1.00000000 1.00000000 0.00000000
v 0.09713905 0.07981025 0.04000000 1.00000000 1.00000000 0.00000000
v 0.07148218 0.00000000 0.04600000 1.00000000 1.00000000 0.00000000
v 0.07148218 0.00000000 0.04600000 1.00000000 1.00000000 0.00000000
v 0.07148218 0.00000000 0.04600000 1.00000000 1.00000000 0.00000000
v 0.12148218 0.00000000 0.04600000 1.00000000 1.00000000 0.00000000
v 0.12148218 0.00000000 0.04600000 1.00000000 1.00000000 0.00000000
v 0.12148218 0.00000000 0.04600000 1.00000000 1.00000000 0.00000000
f 1 4 9
f 9 4 10
f 7 11 13
f 13 11 16
f 20 23 26
f 30 31 16
f 16 31 20
f 16 20 13
f 13 20 26
f 35 37 40
f 40 37 31
f 40 31 44
f 44 31 30
f 44 30 46
f 46 30 51
f 53 6 57
f 57 6 3
f 59 54 62
f 62 54 55
f 66 69 72
f 72 69 78
f 72 78 81
f 78 83 81
f 81 83 61
f 81 61 86
f 86 61 63
f 90 93 32
f 32 93 19
f 67 74 89
f 97 98 39
f 39 98 67
f 39 67 33
f 33 67 89
f 38 34 95
f 95 34 102
f 106 101 70
f 70 101 36
f 70 36 42
f 41 45 68
f 68 45 77
f 43 47 75
f 75 47 109
f 75 109 110
f 48 50 108
f 108 50 115
f 117 114 82
f 82 114 49
f 82 49 28
f 29 18 85
f 85 18 60
f 17 12 58
f 58 12 5
f 58 5 52
f 88 14 79
f 79 14 25
f 79 25 121
f 124 119 22
f 22 119 27
f 94 123 21
f 21 123 24
f 91 73 92
f 92 73 80
f 92 80 122
f 122 80 120
f 103 104 96
f 96 104 99
f 113 116 107
f 107 116 112
f 105 71 100
f 100 71 65
f 118 84 111
f 111 84 76
f 15 87 64
f 56 2 64
f 64 2 8
f 64 8 15