####
#
# OBJ File Generated by Meshlab
#
####
# Object palm_lower_simplify.obj
#
# Vertices: 373
# Faces: 864
#
####
vn 0.1390461556973879 -1.2854692072714935 -0.9572826422320467
v -0.0745473474078317 -0.0607196284120755 0.0430045066290557
vn 1.1418776507545956 0.9544422549932303 -1.1723004908154622
v -0.0761804287978105 -0.0653269435347898 0.0430000000000000
vn -1.8487135547331890 0.7618388890993271 -1.0493181265664362
v -0.0716146372332850 -0.0647843648520113 0.0421551164398987
vn 0.0493284760776149 -0.0937672168085731 0.1567052474481157
v -0.0755829796292777 -0.0609062141805494 0.0030000000000000
vn -0.0537794657335411 0.0939850187479044 0.1590545394726936
v -0.0725245451805439 -0.0664777758236734 0.0030418969904447
vn -2.3965546984866437 -2.6218738311479237 -0.1011218304563831
v 0.0064767726077054 -0.0221779105330366 0.0266911715865536
vn 0.7354833089335175 -5.9814236566007910 0.2468017212291116
v 0.0127493374757706 -0.0307584535782898 0.0153115614654503
vn -2.8488030767765116 -4.3996080097944956 1.3644682159219279
v 0.0070679491963092 -0.0285001598150432 0.0229326953094741
vn -1.6720811538431921 -1.0605967861431331 0.2731823062928190
v 0.0039165911029623 -0.0314085937183412 0.0159852039426585
vn 0.4430614443765107 -3.0336783328367289 -3.4227841666608927
v 0.0175497366836995 -0.0286368538775839 0.0066815354805648
vn 0.1348755177689425 -2.9643825866536946 -4.2936910286303078
v 0.0051029761741494 -0.0283359377034379 0.0068337041651821
vn 3.0934633295982481 2.7489977724811752 -0.7335644970971464
v 0.0229011942589395 -0.0057591666962510 0.0113812614286517
vn -0.5673703905752018 6.0920617390648761 0.7999929739851203
v 0.0141423964596813 -0.0056131901593412 0.0254945477792432
vn 1.7099205267591682 4.5793625767364858 -2.8960087410661250
v 0.0193570060347877 -0.0054796431720146 0.0087880009271937
vn 2.4691410630080322 3.4970206184228876 -0.2166413450914488
v 0.0199740192857106 -0.0027585909670546 0.0173307516732247
vn 6.1179673471380056 -0.9278446903056411 0.2500140257583806
v 0.0229927588090066 -0.0211863230979232 0.0264593294473191
vn 0.0742898535396841 0.0939746029341207 -0.0090912008052096
v 0.0220000000000000 -0.0235000000000000 0.0065000000000000
vn -1.2131209900299325 -0.2076599010267794 -5.9969986444733188
v 0.0032049709482126 -0.0233228266161173 0.0065065028780267
vn 0.3400992394596255 -0.1092726050329192 -0.2383258514699834
v 0.0229996401430710 -0.0285272633219697 0.0305367202682144
vn -0.0186597248200582 -0.0000965031527980 -0.0278588511436735
v 0.0209690022755652 -0.0284988642750140 0.0384132036620858
vn 3.1166020645769219 -0.0171690165538530 -3.1135244948288952
v 0.0229937811068107 -0.0161605450163836 0.0065151262427828
vn 1.7786729222730604 -1.5752006909379614 -1.6164287421275507
v 0.0229711079596395 -0.0282931194637625 0.0071169107879952
vn 2.3003391393864665 -1.3466225574535375 2.2406205860823545
v 0.0229666235459608 -0.0237714643955989 0.0404945484583039
vn -0.7073502535120217 -2.0093888417773607 3.1106083238999491
v 0.0020152481576408 -0.0286447924871193 0.0405012354509065
vn 2.3754591529920495 -4.8407546832911823 -0.3789473896637103
v 0.0194494095651276 -0.0284057519711969 0.0300267567087811
vn 3.3703670847715501 -3.4572104610950953 0.4650962444092880
v 0.0223986242955807 -0.0285235980752592 0.0192253805457482
vn -1.3223693545590762 0.0152601524037882 6.0207671399754004
v 0.0031389830316926 -0.0152693910465751 0.0403228472999802
vn -2.6441845608012140 0.0585923870095959 4.8116244778043216
v 0.0036714114856502 -0.0234427313175673 0.0404953027694257
vn 0.8807990762674174 -2.7924695562830850 -0.2252741885019920
v 0.0015464986436713 -0.0312974252365828 0.0251419046754651
vn 1.4214156391046677 -2.4282167918792501 -1.5774526577475940
v 0.0029665655431882 -0.0223516854080360 0.0298880443771821
vn -0.9566436424800383 -1.7351604206401128 -1.0909270490264531
v 0.0008393421970300 -0.0309296403332484 0.0077728482500777
vn 1.0478572659045076 -5.9282045288783722 -0.1916629165706321
v 0.0040043355163467 -0.0285454417742843 0.0367401009093094
vn 0.0673146313613597 -0.2721943935658065 -0.4695079658381908
v 0.0024448091253180 -0.0052940223961544 0.0104422120969290
vn 1.5128627069133909 0.3384708011689821 4.8661522006277718
v 0.0025924917871094 -0.0063623727246094 0.0393328685058594
vn 1.3387756087524572 -1.0343097235971612 1.4796976247078564
v 0.0229931950381867 -0.0093448298021380 0.0404041225653949
vn -2.2876352291883730 0.4827362908575298 5.0507049318062931
v 0.0034477908109909 -0.0095216545466376 0.0404975982626511
vn -0.2391248499589973 6.0880417548679882 0.3655686349627296
v 0.0050372038859726 -0.0027590438774454 0.0119857662963358
vn 2.2221458125964673 2.3591073044496094 1.3910223957658328
v 0.0229819174004787 -0.0055020803498328 0.0386083022919116
vn 0.1600660868592430 3.0652212967140793 3.2186510900142760
v 0.0114349754282821 -0.0056091528251820 0.0405118651398169
vn 2.6955840007981688 0.9768363433053794 -2.8650581779818807
v 0.0227602100671755 -0.0094735404655864 0.0065068986072293
vn 2.2327594977221685 4.0474633644901665 0.6833423636688331
v 0.0020954513765137 -0.0043419916625440 0.0173109649493611
vn -0.4556579516774131 0.6580328069284146 0.0136765587971869
v 0.0020492746504963 -0.0152814959514087 0.0304758436029452
vn 2.2496270466492811 5.2402001770182531 -0.6313158198901558
v 0.0038423783574153 -0.0053133445136508 0.0353017745559667
vn -1.8540568562181565 -0.1543731747777739 5.6593512318609172
v 0.0025819114314069 -0.0689939319281245 0.0405046799171295
vn 2.7234189428233209 1.0430857313566075 2.5301144581176747
v 0.0229875051031607 -0.0548911599192531 0.0404838001892186
vn 2.1585802478084735 -1.3736758330165277 -2.2951253458219472
v 0.0229682627167767 -0.0707903674683383 0.0065360820653470
vn 1.5672846551567550 -1.5575859559382035 1.4583247490718041
v 0.0229168906905993 -0.0738248829000002 0.0404877589955245
vn 0.0000000000000000 0.0000000000000000 0.0000000000000000
v 0.0023087503349758 -0.0586056675766559 0.0323173622761950
vn -2.3495894560058446 -0.7065497041475713 -1.0523631813888059
v 0.0064761814698348 -0.1133869917758471 0.0294500081544243
vn 3.5696511712784722 -3.9309793643190609 0.7081111614645391
v 0.0195948666244639 -0.1197116349720281 0.0200506248022323
vn -0.1408129884862732 -1.9298884953594282 0.5760279341494099
v 0.0223875000000000 -0.1109343750000000 0.0201437500000000
vn 2.3966038980464570 -2.1747616665860683 -1.2341164411095564
v 0.0196211722166536 -0.1117626039817956 0.0283185127065520
vn 0.0000000000000000 0.0000000000000002 0.0000000000000000
v 0.0206000000000000 -0.1136000000000000 0.0220900000000000
vn 0.3757664006643314 -0.0802270947685648 0.5233034376174457
v 0.0229981118677365 -0.1193913204702146 0.0197359212995401
vn 3.0466763039266587 -4.1191451270303050 -0.3674025314553219
v 0.0190924074610606 -0.1193827153487052 0.0286221734337684
vn 0.4432389898679598 -2.9256187233225437 -3.7072842942680748
v 0.0120999042548371 -0.1194791893118746 0.0065165595738811
vn 0.7406909606153660 -5.5829790448995436 -0.7292988395307448
v 0.0122817894407743 -0.1222782309259982 0.0155628943027385
vn 3.3766760727398815 4.1451838682758115 0.8854294933991583
v 0.0030733260123587 -0.0960024871281272 0.0351428316963620
vn 1.6015267275293521 2.7787080472623797 -0.8470309699319619
v 0.0204913823667980 -0.0936165949692305 0.0096599815880600
vn 1.8827594637051033 5.1628132763101577 -1.0148392808670628
v 0.0040235591043695 -0.0940660161062632 0.0117966251716053
vn 1.7936532257063149 -1.7285473774653932 -1.7493498525327189
v 0.0228675282451504 -0.1188428045079845 0.0068231799658264
vn 0.9871530088340630 -0.4504494830330354 1.9556678413635926
v 0.0021446368651323 -0.1171072049277466 0.0204556641534934
vn -1.4678826499679942 -0.2607353056500800 5.8741671554408175
v 0.0030770933411193 -0.1155436600875231 0.0404922785740761
vn 0.1529959050590802 -3.0786161564401811 3.3583956862689699
v 0.0049200782374945 -0.1194130979222414 0.0402982388097072
vn 5.2333725301510983 -1.6213984534072678 -1.4277337743971676
v 0.0229430135465600 -0.1119999689402866 0.0301569666362151
vn 0.8792046818775874 -3.1266377923565809 -0.5213451854774095
v 0.0011535318918622 -0.1221944327650872 0.0347487196060295
vn 1.5872246967374806 -1.6159024301087006 1.3803013697133744
v 0.0228832502145941 -0.1193549591083166 0.0402897139839881
vn 3.5753281318189782 2.6715748565338489 -0.0479658483394120
v 0.0029884677494552 -0.0936171790154040 0.0278051887778110
vn 0.6882176265249901 6.2021871306439014 0.3596019176722156
v 0.0163712580573822 -0.0965606784022346 0.0240821181781082
vn 0.3184506687616417 1.7926282625862406 5.2063950448288061
v 0.0034228019411021 -0.0986855197254187 0.0404947623649086
vn 2.2778514630488820 1.2818724765504312 -2.2295806697919658
v 0.0229819430370092 -0.0981313033160771 0.0065157978834989
vn -2.2549785970267480 0.9261081198002075 -1.8175096771225518
v 0.0032310337156289 -0.0987142689038569 0.0065172190655464
vn -0.0000030974604666 0.0000814367279161 6.2831853061106857
v -0.0101689391857114 -0.0064501565273211 0.0459999997618566
vn -2.5048565244583898 -0.8650586113693737 2.3644617245438542
v -0.0788662385676869 -0.0994830494426574 0.0459939266597102
vn 4.0634625310718722 -2.0251998007811456 -1.4634156913818497
v -0.0002575413826830 -0.1220662324539208 0.0157447285265031
vn 2.3614957491249440 -1.3527971180599931 2.1791342552632180
v -0.0000000810294455 -0.1222401868736924 0.0459999999467638
vn 1.9922888299546684 -5.4472098226167969 0.6656170401819911
v -0.0035772125000000 -0.1249349075000000 0.0430000000000000
vn -0.3699891417325242 -3.0744280876700865 -2.8479422030471313
v -0.0100000000000000 -0.1254999900000000 0.0430000000000000
vn -4.5591384068015897 -4.2122743867967536 -0.0488850743639048
v -0.0757316900000005 -0.1039558399999995 0.0125408148040370
vn -0.2699815676541693 -0.0704526936727802 -0.7965881538483185
v -0.0691680200000000 -0.1083851200000000 0.0430000000000000
vn -1.7760895087561690 -2.4969542974892960 2.6771881671759110
v -0.0727844881544696 -0.1063270622215583 0.0459899262855693
vn -0.4224653787395262 -3.0793909016245467 -3.4299977715199179
v -0.0099999750397668 -0.1249999999981977 0.0429999999999450
vn -4.7123889803846906 1.5707963173957011 -1.5707963328051546
v -0.0800000000000000 -0.0170000000000000 0.0430000000000000
vn -1.5707664776526677 1.5707963212787219 -1.5707773304427168
v -0.0800000000000000 -0.0005000000000000 0.0430000000000000
vn 1.5707963338231143 1.5707963350258092 -4.7123889803847172
v -0.0770000000000000 -0.0170000000000000 0.0430000000000000
vn -1.0373518722952704 6.0744493665004153 -0.2932852167981522
v -0.0358224181155542 -0.0005008392129040 0.0430000003094221
vn 1.5707963267948966 1.5707963267948966 -1.5707963267948966
v -0.0770000000000000 -0.0590000000000000 0.0430000000000000
vn 1.6038337763505457 -1.5703116646555979 -1.6024791948105233
v -0.0770000000000000 -0.0568490000000000 0.0430000000000000
vn 1.5707963267948966 1.5707963267948966 -4.7123889803846897
v -0.0700000000000000 -0.0590000000000000 0.0430000000000000
vn 1.5260732365361056 -1.5648284807153421 -4.7925216446715941
v -0.0690000000000000 -0.0568490000000000 0.0430000000000000
vn -1.1340031716837400 1.5086371080188627 -1.2892352992863718
v -0.0170000000000000 -0.1198522000000000 0.0430000000000000
vn 2.0090872159398501 1.5130182424074177 -1.8540356930884043
v -0.0409887982762565 -0.1129135569182550 0.0429920507497755
vn -1.4631636380095192 1.5661272267229045 -4.7839609932343929
v -0.0170000000000000 -0.1168770100000000 0.0430000000000000
vn 1.5704252658555595 1.5734235479757537 -4.7115220996572109
v -0.0410000000000000 -0.1039099800000000 0.0430000000000000
vn -2.3035858540414362 1.3894010723726753 -4.2270511667864223
v -0.0375000000000000 -0.0013856200000000 0.0430000000000000
vn 1.5707963267948966 1.5707963267948966 -1.5707963267948899
v -0.0770000000000000 -0.0478490000000000 0.0430000000000000
vn -1.5708212632773533 -1.5707673899884891 -4.7123889801261960
v -0.0375000000000000 -0.0030000000000000 0.0430000000000000
vn 1.5590342932412879 1.5682901121034973 -4.7544191307053216
v -0.0690000000000000 -0.0478490000000000 0.0430000000000000
vn -1.7210295120939032 -1.4895921397056926 -4.7008324676420958
v -0.0170000000000000 -0.0080000000000000 0.0430000000000000
vn 1.5707963267948963 -1.5707963267948961 -4.7123889803846879
v -0.0700000000000000 -0.0680000000000000 0.0430000000000000
vn 1.5707963267948966 1.5707963267948966 -1.5707963267948966
v -0.0770000000000000 -0.0843585500000000 0.0430000000000000
vn 1.5707963267948963 -1.5707963267948963 -1.5707963267948966
v -0.0770000000000000 -0.0680000000000000 0.0430000000000000
vn 1.5707963267948966 1.5707963267948966 -4.7123889803846906
v -0.0700000000000000 -0.0843585500000000 0.0430000000000000
vn 2.2435548470100803 -1.4178832002940895 -4.3096469593617632
v -0.0700000000000000 -0.0933585500000000 0.0430000000000000
vn 1.3829198653319219 2.7633606206397423 -2.7906951275611656
v -0.0691220303521255 -0.1047234100672214 0.0429985756314722
vn -1.5660642498563189 1.5763106208542279 -4.7118398916527724
v -0.0500000000000000 -0.1039099800000000 0.0430000000000000
vn 2.1492405190666330 -0.6441333283463380 -1.6262279921514318
v -0.0763810575104729 -0.0966315754132945 0.0430000000000000
vn 0.3164327492286785 -4.0911045478102448 1.5511242189025904
v -0.0720081931796447 -0.0933585498707438 0.0240066716794165
vn 2.3439692043335718 1.9804256384114209 -2.7294699175774375
v -0.0741081524492292 -0.1009245144453268 0.0430032815674055
vn 5.4701248770741628 -2.0773898115798328 -0.2618913448082590
v -0.0762650100000000 -0.0880875200000000 0.0430000000000000
vn 0.7918195841535465 -2.2573983754037852 4.4496459988569637
v -0.0747771601079309 -0.0863740599654214 0.0459989364029339
vn -2.1066391147017747 -1.1100701393346797 4.5496678691775942
v -0.0717840310434411 -0.0875331627828986 0.0459999996721351
vn 3.0315384220001529 -0.7797342739835609 3.0905274726810377
v -0.0762543634433647 -0.0898614687847248 0.0459999931948290
vn 1.9975107245759249 -1.4105217296998322 4.4818441867139809
v -0.0476945295782048 -0.1066746484068765 0.0459944062676642
vn 1.6756843156035206 -1.6022786245281428 -1.6716668898346825
v -0.0690701998855949 -0.0565449805997239 0.0362005890640063
vn 1.7371034938996350 1.6026405613230865 -1.6845307588750016
v -0.0690124015037955 -0.0481593126653778 0.0362683526664392
vn 4.7914983669094990 1.5368456830099706 -1.5627468287680633
v -0.0770000000000000 -0.0478490000000000 0.0360000000000000
vn 4.8162774447272731 -1.5381529750163823 -1.5318310544341807
v -0.0770000000000000 -0.0568490000000000 0.0360000000000000
vn -0.1066355549883545 -3.0437943204446931 2.6501743686398100
v -0.0094137061214053 -0.1256440035019836 0.0459999789766792
vn -1.5365842343763829 1.0769589730893245 4.9910020876289902
v -0.0433139628118510 -0.1097741370544119 0.0459999822731698
vn 1.5522858553682652 1.7022280008696118 -1.6694336519434105
v -0.0474584419655918 -0.1098502675964274 0.0459999958562799
vn -1.0914099875386531 -2.0041645007108913 4.6503644056830442
v -0.0446084530083381 -0.1058286623746043 0.0459998651662428
vn 0.0878910836656404 3.0331324533977009 3.8954166794245331
v -0.0084629308661461 -0.0005103462424008 0.0459998313181833
vn -1.5707577181801426 1.5707956627442392 1.5707771378510942
v -0.0800000000000000 -0.0005000000000000 0.0460000000000000
vn -0.5571375385102405 4.7339015082205913 2.5151517866937181
v -0.0333513516965320 -0.0000525018590263 0.0430000000000000
vn 2.7524394500853195 0.9924967695758508 2.5589193008015596
v -0.0000000170691487 -0.0042059378978826 0.0460000000000000
vn -1.2148536945724189 -2.8725769110250425 2.9057906065242447
v -0.0691680200000000 -0.1083851200000000 0.0460000000000000
vn -3.1120968990682432 -0.2902302867733314 2.9592242818466716
v -0.0800000000000000 -0.0934782519590960 0.0459999986662425
vn 0.0000000000000000 0.0000000000000001 0.0000000000000000
v -0.0095770003100497 -0.1219966586700096 0.0349963731045259
vn 1.1007922361333951 3.3433001167048415 1.5284178458144548
v -0.0000028849822347 -0.0039498874224995 0.0384975413765514
vn 1.9700884133257872 3.8659574218502302 1.7532517837256987
v -0.0027660351614330 -0.0000117084920266 0.0442878244762400
vn 1.5709135818550441 1.5709940704257936 -1.5707963136510505
v -0.0770000000000000 -0.0170000000000000 0.0120000000000000
vn 1.5707963267948966 1.5707963267948963 1.5707963267948957
v -0.0770000000000000 -0.0590000000000000 0.0030000000000000
vn 1.5707963267948966 4.7123889803846897 1.5707963267948990
v -0.0770000000000000 -0.0530000000000000 0.0030000000000000
vn 3.5286596421315535 3.0253854192830056 -0.5929347959826591
v -0.0770000000000000 -0.0530000000000000 0.0070000000000000
vn 4.3866981310737048 1.4645284594103760 -2.1408073243674606
v -0.0770000000000000 -0.0509656873824106 0.0119905806916805
vn 1.7049594355042392 5.7895029125900983 0.5719634779234228
v 0.0034751118450795 -0.0508829787961713 0.0349865194347324
vn 5.5907650849253203 1.8875820444441627 0.6327211140946020
v 0.0000148572063165 -0.0484847082915619 0.0384591369232439
vn 0.4109550148621375 1.9841250574675264 -2.8937550328421429
v -0.0000080449116505 -0.0493650184484522 0.0159919565763103
vn 5.1823141065414049 -0.7938363430772478 -2.3789139279944318
v 0.0000647685760766 -0.0761483472900696 0.0160600165391933
vn -2.1278716020420885 1.2312428410930232 -2.6196062939514322
v 0.0024821059051394 -0.0528862119064954 0.0065161525263712
vn 1.4908094913203140 -3.2986758502126952 -0.6709222130958189
v 0.0015384154626508 -0.0767624967985744 0.0257176307016401
vn 0.4254362908220040 -0.8976940689461619 -1.1247872870530136
v 0.0024072340036308 -0.0686016531731342 0.0303777430735291
vn 2.8142962159457729 4.1507753539007481 0.3803538144446711
v 0.0019354841322376 -0.0507609350399523 0.0231477704576413
vn -1.0175200366761965 1.8912455975090010 4.1956054463527703
v 0.0022331534004160 -0.0524827933695344 0.0404963357066773
vn 4.6687653306847086 -1.9943529711267389 1.3152879087899687
v 0.0000000000000000 -0.0757500000000000 0.0385000000000000
vn -0.0197128412997966 -2.8998632784545002 3.5108508726373033
v 0.0046618976844231 -0.0739678122907137 0.0404745578817521
vn -1.7212842263422599 -1.5657686440853558 -1.9936736066095462
v 0.0022387725864327 -0.0723470601351781 0.0065258573453514
vn 0.1421247006697707 0.9687111788115930 -0.6043461551790542
v 0.0018909245781377 -0.0480652047750336 0.0111179374183622
vn -6.2422693014686956 -0.4354323426297727 -0.2344062937225704
v -0.0467777631714987 -0.0343531821670220 0.0164713243942542
vn -3.9032661069397419 2.0097100097998131 2.0838157511950746
v -0.0425534121693549 -0.0181297313692214 0.0224965595484253
vn 1.7353272332322134 1.0957267688583592 -2.4096982523517241
v -0.0234986294792304 -0.0494516191793846 0.0214853169476824
vn 1.3181433254130777 1.3654981713196785 -5.0452046923972880
v -0.0290381785282259 -0.0410164426670978 0.0031625596481700
vn 1.1894275422300526 -0.9196284165312237 -0.3570705973035899
v -0.0308126809405324 -0.0317479860002471 0.0063373044655011
vn 3.6268227930750339 -1.5086422075547699 3.5199849312714480
v -0.0234996413229738 -0.0318167619310406 0.0193472519032714
vn 2.4867843877967806 0.6498146818285933 2.9209612886296381
v -0.0235209342266184 -0.0424247288900183 0.0231453993832057
vn 1.5679258344648188 1.7877733705120264 -1.7268487007545155
v -0.0259076353932929 -0.0175208464413162 0.0031575118020914
vn -0.8463669929843972 2.1098563739526002 1.6736547331000424
v -0.0451940864036283 -0.0173887899090531 0.0228612039952080
vn -2.8339153535541959 0.7294201880406981 2.3149990151740227
v -0.0482076037147233 -0.0225929355726397 0.0229293837903941
vn -5.3727914008938971 2.0348043607898458 0.2964654958250946
v -0.0464888805325968 -0.0504086851701911 0.0182233071184009
vn -3.1561544751665491 0.3704110849487819 -3.4049256849298826
v -0.0463293341443097 -0.0455580128042240 0.0032340141301927
vn 1.8652875973824024 -0.3708023516004024 3.2143142183267646
v -0.0230087323004538 -0.0258872036513629 0.0230378646261906
vn 5.5536133489726298 -0.8158416145629754 0.8219429320234070
v -0.0207214611281309 -0.0278123816130367 0.0159679511090083
vn 0.6914676381299283 1.1812996728406016 -0.8849244853582209
v -0.0206149643313684 -0.0208830034768429 0.0084090260674807
vn 4.1380795276642592 -0.8390157959215124 -2.9776991055684308
v -0.0234995888061883 -0.0345114949636484 0.0075439544680370
vn 2.2256038150297490 -0.8177613283211386 1.4323154158561937
v -0.0306722186429087 -0.0314321578936964 0.0196354284526501
vn 1.3899963222743854 1.7410347298576090 1.5856308248202378
v -0.0301880684696323 -0.0409004677900891 0.0201921849046002
vn 0.6879500579507296 1.0353966379873276 -0.5990338431714299
v -0.0305071395481819 -0.0410510515842265 0.0065455638660265
vn 2.4870012230725180 -0.8104882150328470 -3.6757656180674640
v -0.0245187939607402 -0.0295377110627823 0.0031070174028018
vn -0.0208248963542813 0.1129181839126362 -0.0027301401066442
v -0.0281186232922956 -0.0513969164314836 0.0031730921182123
vn 0.8115803800289897 -2.2226687005193240 5.0896829831994506
v -0.0283827533229385 -0.0513071289459707 0.0230554028243749
vn 2.7213407365018201 3.0690739004834495 0.4976743891534060
v -0.0234260419533878 -0.0521676770650368 0.0134325859298487
vn 3.7935561079419515 0.4028872666089855 0.9040227742989464
v -0.0207470255723814 -0.0533071920835707 0.0193042116497982
vn 1.5182020423715974 5.2160323992674993 -1.2810343454975466
v -0.0217000000000000 -0.0545000000000000 0.0033000000000000
vn -1.5496331203513620 3.9912730559236698 -3.2114882934948423
v -0.0483464319618278 -0.0544524817079017 0.0031016409893673
vn -2.6664198904896268 0.8898426210901758 3.6829519670516966
v -0.0465253644927245 -0.0511117637913631 0.0230371384029638
vn -2.8760180511602167 0.4366983291721385 -1.8339498731409472
v -0.0494967969373513 -0.0516659813596436 0.0034147840937387
vn -0.3821265631746131 1.8197750567072557 -0.3235650957614464
v -0.0469366340952143 -0.0523737944081732 0.0121884028717186
vn 2.9075361404876268 0.7261129149632942 -3.6798575764220405
v -0.0238052290594779 -0.0496136478321300 0.0031126626167302
vn 0.3204118677017049 6.1848679510325946 0.5772385203544314
v -0.0217000000000000 -0.0545000000000000 0.0229000000000000
vn -1.4684163424622287 -0.7308664188085139 2.2699047524073848
v -0.0483320127096114 -0.0544630246100569 0.0230989687301013
vn -0.0000000000000001 0.0000000000000000 -0.0000000000000001
v -0.0301380715693425 -0.0532305007494752 0.0139789115289112
vn 0.0000000000000001 0.0000000000000000 0.0000000000000000
v -0.0398347378867483 -0.0517616288340795 0.0112398845247353
vn 2.3595337964975505 2.8313933177772257 -0.9348829058820974
v 0.0228200650636070 -0.0494232659840226 0.0114074781265973
vn 2.3327122326826872 -2.2858566175246660 -0.0925803049256197
v 0.0228076571184910 -0.0761296450821004 0.0166362757865963
vn -3.0008813877989917 -3.7152599616264568 0.2999199621715223
v 0.0056903451329699 -0.0747340225028424 0.0185037157125940
vn 0.4231262941771902 -5.3870198693087854 -1.0676276566447762
v 0.0063101527493356 -0.0738336860521394 0.0305959194184789
vn -3.8420171430477814 -1.3440401542432729 1.7072446989319461
v 0.0043483177946492 -0.0661596587342242 0.0171331632692879
vn 1.5761106212465767 1.5695708739653218 1.5737446074336339
v 0.0229949625597553 -0.0095500000000000 0.0404908719031215
vn -4.3972829125686239 -1.3007132997119699 0.5136221730492498
v 0.0028506600807267 -0.0142261630832911 0.0151544650285757
vn -0.2531976787775665 -1.3134921556460593 -2.1575563963027373
v -0.0000201084657396 -0.0293970408272474 0.0159751774447780
vn -3.0472847111055259 -0.1014927525330465 -3.7226801380067958
v 0.0032948635065537 -0.0095622092501227 0.0065090393319890
vn 6.1644256524671395 -0.8121277728341421 -0.1259709850217690
v 0.0229974192443572 -0.0670053653286069 0.0298527396425774
vn 2.9500695791707536 -4.3984442396223757 0.0349735324226544
v 0.0205972874630788 -0.0738282521269031 0.0298882410864731
vn -1.6130466277260425 4.7201436281093789 -1.1138248618587989
v 0.0049706245119572 -0.0490055088461096 0.0117686554937734
vn 1.0411312545800977 3.0279291315041501 2.5857134180290551
v 0.0190351218845595 -0.0509764379602972 0.0401857146796896
vn 2.3980877854768847 1.1108124316685513 -2.6672763514859503
v 0.0229947733124765 -0.0541176879146008 0.0065087648369112
vn -0.1029569501656397 6.2531695364029476 0.3814397073745787
v 0.0107416186461691 -0.0508964445536051 0.0251657527825541
vn -0.2171125019865274 -0.0075900984059201 -6.2513631550141149
v 0.0034356626884752 -0.1141678054392853 0.0065060147319104
vn 1.6293425268120325 1.5661234080365185 1.6198188940570788
v 0.0229874235661568 -0.0971051374256910 0.0404821275349388
vn 3.1042075636538078 -0.0905576393693119 3.1116228181386374
v 0.0229653033565972 -0.1143705524040575 0.0404922330464520
vn 3.0566466573629496 -0.1582684547299443 -2.9620635811354568
v 0.0229809014094095 -0.1143713599008801 0.0065095299519141
vn 0.0000000000000000 0.0000000000000000 0.0000000000000000
v -0.0255993532080078 -0.0574640625000000 0.0159738465185547
vn -0.0810048530198004 0.0904643818192181 -6.2748723593232514
v -0.0424935555817029 -0.0513229377062188 0.0031184101163862
vn 0.0647945590169561 0.7363128397437525 -0.6052887441017246
v -0.0448648694260137 -0.0175625919523418 0.0031154995954295
vn -3.4364428321576050 0.3543099710770224 -2.7368552939198074
v -0.0477886155295668 -0.0261523757178905 0.0034543893547053
vn -0.0242547261829120 -3.1062473397740873 3.2979207937962061
v -0.0424750070450145 -0.0504886299367499 0.0230999948744434
vn -1.5605137591675518 1.7038168742067317 1.7011568208021297
v -0.0424500000000000 -0.0175045886285079 0.0230957323862151
vn -1.5677113647592968 1.5771956505123106 -1.5798719430062194
v -0.0424500000000000 -0.0175091330310414 0.0031044996164899
vn 1.4210610834901618 2.0598306560384869 1.9830603705830747
v -0.0254013184065309 -0.0175115297618872 0.0230766344059458
vn 2.2717780483436658 1.2691554317986777 4.1842578029669735
v -0.0304974355943749 -0.0400575080395276 0.0230979943763275
vn 1.5104013381954657 1.2244230067887623 1.4138043948159087
v -0.0210000000000000 -0.0545000000000000 0.0230000000000000
vn 1.5714995196781478 1.5707959149036788 4.7122921395648207
v -0.0210000000000000 -0.0545000000000000 0.0030000000000000
vn -0.3227636212262740 3.0880547614333440 3.3064358690467728
v -0.0490000000000000 -0.0545000000000000 0.0030000000000000
vn -1.6640601609801988 1.5349002308074440 1.6056914021196287
v -0.0490000000000000 -0.0545000000000000 0.0230000000000000
vn 2.4786737243756782 3.1776110052644619 -1.4412932781977714
v -0.0016685474130203 -0.0000170209514458 0.0143315547094038
vn -1.6987201219318071 -2.5367531147049549 -2.7153556698844561
v -0.0727019735247195 -0.1063478123408441 0.0000000000000000
vn -2.7782276925147289 -1.2313945589521746 -2.6627471720215126
v -0.0791228971243840 -0.0988487558136059 0.0000000000000000
vn -3.1208102002571358 -0.2530360643833192 -2.9797883829026754
v -0.0800000000000000 -0.0934758300000000 0.0000000000000000
vn -1.5707964700524899 -1.5707964643512513 4.7123889803846826
v -0.0375000000000000 -0.0030000000000000 0.0030000000000000
vn -4.0461278918044092 3.5169807779466167 -0.2594795506584205
v -0.0375000000000000 -0.0013856200000000 0.0030000000000000
vn 3.5984746612116938 2.7552463622429513 1.2534225661322114
v -0.0699676172008030 -0.1042868673781885 0.0050727680428504
vn 2.3623148813504939 -0.5946782270203999 1.7748726292000352
v -0.0763826824505203 -0.0966257816291390 0.0030000000000000
vn 2.6206585130552185 1.6853755295302875 2.8748765940665040
v -0.0750168000000000 -0.0995510500000000 0.0030000000000000
vn -0.3827396493497355 1.0347003639550958 0.7264757623896618
v -0.0720355221300125 -0.1030121071455961 0.0029934630062027
vn -1.5709131616438006 1.5709798453576058 -1.5707963111004084
v -0.0800000000000000 -0.0170000000000000 0.0120000000000000
vn 1.7340455769960648 -2.3574524405777098 4.1508810268904339
v -0.0577686658543910 -0.1111831296335214 0.0079895312953750
vn -2.1592234006218556 0.5533945974912128 4.6011784757709382
v -0.0626273700000000 -0.1097770600000000 0.0080000000000000
vn 2.8271856906857100 3.4451795108919474 -1.6938083349992570
v -0.0659966956148258 -0.1056794662394545 0.0239938724996643
vn -0.7033912595417265 -5.4073471325083400 -1.0192931372592930
v -0.0677191008625051 -0.1083721625873225 0.0244541315861249
vn -2.6394416561826448 3.3728247546707570 -0.0745158911448012
v -0.0510021323831794 -0.1100167913957808 0.0237578651471211
vn -0.5551261133584243 2.1264572856215365 1.7246024785286915
v -0.0540035581232624 -0.1091485911615547 0.0080075062294311
vn -1.5727600071809487 1.5852899768681565 1.5887851788335507
v -0.0491116600000000 -0.0945959100000000 0.0070000000000000
vn -4.7103600453822621 1.5710667625418560 1.5737019488815611
v -0.0510000000000000 -0.0945959100000000 0.0070000000000000
vn 1.5707963267948961 -1.5707963267948966 1.5707963267948966
v -0.0533223500000000 -0.0552267600000000 0.0240000000000000
vn 1.5707963267948966 1.5707963267948966 1.5707963267948954
v -0.0533223500000000 -0.0532267600000000 0.0240000000000000
vn 1.5707963267948910 -1.5707964472114382 4.7123888824156674
v -0.0700000000000000 -0.0552267600000000 0.0240000000000000
vn -1.5707963267948966 1.5707963267948966 1.5707963267948966
v -0.0720000000000000 -0.0532267600000000 0.0240000000000000
vn 4.7123889803846017 1.5707963267948970 1.5707955797958102
v -0.0700000000000000 -0.0590000000000000 0.0240000000000000
vn -1.5707963267948961 4.7123889803846897 1.5707963267948966
v -0.0720000000000000 -0.0590000000000000 0.0240000000000000
vn 1.5708053276913245 -1.5707843803698240 4.7123889803344827
v -0.0533223500000000 -0.0552267600000000 0.0030000000000000
vn 1.5707870187671866 -1.5707818690096940 1.5707964306438584
v -0.0700000000000000 -0.0552267600000000 0.0030000000000000
vn 1.5707963267948961 1.5707963267948966 4.7123889803846897
v -0.0533223500000000 -0.0532267600000000 0.0030000000000000
vn -1.5707963267948961 1.5707963267948966 4.7123889803846888
v -0.0720000000000000 -0.0532267600000000 0.0030000000000000
vn -1.5707963267948966 1.5707963267948966 1.5707963267948968
v -0.0720000000000000 -0.0590000000000000 0.0030000000000000
vn 0.7140047445147266 -1.3186722732510283 0.9984947918984259
v -0.0700000000000000 -0.1042148200000000 0.0240000000000000
vn -2.4332858710703658 -1.3166235700724880 2.1544475941531971
v -0.0719993300000000 -0.1029090900000000 0.0240000000000000
vn 4.7123889803846017 -1.5707963267948966 1.5707955797958102
v -0.0700000000000000 -0.0680000000000000 0.0240000000000000
vn 2.0393666995489066 1.4094235260967607 2.2551412784674798
v -0.0700000049932147 -0.1032767839040008 0.0030004472509536
vn 4.7123889803846017 1.5707963267948970 1.5707955797958104
v -0.0700000000000000 -0.0843585500000000 0.0240000000000000
vn 4.7176064382329441 -1.5661326538350939 1.5719452599693986
v -0.0700000000000000 -0.0933585500000000 0.0240000000000000
vn -2.5642291985369243 1.2119625338127915 2.1971429974429890
v -0.0409977819718216 -0.0052060956474594 0.0029999998201391
vn -2.5755658092018350 1.2075093940744894 -2.2959595437856337
v -0.0409959943993579 -0.0053306204867376 0.0000000000000000
vn -0.8411103488235585 2.8868688066001580 -2.6657239031153468
v -0.0343246410700068 -0.0000079383008064 0.0000000984314783
vn -1.5707963276004080 1.5708715783087059 -4.7123425229113476
v -0.0410000000000000 -0.0530000000000000 0.0000000000000000
vn -1.5707963208756452 1.5708692307882055 4.7123425722034238
v -0.0410000000000000 -0.0530000000000000 0.0030000000000000
vn 1.5624995972968301 0.3268640377056080 1.2150792596657278
v -0.0481689395687847 -0.1084490015030363 0.0030000000000000
vn -0.3998872415568100 -1.5144293882477013 1.1726217810378032
v -0.0450080206387508 -0.1054082034834219 0.0030000000000000
vn -1.0651029860705117 1.1113380356454978 0.8777310766979904
v -0.0432486504081653 -0.1104690441127993 0.0036679704223202
vn 1.5707963267948963 1.5707963267948970 1.5707963267948966
v -0.0770000000000000 -0.0843585500000000 0.0030000000000000
vn -1.5707963267948966 1.5707963267948966 1.5707963267948966
v -0.0720000000000000 -0.0843585500000000 0.0030000000000000
vn 1.5707963267948966 -1.5707963267948970 1.5707963267948966
v -0.0770000000000000 -0.0680000000000000 0.0030000000000000
vn -1.5707963267948966 -1.5707963267948966 1.5707963267948966
v -0.0720000000000000 -0.0680000000000000 0.0030000000000000
vn -0.0282636382419033 -1.5774997715560941 1.1058119364653936
v -0.0744426225434174 -0.0860934564671639 0.0030000000000000
vn 0.7228622131858491 2.7082862042540894 2.2950683157460969
v -0.0747643720668816 -0.0911279639057260 0.0030009053661015
vn 2.3857066103344655 0.4000837868088490 1.7625159570534426
v -0.0765387227945902 -0.0896065258770013 0.0030057338531816
vn -0.6321882075699018 -1.2556014970731810 0.9286613034556354
v -0.0720000000000000 -0.0933585500000000 0.0030000000000000
vn -1.5707963267948966 4.7123889803846897 1.5707963267948966
v -0.0720000000000000 -0.0843585500000000 0.0240000000000000
vn -1.5707963267948966 -4.7123889803846897 1.5707963267948968
v -0.0720000000000000 -0.0680000000000000 0.0240000000000000
vn -1.7492749993804591 0.8705978027407207 1.3250757490050635
v -0.0720105969924753 -0.0906515311156072 0.0030980779667198
vn -2.7572772791308990 1.3469792499400164 3.5970347289959803
v -0.0726545711808008 -0.0912034564330062 0.0459998832103401
vn 1.7321576670592835 1.6537513292055868 1.6096940834534730
v -0.0490006033015400 -0.0946875640370365 0.0237717373096375
vn 1.5460505197512830 4.7513551507450877 1.5702500321826274
v -0.0490000000000000 -0.1039099800000000 0.0240000000000000
vn 1.5707943540764289 1.5731728282043973 1.5718243333128057
v -0.0490000000000000 -0.1039099800000000 0.0030000000000000
vn -0.8907826028490251 1.0692199628415300 1.2106928033383431
v -0.0510000000000000 -0.1100174000000000 0.0030000000000000
vn -1.1317675368349354 1.5094582056098131 -1.2706952321750917
v -0.0500034595011808 -0.1103050672659142 0.0429854811136191
vn -2.1279869692376789 1.7947031076879645 4.5612800324873710
v -0.0500000000000000 -0.1039099800000000 0.0240000000000000
vn 2.7601462273318056 -0.8804532311288459 2.8538505192262553
v -0.0490575874127257 -0.0756465844622091 0.0030000000000000
vn -1.7968707822804346 -1.4344327710351390 2.2279091636238006
v -0.0488999269939601 -0.0594999309140203 0.0229942288012920
vn 1.5625703689820976 -2.0790469544217918 1.8916913515231293
v -0.0221755544201825 -0.0594999654473622 0.0228032652784735
vn 0.0000000000000000 0.0000000000000000 0.0000000000000001
v -0.0412633439453125 -0.0576250000000000 0.0128058331640625
vn 1.8935431385316595 -1.5091360906779649 4.6554910249955981
v -0.0210000000000000 -0.0595000000000000 0.0030000000000000
vn 1.5707963267948966 1.5707963267948966 4.7123889803846897
v -0.0410000000000000 -0.1039099800000000 0.0030000000000000
vn 2.0072780204508973 1.5089304110732862 1.8523209628454567
v -0.0410000000000000 -0.1129099800000000 0.0030000000000000
vn -0.7299245658400759 -1.1753869596907764 0.9659502968402882
v -0.0641970113333487 -0.1178111875308988 0.0078926049817361
vn 0.8876125668777606 -2.1998919457642625 -4.6103052460471661
v -0.0578242700702563 -0.1111664002435901 0.0000000000000000
vn 0.2571098628031509 -1.6139459499613229 -0.9310395433798462
v -0.0608286051777726 -0.1185278397883468 0.0007965007484175
vn 0.7415115341107953 0.7519968622808524 2.5131841148340497
v -0.0619818241479562 -0.1063356257881816 0.0029999997720060
vn -1.5648492666882698 1.5670103016987647 1.5707850689220397
v -0.0510000000000000 -0.0547169400000000 0.0070000000000000
vn -1.6926877180444868 1.5654919508583793 4.6619875425466413
v -0.0510000000000000 -0.0547169400000000 0.0030000000000000
vn -2.1097504305038646 1.3480705897438647 2.3770518621764181
v -0.0510000000000000 -0.1032767600000000 0.0030000000000000
vn -4.6724837852638776 0.7130688285876905 2.2380663357930093
v -0.0510000000000000 -0.1044729218624376 0.0050000000000000
vn -1.4639724043098958 1.5421783426425426 1.5467421400402639
v -0.0510000000000000 -0.0946271352742071 0.0238803965746254
vn -6.2831853071795791 -0.0000000099598360 -0.0000001962002620
v -0.0799999997936637 -0.0513087971710224 0.0413816101848664
vn -1.5707946390987944 1.5707883064442281 -1.5707963267332041
v -0.0800000000000000 -0.0530000000000000 0.0000000000000000
vn -3.5315421282044861 3.0188952963349229 -0.6083525434044421
v -0.0800000000000000 -0.0530000000000000 0.0070000000000000
vn 0.5788452196109198 -2.2769816372878138 -2.4511230606575092
v -0.0160000000000000 -0.1232644500000000 0.0000000000000000
vn 1.1105101788284921 2.3562226214672668 -2.6804088832876278
v -0.0160000000000000 0.0000000000000000 0.0000000000000000
vn -4.2039965722714578 1.4063696881538421 -2.2641397207263543
v -0.0800000000000000 -0.0507689094055379 0.0119960546145540
vn -0.0000000000000001 0.0000000000000000 0.0000000000000001
v -0.0049987702831824 -0.0175850136334325 0.0212470573222833
vn -2.9966972384759005 -3.2726234953173838 -0.5670584810426814
v -0.0004323231208753 -0.0080933248975849 0.0327477256054621
vn 0.0000000000000000 0.0000000000000000 -0.0000000000000000
v -0.0049982485336348 -0.1079039178241350 0.0250107838393753
vn 0.0000000000000000 0.0000000000000000 0.0000000000000000
v -0.0043703125000000 -0.0626501097949219 0.0373113474169922
vn -0.0000000000000001 0.0000000000000000 0.0000000000000000
v -0.0049998906454687 -0.1078626068736133 0.0218543405009044
vn 0.6966376138062648 -1.1472919596918223 -1.6113654278234679
v -0.0049983244013958 -0.1081518070790276 0.0374603007667634
vn 0.0000000000000000 0.0000000000000000 0.0000000000000000
v -0.0031843750000000 -0.0228949834960938 0.0310443190820313
vn -0.0000000000000002 -0.0000000000000002 0.0000000000000000
v 0.0022701720889568 -0.1022675964714752 0.0321239127167698
vn 0.9602591429617392 -1.1970021867779845 -1.6886453824094603
v 0.0014714965007580 -0.1127944567964197 0.0313370495136648
vn 0.5179269745834112 -2.1379387819488209 -1.7921993192810199
v 0.0024852963516135 -0.0658198073915128 0.0226787664663849
vn 0.0000000000000000 0.0000000000000000 0.0000000000000000
v -0.0043750000000000 -0.0533969693945313 0.0337863554101563
vn -0.2087681999777069 -0.4052273307539451 -0.7590304837551792
v -0.0038279364978849 -0.0716992963238328 0.0344371590896937
vn 0.0000000000000003 0.0000000000000000 -0.0000000000000004
v -0.0050000000000000 -0.0624457290625000 0.0220159409375000
vn 0.0000000000000002 -0.0000000000000000 0.0000000000000000
v -0.0001145282921186 -0.0261206899529878 0.0344842399304771
vn -6.2267856322635913 -0.1261498940363256 -0.3710935727420010
v -0.0042187500000000 -0.0170268057910156 0.0373952525390625
vn 1.5795440729045367 1.5981634291224498 1.6373542890638000
v -0.0491116600000000 -0.0547169400000000 0.0069928506632104
vn 1.5988981881064754 -3.0082390028634247 -1.8685782990602213
v -0.0070674937709753 -0.1255525704997950 0.0089325059852804
vn -0.0138466981155137 6.2828698215500651 0.0374007223742268
v -0.0249294708593750 0.0000000000000000 0.0402792343750000
vn -2.6815170613344899 0.7853981633974484 4.2523133881293838
v -0.0170000000000000 -0.1168770100000000 0.0030000000000000
vn -2.6815170408049083 -0.7856175896434443 4.2519943639098123
v -0.0170000000000000 -0.0080000000000000 0.0030000000000000
vn -1.1343293421388503 1.5089392537618203 1.2892305927121182
v -0.0170000000000000 -0.1198522000000000 0.0030000000000000
vn -1.5707962885885087 -1.5705757686753012 1.5704498749136002
v -0.0170000000000000 -0.0030000000000000 0.0030000000000000
vn 0.5693922853040967 2.6456830455691054 -2.2560605857014968
v 0.0000000000000000 -0.0946000000000000 0.0160000000000000
vn -4.7183559300563109 -1.4621501899852234 1.6399141079081012
v -0.0050000000000000 -0.0816500000000000 0.0220000000000000
vn -5.3787208109608082 -0.0310783963580803 2.1037845304970926
v -0.0050000000000000 -0.0432000000000000 0.0150000000000000
vn 2.5741424046919521 0.1817179207538290 -2.3410899098259197
v -0.0029793610074825 -0.0409500556691586 0.0387892816322265
vn -1.5731165846577246 -1.5742468797279270 1.5713232767357141
v -0.0050000000000000 -0.0432000000000000 0.0220000000000000
vn -2.6288111009307857 2.5442525309485049 1.5823876170958036
v -0.0050000000000000 -0.1168770100000000 0.0150000000000000
vn -4.9733866881467526 1.3777781182933728 1.2113701544775275
v -0.0050000000000000 -0.0886831437962298 0.0220286717316422
vn -1.6865479501008465 1.6688708681625606 -2.3624060677218131
v -0.0050000000000000 -0.1168770100000000 0.0430000000000000
vn -1.6471650029408635 -1.8268638371679027 -1.8399110790710325
v -0.0050000000000000 -0.0080003716436406 0.0417937238191194
vn 1.2784567208676434 -1.2185233613803979 0.9750899707184950
v -0.0050000000000000 -0.0361776694833356 0.0220328287362906
vn -2.6585260092838738 -2.3942771127924054 1.2442352431229404
v -0.0050000000000000 -0.0080000000000000 0.0150000000000000
vn -1.5708154422690428 -1.5736108217059825 -1.5725882065819148
v -0.0170088222733029 -0.0030000000000000 0.0429997659395541
vn 0.0000000000000000 0.0000000000000000 -0.0000000000000000
v -0.0075931444955477 -0.0038337631601761 0.0311152930525412
vn 1.5013844570240973 -0.4779697232022183 -1.7187906967881648
v -0.0046376530786257 -0.0840257440922620 0.0390687179276110
vn 4.9565431122284638 -1.8427426847076984 -1.2562581511820692
v 0.0000000000000000 -0.0816743829835803 0.0374301991568935
vn 4.7172865316732002 -1.6015794398825518 1.5826367394996581
v 0.0000000000000000 -0.0816500000000000 0.0220000000000000
vn 4.9612686395956569 1.5218394687646271 1.3239885038139809
v 0.0000000000000000 -0.0886526614533196 0.0220027672635796
vn 5.1867430559118377 1.5196719999513113 1.3730857273597044
v 0.0000000000000000 -0.0432026614533195 0.0220027672635796
vn 4.9807037799671523 -1.5122996203821635 1.2456121354257577
v 0.0000000000000000 -0.0361946853581678 0.0220027629668859
vn -1.9536925522277748 -2.0191682243880833 -3.8410559890670712
v -0.0652035171391655 -0.1090805626728289 0.0000013029931883
vn -1.8279116217645108 -5.9503658646157191 -0.4952629708895623
v -0.0230457697453866 -0.1212263982408685 0.0243239799999620
vn -3.0696199825026937 -5.0442234357124072 0.0073150363691135
v -0.0241236639570738 -0.1209146015752118 0.0272590878114710
vn -0.8832050031106226 -2.9895729707598773 -3.0064312987516817
v -0.0540114107515905 -0.1122687743175088 0.0000000001611081
vn 0.0000000000000001 -0.0000000000000004 -0.0000000000000001
v -0.0321575961538135 -0.1185996904771714 0.0261325503547956
vn -0.0000000000000002 0.0000000000000004 0.0000000000000002
v -0.0289225320312500 -0.1195264865625000 0.0398036000000000
vn -0.0118249526752085 -0.0099231586925282 0.0565380612753816
v -0.0399879582812429 -0.1180102023712984 0.0331122160907729
vn -1.7027508344327089 -5.9880789146558566 -0.6096062386648406
v -0.0396771182415749 -0.1164646012795117 0.0254936834095570
vn -1.7614298871407941 -6.0299311072056057 0.0022096759518816
v -0.0469071987241938 -0.1144048542524147 0.0261215217406896
vn -0.0000000000000001 0.0000000000000000 -0.0000000000000001
v -0.0289323455909031 -0.1210252158499974 0.0334327367536512
vn -0.2920202597136448 -0.1907951273134629 0.4053489867569857
v -0.0232986927158633 -0.1237505073823381 0.0314246599411303
vn -0.9176056900519377 -6.1627447554589345 0.0521488400564286
v -0.0100306106145937 -0.1250108154589322 0.0324479221054117
vn 0.2040452718449949 -1.7421546102062155 0.4543936472736497
v 0.0027384983383828 -0.1106221230346203 0.0253948236973044
vn -0.0943249499910618 -0.2444351278292439 0.3287805414496359
v 0.0025449375377045 -0.1057870521996268 0.0134180994462225
vn 0.0973850791079323 1.3801552816879459 1.2834697284240655
v 0.0015037644776934 -0.0934690827089565 0.0400932359839020
vn -1.8088293827533548 -0.9114479229432089 -5.2384454025232268
v 0.0020233771385622 -0.1190978735595713 0.0066567531587965
vn -1.7559328787865562 -2.1021774531690620 -1.3843312862935808
v 0.0004783139077928 -0.1219465509631352 0.0080913254953046
vn 0.3063791460089060 -5.8710606994316112 0.6813800330279632
v 0.0050962382278454 -0.1217625116402321 0.0187561319028637
vn 4.4272613644951893 -2.3173772498258440 1.6003707102800175
v 0.0000559017637822 -0.1212425278344052 0.0387069673245585
vn 1.7666580374967396 2.3011608901712530 1.1708509873378432
v 0.0000000000000000 -0.0946000000000000 0.0385000000000000
vn 0.6835310494385060 1.3911308662552091 -0.6675294664897005
v -0.0000487108276050 -0.1191626033707221 0.0312446400315118
vn 2.5818555277614399 1.8657002409749799 0.4551039665293673
v 0.0022391288193448 -0.0964729682076192 0.0217632904009541
vn 1.3735279451070832 -1.0307976923016520 -1.5237997802338294
v 0.0001898123045187 -0.1072770119796545 0.0161961206139028
vn -4.0779926671597524 1.9265795249398863 -1.3941220601476205
v 0.0000000000000000 -0.0946000000000000 0.0085000000000000
vn 0.2145633815749772 1.1656772179818382 -1.3661128648112810
v 0.0021384680153353 -0.0933570779305160 0.0064179486229899
vn 0.0382994029970767 0.2977288789787156 0.4753306633425434
v 0.0023844366406250 -0.0272140892968750 0.0380580952343750
vn -5.1762195694113364 -0.5202195261351112 2.0288237190000675
v 0.0027690587316981 -0.0236098268825104 0.0190322456637312
vn 5.0671475386373608 -2.2433306376009550 0.8471006639808452
v 0.0000000000000000 -0.0303000000000000 0.0385000000000000
vn -0.4930163826659578 1.8295666284201912 1.5526749456697868
v 0.0014340954440434 -0.0026284216303197 0.0400910230042035
vn 1.6255699054046064 0.5906954610456299 -0.0104085765125130
v 0.0017786881775713 -0.0055635187338319 0.0251962898822144
vn -0.7234240101517768 -2.8054078248115237 -3.1349475993344695
v 0.0003416666405049 -0.0124392283262227 0.0163430024837494
vn -4.1123969714496216 1.9052373609880147 -1.5056040685317578
v -0.0000000000000000 -0.0037000000000000 0.0085000000000000
vn -1.0440829715842121 2.1375593763891931 -2.1831999220592873
v 0.0018140577271212 -0.0026682370790331 0.0065810839315311
# 373 vertices, 0 vertices normals

f 2//2 1//1 3//3
f 5//5 3//3 4//4
f 3//3 1//1 4//4
f 1//1 2//2 4//4
f 4//4 2//2 5//5
f 2//2 3//3 5//5
f 367//367 6//6 30//30
f 367//367 30//30 191//191
f 191//191 30//30 367//367
f 16//16 25//25 26//26
f 8//8 11//11 9//9
f 9//9 11//11 10//10
f 26//26 7//7 10//10
f 26//26 9//9 7//7
f 7//7 9//9 10//10
f 8//8 9//9 26//26
f 10//10 22//22 26//26
f 8//8 31//31 11//11
f 37//37 15//15 14//14
f 15//15 37//37 13//13
f 40//40 373//373 14//14
f 37//37 14//14 373//373
f 16//16 22//22 21//21
f 21//21 22//22 18//18
f 22//22 17//17 18//18
f 17//17 11//11 18//18
f 191//191 367//367 18//18
f 313//313 28//28 30//30
f 25//25 8//8 26//26
f 24//24 32//32 20//20
f 25//25 19//19 20//20
f 25//25 20//20 8//8
f 20//20 32//32 8//8
f 24//24 20//20 19//19
f 22//22 14//14 10//10
f 11//11 17//17 10//10
f 17//17 22//22 10//10
f 31//31 18//18 11//11
f 25//25 23//23 19//19
f 6//6 367//367 8//8
f 367//367 31//31 8//8
f 28//28 366//366 24//24
f 28//28 24//24 23//23
f 19//19 23//23 24//24
f 16//16 26//26 22//22
f 6//6 8//8 32//32
f 366//366 27//27 24//24
f 11//11 18//18 31//31
f 6//6 32//32 30//30
f 31//31 367//367 29//29
f 30//30 29//29 367//367
f 192//192 373//373 40//40
f 39//39 36//36 35//35
f 192//192 190//190 36//36
f 42//42 192//192 36//36
f 192//192 36//36 33//33
f 36//36 190//190 33//33
f 190//190 371//371 33//33
f 371//371 41//41 33//33
f 34//34 43//43 36//36
f 43//43 34//34 36//36
f 42//42 36//36 301//301
f 37//37 370//370 13//13
f 15//15 38//38 14//14
f 38//38 13//13 39//39
f 15//15 13//13 38//38
f 35//35 38//38 39//39
f 43//43 39//39 13//13
f 33//33 41//41 37//37
f 12//12 14//14 38//38
f 40//40 12//12 35//35
f 12//12 38//38 35//35
f 14//14 12//12 40//40
f 43//43 13//13 370//370
f 370//370 37//37 41//41
f 36//36 39//39 34//34
f 192//192 33//33 373//373
f 14//14 12//12 10//10
f 10//10 12//12 22//22
f 22//22 12//12 14//14
f 38//38 39//39 20//20
f 20//20 39//39 38//38
f 18//18 373//373 33//33
f 41//41 43//43 370//370
f 141//141 48//48 145//145
f 45//45 145//145 47//47
f 145//145 44//44 47//47
f 194//194 193//193 47//47
f 46//46 197//197 193//193
f 197//197 45//45 193//193
f 45//45 47//47 193//193
f 143//143 48//48 309//309
f 141//141 197//197 148//148
f 197//197 46//46 148//148
f 49//49 353//353 62//62
f 49//49 62//62 358//358
f 308//308 353//353 49//49
f 51//51 50//50 202//202
f 65//65 55//55 52//52
f 52//52 55//55 50//50
f 52//52 51//51 53//53
f 53//53 51//51 52//52
f 51//51 65//65 52//52
f 51//51 52//52 50//50
f 65//65 51//51 202//202
f 54//54 202//202 50//50
f 56//56 61//61 50//50
f 56//56 50//50 57//57
f 50//50 55//55 57//57
f 358//358 57//57 55//55
f 358//358 56//56 57//57
f 54//54 50//50 61//61
f 356//356 56//56 358//358
f 69//69 71//71 59//59
f 59//59 71//71 60//60
f 59//59 60//60 69//69
f 69//69 60//60 362//362
f 60//60 71//71 72//72
f 202//202 61//61 199//199
f 199//199 357//357 62//62
f 361//361 358//358 55//55
f 55//55 67//67 361//361
f 64//64 361//361 67//67
f 356//356 199//199 56//56
f 199//199 61//61 56//56
f 67//67 201//201 63//63
f 63//63 64//64 67//67
f 202//202 54//54 61//61
f 49//49 358//358 361//361
f 308//308 49//49 361//361
f 308//308 63//63 49//49
f 361//361 66//66 358//358
f 70//70 199//199 72//72
f 58//58 307//307 70//70
f 307//307 72//72 70//70
f 199//199 70//70 60//60
f 70//70 72//72 60//60
f 72//72 354//354 60//60
f 58//58 70//70 200//200
f 58//58 200//200 69//69
f 69//69 362//362 58//58
f 71//71 69//69 200//200
f 68//68 58//58 362//362
f 199//199 60//60 72//72
f 60//60 365//365 72//72
f 68//68 362//362 60//60
f 75//75 76//76 77//77
f 352//352 77//77 82//82
f 77//77 78//78 82//82
f 74//74 79//79 81//81
f 80//80 81//81 82//82
f 80//80 82//82 78//78
f 83//83 84//84 85//85
f 84//84 86//86 85//85
f 87//87 88//88 89//89
f 88//88 90//90 89//89
f 91//91 92//92 93//93
f 92//92 94//94 93//93
f 86//86 95//95 85//85
f 85//85 95//95 96//96
f 95//95 97//97 96//96
f 96//96 97//97 98//98
f 97//97 333//333 98//98
f 98//98 333//333 90//90
f 333//333 99//99 90//90
f 90//90 99//99 89//89
f 99//99 100//100 89//89
f 101//101 102//102 103//103
f 102//102 100//100 103//103
f 104//104 276//276 105//105
f 330//330 329//329 99//99
f 99//99 329//329 100//100
f 276//276 104//104 106//106
f 104//104 103//103 106//106
f 106//106 103//103 94//94
f 103//103 100//100 94//94
f 94//94 100//100 93//93
f 100//100 329//329 93//93
f 109//109 107//107 104//104
f 104//104 107//107 108//108
f 105//105 109//109 104//104
f 110//110 111//111 113//113
f 265//265 266//266 113//113
f 259//259 120//120 122//122
f 294//294 115//115 116//116
f 115//115 294//294 116//116
f 90//90 116//116 98//98
f 115//115 116//116 90//90
f 116//116 117//117 98//98
f 117//117 96//96 98//98
f 118//118 115//115 88//88
f 115//115 90//90 88//88
f 117//117 116//116 118//118
f 116//116 115//115 118//118
f 120//120 259//259 121//121
f 334//334 73//73 123//123
f 271//271 265//265 74//74
f 265//265 113//113 74//74
f 84//84 124//124 86//86
f 124//124 123//123 86//86
f 86//86 123//123 125//125
f 125//125 123//123 131//131
f 131//131 126//126 130//130
f 76//76 119//119 77//77
f 119//119 78//78 77//77
f 119//119 127//127 78//78
f 127//127 80//80 78//78
f 80//80 127//127 81//81
f 119//119 129//129 76//76
f 111//111 124//124 113//113
f 124//124 128//128 113//113
f 76//76 126//126 112//112
f 129//129 119//119 76//76
f 119//119 76//76 122//122
f 128//128 74//74 113//113
f 122//122 76//76 112//112
f 111//111 112//112 124//124
f 131//131 123//123 126//126
f 112//112 73//73 124//124
f 73//73 123//123 124//124
f 121//121 114//114 112//112
f 119//119 120//120 127//127
f 120//120 121//121 127//127
f 74//74 81//81 271//271
f 81//81 127//127 271//271
f 127//127 121//121 271//271
f 271//271 121//121 112//112
f 123//123 73//73 126//126
f 126//126 73//73 112//112
f 120//120 119//119 122//122
f 114//114 122//122 112//112
f 254//254 86//86 125//125
f 85//85 96//96 132//132
f 96//96 117//117 132//132
f 88//88 87//87 118//118
f 87//87 133//133 118//118
f 134//134 135//135 133//133
f 135//135 136//136 133//133
f 133//133 136//136 118//118
f 118//118 136//136 117//117
f 117//117 136//136 132//132
f 137//137 310//310 145//145
f 138//138 149//149 139//139
f 149//149 141//141 139//139
f 188//188 139//139 140//140
f 141//141 188//188 139//139
f 139//139 188//188 148//148
f 139//139 148//148 140//140
f 188//188 140//140 309//309
f 139//139 141//141 309//309
f 188//188 141//141 139//139
f 137//137 145//145 48//48
f 141//141 188//188 309//309
f 140//140 309//309 142//142
f 143//143 187//187 142//142
f 309//309 140//140 188//188
f 48//48 143//143 309//309
f 147//147 142//142 187//187
f 144//144 149//149 138//138
f 137//137 144//144 138//138
f 144//144 141//141 149//149
f 141//141 148//148 195//195
f 195//195 148//148 141//141
f 137//137 138//138 145//145
f 44//44 145//145 146//146
f 145//145 138//138 146//146
f 44//44 146//146 147//147
f 146//146 142//142 147//147
f 141//141 149//149 195//195
f 140//140 142//142 146//146
f 141//141 144//144 195//195
f 161//161 177//177 178//178
f 161//161 178//178 160//160
f 176//176 150//150 160//160
f 150//150 206//206 161//161
f 176//176 159//159 150//150
f 165//165 154//154 169//169
f 165//165 153//153 168//168
f 167//167 156//156 155//155
f 179//179 153//153 165//165
f 153//153 179//179 170//170
f 156//156 211//211 171//171
f 205//205 206//206 158//158
f 159//159 206//206 150//150
f 159//159 158//158 206//206
f 169//169 157//157 210//210
f 162//162 155//155 163//163
f 155//155 165//165 163//163
f 163//163 165//165 164//164
f 163//163 164//164 162//162
f 164//164 165//165 169//169
f 162//162 164//164 210//210
f 169//169 210//210 164//164
f 166//166 162//162 210//210
f 155//155 162//162 166//166
f 211//211 167//167 166//166
f 211//211 166//166 210//210
f 168//168 154//154 165//165
f 168//168 153//153 154//154
f 153//153 169//169 154//154
f 156//156 152//152 172//172
f 172//172 179//179 165//165
f 156//156 172//172 155//155
f 172//172 165//165 155//155
f 182//182 171//171 183//183
f 171//171 182//182 183//183
f 173//173 152//152 156//156
f 173//173 174//174 179//179
f 174//174 175//175 179//179
f 175//175 181//181 177//177
f 177//177 181//181 176//176
f 178//178 177//177 160//160
f 160//160 177//177 176//176
f 179//179 175//175 204//204
f 175//175 177//177 204//204
f 172//172 173//173 179//179
f 152//152 176//176 173//173
f 176//176 152//152 173//173
f 152//152 173//173 172//172
f 174//174 173//173 180//180
f 181//181 180//180 173//173
f 156//156 171//171 173//173
f 176//176 181//181 171//171
f 171//171 181//181 173//173
f 184//184 195//195 198//198
f 184//184 141//141 195//195
f 141//141 195//195 149//149
f 148//148 46//46 185//185
f 185//185 186//186 148//148
f 194//194 186//186 185//185
f 188//188 187//187 309//309
f 309//309 187//187 143//143
f 18//18 33//33 192//192
f 27//27 366//366 28//28
f 34//34 27//27 36//36
f 36//36 40//40 35//35
f 30//30 190//190 367//367
f 30//30 42//42 190//190
f 18//18 367//367 191//191
f 28//28 313//313 30//30
f 33//33 190//190 192//192
f 192//192 42//42 36//36
f 36//36 42//42 301//301
f 36//36 189//189 40//40
f 189//189 21//21 40//40
f 189//189 36//36 23//23
f 36//36 28//28 23//23
f 25//25 16//16 23//23
f 21//21 189//189 16//16
f 189//189 23//23 16//16
f 192//192 40//40 18//18
f 40//40 21//21 18//18
f 36//36 27//27 28//28
f 194//194 185//185 46//46
f 46//46 193//193 194//194
f 184//184 197//197 141//141
f 187//187 186//186 194//194
f 194//194 47//47 187//187
f 47//47 147//147 187//187
f 188//188 148//148 186//186
f 188//188 140//140 148//148
f 140//140 188//188 148//148
f 44//44 147//147 47//47
f 187//187 188//188 186//186
f 145//145 45//45 196//196
f 141//141 145//145 48//48
f 137//137 48//48 145//145
f 145//145 196//196 137//137
f 144//144 198//198 195//195
f 196//196 184//184 198//198
f 198//198 144//144 137//137
f 196//196 45//45 184//184
f 198//198 137//137 196//196
f 141//141 195//195 149//149
f 149//149 195//195 141//141
f 197//197 184//184 45//45
f 45//45 196//196 47//47
f 196//196 45//45 47//47
f 199//199 62//62 357//357
f 62//62 353//353 354//354
f 308//308 307//307 353//353
f 354//354 353//353 72//72
f 354//354 72//72 353//353
f 60//60 354//354 72//72
f 199//199 60//60 72//72
f 72//72 307//307 70//70
f 70//70 307//307 58//58
f 200//200 70//70 201//201
f 70//70 63//63 201//201
f 199//199 62//62 356//356
f 62//62 199//199 356//356
f 55//55 65//65 67//67
f 65//65 201//201 67//67
f 63//63 308//308 49//49
f 202//202 71//71 65//65
f 71//71 200//200 65//65
f 200//200 201//201 65//65
f 72//72 71//71 199//199
f 71//71 202//202 199//199
f 365//365 60//60 199//199
f 365//365 199//199 356//356
f 170//170 179//179 204//204
f 160//160 176//176 171//171
f 160//160 150//150 161//161
f 205//205 158//158 151//151
f 204//204 207//207 171//171
f 207//207 151//151 158//158
f 177//177 161//161 204//204
f 158//158 159//159 207//207
f 159//159 176//176 207//207
f 204//204 161//161 205//205
f 205//205 161//161 206//206
f 171//171 207//207 160//160
f 207//207 176//176 160//160
f 205//205 151//151 204//204
f 204//204 171//171 207//207
f 207//207 208//208 151//151
f 208//208 209//209 151//151
f 151//151 209//209 204//204
f 166//166 167//167 155//155
f 210//210 208//208 211//211
f 208//208 207//207 211//211
f 207//207 171//171 211//211
f 167//167 211//211 156//156
f 170//170 204//204 153//153
f 153//153 204//204 169//169
f 204//204 209//209 169//169
f 209//209 157//157 169//169
f 209//209 208//208 157//157
f 208//208 210//210 157//157
f 180//180 212//212 174//174
f 212//212 213//213 174//174
f 174//174 213//213 175//175
f 213//213 214//214 175//175
f 175//175 214//214 181//181
f 214//214 215//215 181//181
f 181//181 215//215 180//180
f 215//215 212//212 180//180
f 131//131 130//130 216//216
f 230//230 81//81 217//217
f 81//81 79//79 217//217
f 79//79 74//74 218//218
f 74//74 128//128 218//218
f 218//218 128//128 219//219
f 220//220 97//97 221//221
f 97//97 95//95 221//221
f 223//223 107//107 224//224
f 107//107 109//109 224//224
f 224//224 109//109 225//225
f 109//109 105//105 225//225
f 105//105 222//222 225//225
f 83//83 85//85 226//226
f 85//85 132//132 226//226
f 230//230 231//231 344//344
f 232//232 222//222 228//228
f 285//285 227//227 228//228
f 228//228 227//227 232//232
f 341//341 229//229 230//230
f 231//231 230//230 229//229
f 232//232 344//344 231//231
f 227//227 344//344 232//232
f 234//234 293//293 233//233
f 293//293 272//272 233//233
f 233//233 272//272 278//278
f 235//235 236//236 237//237
f 236//236 238//238 237//237
f 237//237 238//238 239//239
f 238//238 240//240 239//239
f 235//235 237//237 241//241
f 237//237 242//242 241//241
f 236//236 235//235 243//243
f 235//235 241//241 243//243
f 238//238 236//236 244//244
f 236//236 243//243 244//244
f 238//238 244//244 240//240
f 244//244 245//245 240//240
f 246//246 247//247 222//222
f 247//247 225//225 222//222
f 242//242 237//237 249//249
f 237//237 239//239 249//249
f 89//89 100//100 239//239
f 100//100 248//248 239//239
f 239//239 248//248 249//249
f 103//103 104//104 250//250
f 104//104 251//251 250//250
f 246//246 222//222 251//251
f 222//222 249//249 251//251
f 251//251 249//249 250//250
f 249//249 248//248 250//250
f 252//252 221//221 254//254
f 254//254 253//253 252//252
f 254//254 221//221 86//86
f 86//86 221//221 95//95
f 253//253 255//255 252//252
f 255//255 256//256 252//252
f 258//258 257//257 259//259
f 260//260 261//261 262//262
f 261//261 263//263 262//262
f 264//264 265//265 270//270
f 265//265 264//264 266//266
f 108//108 223//223 267//267
f 223//223 224//224 267//267
f 224//224 225//225 267//267
f 101//101 260//260 102//102
f 260//260 262//262 102//102
f 107//107 223//223 108//108
f 261//261 268//268 263//263
f 268//268 269//269 263//263
f 225//225 247//247 267//267
f 247//247 108//108 267//267
f 268//268 250//250 269//269
f 250//250 248//248 269//269
f 112//112 270//270 271//271
f 247//247 246//246 108//108
f 246//246 251//251 108//108
f 274//274 272//272 273//273
f 278//278 272//272 274//274
f 105//105 231//231 229//229
f 231//231 105//105 276//276
f 222//222 232//232 288//288
f 288//288 232//232 275//275
f 105//105 229//229 222//222
f 222//222 229//229 341//341
f 275//275 232//232 231//231
f 231//231 276//276 277//277
f 273//273 272//272 277//277
f 272//272 293//293 277//277
f 277//277 293//293 231//231
f 265//265 271//271 270//270
f 270//270 112//112 264//264
f 112//112 111//111 264//264
f 111//111 110//110 264//264
f 264//264 110//110 266//266
f 110//110 113//113 266//266
f 251//251 104//104 108//108
f 261//261 260//260 268//268
f 260//260 101//101 268//268
f 268//268 101//101 250//250
f 101//101 103//103 250//250
f 262//262 263//263 269//269
f 248//248 100//100 269//269
f 100//100 102//102 269//269
f 269//269 102//102 262//262
f 245//245 133//133 240//240
f 133//133 87//87 240//240
f 240//240 87//87 239//239
f 87//87 89//89 239//239
f 106//106 277//277 276//276
f 215//215 279//279 212//212
f 279//279 280//280 212//212
f 214//214 278//278 279//279
f 214//214 279//279 215//215
f 280//280 203//203 282//282
f 280//280 281//281 279//279
f 279//279 281//281 280//280
f 282//282 182//182 280//280
f 182//182 282//282 280//280
f 280//280 282//282 203//203
f 280//280 183//183 282//282
f 282//282 183//183 280//280
f 280//280 279//279 282//282
f 279//279 278//278 282//282
f 280//280 282//282 212//212
f 212//212 282//282 213//213
f 277//277 106//106 273//273
f 106//106 94//94 273//273
f 273//273 94//94 274//274
f 94//94 283//283 274//274
f 259//259 122//122 258//258
f 122//122 114//114 258//258
f 258//258 114//114 257//257
f 114//114 121//121 257//257
f 257//257 121//121 259//259
f 92//92 284//284 94//94
f 284//284 283//283 94//94
f 341//341 285//285 228//228
f 287//287 285//285 341//341
f 286//286 227//227 287//287
f 285//285 287//287 227//227
f 288//288 275//275 292//292
f 275//275 231//231 292//292
f 289//289 290//290 234//234
f 290//290 291//291 234//234
f 234//234 291//291 292//292
f 292//292 293//293 234//234
f 231//231 293//293 292//292
f 292//292 249//249 222//222
f 222//222 288//288 292//292
f 249//249 292//292 291//291
f 256//256 255//255 134//134
f 255//255 295//295 134//134
f 134//134 295//295 135//135
f 295//295 296//296 135//135
f 255//255 297//297 344//344
f 286//286 295//295 344//344
f 295//295 255//255 344//344
f 297//297 255//255 298//298
f 255//255 253//253 298//298
f 298//298 253//253 254//254
f 287//287 341//341 286//286
f 286//286 341//341 295//295
f 295//295 341//341 219//219
f 341//341 217//217 219//219
f 79//79 218//218 217//217
f 217//217 218//218 219//219
f 128//128 124//124 83//83
f 124//124 84//84 83//83
f 295//295 219//219 296//296
f 219//219 299//299 296//296
f 226//226 294//294 83//83
f 83//83 294//294 128//128
f 219//219 128//128 294//294
f 219//219 294//294 299//299
f 226//226 299//299 294//294
f 299//299 136//136 296//296
f 136//136 135//135 296//296
f 136//136 299//299 132//132
f 299//299 226//226 132//132
f 145//145 310//310 137//137
f 289//289 234//234 315//315
f 234//234 233//233 315//315
f 233//233 278//278 315//315
f 289//289 315//315 290//290
f 359//359 76//76 75//75
f 75//75 77//77 316//316
f 77//77 352//352 316//316
f 216//216 317//317 131//131
f 125//125 317//317 254//254
f 254//254 317//317 298//298
f 298//298 317//317 216//216
f 131//131 317//317 125//125
f 318//318 319//319 282//282
f 319//319 213//213 282//282
f 241//241 242//242 249//249
f 220//220 221//221 252//252
f 278//278 274//274 282//282
f 274//274 283//283 282//282
f 282//282 283//283 318//318
f 283//283 284//284 318//318
f 318//318 284//284 320//320
f 134//134 133//133 245//245
f 278//278 214//214 315//315
f 315//315 214//214 290//290
f 319//319 321//321 220//220
f 245//245 244//244 134//134
f 244//244 243//243 134//134
f 134//134 243//243 256//256
f 249//249 291//291 241//241
f 291//291 290//290 241//241
f 241//241 290//290 243//243
f 290//290 214//214 243//243
f 243//243 214//214 256//256
f 214//214 213//213 256//256
f 256//256 213//213 252//252
f 213//213 319//319 252//252
f 319//319 220//220 252//252
f 371//371 191//191 298//298
f 298//298 191//191 139//139
f 298//298 139//139 297//297
f 216//216 371//371 298//298
f 139//139 140//140 297//297
f 140//140 322//322 297//297
f 297//297 322//322 363//363
f 297//297 363//363 316//316
f 363//363 75//75 316//316
f 42//42 301//301 332//332
f 327//327 361//361 328//328
f 328//328 361//361 329//329
f 331//331 325//325 324//324
f 323//323 335//335 311//311
f 327//327 328//328 324//324
f 329//329 335//335 328//328
f 308//308 305//305 328//328
f 305//305 308//308 329//329
f 329//329 308//308 328//328
f 328//328 305//305 329//329
f 324//324 303//303 329//329
f 304//304 327//327 328//328
f 327//327 302//302 328//328
f 328//328 302//302 327//327
f 314//314 332//332 329//329
f 329//329 330//330 314//314
f 303//303 324//324 329//329
f 329//329 324//324 335//335
f 324//324 311//311 335//335
f 329//329 332//332 324//324
f 330//330 332//332 314//314
f 332//332 313//313 324//324
f 328//328 308//308 327//327
f 327//327 308//308 328//328
f 311//311 324//324 323//323
f 324//324 143//143 323//323
f 323//323 143//143 324//324
f 306//306 324//324 332//332
f 324//324 313//313 332//332
f 301//301 330//330 332//332
f 330//330 301//301 42//42
f 330//330 42//42 332//332
f 306//306 332//332 324//324
f 328//328 327//327 304//304
f 328//328 323//323 324//324
f 312//312 309//309 324//324
f 324//324 309//309 312//312
f 326//326 331//331 324//324
f 332//332 300//300 190//190
f 190//190 300//300 332//332
f 301//301 332//332 330//330
f 327//327 324//324 318//318
f 318//318 324//324 319//319
f 319//319 324//324 332//332
f 321//321 333//333 220//220
f 220//220 333//333 97//97
f 284//284 92//92 320//320
f 320//320 92//92 91//91
f 99//99 333//333 319//319
f 333//333 321//321 319//319
f 319//319 332//332 99//99
f 332//332 301//301 99//99
f 301//301 330//330 99//99
f 93//93 318//318 91//91
f 318//318 320//320 91//91
f 329//329 361//361 93//93
f 93//93 361//361 327//327
f 318//318 93//93 327//327
f 73//73 334//334 123//123
f 338//338 328//328 335//335
f 337//337 336//336 323//323
f 323//323 336//336 335//335
f 338//338 337//337 328//328
f 337//337 323//323 328//328
f 339//339 340//340 326//326
f 340//340 331//331 326//326
f 326//326 324//324 339//339
f 339//339 324//324 325//325
f 325//325 331//331 340//340
f 344//344 227//227 286//286
f 349//349 230//230 344//344
f 228//228 222//222 341//341
f 344//344 297//297 316//316
f 316//316 352//352 342//342
f 352//352 351//351 342//342
f 345//345 344//344 343//343
f 344//344 342//342 343//343
f 346//346 343//343 82//82
f 343//343 352//352 82//82
f 92//92 346//346 82//82
f 343//343 346//346 82//82
f 82//82 346//346 92//92
f 105//105 230//230 82//82
f 82//82 230//230 349//349
f 230//230 105//105 82//82
f 82//82 81//81 230//230
f 348//348 344//344 343//343
f 344//344 345//345 343//343
f 345//345 350//350 343//343
f 347//347 343//343 349//349
f 343//343 82//82 349//349
f 348//348 343//343 347//347
f 349//349 344//344 348//348
f 349//349 348//348 347//347
f 344//344 316//316 342//342
f 230//230 217//217 341//341
f 350//350 345//345 343//343
f 343//343 351//351 352//352
f 351//351 343//343 342//342
f 276//276 230//230 105//105
f 105//105 230//230 276//276
f 353//353 307//307 308//308
f 75//75 363//363 62//62
f 363//363 75//75 62//62
f 363//363 304//304 353//353
f 358//358 56//56 356//356
f 66//66 359//359 357//357
f 365//365 356//356 364//364
f 364//364 356//356 357//357
f 56//56 358//358 357//357
f 356//356 56//56 357//357
f 357//357 358//358 66//66
f 359//359 66//66 64//64
f 359//359 355//355 360//360
f 70//70 355//355 63//63
f 355//355 359//359 63//63
f 63//63 359//359 64//64
f 355//355 70//70 58//58
f 64//64 66//66 361//361
f 358//358 62//62 361//361
f 62//62 363//363 353//353
f 363//363 354//354 353//353
f 62//62 353//353 361//361
f 353//353 308//308 361//361
f 308//308 305//305 307//307
f 62//62 354//354 363//363
f 364//364 363//363 322//322
f 363//363 364//364 75//75
f 75//75 364//364 359//359
f 364//364 357//357 359//359
f 360//360 355//355 322//322
f 355//355 365//365 322//322
f 322//322 365//365 364//364
f 58//58 68//68 355//355
f 355//355 68//68 365//365
f 68//68 60//60 365//365
f 365//365 60//60 72//72
f 307//307 305//305 308//308
f 353//353 304//304 363//363
f 30//30 371//371 190//190
f 31//31 29//29 191//191
f 191//191 29//29 368//368
f 373//373 31//31 372//372
f 41//41 33//33 37//37
f 24//24 29//29 32//32
f 368//368 29//29 24//24
f 368//368 24//24 130//130
f 24//24 369//369 130//130
f 39//39 43//43 369//369
f 39//39 369//369 34//34
f 34//34 369//369 27//27
f 369//369 24//24 27//27
f 37//37 11//11 373//373
f 373//373 11//11 37//37
f 41//41 369//369 43//43
f 32//32 29//29 30//30
f 191//191 371//371 30//30
f 41//41 190//190 33//33
f 190//190 42//42 30//30
f 30//30 367//367 191//191
f 190//190 41//41 371//371
f 191//191 367//367 190//190
f 130//130 372//372 216//216
f 191//191 190//190 372//372
f 372//372 371//371 216//216
f 190//190 371//371 372//372
f 31//31 191//191 372//372
f 130//130 369//369 372//372
f 369//369 373//373 372//372
f 11//11 31//31 18//18
f 31//31 373//373 18//18
f 369//369 41//41 373//373
f 373//373 41//41 37//37
f 359//359 360//360 76//76
f 360//360 126//126 76//76
f 126//126 368//368 130//130
f 335//335 336//336 360//360
f 336//336 146//146 360//360
f 360//360 146//146 126//126
f 146//146 138//138 126//126
f 126//126 138//138 368//368
f 138//138 325//325 368//368
f 325//325 340//340 368//368
f 368//368 340//340 191//191
f 191//191 340//340 139//139
f 340//340 339//339 139//139
f 139//139 339//339 138//138
f 138//138 339//339 325//325
f 146//146 336//336 140//140
f 336//336 337//337 140//140
f 140//140 337//337 322//322
f 337//337 338//338 322//322
f 322//322 338//338 360//360
f 360//360 338//338 335//335
f 139//139 309//309 140//140
f 143//143 142//142 309//309
f 188//188 141//141 148//148
f 140//140 148//148 188//188
# 864 faces, 0 coords texture

# End of File
