# File generated by ImageToStl.com - Free Image and 3D model conversion tools

o obj1
v 240 610.56573486 200
v 240 0 200
v 240 610.56573486 0
v 240 0 0
v 235 641.81573486 200
v 235 641.81573486 -0
v 240 610.56573486 -0
v 220 673.06573486 200
v 220 673.06573486 0
v 235 641.81573486 0
v 195 691.81573486 200
v 195 691.81573486 0
v 160 698.06567383 200
v 160 698.06567383 0
v 80 698.06567383 200
v 80 698.06567383 0
v 54.99999237 691.81573486 200
v 54.99999237 691.81573486 -0
v 80 698.06567383 -0
v 19.99999619 673.06573486 200
v 19.99999619 673.06573486 0
v 54.99999237 691.81573486 0
v 4.99999523 641.81573486 200
v 4.99999523 641.81573486 -0
v 19.99999619 673.06573486 -0
v 0 610.56573486 200
v 0 610.56573486 -0
v 0 0 200
v 0 0 0
v 0 610.56573486 0
v 4.99999523 641.81573486 0
vn 1 0 0
vn 0.98744 0.15799 0
vn 0.90152 0.43273 0
vn 0.6 0.8 0
vn 0.17579 0.98443 0
vn -0 1 0
vn -0.24253 0.97014 0
vn -0.47222 0.88148 0
vn -0.90152 0.43273 0
vn -0.98744 0.15799 0
vn -1 0 0
vn 0 -1 0
vn 0 0 1
vn -0 0 -1
f 1//1 2//1 3//1
f 3//1 2//1 4//1
f 5//2 1//2 6//2
f 6//2 1//2 7//2
f 8//3 5//3 9//3
f 9//3 5//3 10//3
f 11//4 8//4 12//4
f 12//4 8//4 9//4
f 13//5 11//5 14//5
f 14//5 11//5 12//5
f 15//6 13//6 16//6
f 16//6 13//6 14//6
f 17//7 15//7 18//7
f 18//7 15//7 19//7
f 20//8 17//8 21//8
f 21//8 17//8 22//8
f 23//9 20//9 24//9
f 24//9 20//9 25//9
f 26//10 23//10 27//10
f 27//10 23//10 24//10
f 28//11 26//11 29//11
f 29//11 26//11 30//11
f 2//12 28//12 4//12
f 4//12 28//12 29//12
f 8//13 11//13 5//13
f 5//13 11//13 13//13
f 5//13 13//13 1//13
f 1//13 13//13 26//13
f 1//13 26//13 2//13
f 2//13 26//13 28//13
f 13//13 15//13 26//13
f 26//13 15//13 17//13
f 26//13 17//13 23//13
f 23//13 17//13 20//13
f 4//14 29//14 3//14
f 3//14 29//14 30//14
f 14//14 12//14 9//14
f 9//14 10//14 14//14
f 14//14 10//14 3//14
f 14//14 3//14 16//14
f 16//14 3//14 30//14
f 16//14 30//14 22//14
f 22//14 30//14 31//14
f 22//14 31//14 21//14
# Vertices: 31, normals: 14, texture coordinates: 0, faces: 44

