# https://github.com/mikedh/trimesh
v 0.02400000 0.02125000 0.02000000 1.00000000 1.00000000 0.00000000
v 0.02400000 0.02125000 0.02000000 1.00000000 1.00000000 0.00000000
v 0.02400000 0.02125000 0.02000000 1.00000000 1.00000000 0.00000000
v 0.02400000 0.00000000 0.02000000 1.00000000 1.00000000 0.00000000
v 0.02400000 0.00000000 0.02000000 1.00000000 1.00000000 0.00000000
v 0.02400000 0.00000000 0.02000000 1.00000000 1.00000000 0.00000000
v 0.02400000 0.02125000 0.00000000 1.00000000 1.00000000 0.00000000
v 0.02400000 0.02125000 0.00000000 1.00000000 1.00000000 0.00000000
v 0.02400000 0.00000000 0.00000000 1.00000000 1.00000000 0.00000000
v 0.02400000 0.00000000 0.00000000 1.00000000 1.00000000 0.00000000
v 0.02400000 0.00000000 0.00000000 1.00000000 1.00000000 0.00000000
v 0.02350000 0.02437500 0.02000000 1.00000000 1.00000000 0.00000000
v 0.02350000 0.02437500 0.02000000 1.00000000 1.00000000 0.00000000
v 0.02350000 0.02437500 0.02000000 1.00000000 1.00000000 0.00000000
v 0.02350000 0.02437500 -0.00000000 1.00000000 1.00000000 0.00000000
v 0.02350000 0.02437500 -0.00000000 1.00000000 1.00000000 0.00000000
v 0.02400000 0.02125000 -0.00000000 1.00000000 1.00000000 0.00000000
v 0.02200000 0.02750000 0.02000000 1.00000000 1.00000000 0.00000000
v 0.02200000 0.02750000 0.02000000 1.00000000 1.00000000 0.00000000
v 0.02200000 0.02750000 0.02000000 1.00000000 1.00000000 0.00000000
v 0.02200000 0.02750000 -0.00000000 1.00000000 1.00000000 0.00000000
v 0.02200000 0.02750000 -0.00000000 1.00000000 1.00000000 0.00000000
v 0.01950000 0.02937500 0.02000000 1.00000000 1.00000000 0.00000000
v 0.01950000 0.02937500 0.02000000 1.00000000 1.00000000 0.00000000
v 0.01950000 0.02937500 0.02000000 1.00000000 1.00000000 0.00000000
v 0.01950000 0.02937500 -0.00000000 1.00000000 1.00000000 0.00000000
v 0.01600000 0.03000000 0.02000000 1.00000000 1.00000000 0.00000000
v 0.01600000 0.03000000 0.02000000 1.00000000 1.00000000 0.00000000
v 0.01600000 0.03000000 0.02000000 1.00000000 1.00000000 0.00000000
v 0.01600000 0.03000000 0.00000000 1.00000000 1.00000000 0.00000000
v 0.01600000 0.03000000 0.00000000 1.00000000 1.00000000 0.00000000
v 0.01600000 0.03000000 0.00000000 1.00000000 1.00000000 0.00000000
v 0.01950000 0.02937500 0.00000000 1.00000000 1.00000000 0.00000000
v 0.01950000 0.02937500 0.00000000 1.00000000 1.00000000 0.00000000
v 0.00800000 0.03000000 0.02000000 1.00000000 1.00000000 0.00000000
v 0.00800000 0.03000000 0.02000000 1.00000000 1.00000000 0.00000000
v 0.00800000 0.03000000 0.02000000 1.00000000 1.00000000 0.00000000
v 0.00800000 0.03000000 0.00000000 1.00000000 1.00000000 0.00000000
v 0.00800000 0.03000000 0.00000000 1.00000000 1.00000000 0.00000000
v 0.00550000 0.02937500 0.02000000 1.00000000 1.00000000 0.00000000
v 0.00550000 0.02937500 0.02000000 1.00000000 1.00000000 0.00000000
v 0.00550000 0.02937500 0.02000000 1.00000000 1.00000000 0.00000000
v 0.00550000 0.02937500 -0.00000000 1.00000000 1.00000000 0.00000000
v 0.00800000 0.03000000 -0.00000000 1.00000000 1.00000000 0.00000000
v 0.00200000 0.02750000 0.02000000 1.00000000 1.00000000 0.00000000
v 0.00200000 0.02750000 0.02000000 1.00000000 1.00000000 0.00000000
v 0.00200000 0.02750000 0.02000000 1.00000000 1.00000000 0.00000000
v 0.00200000 0.02750000 0.00000000 1.00000000 1.00000000 0.00000000
v 0.00200000 0.02750000 0.00000000 1.00000000 1.00000000 0.00000000
v 0.00550000 0.02937500 0.00000000 1.00000000 1.00000000 0.00000000
v 0.00550000 0.02937500 0.00000000 1.00000000 1.00000000 0.00000000
v 0.00050000 0.02437500 0.02000000 1.00000000 1.00000000 0.00000000
v 0.00050000 0.02437500 0.02000000 1.00000000 1.00000000 0.00000000
v 0.00050000 0.02437500 0.02000000 1.00000000 1.00000000 0.00000000
v 0.00050000 0.02437500 -0.00000000 1.00000000 1.00000000 0.00000000
v 0.00050000 0.02437500 -0.00000000 1.00000000 1.00000000 0.00000000
v 0.00200000 0.02750000 -0.00000000 1.00000000 1.00000000 0.00000000
v 0.00000000 0.02125000 0.02000000 1.00000000 1.00000000 0.00000000
v 0.00000000 0.02125000 0.02000000 1.00000000 1.00000000 0.00000000
v 0.00000000 0.02125000 0.02000000 1.00000000 1.00000000 0.00000000
v 0.00000000 0.02125000 -0.00000000 1.00000000 1.00000000 0.00000000
v 0.00000000 0.00000000 0.02000000 1.00000000 1.00000000 0.00000000
v 0.00000000 0.00000000 0.02000000 1.00000000 1.00000000 0.00000000
v 0.00000000 0.00000000 0.02000000 1.00000000 1.00000000 0.00000000
v 0.00000000 0.00000000 0.00000000 1.00000000 1.00000000 0.00000000
v 0.00000000 0.00000000 0.00000000 1.00000000 1.00000000 0.00000000
v 0.00000000 0.00000000 0.00000000 1.00000000 1.00000000 0.00000000
v 0.00000000 0.02125000 0.00000000 1.00000000 1.00000000 0.00000000
v 0.00000000 0.02125000 0.00000000 1.00000000 1.00000000 0.00000000
v 0.02200000 0.02750000 0.00000000 1.00000000 1.00000000 0.00000000
v 0.02350000 0.02437500 0.00000000 1.00000000 1.00000000 0.00000000
v 0.00050000 0.02437500 0.00000000 1.00000000 1.00000000 0.00000000
f 1 5 7
f 7 5 11
f 14 2 16
f 16 2 17
f 20 12 21
f 21 12 15
f 23 18 26
f 26 18 22
f 29 24 32
f 32 24 33
f 36 27 38
f 38 27 30
f 42 35 43
f 43 35 44
f 47 41 48
f 48 41 51
f 53 45 56
f 56 45 57
f 60 52 61
f 61 52 55
f 64 59 65
f 65 59 68
f 4 62 10
f 10 62 67
f 19 25 13
f 13 25 28
f 13 28 3
f 3 28 58
f 3 58 6
f 6 58 63
f 28 37 58
f 58 37 40
f 58 40 54
f 54 40 46
f 9 66 8
f 8 66 69
f 31 34 70
f 70 71 31
f 31 71 8
f 31 8 39
f 39 8 69
f 39 69 50
f 50 69 72
f 50 72 49