# https://github.com/mikedh/trimesh
v -0.00862900 -0.02788000 -0.04768100
v -0.00602000 -0.02413900 -0.08354100
v -0.02836600 -0.01841400 -0.08227100
v -0.04033900 0.00574300 -0.00780500
v -0.03874900 -0.01147500 -0.07700800
v -0.02548500 -0.02228800 -0.06867100
v -0.02806800 -0.01645100 -0.04323100
v -0.01268600 -0.02780300 -0.07960500
v -0.04513800 -0.00432900 -0.04828600
v -0.04969300 0.00373800 -0.05122900
v -0.00172300 -0.03286000 -0.06886000
v -0.03989200 -0.00869700 -0.01113300
v -0.04165900 -0.00739600 -0.02834600
v -0.04352500 -0.00075200 -0.02720700
v 0.02609100 -0.03242800 -0.01172100
v 0.02042500 -0.03426100 -0.01020900
v 0.01762300 -0.03386200 -0.04512900
v 0.01051200 -0.03484100 -0.08005600
v 0.03574200 -0.01857300 -0.00661100
v 0.01760300 -0.03549200 -0.06356400
v 0.03550400 -0.03379100 -0.07727900
v 0.03633600 -0.03424100 -0.05163400
v 0.03268800 -0.03060700 0.00585600
v -0.00980100 -0.02595600 -0.02609300
v 0.00352000 -0.03041700 -0.02672600
v -0.00999400 -0.02531400 0.02592300
v 0.02928900 -0.03315500 -0.03023900
v 0.03143200 -0.03360900 0.01900300
v 0.03932200 -0.02124500 -0.03691100
v 0.00260900 -0.02933300 0.03277200
v 0.03818000 -0.03114700 0.02178100
v -0.03933000 0.01456000 -0.02794500
v -0.04557300 0.01145700 -0.04298900
v -0.03919000 0.02892300 -0.05472100
v -0.04194900 0.00424400 -0.08261600
v -0.03575800 0.01144700 -0.08074900
v -0.03780600 0.02848600 -0.07781500
v -0.01376100 -0.00958700 -0.08178200
v -0.01149700 0.02115400 -0.08403600
v 0.00267900 0.01868700 -0.08321500
v -0.02980200 0.02456100 -0.08337600
v -0.03430400 0.02772500 -0.03745400
v -0.01123100 0.02902700 -0.08139900
v -0.01415800 0.01044800 -0.08121900
v 0.00773000 0.02408300 -0.08153900
v -0.02638600 0.03003900 -0.07835600
v -0.02912900 0.03035900 -0.05207800
v -0.03604300 0.01568800 -0.01520600
v -0.04891100 0.00248400 -0.07879700
v -0.04160600 0.01828900 -0.07898600
v 0.02098600 -0.01587500 -0.08020200
v -0.02180200 0.02946300 -0.01713600
v -0.02856200 0.02748800 -0.01940300
v -0.00761700 0.02982500 -0.06902700
v -0.04567100 0.01612500 -0.06921400
v 0.01584900 0.01855400 -0.04412900
v 0.01948600 0.02050600 -0.07582300
v 0.00731200 0.02543300 -0.06674600
v -0.00827400 0.02751200 -0.04449100
v 0.02887100 -0.03055500 -0.08340000
v 0.04701500 -0.01106800 -0.05186800
v 0.04381700 -0.00243900 -0.04711300
v 0.04073600 -0.01366500 -0.08169000
v 0.03856500 0.00288400 -0.08122100
v 0.01421300 0.01812800 -0.00994500
v 0.02901300 0.01228300 -0.08161400
v 0.04182900 -0.00530600 -0.02988800
v 0.04630000 -0.01262700 -0.07474200
v 0.03574100 0.00659700 -0.05971500
v 0.03593100 -0.01975600 -0.02422300
v 0.03446400 -0.00179700 -0.08352300
v 0.03944800 -0.00628900 -0.01679700
v 0.04120000 -0.00644900 -0.00135800
v 0.02965600 0.00920300 -0.04462800
v 0.03803100 0.00331700 -0.01579900
v 0.04780600 -0.00732400 -0.06580300
v 0.03304100 0.00704500 -0.02520500
v 0.04650600 -0.00806100 0.01833300
v 0.00362800 0.02296200 -0.01785200
v -0.02006600 -0.02321800 0.06305200
v -0.03694100 -0.00806600 0.05541800
v -0.04278600 -0.00468000 -0.00423100
v -0.03823900 -0.00811100 0.01953600
v -0.04785800 0.00971400 0.01828100
v -0.04473900 -0.00204000 0.04114700
v -0.03277200 -0.01171800 0.04152700
v -0.03465400 0.02616300 0.04677600
v -0.04643600 0.00938200 0.04051100
v -0.02672400 0.02336700 0.05782100
v -0.03935200 0.00464000 0.05533400
v 0.00318400 -0.03112300 0.06027300
v 0.04708100 -0.01012800 0.03124200
v -0.01233700 0.01501100 0.08559700
v -0.02026100 -0.01945600 0.02893700
v -0.01220000 0.00404100 0.09101200
v 0.03582700 -0.02046900 0.05166200
v 0.04011200 -0.00375600 0.05232900
v -0.00490300 -0.03029600 0.06274300
v 0.02153500 -0.03327400 0.05163600
v 0.00990200 -0.02769700 0.06550200
v -0.01734100 -0.01395900 0.07389000
v -0.01283400 -0.01906700 0.08600100
v -0.00556400 -0.02152200 0.07456100
v 0.03028700 -0.03014700 0.05150500
v 0.01941200 -0.00033000 0.07320000
v 0.01631100 -0.01363700 0.07292700
v 0.00311800 -0.02185600 0.08585200
v 0.01337900 0.01344000 0.07390500
v 0.04332100 -0.02016200 0.01710000
v 0.01170700 0.01500500 0.08619700
v 0.00854900 -0.01022400 0.08886600
v 0.01900000 0.00447500 0.08647200
v -0.01619900 -0.02373000 0.05910900
v 0.01564400 -0.01415700 0.08563500
v 0.00138100 0.01249700 0.08763400
v 0.04299600 -0.01914400 0.03819300
v 0.03639400 -0.03264900 0.03148400
v -0.02828800 0.00471600 0.06480800
v 0.01155300 0.00289400 0.08750100
v -0.02044900 -0.00604200 0.07457100
v -0.01151900 -0.00894800 0.08857900
v -0.00906500 0.00257100 0.10796000
v -0.00445500 0.01815000 0.07405100
v -0.01598100 0.01158900 0.07314300
v -0.00398800 -0.00959100 0.10610300
v -0.00112500 0.01914500 0.08644800
v 0.00437200 0.00583800 0.10633300
v 0.00651100 -0.00714000 0.10840500
v -0.02045400 0.00393700 0.08534500
v -0.02057300 -0.00532300 0.08643300
v -0.03662200 0.01856800 -0.00088000
v -0.03969000 0.02629500 0.01701000
v -0.03944400 0.02657800 0.03255100
v -0.02741900 0.02812400 -0.00591800
v -0.01956800 0.02919700 0.00001100
v -0.02878800 0.02926700 0.04399700
v -0.03019100 0.02911900 0.02191200
v 0.03140100 0.00810700 0.03840700
v 0.03500400 0.00599800 0.05568400
v 0.01884300 0.01587700 0.01525600
v 0.04017600 0.00065000 0.00346600
v 0.00691100 0.02386000 0.05905000
v -0.00759300 0.02677900 0.03079900
v 0.02102800 0.01574300 0.04630400
v -0.00860900 0.02686400 -0.01867800
v -0.00876600 0.02849800 0.05834100
v 0.01940800 0.01911800 0.05983200
v 0.04280600 -0.00194400 0.03741500
v 0.02732600 0.01059700 0.00217800
v 0.00613700 0.02257900 0.02947300
v 0.00493900 0.02737800 0.06205000
v 0.00399800 0.01807700 0.07381800
vn -0.36731485 -0.92570651 0.09026219
vn -0.06230757 -0.21147482 -0.97539539
vn -0.41650928 -0.57276221 -0.70601946
vn -0.95086621 0.29606943 -0.09053368
vn -0.70218723 -0.66704476 -0.24896662
vn -0.52578957 -0.85052178 0.01257064
vn -0.53429621 -0.84285843 0.06416554
vn -0.33368000 -0.82025902 -0.46457809
vn -0.78173971 -0.62049694 0.06218176
vn -0.99438355 -0.05710887 0.08910631
vn -0.28221788 -0.95928673 0.01104677
vn -0.70396036 -0.71023856 0.00100399
vn -0.79953420 -0.59896011 0.04463020
vn -0.98947673 -0.04070317 0.13884905
vn 0.57871156 -0.81542217 0.01340212
vn 0.02255508 -0.99963635 0.01477940
vn -0.10114910 -0.99322571 0.05719740
vn -0.10189358 -0.84805851 -0.52001391
vn 0.90354903 -0.41874576 -0.09083574
vn -0.03909069 -0.99889491 0.02609367
vn 0.53868124 -0.75623226 -0.37139641
vn 0.56409872 -0.82069423 0.09084948
vn 0.68121652 -0.69452091 -0.23148383
vn -0.40002611 -0.91603471 0.02931776
vn -0.26430975 -0.96422619 0.02020431
vn -0.40171457 -0.91570312 -0.01063946
vn 0.49426715 -0.85864172 0.13577325
vn 0.16238078 -0.98514520 -0.05586967
vn 0.87768658 -0.40051063 0.26316821
vn -0.22413324 -0.97427794 -0.02338335
vn 0.70224148 -0.70524632 -0.09738854
vn -0.87887849 0.42413667 0.21835908
vn -0.90763649 0.35386438 0.22577868
vn -0.60465014 0.79276705 0.07693258
vn -0.25802144 0.05345491 -0.96465927
vn -0.04457684 0.07051647 -0.99651409
vn -0.53165736 0.72354148 -0.44025921
vn 0.07478963 0.11496316 -0.99055034
vn 0.01128508 0.02909454 -0.99951296
vn 0.03413619 0.04946881 -0.99819214
vn -0.17432389 0.28755866 -0.94176494
vn -0.58867845 0.78528246 0.19180496
vn 0.09867807 0.78883595 -0.60663044
vn -0.02385175 -0.10608856 -0.99407058
vn 0.25956724 0.71596724 -0.64808623
vn -0.07834381 0.92604514 -0.36919188
vn -0.05391570 0.99764296 0.04244563
vn -0.87073497 0.49032513 0.03744155
vn -0.86612395 -0.12942146 -0.48278296
vn -0.66220563 0.28541261 -0.69283718
vn -0.02512746 0.05633951 -0.99809542
vn -0.03490519 0.99923376 0.01770675
vn -0.57633107 0.81281197 0.08473016
vn 0.17105274 0.98518904 -0.01198014
vn -0.91721021 0.38626254 -0.09760472
vn 0.46160242 0.88427510 0.07057448
vn 0.49500816 0.85906860 -0.13026150
vn 0.34401557 0.93801753 0.04214737
vn 0.22916434 0.97173680 0.05666821
vn 0.17544575 -0.38574926 -0.90576835
vn 0.98655999 -0.09998690 0.12923626
vn 0.84722932 0.52385834 0.08817550
vn 0.50172961 -0.10140473 -0.85906023
vn 0.67404862 0.45848895 -0.57917729
vn 0.45684711 0.88949927 0.00904307
vn 0.49396970 0.59853475 -0.63067431
vn 0.98060353 -0.02768213 0.19403716
vn 0.93251696 -0.11730657 -0.34154252
vn 0.67559450 0.73590201 0.04494772
vn 0.89327674 -0.41642449 0.16925516
vn 0.15451255 0.01558907 -0.98786783
vn 0.99437950 -0.09809875 0.03982511
vn 0.98122975 -0.06314865 -0.18220983
vn 0.59692033 0.80082808 0.04858503
vn 0.82761182 0.56100154 0.01832897
vn 0.97029833 0.23303863 -0.06491643
vn 0.58148514 0.81355160 -0.00297091
vn 0.98100409 0.15507063 -0.11655072
vn 0.35425066 0.93508890 0.01073437
vn -0.54971309 -0.79882572 0.24432149
vn -0.79693333 -0.43973864 0.41415842
vn -0.94838255 -0.31404816 -0.04409418
vn -0.60646550 -0.79471593 0.02502364
vn -0.98815909 0.11755535 -0.09860200
vn -0.88297545 -0.44020790 0.16300726
vn -0.58798321 -0.80833178 -0.02958854
vn -0.59671188 0.69249972 0.40543688
vn -0.95044880 0.16344468 0.26444832
vn -0.48006328 0.63790421 0.60217727
vn -0.78945031 0.08866620 0.60737675
vn -0.08889813 -0.97555558 0.20096876
vn 0.99456492 0.02138551 0.10189834
vn -0.49904556 0.71115004 0.49519608
vn -0.52049336 -0.85373001 -0.01522247
vn -0.70905879 0.37699861 0.59590912
vn 0.76269953 -0.33575385 0.55277372
vn 0.87392058 0.07391510 0.48041584
vn -0.23153814 -0.97135915 0.05339934
vn 0.11133145 -0.96062773 0.25455780
vn 0.22256498 -0.73040840 0.64573090
vn -0.73334159 -0.54953634 0.40027482
vn -0.47536649 -0.69503489 0.53940078
vn -0.15921934 -0.92777888 0.33745451
vn 0.55427442 -0.68416842 0.47401840
vn 0.90551741 0.04930178 0.42143512
vn 0.70963734 -0.53074827 0.46338011
vn 0.17821549 -0.84672718 0.50129066
vn 0.67036792 0.67503996 0.30810372
vn 0.90606146 -0.37744194 -0.19128569
vn 0.48535469 0.64620356 0.58894123
vn 0.41575036 -0.46994298 0.77865604
vn 0.78706536 0.20015645 0.58349423
vn -0.40946088 -0.89121050 -0.19515542
vn 0.69850155 -0.50459426 0.50742508
vn 0.07800372 0.52668681 0.84647293
vn 0.89525718 -0.36153076 0.26040372
vn 0.55683132 -0.82231573 0.11719949
vn -0.67582638 0.17448024 0.71611127
vn 0.50766263 0.20812578 0.83603966
vn -0.91513083 -0.14169173 0.37743743
vn -0.40964560 -0.42131795 0.80912401
vn -0.58603139 0.29164065 0.75598475
vn -0.22449487 0.92094963 0.31851820
vn -0.70716526 0.56481173 0.42532929
vn -0.31042273 -0.71390756 0.62767326
vn -0.04388196 0.79854020 0.60033985
vn 0.40439434 0.59895875 0.69116831
vn 0.50045406 -0.39065196 0.77261684
vn -0.80763132 0.27347167 0.52244129
vn -0.82264171 -0.18906997 0.53620254
vn -0.84189395 0.47983812 -0.24692096
vn -0.66401932 0.73571620 -0.13341672
vn -0.65634439 0.74840223 0.09542609
vn -0.43208486 0.90066081 -0.04596502
vn 0.05539419 0.99845555 -0.00424134
vn -0.18358839 0.96837922 0.16892897
vn -0.10913329 0.99395829 -0.01169818
vn 0.61537973 0.78750392 -0.03384311
vn 0.77472572 0.51494029 0.36692854
vn 0.49089550 0.87107282 -0.01592960
vn 0.82108511 0.56635254 -0.07116206
vn 0.33671086 0.86151555 -0.38002206
vn 0.20957866 0.97746182 -0.02540036
vn 0.49494761 0.86386372 -0.09362870
vn 0.24917826 0.96839415 0.01108934
vn -0.00984565 0.96263136 0.27063617
vn 0.55026256 0.81611385 0.17654828
vn 0.83179943 0.54817962 0.08722856
vn 0.55458795 0.83212443 -0.00106402
vn 0.36212131 0.93152019 -0.03373852
vn 0.26768829 0.96320815 0.02393820
vn 0.23265547 0.91511333 0.32930083
f 2//2 60//60 18//18
f 3//3 8//8 6//6
f 7//7 6//6 1//1
f 11//11 1//1 6//6
f 82//82 14//14 12//12
f 82//82 4//4 14//14
f 32//32 14//14 4//4
f 5//5 9//9 49//49
f 5//5 3//3 6//6
f 25//25 24//24 1//1
f 10//10 49//49 9//9
f 3//3 2//2 8//8
f 12//12 13//13 7//7
f 9//9 5//5 6//6
f 9//9 6//6 7//7
f 8//8 11//11 6//6
f 18//18 8//8 2//2
f 14//14 10//10 9//9
f 7//7 1//1 24//24
f 11//11 8//8 18//18
f 14//14 33//33 10//10
f 13//13 9//9 7//7
f 26//26 12//12 7//7
f 26//26 7//7 24//24
f 14//14 32//32 33//33
f 13//13 14//14 9//9
f 12//12 26//26 94//94
f 12//12 14//14 13//13
f 16//16 15//15 23//23
f 18//18 60//60 21//21
f 1//1 11//11 17//17
f 15//15 27//27 70//70
f 25//25 1//1 17//17
f 16//16 23//23 28//28
f 18//18 21//21 20//20
f 20//20 11//11 18//18
f 19//19 15//15 70//70
f 23//23 15//15 19//19
f 27//27 17//17 22//22
f 68//68 22//22 21//21
f 26//26 24//24 25//25
f 25//25 30//30 26//26
f 22//22 20//20 21//21
f 23//23 19//19 73//73
f 22//22 68//68 61//61
f 17//17 16//16 25//25
f 73//73 109//109 23//23
f 16//16 17//17 27//27
f 16//16 27//27 15//15
f 17//17 11//11 20//20
f 30//30 16//16 28//28
f 27//27 22//22 29//29
f 25//25 16//16 30//30
f 17//17 20//20 22//22
f 29//29 70//70 27//27
f 31//31 23//23 109//109
f 28//28 23//23 31//31
f 117//117 28//28 31//31
f 78//78 109//109 73//73
f 109//109 78//78 92//92
f 38//38 36//36 44//44
f 35//35 49//49 50//50
f 37//37 46//46 41//41
f 2//2 3//3 35//35
f 41//41 46//46 43//43
f 5//5 49//49 3//3
f 35//35 3//3 49//49
f 39//39 43//43 45//45
f 39//39 41//41 43//43
f 35//35 36//36 38//38
f 32//32 42//42 33//33
f 42//42 47//47 34//34
f 42//42 34//34 33//33
f 71//71 51//51 40//40
f 47//47 46//46 37//37
f 38//38 2//2 35//35
f 34//34 47//47 37//37
f 66//66 71//71 40//40
f 44//44 39//39 40//40
f 50//50 36//36 35//35
f 50//50 41//41 36//36
f 45//45 66//66 40//40
f 39//39 45//45 40//40
f 37//37 41//41 50//50
f 52//52 47//47 42//42
f 44//44 36//36 41//41
f 54//54 43//43 46//46
f 45//45 57//57 66//66
f 39//39 44//44 41//41
f 48//48 32//32 4//4
f 46//46 47//47 54//54
f 48//48 53//53 32//32
f 57//57 45//45 58//58
f 54//54 47//47 59//59
f 55//55 50//50 49//49
f 60//60 2//2 51//51
f 55//55 37//37 50//50
f 48//48 131//131 53//53
f 51//51 2//2 38//38
f 53//53 42//42 32//32
f 10//10 55//55 49//49
f 53//53 52//52 42//42
f 38//38 44//44 51//51
f 34//34 37//37 55//55
f 54//54 45//45 43//43
f 45//45 54//54 58//58
f 59//59 47//47 52//52
f 145//145 59//59 52//52
f 55//55 10//10 34//34
f 10//10 33//33 34//34
f 58//58 54//54 59//59
f 51//51 44//44 40//40
f 79//79 59//59 145//145
f 58//58 56//56 57//57
f 134//134 52//52 53//53
f 134//134 135//135 52//52
f 135//135 145//145 52//52
f 59//59 56//56 58//58
f 79//79 56//56 59//59
f 61//61 29//29 22//22
f 21//21 60//60 63//63
f 61//61 76//76 62//62
f 67//67 70//70 29//29
f 61//61 67//67 29//29
f 21//21 63//63 68//68
f 64//64 71//71 66//66
f 61//61 62//62 67//67
f 140//140 149//149 65//65
f 69//69 66//66 57//57
f 75//75 67//67 62//62
f 62//62 77//77 75//75
f 51//51 63//63 60//60
f 76//76 64//64 69//69
f 70//70 67//67 72//72
f 69//69 64//64 66//66
f 74//74 69//69 57//57
f 71//71 63//63 51//51
f 72//72 19//19 70//70
f 72//72 73//73 19//19
f 72//72 67//67 75//75
f 71//71 64//64 63//63
f 64//64 68//68 63//63
f 68//68 64//64 76//76
f 69//69 74//74 62//62
f 68//68 76//76 61//61
f 72//72 75//75 73//73
f 74//74 77//77 62//62
f 69//69 62//62 76//76
f 75//75 77//77 149//149
f 65//65 77//77 56//56
f 56//56 77//77 74//74
f 74//74 57//57 56//56
f 75//75 149//149 141//141
f 79//79 65//65 56//56
f 73//73 75//75 141//141
f 78//78 73//73 141//141
f 78//78 141//141 148//148
f 65//65 149//149 77//77
f 131//131 48//48 4//4
f 81//81 90//90 85//85
f 82//82 84//84 4//4
f 85//85 84//84 82//82
f 90//90 81//81 118//118
f 131//131 4//4 84//84
f 131//131 84//84 132//132
f 82//82 83//83 85//85
f 84//84 85//85 88//88
f 86//86 85//85 83//83
f 94//94 83//83 12//12
f 86//86 83//83 94//94
f 80//80 85//85 86//86
f 83//83 82//82 12//12
f 87//87 133//133 88//88
f 81//81 85//85 80//80
f 90//90 87//87 88//88
f 87//87 90//90 89//89
f 133//133 84//84 88//88
f 90//90 118//118 89//89
f 85//85 90//90 88//88
f 91//91 98//98 113//113
f 109//109 116//116 31//31
f 121//121 95//95 130//130
f 92//92 116//116 109//109
f 81//81 80//80 101//101
f 95//95 93//93 130//130
f 129//129 130//130 93//93
f 116//116 104//104 117//117
f 104//104 116//116 96//96
f 122//122 95//95 121//121
f 98//98 80//80 113//113
f 98//98 103//103 80//80
f 116//116 97//97 96//96
f 97//97 116//116 92//92
f 103//103 101//101 80//80
f 30//30 91//91 26//26
f 26//26 113//113 94//94
f 26//26 91//91 113//113
f 124//124 129//129 93//93
f 126//126 93//93 115//115
f 115//115 93//93 95//95
f 30//30 28//28 99//99
f 120//120 81//81 101//101
f 118//118 81//81 120//120
f 100//100 103//103 98//98
f 100//100 98//98 91//91
f 91//91 30//30 99//99
f 126//126 123//123 93//93
f 91//91 99//99 100//100
f 100//100 99//99 104//104
f 101//101 103//103 102//102
f 114//114 106//106 105//105
f 114//114 112//112 111//111
f 120//120 101//101 102//102
f 105//105 112//112 114//114
f 130//130 120//120 102//102
f 106//106 103//103 100//100
f 103//103 106//106 107//107
f 102//102 121//121 130//130
f 111//111 112//112 119//119
f 119//119 128//128 111//111
f 102//102 103//103 107//107
f 96//96 106//106 104//104
f 116//116 117//117 31//31
f 99//99 28//28 117//117
f 106//106 96//96 97//97
f 108//108 152//152 110//110
f 152//152 126//126 110//110
f 102//102 107//107 111//111
f 102//102 111//111 121//121
f 121//121 111//111 125//125
f 99//99 117//117 104//104
f 106//106 100//100 104//104
f 125//125 111//111 128//128
f 105//105 108//108 112//112
f 107//107 106//106 114//114
f 113//113 86//86 94//94
f 107//107 114//114 111//111
f 110//110 112//112 108//108
f 105//105 139//139 108//108
f 80//80 86//86 113//113
f 106//106 97//97 105//105
f 97//97 139//139 105//105
f 128//128 119//119 127//127
f 127//127 119//119 115//115
f 120//120 124//124 118//118
f 115//115 110//110 126//126
f 129//129 120//120 130//130
f 115//115 119//119 110//110
f 110//110 119//119 112//112
f 124//124 120//120 129//129
f 89//89 118//118 124//124
f 122//122 121//121 125//125
f 124//124 123//123 89//89
f 125//125 128//128 127//127
f 122//122 125//125 127//127
f 122//122 115//115 95//95
f 127//127 115//115 122//122
f 123//123 124//124 93//93
f 152//152 123//123 126//126
f 132//132 134//134 131//131
f 135//135 137//137 143//143
f 131//131 134//134 53//53
f 132//132 137//137 134//134
f 135//135 134//134 137//137
f 84//84 133//133 132//132
f 133//133 137//137 132//132
f 133//133 136//136 137//137
f 136//136 146//146 137//137
f 136//136 133//133 87//87
f 89//89 136//136 87//87
f 138//138 149//149 140//140
f 139//139 97//97 148//148
f 149//149 138//138 141//141
f 148//148 92//92 78//78
f 150//150 140//140 79//79
f 140//140 65//65 79//79
f 147//147 144//144 142//142
f 147//147 138//138 144//144
f 138//138 147//147 139//139
f 108//108 139//139 147//147
f 144//144 138//138 140//140
f 146//146 143//143 137//137
f 143//143 145//145 135//135
f 143//143 146//146 150//150
f 150//150 146//146 142//142
f 138//138 148//148 141//141
f 150//150 79//79 145//145
f 147//147 142//142 151//151
f 143//143 150//150 145//145
f 151//151 108//108 147//147
f 142//142 140//140 150//150
f 148//148 97//97 92//92
f 139//139 148//148 138//138
f 146//146 136//136 89//89
f 123//123 146//146 89//89
f 142//142 146//146 151//151
f 146//146 123//123 151//151
f 142//142 144//144 140//140
f 123//123 152//152 151//151
f 108//108 151//151 152//152

