# https://github.com/mikedh/trimesh
v -0.04075700 0.00965300 -0.01755800
v -0.03789200 -0.00718800 -0.02069800
v -0.01622100 -0.03700700 -0.01988100
v -0.02631800 -0.02644800 -0.02054300
v -0.00410300 -0.04210300 0.00725600
v -0.02480600 -0.03381900 -0.01802700
v -0.03265800 0.00503800 -0.01802800
v -0.01530400 -0.03920400 -0.01398700
v -0.03284900 -0.02582900 -0.01750200
v -0.03873900 -0.01455000 -0.01863000
v -0.01417000 -0.03393700 -0.02042500
v -0.03430500 -0.02149900 -0.02038300
v -0.01129900 -0.04057800 -0.01820300
v -0.02207600 -0.00117300 -0.01752600
v -0.01643400 -0.01053000 -0.01748100
v -0.03004000 -0.01690100 -0.01799100
v -0.03951800 -0.01460500 -0.01185600
v -0.02463100 -0.03445100 0.00960500
v -0.02194000 -0.01918700 -0.01815400
v -0.04166000 -0.00267000 -0.01930300
v -0.01747200 -0.02928900 -0.01853700
v -0.03769600 0.00207900 -0.02056000
v 0.01414800 -0.01430800 -0.01756000
v 0.02687000 -0.02944900 0.00953600
v 0.00546700 -0.03295700 0.00900200
v 0.00677200 -0.02017400 0.00859300
v 0.00987500 -0.04002900 -0.02007900
v 0.02048100 -0.03678000 -0.01748100
v 0.02427900 -0.03282600 -0.02038600
v 0.01244700 -0.03383600 -0.02015500
v 0.00850200 -0.01226600 -0.01688300
v 0.00995600 -0.02624600 -0.01856600
v 0.02535200 -0.02689700 -0.02038100
v 0.02353500 -0.02437700 -0.01775600
v 0.02455800 -0.01736400 -0.01876200
v 0.03158400 -0.02809300 0.01100900
v 0.03268100 -0.02270800 -0.02060000
v 0.03475300 -0.02335100 -0.01671200
v 0.00138900 -0.04211800 -0.01726400
v -0.00032400 -0.04041500 0.00980100
v -0.00144300 -0.03883100 -0.02111400
v 0.01511700 -0.03820500 0.00962100
v 0.01758200 -0.03855500 0.01167200
v 0.00330500 -0.03394500 -0.01806500
v 0.02228000 -0.03596300 0.00956600
v 0.03673900 -0.01802500 0.01005000
v 0.03589500 -0.02247500 0.01025500
v 0.01993500 -0.03711600 -0.00292500
v 0.02997700 -0.01569900 0.00894800
v 0.02935700 -0.03022800 -0.01414400
v 0.00949700 -0.04123800 0.00445900
v -0.00620000 -0.00787200 -0.01664700
v 0.00698900 0.03636400 -0.02073500
v -0.00909700 0.01989800 -0.01778300
v -0.01396700 0.00052300 -0.01654800
v -0.01284500 0.02734600 -0.01859400
v -0.01774300 0.00557100 -0.01732400
v -0.02090300 0.02852500 -0.01998900
v -0.01934600 0.02736800 -0.01793100
v -0.00634200 0.03851700 -0.02057000
v 0.00594100 0.02706000 -0.01856000
v 0.02232800 0.02978500 -0.02061300
v -0.02863000 0.01623700 -0.01860600
v -0.03355500 0.01765300 -0.02068600
v -0.02804800 0.02915400 -0.02065100
v 0.01090700 0.03194300 -0.01806200
v 0.00644000 0.04070300 -0.01961000
v -0.01207000 0.03461100 -0.02060900
v -0.03693200 0.01149800 -0.02121900
v -0.00164400 0.03545000 -0.02004600
v -0.00673300 0.03344500 -0.01843600
v 0.03264200 -0.01578100 -0.01998700
v 0.04187300 0.00187000 -0.01753600
v 0.03975500 0.01237200 -0.01721500
v 0.02910400 0.01263300 -0.01869700
v 0.02377700 0.02390300 -0.01834200
v 0.02036600 0.03487800 -0.02034000
v 0.04080500 -0.01120700 0.00899900
v 0.01107100 0.01981100 -0.01770100
v 0.04186800 -0.00336900 -0.00813900
v 0.02903300 0.02940900 -0.01827000
v 0.03260200 -0.00822400 -0.01811800
v 0.03971900 -0.01250000 -0.01946400
v 0.04012200 -0.01316600 -0.00573800
v 0.03141500 0.02741500 -0.01151700
v 0.00826600 0.00854900 -0.01681900
v 0.02146800 -0.00150400 -0.01757000
v 0.01481600 0.03879000 -0.01663500
v 0.03642300 -0.00698700 -0.02053900
v 0.03952100 0.00703400 -0.02038900
v 0.03328400 0.01632200 -0.02062800
v 0.03307600 0.02391000 -0.01999200
v 0.03662200 0.01984200 -0.01623400
v 0.03320500 0.00803700 -0.01793200
v -0.01189000 -0.03310600 0.00924400
v -0.03505100 -0.00434400 0.00886700
v -0.01770900 -0.03803100 0.01010000
v -0.02989800 -0.02947200 -0.00358100
v -0.03995100 0.01219500 0.01042300
v -0.03552100 -0.02256300 -0.00339400
v -0.03427200 -0.02497800 0.01136700
v -0.04182700 0.00547700 0.01066900
v -0.02201200 -0.02507400 0.00903200
v -0.03047200 -0.02513500 0.00974800
v -0.00877900 -0.03914400 0.00970800
v -0.03995800 -0.01360500 0.01124900
v -0.04176700 -0.00475700 0.01032000
v -0.03907500 0.00486700 0.00972100
v -0.00900200 -0.02954800 0.00887500
v -0.00926800 -0.04117800 0.01090200
v 0.00187400 -0.04243700 0.01126400
v -0.02987900 0.02621600 0.00977600
v -0.01807000 -0.00852800 0.00840200
v 0.00266700 0.02721000 0.00862900
v -0.02536700 0.02021500 0.00896200
v 0.00350800 0.04156000 -0.01603900
v -0.03728400 0.01876800 -0.01721800
v 0.01274200 0.03982300 0.01033500
v -0.01406200 0.03928200 -0.00976900
v -0.03223000 0.02637700 -0.01871100
v -0.02643900 0.03219700 -0.01841900
v -0.01968800 0.03685000 -0.01369900
v -0.03151600 0.02765400 0.00249700
v -0.01493700 0.03767400 -0.01964200
v -0.00608100 0.04087600 -0.01774500
v -0.00482600 0.03618300 0.00935500
v -0.03758200 0.01833600 0.01024100
v -0.00113900 0.04204800 0.01096700
v -0.03185300 0.02804500 0.01169100
v -0.02012900 0.03460500 0.00966000
v -0.02244500 0.03528700 0.00385600
v -0.01139300 0.04038600 0.01179700
v -0.00642800 0.04126500 0.00444800
v -0.02605800 0.03281400 0.01143400
v 0.01561000 0.01524600 0.00854800
v 0.01522700 0.03126400 0.00919400
v 0.01273200 0.03707800 0.00988600
v 0.04169100 0.00656600 -0.00729000
v 0.04036200 0.01200300 0.01044200
v 0.02561600 0.03304000 0.01047500
v 0.03408800 0.02486900 0.01047800
v 0.03358300 0.01522900 0.00933200
v 0.03966200 0.01380300 -0.00493600
v 0.03834500 0.01706700 0.01045500
v 0.01773100 0.03798100 0.01061800
v 0.03792400 -0.00552600 0.00924000
v 0.02095000 0.03602700 -0.01712300
v 0.00811100 0.04092700 0.01037100
v 0.02568700 0.03324900 -0.00621700
v 0.04164700 0.00542600 0.01088800
v 0.04131200 -0.01127200 0.01210300
v 0.04223900 -0.00093400 0.00980300
vn -0.90631506 0.19481268 -0.37502138
vn -0.09564261 -0.04580768 -0.99436118
vn -0.29971194 -0.58044213 -0.75713915
vn 0.03950641 -0.00216538 -0.99921697
vn -0.09183275 -0.99576698 0.00385445
vn -0.52785107 -0.70071537 -0.47997001
vn 0.26583954 -0.06124025 -0.96207015
vn -0.40675296 -0.91036957 -0.07602152
vn -0.75578023 -0.59566547 -0.27199063
vn -0.82882030 -0.31837535 -0.46010220
vn 0.03337332 0.16703562 -0.98538587
vn -0.56331522 -0.33006726 -0.75745070
vn -0.24911733 -0.87071164 -0.42403041
vn 0.05240077 0.00844563 -0.99859042
vn 0.06944712 0.04596727 -0.99652602
vn 0.39798370 0.23849697 -0.88584884
vn -0.93599270 -0.34727304 -0.05761163
vn -0.47126947 -0.62799625 0.61929460
vn 0.01632351 0.03547937 -0.99923709
vn -0.82628805 -0.03214139 -0.56232996
vn 0.18717346 0.33037291 -0.92510531
vn -0.02074230 0.04069505 -0.99895629
vn -0.08924384 0.08420261 -0.99244418
vn -0.23953217 0.31409957 0.91867611
vn -0.01356546 0.06612166 0.99771935
vn -0.01310699 0.02300892 0.99964934
vn 0.20201630 -0.69819478 -0.68681400
vn 0.45399951 -0.85592451 -0.24754330
vn 0.39864391 -0.48912035 -0.77578625
vn -0.10204775 0.24150644 -0.96501860
vn -0.04248088 0.06209469 -0.99716580
vn 0.01774516 -0.01915541 -0.99965903
vn -0.21486989 0.22910692 -0.94938978
vn -0.22009033 0.21866734 -0.95065496
vn 0.09621263 -0.05863600 -0.99363220
vn 0.39222481 -0.39968714 0.82849857
vn 0.39888982 -0.27183204 -0.87578208
vn 0.80583597 -0.54180129 -0.23891370
vn 0.02248024 -0.95219984 -0.30464751
vn 0.02599135 0.39784828 0.91708298
vn -0.00180656 -0.22761957 -0.97374846
vn -0.19481116 0.53093543 0.82471582
vn 0.04653203 -0.41544351 0.90842801
vn -0.05326455 0.32290854 -0.94493014
vn 0.57158193 -0.80669594 0.15011912
vn -0.56372944 0.29410777 0.77182235
vn 0.81531137 -0.50077879 0.29066817
vn 0.46783044 -0.88363453 -0.01801936
vn -0.07206854 0.04174816 0.99652557
vn 0.69388120 -0.71050215 -0.11711351
vn 0.21951475 -0.97560130 0.00392049
vn 0.01663897 0.04299398 -0.99893677
vn -0.00973819 -0.13023434 -0.99143542
vn 0.02457243 -0.08338960 -0.99621402
vn 0.10792841 -0.00184535 -0.99415696
vn -0.03251675 0.02823205 -0.99907238
vn 0.08941368 -0.04444515 -0.99500242
vn 0.25594738 -0.39512555 -0.88225095
vn 0.19259241 -0.31184468 -0.93040908
vn -0.03258878 0.41439491 -0.90951351
vn 0.00069712 -0.00299414 -0.99999527
vn -0.00040870 -0.08986241 -0.99595411
vn 0.21260053 -0.12431903 -0.96919853
vn -0.14657414 0.09044682 -0.98505604
vn -0.34142782 0.36749451 -0.86508660
vn -0.12228819 -0.34263729 -0.93147479
vn 0.11442985 0.77759831 -0.61826102
vn 0.05964684 -0.14230153 -0.98802456
vn -0.24145006 0.06513096 -0.96822509
vn -0.01996075 -0.41773926 -0.90834767
vn 0.07414517 -0.41889614 -0.90500195
vn -0.20972724 0.13773676 -0.96800985
vn 0.94322730 0.02131667 -0.33146321
vn 0.90432103 0.30920090 -0.29427584
vn 0.18409197 0.08895547 -0.97887541
vn -0.26455428 -0.22410876 -0.93796924
vn 0.32037717 0.52691166 -0.78722460
vn 0.95981189 -0.27007607 -0.07628924
vn -0.07281210 -0.13073420 -0.98874009
vn 0.99551458 -0.09043652 -0.02778416
vn 0.60341242 0.65275075 -0.45805012
vn -0.31537669 0.08824063 -0.94485509
vn 0.73479639 -0.23908887 -0.63475254
vn 0.94833468 -0.31624897 -0.02545428
vn 0.75987660 0.64862322 -0.04330665
vn -0.03530005 -0.04455600 -0.99838303
vn -0.06611354 -0.00057207 -0.99781194
vn 0.33646275 0.92411333 -0.18112806
vn -0.14592164 -0.00113221 -0.98929550
vn 0.55975311 0.11206438 -0.82104691
vn -0.14291722 -0.07870177 -0.98660058
vn 0.57907723 0.43209648 -0.69134810
vn 0.86433752 0.47382567 -0.16855232
vn -0.45788721 -0.08624016 -0.88481746
vn 0.04254394 0.09399214 0.99466351
vn 0.13182183 0.03237511 0.99074460
vn -0.28082873 -0.62472107 0.72860058
vn -0.72095987 -0.69282673 -0.01442167
vn -0.58816720 0.21295989 0.78019705
vn -0.84420948 -0.53575525 -0.01663291
vn -0.43550573 -0.37364174 0.81897901
vn -0.61477564 0.08027814 0.78460584
vn 0.05826487 0.07499925 0.99547994
vn 0.24026992 0.14503760 0.95980960
vn 0.04736094 0.30265836 0.95192167
vn -0.59780688 -0.18476346 0.78005730
vn -0.67058439 -0.03901386 0.74080665
vn 0.21617480 -0.03960758 0.97555097
vn 0.01519481 0.05776982 0.99821429
vn -0.18500870 -0.50937093 0.84042432
vn 0.02391477 -0.54843383 0.83585191
vn 0.26420402 -0.24661992 0.93240273
vn 0.01712166 0.00786252 0.99982250
vn -0.00294463 -0.04940378 0.99877455
vn 0.05876390 -0.04128634 0.99741779
vn 0.04180870 0.98805065 -0.14835077
vn -0.83061903 0.42476211 -0.36006829
vn 0.18693233 0.64803469 0.73831386
vn -0.31666146 0.94776636 -0.03826804
vn -0.73963199 0.51908484 -0.42836369
vn -0.55883600 0.76533612 -0.31931638
vn -0.44608463 0.89011911 -0.09325489
vn -0.75306920 0.65761439 -0.02073873
vn -0.26854988 0.70704249 -0.65419559
vn -0.10968807 0.92779204 -0.35660966
vn 0.02575351 -0.17742496 0.98379731
vn -0.61562494 0.30518842 0.72654385
vn 0.01376116 0.63454567 0.77276285
vn -0.42725202 0.31997742 0.84561821
vn 0.23891381 -0.46409352 0.85295803
vn -0.52676479 0.84994500 0.01059930
vn -0.15854481 0.47789428 0.86399109
vn -0.16602791 0.98600877 -0.01488068
vn -0.25817806 0.43276794 0.86374533
vn -0.02478663 -0.01799818 0.99953073
vn -0.06067311 -0.10530063 0.99258781
vn -0.06384327 -0.15067717 0.98651935
vn 0.98762067 0.15553699 -0.02033842
vn 0.79618660 0.25416344 0.54907909
vn 0.41265083 0.53140161 0.73981864
vn 0.55500934 0.40512213 0.72652645
vn -0.13101007 -0.05399603 0.98990949
vn 0.93597796 0.35164572 -0.01704540
vn 0.58205184 0.29814670 0.75652112
vn 0.26987104 0.60016523 0.75297498
vn -0.31459061 0.03732429 0.94849336
vn 0.49031961 0.84830083 -0.19993093
vn 0.13330114 0.65479398 0.74395945
vn 0.61601982 0.78762291 -0.01302803
vn 0.61097958 0.08513380 0.78705539
vn 0.55211442 -0.19438288 0.81079280
vn 0.98362741 -0.00970168 0.17995278
f 31//31 21//21 52//52
f 98//98 100//100 9//9
f 22//22 2//2 20//20
f 21//21 15//15 52//52
f 16//16 7//7 19//19
f 52//52 15//15 55//55
f 8//8 18//18 6//6
f 6//6 9//9 12//12
f 12//12 4//4 6//6
f 19//19 7//7 14//14
f 6//6 98//98 9//9
f 8//8 13//13 5//5
f 6//6 4//4 3//3
f 8//8 6//6 3//3
f 7//7 2//2 22//22
f 11//11 3//3 4//4
f 97//97 18//18 8//8
f 102//102 20//20 107//107
f 14//14 15//15 19//19
f 11//11 21//21 44//44
f 41//41 3//3 11//11
f 41//41 13//13 3//3
f 39//39 13//13 41//41
f 16//16 21//21 4//4
f 17//17 10//10 12//12
f 9//9 17//17 12//12
f 8//8 3//3 13//13
f 10//10 17//17 20//20
f 2//2 12//12 10//10
f 2//2 10//10 20//20
f 12//12 2//2 4//4
f 21//21 19//19 15//15
f 57//57 15//15 14//14
f 7//7 16//16 2//2
f 57//57 55//55 15//15
f 9//9 100//100 17//17
f 21//21 16//16 19//19
f 98//98 6//6 18//18
f 107//107 20//20 17//17
f 22//22 20//20 1//1
f 69//69 22//22 1//1
f 102//102 1//1 20//20
f 44//44 41//41 11//11
f 11//11 4//4 21//21
f 16//16 4//4 2//2
f 26//26 25//25 42//42
f 105//105 40//40 25//25
f 26//26 42//42 24//24
f 49//49 26//26 24//24
f 26//26 109//109 25//25
f 46//46 146//146 49//49
f 84//84 38//38 83//83
f 41//41 27//27 39//39
f 5//5 111//111 110//110
f 30//30 27//27 41//41
f 32//32 31//31 23//23
f 30//30 29//29 27//27
f 29//29 28//28 27//27
f 29//29 30//30 33//33
f 34//34 33//33 30//30
f 50//50 28//28 29//29
f 37//37 29//29 33//33
f 42//42 40//40 111//111
f 50//50 29//29 38//38
f 42//42 111//111 43//43
f 45//45 50//50 36//36
f 43//43 24//24 42//42
f 111//111 51//51 43//43
f 37//37 33//33 72//72
f 23//23 35//35 32//32
f 35//35 34//34 32//32
f 43//43 45//45 36//36
f 33//33 34//34 72//72
f 43//43 36//36 24//24
f 38//38 29//29 37//37
f 43//43 51//51 48//48
f 5//5 13//13 39//39
f 43//43 48//48 45//45
f 36//36 50//50 38//38
f 39//39 27//27 51//51
f 40//40 42//42 25//25
f 32//32 44//44 21//21
f 24//24 46//46 49//49
f 31//31 32//32 21//21
f 46//46 24//24 36//36
f 36//36 38//38 47//47
f 30//30 44//44 34//34
f 28//28 51//51 27//27
f 47//47 38//38 84//84
f 78//78 47//47 84//84
f 32//32 34//34 44//44
f 36//36 151//151 46//46
f 51//51 28//28 48//48
f 48//48 28//28 50//50
f 51//51 5//5 39//39
f 45//45 48//48 50//50
f 111//111 5//5 51//51
f 5//5 110//110 8//8
f 30//30 41//41 44//44
f 151//151 36//36 47//47
f 151//151 47//47 78//78
f 46//46 151//151 146//146
f 55//55 86//86 52//52
f 60//60 68//68 124//124
f 54//54 63//63 56//56
f 70//70 60//60 53//53
f 53//53 77//77 62//62
f 70//70 71//71 68//68
f 56//56 61//61 54//54
f 69//69 1//1 117//117
f 79//79 55//55 54//54
f 117//117 64//64 69//69
f 56//56 71//71 66//66
f 14//14 63//63 57//57
f 60//60 124//124 125//125
f 7//7 22//22 69//69
f 63//63 7//7 69//69
f 67//67 53//53 60//60
f 57//57 63//63 54//54
f 116//116 67//67 60//60
f 125//125 116//116 60//60
f 63//63 14//14 7//7
f 62//62 66//66 53//53
f 63//63 69//69 64//64
f 66//66 61//61 56//56
f 55//55 79//79 86//86
f 120//120 65//65 64//64
f 64//64 65//65 58//58
f 70//70 66//66 71//71
f 59//59 56//56 63//63
f 79//79 54//54 61//61
f 68//68 65//65 124//124
f 65//65 68//68 58//58
f 53//53 67//67 77//77
f 68//68 71//71 58//58
f 59//59 71//71 56//56
f 58//58 71//71 59//59
f 88//88 77//77 67//67
f 67//67 116//116 88//88
f 70//70 68//68 60//60
f 57//57 54//54 55//55
f 53//53 66//66 70//70
f 63//63 64//64 59//59
f 59//59 64//64 58//58
f 37//37 83//83 38//38
f 37//37 72//72 83//83
f 72//72 89//89 83//83
f 138//138 73//73 74//74
f 138//138 74//74 143//143
f 82//82 75//75 94//94
f 79//79 61//61 75//75
f 66//66 75//75 61//61
f 75//75 87//87 79//79
f 75//75 66//66 76//76
f 31//31 87//87 23//23
f 52//52 86//86 31//31
f 78//78 84//84 80//80
f 62//62 91//91 76//76
f 86//86 87//87 31//31
f 92//92 91//91 62//62
f 92//92 62//62 81//81
f 62//62 77//77 81//81
f 149//149 85//85 81//81
f 152//152 78//78 80//80
f 82//82 34//34 35//35
f 82//82 72//72 34//34
f 82//82 89//89 72//72
f 23//23 87//87 35//35
f 80//80 73//73 138//138
f 35//35 87//87 82//82
f 93//93 92//92 85//85
f 85//85 92//92 81//81
f 82//82 87//87 75//75
f 83//83 80//80 84//84
f 80//80 83//83 73//73
f 152//152 80//80 138//138
f 87//87 86//86 79//79
f 94//94 76//76 91//91
f 73//73 83//83 90//90
f 81//81 77//77 147//147
f 147//147 149//149 81//81
f 147//147 77//77 88//88
f 91//91 92//92 90//90
f 76//76 94//94 75//75
f 91//91 90//90 89//89
f 147//147 88//88 118//118
f 73//73 90//90 74//74
f 74//74 90//90 92//92
f 144//144 143//143 93//93
f 74//74 93//93 143//143
f 74//74 92//92 93//93
f 76//76 66//66 62//62
f 83//83 89//89 90//90
f 94//94 89//89 82//82
f 91//91 89//89 94//94
f 96//96 104//104 103//103
f 95//95 103//103 105//105
f 103//103 109//109 113//113
f 95//95 109//109 103//103
f 115//115 96//96 114//114
f 96//96 113//113 114//114
f 96//96 103//103 113//113
f 101//101 106//106 100//100
f 106//106 17//17 100//100
f 107//107 106//106 96//96
f 108//108 96//96 115//115
f 99//99 1//1 102//102
f 1//1 99//99 117//117
f 101//101 100//100 98//98
f 106//106 107//107 17//17
f 102//102 107//107 108//108
f 101//101 98//98 18//18
f 101//101 18//18 104//104
f 104//104 18//18 97//97
f 127//127 99//99 108//108
f 106//106 104//104 96//96
f 110//110 97//97 8//8
f 105//105 97//97 110//110
f 97//97 105//105 104//104
f 103//103 104//104 105//105
f 107//107 96//96 108//108
f 106//106 101//101 104//104
f 102//102 108//108 99//99
f 105//105 25//25 95//95
f 95//95 25//25 109//109
f 109//109 26//26 113//113
f 135//135 113//113 26//26
f 111//111 105//105 110//110
f 105//105 111//111 40//40
f 112//112 108//108 115//115
f 113//113 135//135 114//114
f 112//112 115//115 130//130
f 130//130 115//115 114//114
f 114//114 126//126 130//130
f 131//131 121//121 123//123
f 122//122 121//121 131//131
f 120//120 64//64 117//117
f 118//118 116//116 148//148
f 131//131 132//132 119//119
f 128//128 116//116 125//125
f 88//88 116//116 118//118
f 129//129 134//134 123//123
f 128//128 130//130 126//126
f 131//131 123//123 134//134
f 124//124 65//65 121//121
f 121//121 65//65 120//120
f 121//121 122//122 124//124
f 124//124 122//122 119//119
f 120//120 117//117 123//123
f 132//132 130//130 128//128
f 134//134 130//130 132//132
f 123//123 121//121 120//120
f 132//132 133//133 119//119
f 119//119 125//125 124//124
f 119//119 122//122 131//131
f 134//134 112//112 130//130
f 119//119 133//133 125//125
f 128//128 125//125 133//133
f 128//128 148//148 116//116
f 126//126 148//148 128//128
f 127//127 117//117 99//99
f 108//108 112//112 127//127
f 112//112 129//129 127//127
f 123//123 117//117 127//127
f 127//127 129//129 123//123
f 134//134 132//132 131//131
f 132//132 128//128 133//133
f 134//134 129//129 112//112
f 135//135 49//49 146//146
f 142//142 135//135 146//146
f 26//26 49//49 135//135
f 135//135 142//142 136//136
f 136//136 137//137 126//126
f 135//135 136//136 114//114
f 126//126 114//114 136//136
f 142//142 146//146 150//150
f 150//150 152//152 138//138
f 139//139 150//150 138//138
f 141//141 149//149 140//140
f 142//142 141//141 136//136
f 139//139 138//138 143//143
f 137//137 136//136 145//145
f 139//139 143//143 144//144
f 150//150 144//144 142//142
f 140//140 149//149 145//145
f 145//145 147//147 118//118
f 141//141 142//142 144//144
f 149//149 147//147 145//145
f 126//126 137//137 148//148
f 150//150 146//146 151//151
f 151//151 78//78 152//152
f 148//148 137//137 118//118
f 136//136 141//141 140//140
f 140//140 145//145 136//136
f 85//85 141//141 93//93
f 141//141 144//144 93//93
f 85//85 149//149 141//141
f 139//139 144//144 150//150
f 118//118 137//137 145//145
f 152//152 150//150 151//151

