# https://github.com/mikedh/trimesh
v -0.00112000 -0.01037600 -0.00923200
v -0.00505800 0.00057100 -0.00774800
v -0.00518300 0.00064000 -0.00764900
v -0.00514000 0.00077000 -0.00768400
v -0.00534200 0.00071700 -0.00756300
v -0.00434300 0.00098400 -0.00809600
v -0.00222100 -0.01973300 -0.00909300
v -0.00512300 -0.01307900 -0.00755000
v 0.00107600 -0.00221200 -0.00912300
v 0.00110900 -0.00206600 -0.00911000
v 0.00124700 -0.00210900 -0.00909300
v 0.00084400 -0.00231100 -0.00913500
v 0.00114400 -0.00192100 -0.00910200
v -0.00510500 -0.00507100 -0.00751200
v -0.00836400 -0.02728500 -0.00153500
v -0.00195700 -0.00068900 -0.00914900
v -0.00800700 -0.02159300 -0.00338700
v -0.00699600 -0.00019600 -0.00572000
v -0.00755100 -0.03041300 -0.00446700
v -0.00850200 -0.02024900 0.00018300
v -0.00795800 -0.00812200 -0.00367600
v -0.00856000 -0.00304200 -0.00101500
v -0.00591100 -0.02082600 -0.00679300
v -0.00845400 -0.00870100 0.00074100
v -0.00852700 -0.01492700 -0.00164100
v 0.00155400 -0.04845100 0.00867200
v 0.01007100 -0.05387500 -0.00244800
v 0.00923100 -0.04938700 -0.00454800
v 0.00910500 -0.04924900 -0.00478300
v 0.00919400 -0.04923600 -0.00461000
v 0.00915200 -0.04908300 -0.00467400
v -0.00511400 -0.03037800 -0.00751300
v 0.00982500 -0.04454000 -0.00147700
v -0.00666700 -0.05499000 -0.00550100
v 0.00859700 -0.05000500 -0.00553500
v 0.00357700 -0.03830300 0.00815300
v 0.00372500 -0.03836100 0.00812700
v 0.00387400 -0.03842000 0.00809800
v 0.00376300 -0.03822100 0.00812000
v -0.00093800 -0.03468100 0.00835800
v -0.00269400 -0.05330900 -0.00889300
v 0.00070000 -0.05723600 0.00508000
v 0.00076700 -0.05713400 0.00496400
v 0.00059200 -0.05731300 0.00523300
v 0.00080100 -0.05722900 0.00524100
v -0.00164600 -0.05764700 0.00748700
v 0.00083200 -0.05379500 -0.00974300
v 0.00877000 -0.04825400 0.00431400
v 0.00351500 -0.05666500 0.00824800
v 0.00112300 -0.05332100 -0.00974700
v 0.00126500 -0.05336900 -0.00974500
v 0.00098200 -0.05327200 -0.00974800
v 0.00115900 -0.05317800 -0.00974400
v 0.00895100 -0.05622700 0.00446700
v 0.00041400 -0.05183300 -0.00971500
v 0.00045000 -0.05169000 -0.00971300
v 0.00048600 -0.05154700 -0.00971000
v 0.00059900 -0.05158700 -0.00971400
v 0.00060300 -0.04269700 -0.00948000
v 0.00695100 -0.05129700 0.00662900
v 0.00435600 -0.05235400 -0.00897600
v 0.00359800 -0.05722800 -0.00894600
v 0.00714900 -0.05452900 -0.00754100
v 0.00726500 -0.05454300 -0.00743800
v 0.00729400 -0.05439100 -0.00741000
v 0.00450000 -0.05062000 0.00804000
v 0.00738200 -0.05455800 -0.00734100
v 0.00676400 -0.05276200 -0.00778900
v 0.00667500 -0.05259400 -0.00785600
v 0.00679400 -0.05261100 -0.00776400
v 0.00691100 -0.05262800 -0.00767000
v 0.00596100 -0.03062400 0.00669600
v -0.00676600 -0.04800400 0.00453600
v -0.00596100 -0.04699000 -0.00665700
v -0.00605700 -0.04692900 -0.00654900
v -0.00602400 -0.04679600 -0.00658700
v -0.00614600 -0.04687000 -0.00643800
v -0.00586500 -0.04706600 -0.00674400
v -0.00733700 -0.04912500 0.00360500
v -0.00727800 -0.04927000 0.00372100
v -0.00725500 -0.04910900 0.00377500
v -0.00715600 -0.04910100 0.00394000
v -0.00770500 -0.04704600 0.00279100
v -0.00771800 -0.04690100 0.00273800
v -0.00773700 -0.04675400 0.00268200
v -0.00776800 -0.04712800 0.00250300
v -0.00766400 -0.04687800 0.00289800
v -0.00066900 -0.03168000 0.00839200
v -0.00080500 -0.03163900 0.00837000
v -0.00063400 -0.03153600 0.00839900
v -0.00053300 -0.03172100 0.00841600
v -0.00584500 -0.04691900 0.00578800
v -0.00581300 -0.04677100 0.00580600
v -0.00570000 -0.04678100 0.00591800
v -0.00578900 -0.04661200 0.00585500
v 0.00547300 -0.02934400 0.00716100
v 0.00566000 -0.02927500 0.00705100
v 0.00550200 -0.02920400 0.00711400
v 0.00533900 -0.02912500 0.00720000
v -0.00462300 -0.04809100 0.00677400
v 0.00635300 -0.04766700 -0.00785000
v 0.00706000 -0.05345000 -0.00757300
v 0.00687400 -0.05090500 -0.00762300
v 0.00699100 -0.05092100 -0.00752600
v 0.00710800 -0.05093600 -0.00742700
v 0.00701900 -0.05076700 -0.00749200
v -0.00125400 -0.05364200 0.00842100
v 0.00595700 -0.04669500 -0.00808900
v 0.00586500 -0.04652300 -0.00814300
v 0.00598700 -0.04654400 -0.00806300
v 0.00371300 -0.00709500 -0.00835500
v 0.00610700 -0.04656500 -0.00798100
v 0.00183100 -0.03387400 -0.00939400
v 0.00271800 -0.03438400 -0.00921100
v 0.00859100 -0.04603000 -0.00536100
v 0.00186600 -0.03372900 -0.00938600
v 0.00179100 -0.03373300 -0.00939700
v 0.00777800 -0.01642400 0.00405100
v 0.00786300 -0.01648200 0.00393900
v 0.00193600 -0.04993800 0.00871500
v 0.00197600 -0.04980100 0.00870100
v 0.00212000 -0.04985400 0.00869100
v 0.00182900 -0.04974600 0.00872000
v 0.00844700 -0.04506400 -0.00559800
v 0.00852400 -0.04521700 -0.00549000
v 0.00193900 -0.03367100 -0.00937500
v 0.00855000 -0.04506100 -0.00544800
v 0.00865300 -0.04503400 -0.00528100
v -0.00575900 -0.03932400 -0.00680900
v 0.00794100 -0.05518000 -0.00682800
v 0.00917300 -0.05512100 -0.00518500
v 0.00947400 -0.05473000 -0.00459400
v 0.00949700 -0.05457000 -0.00454000
v 0.00945800 -0.05441800 -0.00460200
v 0.00957000 -0.05455000 -0.00436500
v -0.00335700 -0.04375400 0.00763800
v -0.00167500 -0.04389200 0.00820600
v -0.00344600 -0.04358500 0.00757700
v -0.00332700 -0.04360300 0.00766500
v -0.00329300 -0.04345900 0.00767300
v 0.00649800 -0.05549400 0.00300600
v -0.00497900 -0.03456900 0.00652600
v -0.00662800 -0.02923100 0.00493900
v 0.01008200 -0.05072700 0.00099100
v -0.00786600 -0.02453300 0.00258300
v -0.00706200 -0.04804300 -0.00504000
v 0.00788400 -0.03755100 0.00504700
v 0.00397000 -0.03267500 0.00793900
v -0.00468600 -0.05634300 -0.00004900
v -0.00286900 -0.05786400 -0.00765300
v 0.00154300 -0.05585600 -0.00626600
v -0.00755300 -0.05452300 0.00292000
v 0.00218400 -0.05759700 -0.00726500
v 0.00602000 -0.05782900 -0.00682800
v -0.00820000 -0.04934300 -0.00109400
v 0.00855200 -0.02793400 0.00341300
v -0.00325400 -0.05636500 0.00288800
v -0.00463700 -0.05796500 -0.00473900
v 0.00477400 -0.05620500 0.00378100
v 0.00000800 -0.05214200 0.00056400
v -0.00212800 -0.05484100 -0.00418100
v 0.00477800 -0.04123200 -0.00867200
v 0.00626700 -0.05653200 -0.00385000
v -0.00034000 -0.05287900 -0.00607800
v -0.00177200 -0.05323600 0.00411500
v -0.00270500 -0.05617600 0.00497400
v 0.00105000 -0.05383300 0.00535200
v 0.00027000 -0.05642400 0.00536400
v 0.00331700 -0.05767800 0.00654100
v 0.00356800 -0.05521700 0.00589700
v 0.00881000 -0.02333800 0.00235200
v 0.00735300 -0.02406300 0.00530700
v 0.00613900 -0.01486600 0.00593800
v -0.00280000 -0.04604100 -0.00876100
v -0.00704300 -0.04259100 -0.00483500
v 0.00691000 -0.02160700 -0.00654700
v 0.00724600 -0.03676900 -0.00667100
v 0.00881300 -0.04034700 -0.00475200
v 0.00944000 -0.03698800 -0.00088200
v 0.00870300 -0.02909500 -0.00387700
v -0.00833100 -0.03786400 -0.00198600
v 0.00399100 -0.01630200 -0.00848400
v 0.00827200 -0.05754100 -0.00470600
v -0.00265900 -0.03135700 -0.00897800
v 0.00087100 -0.02600800 -0.00930100
v 0.00983900 -0.05737600 -0.00072400
v -0.00790300 -0.03451700 0.00203400
v -0.00363900 -0.03849600 0.00747600
v -0.00629000 -0.05802200 0.00221900
v 0.00901200 -0.01797800 0.00060700
v -0.00819200 -0.05655800 -0.00084000
v 0.00631200 -0.04136700 0.00666400
v 0.00885100 -0.01182800 -0.00010700
v -0.00554600 -0.05569500 0.00586800
v 0.00257500 -0.03638800 0.00828600
v 0.00797700 -0.01736800 0.00398000
v 0.00803600 -0.01660000 0.00371500
v 0.00779600 -0.01662600 0.00405100
v 0.00927300 -0.03155700 0.00119900
v 0.00815000 -0.00907800 0.00300900
v 0.00919600 -0.02500600 -0.00085500
v 0.00810700 -0.05788600 0.00357200
v 0.00612400 -0.00960400 -0.00696200
v 0.00804600 -0.00824600 -0.00406600
v 0.00854000 -0.00074800 0.00076400
v 0.00931700 -0.04223800 0.00240000
v -0.00260300 -0.05319700 -0.00049800
v -0.00376600 -0.05535600 -0.00308400
v 0.00297500 -0.05380000 -0.00649600
v 0.00437600 -0.05288700 0.00036300
v -0.00077600 -0.05636800 -0.00646900
v 0.00760600 -0.04122900 -0.00696700
v 0.00139900 -0.05201700 0.00333100
v 0.00581100 -0.03119300 -0.00767500
v 0.00286400 -0.05289600 0.00509700
v 0.00496900 -0.05690300 -0.00526500
v 0.00181400 -0.05200100 -0.00386300
v 0.00458100 -0.05394000 -0.00503700
v 0.00612300 -0.05378000 -0.00373500
v 0.00851900 -0.01867800 -0.00373200
v -0.00798000 -0.04234200 0.00039800
v 0.00661500 -0.05591700 -0.00070400
v -0.00690700 -0.04236400 0.00396600
v -0.00447700 -0.04397800 0.00688800
v 0.00388400 -0.05601800 0.00410100
v -0.00415200 0.00196600 -0.00830600
v -0.00431400 0.00204200 -0.00822800
v -0.00412400 0.00211900 -0.00827500
v -0.00399300 0.00188900 -0.00839300
v -0.00415500 0.00624500 -0.00820600
v 0.00265300 0.00522100 -0.00863200
v -0.00001900 0.01797600 -0.00897400
v -0.00320200 0.01307800 -0.00867300
v -0.00315200 0.01370400 -0.00873500
v -0.00331700 0.01378700 -0.00863000
v -0.00347000 0.01385100 -0.00858700
v -0.00327700 0.01392400 -0.00864500
v -0.00445400 0.01120800 -0.00818500
v -0.00460800 0.01128400 -0.00809600
v -0.00477200 0.01136600 -0.00799200
v -0.00456000 0.01141300 -0.00812800
v -0.00438300 0.01101900 -0.00808700
v -0.00122700 0.00974000 -0.00911600
v 0.00370800 0.02184100 -0.00781700
v 0.00509100 0.01492200 -0.00712600
v 0.00574500 0.00608300 -0.00664600
v 0.00603900 0.00042900 -0.00662200
v 0.00742400 0.00737100 -0.00473300
v 0.00761500 0.00739400 -0.00438200
v 0.00779000 0.00736200 -0.00401700
v 0.00693200 0.01171900 -0.00520600
v 0.00804700 0.00184200 -0.00341600
v 0.00753500 0.00769800 -0.00450700
v 0.00804100 0.00838100 -0.00229900
v -0.00432800 -0.00041900 0.00709500
v -0.00829500 0.00494700 0.00209900
v -0.00704000 -0.00238600 0.00460700
v -0.00554800 -0.00874700 0.00622500
v -0.00758500 -0.01399300 0.00301900
v -0.00290900 -0.01570000 0.00775600
v 0.00212400 -0.01837800 0.00810700
v -0.00133100 -0.00834400 0.00810600
v -0.00089400 -0.00881400 0.00818000
v -0.00075600 -0.00885900 0.00819400
v -0.00061700 -0.00890400 0.00820500
v -0.00071900 -0.00871700 0.00819300
v 0.00515700 -0.02335600 0.00707000
v -0.00445800 -0.02360300 0.00701400
v -0.00215600 -0.02814300 0.00801600
v 0.00049700 -0.02236600 0.00837000
v 0.00053500 -0.02222600 0.00836400
v 0.00039300 -0.02217600 0.00836700
v 0.00067500 -0.02227300 0.00837100
v -0.00019900 -0.01895300 0.00829900
v -0.00552000 -0.01862700 0.00608800
v 0.00006100 0.00026100 0.00814500
v 0.00009800 0.00040200 0.00814300
v 0.00024200 0.00035000 0.00813400
v 0.00015000 0.00042400 0.00810400
v -0.00004400 0.00045100 0.00814300
v 0.00568500 -0.00921900 0.00580100
v 0.00584800 -0.00930800 0.00572500
v 0.00599800 -0.00936700 0.00569400
v 0.00599300 -0.00920300 0.00572600
v 0.00560000 -0.00917100 0.00592200
v 0.00569600 -0.00905400 0.00590700
v 0.00122100 -0.00878500 0.00810500
v -0.00500100 -0.02721000 0.00660100
v 0.00465600 -0.01112200 0.00723100
v 0.00584400 -0.00897100 0.00591000
v 0.00621600 -0.00937700 0.00568100
v 0.00626000 -0.00678800 0.00546900
v 0.00414500 -0.00385300 0.00732000
v 0.00773300 0.02915400 -0.00122700
v 0.00775100 0.02918600 -0.00107900
v -0.00776400 0.04473200 0.00490600
v -0.00765200 0.04472400 0.00502300
v -0.00761000 0.04489100 0.00512600
v -0.00703900 0.04651200 0.00578000
v -0.00974000 0.05117800 -0.00287400
v -0.00768500 0.02812000 0.00386800
v -0.00351600 0.04914900 -0.00897300
v -0.00482600 0.05389100 -0.00879000
v -0.00317300 0.02665100 0.00746100
v -0.00377500 0.04285500 -0.00829900
v -0.00234700 0.01330600 0.00775500
v -0.00220900 0.04984700 0.00826300
v -0.00210700 0.04966200 0.00828000
v -0.00206500 0.04979500 0.00825500
v -0.00192700 0.04975100 0.00827000
v -0.00153400 0.04987900 0.00837700
v -0.00269400 0.04639000 0.00788900
v -0.00137900 0.03082600 0.00773200
v -0.00133900 0.03088800 0.00772600
v -0.00506400 0.05232500 0.00762600
v -0.00107900 0.03069800 0.00775000
v -0.00125400 0.03092000 0.00772500
v -0.00316000 0.04803500 -0.00907700
v -0.00301000 0.04797600 -0.00910800
v -0.00303500 0.04791100 -0.00909400
v -0.00292600 0.04800300 -0.00913000
v 0.00454200 0.02706500 0.00603700
v 0.00123600 0.02498700 0.00770400
v 0.00512500 0.04094900 0.00503600
v -0.00215800 0.02856000 -0.00861600
v 0.00592800 0.03550400 -0.00393300
v 0.00166300 0.04404000 0.00753000
v 0.00620700 0.03216600 0.00319300
v 0.00445700 0.04489400 -0.00703100
v 0.00252900 0.03173300 0.00673000
v 0.00532200 0.03308100 0.00420400
v 0.00520900 0.03314600 0.00430600
v 0.00522500 0.03328400 0.00426300
v 0.00509200 0.03341200 0.00452800
v 0.00510900 0.03320900 0.00441300
v -0.00147700 0.03093200 0.00771300
v 0.00033900 0.05151600 -0.00914700
v 0.00380000 0.05043300 0.00676500
v -0.00689900 0.03758500 0.00468200
v -0.00806800 0.02576900 -0.00443600
v -0.00683500 0.05555300 0.00693800
v -0.00681300 0.03741900 0.00475500
v -0.00678400 0.03757200 0.00478700
v -0.00675900 0.03772800 0.00482900
v -0.00611000 0.04048300 0.00588000
v 0.00620800 0.01977600 -0.00542400
v -0.00219000 0.05978900 0.00385300
v -0.00108600 0.06195500 0.00353800
v 0.00677700 0.04323300 0.00269200
v -0.00755200 0.04460500 0.00509000
v 0.00592200 0.05508600 0.00495300
v 0.00027000 0.05660400 -0.00898200
v -0.00199600 0.03714700 0.00712800
v -0.00112200 0.03450800 -0.00808700
v 0.00460500 0.05331100 -0.00752800
v 0.00452100 0.05354400 -0.00755500
v 0.00463400 0.05346300 -0.00749800
v 0.00475400 0.05344300 -0.00741500
v 0.00444000 0.05358600 -0.00758400
v -0.00883200 0.05081600 0.00395400
v -0.01015200 0.05282400 0.00032000
v 0.00349200 0.03614900 -0.00689100
v -0.00051900 0.04172000 -0.00857500
v 0.00137000 0.02578100 -0.00865300
v 0.00664700 0.02809700 -0.00456700
v 0.00427600 0.02904700 -0.00702000
v 0.00773500 0.02712200 -0.00167000
v 0.00771700 0.02816900 -0.00073700
v -0.00761400 0.00458300 -0.00499200
v -0.00664000 0.01469200 -0.00636900
v -0.00645700 0.04438900 -0.00679100
v 0.00705600 0.03292300 0.00025200
v -0.00070400 0.05895200 -0.00490600
v -0.00125700 0.06224300 -0.00323100
v -0.00878000 0.04535300 -0.00384100
v 0.00274300 0.06166300 -0.00160000
v 0.00299900 0.05809700 -0.00195300
v -0.00974500 0.04622200 0.00020200
v -0.00312800 0.01847100 -0.00869200
v -0.00778900 0.05666500 -0.00387200
v -0.00886200 0.05416700 -0.00546700
v -0.00861400 0.05551100 -0.00120000
v -0.01010300 0.05649500 -0.00106300
v -0.00436300 0.05733300 -0.00370600
v -0.00643200 0.00658300 0.00562000
v -0.00645400 0.05646800 -0.00051300
v -0.00804600 0.03398600 0.00180000
v -0.00588300 0.05969800 0.00024400
v -0.00547600 0.03242300 0.00541100
v -0.00546400 0.06197600 -0.00106100
v -0.00950600 0.05626200 0.00307900
v -0.00539900 0.01246000 0.00654200
v -0.00815800 0.05639500 0.00319400
v -0.00797100 0.02139000 0.00374900
v -0.00824100 0.03323300 -0.00206200
v -0.00895600 0.01518700 0.00020600
v -0.00906400 0.02631700 -0.00033700
v -0.00793700 0.01503300 0.00358800
v 0.00723400 0.04131400 -0.00121400
v -0.00597200 0.01893200 0.00609700
v 0.00667300 0.04433000 -0.00405100
v -0.00870400 0.03827100 -0.00139800
v -0.00039100 0.05642300 0.00474600
v 0.00622800 0.03654600 0.00265200
v -0.00512400 0.05677500 0.00266800
v 0.00720800 0.05237300 0.00222400
v -0.00431500 0.05652400 0.00639600
v 0.00140200 0.03550600 0.00673100
v 0.00412100 0.05654800 -0.00741300
v -0.00122400 0.05492900 -0.00613600
v -0.00487600 0.06120700 0.00223700
v 0.00199300 0.05544500 -0.00637300
v 0.00182300 0.05579300 -0.00462000
v -0.00649900 0.03734600 0.00486700
v 0.00682600 0.05667900 0.00097000
v -0.00864200 0.03995800 0.00187100
v -0.00805600 0.04443500 0.00440500
v 0.00142100 0.05445400 0.00801100
v -0.00082600 0.05651200 0.00784900
v 0.00653000 0.05325900 -0.00522900
v -0.00322200 0.06093700 -0.00455700
v 0.00771200 0.05189600 -0.00073300
v -0.00595300 0.02995000 -0.00676800
v -0.00093100 0.06243000 0.00110800
v 0.00184600 0.05993800 0.00260200
v -0.00869700 0.00515900 -0.00227300
v -0.00547700 0.03548100 -0.00616300
v -0.00681300 0.05659600 -0.00711500
v -0.00466600 0.05537300 -0.00586100
v -0.00858500 0.01777300 -0.00277000
v 0.00341900 0.05665000 0.00423900
v -0.00301400 0.05585700 -0.00823100
v 0.00569400 0.05633800 -0.00297000
v 0.00645900 0.00693300 0.00435900
v 0.00324500 0.01744700 0.00724800
v 0.00108200 0.00884600 0.00792500
v 0.00776200 0.02904100 -0.00102700
v 0.00776500 0.02921800 -0.00093200
v 0.00713700 0.02768500 0.00259600
v 0.00564900 0.01382800 0.00553200
v 0.00771900 0.01818600 0.00097400
v 0.00737000 0.00060600 0.00411500
v 0.00634400 0.01985000 0.00454500
v 0.00558800 -0.00078400 0.00599400
v 0.00405300 0.00659600 0.00730300
v 0.00768400 0.01322000 0.00157900
v 0.00798900 0.01553100 -0.00252700
v 0.00822600 0.00666200 0.00118100
v 0.00765900 0.02089600 -0.00157200
vn -0.11738235 0.00617977 -0.99306757
vn 0.00000000 0.00000000 0.00000000
vn 0.00000000 -0.00000000 0.00000000
vn -0.00000000 -0.00000000 -0.00000000
vn 0.00000000 0.00000000 0.00000000
vn -0.54285017 -0.00301729 -0.83982414
vn -0.30541221 -0.00394775 -0.95221205
vn -0.65440785 0.00113981 -0.75614090
vn 0.42630699 -0.83447377 -0.34916453
vn -0.12336634 0.99235764 -0.00265808
vn 0.96564479 0.22574798 0.12871672
vn 0.13413752 0.00909562 -0.99092098
vn 0.00000000 0.00000000 -0.00000000
vn -0.65583303 -0.01298071 -0.75479437
vn -0.99688862 -0.03831761 -0.06888283
vn -0.19848439 0.00384201 -0.98009652
vn -0.93713906 0.01865276 -0.34845725
vn -0.82725307 -0.06255007 -0.55833668
vn -0.91615555 -0.02620332 -0.39996548
vn -0.98896641 0.00087921 0.14813732
vn -0.92086550 0.02443765 -0.38911378
vn -0.99667575 -0.02080638 -0.07876889
vn -0.72099224 0.01713688 -0.69273120
vn -0.98305474 -0.00332821 0.18328201
vn -0.98678571 0.00255192 -0.16201067
vn 0.04972484 0.00820303 0.99872927
vn 0.98474662 -0.03161150 -0.17109882
vn 0.00000000 -0.00000000 0.00000000
vn -0.00000000 0.00000000 0.00000000
vn 0.00000000 -0.00000000 -0.00000000
vn -0.00000000 -0.00000000 0.00000000
vn -0.64752957 -0.00160917 -0.76203863
vn 0.99289553 0.04424749 -0.11045643
vn -0.79807197 -0.25279937 -0.54696765
vn 0.85699512 0.04821845 -0.51306369
vn -0.70370399 -0.69608286 0.14237047
vn 0.46035360 -0.88471776 -0.07313717
vn 0.00000000 0.00000000 0.00000000
vn 0.96666009 0.20208929 -0.15725198
vn -0.12207073 0.01710883 0.99237393
vn -0.41195998 -0.12012415 -0.90324923
vn 0.00000000 0.00000000 0.00000000
vn 0.00000000 0.00000000 -0.00000000
vn 0.00000000 -0.00000000 -0.00000000
vn 0.00000000 0.00000000 0.00000000
vn -0.20101651 -0.86252604 0.46437183
vn -0.06920401 -0.16254291 -0.98427161
vn 0.85863457 0.04286115 0.51079311
vn 0.24607330 -0.46710624 0.84927009
vn 0.92282597 -0.38242862 -0.04626633
vn -0.00000000 0.00000000 0.00000000
vn -0.81509784 0.57879759 -0.02467508
vn 0.57140301 0.82054906 0.01406585
vn 0.79518297 -0.29879535 0.52764133
vn -0.00000000 -0.00000000 0.00000000
vn -0.99924823 -0.03873943 -0.00149539
vn -0.38580241 0.92212182 0.02911769
vn 0.79375368 0.60808859 -0.01354114
vn -0.00832051 0.00284065 -0.99996135
vn 0.63281330 -0.01103665 0.77422575
vn 0.33904892 -0.01080492 -0.94070669
vn 0.16866832 -0.60596969 -0.77740062
vn -0.00000000 -0.00000000 0.00000000
vn -0.42900302 -0.81884281 -0.38138283
vn 0.64198791 0.02604507 -0.76627226
vn 0.36905039 -0.00032581 0.92940933
vn 0.56700485 -0.68867463 0.45192117
vn 0.62773549 0.02499131 -0.77802545
vn 0.60295066 -0.65350057 0.45758880
vn -0.41723237 -0.84424640 -0.33640032
vn 0.00000000 0.00000000 -0.00000000
vn 0.64734054 0.02180377 0.76188898
vn -0.82828374 0.00057162 0.56030859
vn 0.00000000 -0.00000000 0.00000000
vn -0.79322271 -0.39207745 -0.46591094
vn 0.15214818 0.95951792 -0.23701540
vn -0.63766390 0.15035703 0.75549819
vn -0.68855145 0.05030092 -0.72344089
vn -0.46903797 -0.00786491 -0.88314298
vn -0.04414371 -0.99738559 -0.05721290
vn -0.84748211 -0.01171547 0.53069466
vn 0.00000000 -0.00000000 -0.00000000
vn 0.05403805 -0.83343231 0.54997315
vn -0.19627774 0.90422406 -0.37928075
vn -0.00000000 -0.00000000 0.00000000
vn -0.95856375 0.01244286 0.28460625
vn 0.26114225 0.52504617 0.81001928
vn -0.19655081 0.00361944 0.98048696
vn 0.87159806 -0.46761485 0.14715019
vn -0.44147406 -0.89403415 -0.07618128
vn -0.00000000 0.00000000 0.00000000
vn -0.74579327 0.00471467 0.66616077
vn -0.72936875 -0.05168947 0.68216525
vn -0.66457643 -0.06663641 0.74424307
vn -0.79829472 0.11946919 0.59029878
vn -0.73721405 -0.10770826 0.66701902
vn 0.76020827 0.60209926 -0.24404889
vn -0.39945475 0.90990804 0.11181801
vn -0.00000000 -0.00000000 -0.00000000
vn -0.57383034 -0.02704490 0.81852753
vn 0.59041234 0.00366695 -0.80709344
vn 0.58794034 -0.01134416 -0.80882474
vn 0.55981480 0.02880191 -0.82811704
vn 0.64473098 0.04076106 -0.76332202
vn 0.72056497 0.06171108 -0.69063584
vn 0.69576704 0.07837427 -0.71397879
vn -0.25381226 -0.08835083 0.96320998
vn 0.51991139 0.00354203 -0.85421286
vn -0.62134448 0.68031626 -0.38871689
vn 0.44707829 0.83431564 0.32254987
vn 0.37266755 0.00944933 -0.92791681
vn 0.00000000 0.00000000 -0.00000000
vn 0.00000000 -0.00000000 -0.00000000
vn 0.25097219 0.03072047 -0.96750670
vn 0.91894818 0.01463107 -0.39410682
vn 0.00000000 -0.00000000 -0.00000000
vn 0.00000000 -0.00000000 0.00000000
vn 0.00000000 0.00000000 -0.00000000
vn 0.00000000 0.00000000 0.00000000
vn 0.38493155 0.91782939 -0.09704077
vn 0.10746642 0.06022145 0.99238316
vn -0.92816655 0.36515715 0.07188264
vn -0.00000000 -0.00000000 -0.00000000
vn -0.43064981 0.64559651 -0.63067098
vn 0.82945553 -0.01422110 -0.55839170
vn -0.00000000 -0.00000000 0.00000000
vn 0.32810482 0.81651419 0.47502822
vn 0.00000000 -0.00000000 0.00000000
vn -0.73282794 -0.02471256 -0.67996507
vn 0.68086015 -0.19315304 -0.70648521
vn 0.87814410 -0.15991475 -0.45087716
vn 0.00000000 0.00000000 0.00000000
vn 0.00000000 0.00000000 -0.00000000
vn -0.00000000 -0.00000000 0.00000000
vn 0.00000000 0.00000000 -0.00000000
vn -0.44793555 -0.05311543 0.89248669
vn -0.23880394 0.01075936 0.97100819
vn 0.08615317 -0.98750496 0.13195294
vn -0.45729910 -0.00482538 0.88929986
vn -0.09689744 0.97714163 0.18922239
vn -0.53449476 -0.67346341 -0.51064898
vn -0.68232595 -0.01130241 0.73096071
vn -0.81633273 -0.00812881 0.57752471
vn 0.98685616 0.01090798 0.16123254
vn -0.92561281 0.01236403 0.37826982
vn -0.90301463 -0.00159458 -0.42960683
vn 0.82798301 0.02090685 0.56036331
vn 0.38833228 -0.00044684 0.92151931
vn 0.79800684 -0.60137860 -0.03910059
vn -0.19774077 -0.85724810 -0.47542012
vn 0.20575454 -0.25282594 0.94538041
vn -0.91691200 -0.15264124 0.36874522
vn -0.05052682 -0.90151303 0.42979216
vn 0.28210828 -0.92570162 -0.25197507
vn -0.99652490 -0.00220953 -0.08326610
vn 0.90116133 0.02918490 0.43250030
vn 0.72090826 -0.66649045 -0.18995199
vn -0.05649255 -0.99784306 -0.03343378
vn -0.56812498 -0.54497549 -0.61663257
vn 0.17058862 -0.98532645 -0.00559592
vn 0.69681038 -0.50480058 0.50954064
vn 0.37485559 0.02284623 -0.92680167
vn -0.63761480 -0.62708009 0.44745718
vn 0.37987806 -0.62439276 0.68251472
vn 0.55999383 -0.63759854 -0.52903215
vn 0.55560228 -0.59599892 -0.57973390
vn 0.22644012 -0.39683131 -0.88952222
vn 0.10170554 -0.52133945 -0.84726688
vn -0.03661251 -0.98825683 -0.14835081
vn -0.49570908 -0.27927159 -0.82236238
vn 0.95571286 0.02482273 0.29325205
vn 0.74658078 -0.04306239 0.66389966
vn 0.66307348 0.00577391 0.74853205
vn -0.41846514 0.01958911 -0.90802158
vn -0.88618388 -0.01261620 -0.46316192
vn 0.73841507 0.02193211 -0.67398973
vn 0.72416956 0.05315373 -0.68757046
vn 0.92636100 0.05009396 -0.37329063
vn 0.99931789 0.03551883 0.01010817
vn 0.92830223 0.01469728 -0.37153595
vn -0.98637145 -0.01940459 -0.16338551
vn 0.37736307 0.01687356 -0.92591166
vn 0.38999364 -0.90394282 -0.17547748
vn -0.32763082 -0.00007895 -0.94480582
vn 0.10818737 0.00267260 -0.99412693
vn 0.60628016 -0.79487460 -0.02446914
vn -0.95975125 -0.00736161 0.28075494
vn -0.51882809 -0.01120731 0.85480513
vn -0.27751572 -0.94373886 0.17983881
vn 0.99500164 0.04066451 0.09120386
vn -0.88513931 -0.45919134 -0.07531078
vn 0.63277644 0.02569138 0.77390822
vn 0.99934748 0.02657726 0.02445955
vn -0.67142544 -0.30902318 0.67356703
vn 0.17748088 -0.00529123 0.98411002
vn 0.83565060 -0.01957783 0.54891236
vn 0.00000000 0.00000000 0.00000000
vn 0.00000000 0.00000000 0.00000000
vn 0.99121589 0.00986964 0.13188499
vn 0.91284935 0.01694444 0.40794478
vn 0.99941784 0.01156137 -0.03209853
vn 0.18918118 -0.97599450 0.10791296
vn 0.69090158 0.02594101 -0.72248326
vn 0.92766959 0.03021717 -0.37217744
vn 0.99453568 0.02906368 0.10027007
vn 0.94332006 0.06171015 0.32609678
vn 0.65667067 -0.75398989 0.01681889
vn 0.73416922 -0.58920081 0.33739883
vn -0.29800930 -0.46076939 0.83599164
vn -0.53898630 -0.83219575 -0.13016909
vn 0.27425774 -0.51223554 0.81387803
vn 0.71558055 0.05196923 -0.69659434
vn -0.00203699 -0.96788984 -0.25136647
vn 0.58990096 0.04485317 -0.80622890
vn -0.35508441 -0.69273265 -0.62772330
vn -0.45483345 -0.58948009 0.66756254
vn -0.09085855 -0.97586925 0.19855458
vn -0.57339752 -0.49458723 0.65314529
vn -0.77749104 -0.53160632 0.33600954
vn 0.94163780 0.03325503 -0.33498112
vn -0.99720434 -0.01246197 0.07367632
vn -0.72258831 -0.69106942 -0.01700548
vn -0.86798535 0.02193647 0.49610505
vn -0.64158810 0.04190192 0.76590400
vn -0.00000000 -0.00000000 0.00000000
vn 0.00000000 -0.00000000 0.00000000
vn 0.00000000 0.00000000 0.00000000
vn 0.00000000 -0.00000000 0.00000000
vn 0.00000000 0.00000000 0.00000000
vn -0.50441793 0.00310711 -0.86345405
vn 0.33322038 0.01274828 -0.94276278
vn 0.11904159 0.01241597 -0.99281164
vn -0.37926100 0.00240989 -0.92528660
vn 0.00000000 0.00000000 0.00000000
vn -0.30502525 -0.00033850 -0.95234420
vn 0.87448207 -0.40981512 -0.25948541
vn -0.44730764 -0.88346145 0.13932605
vn -0.00000000 -0.00000000 0.00000000
vn 0.00000000 -0.00000000 0.00000000
vn 0.00000000 0.00000000 0.00000000
vn 0.00000000 0.00000000 0.00000000
vn -0.48823776 -0.00573925 -0.87269178
vn -0.08766432 -0.00272297 -0.99614635
vn 0.51632753 0.01531569 -0.85625423
vn 0.58699829 0.03725138 -0.80873070
vn 0.66904877 -0.00192817 -0.74321600
vn 0.70601465 0.03268727 -0.70744248
vn 0.81964775 -0.00296700 -0.57286016
vn 0.90896366 0.07433019 -0.41019519
vn 0.92833580 0.17476552 -0.32810006
vn 0.84761727 0.02795658 -0.52987111
vn 0.94644522 0.02311230 -0.32203611
vn 0.91983856 0.07905822 -0.38424839
vn 0.99069983 0.05302019 -0.12531043
vn -0.49512637 0.02140716 0.86855720
vn -0.94701723 -0.04335101 0.31824370
vn -0.84498177 0.01363248 0.53462132
vn -0.71526838 -0.01397545 0.69871012
vn -0.91628089 -0.01419207 0.40028480
vn -0.36874891 -0.00128856 0.92952815
vn 0.25206685 0.02107575 0.96748029
vn -0.14544496 0.01338949 0.98927574
vn -0.59261133 -0.80544540 0.00833793
vn 0.55704184 -0.82604768 0.08572995
vn -0.00000000 0.00000000 0.00000000
vn 0.91069068 0.40421352 0.08516994
vn 0.52420344 0.02021650 0.85135307
vn -0.60266983 -0.00117725 0.79798978
vn -0.26787856 -0.00738923 0.96342435
vn 0.38150456 0.92413470 -0.02072035
vn -0.00401566 0.02836158 0.99958966
vn 0.00000000 0.00000000 0.00000000
vn -0.92348212 0.38239608 -0.03088702
vn -0.05372702 0.00754271 0.99852717
vn -0.73623537 -0.00266915 0.67672029
vn -0.58363603 -0.80588512 0.09958994
vn -0.69895551 0.61607973 0.36318999
vn 0.98280486 -0.17718964 0.05194656
vn 0.01863839 0.16129887 0.98672959
vn 0.00000000 0.00000000 0.00000000
vn 0.53931949 0.41870559 0.73062994
vn 0.99361831 0.03232675 -0.10806308
vn 0.20976210 0.93606552 0.28245565
vn -0.01279561 -0.98773297 -0.15562731
vn 0.85890457 0.11039227 -0.50009647
vn 0.06521737 -0.94187772 -0.32956495
vn 0.12935369 0.01287080 0.99151499
vn -0.60667265 0.00054835 0.79495157
vn 0.49418866 0.01091397 0.86928617
vn -0.00000000 0.00000000 -0.00000000
vn 0.74301528 0.03631813 0.66828833
vn 0.74099430 0.02084661 0.67118766
vn 0.45649024 0.01637694 0.88957769
vn -0.06610910 0.75894040 -0.64779553
vn 0.01249530 0.98706460 -0.15983535
vn -0.00000000 -0.00000000 0.00000000
vn 0.00000000 0.00000000 -0.00000000
vn 0.00000000 0.00000000 0.00000000
vn -0.62681334 -0.06398207 0.77653805
vn -0.96543579 -0.05666463 -0.25440687
vn -0.82429741 0.06469038 0.56244905
vn -0.24970874 -0.06208149 -0.96632884
vn -0.35507221 0.12006216 -0.92709698
vn -0.35178885 0.04164808 0.93515242
vn -0.34349281 -0.10101918 -0.93370649
vn -0.21634676 0.00460563 0.97630572
vn -0.00000000 -0.00000000 0.00000000
vn 0.76448703 0.64399934 -0.02871301
vn 0.71733279 -0.64173041 0.27132222
vn -0.31386362 0.37231939 0.87342309
vn -0.00272909 -0.01275096 0.99991498
vn -0.21351634 -0.10446028 0.97133868
vn 0.00000000 0.00000000 0.00000000
vn -0.00000000 -0.00000000 0.00000000
vn -0.38085431 0.02422508 0.92431766
vn -0.10595097 0.16161397 0.98115000
vn 0.00000000 -0.00000000 -0.00000000
vn 0.00000000 0.00000000 0.00000000
vn -0.00000000 -0.00000000 0.00000000
vn -0.00000000 -0.00000000 -0.00000000
vn 0.00000000 -0.00000000 0.00000000
vn 0.62630932 0.07832145 0.77563032
vn 0.19538797 0.03408761 0.98013345
vn 0.70693148 -0.06432761 0.70435065
vn -0.19672434 0.07773542 -0.97737236
vn 0.88947934 0.01501543 -0.45672863
vn 0.30097058 -0.07705037 0.95051562
vn 0.85625906 0.08131281 0.51010650
vn 0.59537923 -0.07239887 -0.80017621
vn 0.46072108 0.10745562 0.88101611
vn -0.00000000 0.00000000 0.00000000
vn -0.33054789 0.86790406 0.37078382
vn -0.45502124 -0.39998953 0.79559038
vn 0.70722269 -0.02390609 0.70658656
vn 0.66449328 0.62695644 -0.40666239
vn -0.00000000 -0.00000000 0.00000000
vn 0.16746112 -0.01545355 -0.98575756
vn 0.57975134 -0.03036337 0.81422752
vn -0.70290054 0.49872382 -0.50715420
vn -0.88899671 0.03856084 -0.45628709
vn -0.44495165 0.43204955 0.78444325
vn -0.52130300 -0.84843460 -0.09166200
vn 0.07897000 0.86364619 0.49787448
vn 0.00000000 0.00000000 0.00000000
vn -0.56422392 -0.12851866 0.81555767
vn 0.83048261 0.05694418 -0.55412634
vn -0.17211160 0.18514444 0.96752216
vn 0.14484525 0.68303266 0.71588144
vn 0.92974975 -0.04460130 0.36548067
vn 0.00000000 -0.00000000 -0.00000000
vn 0.70215485 0.38438607 0.59935458
vn 0.02792270 0.83454233 -0.55023578
vn -0.15786940 -0.15854086 0.97464971
vn -0.05404472 0.01810388 -0.99837439
vn 0.00000000 -0.00000000 0.00000000
vn 0.00000000 0.00000000 0.00000000
vn 0.00000000 -0.00000000 -0.00000000
vn 0.00000000 -0.00000000 -0.00000000
vn 0.57564212 0.03263155 -0.81705039
vn -0.85676651 -0.05827652 0.51240121
vn -0.99442582 -0.03343665 0.09999637
vn 0.53041627 -0.01451109 -0.84761312
vn 0.11541178 -0.07149255 -0.99074161
vn 0.23288676 0.06426219 -0.97037834
vn 0.86498718 0.07120999 -0.49671552
vn 0.56142116 0.08934921 -0.82269253
vn 0.98079908 0.07022526 -0.18193838
vn 0.99553327 0.09437802 -0.00250895
vn -0.84009511 -0.01175330 -0.54231178
vn -0.74313634 -0.00118787 -0.66913898
vn -0.68086055 -0.11913162 -0.72265937
vn 0.99417228 0.08574979 0.06533334
vn 0.16910283 0.12267827 -0.97793368
vn 0.12013149 0.85365390 -0.50679724
vn -0.89687826 -0.13330370 -0.42171021
vn 0.76599662 0.60782008 -0.20929387
vn 0.75549654 0.55170002 -0.35334411
vn -0.99334338 -0.09378582 0.06688165
vn -0.33284047 0.01466230 -0.94286915
vn -0.37874463 0.90713026 -0.18348621
vn -0.82928582 0.15614206 -0.53656750
vn 0.12109221 0.98402313 0.13051876
vn -0.59076331 0.80271163 -0.08156442
vn -0.43195930 0.53465138 -0.72633262
vn -0.72138412 -0.03905010 0.69143332
vn -0.63235093 0.77433618 -0.02314687
vn -0.94739405 -0.00883630 0.31994756
vn -0.98840425 0.14283579 0.05152643
vn -0.58515784 0.06559850 0.80826180
vn -0.72614430 0.66863376 -0.16013542
vn -0.71116332 0.61540042 0.33989565
vn -0.55233514 -0.01649553 0.83345893
vn -0.11733184 0.98798001 0.10064162
vn -0.88036528 0.00854495 0.47421932
vn -0.96256246 0.05341453 -0.26574498
vn -0.99625474 -0.00781952 0.08611243
vn -0.99891063 0.03953321 0.02479266
vn -0.88170261 -0.01286955 0.47163003
vn 0.99589997 -0.06252065 -0.06537907
vn -0.61468546 0.00261384 0.78876799
vn 0.90338061 -0.05776108 -0.42493192
vn -0.96939961 -0.10987877 -0.21952461
vn -0.01925741 0.87020423 0.49231469
vn 0.92413985 -0.00909633 0.38194607
vn -0.46908874 0.77656731 0.42059359
vn 0.94077349 0.02264611 0.33827859
vn -0.13971204 0.84152224 0.52184372
vn 0.24893362 -0.01062737 0.96846224
vn 0.35615640 0.81380244 -0.45921477
vn 0.00793487 0.99591687 -0.08992564
vn -0.62646500 0.54437524 0.55785051
vn -0.19747171 0.96425170 0.17670199
vn 0.11229822 0.81337024 -0.57080467
vn -0.69058690 -0.12234397 0.71282655
vn 0.64816121 0.75946239 0.05571282
vn -0.94679642 -0.12837809 0.29511966
vn -0.83851476 -0.09659503 0.53624845
vn 0.31943057 0.25653451 0.91222484
vn 0.02172433 0.70927584 0.70459622
vn 0.88803800 0.15444797 -0.43305235
vn -0.34697037 0.41598332 -0.84057685
vn 0.99661552 0.06678804 -0.04792568
vn -0.64915339 0.10785264 -0.75297257
vn 0.14260245 0.97493858 0.17076096
vn 0.64671304 0.52593222 0.55241067
vn -0.98595008 -0.02055815 -0.16577030
vn -0.66571830 -0.01189791 -0.74610829
vn -0.31829342 0.81293833 -0.48766851
vn 0.18457657 0.97122219 -0.15052892
vn -0.95440279 -0.01705353 -0.29803438
vn 0.37769746 0.79562769 0.47362560
vn -0.12782188 0.92971638 -0.34538242
vn 0.58572523 0.76702069 -0.26192595
vn 0.82559429 0.03967436 0.56286767
vn 0.45380402 0.02832069 0.89065136
vn 0.10238691 0.01785235 0.99458444
vn 0.00000000 -0.00000000 -0.00000000
vn 0.06712592 0.86751940 0.49285313
vn 0.91471628 0.07224800 0.39758565
vn 0.76929304 0.02485091 0.63841260
vn 0.98172476 0.02454004 0.18871747
vn 0.84262118 0.04759299 0.53639953
vn 0.81764365 0.01601023 0.57550199
vn 0.69602344 0.02326764 0.71764196
vn 0.51052613 0.01580826 0.85971691
vn 0.96403349 0.02328497 0.26475883
vn 0.97985340 0.04539848 -0.19448985
vn 0.97656046 0.05343600 0.20850482
vn 0.98366116 0.02460855 -0.17833998
f 3//3 2//2 6//6
f 4//4 6//6 3//3
f 2//2 3//3 6//6
f 5//5 3//3 6//6
f 6//6 4//4 3//3
f 3//3 5//5 6//6
f 12//12 111//111 1//1
f 1//1 7//7 8//8
f 8//8 7//7 23//23
f 12//12 231//231 111//111
f 10//10 9//9 12//12
f 11//11 12//12 9//9
f 9//9 10//10 11//11
f 12//12 11//11 10//10
f 10//10 12//12 13//13
f 10//10 13//13 12//12
f 8//8 14//14 1//1
f 19//19 181//181 187//187
f 22//22 21//21 24//24
f 187//187 15//15 19//19
f 1//1 14//14 16//16
f 6//6 16//16 14//14
f 15//15 20//20 17//17
f 23//23 25//25 8//8
f 19//19 15//15 17//17
f 14//14 18//18 6//6
f 12//12 1//1 16//16
f 25//25 23//23 17//17
f 17//17 23//23 19//19
f 22//22 14//14 21//21
f 145//145 20//20 15//15
f 23//23 32//32 19//19
f 21//21 8//8 25//25
f 21//21 14//14 8//8
f 145//145 275//275 20//20
f 23//23 7//7 184//184
f 22//22 18//18 14//14
f 25//25 17//17 20//20
f 24//24 21//21 25//25
f 25//25 20//20 259//259
f 259//259 24//24 25//25
f 137//137 26//26 195//195
f 184//184 129//129 32//32
f 150//150 34//34 41//41
f 30//30 35//35 29//29
f 30//30 29//29 35//35
f 30//30 35//35 31//31
f 31//31 35//35 30//30
f 28//28 35//35 30//30
f 35//35 28//28 30//30
f 195//195 26//26 66//66
f 47//47 174//174 59//59
f 144//144 27//27 33//33
f 27//27 35//35 33//33
f 147//147 179//179 199//199
f 33//33 35//35 115//115
f 37//37 195//195 38//38
f 37//37 36//36 195//195
f 37//37 38//38 195//195
f 195//195 36//36 39//39
f 39//39 36//36 37//37
f 195//195 39//39 37//37
f 40//40 188//188 137//137
f 146//146 78//78 34//34
f 78//78 41//41 34//34
f 137//137 195//195 40//40
f 62//62 150//150 41//41
f 42//42 168//168 43//43
f 44//44 168//168 42//42
f 44//44 42//42 168//168
f 42//42 43//43 168//168
f 168//168 42//42 45//45
f 168//168 45//45 42//42
f 62//62 41//41 47//47
f 49//49 107//107 46//46
f 169//169 49//49 46//46
f 61//61 62//62 47//47
f 269//269 188//188 40//40
f 142//142 188//188 269//269
f 107//107 194//194 46//46
f 50//50 51//51 47//47
f 51//51 50//50 47//47
f 47//47 52//52 50//50
f 53//53 50//50 52//52
f 52//52 47//47 53//53
f 53//53 47//47 50//50
f 48//48 54//54 144//144
f 174//174 47//47 41//41
f 54//54 49//49 202//202
f 55//55 47//47 56//56
f 56//56 47//47 57//57
f 55//55 56//56 47//47
f 58//58 47//47 56//56
f 56//56 57//57 58//58
f 58//58 57//57 47//47
f 155//155 146//146 34//34
f 47//47 59//59 61//61
f 49//49 54//54 60//60
f 66//66 49//49 60//60
f 60//60 54//54 48//48
f 102//102 130//130 62//62
f 61//61 102//102 62//62
f 64//64 102//102 63//63
f 64//64 63//63 102//102
f 102//102 65//65 64//64
f 67//67 102//102 64//64
f 102//102 67//67 130//130
f 102//102 67//67 65//65
f 65//65 67//67 64//64
f 130//130 67//67 102//102
f 61//61 69//69 102//102
f 102//102 69//69 61//61
f 70//70 68//68 69//69
f 69//69 68//68 102//102
f 102//102 68//68 70//70
f 69//69 102//102 70//70
f 70//70 71//71 102//102
f 70//70 102//102 71//71
f 152//152 194//194 73//73
f 75//75 74//74 78//78
f 76//76 78//78 75//75
f 74//74 75//75 78//78
f 77//77 75//75 78//78
f 78//78 76//76 77//77
f 77//77 76//76 75//75
f 146//146 77//77 78//78
f 146//146 78//78 77//77
f 73//73 80//80 79//79
f 79//79 80//80 81//81
f 81//81 73//73 79//79
f 80//80 73//73 81//81
f 82//82 81//81 73//73
f 73//73 81//81 82//82
f 174//174 41//41 78//78
f 73//73 86//86 152//152
f 83//83 84//84 86//86
f 85//85 86//86 84//84
f 87//87 84//84 83//83
f 87//87 83//83 86//86
f 84//84 86//86 85//85
f 87//87 86//86 84//84
f 89//89 40//40 88//88
f 40//40 89//89 90//90
f 90//90 89//89 88//88
f 88//88 40//40 91//91
f 88//88 91//91 40//40
f 40//40 90//90 88//88
f 269//269 40//40 195//195
f 146//146 175//175 78//78
f 175//175 146//146 155//155
f 223//223 86//86 73//73
f 100//100 73//73 194//194
f 224//224 223//223 73//73
f 93//93 73//73 92//92
f 100//100 92//92 73//73
f 93//93 92//92 100//100
f 100//100 94//94 93//93
f 100//100 224//224 94//94
f 93//93 95//95 73//73
f 224//224 73//73 95//95
f 224//224 95//95 94//94
f 94//94 95//95 93//93
f 206//206 144//144 33//33
f 96//96 72//72 97//97
f 97//97 98//98 96//96
f 98//98 97//97 72//72
f 72//72 96//96 98//98
f 72//72 98//98 99//99
f 98//98 72//72 99//99
f 194//194 107//107 100//100
f 267//267 172//172 173//173
f 61//61 103//103 102//102
f 104//104 102//102 103//103
f 101//101 103//103 61//61
f 104//104 103//103 101//101
f 102//102 35//35 130//130
f 105//105 102//102 104//104
f 102//102 105//105 35//35
f 101//101 106//106 104//104
f 35//35 106//106 101//101
f 35//35 105//105 106//106
f 106//106 105//105 104//104
f 144//144 206//206 48//48
f 60//60 48//48 192//192
f 26//26 49//49 66//66
f 185//185 7//7 1//1
f 26//26 107//107 49//49
f 162//162 101//101 61//61
f 60//60 192//192 66//66
f 185//185 1//1 182//182
f 110//110 108//108 109//109
f 109//109 108//108 101//101
f 101//101 108//108 110//110
f 109//109 101//101 110//110
f 1//1 111//111 182//182
f 100//100 107//107 137//137
f 185//185 59//59 184//184
f 162//162 61//61 59//59
f 162//162 212//212 101//101
f 110//110 112//112 101//101
f 110//110 101//101 112//112
f 212//212 35//35 101//101
f 201//201 220//220 190//190
f 114//114 59//59 185//185
f 116//116 113//113 114//114
f 114//114 116//116 117//117
f 116//116 114//114 117//117
f 118//118 196//196 119//119
f 115//115 35//35 212//212
f 118//118 119//119 196//196
f 26//26 120//120 121//121
f 121//121 120//120 122//122
f 122//122 120//120 26//26
f 121//121 122//122 26//26
f 121//121 123//123 26//26
f 121//121 26//26 123//123
f 116//116 114//114 113//113
f 116//116 114//114 126//126
f 114//114 116//116 126//126
f 115//115 124//124 125//125
f 125//125 124//124 127//127
f 115//115 125//125 127//127
f 59//59 114//114 162//162
f 127//127 124//124 115//115
f 127//127 128//128 115//115
f 137//137 107//107 26//26
f 128//128 127//127 115//115
f 133//133 132//132 131//131
f 131//131 132//132 133//133
f 133//133 131//131 134//134
f 135//135 131//131 133//133
f 134//134 131//131 133//133
f 135//135 133//133 131//131
f 35//35 131//131 130//130
f 136//136 224//224 100//100
f 100//100 137//137 136//136
f 138//138 224//224 136//136
f 136//136 139//139 138//138
f 139//139 136//136 137//137
f 224//224 138//138 139//139
f 139//139 140//140 224//224
f 139//139 137//137 140//140
f 140//140 137//137 224//224
f 131//131 35//35 27//27
f 143//143 145//145 187//187
f 150//150 158//158 34//34
f 54//54 202//202 186//186
f 191//191 34//34 158//158
f 189//189 157//157 166//166
f 189//189 166//166 46//46
f 149//149 158//158 208//208
f 189//189 46//46 194//194
f 54//54 186//186 144//144
f 168//168 46//46 166//166
f 159//159 169//169 170//170
f 170//170 225//225 159//159
f 169//169 46//46 168//168
f 49//49 169//169 202//202
f 142//142 288//288 143//143
f 142//142 269//269 288//288
f 192//192 147//147 148//148
f 150//150 62//62 153//153
f 147//147 156//156 72//72
f 156//156 147//147 199//199
f 158//158 150//150 211//211
f 150//150 153//153 211//211
f 192//192 48//48 206//206
f 211//211 153//153 151//151
f 147//147 192//192 206//206
f 152//152 155//155 191//191
f 147//147 72//72 148//148
f 153//153 62//62 154//154
f 154//154 216//216 153//153
f 216//216 154//154 163//163
f 221//221 155//155 86//86
f 221//221 86//86 223//223
f 268//268 143//143 288//288
f 268//268 145//145 143//143
f 86//86 155//155 152//152
f 130//130 154//154 62//62
f 209//209 153//153 216//216
f 216//216 218//218 209//209
f 156//156 201//201 171//171
f 165//165 157//157 207//207
f 161//161 208//208 158//158
f 161//161 158//158 211//211
f 267//267 156//156 172//172
f 162//162 177//177 212//212
f 149//149 207//207 157//157
f 166//166 157//157 165//165
f 165//165 160//160 213//213
f 178//178 212//212 177//177
f 172//172 156//156 171//171
f 207//207 164//164 217//217
f 218//218 163//163 219//219
f 214//214 162//162 114//114
f 168//168 166//166 165//165
f 148//148 72//72 267//267
f 165//165 213//213 167//167
f 175//175 174//174 78//78
f 170//170 169//169 168//168
f 267//267 72//72 156//156
f 167//167 170//170 168//168
f 168//168 165//165 167//167
f 32//32 129//129 19//19
f 215//215 167//167 213//213
f 171//171 173//173 172//172
f 215//215 170//170 167//167
f 173//173 171//171 196//196
f 129//129 184//184 174//174
f 59//59 174//174 184//184
f 175//175 129//129 174//174
f 181//181 19//19 129//129
f 147//147 206//206 179//179
f 221//221 175//175 155//155
f 182//182 214//214 185//185
f 180//180 178//178 177//177
f 180//180 177//177 214//214
f 175//175 181//181 129//129
f 203//203 176//176 182//182
f 179//179 178//178 180//180
f 178//178 115//115 212//212
f 178//178 33//33 115//115
f 163//163 154//154 183//183
f 130//130 183//183 154//154
f 131//131 183//183 130//130
f 220//220 203//203 204//204
f 186//186 183//183 131//131
f 27//27 186//186 131//131
f 183//183 222//222 163//163
f 222//222 183//183 186//186
f 184//184 32//32 23//23
f 202//202 222//222 186//186
f 7//7 185//185 184//184
f 222//222 202//202 141//141
f 203//203 220//220 176//176
f 222//222 219//219 163//163
f 144//144 186//186 27//27
f 187//187 223//223 142//142
f 188//188 142//142 223//223
f 189//189 191//191 158//158
f 155//155 34//34 191//191
f 149//149 189//189 158//158
f 152//152 191//191 189//189
f 171//171 201//201 190//190
f 176//176 180//180 214//214
f 152//152 189//189 194//194
f 204//204 193//193 220//220
f 66//66 192//192 195//195
f 199//199 179//179 180//180
f 195//195 192//192 148//148
f 197//197 119//119 196//196
f 119//119 196//196 198//198
f 196//196 119//119 198//198
f 224//224 137//137 188//188
f 157//157 189//189 149//149
f 119//119 197//197 196//196
f 201//201 199//199 180//180
f 171//171 190//190 196//196
f 196//196 190//190 193//193
f 200//200 196//196 193//193
f 180//180 176//176 220//220
f 201//201 180//180 220//220
f 196//196 200//200 173//173
f 159//159 141//141 202//202
f 159//159 202//202 169//169
f 210//210 141//141 159//159
f 142//142 143//143 187//187
f 204//204 203//203 247//247
f 205//205 204//204 252//252
f 205//205 193//193 204//204
f 199//199 201//201 156//156
f 208//208 207//207 149//149
f 165//165 207//207 160//160
f 160//160 207//207 217//217
f 206//206 33//33 179//179
f 217//217 210//210 160//160
f 209//209 151//151 153//153
f 210//210 213//213 160//160
f 151//151 164//164 211//211
f 215//215 210//210 159//159
f 210//210 215//215 213//213
f 214//214 177//177 162//162
f 161//161 211//211 164//164
f 164//164 151//151 209//209
f 214//214 182//182 176//176
f 209//209 217//217 164//164
f 185//185 214//214 114//114
f 225//225 170//170 159//159
f 159//159 170//170 215//215
f 164//164 207//207 161//161
f 208//208 161//161 207//207
f 218//218 216//216 163//163
f 218//218 217//217 209//209
f 218//218 219//219 217//217
f 210//210 219//219 222//222
f 217//217 219//219 210//210
f 203//203 182//182 111//111
f 181//181 175//175 221//221
f 179//179 33//33 178//178
f 190//190 220//220 193//193
f 223//223 224//224 188//188
f 187//187 181//181 221//221
f 223//223 187//187 221//221
f 173//173 200//200 291//291
f 15//15 187//187 145//145
f 200//200 193//193 205//205
f 141//141 210//210 222//222
f 6//6 227//227 226//226
f 6//6 228//228 226//226
f 6//6 226//226 227//227
f 370//370 379//379 233//233
f 226//226 229//229 6//6
f 226//226 6//6 229//229
f 228//228 6//6 226//226
f 230//230 16//16 6//6
f 16//16 231//231 12//12
f 232//232 364//364 244//244
f 243//243 230//230 242//242
f 235//235 234//234 233//233
f 233//233 236//236 235//235
f 235//235 233//233 234//234
f 233//233 237//237 236//236
f 236//236 237//237 235//235
f 237//237 233//233 235//235
f 240//240 239//239 242//242
f 239//239 238//238 242//242
f 240//240 242//242 239//239
f 241//241 242//242 239//239
f 239//239 242//242 238//238
f 239//239 242//242 241//241
f 231//231 243//243 232//232
f 16//16 243//243 231//231
f 233//233 242//242 370//370
f 231//231 232//232 245//245
f 244//244 245//245 232//232
f 370//370 230//230 369//369
f 242//242 233//233 243//243
f 370//370 242//242 230//230
f 325//325 232//232 379//379
f 18//18 230//230 6//6
f 369//369 230//230 18//18
f 243//243 233//233 379//379
f 244//244 346//346 245//245
f 243//243 16//16 230//230
f 245//245 246//246 231//231
f 243//243 379//379 232//232
f 246//246 247//247 231//231
f 247//247 111//111 231//231
f 249//249 252//252 248//248
f 248//248 252//252 246//246
f 250//250 252//252 249//249
f 250//250 249//249 254//254
f 246//246 252//252 247//247
f 251//251 447//447 254//254
f 448//448 252//252 254//254
f 252//252 204//204 247//247
f 205//205 252//252 448//448
f 346//346 251//251 245//245
f 248//248 246//246 251//251
f 249//249 248//248 253//253
f 253//253 248//248 251//251
f 253//253 254//254 249//249
f 251//251 254//254 253//253
f 250//250 254//254 252//252
f 203//203 111//111 247//247
f 246//246 245//245 251//251
f 255//255 306//306 385//385
f 255//255 256//256 257//257
f 385//385 256//256 255//255
f 255//255 257//257 258//258
f 257//257 22//22 24//24
f 426//426 18//18 22//22
f 426//426 369//369 18//18
f 257//257 256//256 22//22
f 259//259 258//258 24//24
f 20//20 275//275 259//259
f 257//257 24//24 258//258
f 256//256 426//426 22//22
f 274//274 262//262 260//260
f 260//260 262//262 255//255
f 261//261 274//274 195//195
f 261//261 195//195 148//148
f 258//258 260//260 255//255
f 260//260 268//268 269//269
f 260//260 275//275 268//268
f 279//279 255//255 262//262
f 279//279 262//262 287//287
f 261//261 148//148 267//267
f 264//264 262//262 265//265
f 264//264 265//265 262//262
f 263//263 262//262 264//264
f 262//262 263//263 266//266
f 266//266 263//263 264//264
f 262//262 266//266 264//264
f 265//265 262//262 287//287
f 262//262 265//265 287//287
f 274//274 269//269 195//195
f 258//258 275//275 260//260
f 287//287 262//262 274//274
f 274//274 270//270 271//271
f 271//271 272//272 274//274
f 271//271 274//274 272//272
f 271//271 270//270 273//273
f 273//273 270//270 274//274
f 271//271 273//273 274//274
f 279//279 306//306 255//255
f 274//274 261//261 287//287
f 279//279 276//276 277//277
f 277//277 276//276 278//278
f 278//278 276//276 279//279
f 277//277 278//278 279//279
f 277//277 280//280 279//279
f 277//277 279//279 280//280
f 260//260 269//269 274//274
f 293//293 279//279 287//287
f 282//282 291//291 283//283
f 282//282 283//283 284//284
f 284//284 283//283 291//291
f 282//282 281//281 291//291
f 281//281 282//282 291//291
f 284//284 291//291 282//282
f 285//285 291//291 281//281
f 281//281 286//286 285//285
f 291//291 285//285 286//286
f 286//286 281//281 291//291
f 268//268 288//288 269//269
f 268//268 275//275 145//145
f 173//173 261//261 267//267
f 258//258 259//259 275//275
f 261//261 173//173 289//289
f 289//289 287//287 261//261
f 289//289 293//293 287//287
f 289//289 173//173 291//291
f 445//445 293//293 444//444
f 291//291 286//286 290//290
f 286//286 291//291 290//290
f 291//291 200//200 292//292
f 293//293 289//289 292//292
f 293//293 292//292 444//444
f 289//289 291//291 292//292
f 444//444 292//292 442//442
f 205//205 442//442 200//200
f 292//292 200//200 442//442
f 326//326 368//368 365//365
f 294//294 367//367 368//368
f 294//294 295//295 367//367
f 295//295 294//294 368//368
f 372//372 368//368 326//326
f 417//417 360//360 416//416
f 299//299 360//360 417//417
f 417//417 296//296 297//297
f 297//297 298//298 417//417
f 417//417 298//298 297//297
f 392//392 385//385 306//306
f 300//300 375//375 378//378
f 299//299 312//312 315//315
f 300//300 381//381 375//375
f 381//381 303//303 371//371
f 302//302 371//371 303//303
f 301//301 304//304 389//389
f 303//303 432//432 352//352
f 299//299 315//315 360//360
f 301//301 394//394 400//400
f 304//304 301//301 400//400
f 360//360 315//315 341//341
f 435//435 322//322 323//323
f 304//304 400//400 306//306
f 307//307 312//312 311//311
f 311//311 308//308 309//309
f 309//309 308//308 310//310
f 310//310 308//308 311//311
f 309//309 307//307 311//311
f 311//311 312//312 307//307
f 310//310 311//311 309//309
f 309//309 311//311 307//307
f 323//323 304//304 306//306
f 323//323 306//306 436//436
f 315//315 312//312 311//311
f 362//362 363//363 329//329
f 316//316 389//389 304//304
f 316//316 314//314 313//313
f 314//314 316//316 313//313
f 316//316 304//304 323//323
f 418//418 315//315 311//311
f 314//314 316//316 317//317
f 316//316 314//314 317//317
f 318//318 305//305 302//302
f 319//319 302//302 320//320
f 302//302 319//319 320//320
f 302//302 319//319 321//321
f 319//319 302//302 321//321
f 337//337 363//363 302//302
f 363//363 305//305 302//302
f 302//302 305//305 318//318
f 318//318 319//319 302//302
f 319//319 318//318 302//302
f 302//302 303//303 337//337
f 322//322 439//439 328//328
f 330//330 323//323 322//322
f 316//316 323//323 330//330
f 408//408 316//316 330//330
f 371//371 427//427 402//402
f 340//340 423//423 370//370
f 337//337 329//329 363//363
f 439//439 372//372 328//328
f 338//338 324//324 406//406
f 338//338 327//327 324//324
f 330//330 328//328 334//334
f 322//322 328//328 330//330
f 379//379 370//370 423//423
f 334//334 331//331 332//332
f 333//333 332//332 334//334
f 331//331 334//334 332//332
f 335//335 334//334 332//332
f 335//335 332//332 333//333
f 333//333 334//334 335//335
f 334//334 408//408 330//330
f 379//379 423//423 325//325
f 327//327 311//311 312//312
f 311//311 327//327 338//338
f 311//311 338//338 418//418
f 314//314 336//336 316//316
f 353//353 389//389 408//408
f 408//408 389//389 316//316
f 314//314 316//316 336//336
f 389//389 353//353 414//414
f 371//371 302//302 305//305
f 339//339 414//414 342//342
f 342//342 343//343 339//339
f 343//343 342//342 414//414
f 414//414 339//339 343//343
f 343//343 344//344 414//414
f 414//414 344//344 343//343
f 414//414 353//353 345//345
f 346//346 244//244 366//366
f 325//325 364//364 232//232
f 345//345 417//417 414//414
f 425//425 347//347 403//403
f 417//417 297//297 296//296
f 345//345 299//299 417//417
f 350//350 297//297 417//417
f 350//350 417//417 297//297
f 338//338 406//406 351//351
f 366//366 365//365 346//346
f 338//338 351//351 418//418
f 406//406 324//324 349//349
f 406//406 349//349 422//422
f 353//353 312//312 345//345
f 312//312 299//299 345//345
f 352//352 337//337 303//303
f 364//364 325//325 354//354
f 359//359 329//329 337//337
f 407//407 341//341 315//315
f 419//419 315//315 418//418
f 357//357 355//355 359//359
f 355//355 357//357 359//359
f 357//357 359//359 356//356
f 358//358 359//359 357//357
f 356//356 359//359 357//357
f 359//359 358//358 357//357
f 352//352 359//359 337//337
f 359//359 352//352 409//409
f 401//401 329//329 420//420
f 423//423 427//427 325//325
f 329//329 359//359 420//420
f 305//305 363//363 354//354
f 371//371 305//305 427//427
f 427//427 305//305 354//354
f 312//312 353//353 327//327
f 360//360 361//361 378//378
f 408//408 327//327 353//353
f 408//408 324//324 327//327
f 366//366 244//244 364//364
f 364//364 354//354 366//366
f 366//366 362//362 365//365
f 368//368 367//367 365//365
f 362//362 326//326 365//365
f 354//354 363//363 362//362
f 426//426 370//370 369//369
f 430//430 370//370 426//426
f 422//422 420//420 415//415
f 381//381 371//371 375//375
f 415//415 406//406 422//422
f 421//421 374//374 373//373
f 374//374 376//376 373//373
f 360//360 378//378 416//416
f 300//300 378//378 361//361
f 428//428 303//303 381//381
f 428//428 432//432 303//303
f 397//397 395//395 340//340
f 383//383 381//381 300//300
f 428//428 381//381 380//380
f 383//383 380//380 381//381
f 395//395 397//397 387//387
f 340//340 430//430 397//397
f 380//380 384//384 429//429
f 384//384 380//380 386//386
f 256//256 398//398 396//396
f 361//361 383//383 300//300
f 380//380 383//383 382//382
f 393//393 386//386 382//382
f 301//301 387//387 397//397
f 391//391 383//383 361//361
f 383//383 393//393 382//382
f 391//391 393//393 383//383
f 389//389 387//387 301//301
f 384//384 386//386 388//388
f 390//390 384//384 388//388
f 385//385 398//398 256//256
f 391//391 361//361 360//360
f 400//400 398//398 392//392
f 341//341 391//391 360//360
f 393//393 391//391 341//341
f 405//405 411//411 388//388
f 411//411 390//390 388//388
f 329//329 326//326 362//362
f 329//329 401//401 326//326
f 398//398 394//394 396//396
f 399//399 326//326 401//401
f 402//402 427//427 395//395
f 398//398 400//400 394//394
f 394//394 397//397 396//396
f 396//396 397//397 430//430
f 301//301 397//397 394//394
f 375//375 371//371 402//402
f 414//414 387//387 389//389
f 416//416 395//395 387//387
f 400//400 392//392 306//306
f 416//416 402//402 395//395
f 349//349 404//404 399//399
f 414//414 416//416 387//387
f 405//405 388//388 386//386
f 425//425 431//431 377//377
f 349//349 399//399 422//422
f 431//431 425//425 403//403
f 404//404 328//328 372//372
f 403//403 347//347 405//405
f 378//378 375//375 402//402
f 341//341 407//407 393//393
f 404//404 372//372 399//399
f 416//416 378//378 402//402
f 405//405 407//407 403//403
f 410//410 432//432 429//429
f 408//408 334//334 324//324
f 328//328 404//404 334//334
f 411//411 405//405 347//347
f 412//412 409//409 352//352
f 432//432 410//410 352//352
f 348//348 411//411 347//347
f 348//348 424//424 411//411
f 384//384 413//413 410//410
f 349//349 324//324 404//404
f 420//420 359//359 409//409
f 413//413 412//412 410//410
f 429//429 384//384 410//410
f 395//395 423//423 340//340
f 421//421 373//373 384//384
f 427//427 423//423 395//395
f 373//373 413//413 384//384
f 351//351 406//406 415//415
f 416//416 414//414 417//417
f 431//431 351//351 415//415
f 377//377 413//413 373//373
f 373//373 376//376 377//377
f 418//418 351//351 431//431
f 419//419 418//418 431//431
f 419//419 407//407 315//315
f 384//384 390//390 421//421
f 374//374 421//421 390//390
f 422//422 399//399 401//401
f 390//390 424//424 374//374
f 401//401 420//420 422//422
f 390//390 411//411 424//424
f 325//325 427//427 354//354
f 425//425 377//377 376//376
f 376//376 374//374 424//424
f 425//425 376//376 424//424
f 348//348 425//425 424//424
f 425//425 348//348 347//347
f 426//426 256//256 396//396
f 430//430 426//426 396//396
f 429//429 432//432 428//428
f 366//366 354//354 362//362
f 386//386 393//393 405//405
f 380//380 382//382 386//386
f 380//380 429//429 428//428
f 407//407 405//405 393//393
f 430//430 340//340 370//370
f 385//385 392//392 398//398
f 372//372 326//326 399//399
f 419//419 403//403 407//407
f 404//404 324//324 334//334
f 431//431 403//403 419//419
f 410//410 412//412 352//352
f 413//413 433//433 412//412
f 412//412 433//433 409//409
f 433//433 413//413 377//377
f 433//433 420//420 409//409
f 420//420 433//433 415//415
f 415//415 433//433 431//431
f 431//431 433//433 377//377
f 293//293 436//436 279//279
f 449//449 346//346 367//367
f 367//367 346//346 365//365
f 441//441 449//449 368//368
f 441//441 439//439 443//443
f 368//368 449//449 367//367
f 441//441 368//368 439//439
f 443//443 439//439 322//322
f 279//279 436//436 306//306
f 436//436 435//435 323//323
f 437//437 367//367 295//295
f 295//295 368//368 438//438
f 367//367 438//438 368//368
f 435//435 440//440 443//443
f 322//322 435//435 443//443
f 441//441 446//446 447//447
f 440//440 435//435 445//445
f 437//437 295//295 367//367
f 295//295 438//438 367//367
f 442//442 205//205 448//448
f 446//446 443//443 440//440
f 440//440 448//448 446//446
f 445//445 436//436 293//293
f 439//439 368//368 372//372
f 444//444 434//434 445//445
f 443//443 446//446 441//441
f 447//447 346//346 449//449
f 436//436 445//445 435//435
f 446//446 254//254 447//447
f 440//440 445//445 434//434
f 447//447 251//251 346//346
f 448//448 434//434 442//442
f 448//448 254//254 446//446
f 434//434 448//448 440//440
f 442//442 434//434 444//444
f 441//441 447//447 449//449

