# https://github.com/mikedh/trimesh
v -0.04724700 -0.02848400 -0.00971800
v -0.02745100 -0.05932400 -0.02068100
v -0.00936500 -0.02870100 -0.02213800
v -0.01118700 -0.01154200 -0.02217900
v -0.03882700 -0.04225600 0.01056300
v -0.02605200 -0.05068300 -0.02117400
v -0.05080700 -0.02066800 -0.01247000
v -0.03449700 -0.04731500 -0.02013400
v -0.06130000 0.00440900 -0.02188200
v -0.04288800 -0.03105000 -0.02047200
v -0.05168000 -0.01310300 -0.02129600
v -0.03388600 -0.02938500 -0.01967500
v -0.03131700 -0.00887700 -0.02009100
v -0.02385100 -0.05862500 -0.00081200
v -0.03217800 -0.05825300 -0.00914100
v 0.01132000 -0.03942900 -0.01933000
v 0.01690800 -0.01103100 -0.02232000
v 0.04808500 -0.01502100 -0.02122300
v 0.01243200 -0.02733300 -0.02152000
v -0.00987800 -0.05128100 0.01304500
v 0.04260500 -0.02203000 -0.01771100
v -0.01493600 -0.05323200 -0.02088200
v 0.03376700 -0.02728600 -0.01652600
v 0.02501000 -0.03216600 -0.01938400
v 0.00756300 -0.04209200 -0.00826000
v 0.02790500 -0.03116200 0.01250700
v 0.05231300 -0.01795000 0.01394300
v 0.01751100 -0.03683900 0.01365000
v 0.02121200 -0.03451000 0.01414600
v 0.04542500 -0.02086100 0.01522200
v -0.01801900 0.01401300 -0.02165200
v 0.02089100 0.01337900 -0.02233900
v 0.00982800 0.05754100 -0.01984500
v 0.05457900 -0.00733100 0.01591700
v 0.06653100 -0.01014900 0.01505200
v 0.05819000 0.01083200 -0.00711100
v 0.01905400 0.03818400 -0.02153200
v 0.06145800 -0.00366700 -0.01916500
v 0.05504000 0.01467400 0.01169800
v 0.04726400 -0.00602600 -0.02160000
v 0.02565800 0.03135600 -0.02151200
v 0.06678900 -0.00784100 -0.01497700
v 0.04066600 0.01699900 -0.02067600
v 0.05811700 0.00779200 -0.01631400
v 0.04996200 0.02556900 -0.00976300
v 0.05162600 0.01225400 -0.01903300
v 0.02754500 0.06612100 -0.01872000
v 0.05965600 -0.00951600 -0.02045900
v 0.06429200 -0.01127400 0.01065000
v 0.06750900 -0.00637700 -0.00232500
v 0.04892000 0.02776000 0.00424300
v 0.04389800 0.03458800 -0.01811700
v 0.06702200 -0.00770000 0.01018700
v -0.06717700 0.01850500 -0.00547000
v -0.04944600 -0.02332500 0.00362200
v -0.06032100 -0.00276800 -0.01031700
v -0.04443300 -0.03117800 0.01084400
v -0.06339300 0.02007300 -0.02181800
v -0.06829000 0.01704700 -0.02014600
v -0.02844300 -0.06042000 0.01229200
v -0.03935000 -0.03645400 0.01181700
v -0.05569700 0.02557400 0.01093800
v -0.03126100 -0.04181300 0.01270200
v -0.04742100 -0.02395400 0.01158600
v -0.06978500 0.01744100 0.01051300
v -0.03594500 -0.01461700 0.01326500
v -0.06081900 -0.00174100 0.00056500
v -0.05356600 -0.01366300 0.01103400
v -0.06596800 0.01013700 0.01090400
v -0.04291800 0.01464700 0.01224300
v -0.01590400 -0.02391100 0.01418300
v -0.06907800 0.01391400 -0.01001500
v 0.00421100 -0.00698600 0.01520000
v 0.00477800 -0.02158600 0.01463000
v -0.01314100 0.03314000 -0.02112700
v -0.04929200 0.02102700 -0.02141200
v -0.03742300 0.02439000 -0.02078800
v -0.02401600 0.04071400 -0.02033900
v -0.04741000 0.02873600 -0.02072300
v -0.03540900 0.03634700 0.01144600
v 0.00479600 0.05545300 -0.00393700
v -0.04828300 0.02901800 -0.00048300
v -0.01431700 0.04649800 0.00392900
v -0.01500700 0.00658500 0.01449500
v -0.04621100 0.02913000 0.01109900
v -0.00239600 0.03104400 0.01472300
v -0.02024300 0.04362500 0.01247900
v 0.00994800 0.05969700 0.01333700
v 0.04373400 0.03587400 0.01173000
v 0.02282200 0.02394300 0.01593700
v 0.03742800 0.05014100 -0.00468200
v 0.03451700 0.05116500 0.01471600
v 0.04364000 0.03244800 0.01538000
v 0.06061200 0.00201300 0.01586900
v 0.01905300 0.05737200 0.01474500
v 0.01753000 0.06350100 0.01405300
v 0.02899200 0.06583600 -0.00497500
v 0.02633100 0.06764400 0.01386200
v 0.02553400 0.04984900 0.01538200
v 0.03324200 0.05615700 0.00849000
v 0.02327000 0.06368700 -0.01979300
v 0.02366300 0.06474100 0.00194000
vn -0.88281725 -0.45831635 -0.10285828
vn -0.17359888 -0.76172342 -0.62421219
vn -0.00597875 -0.02914857 -0.99955721
vn -0.05228724 0.00144779 -0.99863104
vn -0.70718875 -0.38206682 0.59490253
vn -0.06469355 -0.02775910 -0.99751901
vn -0.87740596 -0.44665103 -0.17510468
vn -0.58390460 -0.27332690 -0.76442647
vn -0.54096084 -0.28642918 -0.79077158
vn -0.50863789 -0.29115385 -0.81025733
vn -0.47980778 -0.29235309 -0.82723283
vn -0.01701567 0.00804178 -0.99982288
vn -0.02407692 -0.01489858 -0.99959909
vn 0.28234375 -0.95865311 -0.03558397
vn -0.60456803 -0.79420169 -0.06116509
vn 0.37995494 -0.67367786 -0.63387096
vn 0.01560692 -0.02497347 -0.99956628
vn 0.20492073 -0.34702631 -0.91519410
vn 0.06459058 -0.11726529 -0.99099794
vn 0.30573509 -0.64812942 0.69746276
vn 0.41448626 -0.78468853 -0.46093931
vn 0.32102065 -0.63864304 -0.69934312
vn 0.51369712 -0.83691388 -0.18891910
vn 0.37180945 -0.68571261 -0.62574432
vn 0.47066396 -0.88193186 -0.02591568
vn 0.48087414 -0.87248119 0.08681382
vn 0.43363396 -0.70802378 0.55737234
vn 0.31335336 -0.67419955 0.66877847
vn 0.27079602 -0.54687325 0.79221156
vn 0.25498320 -0.49886709 0.82832071
vn -0.04095705 0.00849163 -0.99912482
vn 0.01583079 0.02015585 -0.99967151
vn -0.30867422 0.66463508 -0.68042666
vn 0.03339282 -0.07611212 0.99653995
vn 0.74774019 -0.34518852 0.56721203
vn 0.87885481 0.47104004 -0.07573308
vn 0.01443933 0.05401838 -0.99843554
vn 0.51252045 0.20291752 -0.83435440
vn 0.86131216 0.46654649 0.20118585
vn 0.08592134 0.02330759 -0.99602926
vn 0.08203569 0.05355126 -0.99518963
vn 0.89739496 -0.24774546 -0.36510885
vn 0.15999905 0.09040087 -0.98296896
vn 0.76565091 0.42067538 -0.48663222
vn 0.88046584 0.46686189 -0.08258257
vn 0.34909342 0.17884250 -0.91986366
vn 0.22662991 0.82561402 -0.51672080
vn 0.42467157 -0.33320485 -0.84180080
vn 0.62004849 -0.78133133 -0.07114230
vn 0.99997545 -0.00694684 0.00091345
vn 0.88090274 0.47040209 0.05227076
vn 0.66730760 0.34238984 -0.66141497
vn 0.99694878 -0.04280599 0.06527470
vn -0.70872278 0.70348957 -0.05305132
vn -0.88265287 -0.46027436 0.09524397
vn -0.88317138 -0.45894069 -0.09685950
vn -0.74659611 -0.40167237 0.53033344
vn -0.39335527 0.56109069 -0.72831921
vn -0.82933443 0.24120855 -0.50400678
vn -0.23310973 -0.77682031 0.58498723
vn -0.28339891 -0.17084078 0.94366227
vn -0.34699201 0.66433379 0.66200994
vn -0.13524343 -0.06618748 0.98859923
vn -0.60099620 -0.28707298 0.74591734
vn -0.79503787 0.25364819 0.55097857
vn -0.08423041 -0.01923720 0.99626059
vn -0.88836954 -0.45685179 0.04567272
vn -0.64566257 -0.32967097 0.68879380
vn -0.63937659 -0.29277562 0.71097117
vn -0.06813461 0.04884194 0.99647987
vn -0.03846265 -0.03082004 0.99878464
vn -0.99343069 -0.10038528 -0.05493860
vn -0.02549194 -0.02109228 0.99945249
vn -0.00811777 -0.04607441 0.99890503
vn -0.02310341 0.05141885 -0.99840990
vn 0.03669307 0.03701910 -0.99864068
vn 0.00254622 0.01885212 -0.99981904
vn -0.32171752 0.64686659 -0.69141989
vn -0.30603538 0.65291906 -0.69284850
vn -0.38620205 0.66390888 0.64036940
vn -0.43790693 0.89747238 -0.05273376
vn -0.45996626 0.88786394 -0.01134348
vn -0.45380791 0.88946929 -0.05387734
vn -0.05573655 0.00969120 0.99839848
vn -0.34014915 0.59921668 0.72473300
vn -0.06345287 0.04325792 0.99704688
vn -0.35527790 0.64129869 0.68008353
vn -0.38506127 0.69279388 0.60972491
vn 0.85592677 0.45365580 0.24816482
vn -0.01494030 0.01101983 0.99982766
vn 0.88387428 0.46738619 -0.01778771
vn 0.56786357 0.33596750 0.75143649
vn 0.48180459 0.26319379 0.83581898
vn 0.56317707 0.27822615 0.77808855
vn -0.05064818 0.07955645 0.99554283
vn -0.35523829 0.69332286 0.62698419
vn 0.42325473 0.90537836 -0.03384470
vn 0.21273448 0.81761118 0.53502897
vn 0.01300753 0.06989533 0.99746952
vn 0.87592901 0.46785541 0.11772716
vn -0.19883890 0.65648256 -0.72766321
vn -0.38878693 0.91590339 -0.09982834
f 8//8 6//6 2//2
f 22//22 2//2 6//6
f 14//14 15//15 2//2
f 4//4 12//12 13//13
f 14//14 2//2 22//22
f 6//6 3//3 22//22
f 8//8 12//12 6//6
f 5//5 15//15 60//60
f 6//6 12//12 4//4
f 19//19 22//22 3//3
f 7//7 9//9 11//11
f 6//6 4//4 3//3
f 14//14 60//60 15//15
f 67//67 7//7 1//1
f 60//60 14//14 20//20
f 56//56 9//9 7//7
f 59//59 9//9 56//56
f 3//3 4//4 17//17
f 10//10 8//8 1//1
f 1//1 8//8 15//15
f 10//10 1//1 7//7
f 11//11 9//9 76//76
f 11//11 10//10 7//7
f 5//5 57//57 15//15
f 8//8 10//10 12//12
f 15//15 8//8 2//2
f 10//10 11//11 12//12
f 12//12 11//11 13//13
f 13//13 11//11 77//77
f 24//24 16//16 19//19
f 29//29 26//26 30//30
f 25//25 14//14 22//22
f 16//16 24//24 25//25
f 23//23 18//18 21//21
f 18//18 24//24 19//19
f 20//20 14//14 25//25
f 22//22 19//19 16//16
f 74//74 20//20 28//28
f 23//23 24//24 18//18
f 16//16 25//25 22//22
f 19//19 17//17 18//18
f 24//24 26//26 25//25
f 19//19 3//3 17//17
f 27//27 23//23 49//49
f 27//27 26//26 23//23
f 27//27 30//30 26//26
f 23//23 21//21 49//49
f 25//25 26//26 28//28
f 28//28 20//20 25//25
f 29//29 74//74 28//28
f 29//29 28//28 26//26
f 27//27 49//49 35//35
f 34//34 30//30 27//27
f 34//34 27//27 35//35
f 23//23 26//26 24//24
f 77//77 11//11 76//76
f 13//13 31//31 4//4
f 31//31 13//13 77//77
f 75//75 78//78 33//33
f 32//32 4//4 31//31
f 75//75 32//32 31//31
f 75//75 31//31 77//77
f 75//75 33//33 37//37
f 32//32 75//75 37//37
f 101//101 37//37 33//33
f 40//40 48//48 18//18
f 34//34 35//35 94//94
f 32//32 37//37 41//41
f 40//40 17//17 32//32
f 48//48 40//40 38//38
f 40//40 18//18 17//17
f 44//44 42//42 38//38
f 41//41 40//40 32//32
f 39//39 50//50 51//51
f 48//48 38//38 42//42
f 52//52 44//44 46//46
f 44//44 38//38 46//46
f 41//41 43//43 40//40
f 38//38 40//40 43//43
f 52//52 46//46 43//43
f 52//52 43//43 47//47
f 49//49 42//42 50//50
f 46//46 38//38 43//43
f 45//45 44//44 52//52
f 4//4 32//32 17//17
f 43//43 41//41 47//47
f 49//49 21//21 42//42
f 36//36 45//45 51//51
f 91//91 52//52 47//47
f 45//45 91//91 51//51
f 18//18 48//48 21//21
f 48//48 42//42 21//21
f 41//41 37//37 101//101
f 101//101 47//47 41//41
f 50//50 42//42 36//36
f 91//91 47//47 97//97
f 94//94 35//35 53//53
f 45//45 52//52 91//91
f 39//39 53//53 50//50
f 94//94 53//53 39//39
f 42//42 44//44 36//36
f 44//44 45//45 36//36
f 51//51 50//50 36//36
f 49//49 50//50 53//53
f 49//49 53//53 35//35
f 59//59 54//54 58//58
f 58//58 54//54 62//62
f 57//57 55//55 15//15
f 55//55 1//1 15//15
f 5//5 61//61 57//57
f 56//56 72//72 59//59
f 57//57 61//61 64//64
f 9//9 59//59 58//58
f 67//67 1//1 55//55
f 63//63 5//5 60//60
f 67//67 72//72 56//56
f 71//71 84//84 66//66
f 69//69 72//72 67//67
f 57//57 64//64 55//55
f 61//61 5//5 63//63
f 73//73 84//84 71//71
f 90//90 84//84 73//73
f 68//68 67//67 55//55
f 68//68 55//55 64//64
f 63//63 60//60 20//20
f 20//20 71//71 63//63
f 69//69 65//65 72//72
f 61//61 63//63 64//64
f 66//66 64//64 63//63
f 67//67 56//56 7//7
f 69//69 67//67 68//68
f 66//66 68//68 64//64
f 66//66 69//69 68//68
f 70//70 65//65 69//69
f 69//69 66//66 84//84
f 71//71 66//66 63//63
f 65//65 70//70 62//62
f 70//70 69//69 84//84
f 86//86 70//70 84//84
f 86//86 85//85 70//70
f 54//54 72//72 65//65
f 62//62 54//54 65//65
f 54//54 59//59 72//72
f 73//73 29//29 30//30
f 20//20 74//74 71//71
f 71//71 74//74 73//73
f 34//34 73//73 30//30
f 29//29 73//73 74//74
f 9//9 58//58 76//76
f 79//79 76//76 58//58
f 79//79 82//82 78//78
f 85//85 86//86 80//80
f 82//82 81//81 78//78
f 76//76 79//79 77//77
f 79//79 78//78 77//77
f 81//81 33//33 78//78
f 82//82 79//79 58//58
f 62//62 82//82 58//58
f 87//87 80//80 86//86
f 80//80 83//83 82//82
f 82//82 83//83 81//81
f 83//83 87//87 88//88
f 87//87 86//86 88//88
f 85//85 82//82 62//62
f 85//85 80//80 82//82
f 78//78 75//75 77//77
f 62//62 70//70 85//85
f 33//33 81//81 101//101
f 88//88 81//81 83//83
f 87//87 83//83 80//80
f 86//86 95//95 88//88
f 86//86 84//84 90//90
f 91//91 89//89 51//51
f 34//34 90//90 73//73
f 94//94 93//93 90//90
f 90//90 93//93 99//99
f 100//100 89//89 91//91
f 92//92 89//89 100//100
f 92//92 93//93 89//89
f 93//93 92//92 99//99
f 95//95 86//86 99//99
f 94//94 90//90 34//34
f 88//88 95//95 96//96
f 89//89 39//39 51//51
f 86//86 90//90 99//99
f 93//93 39//39 89//89
f 93//93 94//94 39//39
f 92//92 95//95 99//99
f 100//100 98//98 92//92
f 102//102 81//81 88//88
f 98//98 96//96 95//95
f 95//95 92//92 98//98
f 101//101 81//81 102//102
f 102//102 97//97 101//101
f 88//88 96//96 102//102
f 100//100 91//91 97//97
f 97//97 98//98 100//100
f 98//98 97//97 102//102
f 97//97 47//47 101//101
f 96//96 98//98 102//102

