# https://github.com/mikedh/trimesh
v -0.02579000 -0.07764000 0.00818600
v -0.01299300 -0.09232500 -0.01295200
v -0.02735900 -0.06518600 -0.01196700
v -0.01615300 -0.08195000 -0.01464100
v -0.00847400 -0.06941200 -0.01493500
v -0.02037800 0.00184900 -0.01460700
v -0.01528600 -0.10147200 -0.00680100
v -0.01847400 -0.09689700 0.00278000
v -0.03037000 -0.06545200 0.00805700
v -0.02426800 -0.07301100 0.01086700
v -0.03010500 -0.07172700 -0.00557400
v -0.02248400 -0.08628700 -0.00942000
v -0.02832400 -0.08056100 -0.00335600
v -0.03518100 -0.04986900 -0.00015600
v -0.01508000 -0.05889000 -0.01636600
v -0.02094800 -0.05716500 -0.01689600
v -0.02886800 -0.04062400 -0.01325200
v -0.02611200 -0.02434100 -0.01495300
v -0.03269500 -0.04884800 -0.00755700
v -0.03567200 -0.03013200 0.00059300
v -0.03188900 -0.02900500 -0.00867000
v -0.02253100 -0.06970700 -0.01526000
v -0.00832400 -0.04794400 -0.01440900
v -0.03157200 -0.07036000 0.00097100
v 0.00280700 -0.02172300 0.00147100
v -0.00952500 -0.02380900 -0.01448200
v -0.00245000 -0.04363400 -0.01094900
v -0.01286300 -0.00909800 -0.01556000
v 0.00034800 -0.03932500 -0.00250700
v -0.00145600 -0.02800800 -0.01010400
v -0.02556200 -0.03908800 -0.01616600
v -0.00239100 -0.09553200 -0.00670600
v -0.00698100 -0.09720200 -0.01061400
v 0.00043000 -0.07164100 -0.00404800
v -0.00175400 -0.07187800 -0.01117100
v -0.00589800 -0.08602900 0.00738700
v -0.00500500 -0.09932100 -0.00042200
v -0.01056900 -0.07239000 0.01307300
v 0.00077500 -0.07341800 0.00157100
v -0.00078000 -0.08905300 -0.00094300
v -0.01393800 -0.08250600 0.01044900
v -0.00958100 -0.09671800 0.00506100
v -0.00245900 -0.07494600 0.00715500
v 0.00027200 -0.04581900 0.00464100
v -0.00263400 -0.00108300 -0.01306400
v 0.00286900 -0.00682600 -0.00890200
v 0.00382600 0.00148100 -0.01007100
v 0.01009900 0.01867000 -0.01085400
v 0.01850900 0.03181300 -0.01074200
v -0.01922200 -0.00911700 -0.01624300
v 0.00752000 0.00436600 -0.00529700
v -0.00245800 0.02703500 -0.01616900
v 0.00166400 0.02274100 -0.01521600
v 0.01564800 0.04259200 -0.01541700
v 0.03469200 0.05465900 -0.01469300
v 0.02706800 0.05594800 -0.01642200
v 0.05494400 0.07040700 -0.01442600
v 0.07254600 0.06619400 -0.01456600
v 0.06939300 0.07041100 -0.01674900
v 0.07118800 0.07671200 -0.01113800
v -0.03093500 -0.04301000 0.01345900
v -0.03363900 -0.02263500 0.00699400
v -0.01784100 -0.07197600 0.01279100
v -0.02847100 -0.01116300 -0.00940500
v -0.03072800 -0.00441600 -0.00238300
v -0.03465000 -0.04244800 0.00611200
v -0.02053400 -0.03999500 0.01715800
v -0.02896500 0.00712700 0.00157400
v -0.01997900 -0.00233400 0.01806100
v -0.01183800 -0.04227800 0.01731900
v -0.02902700 -0.02205000 0.01504900
v -0.02577300 -0.04059900 0.01617800
v -0.01603400 -0.01310500 0.01865700
v -0.01087600 -0.02694000 0.01853100
v -0.02989000 -0.00355700 0.00933800
v -0.03431500 -0.01785700 0.00011400
v 0.00172700 -0.02251800 0.00769400
v -0.01315700 -0.05977600 0.01527600
v -0.00207200 -0.03089300 0.01182400
v -0.00827400 -0.03572400 0.01624300
v -0.00439900 -0.00779600 0.01815700
v 0.00600100 -0.00748700 0.00388200
v -0.00043300 -0.01101700 0.01439700
v 0.00950900 0.00676400 0.00810100
v -0.00250100 -0.04539500 0.01003200
v -0.02022200 0.01896000 -0.00824800
v 0.01343700 0.05659800 0.01743900
v 0.00897500 0.06124000 0.01493300
v 0.00934500 0.01472300 0.01380400
v -0.00556600 0.00263500 0.01937200
v -0.02653700 0.01217700 -0.00214600
v -0.00220900 0.02422400 0.01958500
v -0.01266500 0.02545700 -0.01378700
v -0.00507900 0.05146500 0.01028400
v -0.02325800 0.00975300 0.01392700
v 0.01556800 0.06097200 -0.01504400
v 0.00610700 0.01725200 0.01768200
v 0.00332300 0.01837300 0.01925200
v -0.02415700 0.01948100 0.00480000
v -0.00113400 0.05835700 -0.00102300
v -0.01888000 0.03241400 -0.00062100
v -0.01741300 0.02783000 0.01256000
v -0.01199400 0.04103400 -0.00492200
v -0.01687300 0.03419200 0.00740200
v 0.02804100 0.06606300 -0.01600600
v -0.01167800 0.04565600 0.00153600
v -0.00620300 0.03223000 -0.01579500
v 0.02886300 0.07171200 -0.01142100
v -0.00403000 0.04369700 -0.01225900
v 0.01158600 0.00992700 0.00281500
v -0.01151600 0.03530600 0.01518300
v 0.01414900 0.01721500 -0.00189500
v -0.00849400 0.03359800 0.01786800
v 0.01587400 0.05230900 -0.01656000
v -0.01809800 0.01422000 0.01722200
v -0.00837300 0.01505000 0.01951800
v 0.00982900 0.06700100 0.00714900
v 0.00494300 0.05045000 -0.01538700
v 0.01298300 0.06975300 -0.00231800
v 0.00131900 0.04586000 0.01820800
v 0.02113600 0.07282700 0.00780500
v -0.00186400 0.05203200 0.01375900
v 0.01906800 0.02394300 0.00335200
v 0.03930700 0.06833400 -0.01549400
v 0.01041000 0.03294600 0.01932100
v 0.02117600 0.03978800 0.01572700
v 0.01759500 0.02499000 0.01014500
v 0.01986900 0.02703000 -0.00345600
v 0.02646400 0.03871300 0.00983200
v 0.04509000 0.05959600 0.00498000
v 0.02279000 0.05172600 0.01683800
v 0.04239900 0.07521900 -0.00933500
v 0.03006400 0.04193800 -0.00803800
v 0.04083800 0.06671400 0.00808500
v 0.02710100 0.03623500 0.00498900
v 0.03730000 0.05814500 0.01149900
v 0.05192000 0.07302200 -0.00363900
v 0.03920100 0.07475300 0.00583200
v 0.04382300 0.07526600 -0.00227200
v 0.04949400 0.06258200 -0.01323100
v 0.05820000 0.06472500 -0.01206900
v 0.03100900 0.07710000 -0.00350900
v 0.04523300 0.05699600 -0.01101500
v 0.03734800 0.04728300 -0.00147400
v 0.02801000 0.03685800 -0.00134800
v 0.02688500 0.07156600 0.01229200
v 0.05321700 0.06337400 -0.00667100
v 0.06178500 0.06808000 -0.00410600
v 0.07283400 0.06928900 -0.00502200
v 0.05258600 0.06594000 -0.00090600
v 0.05494400 0.07495600 -0.01136200
v 0.06428000 0.07361900 -0.00517000
vn -0.66477871 -0.39089946 0.63660575
vn -0.13853800 -0.31350920 -0.93942493
vn -0.73947106 -0.14575837 -0.65721918
vn -0.17736391 -0.20211304 -0.96316788
vn 0.30522342 -0.05149852 -0.95088725
vn -0.56127265 0.17511535 -0.80889284
vn -0.35675518 -0.88875104 -0.28783210
vn -0.56772355 -0.68070648 0.46295644
vn -0.81632555 -0.21279791 0.53696336
vn -0.42459310 -0.25600607 0.86843629
vn -0.89521723 -0.22187751 -0.38646665
vn -0.71434657 -0.40754030 -0.56887598
vn -0.90766739 -0.40192435 -0.12081689
vn -0.99294767 -0.10794228 -0.04902431
vn 0.14545357 -0.02751591 -0.98898237
vn -0.15347797 -0.04758612 -0.98700561
vn -0.73838853 -0.02020845 -0.67407269
vn -0.57484773 0.09155488 -0.81312225
vn -0.87870007 -0.06710355 -0.47263443
vn -0.99660589 0.04795669 -0.06690932
vn -0.85663325 0.07179286 -0.51090632
vn -0.43782055 -0.17313483 -0.88223438
vn 0.38343860 0.01632813 -0.92342202
vn -0.95879270 -0.26331081 0.10669574
vn 0.98487330 -0.15779800 -0.07158475
vn 0.38208084 -0.01286854 -0.92403930
vn 0.76785664 0.00965825 -0.64054890
vn 0.18023062 -0.02575393 -0.98328717
vn 0.97924730 -0.05400330 -0.19534169
vn 0.76430078 -0.05479014 -0.64252810
vn -0.41080255 0.00223372 -0.91172160
vn 0.83609303 -0.44122221 -0.32599295
vn 0.37862035 -0.57957225 -0.72162500
vn 0.98321635 -0.02499922 -0.18072258
vn 0.76921023 -0.04970479 -0.63705970
vn 0.54482996 -0.27756656 0.79127563
vn 0.54507838 -0.78626394 0.29099584
vn 0.26764075 -0.18499304 0.94559294
vn 0.97467144 -0.07031461 0.21230034
vn 0.95012717 -0.21644700 0.22451963
vn -0.05656011 -0.33593686 0.94018476
vn 0.16559090 -0.62927630 0.75933588
vn 0.74197419 -0.13187705 0.65733002
vn 0.96973938 -0.04705137 0.23956566
vn 0.40830381 -0.13931093 -0.90215324
vn 0.78002491 -0.18701900 -0.59714741
vn 0.66160980 -0.21737830 -0.71764835
vn 0.61511082 -0.31153124 -0.72428376
vn 0.53513604 -0.43491571 -0.72420835
vn -0.15116232 0.04697765 -0.98739205
vn 0.88309162 -0.31401066 -0.34863519
vn 0.03398206 -0.02635495 -0.99907489
vn 0.25539336 -0.13628412 -0.95718382
vn 0.20128156 -0.21085370 -0.95657015
vn 0.29584245 -0.35553124 -0.88660858
vn 0.09609739 -0.08925568 -0.99136205
vn -0.04242991 0.16601733 -0.98520960
vn 0.66337380 -0.61253120 -0.42981476
vn 0.23792909 0.13119696 -0.96238096
vn 0.53128940 0.83944470 -0.11429858
vn -0.69686778 -0.08817791 0.71175836
vn -0.93401559 0.09458121 0.34448406
vn -0.15962753 -0.21562989 0.96333940
vn -0.80535659 0.17257580 -0.56711405
vn -0.91196701 0.21062901 -0.35206760
vn -0.95048706 -0.04879029 0.30691019
vn -0.12209650 -0.08633458 0.98875618
vn -0.96077765 0.27731726 -0.00120128
vn -0.35486630 0.06421699 0.93270901
vn 0.23813155 -0.11879678 0.96394019
vn -0.64293968 0.05113594 0.76420788
vn -0.30882814 -0.08483417 0.94732695
vn -0.11680381 -0.01945670 0.99296440
vn 0.16203728 -0.07989650 0.98354485
vn -0.89224226 0.19424307 0.40764369
vn -0.98049756 0.15560227 -0.12005193
vn 0.92107641 -0.15652590 0.35653595
vn 0.08402749 -0.12981158 0.98797183
vn 0.75246709 -0.12799247 0.64607369
vn 0.54186682 -0.11090672 0.83311467
vn 0.43326139 -0.13840784 0.89057725
vn 0.96458699 -0.25501798 -0.06736292
vn 0.69303047 -0.19551073 0.69389071
vn 0.88549381 -0.32626283 0.33083725
vn 0.78741660 -0.07211214 0.61218865
vn -0.76627947 0.30097955 -0.56765049
vn -0.02184870 0.23269519 0.97230426
vn -0.38446379 0.56060151 0.73342589
vn 0.70312831 -0.32824840 0.63076427
vn 0.07237901 -0.05215661 0.99601253
vn -0.88964282 0.31298250 -0.33253211
vn -0.04929478 0.03796587 0.99806243
vn -0.61233205 0.27726222 -0.74038849
vn -0.72328457 0.58557444 0.36600820
vn -0.75381864 0.22272450 0.61818384
vn -0.35546458 0.46483153 -0.81091096
vn 0.52447887 -0.23829272 0.81739739
vn 0.23275045 -0.10317183 0.96704850
vn -0.91833115 0.34942322 0.18593363
vn -0.69837314 0.68327442 -0.21309863
vn -0.88340441 0.42485671 -0.19772055
vn -0.75987324 0.33728276 0.55572744
vn -0.74862482 0.46451237 -0.47306357
vn -0.84575876 0.44396101 0.29595733
vn -0.12359137 0.37873102 -0.91721752
vn -0.82650673 0.56130014 -0.04276426
vn -0.34268863 0.19277350 -0.91945793
vn -0.23864633 0.74116715 -0.62747047
vn -0.61414503 0.43690487 -0.65722143
vn 0.91818287 -0.39511786 -0.02867226
vn -0.65852233 0.35478316 0.66368460
vn 0.84298748 -0.44515147 -0.30201370
vn -0.37468512 0.20256476 0.90475332
vn -0.03767324 0.03122498 -0.99880215
vn -0.47901877 0.16874954 0.86143172
vn -0.11723102 0.03622995 0.99244359
vn -0.55074389 0.78849943 0.27376964
vn -0.39691011 0.36724756 -0.84118464
vn -0.51152691 0.82106153 -0.25337361
vn -0.24341258 0.22904208 0.94249140
vn -0.30432135 0.89147247 0.33565660
vn -0.56163886 0.50771094 0.65329273
vn 0.84845486 -0.52573658 0.06103608
vn 0.03446331 0.32391211 -0.94545927
vn 0.20987895 -0.06707592 0.97542383
vn 0.53041257 -0.27421355 0.80216547
vn 0.78911495 -0.44448124 0.42395049
vn 0.76817640 -0.55583255 -0.31773446
vn 0.70166418 -0.48183959 0.52487902
vn 0.72790060 -0.33050457 0.60077238
vn 0.26348265 0.02302371 0.96438934
vn -0.00768617 0.90272538 -0.43014859
vn 0.65935507 -0.60870412 -0.44128243
vn 0.51499115 0.20838079 0.83148155
vn 0.77933160 -0.58000572 0.23714049
vn 0.51786925 -0.09171703 0.85052891
vn 0.31663843 0.71704892 0.62095165
vn 0.30430596 0.75249435 0.58408059
vn 0.18998051 0.97339857 0.12807278
vn 0.37059025 -0.53389693 -0.76001114
vn 0.18684444 -0.87941198 -0.43786268
vn -0.14832173 0.98029398 -0.13047750
vn 0.56654732 -0.67300230 -0.47549137
vn 0.74410755 -0.66769300 0.02213623
vn 0.77642743 -0.62207247 -0.10092713
vn 0.05438805 0.63553183 0.77015663
vn 0.53598453 -0.83293074 0.13764800
vn 0.24285813 -0.47559504 0.84547578
vn 0.70307655 -0.21534472 0.67772414
vn 0.63902711 -0.19727172 0.74345694
vn -0.07823104 0.91250929 -0.40150554
vn 0.10679072 0.58561866 0.80352133
f 12//12 4//4 2//2
f 7//7 2//2 33//33
f 41//41 1//1 8//8
f 3//3 31//31 22//22
f 31//31 18//18 50//50
f 6//6 50//50 18//18
f 2//2 7//7 12//12
f 19//19 17//17 3//3
f 5//5 2//2 4//4
f 17//17 31//31 3//3
f 5//5 33//33 2//2
f 10//10 1//1 41//41
f 41//41 63//63 10//10
f 41//41 38//38 63//63
f 11//11 13//13 24//24
f 12//12 8//8 13//13
f 8//8 12//12 7//7
f 16//16 31//31 50//50
f 11//11 14//14 19//19
f 11//11 24//24 14//14
f 1//1 10//10 9//9
f 15//15 23//23 5//5
f 9//9 14//14 24//24
f 66//66 14//14 9//9
f 13//13 11//11 12//12
f 35//35 5//5 23//23
f 15//15 16//16 50//50
f 38//38 78//78 63//63
f 15//15 28//28 26//26
f 15//15 50//50 28//28
f 31//31 17//17 18//18
f 3//3 12//12 11//11
f 3//3 22//22 12//12
f 19//19 14//14 20//20
f 19//19 21//21 17//17
f 21//21 18//18 17//17
f 20//20 21//21 19//19
f 46//46 30//30 26//26
f 23//23 15//15 26//26
f 11//11 19//19 3//3
f 4//4 12//12 22//22
f 16//16 4//4 22//22
f 4//4 16//16 5//5
f 76//76 21//21 20//20
f 16//16 15//15 5//5
f 31//31 16//16 22//22
f 27//27 35//35 23//23
f 25//25 44//44 29//29
f 13//13 8//8 1//1
f 24//24 13//13 1//1
f 77//77 44//44 25//25
f 9//9 24//24 1//1
f 29//29 30//30 25//25
f 23//23 26//26 27//27
f 26//26 30//30 27//27
f 27//27 30//30 29//29
f 26//26 28//28 45//45
f 46//46 26//26 45//45
f 29//29 34//34 27//27
f 47//47 46//46 45//45
f 64//64 18//18 21//21
f 25//25 30//30 46//46
f 6//6 18//18 64//64
f 25//25 46//46 82//82
f 34//34 35//35 27//27
f 7//7 33//33 37//37
f 36//36 41//41 42//42
f 41//41 8//8 42//42
f 33//33 32//32 37//37
f 42//42 37//37 36//36
f 85//85 39//39 44//44
f 36//36 40//40 43//43
f 39//39 34//34 44//44
f 43//43 40//40 39//39
f 41//41 36//36 38//38
f 35//35 32//32 33//33
f 35//35 34//34 32//32
f 35//35 33//33 5//5
f 44//44 34//34 29//29
f 7//7 42//42 8//8
f 37//37 42//42 7//7
f 38//38 36//36 43//43
f 43//43 39//39 85//85
f 34//34 39//39 40//40
f 37//37 32//32 40//40
f 36//36 37//37 40//40
f 34//34 40//40 32//32
f 43//43 85//85 80//80
f 38//38 43//43 80//80
f 80//80 78//78 38//38
f 44//44 79//79 85//85
f 79//79 44//44 77//77
f 52//52 114//114 54//54
f 54//54 49//49 53//53
f 47//47 51//51 46//46
f 6//6 107//107 50//50
f 107//107 6//6 93//93
f 45//45 48//48 47//47
f 51//51 47//47 48//48
f 112//112 51//51 48//48
f 50//50 52//52 53//53
f 50//50 107//107 52//52
f 48//48 128//128 112//112
f 28//28 50//50 53//53
f 28//28 53//53 45//45
f 48//48 45//45 53//53
f 53//53 49//49 48//48
f 54//54 114//114 56//56
f 49//49 54//54 55//55
f 128//128 48//48 49//49
f 114//114 52//52 107//107
f 54//54 53//53 52//52
f 57//57 141//141 140//140
f 55//55 54//54 56//56
f 57//57 59//59 141//141
f 57//57 151//151 59//59
f 55//55 140//140 143//143
f 140//140 55//55 56//56
f 141//141 59//59 58//58
f 58//58 59//59 60//60
f 60//60 59//59 151//151
f 141//141 58//58 149//149
f 80//80 70//70 78//78
f 65//65 76//76 68//68
f 61//61 66//66 9//9
f 83//83 84//84 89//89
f 10//10 61//61 9//9
f 76//76 75//75 68//68
f 61//61 10//10 72//72
f 76//76 62//62 75//75
f 67//67 72//72 78//78
f 67//67 78//78 70//70
f 69//69 71//71 72//72
f 10//10 63//63 72//72
f 73//73 72//72 67//67
f 72//72 63//63 78//78
f 6//6 64//64 86//86
f 71//71 61//61 72//72
f 69//69 72//72 73//73
f 86//86 64//64 91//91
f 66//66 20//20 14//14
f 61//61 71//71 62//62
f 66//66 62//62 20//20
f 65//65 68//68 91//91
f 65//65 91//91 64//64
f 85//85 79//79 80//80
f 62//62 66//66 61//61
f 71//71 75//75 62//62
f 70//70 74//74 67//67
f 80//80 74//74 70//70
f 74//74 90//90 73//73
f 73//73 67//67 74//74
f 95//95 75//75 71//71
f 95//95 71//71 69//69
f 76//76 64//64 21//21
f 62//62 76//76 20//20
f 65//65 64//64 76//76
f 82//82 77//77 25//25
f 77//77 83//83 79//79
f 95//95 69//69 115//115
f 116//116 69//69 73//73
f 79//79 81//81 80//80
f 74//74 80//80 81//81
f 115//115 69//69 116//116
f 73//73 90//90 116//116
f 81//81 90//90 74//74
f 79//79 83//83 81//81
f 82//82 46//46 51//51
f 97//97 83//83 89//89
f 83//83 97//97 81//81
f 97//97 98//98 81//81
f 81//81 98//98 90//90
f 83//83 77//77 84//84
f 84//84 77//77 82//82
f 100//100 96//96 118//118
f 93//93 6//6 86//86
f 55//55 133//133 49//49
f 125//125 131//131 87//87
f 117//117 122//122 88//88
f 101//101 86//86 91//91
f 100//100 103//103 106//106
f 106//106 104//104 94//94
f 92//92 90//90 98//98
f 92//92 116//116 90//90
f 103//103 93//93 86//86
f 86//86 101//101 103//103
f 104//104 102//102 111//111
f 94//94 104//104 111//111
f 99//99 91//91 68//68
f 99//99 68//68 75//75
f 95//95 99//99 75//75
f 91//91 99//99 101//101
f 118//118 96//96 114//114
f 125//125 92//92 98//98
f 98//98 97//97 125//125
f 102//102 99//99 95//95
f 93//93 103//103 109//109
f 104//104 99//99 102//102
f 101//101 99//99 104//104
f 114//114 96//96 105//105
f 94//94 100//100 106//106
f 104//104 106//106 101//101
f 106//106 103//103 101//101
f 56//56 114//114 105//105
f 82//82 51//51 110//110
f 109//109 107//107 93//93
f 84//84 82//82 110//110
f 100//100 117//117 119//119
f 109//109 118//118 107//107
f 114//114 107//107 118//118
f 108//108 105//105 96//96
f 117//117 100//100 94//94
f 113//113 102//102 115//115
f 116//116 113//113 115//115
f 111//111 102//102 113//113
f 51//51 112//112 110//110
f 49//49 133//133 128//128
f 116//116 92//92 113//113
f 120//120 113//113 92//92
f 142//142 132//132 108//108
f 95//95 115//115 102//102
f 119//119 96//96 100//100
f 103//103 100//100 109//109
f 100//100 118//118 109//109
f 92//92 125//125 120//120
f 119//119 108//108 96//96
f 94//94 111//111 122//122
f 142//142 108//108 119//119
f 122//122 111//111 113//113
f 122//122 113//113 120//120
f 121//121 119//119 117//117
f 146//146 142//142 121//121
f 142//142 119//119 121//121
f 87//87 120//120 125//125
f 88//88 122//122 120//120
f 88//88 121//121 117//117
f 94//94 122//122 117//117
f 146//146 88//88 87//87
f 121//121 88//88 146//146
f 120//120 87//87 88//88
f 123//123 112//112 128//128
f 84//84 110//110 127//127
f 112//112 123//123 110//110
f 123//123 127//127 110//110
f 136//136 134//134 146//146
f 146//146 134//134 138//138
f 127//127 129//129 126//126
f 127//127 123//123 129//129
f 126//126 129//129 136//136
f 89//89 84//84 127//127
f 108//108 124//124 105//105
f 132//132 124//124 108//108
f 126//126 131//131 125//125
f 129//129 135//135 130//130
f 97//97 89//89 126//126
f 125//125 97//97 126//126
f 57//57 140//140 124//124
f 130//130 136//136 129//129
f 123//123 128//128 145//145
f 134//134 130//130 150//150
f 57//57 124//124 132//132
f 151//151 57//57 132//132
f 130//130 134//134 136//136
f 128//128 133//133 145//145
f 126//126 136//136 131//131
f 129//129 123//123 135//135
f 135//135 123//123 145//145
f 138//138 139//139 142//142
f 139//139 138//138 137//137
f 138//138 150//150 137//137
f 143//143 133//133 55//55
f 138//138 134//134 150//150
f 139//139 151//151 132//132
f 87//87 131//131 146//146
f 144//144 145//145 133//133
f 143//143 144//144 133//133
f 132//132 142//142 139//139
f 143//143 140//140 147//147
f 140//140 141//141 147//147
f 124//124 56//56 105//105
f 56//56 124//124 140//140
f 138//138 142//142 146//146
f 147//147 141//141 148//148
f 145//145 144//144 135//135
f 150//150 147//147 148//148
f 144//144 143//143 147//147
f 130//130 144//144 147//147
f 130//130 135//135 144//144
f 130//130 147//147 150//150
f 89//89 127//127 126//126
f 148//148 141//141 149//149
f 149//149 152//152 148//148
f 137//137 151//151 139//139
f 137//137 60//60 151//151
f 137//137 152//152 60//60
f 60//60 149//149 58//58
f 137//137 148//148 152//152
f 150//150 148//148 137//137
f 152//152 149//149 60//60
f 136//136 146//146 131//131

