# https://github.com/mikedh/trimesh
v -0.01805200 -0.06035800 -0.14539200
v -0.01464400 -0.06746000 -0.13989700
v -0.05890200 -0.04206600 -0.14039400
v -0.05631200 -0.05302500 -0.05059300
v -0.04767800 -0.04386400 -0.14490800
v -0.03510500 -0.06296200 -0.14080200
v -0.06508700 -0.02740100 -0.14078800
v -0.06823100 -0.03645400 -0.03463000
v -0.04915400 -0.05392400 -0.13931500
v -0.06940400 -0.01290700 -0.09901800
v -0.02963500 -0.06962800 -0.04955000
v -0.01341200 -0.07273600 -0.03206700
v -0.04280700 -0.06214400 -0.08429900
v -0.04433600 -0.06424400 -0.02648300
v 0.00960600 -0.06391600 -0.11045700
v 0.02223000 -0.06028000 -0.04367300
v 0.02816900 -0.05179900 -0.08762300
v 0.00267600 -0.07048300 -0.03578300
v -0.06655700 0.00238700 -0.10839900
v -0.06582700 -0.00756600 -0.14511000
v -0.05957900 0.01931000 -0.09067800
v -0.05944400 0.01311200 -0.14093900
v -0.03106900 0.03641300 -0.14039300
v -0.01060500 0.03379300 -0.14484300
v -0.04633800 0.02849700 -0.13997700
v 0.03119500 0.00203200 -0.14436000
v -0.05136800 0.03208400 -0.03927200
v -0.04285200 0.03610500 -0.06600200
v -0.03680100 0.02371800 -0.14404700
v -0.00549700 0.03953900 -0.14021200
v 0.01482000 0.03221400 -0.13222200
v 0.02672500 0.02134000 -0.13955800
v -0.00847100 -0.04053100 -0.14312400
v 0.01445600 -0.05974700 -0.13678800
v 0.02696700 -0.04811500 -0.14389800
v 0.02946800 -0.03232800 -0.14524200
v 0.04432500 -0.02713200 -0.03945200
v 0.03544800 -0.03975500 -0.11359800
v 0.04005900 -0.04148600 -0.02080400
v 0.03772700 -0.02862800 -0.14177500
v 0.03667600 0.01181900 -0.09588400
v 0.03026300 0.02836800 -0.04975500
v 0.01149800 0.03883400 -0.04456500
v 0.03891200 -0.00083100 -0.13931000
v 0.04300600 -0.01583700 -0.09297800
v 0.04256100 0.03760100 -0.04287000
v 0.03009800 0.02566900 -0.04368000
v 0.04075400 0.00456600 -0.07614800
v 0.02487900 0.02849000 -0.07289700
v 0.05147900 0.03680400 -0.05549600
v 0.04782400 0.04650200 -0.05123400
v 0.03028400 0.02618100 -0.06911100
v 0.04718300 0.04502800 -0.03006600
v 0.05474700 0.04975400 -0.04350100
v 0.05237900 0.06179700 -0.02705100
v -0.07596700 -0.02630000 0.06435400
v -0.07704100 -0.00546400 0.06328400
v -0.07243100 0.01212100 0.05972100
v -0.05811700 -0.05782200 0.04947300
v -0.07815400 -0.06285000 0.06804200
v -0.04133200 -0.06927100 0.03285200
v -0.05335800 -0.06290200 0.05346500
v -0.06250500 -0.07094200 0.06556500
v -0.06611000 -0.04858000 0.05472200
v -0.06390000 -0.02867800 0.08952300
v -0.07452800 -0.01876300 -0.00280100
v -0.06134100 0.03386600 0.08333700
v -0.07798900 0.00072000 0.08345200
v -0.07213600 -0.04427300 0.08196500
v -0.05882300 0.01585400 0.08859300
v -0.07848800 -0.02164900 0.08326900
v -0.05991000 -0.05299100 0.05291700
v -0.02315600 -0.07416900 0.01697700
v -0.04435400 -0.00426900 0.07265000
v 0.00272100 -0.07433400 0.05058300
v -0.00694200 -0.07507800 0.02606500
v 0.03550200 -0.05666800 0.08501800
v 0.04710800 -0.03885500 0.08381500
v -0.00409800 -0.01405000 0.09564900
v 0.03282000 -0.05483200 0.02250500
v 0.01743800 -0.06754000 0.02496700
v -0.04507200 -0.06964600 0.08537200
v -0.04730800 -0.06431200 0.07662500
v 0.01581500 -0.07186700 0.08376000
v 0.02756700 -0.06182400 0.06564700
v -0.04560900 -0.05046800 0.08981600
v 0.04237900 -0.04400800 0.06190700
v 0.04900000 -0.02731000 0.06231500
v -0.02855400 -0.07456200 0.06607700
v -0.01373300 -0.06729700 0.08926000
v 0.02128500 -0.05232300 0.08952700
v -0.03377100 -0.02555500 0.06877300
v 0.01142500 -0.03465400 0.07393100
v -0.02746000 -0.02251100 0.09491500
v -0.00877900 -0.04381100 0.07352200
v 0.03741000 0.00580900 0.08905100
v 0.03635500 -0.03055100 0.08969300
v -0.01547500 -0.07840700 0.08364500
v -0.00421000 0.04283900 -0.06655100
v -0.01175100 0.04630700 -0.02002700
v -0.07027500 0.00612000 -0.03063900
v -0.04079400 0.04514000 0.05486600
v -0.01450400 0.05015500 0.03457600
v -0.06408900 0.02537100 0.03656000
v -0.03309300 0.04371800 -0.01517200
v -0.02227400 0.04210600 -0.08895900
v 0.04284100 0.00727300 -0.02545200
v 0.04935600 -0.01025400 0.02586000
v 0.03056900 0.03399000 0.08229700
v 0.03752600 0.03276300 0.08183200
v 0.04754200 0.00784800 0.05763500
v 0.00607600 0.04733000 0.05777200
v 0.05616300 0.06483900 0.01129900
v 0.03774000 0.02090600 0.00110000
v -0.01897200 0.01611600 0.07122200
v 0.00577400 0.04487400 0.00337800
v 0.05572300 0.04247800 -0.00329700
v 0.02144200 0.03714000 0.00846300
v -0.01258100 0.02619600 0.09209700
v 0.05356300 0.04869300 0.05418000
v 0.01709300 0.02807500 0.08942600
v 0.04662400 0.05509700 0.04914200
v 0.04452500 0.04431200 0.06458600
v -0.01514000 0.05077400 0.06128800
v 0.02159100 0.04022800 0.06274700
v -0.02133200 0.03993500 0.08780100
v 0.05449500 0.04988700 0.01654500
v 0.04610500 0.05509800 0.00274900
v -0.03138000 0.05192800 0.08217200
v -0.00162800 0.05177400 0.08204100
v 0.05431000 0.05304500 0.04335000
v 0.06966400 0.05212000 0.01862900
v 0.04244200 0.03839100 0.06614700
v 0.06769200 0.05110600 0.05854800
v 0.05898500 0.05763900 -0.00284300
v 0.04929000 0.04908100 0.07395800
v 0.05001600 0.05810300 0.07270800
v 0.00333100 -0.00552000 0.06847400
v 0.05216900 0.04746900 0.07461200
v 0.05167800 0.00423400 0.08795900
v 0.01921700 -0.00773100 0.07369000
v 0.03639400 0.02827300 0.06159200
v 0.06023700 0.06003300 0.05267700
v 0.01996000 0.04440100 0.08289800
v 0.05261200 -0.00845000 0.08364900
v 0.06102900 0.05549000 -0.01262000
v 0.04736500 0.04409400 0.02490300
v 0.05786800 0.04321000 0.04810700
v 0.06212100 0.05686400 0.04842500
v 0.03461600 0.03437300 0.07867700
vn -0.00744268 -0.31789515 -0.94809666
vn 0.04525316 -0.88808092 -0.45745429
vn -0.72514767 -0.44516885 -0.52534326
vn -0.73966949 -0.67134383 -0.04676010
vn -0.19927426 -0.20990851 -0.95719809
vn -0.35762297 -0.72741749 -0.58563607
vn -0.82470813 -0.24599443 -0.50925754
vn -0.91263408 -0.40559736 -0.05089020
vn -0.56539488 -0.66457338 -0.48853951
vn -0.99810231 0.01469283 -0.05979877
vn -0.27388878 -0.96058603 -0.04753325
vn -0.00237628 -0.99863791 -0.05212177
vn -0.52329827 -0.85100427 -0.04416620
vn -0.52832006 -0.84754522 -0.05044809
vn 0.39980293 -0.91481285 -0.05722824
vn 0.57350129 -0.81770487 -0.04954818
vn 0.71180661 -0.70001476 -0.05753862
vn 0.28647382 -0.95668965 -0.05174621
vn -0.95461393 0.29115048 -0.06279838
vn -0.69390315 0.09075563 -0.71432614
vn -0.81469112 0.57649155 -0.06273648
vn -0.69635987 0.45428128 -0.55561808
vn -0.27237988 0.78941665 -0.55011868
vn 0.02197785 0.35088466 -0.93616074
vn -0.51832109 0.65720253 -0.54720023
vn 0.33621914 0.14869807 -0.92997074
vn -0.61749654 0.78498670 -0.04993898
vn -0.46471008 0.88341501 -0.06018689
vn -0.12176595 0.18259846 -0.97561819
vn 0.16864268 0.85674751 -0.48738419
vn 0.49738397 0.84485579 -0.19704794
vn 0.61136787 0.56412373 -0.55497184
vn 0.00510477 0.04326856 -0.99905044
vn 0.42476000 -0.83938583 -0.33913179
vn 0.52968991 -0.49404177 -0.68945727
vn 0.19577763 -0.05591818 -0.97905274
vn 0.97163763 -0.23086908 -0.05118380
vn 0.89193554 -0.44841525 -0.05809268
vn 0.88034829 -0.47191424 -0.04778965
vn 0.81817023 -0.18068786 -0.54584738
vn 0.89496715 0.44398860 -0.04367980
vn -0.18989115 0.95548689 0.22580113
vn 0.44311171 0.89471254 -0.05604896
vn 0.86949970 0.20460633 -0.44956258
vn 0.99753065 -0.02560576 -0.06539842
vn 0.60966457 -0.77460617 0.16820940
vn 0.77750579 0.62221363 0.09129595
vn 0.94570315 0.31816512 -0.06645684
vn 0.52206937 0.81684408 -0.24537587
vn 0.85935651 -0.50324106 -0.09085605
vn -0.14015053 0.84441688 -0.51702800
vn 0.67847227 -0.31921435 0.66164762
vn -0.71044811 -0.57302164 0.40854581
vn 0.89878350 0.09512672 -0.42794758
vn -0.34671415 0.93402975 -0.08589366
vn -0.97436668 -0.21096122 -0.07813409
vn -0.99326351 0.09292511 -0.06922801
vn -0.92511031 0.37737189 -0.04196877
vn -0.65555911 -0.68711716 -0.31322876
vn -0.71314781 -0.62769638 0.31211771
vn -0.44467406 -0.89497605 -0.03581700
vn -0.38388803 -0.87917319 -0.28228439
vn -0.61888206 -0.74892793 0.23683740
vn -0.91525263 -0.27452512 -0.29487045
vn -0.01478093 -0.00387707 0.99988324
vn -0.99565584 -0.07708175 -0.05222894
vn -0.59893623 0.60507556 0.52455597
vn -0.83359524 0.18939746 0.51889072
vn -0.76392956 -0.45434491 0.45823829
vn -0.00403979 0.00457933 0.99998135
vn -0.86534278 -0.10881763 0.48922448
vn -0.22088755 -0.37169573 0.90169339
vn -0.16263898 -0.98610578 -0.03382231
vn 0.44299748 -0.12842792 0.88727645
vn 0.23844701 -0.97048309 -0.03613294
vn 0.11326769 -0.99308582 -0.03083818
vn 0.62644954 -0.57321279 0.52819321
vn 0.81483411 -0.32238059 0.48178431
vn 0.56518377 -0.17917561 0.80527226
vn 0.73298216 -0.67908260 -0.03979924
vn 0.47700763 -0.87800396 -0.03965811
vn -0.43733893 -0.70836884 0.55402911
vn -0.95519552 -0.15762947 0.25050842
vn 0.36600132 -0.78792163 0.49519950
vn 0.63663332 -0.76801170 -0.06968537
vn -0.16431222 -0.01082262 0.98634901
vn 0.85913949 -0.50787158 -0.06281554
vn 0.96971000 -0.23888926 -0.05093570
vn -0.23563487 -0.97032820 -0.05421621
vn 0.07151899 -0.21582867 0.97380851
vn -0.05485538 0.05082436 0.99719997
vn -0.30912267 0.42872428 0.84890439
vn -0.32933244 0.30890841 0.89225318
vn -0.55902943 0.18872194 0.80738474
vn 0.58297598 0.22578428 0.78048732
vn 0.10596912 0.07492674 0.99154250
vn -0.03467702 0.02706870 0.99903193
vn -0.02804417 -0.89012738 0.45484808
vn 0.18526184 0.98075115 -0.06168661
vn 0.01274893 0.99836915 -0.05564625
vn -0.95193210 0.30189903 -0.05179051
vn -0.42103827 0.90365434 -0.07833011
vn -0.01730080 0.99890826 -0.04339320
vn -0.77562142 0.62874907 -0.05555196
vn -0.31058758 0.94854220 -0.06166891
vn -0.15878807 0.98579866 -0.05465671
vn 0.93485822 0.34950177 -0.06235879
vn 0.99523589 0.07630106 -0.06069319
vn 0.16232364 0.17811736 0.97052833
vn 0.61045917 0.15443675 0.77684547
vn 0.93777028 0.33867349 -0.07672784
vn 0.29840168 0.95165909 -0.07281078
vn -0.56318968 0.82323591 -0.07141446
vn 0.83558852 0.54716213 -0.04904522
vn -0.51598192 -0.18076672 0.83730881
vn 0.31389421 0.94776179 -0.05672761
vn 0.38575244 -0.48186346 -0.78676722
vn 0.57484607 0.81614350 -0.05883698
vn -0.40829923 0.11985111 0.90494610
vn 0.86567931 -0.44945710 0.22042605
vn 0.19640443 0.14901963 0.96913283
vn -0.56056607 0.53139308 0.63512760
vn -0.84005927 0.44202006 -0.31451342
vn -0.01498960 0.99663054 -0.08064040
vn 0.46067371 0.87723268 -0.13506505
vn -0.08699071 0.11958638 0.98900542
vn 0.95950774 -0.28022211 -0.02864372
vn -0.21262056 0.34707806 -0.91341629
vn -0.23403874 0.84387154 0.48281125
vn 0.15672764 0.85266416 0.49839771
vn -0.32771304 0.94321717 0.05427280
vn 0.82535980 -0.56447770 -0.01208872
vn 0.41152515 -0.33505952 -0.84757428
vn 0.90116735 -0.43195411 0.03623611
vn -0.99342756 0.07905608 0.08277576
vn -0.71513904 0.32992297 -0.61621991
vn -0.39460106 0.81469320 0.42492939
vn 0.42244926 -0.33526545 0.84210077
vn 0.69772568 -0.28881368 0.65556505
vn 0.50613446 0.00425455 0.86244409
vn -0.45930451 -0.10126879 0.88248739
vn 0.83335198 0.47312466 -0.28579283
vn 0.02574977 0.99517161 0.09471230
vn 0.26788213 0.64873999 0.71230302
vn 0.85755963 -0.00210044 0.51438028
vn 0.99264506 -0.04180721 -0.11361310
vn -0.72010245 -0.69341027 0.02519243
vn 0.70785758 -0.63220222 0.31505237
vn 0.00970100 -0.99539722 -0.09534283
vn -0.17769536 0.82287479 -0.53972349
f 5//5 3//3 7//7
f 15//15 2//2 34//34
f 1//1 35//35 2//2
f 35//35 34//34 2//2
f 15//15 34//34 17//17
f 6//6 2//2 11//11
f 5//5 9//9 3//3
f 11//11 61//61 14//14
f 9//9 1//1 6//6
f 5//5 1//1 9//9
f 18//18 12//12 2//2
f 18//18 2//2 15//15
f 11//11 73//73 61//61
f 3//3 8//8 7//7
f 33//33 1//1 5//5
f 9//9 6//6 13//13
f 14//14 13//13 11//11
f 11//11 13//13 6//6
f 8//8 3//3 4//4
f 12//12 11//11 2//2
f 2//2 6//6 1//1
f 10//10 7//7 66//66
f 4//4 9//9 13//13
f 9//9 4//4 3//3
f 66//66 7//7 8//8
f 8//8 4//4 64//64
f 13//13 14//14 4//4
f 73//73 11//11 12//12
f 81//81 18//18 16//16
f 81//81 16//16 80//80
f 80//80 16//16 17//17
f 17//17 39//39 80//80
f 16//16 15//15 17//17
f 18//18 76//76 12//12
f 76//76 18//18 81//81
f 18//18 15//15 16//16
f 21//21 22//22 19//19
f 20//20 5//5 7//7
f 20//20 7//7 10//10
f 22//22 20//20 19//19
f 23//23 24//24 29//29
f 23//23 29//29 25//25
f 29//29 20//20 22//22
f 21//21 19//19 101//101
f 25//25 29//29 22//22
f 21//21 25//25 22//22
f 33//33 35//35 1//1
f 36//36 35//35 33//33
f 30//30 24//24 23//23
f 106//106 30//30 23//23
f 24//24 26//26 29//29
f 10//10 101//101 19//19
f 21//21 27//27 25//25
f 26//26 40//40 36//36
f 25//25 28//28 23//23
f 32//32 26//26 24//24
f 29//29 5//5 20//20
f 32//32 24//24 30//30
f 33//33 5//5 29//29
f 28//28 25//25 27//27
f 32//32 44//44 26//26
f 32//32 41//41 44//44
f 31//31 32//32 30//30
f 28//28 105//105 106//106
f 33//33 29//29 26//26
f 36//36 33//33 26//26
f 19//19 20//20 10//10
f 28//28 106//106 23//23
f 30//30 106//106 99//99
f 30//30 99//99 31//31
f 43//43 31//31 99//99
f 100//100 99//99 106//106
f 49//49 41//41 32//32
f 43//43 49//49 31//31
f 32//32 31//31 49//49
f 39//39 38//38 37//37
f 34//34 35//35 17//17
f 38//38 17//17 35//35
f 38//38 35//35 40//40
f 47//47 107//107 48//48
f 35//35 36//36 40//40
f 45//45 38//38 40//40
f 48//48 45//45 41//41
f 43//43 42//42 49//49
f 43//43 47//47 42//42
f 37//37 38//38 45//45
f 40//40 26//26 44//44
f 45//45 40//40 44//44
f 48//48 41//41 49//49
f 47//47 46//46 42//42
f 45//45 44//44 41//41
f 50//50 52//52 48//48
f 107//107 45//45 48//48
f 46//46 53//53 42//42
f 39//39 17//17 38//38
f 53//53 46//46 54//54
f 127//127 53//53 54//54
f 49//49 50//50 48//48
f 47//47 48//48 52//52
f 51//51 50//50 49//49
f 51//51 49//49 42//42
f 51//51 54//54 50//50
f 55//55 54//54 51//51
f 53//53 51//51 42//42
f 47//47 52//52 46//46
f 52//52 50//50 54//54
f 135//135 55//55 51//51
f 54//54 46//46 52//52
f 62//62 63//63 60//60
f 66//66 101//101 10//10
f 82//82 63//63 62//62
f 57//57 66//66 56//56
f 57//57 58//58 101//101
f 62//62 59//59 61//61
f 59//59 4//4 14//14
f 59//59 64//64 4//4
f 82//82 83//83 63//63
f 68//68 57//57 71//71
f 61//61 59//59 14//14
f 68//68 58//58 57//57
f 69//69 60//60 72//72
f 69//69 64//64 60//60
f 72//72 60//60 63//63
f 60//60 64//64 59//59
f 60//60 59//59 62//62
f 65//65 70//70 68//68
f 56//56 8//8 64//64
f 74//74 70//70 65//65
f 57//57 56//56 71//71
f 57//57 101//101 66//66
f 56//56 66//66 8//8
f 69//69 56//56 64//64
f 67//67 58//58 68//68
f 67//67 68//68 70//70
f 82//82 86//86 65//65
f 56//56 69//69 71//71
f 69//69 65//65 71//71
f 70//70 74//74 115//115
f 65//65 68//68 71//71
f 65//65 69//69 82//82
f 74//74 65//65 92//92
f 83//83 72//72 63//63
f 83//83 82//82 69//69
f 72//72 83//83 69//69
f 62//62 61//61 89//89
f 89//89 76//76 75//75
f 77//77 85//85 87//87
f 93//93 90//90 91//91
f 138//138 93//93 141//141
f 12//12 76//76 73//73
f 98//98 89//89 75//75
f 75//75 76//76 81//81
f 87//87 88//88 78//78
f 77//77 87//87 78//78
f 61//61 73//73 89//89
f 79//79 95//95 138//138
f 97//97 77//77 78//78
f 75//75 81//81 85//85
f 89//89 73//73 76//76
f 84//84 75//75 85//85
f 92//92 94//94 115//115
f 84//84 98//98 75//75
f 115//115 74//74 92//92
f 88//88 145//145 78//78
f 85//85 81//81 80//80
f 82//82 62//62 89//89
f 89//89 98//98 82//82
f 93//93 95//95 90//90
f 91//91 90//90 84//84
f 91//91 84//84 77//77
f 39//39 37//37 88//88
f 84//84 85//85 77//77
f 77//77 97//97 91//91
f 87//87 80//80 39//39
f 119//119 115//115 94//94
f 85//85 80//80 87//87
f 87//87 39//39 88//88
f 79//79 119//119 94//94
f 95//95 93//93 138//138
f 86//86 82//82 90//90
f 91//91 97//97 93//93
f 86//86 94//94 92//92
f 90//90 95//95 79//79
f 97//97 141//141 93//93
f 96//96 141//141 97//97
f 97//97 145//145 96//96
f 65//65 86//86 92//92
f 94//94 86//86 90//90
f 90//90 79//79 94//94
f 82//82 98//98 90//90
f 145//145 97//97 78//78
f 90//90 98//98 84//84
f 116//116 99//99 100//100
f 116//116 43//43 99//99
f 124//124 103//103 102//102
f 105//105 103//103 100//100
f 100//100 106//106 105//105
f 103//103 105//105 102//102
f 21//21 101//101 58//58
f 104//104 21//21 58//58
f 28//28 27//27 105//105
f 104//104 27//27 21//21
f 103//103 116//116 100//100
f 129//129 102//102 67//67
f 102//102 105//105 27//27
f 124//124 102//102 129//129
f 102//102 27//27 104//104
f 129//129 67//67 70//70
f 67//67 104//104 58//58
f 129//129 70//70 126//126
f 104//104 67//67 102//102
f 121//121 79//79 138//138
f 55//55 135//135 113//113
f 108//108 37//37 45//45
f 141//141 121//121 138//138
f 88//88 37//37 108//108
f 108//108 45//45 107//107
f 109//109 121//121 96//96
f 55//55 113//113 146//146
f 121//121 109//109 130//130
f 109//109 110//110 144//144
f 108//108 107//107 114//114
f 118//118 142//142 114//114
f 132//132 146//146 113//113
f 109//109 140//140 110//110
f 111//111 108//108 114//114
f 112//112 116//116 103//103
f 112//112 103//103 124//124
f 118//118 43//43 116//116
f 118//118 47//47 43//43
f 112//112 125//125 116//116
f 125//125 118//118 116//116
f 125//125 142//142 118//118
f 130//130 112//112 124//124
f 107//107 47//47 114//114
f 112//112 130//130 144//144
f 112//112 144//144 125//125
f 124//124 129//129 130//130
f 131//131 53//53 128//128
f 128//128 147//147 122//122
f 128//128 122//122 131//131
f 115//115 126//126 70//70
f 117//117 127//127 148//148
f 130//130 109//109 144//144
f 115//115 119//119 126//126
f 143//143 135//135 131//131
f 114//114 47//47 118//118
f 125//125 133//133 142//142
f 148//148 120//120 123//123
f 133//133 123//123 120//120
f 121//121 119//119 79//79
f 123//123 133//133 150//150
f 53//53 127//127 117//117
f 53//53 131//131 135//135
f 148//148 127//127 120//120
f 149//149 120//120 127//127
f 132//132 113//113 143//143
f 132//132 143//143 134//134
f 150//150 136//136 123//123
f 130//130 126//126 119//119
f 126//126 130//130 129//129
f 120//120 149//149 139//139
f 127//127 146//146 149//149
f 108//108 145//145 88//88
f 139//139 133//133 120//120
f 145//145 108//108 111//111
f 136//136 131//131 123//123
f 134//134 143//143 137//137
f 114//114 142//142 111//111
f 146//146 127//127 54//54
f 137//137 139//139 134//134
f 53//53 135//135 51//51
f 130//130 119//119 121//121
f 55//55 146//146 54//54
f 110//110 139//139 137//137
f 133//133 139//139 110//110
f 123//123 131//131 122//122
f 131//131 136//136 143//143
f 149//149 134//134 139//139
f 141//141 96//96 121//121
f 150//150 133//133 125//125
f 125//125 144//144 150//150
f 137//137 143//143 136//136
f 142//142 133//133 110//110
f 140//140 145//145 111//111
f 110//110 111//111 142//142
f 144//144 110//110 137//137
f 145//145 109//109 96//96
f 144//144 136//136 150//150
f 136//136 144//144 137//137
f 140//140 109//109 145//145
f 140//140 111//111 110//110
f 128//128 53//53 117//117
f 143//143 113//113 135//135
f 147//147 117//117 148//148
f 134//134 149//149 132//132
f 149//149 146//146 132//132
f 122//122 148//148 123//123
f 117//117 147//147 128//128
f 122//122 147//147 148//148

