# https://github.com/mikedh/trimesh
v -0.01393300 -0.04720600 0.00081600
v -0.01177000 -0.00704700 -0.01169200
v 0.01296300 -0.00919800 -0.01260400
v 0.00366300 -0.01075100 -0.01772600
v -0.03503500 -0.04744000 -0.01226000
v -0.02058800 -0.02077400 -0.01176000
v 0.00112600 -0.03165900 -0.01260900
v -0.01654200 -0.04125200 -0.00943700
v -0.05602400 -0.03618300 -0.00658400
v -0.01595800 -0.03304600 0.00813200
v 0.07048600 -0.04210700 0.00941600
v 0.00594700 -0.00291200 -0.00990200
v 0.04670400 -0.03000400 -0.01053400
v 0.00880500 -0.03510000 -0.00424700
v 0.08977000 -0.06777400 -0.01186700
v 0.08322000 -0.06619100 0.00629900
v 0.09497300 -0.06715700 0.00897200
v 0.07574700 -0.04470000 -0.01252700
v 0.01846500 -0.02975300 -0.01275400
v 0.07090600 -0.05191900 -0.01133700
v 0.01944600 -0.03761300 -0.00598900
v 0.09122600 -0.07348000 0.00018100
v 0.02070200 -0.03159400 0.01108400
v -0.00971800 -0.02740400 -0.00984800
v 0.02595700 -0.03894600 -0.00953100
v 0.05365200 -0.04840000 0.00791400
v 0.08123100 -0.06426900 0.00932600
v 0.03557900 -0.03681900 0.00787800
v 0.04511400 -0.03456700 0.00255600
v 0.07600000 -0.06522800 -0.00524900
v 0.06599100 -0.04996600 -0.00231100
v 0.01778500 -0.01861900 0.00171800
v 0.04049300 -0.04349200 -0.00746000
v -0.10573400 -0.01090800 -0.01286000
v 0.00311100 0.01730500 -0.01297200
v 0.00238400 0.02468800 0.00934600
v -0.01469400 0.00228600 0.01745900
v -0.02104600 0.01019800 0.01114600
v -0.08240600 -0.01869600 -0.01059800
v -0.07431900 -0.02077400 0.01118200
v 0.00045200 0.01643800 0.01321400
v -0.00845200 -0.01770800 0.01213800
v -0.04198600 -0.05056500 -0.00013500
v -0.09548900 0.00273300 -0.01282200
v -0.07295300 -0.03338300 -0.01172200
v -0.01021900 -0.01213800 0.01728600
v -0.08971700 -0.02478800 0.01292500
v -0.01297000 0.00814300 -0.01272200
v -0.04077900 0.04076000 -0.01148700
v -0.08663000 -0.01035600 0.01324400
v -0.09149100 0.00571000 0.01064800
v -0.10531200 -0.01088400 0.01182100
v -0.03149400 -0.04864600 0.01185700
v -0.01218800 0.02774100 -0.00894100
v -0.08735400 -0.00981800 -0.00124300
v -0.08076400 0.00592000 -0.00534700
v -0.05566800 0.01121800 -0.01148500
v 0.00397000 0.00670800 0.00905700
v -0.00256200 -0.00950100 0.00871600
v -0.06384700 0.02820100 -0.00924200
v -0.07391100 -0.00211900 0.01093000
v -0.07829700 0.00839700 0.00719700
v -0.03412400 0.03612500 -0.00811100
v 0.00132500 0.00966500 -0.00926700
v -0.00578100 -0.03088700 -0.00810000
v -0.01057600 0.00399500 0.00965100
v -0.04607500 0.03202700 0.00927500
v -0.04919000 -0.04245100 0.00892500
v 0.01240400 -0.03423600 0.00411400
v 0.00618100 -0.00264700 0.01726700
v -0.00167900 -0.03345500 0.01140600
v 0.00512400 -0.00576600 0.00938500
v 0.01128700 -0.00897000 0.01195900
v 0.00892500 0.01234200 0.01180200
v 0.04392900 -0.02822200 0.01151800
v 0.02397200 0.04836500 0.01209700
v 0.00378300 0.03804700 -0.00281500
v 0.00295800 0.03140200 -0.01125900
v -0.00058400 0.03029400 0.01217300
v -0.05081100 0.03931700 0.01229000
v -0.02998500 0.04538300 0.00113000
v 0.03741400 0.04072200 0.00994400
v 0.05499200 0.06592700 -0.00019500
v 0.03734000 0.03814300 -0.01155600
v 0.05693700 0.05875200 -0.01146200
v 0.05082000 0.06627000 -0.01151000
v 0.08005500 0.08873400 -0.00809200
v 0.06929300 0.08849400 0.00875600
v 0.07640300 0.08586500 0.01324700
v 0.07157700 0.09478500 -0.00306400
v 0.01075900 0.02741500 -0.00126000
v 0.05497300 0.05376700 0.01208300
v 0.05308300 0.07471100 -0.00670000
v 0.03237300 0.05147300 0.00888800
v 0.00808100 0.02413600 -0.00910800
v 0.03586900 0.05569600 -0.00680900
vn 0.37819585 -0.92572011 0.00319107
vn -0.95381559 -0.23396823 -0.18840031
vn 0.34033489 0.43426844 -0.83401624
vn 0.29138507 -0.35694222 -0.88751732
vn 0.00301566 -0.64908646 -0.76070867
vn -0.57642148 0.81344804 -0.07772103
vn 0.11203048 -0.42208620 -0.89960681
vn -0.43738742 0.76206625 0.47743825
vn 0.34632309 0.72442408 0.59604536
vn -0.42111398 0.52877431 -0.73692655
vn 0.45511597 0.84325592 0.28598761
vn 0.98291761 0.04287663 0.17898200
vn 0.24719655 0.44589239 0.86027545
vn 0.07801650 -0.97461561 -0.20985196
vn 0.59113200 -0.08192955 -0.80240296
vn 0.46509029 0.64889651 -0.60218298
vn 0.96129985 -0.19560974 0.19400885
vn 0.81462812 0.57405231 -0.08273439
vn -0.09272591 -0.33085514 -0.93911489
vn 0.40115081 0.41723120 0.81547296
vn -0.37363665 -0.84283154 -0.38733791
vn 0.71175072 -0.68244701 0.16636405
vn -0.11492473 -0.39177296 0.91285610
vn -0.17233165 0.38285723 0.90759140
vn 0.33548562 0.89401778 0.29695390
vn 0.39675252 0.82762600 -0.39701718
vn -0.19209334 -0.50708134 0.84021942
vn 0.49317757 0.84467738 -0.20807692
vn 0.52248749 0.84855622 0.08342163
vn 0.60875996 0.77488421 0.17019335
vn 0.48767261 0.84188335 -0.23110139
vn 0.42004991 0.88355282 -0.20710504
vn 0.38801006 0.89187215 0.23240536
vn -0.79051549 -0.10490666 -0.60339030
vn 0.48732987 -0.12305709 -0.86450364
vn 0.09638816 -0.57487806 -0.81254202
vn -0.75473574 -0.14321170 0.64020651
vn -0.94934652 -0.28252572 -0.13755147
vn 0.47951413 0.49030185 -0.72778451
vn 0.50681752 0.61174799 0.60737171
vn 0.11208923 0.11046494 0.98753911
vn -0.10687785 -0.13848753 0.98458028
vn -0.22009585 -0.97547796 0.00075531
vn -0.35633942 0.50379824 -0.78689869
vn -0.35356446 -0.58793101 -0.72755020
vn -0.60214076 -0.44755599 0.66115062
vn -0.39490946 -0.61358626 0.68378244
vn -0.86949263 0.22347365 -0.44050210
vn -0.20112682 0.67671998 -0.70823588
vn 0.31503281 0.17107144 0.93353569
vn -0.50901249 0.53294133 0.67592886
vn -0.81796088 -0.03758916 0.57404448
vn 0.03035769 -0.69351916 0.71979829
vn -0.12709417 -0.75087775 0.64809696
vn 0.92908317 0.20372539 -0.30870768
vn 0.65495703 -0.75239151 -0.07027313
vn 0.56857569 -0.81598883 -0.10432602
vn 0.88494604 0.35282776 -0.30394585
vn -0.16753492 -0.14001463 -0.97587292
vn 0.50093439 -0.69158741 0.52035718
vn 0.83327922 -0.44147869 0.33277966
vn 0.68791909 -0.41938525 -0.59235407
vn -0.13612677 -0.87965923 0.45570730
vn 0.51917704 0.42583608 0.74102553
vn -0.34350859 0.81796419 0.46145035
vn -0.72860252 -0.04835486 -0.68322776
vn 0.14803137 -0.71376237 -0.68456555
vn 0.20659628 0.82712790 -0.52266377
vn -0.12610271 -0.96199020 0.24222503
vn 0.69457240 0.07853737 0.71512311
vn 0.19903169 -0.48782326 0.84994991
vn 0.78075203 0.07540774 -0.62027408
vn 0.56043517 0.56579279 0.60480652
vn 0.42508351 -0.51133851 0.74688482
vn 0.49191905 0.84497071 0.20985747
vn -0.36620591 0.44892550 0.81508228
vn -0.30607128 0.93825612 -0.16123218
vn -0.06793013 0.41056531 -0.90929732
vn -0.04373504 0.40654355 0.91258402
vn -0.33054966 0.69519278 0.63831334
vn 0.06978634 0.99283892 0.09695745
vn 0.29241980 -0.29443080 -0.90983579
vn 0.84324465 -0.47639722 -0.24896614
vn 0.64416099 -0.74800344 -0.15983580
vn 0.70732037 -0.59485818 -0.38189218
vn -0.21164570 0.30199596 -0.92951845
vn 0.83263194 -0.00437646 -0.55380944
vn 0.40003076 -0.82744213 -0.39410013
vn -0.93121678 0.30776539 -0.19523261
vn -0.08869270 0.98185487 -0.16761449
vn 0.44765819 -0.87580366 0.18047186
vn 0.55331149 -0.76453384 0.33065752
vn 0.86021216 -0.38900696 0.32970992
vn 0.54039198 -0.67509253 -0.50222165
vn 0.29385217 -0.70302010 0.64762153
vn 0.68939305 -0.71041316 0.14159933
f 2//2 4//4 6//6
f 3//3 4//4 12//12
f 6//6 7//7 5//5
f 24//24 6//6 8//8
f 6//6 4//4 3//3
f 48//48 35//35 4//4
f 4//4 35//35 12//12
f 43//43 5//5 1//1
f 6//6 3//3 7//7
f 1//1 7//7 14//14
f 64//64 12//12 35//35
f 2//2 48//48 4//4
f 7//7 1//1 5//5
f 8//8 10//10 24//24
f 2//2 24//24 12//12
f 29//29 32//32 28//28
f 15//15 18//18 20//20
f 15//15 21//21 19//19
f 75//75 11//11 28//28
f 15//15 19//19 18//18
f 27//27 69//69 22//22
f 30//30 31//31 16//16
f 19//19 3//3 18//18
f 25//25 13//13 24//24
f 21//21 14//14 19//19
f 22//22 17//17 27//27
f 13//13 18//18 3//3
f 12//12 13//13 3//3
f 14//14 21//21 69//69
f 18//18 13//13 20//20
f 14//14 7//7 19//19
f 19//19 7//7 3//3
f 23//23 69//69 27//27
f 75//75 23//23 27//27
f 15//15 20//20 30//30
f 13//13 12//12 24//24
f 26//26 11//11 31//31
f 11//11 16//16 31//31
f 11//11 17//17 16//16
f 11//11 75//75 27//27
f 17//17 11//11 27//27
f 16//16 17//17 22//22
f 29//29 28//28 26//26
f 33//33 31//31 20//20
f 21//21 22//22 69//69
f 21//21 15//15 22//22
f 28//28 11//11 26//26
f 30//30 20//20 31//31
f 33//33 13//13 25//25
f 13//13 33//33 20//20
f 32//32 25//25 24//24
f 16//16 15//15 30//30
f 16//16 22//22 15//15
f 33//33 32//32 29//29
f 31//31 33//33 29//29
f 24//24 65//65 32//32
f 29//29 26//26 31//31
f 32//32 33//33 25//25
f 66//66 48//48 59//59
f 51//51 52//52 61//61
f 12//12 64//64 72//72
f 58//58 72//72 64//64
f 34//34 45//45 47//47
f 34//34 44//44 39//39
f 34//34 39//39 45//45
f 48//48 49//49 35//35
f 64//64 35//35 95//95
f 39//39 6//6 45//45
f 45//45 6//6 5//5
f 35//35 84//84 95//95
f 51//51 44//44 34//34
f 36//36 66//66 38//38
f 39//39 9//9 6//6
f 43//43 47//47 45//45
f 41//41 38//38 37//37
f 79//79 38//38 41//41
f 52//52 34//34 47//47
f 70//70 41//41 37//37
f 68//68 40//40 42//42
f 40//40 50//50 47//47
f 57//57 56//56 44//44
f 53//53 1//1 71//71
f 50//50 52//52 47//47
f 42//42 53//53 71//71
f 24//24 2//2 6//6
f 42//42 40//40 53//53
f 66//66 68//68 42//42
f 79//79 41//41 74//74
f 46//46 66//66 42//42
f 37//37 38//38 66//66
f 66//66 46//46 37//37
f 44//44 49//49 57//57
f 45//45 5//5 43//43
f 38//38 61//61 67//67
f 46//46 70//70 37//37
f 61//61 38//38 80//80
f 43//43 53//53 47//47
f 80//80 51//51 61//61
f 54//54 57//57 48//48
f 49//49 44//44 80//80
f 52//52 51//51 34//34
f 48//48 57//57 49//49
f 53//53 40//40 47//47
f 51//51 80//80 44//44
f 81//81 49//49 80//80
f 80//80 38//38 79//79
f 81//81 80//80 79//79
f 67//67 61//61 62//62
f 53//53 43//43 1//1
f 2//2 59//59 48//48
f 54//54 48//48 64//64
f 39//39 44//44 55//55
f 55//55 44//44 56//56
f 62//62 55//55 56//56
f 66//66 59//59 10//10
f 10//10 68//68 66//66
f 36//36 58//58 66//66
f 36//36 38//38 67//67
f 6//6 9//9 8//8
f 62//62 56//56 60//60
f 68//68 9//9 40//40
f 67//67 60//60 63//63
f 60//60 57//57 63//63
f 55//55 61//61 50//50
f 52//52 50//50 61//61
f 63//63 57//57 54//54
f 40//40 9//9 39//39
f 2//2 12//12 72//72
f 66//66 64//64 48//48
f 55//55 50//50 40//40
f 64//64 95//95 54//54
f 10//10 59//59 65//65
f 58//58 64//64 66//66
f 56//56 57//57 60//60
f 61//61 55//55 62//62
f 67//67 62//62 60//60
f 39//39 55//55 40//40
f 72//72 59//59 2//2
f 54//54 95//95 91//91
f 63//63 54//54 67//67
f 54//54 36//36 67//67
f 10//10 65//65 24//24
f 68//68 8//8 9//9
f 91//91 36//36 54//54
f 68//68 10//10 8//8
f 72//72 75//75 28//28
f 71//71 1//1 14//14
f 71//71 14//14 69//69
f 71//71 69//69 23//23
f 42//42 23//23 73//73
f 28//28 59//59 72//72
f 70//70 73//73 72//72
f 73//73 23//23 75//75
f 58//58 70//70 72//72
f 70//70 58//58 41//41
f 42//42 71//71 23//23
f 73//73 46//46 42//42
f 41//41 58//58 74//74
f 46//46 73//73 70//70
f 28//28 32//32 59//59
f 73//73 75//75 72//72
f 59//59 32//32 65//65
f 49//49 78//78 35//35
f 76//76 77//77 79//79
f 81//81 77//77 78//78
f 78//78 84//84 35//35
f 77//77 81//81 79//79
f 81//81 78//78 49//49
f 78//78 86//86 84//84
f 77//77 86//86 78//78
f 94//94 36//36 91//91
f 82//82 94//94 92//92
f 89//89 76//76 92//92
f 90//90 77//77 76//76
f 87//87 85//85 86//86
f 84//84 86//86 85//85
f 77//77 90//90 86//86
f 87//87 86//86 90//90
f 96//96 84//84 85//85
f 74//74 58//58 82//82
f 76//76 74//74 92//92
f 74//74 76//76 79//79
f 83//83 96//96 85//85
f 87//87 93//93 85//85
f 76//76 89//89 90//90
f 82//82 58//58 36//36
f 88//88 89//89 92//92
f 74//74 82//82 92//92
f 88//88 87//87 89//89
f 87//87 90//90 89//89
f 94//94 82//82 36//36
f 83//83 91//91 95//95
f 95//95 96//96 83//83
f 96//96 95//95 84//84
f 88//88 93//93 87//87
f 83//83 85//85 93//93
f 88//88 83//83 93//93
f 88//88 92//92 83//83
f 91//91 83//83 94//94
f 92//92 94//94 83//83

