# https://github.com/mikedh/trimesh
v -0.00284800 -0.02577300 -0.11211900
v 0.01329500 -0.02986700 -0.10804200
v -0.05047600 -0.02405200 -0.10577400
v -0.03881600 -0.02969900 -0.10790100
v -0.04569800 -0.02513000 -0.11075200
v -0.05092500 0.00029300 -0.06441100
v -0.03271100 -0.02554200 -0.11110700
v -0.00889300 -0.03118100 -0.09366300
v -0.03731900 -0.02685400 -0.09293000
v -0.04161700 -0.02210500 -0.04793600
v -0.00345000 -0.03051500 -0.08822700
v -0.04705700 -0.02753700 -0.09867000
v -0.04430200 -0.02279900 -0.09218200
v -0.04977000 -0.01256700 -0.09141200
v -0.04723100 -0.01615400 -0.06228100
v -0.01882000 -0.02831300 -0.06329600
v -0.05502100 -0.01211800 -0.10709200
v -0.05503500 -0.01125400 -0.09844100
v -0.05095900 0.00773800 -0.09051900
v -0.02669500 -0.03095900 -0.09754900
v -0.01689600 -0.03075600 -0.10960200
v -0.03712000 -0.02473600 -0.05715500
v -0.04715400 -0.00510100 -0.01308100
v -0.04478000 -0.01491800 -0.02163200
v -0.00467200 -0.02490800 0.00714700
v 0.02205700 -0.02899900 -0.09010000
v 0.03921900 -0.01896600 -0.02522400
v 0.00856600 -0.02532400 -0.00988600
v 0.01751300 -0.02866500 -0.08231900
v 0.01661900 -0.02514200 -0.02117000
v 0.03658700 -0.01916600 0.01945600
v 0.03451400 -0.02174300 -0.02052200
v 0.04255300 -0.01313700 0.02249500
v -0.02399200 -0.00687700 -0.10983100
v -0.04597400 0.03268300 -0.09818700
v -0.04745700 0.02337600 -0.09133200
v -0.04961900 0.00943700 -0.04733200
v -0.01095700 0.03156200 -0.11193400
v -0.05186800 -0.00716600 -0.11206900
v -0.01165200 0.03541700 -0.11025000
v -0.05636100 0.00613900 -0.10765000
v -0.03510200 0.03606700 -0.10591100
v -0.04021000 0.02774400 -0.03946700
v -0.05614900 0.00373900 -0.09811800
v 0.00168400 0.03448600 -0.11002100
v 0.02244900 0.01728500 -0.11056400
v -0.05121300 0.01145500 -0.11164000
v 0.02541600 0.02703000 -0.11183100
v -0.04589900 0.02011400 -0.03873100
v -0.04278400 0.02057000 -0.00796600
v -0.04894200 0.02934000 -0.11044600
v -0.03648100 0.02791500 -0.01621700
v 0.02620700 0.03232200 -0.10744800
v -0.05278000 0.02256200 -0.09763400
v -0.02651600 0.01779900 -0.11032700
v -0.04147800 0.03083500 -0.09298700
v -0.00246500 0.03524200 -0.08963300
v 0.01339800 0.03468600 -0.09565100
v -0.02058900 0.03462400 -0.09201100
v 0.03267500 -0.02534300 -0.11023300
v 0.03616700 -0.01699900 -0.11153500
v 0.04160100 -0.00753600 -0.10691700
v 0.04158900 0.01442200 -0.10688400
v 0.03484700 0.02874000 -0.10929900
v 0.03333700 -0.02480200 -0.07787300
v 0.03912100 0.02305500 -0.10788600
v 0.03510700 0.02851800 -0.08332500
v 0.04480800 -0.00929500 0.00268600
v 0.03780800 0.01125300 -0.11152900
v 0.03872200 -0.01886200 -0.10759700
v 0.04533400 0.00443400 -0.04774600
v 0.04446600 -0.00690800 -0.04759600
v 0.03779200 -0.02124900 -0.07182100
v 0.04512400 0.01259300 -0.01764700
v 0.03669800 0.02614600 -0.04333400
v 0.04618900 0.00190400 0.01074400
v 0.04054800 0.02262100 -0.04897500
v 0.02858700 0.02900600 -0.05398500
v 0.04154100 0.01981900 0.01202800
v -0.03997500 -0.01748000 0.00624600
v -0.02723800 0.01037600 0.06847400
v -0.04448500 0.00681500 0.00923300
v -0.03445600 0.01873800 0.04757800
v -0.03609500 -0.00896800 0.04864600
v -0.03725900 0.00316900 0.04848100
v -0.02396100 -0.02388600 0.00232500
v -0.01147800 -0.02217600 0.07534700
v -0.02779500 -0.01997500 0.05223900
v -0.02297600 -0.02116700 0.05268500
v -0.00301600 -0.02176000 0.04793800
v -0.00654700 0.01337800 0.11762600
v 0.01990000 -0.02434200 0.07442100
v 0.03550500 0.00038800 0.10917700
v 0.04612800 0.00291000 0.08007200
v 0.02177100 -0.01784400 0.10878600
v -0.02433900 -0.01004700 0.08872100
v 0.02533900 -0.02274200 -0.00248300
v -0.02749700 -0.00996700 0.10189600
v -0.01873200 -0.01749100 0.10387100
v -0.02220600 0.01469200 0.08215000
v 0.02059200 0.02272900 0.10905200
v 0.02759900 -0.01941900 0.04832400
v -0.01195000 -0.00664300 0.11488900
v -0.02409700 0.02555500 0.05706000
v -0.01972700 0.02485200 0.06685100
v 0.03279900 0.01067700 0.10938900
v 0.00154900 -0.02234000 0.10778000
v 0.04185400 -0.00787100 0.07118800
v 0.00847300 -0.02084300 0.06429500
v 0.03505600 -0.01697600 0.06961300
v 0.04511500 0.00095300 0.04848600
v 0.03985900 -0.01743600 0.07819200
v -0.01764700 -0.01634400 0.07849700
v -0.02426400 -0.00789900 0.07540300
v 0.00136300 0.01718300 0.13158500
v -0.00949300 -0.00607800 0.13110600
v 0.04302000 0.00618200 0.06746900
v 0.00056700 -0.02501800 0.06795700
v -0.00507100 -0.01132900 0.11865600
v 0.01945700 -0.00455100 0.11659600
v 0.02013300 0.00137300 0.12992300
v 0.01561800 0.00311600 0.13310100
v -0.00538200 -0.00566100 0.13731900
v 0.01409200 0.01246600 0.13833800
v 0.01414800 0.01455000 0.13035100
v -0.00272300 0.02668600 0.10647500
v 0.00957900 -0.01212400 0.13093800
v 0.00405700 0.01774300 0.11868800
v 0.01050400 -0.00817100 0.13845600
v 0.00465900 0.02675800 0.10710500
v 0.01472500 0.01330200 0.11701800
v -0.02591300 0.00140800 0.08511200
v -0.03149300 0.00788900 0.10120800
v -0.03114100 0.00154300 0.09630700
v -0.01017800 0.00451300 0.11768800
v -0.00972600 0.01043000 0.13825000
v -0.02035300 0.02136600 0.10250800
v -0.00729100 0.01219800 0.13298100
v -0.01019900 0.02690800 0.08204600
v -0.01774600 0.02992800 -0.00225000
v -0.03343200 0.02640500 0.01922100
v 0.04408800 0.01299800 0.03759300
v 0.01066800 0.03041200 -0.02730900
v -0.00158800 0.02596000 0.06078900
v 0.03792400 0.01822400 0.06780200
v 0.00040100 0.02842000 0.02086900
v 0.03159400 0.02587600 0.07690600
v 0.03506800 0.02304800 0.03165100
v 0.02632300 0.02268000 0.06632700
v -0.00597500 0.02910700 0.06518500
v 0.04214700 0.01747700 0.07925400
v 0.01131200 0.02955700 0.07163400
vn 0.01924674 -0.25057609 -0.96790557
vn 0.09649573 -0.89782768 -0.42964409
vn -0.77965324 -0.58461916 -0.22441315
vn -0.18591587 -0.88925984 -0.41791414
vn -0.37613203 -0.52799565 -0.76141007
vn -0.99727250 -0.06157226 0.04069910
vn -0.03219845 -0.26010820 -0.96504248
vn -0.01003338 -0.99902497 0.04299346
vn -0.26901081 -0.92075311 0.28257192
vn -0.60208133 -0.79469183 0.07722024
vn 0.04323582 -0.99648502 0.07175138
vn -0.56423133 -0.77715985 0.27868544
vn -0.65507382 -0.65887973 0.36980507
vn -0.90638747 -0.28578851 0.31110557
vn -0.90600297 -0.41905723 0.05957895
vn -0.11084109 -0.99218735 0.05725829
vn -0.90954148 -0.23999075 -0.33932100
vn -0.92633070 -0.21913082 0.30641984
vn -0.95640981 0.10689323 0.27176112
vn -0.09551291 -0.97030318 0.22223643
vn -0.02070459 -0.82381543 -0.56647988
vn -0.29857910 -0.95248151 0.06024534
vn -0.98284624 -0.15051542 0.10657567
vn -0.88863752 -0.45243634 0.07499808
vn -0.00028071 -0.99782837 0.06586703
vn 0.19899698 -0.97910647 0.04184157
vn 0.72281415 -0.69085796 0.01596816
vn 0.08236137 -0.99459346 0.06324922
vn 0.12563384 -0.98854202 0.08367087
vn 0.13656422 -0.98910258 0.05501188
vn 0.47231223 -0.87999145 0.05036075
vn 0.36508194 -0.93009423 0.04049577
vn 0.85592344 -0.51468904 0.04990239
vn 0.01867421 0.03028376 -0.99936688
vn -0.54263504 0.78635536 0.29528371
vn -0.83351072 0.46419847 0.29963255
vn -0.98615221 0.15299626 0.06399972
vn -0.11577590 0.19155690 -0.97462911
vn -0.42009277 -0.07260254 -0.90457224
vn -0.03875259 0.79817955 -0.60117188
vn -0.92372419 0.07944191 -0.37473004
vn -0.15683341 0.95231980 -0.26170647
vn -0.55740491 0.82841837 0.05497972
vn -0.95113432 0.02642910 0.30764429
vn 0.07829964 0.80945921 -0.58193209
vn -0.04408940 -0.05862988 -0.99730570
vn -0.34998041 0.06988819 -0.93414632
vn 0.07681304 0.27216796 -0.95917900
vn -0.89566608 0.43870033 0.07296777
vn -0.86518931 0.49002790 0.10639605
vn -0.56013404 0.52432942 -0.64134898
vn -0.44131981 0.89373871 0.08042349
vn 0.21995734 0.89914356 -0.37836442
vn -0.88747187 0.35003369 0.29978342
vn 0.02779804 -0.03320411 -0.99906194
vn -0.43845387 0.82894290 0.34729220
vn 0.01748210 0.99900509 0.04102700
vn 0.13061744 0.99141273 0.00631528
vn -0.09627352 0.98719517 0.12718924
vn 0.41702596 -0.69301353 -0.58806598
vn 0.43316439 -0.15369122 -0.88811464
vn 0.90657254 -0.08579781 -0.41323717
vn 0.92658069 0.12068549 -0.35620674
vn 0.52122569 0.64767706 -0.55573214
vn 0.45799716 -0.88873249 0.01982844
vn 0.82559945 0.37162995 -0.42459007
vn 0.54112112 0.84078697 0.01628500
vn 0.94971526 -0.31310682 0.00224817
vn 0.42530094 0.01926900 -0.90484684
vn 0.85298990 -0.42673814 -0.30050424
vn 0.99874364 0.03620381 -0.03464705
vn 0.97830771 -0.20522465 -0.02822900
vn 0.76190430 -0.64768955 -0.00029930
vn 0.96757097 0.25256358 -0.00424969
vn 0.50002688 0.86533308 0.03423134
vn 0.99989199 0.00106081 0.01465868
vn 0.83807219 0.54552978 -0.00568016
vn 0.22894919 0.97191820 0.05438088
vn 0.76797333 0.63959674 0.03365974
vn -0.77235786 -0.62261716 0.12574262
vn -0.92040135 0.23568511 0.31195174
vn -0.98236266 0.10652081 0.15367796
vn -0.84139396 0.46570070 0.27418801
vn -0.90940002 -0.29798913 0.29016216
vn -0.94916648 0.03285365 0.31305532
vn -0.16366715 -0.98479452 0.05824793
vn -0.36756271 -0.92345208 0.11015405
vn -0.58503479 -0.78291188 0.21162060
vn -0.15726845 -0.98649386 0.04578747
vn 0.02303623 -0.99779533 0.06223994
vn -0.63495316 0.65074319 0.41637457
vn 0.21084861 -0.96193114 -0.17387163
vn 0.75541251 -0.12556502 0.64310602
vn 0.99697921 -0.01020495 0.07699557
vn 0.39670781 -0.73190505 0.55401977
vn -0.87978060 -0.43569875 -0.19013864
vn 0.16846842 -0.98417630 0.05491270
vn -0.82207607 -0.46216390 0.33255896
vn -0.49974153 -0.76946208 0.39772669
vn -0.85407657 0.51954361 0.02505299
vn 0.35394527 0.75975478 0.54543140
vn 0.13853036 -0.98891593 0.05342872
vn -0.56026135 -0.31432140 0.76636107
vn -0.48062413 0.84431959 0.23690689
vn -0.58579345 0.77122207 0.24912357
vn 0.66944367 0.36167028 0.64887579
vn -0.06761943 -0.89558487 0.43972190
vn 0.93670139 -0.33549374 -0.10017214
vn 0.15040335 -0.95090906 -0.27046403
vn 0.52747569 -0.83175274 -0.17308023
vn 0.99692964 -0.05256941 0.05803231
vn 0.72585245 -0.68784276 -0.00324790
vn -0.72183531 -0.68582245 0.09274346
vn -0.92557758 -0.33426169 0.17769429
vn -0.12493006 0.91119594 0.39257411
vn -0.80549741 -0.55143494 0.21701021
vn 0.98678187 0.15303704 -0.05330292
vn 0.02906460 -0.97631408 -0.21439700
vn -0.47906607 -0.79403503 0.37417119
vn 0.65720862 -0.39355505 0.64279954
vn 0.90680896 -0.06198468 0.41695972
vn 0.77703087 0.01324964 0.62932303
vn -0.41534483 -0.53876752 0.73295172
vn 0.67696217 0.61539171 0.40375149
vn 0.55068467 0.66856419 0.49976826
vn -0.20317574 0.89828509 0.38961970
vn 0.31896405 -0.92680084 0.19824767
vn 0.02834313 0.93670245 0.34897736
vn 0.43644629 -0.54092237 0.71896983
vn 0.07910788 0.91765671 0.38942021
vn 0.58760884 0.62561521 0.51314857
vn -0.98176215 -0.02177677 -0.18886199
vn -0.91721897 0.25644175 0.30487210
vn -0.97963240 -0.09923861 -0.17456249
vn -0.88977391 0.09027963 0.44738349
vn -0.63641659 0.44062460 0.63310653
vn -0.60724984 0.71820396 0.33975096
vn -0.38878684 0.90149284 0.19014589
vn -0.41459833 0.90619830 0.08314362
vn -0.07130723 0.99569932 0.05914512
vn -0.49721664 0.86118661 0.10551420
vn 0.93536766 0.34908655 0.05679714
vn 0.12296334 0.99057955 0.06026749
vn 0.09506497 0.96946351 -0.22606006
vn 0.70747964 0.69613284 -0.12194927
vn 0.06627910 0.99586388 0.06214664
vn 0.42180819 0.90427817 -0.06602153
vn 0.37659139 0.92439977 0.06053098
vn 0.27011165 0.94301618 -0.19431979
vn -0.05083956 0.97488080 -0.21684732
vn 0.83488750 0.54700474 0.06122639
vn 0.12716309 0.97223317 -0.19644902
f 4//4 21//21 20//20
f 1//1 60//60 2//2
f 15//15 10//10 24//24
f 1//1 34//34 61//61
f 1//1 2//2 21//21
f 3//3 5//5 4//4
f 24//24 6//6 15//15
f 21//21 2//2 8//8
f 3//3 4//4 12//12
f 12//12 4//4 20//20
f 12//12 20//20 9//9
f 8//8 2//2 26//26
f 39//39 5//5 17//17
f 5//5 39//39 7//7
f 23//23 82//82 37//37
f 3//3 17//17 5//5
f 41//41 39//39 17//17
f 8//8 26//26 11//11
f 11//11 26//26 29//29
f 39//39 47//47 34//34
f 6//6 23//23 37//37
f 9//9 20//20 8//8
f 50//50 49//49 37//37
f 50//50 37//37 82//82
f 16//16 9//9 8//8
f 1//1 21//21 7//7
f 5//5 7//7 4//4
f 21//21 4//4 7//7
f 16//16 22//22 9//9
f 1//1 7//7 34//34
f 34//34 7//7 39//39
f 16//16 8//8 11//11
f 13//13 14//14 12//12
f 88//88 10//10 86//86
f 13//13 12//12 9//9
f 13//13 9//9 10//10
f 15//15 14//14 13//13
f 15//15 13//13 10//10
f 9//9 22//22 10//10
f 3//3 18//18 17//17
f 3//3 12//12 18//18
f 14//14 18//18 12//12
f 25//25 16//16 11//11
f 18//18 44//44 17//17
f 44//44 41//41 17//17
f 86//86 16//16 25//25
f 14//14 19//19 18//18
f 19//19 44//44 18//18
f 6//6 19//19 14//14
f 20//20 21//21 8//8
f 6//6 14//14 15//15
f 22//22 16//16 86//86
f 80//80 24//24 10//10
f 10//10 22//22 86//86
f 80//80 10//10 88//88
f 24//24 80//80 23//23
f 23//23 6//6 24//24
f 2//2 60//60 26//26
f 33//33 27//27 68//68
f 65//65 26//26 60//60
f 90//90 25//25 28//28
f 29//29 26//26 65//65
f 30//30 28//28 11//11
f 25//25 11//11 28//28
f 27//27 31//31 32//32
f 32//32 29//29 65//65
f 65//65 27//27 32//32
f 73//73 27//27 65//65
f 29//29 32//32 30//30
f 30//30 97//97 28//28
f 27//27 73//73 68//68
f 11//11 29//29 30//30
f 32//32 97//97 30//30
f 97//97 32//32 31//31
f 31//31 27//27 33//33
f 33//33 68//68 111//111
f 37//37 36//36 19//19
f 1//1 61//61 60//60
f 34//34 55//55 46//46
f 61//61 34//34 46//46
f 55//55 38//38 46//46
f 56//56 35//35 54//54
f 47//47 55//55 34//34
f 36//36 56//56 54//54
f 59//59 35//35 56//56
f 38//38 40//40 45//45
f 41//41 47//47 39//39
f 47//47 41//41 51//51
f 59//59 57//57 42//42
f 54//54 51//51 41//41
f 50//50 43//43 49//49
f 43//43 50//50 52//52
f 38//38 48//48 46//46
f 54//54 41//41 44//44
f 38//38 45//45 48//48
f 52//52 59//59 43//43
f 44//44 36//36 54//54
f 69//69 46//46 48//48
f 55//55 47//47 40//40
f 69//69 48//48 64//64
f 53//53 64//64 48//48
f 40//40 47//47 51//51
f 42//42 40//40 51//51
f 37//37 49//49 36//36
f 53//53 48//48 45//45
f 55//55 40//40 38//38
f 50//50 141//141 52//52
f 56//56 36//36 49//49
f 51//51 54//54 35//35
f 40//40 58//58 45//45
f 53//53 45//45 58//58
f 35//35 42//42 51//51
f 57//57 58//58 40//40
f 35//35 59//59 42//42
f 57//57 40//40 42//42
f 43//43 56//56 49//49
f 59//59 56//56 43//43
f 58//58 67//67 53//53
f 19//19 36//36 44//44
f 19//19 6//6 37//37
f 59//59 140//140 57//57
f 52//52 140//140 59//59
f 143//143 58//58 57//57
f 57//57 140//140 146//146
f 146//146 143//143 57//57
f 78//78 143//143 148//148
f 79//79 75//75 148//148
f 61//61 70//70 60//60
f 69//69 66//66 63//63
f 69//69 64//64 66//66
f 69//69 61//61 46//46
f 62//62 70//70 61//61
f 72//72 70//70 62//62
f 70//70 73//73 65//65
f 65//65 60//60 70//70
f 67//67 64//64 53//53
f 66//66 64//64 67//67
f 77//77 75//75 79//79
f 77//77 66//66 67//67
f 77//77 63//63 66//66
f 75//75 77//77 67//67
f 72//72 62//62 71//71
f 67//67 58//58 78//78
f 70//70 72//72 68//68
f 63//63 62//62 61//61
f 69//69 63//63 61//61
f 71//71 62//62 63//63
f 76//76 68//68 72//72
f 78//78 75//75 67//67
f 63//63 74//74 71//71
f 68//68 73//73 70//70
f 76//76 72//72 71//71
f 63//63 77//77 74//74
f 71//71 74//74 76//76
f 143//143 78//78 58//58
f 142//142 74//74 79//79
f 79//79 74//74 77//77
f 78//78 148//148 75//75
f 81//81 85//85 84//84
f 85//85 82//82 84//84
f 89//89 88//88 86//86
f 83//83 82//82 85//85
f 84//84 80//80 88//88
f 82//82 83//83 50//50
f 50//50 83//83 141//141
f 23//23 84//84 82//82
f 104//104 141//141 83//83
f 84//84 23//23 80//80
f 141//141 104//104 140//140
f 81//81 83//83 85//85
f 81//81 104//104 83//83
f 81//81 105//105 104//104
f 151//151 94//94 117//117
f 113//113 96//96 114//114
f 93//93 112//112 94//94
f 89//89 86//86 25//25
f 132//132 114//114 96//96
f 25//25 90//90 89//89
f 87//87 118//118 107//107
f 133//133 135//135 137//137
f 99//99 113//113 87//87
f 109//109 89//89 90//90
f 135//135 91//91 137//137
f 118//118 92//92 107//107
f 109//109 92//92 118//118
f 136//136 91//91 135//135
f 136//136 138//138 91//91
f 106//106 93//93 94//94
f 128//128 137//137 91//91
f 128//128 126//126 137//137
f 106//106 94//94 151//151
f 112//112 93//93 95//95
f 120//120 95//95 93//93
f 90//90 28//28 102//102
f 109//109 90//90 102//102
f 134//134 132//132 96//96
f 107//107 92//92 95//95
f 112//112 95//95 92//92
f 134//134 96//96 98//98
f 98//98 133//133 134//134
f 98//98 103//103 133//133
f 102//102 28//28 97//97
f 96//96 113//113 98//98
f 98//98 113//113 99//99
f 102//102 97//97 31//31
f 106//106 131//131 120//120
f 33//33 110//110 31//31
f 31//31 110//110 102//102
f 104//104 144//144 140//140
f 93//93 106//106 120//120
f 150//150 144//144 104//104
f 103//103 99//99 107//107
f 103//103 98//98 99//99
f 81//81 84//84 114//114
f 130//130 101//101 147//147
f 81//81 114//114 132//132
f 33//33 111//111 108//108
f 100//100 81//81 132//132
f 150//150 104//104 105//105
f 87//87 107//107 99//99
f 100//100 105//105 81//81
f 100//100 139//139 105//105
f 137//137 139//139 100//100
f 107//107 95//95 119//119
f 139//139 150//150 105//105
f 107//107 119//119 103//103
f 106//106 101//101 131//131
f 108//108 110//110 33//33
f 130//130 152//152 150//150
f 95//95 120//120 119//119
f 109//109 102//102 110//110
f 110//110 92//92 109//109
f 117//117 108//108 111//111
f 112//112 92//92 110//110
f 84//84 88//88 114//114
f 108//108 112//112 110//110
f 88//88 87//87 113//113
f 89//89 87//87 88//88
f 115//115 91//91 138//138
f 88//88 113//113 114//114
f 115//115 128//128 91//91
f 89//89 109//109 118//118
f 127//127 116//116 119//119
f 94//94 108//108 117//117
f 87//87 89//89 118//118
f 94//94 112//112 108//108
f 127//127 120//120 121//121
f 135//135 103//103 119//119
f 135//135 119//119 116//116
f 121//121 122//122 127//127
f 123//123 116//116 127//127
f 121//121 120//120 131//131
f 125//125 121//121 131//131
f 125//125 122//122 121//121
f 124//124 129//129 122//122
f 127//127 119//119 120//120
f 122//122 125//125 115//115
f 130//130 126//126 128//128
f 129//129 127//127 122//122
f 129//129 123//123 127//127
f 131//131 101//101 130//130
f 128//128 131//131 130//130
f 128//128 125//125 131//131
f 115//115 125//125 128//128
f 134//134 100//100 132//132
f 123//123 136//136 116//116
f 123//123 129//129 136//136
f 136//136 135//135 116//116
f 103//103 135//135 133//133
f 133//133 100//100 134//134
f 100//100 133//133 137//137
f 124//124 136//136 129//129
f 124//124 115//115 138//138
f 126//126 139//139 137//137
f 139//139 126//126 150//150
f 136//136 124//124 138//138
f 130//130 150//150 126//126
f 115//115 124//124 122//122
f 141//141 140//140 52//52
f 144//144 149//149 146//146
f 149//149 148//148 146//146
f 74//74 142//142 76//76
f 149//149 145//145 148//148
f 117//117 111//111 142//142
f 111//111 68//68 76//76
f 146//146 148//148 143//143
f 145//145 117//117 142//142
f 111//111 76//76 142//142
f 146//146 140//140 144//144
f 151//151 117//117 145//145
f 147//147 145//145 149//149
f 79//79 148//148 145//145
f 149//149 152//152 147//147
f 79//79 145//145 142//142
f 147//147 152//152 130//130
f 152//152 144//144 150//150
f 147//147 151//151 145//145
f 147//147 101//101 151//151
f 151//151 101//101 106//106
f 152//152 149//149 144//144

