# https://github.com/mikedh/trimesh
v -0.04018800 0.01932600 -0.09999600
v -0.04799600 -0.00660900 -0.10933700
v -0.03896300 -0.02856600 -0.11274200
v 0.04532200 0.01465700 -0.03825700
v -0.00735700 0.00655000 -0.07956800
v 0.04575600 0.02608400 -0.11231000
v 0.00463800 -0.02231200 -0.08110300
v 0.01545400 0.00163600 -0.07629200
v 0.05457900 0.02114200 -0.10587900
v 0.05855600 -0.00551100 -0.10577800
v -0.03857100 0.01909300 -0.11437000
v -0.00208600 0.02505400 -0.10829600
v 0.05167400 -0.02382900 -0.11112000
v 0.05004500 -0.02340000 -0.08827700
v 0.05765400 -0.02503100 -0.10090700
v 0.05245100 0.00901600 -0.08294700
v 0.02315900 -0.03125800 -0.11126700
v 0.02232600 -0.01452200 -0.07502700
v -0.03492400 -0.02373700 -0.11378600
v -0.02637000 0.01059700 -0.08369900
v -0.00574900 0.01690600 -0.08461700
v 0.05212800 -0.00791500 -0.07982800
v 0.03529200 0.02167900 -0.08695400
v 0.02333100 0.01217700 -0.07691300
v 0.04340000 -0.01439700 -0.07727000
v 0.02462900 0.01656800 -0.04571600
v 0.03785600 -0.01703900 -0.03965200
v 0.04002400 0.01353100 -0.07892700
v 0.03370900 0.01476000 0.01091000
v 0.06411000 0.01601100 0.02500600
v 0.04271900 -0.01219600 -0.01044000
v 0.06287000 0.01521200 0.01499900
v 0.06662500 -0.00856700 0.01361200
v 0.05175200 -0.01028400 -0.04412600
v 0.01280600 0.01494700 -0.01554200
v -0.00579400 0.02555700 0.04475500
v 0.04234200 0.02488200 0.03807100
v 0.05306300 0.00431100 -0.03592000
v 0.01624300 0.01493300 0.02546800
v 0.03842300 0.02551800 0.05247900
v 0.07793000 0.02447900 0.04094600
v 0.04227800 0.00875600 0.00075300
v -0.00229700 0.01128100 0.01306500
v 0.01290400 0.02123800 0.02709200
v 0.00528600 0.00120800 -0.04129900
v -0.03686400 -0.01094100 -0.08318600
v -0.00618900 -0.03016400 -0.10218300
v -0.04079300 -0.02944100 -0.10761400
v 0.01781800 -0.01649300 -0.01690900
v -0.03518800 -0.02219600 -0.08830100
v -0.01095800 -0.02338700 0.05627500
v -0.08146500 -0.00856000 0.02704300
v -0.02013400 0.00785100 0.00977300
v -0.08688900 0.01772600 0.03815200
v -0.05467400 0.01992300 0.05259800
v -0.04775200 -0.01096300 0.02550400
v -0.05200500 -0.02090900 0.03745100
v -0.01308500 0.01687400 0.06667700
v -0.03025100 -0.00595700 0.02152700
v -0.00987300 0.02213600 0.06026600
v -0.02736400 -0.00753900 0.01070300
v -0.01513800 -0.00624000 0.00377000
v -0.04224300 -0.02396600 0.03747300
v -0.09874300 -0.01327400 0.03912000
v -0.01123200 -0.01133100 0.02541100
v -0.05350000 -0.01053600 0.06718900
v -0.04402600 0.02123800 0.03384100
v -0.01152000 -0.00506000 0.06896300
v -0.04677700 -0.02210700 0.05741100
v -0.05163000 0.01002100 0.06671400
v -0.05264100 0.01923800 0.03867100
v -0.03864600 -0.00928600 0.07019800
v -0.07980400 -0.02217200 0.05243400
v -0.08838400 0.00280700 0.06615200
v -0.04300900 0.02351700 0.05358500
v -0.00920100 0.02264000 0.02862400
v -0.02240200 0.01005800 0.02340700
v -0.01145500 0.02463100 0.03663400
v -0.05163600 0.00156400 0.02475700
v -0.10395000 0.00218300 0.05185000
v -0.01533700 0.00251800 -0.01395200
v 0.07492700 0.00246400 0.02277900
v 0.01650500 0.02181100 0.06416100
v 0.00360800 -0.01086600 -0.01779000
v 0.05007100 0.00002100 0.00779100
v 0.01030200 -0.02373700 0.06634000
v 0.01197700 0.00305500 0.06961200
v 0.03123900 0.01023700 0.06727500
v 0.07157300 0.00389000 0.06822800
v 0.02598900 -0.01960700 0.05872700
v 0.02163600 -0.00749900 0.06714900
v 0.00720200 -0.01277800 0.01938500
v 0.08318300 0.00562000 0.03134100
v 0.01923100 -0.01265300 0.02505000
v 0.06906400 -0.01263900 0.02833800
v 0.07953600 -0.01624800 0.04588300
v 0.01161200 -0.02405800 0.02702500
v 0.03552600 -0.01280300 0.01393700
v -0.00798600 -0.02201400 0.03181900
v 0.03410700 -0.02288200 0.04513900
v 0.07918900 0.01523900 0.06449700
v 0.07371300 -0.01054800 0.06355300
vn -0.65348192 0.69978480 0.28855264
vn -0.94216285 -0.03778107 -0.33301915
vn -0.33968500 -0.61535061 -0.71130706
vn 0.48612566 0.87250415 0.04917662
vn -0.09972469 0.20430163 0.97381509
vn 0.35099357 0.74343335 -0.56930692
vn -0.09345336 -0.73826082 0.66801006
vn -0.74457899 0.14769539 0.65099016
vn 0.76122151 0.63469262 -0.13306799
vn 0.91977143 0.05268379 -0.38890222
vn -0.47643660 0.58424385 -0.65701392
vn -0.07512462 0.99218084 -0.09966676
vn 0.43194478 -0.48797920 -0.75848534
vn 0.41110679 -0.75610074 0.50921791
vn 0.77260015 -0.63489242 -0.00079162
vn 0.85029372 0.48729153 0.19886566
vn 0.06189265 -0.80959201 -0.58372088
vn -0.30747427 -0.80517655 0.50709990
vn -0.03058369 -0.18815516 -0.98166301
vn -0.33225330 0.45630189 0.82546734
vn -0.10471542 0.74650212 0.65709153
vn 0.92671528 -0.29122359 0.23746074
vn 0.17077769 0.87905815 0.44507500
vn -0.29604999 0.86204962 0.41136947
vn 0.34192465 -0.86287902 0.37219260
vn -0.26374419 0.96153884 -0.07669455
vn 0.20098782 -0.97937051 0.02091166
vn 0.23361223 0.93398288 0.27037253
vn 0.15800608 0.98272390 -0.09637335
vn 0.31973488 0.84293672 -0.43269768
vn 0.69671682 -0.68436172 0.21502259
vn 0.40825344 0.70965877 -0.57420689
vn 0.51144974 -0.50711118 -0.69372719
vn 0.82440571 -0.56230485 0.06456373
vn -0.37283293 0.91435871 -0.15793593
vn -0.11228769 0.99299790 0.03669659
vn 0.01286888 0.94529046 -0.32597597
vn 0.96460634 0.21575088 0.15161188
vn 0.03912264 0.82782432 -0.55962158
vn 0.04749083 0.93991226 0.33809699
vn 0.57431284 0.80446071 -0.15168296
vn 0.90187004 0.42122481 0.09591712
vn -0.19530056 0.97522391 -0.10390388
vn 0.07220646 0.69263011 -0.71766967
vn -0.98213854 0.07513091 -0.17250867
vn -0.60128832 -0.11747907 0.79034867
vn -0.04845392 -0.99099273 0.12484243
vn -0.62541977 -0.77927433 0.03976963
vn -0.18420846 -0.98189827 -0.04407981
vn -0.48500074 -0.63801339 0.59809130
vn -0.04945038 -0.92738996 0.37081332
vn -0.31804247 -0.26983011 -0.90886781
vn -0.61209945 0.69777257 -0.37208560
vn -0.45694835 0.81182207 -0.36351496
vn -0.22308774 0.92899962 0.29528218
vn -0.11640057 -0.45830868 -0.88113794
vn -0.16034964 -0.90586775 -0.39203522
vn -0.06041992 0.49233204 0.86830789
vn -0.40302782 -0.34464481 -0.84781397
vn -0.06235271 0.91509597 0.39838613
vn -0.73454138 -0.46295996 -0.49610185
vn -0.55210809 -0.73961888 -0.38489033
vn -0.13969962 -0.93286079 -0.33204633
vn -0.77598291 -0.52122591 -0.35520990
vn -0.10156233 -0.81184993 -0.57496502
vn -0.13295038 -0.37711577 0.91657400
vn -0.26927188 0.80364136 -0.53071011
vn -0.03307594 -0.18672691 0.98185490
vn -0.06877443 -0.90428968 0.42134339
vn -0.12566195 0.45975971 0.87910755
vn -0.23609809 0.87781226 -0.41677731
vn -0.03333286 -0.29055379 0.95627790
vn -0.30697335 -0.90586735 0.29184193
vn -0.45602228 0.18995277 0.86946054
vn -0.17836240 0.94069170 0.28859312
vn -0.03733643 0.77856927 -0.62644704
vn -0.32319813 0.63015904 -0.70600464
vn -0.03448587 0.99189664 -0.12227747
vn -0.14685730 0.24306504 -0.95882862
vn -0.95619851 0.17770230 0.23260763
vn -0.74601106 0.16368390 -0.64550374
vn 0.77318118 0.02926341 -0.63350968
vn 0.04825436 0.72167852 0.69054444
vn -0.57555511 -0.69250601 -0.43493878
vn 0.25815864 -0.11814522 -0.95885130
vn 0.11146613 -0.80858420 0.57772563
vn 0.04361862 0.03515289 0.99842961
vn 0.07376690 0.31209980 0.94718116
vn 0.26284519 -0.03730856 0.96411642
vn 0.17335873 -0.83074508 0.52897010
vn 0.12878768 -0.24226028 0.96162555
vn -0.08812714 -0.99566368 0.02979010
vn 0.90294132 0.06596496 -0.42467117
vn 0.07102805 -0.95593340 -0.28486198
vn 0.44964927 -0.80504381 -0.38693668
vn 0.69653062 -0.71734083 0.01634717
vn 0.54546426 -0.83809940 -0.00762491
vn 0.20894700 -0.97099801 -0.11620681
vn -0.03832794 -0.88255152 -0.46865103
vn 0.09705466 -0.99199365 -0.08080216
vn 0.63978991 0.43931140 0.63061428
vn 0.48190047 -0.56106476 0.67303661
f 11//11 2//2 1//1
f 1//1 12//12 11//11
f 1//1 2//2 46//46
f 20//20 1//1 46//46
f 11//11 19//19 2//2
f 48//48 2//2 3//3
f 19//19 3//3 2//2
f 50//50 46//46 2//2
f 16//16 28//28 4//4
f 28//28 26//26 4//4
f 49//49 18//18 27//27
f 47//47 19//19 17//17
f 34//34 31//31 27//27
f 23//23 16//16 6//6
f 16//16 9//9 6//6
f 7//7 5//5 46//46
f 21//21 12//12 1//1
f 8//8 5//5 7//7
f 12//12 21//21 23//23
f 13//13 6//6 9//9
f 13//13 9//9 10//10
f 11//11 12//12 6//6
f 28//28 16//16 23//23
f 23//23 6//6 12//12
f 9//9 16//16 10//10
f 13//13 11//11 6//6
f 10//10 16//16 22//22
f 7//7 18//18 8//8
f 13//13 10//10 15//15
f 14//14 50//50 47//47
f 7//7 50//50 14//14
f 17//17 13//13 15//15
f 7//7 25//25 18//18
f 11//11 13//13 17//17
f 17//17 14//14 47//47
f 17//17 15//15 14//14
f 18//18 45//45 8//8
f 15//15 10//10 22//22
f 5//5 21//21 20//20
f 22//22 14//14 15//15
f 27//27 18//18 25//25
f 26//26 24//24 45//45
f 14//14 25//25 7//7
f 45//45 35//35 26//26
f 22//22 25//25 14//14
f 20//20 21//21 1//1
f 38//38 22//22 16//16
f 35//35 45//45 84//84
f 38//38 16//16 4//4
f 22//22 38//38 34//34
f 25//25 22//22 34//34
f 20//20 46//46 5//5
f 23//23 21//21 24//24
f 8//8 21//21 5//5
f 8//8 24//24 21//21
f 24//24 26//26 28//28
f 45//45 24//24 8//8
f 11//11 17//17 19//19
f 27//27 25//25 34//34
f 28//28 23//23 24//24
f 76//76 44//44 77//77
f 44//44 76//76 78//78
f 85//85 32//32 33//33
f 31//31 34//34 38//38
f 30//30 32//32 39//39
f 29//29 39//39 32//32
f 81//81 43//43 35//35
f 37//37 30//30 39//39
f 31//31 38//38 42//42
f 81//81 35//35 84//84
f 32//32 85//85 29//29
f 30//30 37//37 41//41
f 82//82 32//32 30//30
f 33//33 32//32 82//82
f 40//40 41//41 37//37
f 77//77 44//44 39//39
f 40//40 101//101 41//41
f 43//43 39//39 35//35
f 36//36 40//40 37//37
f 39//39 29//29 35//35
f 83//83 36//36 60//60
f 37//37 44//44 36//36
f 36//36 83//83 40//40
f 36//36 44//44 78//78
f 26//26 29//29 4//4
f 93//93 82//82 41//41
f 39//39 44//44 37//37
f 42//42 38//38 4//4
f 30//30 41//41 82//82
f 88//88 40//40 83//83
f 26//26 35//35 29//29
f 4//4 29//29 42//42
f 85//85 42//42 29//29
f 101//101 40//40 88//88
f 101//101 93//93 41//41
f 3//3 19//19 47//47
f 50//50 48//48 47//47
f 18//18 49//49 45//45
f 2//2 48//48 50//50
f 49//49 84//84 45//45
f 46//46 50//50 7//7
f 48//48 3//3 47//47
f 78//78 67//67 75//75
f 79//79 59//59 56//56
f 67//67 79//79 71//71
f 60//60 36//36 78//78
f 99//99 65//65 97//97
f 51//51 69//69 63//63
f 52//52 54//54 79//79
f 54//54 71//71 79//79
f 62//62 53//53 81//81
f 79//79 56//56 52//52
f 55//55 54//54 74//74
f 52//52 56//56 57//57
f 81//81 53//53 43//43
f 75//75 70//70 58//58
f 58//58 60//60 75//75
f 53//53 77//77 43//43
f 54//54 55//55 71//71
f 63//63 57//57 56//56
f 53//53 62//62 61//61
f 64//64 57//57 73//73
f 70//70 55//55 74//74
f 59//59 53//53 61//61
f 79//79 77//77 59//59
f 78//78 75//75 60//60
f 77//77 53//53 59//59
f 56//56 59//59 99//99
f 80//80 54//54 64//64
f 56//56 99//99 63//63
f 64//64 54//54 52//52
f 58//58 83//83 60//60
f 65//65 59//59 61//61
f 59//59 65//65 99//99
f 64//64 52//52 57//57
f 58//58 87//87 83//83
f 74//74 54//54 80//80
f 58//58 70//70 68//68
f 87//87 58//58 68//68
f 73//73 57//57 69//69
f 69//69 57//57 63//63
f 70//70 74//74 66//66
f 69//69 66//66 73//73
f 73//73 80//80 64//64
f 80//80 73//73 74//74
f 66//66 74//74 73//73
f 70//70 75//75 55//55
f 70//70 72//72 68//68
f 67//67 76//76 77//77
f 79//79 67//67 77//77
f 68//68 72//72 51//51
f 72//72 69//69 51//51
f 99//99 51//51 63//63
f 86//86 68//68 51//51
f 76//76 67//67 78//78
f 75//75 67//67 71//71
f 55//55 75//75 71//71
f 72//72 70//70 66//66
f 66//66 69//69 72//72
f 92//92 94//94 65//65
f 95//95 33//33 82//82
f 102//102 90//90 96//96
f 62//62 81//81 84//84
f 65//65 94//94 97//97
f 97//97 94//94 99//99
f 99//99 94//94 100//100
f 101//101 89//89 102//102
f 87//87 88//88 83//83
f 98//98 42//42 85//85
f 91//91 87//87 68//68
f 86//86 91//91 68//68
f 92//92 84//84 49//49
f 51//51 100//100 90//90
f 86//86 51//51 90//90
f 33//33 98//98 85//85
f 92//92 62//62 84//84
f 92//92 65//65 61//61
f 95//95 98//98 33//33
f 62//62 92//92 61//61
f 91//91 88//88 87//87
f 91//91 89//89 88//88
f 86//86 90//90 91//91
f 94//94 98//98 95//95
f 90//90 102//102 91//91
f 89//89 101//101 88//88
f 100//100 94//94 95//95
f 93//93 95//95 82//82
f 31//31 49//49 27//27
f 95//95 96//96 100//100
f 95//95 93//93 96//96
f 98//98 92//92 49//49
f 96//96 93//93 101//101
f 98//98 49//49 31//31
f 96//96 101//101 102//102
f 90//90 100//100 96//96
f 102//102 89//89 91//91
f 98//98 31//31 42//42
f 98//98 94//94 92//92
f 43//43 77//77 39//39
f 51//51 99//99 100//100

