# https://github.com/mikedh/trimesh
v -0.01078960 -0.01682122 -0.02110823
v 0.01097874 -0.01356351 -0.04407390
v -0.00998462 -0.01936687 -0.02112710
v -0.01521814 -0.01938241 -0.01177109
v -0.00546775 -0.00931390 -0.02987147
v -0.01435878 -0.01766358 -0.01443010
v -0.01391449 -0.02023216 -0.01323646
v -0.00991238 -0.01317247 -0.02207159
v 0.00321000 -0.02555844 -0.00553836
v -0.00208395 -0.02535602 -0.01860055
v -0.01945140 -0.01866375 -0.00311169
v -0.02010890 0.01574799 0.00144122
v -0.02287141 0.00310269 -0.00173255
v -0.00777986 -0.02367186 -0.01719872
v -0.01357872 -0.01978302 0.04126450
v -0.00598397 -0.01316887 0.04844574
v -0.00335385 -0.01991460 -0.02929540
v -0.01734306 -0.02043819 -0.00591010
v 0.02121191 -0.01584664 -0.03559787
v -0.02271320 -0.01692412 0.00543445
v -0.02391204 -0.01716260 0.00892132
v -0.02212261 0.01065266 0.00167304
v -0.00049487 -0.02350008 -0.02668172
v 0.02346143 -0.01407869 -0.03197283
v -0.01170922 -0.02916539 0.00470444
v -0.01966161 -0.02137619 0.00128577
v 0.01756789 -0.00452502 -0.04761578
v 0.01360288 -0.01003023 0.02361698
v -0.01207736 -0.02615149 -0.00465602
v 0.01339186 -0.02170842 -0.02912735
v -0.01026662 -0.03129663 0.01156917
v 0.01898898 -0.00662413 -0.04564292
v 0.00404620 -0.02429646 -0.02789435
v 0.00505451 0.00649619 -0.04314368
v -0.01606093 -0.01138366 0.04258010
v -0.01906749 -0.02453457 0.00896121
v -0.00713703 -0.03405436 0.02602105
v -0.00540798 -0.03383922 0.02866428
v -0.02166440 -0.02175891 0.02465694
v -0.00709012 -0.03320132 0.01844414
v -0.00442447 -0.00800543 0.04932017
v 0.00225225 -0.03094654 0.03289512
v -0.00620980 -0.03211646 0.03477477
v -0.01934468 -0.02427269 0.02802197
v -0.01133549 -0.02733744 -0.00208921
v -0.00809718 -0.02575244 0.04153236
v -0.00406583 -0.02510819 0.04303085
v -0.00510470 -0.01726768 -0.02958754
v -0.02274835 -0.01687022 0.02996777
v -0.00523230 0.00706301 -0.03655836
v -0.01494199 -0.02782650 0.00546497
v -0.00782770 -0.02906386 0.03839518
v -0.01346635 -0.02476858 0.03776441
v -0.00607405 -0.02527093 0.04287753
v -0.00468137 -0.02963489 0.03831824
v -0.00556013 0.00277718 -0.03326196
v 0.01364355 -0.01754824 -0.04059959
v 0.01008930 -0.02062773 -0.03786144
v 0.01892993 -0.02027997 -0.02767595
v 0.01251437 -0.01706849 -0.04187926
v -0.00992620 -0.01436545 0.04648714
v -0.02500327 -0.01475778 0.02224045
v -0.01336495 -0.03122423 0.01946713
v 0.00239614 -0.01893929 -0.03608580
v -0.00798968 -0.01929151 0.04560793
v -0.01769491 -0.02340101 0.03327884
v -0.00893225 0.00116428 -0.02857479
v -0.00594201 -0.02087089 0.04544422
v -0.00702781 -0.01276235 -0.02652976
v -0.00401728 -0.01829200 0.04686555
v 0.00574087 -0.01485036 -0.04130594
v -0.01034880 -0.03253328 0.02827248
v 0.02355102 -0.01333826 -0.02000055
v 0.01893820 -0.01529981 0.00333308
v 0.01781772 -0.02201265 -0.01748377
v -0.00925057 -0.00632062 0.04879714
v -0.00754178 -0.00568262 0.04936651
v 0.00732617 -0.02292070 -0.03305714
v 0.01249284 -0.02493668 0.00291827
v 0.01039595 0.00503169 -0.04642571
v 0.01926866 -0.00206762 -0.04725576
v -0.02513826 0.00510933 0.02222378
v -0.02363728 0.00992619 0.02219380
v -0.00141118 -0.03302596 0.02461834
v 0.02139231 0.00467304 -0.04545407
v 0.00427427 -0.01115474 -0.04121629
v -0.02341318 0.00823033 0.02751200
v 0.01546373 -0.02388363 -0.00930641
v -0.02329234 -0.00913415 0.00467664
v 0.00819482 -0.01078124 -0.04426209
v 0.02014217 -0.01647597 -0.00514809
v 0.02056348 -0.01156820 -0.04009485
v 0.01295999 -0.00280380 -0.04750785
v -0.02396987 -0.01863410 0.01589224
v 0.02182120 -0.00760665 -0.04142765
v 0.01375381 -0.00758359 -0.04687195
v -0.01662891 0.00559359 0.04220062
v 0.01304270 0.00546978 -0.04733888
v -0.00015781 -0.00530767 -0.03704520
v -0.01865405 -0.02664786 0.01898380
v 0.01452767 -0.02342307 0.00039916
v 0.01683694 -0.01996699 0.00403530
v 0.00652508 -0.02761563 0.01187313
v -0.00199268 -0.02859338 0.00753429
v 0.01704336 0.01749403 0.00386549
v 0.00494814 0.01306043 -0.04209035
v 0.00999953 -0.02653636 0.01328377
v 0.00062586 -0.01494287 -0.03719013
v 0.01761598 -0.01709683 -0.03653606
v -0.00381987 0.02070633 -0.02884753
v -0.02622101 -0.00997181 0.02336536
v 0.02506463 0.00971417 -0.03546473
v 0.02091124 -0.01856832 -0.02936417
v -0.01228258 -0.02957617 0.03298855
v 0.02446459 -0.00139610 -0.03861351
v -0.01462591 -0.00087985 -0.01944952
v -0.00046828 -0.02718859 0.00242184
v 0.02279208 0.01796754 -0.03872309
v 0.02484207 0.01356098 -0.02982847
v 0.01546515 -0.01850812 0.01422611
v 0.02274321 0.02186452 -0.02993428
v 0.01111174 0.01085103 0.01915020
v 0.00901385 0.01796324 0.01614931
v -0.01725737 -0.01240884 -0.00990971
v 0.02547203 0.00450375 -0.02225169
v -0.01672467 0.00970128 0.03965315
v -0.02071940 0.01660932 0.01339546
v 0.02234863 -0.01692608 -0.02634996
v -0.02025058 -0.00704590 -0.00747012
v 0.01165342 0.02781866 0.00024786
v 0.01161203 0.00600149 0.02205158
v 0.01297622 0.03216354 -0.03540826
v -0.01464338 -0.02485734 -0.00313505
v -0.00617339 0.00435496 0.04920939
v -0.02668038 -0.00514349 0.02310145
v 0.01828284 0.02836951 -0.03646771
v 0.01484320 -0.01296591 -0.04472175
v -0.01981895 -0.01520444 -0.00419962
v -0.02439229 -0.00793934 0.03114338
v 0.00913440 0.03391242 -0.03208812
v 0.00840342 0.02705963 0.00324129
v -0.02552419 -0.00064767 0.02723211
v 0.00347956 0.01776138 0.02347996
v -0.00831383 -0.01740747 -0.02514250
v 0.01340360 0.02587868 0.00536092
v -0.02216327 -0.00093003 0.03626450
v 0.01069061 0.03527619 -0.03037315
v -0.00139703 -0.02309010 0.04327845
v 0.01885383 0.02254895 -0.04217047
v 0.01484946 0.02309799 -0.04280455
v 0.02398552 0.01115445 -0.01780436
v 0.01681439 0.03122001 -0.02320766
v -0.01236170 -0.00406103 0.04707919
v 0.00017210 0.02854787 0.00234022
v 0.01210562 0.03538253 -0.02915257
v 0.00840536 0.03576770 -0.02810579
v 0.01408848 0.00094895 0.01921541
v 0.00576466 0.01266322 0.02890389
v 0.02159283 0.01647240 -0.01189105
v -0.02198732 0.00418891 0.03506174
v -0.00304293 0.00824427 0.04770139
v 0.00556209 0.02676399 0.00704406
v 0.01307930 -0.02425647 0.00949433
v 0.01758175 0.01145059 -0.04662411
v 0.01602100 0.02437852 -0.00531891
v 0.00405069 0.03463575 -0.02660624
v 0.00997987 0.03104081 -0.03615938
v -0.02131494 0.01362617 0.00485330
v -0.00958077 -0.02662520 -0.00599870
v 0.02303008 0.00239950 -0.00903812
v -0.01373761 0.02320940 -0.00835552
v 0.00608227 0.00387191 0.03735726
v -0.00252580 0.00010158 0.04912730
v 0.00992063 0.03155591 -0.00926972
v 0.00386841 0.02239633 0.01446782
v 0.00710791 0.02365796 -0.03944611
v -0.01854608 0.01557969 -0.00359637
v 0.01574279 0.03170423 -0.03390856
v 0.01237667 -0.02408352 0.01685079
v 0.02401618 -0.00583381 -0.01447963
v 0.00114842 0.02470073 0.01042923
v 0.00586134 0.03097903 -0.03397470
v 0.01984348 -0.00791039 0.00318790
v -0.02366265 0.00582020 0.01299146
v -0.00077870 0.02104022 0.02119388
v 0.00873948 -0.02825917 0.02063577
v 0.01769466 0.01756904 -0.04491606
v 0.01891478 0.00052146 0.00580200
v -0.01247988 0.02302584 0.01955823
v 0.00322517 0.03276123 -0.02963896
v 0.01854284 0.00466566 -0.04779398
v -0.01908122 -0.01685929 0.03654154
v 0.00159442 0.03533228 -0.02072203
v -0.00100852 0.03208420 -0.02557041
v 0.00732842 -0.01249479 0.03767450
v -0.01453277 0.02361548 -0.00434144
v 0.00726508 -0.02838798 0.02749645
v 0.00943525 0.03630971 -0.02324552
v 0.01927315 0.01417391 -0.04554678
v -0.02168277 -0.00864435 0.03643920
v 0.02285790 0.01159272 -0.04213065
v -0.00166590 0.00425621 -0.03733495
v -0.00552557 0.02367304 0.01450200
v 0.01182801 -0.02265528 0.02261790
v 0.00086488 0.00757303 -0.03939711
v 0.01742034 0.03079882 -0.02705420
v 0.00471959 0.03625012 -0.01861598
v 0.00905996 0.02265980 0.01168937
v -0.00325793 0.03140037 -0.02231421
v -0.01386043 0.02161704 0.02372782
v -0.00387712 0.03300383 -0.01239503
v 0.00604869 -0.03042344 0.02467255
v 0.00744688 -0.02526599 0.03116703
v -0.00102717 0.02011492 0.02484189
v 0.00916080 0.03575310 -0.01845022
v 0.00913322 0.02746761 -0.03866906
v -0.01168789 0.02421223 0.01620865
v -0.00867832 0.02269914 0.02021817
v -0.00847202 0.02125374 0.03361329
v 0.00274912 -0.02270985 0.03982935
v -0.02323977 -0.01907674 0.00945095
v -0.02128599 0.01429969 0.02335098
v -0.00737094 0.02952930 -0.01660715
v 0.00638922 0.03613425 -0.01510025
v -0.01743897 0.01907185 0.02354916
v -0.00714945 -0.00018548 0.04964417
v 0.00291062 0.03566609 -0.01364274
v -0.02350180 -0.00099277 0.00620209
v 0.00176784 0.03042356 -0.03090292
v -0.01907720 0.01167190 0.03386084
v 0.01158203 -0.01765670 0.02716433
v 0.02090935 0.02349136 -0.03761369
v -0.00231044 0.01868406 0.03581449
v -0.00639934 0.02152688 0.03269831
v 0.00216185 -0.01520797 0.04387381
v -0.01625597 -0.02762860 0.02900746
v -0.00792074 0.01912484 0.03849064
v 0.00978462 -0.00195609 -0.04606887
v -0.01008456 0.00361955 0.04803797
v 0.00090547 0.03378882 -0.01056265
v -0.00845193 0.02987083 -0.00772384
v 0.00000513 0.03280351 -0.00739432
v 0.01153726 0.01556557 -0.04503582
v -0.00545398 0.01735273 0.04151542
v -0.00916873 0.00858855 -0.03189624
v -0.00759892 0.01692904 0.04180806
v 0.00252861 0.00923673 0.04061495
v 0.00338766 -0.02841531 0.03485244
v -0.00077886 0.01377503 0.04186138
v -0.00892997 0.01738612 0.04020820
v -0.00394640 0.03141450 -0.00823124
v -0.00906406 0.00549297 -0.03174407
v -0.00547201 0.03036496 -0.00247067
v -0.01103454 0.00904957 0.04539303
v -0.00335355 0.01541570 0.04303345
v -0.00507929 0.00889429 -0.03662407
v -0.00422526 0.02832948 -0.02422166
v -0.00377374 0.01240907 0.04621387
v 0.00320769 0.03196402 -0.00434303
v -0.00039924 -0.02848787 0.03826385
v -0.01147965 0.01789957 -0.01726666
v -0.00586524 0.01288581 0.04581645
v -0.00459329 0.01398000 0.04509361
v -0.01156553 0.02687895 -0.00175609
v -0.01654192 -0.00235651 0.04366324
v -0.00035797 0.00946356 0.04491471
v -0.00764357 0.02806362 0.00272189
v -0.00924791 0.02538663 -0.01706190
v 0.00184935 -0.00054919 0.04562192
v -0.00600122 0.01259471 -0.03119534
v 0.01712653 0.02478266 -0.04150059
v -0.01646092 0.02213352 0.01060957
v -0.00576515 0.00782248 0.04846351
v -0.00028837 0.03055097 -0.00181886
v -0.01923433 0.01837651 0.00469893
v 0.01509761 0.02813055 -0.03958523
v -0.00195509 -0.01216537 0.04791713
v -0.00939491 0.01221289 -0.02563745
v 0.01608119 0.02874501 -0.03872784
v 0.00905954 0.02949228 -0.00127055
v 0.02341748 -0.01226973 -0.03553490
v 0.01414005 0.03050569 -0.03731768
v -0.00303253 0.02626518 0.00610953
v -0.01896557 0.00317323 -0.01205627
v -0.01175013 0.02518898 0.00877807
v -0.01453970 0.02314762 0.01532512
v -0.00053001 0.01253090 -0.03739311
v 0.01269107 0.02301569 0.00880047
v -0.00926425 0.00880108 -0.02716762
v 0.02582144 -0.00387369 -0.03013226
v -0.01035397 0.00526710 -0.02659700
v -0.01277379 0.00408216 -0.02336700
v -0.01356731 0.00874309 -0.02077348
v 0.02512711 -0.00871554 -0.02630075
v -0.01409567 0.01803469 0.03288188
v -0.01460251 0.01270134 0.03967651
v 0.01584392 -0.02290300 -0.01797126
v 0.02048628 -0.01905425 -0.01708403
v 0.01789776 -0.02151397 -0.00690654
v 0.01236929 -0.02467233 -0.00067869
vn -0.86744572 -0.07917542 -0.49119160
vn -0.20601299 -0.47380801 -0.85619193
vn -0.73482897 -0.49513493 -0.46353834
vn -0.82870735 -0.37430238 -0.41610319
vn -0.80583763 -0.12959687 -0.57778055
vn -0.85785121 -0.18744861 -0.47849172
vn -0.72812573 -0.54452219 -0.41632741
vn -0.85618222 -0.00057683 -0.51667366
vn 0.11749198 -0.98856847 -0.09448818
vn -0.11639121 -0.97861424 -0.16960912
vn -0.88166319 -0.32575514 -0.34139950
vn -0.89746612 0.39995561 -0.18598406
vn -0.97091884 0.08120653 -0.22521568
vn -0.49211046 -0.79629262 -0.35177458
vn -0.62876865 -0.39053549 0.67240763
vn -0.10682251 -0.24705739 0.96309480
vn -0.58490903 -0.62228939 -0.52022816
vn -0.77401611 -0.52685155 -0.35117873
vn 0.60842658 -0.65766923 -0.44417145
vn -0.92430803 -0.22303081 -0.30969649
vn -0.95209464 -0.22086256 -0.21150773
vn -0.95293818 0.24787192 -0.17455180
vn -0.37652577 -0.84326504 -0.38357844
vn 0.90595476 -0.40149503 -0.13434177
vn -0.17637261 -0.95228656 -0.24908435
vn -0.80428126 -0.53213869 -0.26449966
vn 0.26741649 -0.22558710 -0.93680248
vn 0.93710805 -0.00231676 0.34903171
vn -0.46890619 -0.82486245 -0.31579887
vn 0.30981443 -0.92525037 -0.21892183
vn -0.15408375 -0.95720937 -0.24496617
vn 0.63661764 -0.37077625 -0.67619742
vn -0.02944497 -0.97112907 -0.23673049
vn -0.58279066 0.04836285 -0.81118190
vn -0.68677585 -0.21102994 0.69556114
vn -0.74395283 -0.65173716 -0.14755633
vn -0.13633926 -0.99042724 0.02157505
vn 0.03204847 -0.98546275 0.16684144
vn -0.86042290 -0.49225158 0.13176044
vn -0.01681856 -0.98198461 -0.18821096
vn 0.15709416 -0.10581495 0.98189848
vn 0.45440400 -0.82031068 0.34728575
vn -0.11455208 -0.89868717 0.42336649
vn -0.79452525 -0.56311627 0.22722171
vn -0.32795388 -0.90453071 -0.27252605
vn -0.43775340 -0.57277338 0.69303868
vn 0.15512759 -0.60159122 0.78359648
vn -0.76138678 -0.28352046 -0.58301485
vn -0.88342512 -0.33658742 0.32598921
vn -0.59887925 -0.19187622 -0.77751345
vn -0.57429721 -0.79167660 -0.20840073
vn -0.34747757 -0.72697077 0.59226078
vn -0.62858844 -0.53818960 0.56145216
vn -0.17888266 -0.59880141 0.78066502
vn 0.06753236 -0.79051093 0.60871328
vn -0.67620238 -0.32175440 -0.66274011
vn 0.44740224 -0.74203991 -0.49920738
vn 0.06409605 -0.84549297 -0.53012577
vn 0.45134705 -0.87007201 -0.19814273
vn 0.05256842 -0.69390660 -0.71814357
vn -0.49512590 -0.26871128 0.82622308
vn -0.94615331 -0.30983203 0.09379776
vn -0.51617547 -0.85535362 -0.04396665
vn -0.46480090 -0.63169608 -0.62041936
vn -0.38741827 -0.39139292 0.83469675
vn -0.74726231 -0.50546616 0.43139656
vn -0.81738514 -0.20829557 -0.53711682
vn -0.13714208 -0.46364654 0.87534218
vn -0.84364881 -0.05571020 -0.53399724
vn 0.17133946 -0.36668961 0.91442961
vn -0.44399763 -0.44659549 -0.77680022
vn -0.46308740 -0.86847907 0.17690161
vn 0.94810559 -0.30036636 0.10428726
vn 0.94688057 -0.23987593 0.21418852
vn 0.59761546 -0.80079387 -0.03981117
vn -0.42595637 -0.11854497 0.89694385
vn -0.17395296 -0.07997596 0.98150100
vn -0.00240784 -0.93434571 -0.35635978
vn 0.42719664 -0.90243065 -0.05587443
vn -0.42817927 0.07634308 -0.90046335
vn 0.60554478 -0.12634154 -0.78571835
vn -0.97497037 0.22232440 0.00215324
vn -0.93293982 0.35800097 0.03819161
vn 0.27314625 -0.95982086 -0.06430425
vn 0.78685609 0.02073939 -0.61678795
vn -0.64713188 -0.12094794 -0.75272301
vn -0.90168523 0.34974602 0.25424686
vn 0.42263435 -0.90629212 -0.00384769
vn -0.97382687 -0.06204171 -0.21865968
vn -0.44894057 -0.22442361 -0.86491989
vn 0.93062883 -0.33182792 0.15433800
vn 0.65285731 -0.50683675 -0.56293324
vn -0.23727035 -0.06792834 -0.96906580
vn -0.91639039 -0.39984399 -0.01880019
vn 0.81144573 -0.28327068 -0.51118837
vn -0.11792719 -0.26755705 -0.95629828
vn -0.70810552 0.25005686 0.66034699
vn -0.20396935 0.10397622 -0.97344001
vn -0.72465425 -0.09416867 -0.68264814
vn -0.73992010 -0.67265369 -0.00743326
vn 0.64523254 -0.76064300 0.07139470
vn 0.85493952 -0.49625244 0.15103619
vn 0.28195629 -0.94519168 -0.16466127
vn 0.18439094 -0.94929978 -0.25461719
vn 0.91092059 0.26579276 0.31555963
vn -0.56161339 0.20832511 -0.80074406
vn 0.51889517 -0.85381061 -0.04189557
vn -0.68805099 -0.25531991 -0.67926252
vn 0.45563941 -0.77348122 -0.44058998
vn -0.76612527 0.32167720 -0.55639541
vn -0.98476129 -0.15539974 0.07807766
vn 0.98301448 0.09490189 -0.15708645
vn 0.65835325 -0.72658342 -0.19658976
vn -0.57132379 -0.72623395 0.38232627
vn 0.93958745 -0.08551586 -0.33145508
vn -0.84781203 -0.14906368 -0.50891529
vn 0.13280328 -0.97495840 -0.17837996
vn 0.90578602 0.28070141 -0.31742464
vn 0.98337455 0.18150462 0.00552864
vn 0.93284137 -0.28081872 0.22571625
vn 0.92605388 0.37715326 0.01340271
vn 0.81935840 0.36460093 0.44240024
vn 0.58309414 0.56264426 0.58603127
vn -0.85469197 -0.16815642 -0.49114666
vn 0.99399161 0.04907660 0.09783744
vn -0.71058134 0.41523430 0.56802697
vn -0.87754292 0.47945588 0.00636210
vn 0.86132323 -0.50804277 -0.00385180
vn -0.90722767 -0.15203983 -0.39220129
vn 0.47020012 0.84552686 0.25297463
vn 0.88997114 0.29018686 0.35177117
vn 0.12000538 0.82470393 -0.55268629
vn -0.63952305 -0.70468431 -0.30729510
vn -0.05420934 0.18118141 0.98195450
vn -0.99942212 0.00925354 0.03270786
vn 0.73395257 0.60940823 -0.29989202
vn 0.28430404 -0.53657542 -0.79451748
vn -0.91254492 -0.18073555 -0.36687385
vn -0.93011879 -0.10139006 0.35298596
vn -0.25111635 0.80835322 -0.53245248
vn 0.14022132 0.93550311 0.32430220
vn -0.96342884 0.11894735 0.24011746
vn 0.57161075 0.71003919 0.41122439
vn -0.80250439 -0.21631794 -0.55605148
vn 0.59975743 0.71186713 0.36542607
vn -0.86702178 0.05961589 0.49469100
vn 0.01380161 0.92138607 -0.38840344
vn 0.46712752 -0.45206031 0.75989036
vn 0.55790090 0.44696484 -0.69926319
vn -0.07344126 0.44169992 -0.89415187
vn 0.96918246 0.17741774 0.17090439
vn 0.74444462 0.64818135 0.16019722
vn -0.57529319 -0.04673162 0.81661123
vn -0.02768170 0.90512551 0.42424230
vn 0.39155292 0.91062170 -0.13211521
vn -0.16647458 0.94772573 -0.27221712
vn 0.91812062 0.16082689 0.36220056
vn 0.77717249 0.53733021 0.32753497
vn 0.92920710 0.29726044 0.21956868
vn -0.86762042 0.24315221 0.43371858
vn 0.43762828 0.27387633 0.85643053
vn 0.09901450 0.91239008 0.39716554
vn 0.74560648 -0.66084618 0.08575141
vn 0.07761707 0.21593072 -0.97331882
vn 0.81172875 0.54901662 0.19919135
vn -0.39375818 0.85986887 -0.32493079
vn -0.24252803 0.68723713 -0.68475198
vn -0.94021052 0.33582373 -0.05680312
vn -0.13733130 -0.96369376 -0.22898570
vn 0.96986063 0.06002679 0.23615068
vn -0.84290831 0.45477385 -0.28755231
vn 0.87559955 0.21679386 0.43165478
vn 0.40362634 0.06386757 0.91269201
vn 0.46056864 0.83097832 0.31201212
vn 0.29553016 0.82715056 0.47799987
vn -0.53089052 0.36299426 -0.76576134
vn -0.88441085 0.32716095 -0.33284106
vn 0.57201180 0.77427822 -0.27073186
vn 0.82948155 -0.54776871 0.10913203
vn 0.98065343 -0.09471124 0.17131442
vn 0.01498751 0.91532459 0.40243791
vn -0.46528038 0.60605624 -0.64514340
vn 0.96477562 -0.05157018 0.25797000
vn -0.97661758 0.18504978 -0.10942887
vn 0.27750643 0.90667367 0.31769961
vn 0.63310520 -0.77400619 -0.00960309
vn 0.17658480 0.34166250 -0.92308426
vn 0.95057836 0.08225439 0.29939103
vn -0.19469769 0.95576750 0.22045700
vn -0.46947734 0.74040527 -0.48103125
vn 0.30013491 0.07775934 -0.95072210
vn -0.77441529 -0.32964552 0.54001370
vn -0.40380137 0.90360389 -0.14298414
vn -0.63609917 0.65966944 -0.40026749
vn 0.85817501 -0.08260007 0.50666841
vn -0.79981685 0.58437697 -0.13710056
vn 0.76508161 -0.58233508 0.27483809
vn 0.24340772 0.96952875 0.02768921
vn 0.51199489 0.25667369 -0.81974377
vn -0.83524952 -0.14411479 0.53064975
vn 0.86932653 0.14974650 -0.47100676
vn -0.57992129 -0.20942066 -0.78729555
vn 0.08091244 0.95988156 0.26847826
vn 0.89172884 -0.36376676 0.26924603
vn -0.58011885 0.06474975 -0.81195418
vn 0.77529698 0.63158545 0.00379610
vn -0.11246963 0.99361658 -0.00875600
vn 0.34233840 0.70863841 0.61695707
vn -0.68642762 0.66155368 -0.30193352
vn -0.46145193 0.85624755 0.23216857
vn -0.46018032 0.88368410 0.08565324
vn 0.52166287 -0.85315006 0.00167978
vn 0.82413738 -0.37062729 0.42829077
vn 0.44510656 0.87105474 0.20771083
vn 0.40326171 0.89625855 0.18466351
vn -0.36512006 0.49585966 -0.78791531
vn -0.12422298 0.96993903 0.20925326
vn 0.14167986 0.97432480 0.17498000
vn -0.23182757 0.91610527 0.32711942
vn 0.70237872 -0.36338252 0.61205987
vn -0.86975478 -0.46652441 -0.16087756
vn -0.82524580 0.53528582 0.18010679
vn -0.74512087 0.61564447 -0.25646984
vn 0.18771449 0.94153459 0.27977829
vn -0.68708244 0.69310991 0.21798251
vn -0.16888327 0.04396522 0.98465502
vn -0.11791763 0.94268437 0.31215640
vn -0.99214520 0.04739607 -0.11576492
vn -0.64682510 0.46924947 -0.60118402
vn -0.77323969 0.50214795 0.38723097
vn 0.91053272 -0.17480616 0.37466382
vn 0.85084374 0.44045872 -0.28646300
vn 0.54386819 0.78134496 0.30611672
vn 0.20437489 0.95409544 0.21893561
vn 0.69270629 -0.20494757 0.69148716
vn -0.69027448 -0.68695744 0.22717971
vn -0.20357249 0.86431095 0.45991827
vn -0.50058499 -0.04995880 -0.86424463
vn -0.48051859 0.18345051 0.85758253
vn -0.09357691 0.91813572 0.38505864
vn -0.58470746 0.81090196 0.02356280
vn -0.15865178 0.94863924 0.27370275
vn -0.29382855 0.27106098 -0.91661919
vn 0.16083300 0.81720983 0.55344453
vn -0.87438881 0.31267308 -0.37105222
vn -0.29151381 0.69263450 0.65975537
vn 0.82065828 0.35453137 0.44813781
vn 0.66437853 -0.53847749 0.51830798
vn 0.69794135 0.55286557 0.45521153
vn -0.49924329 0.68285805 0.53334887
vn -0.28053516 0.92462437 0.25762338
vn -0.83829371 -0.23597465 -0.49150749
vn -0.24542897 0.94180145 0.22972733
vn -0.51761852 0.40418068 0.75412800
vn 0.45385763 0.69555139 0.55697534
vn -0.59683971 0.29430947 -0.74643439
vn -0.79055913 0.37769049 -0.48204373
vn 0.31550231 0.51261104 0.79855382
vn 0.08233746 0.93613782 0.34185746
vn 0.39459904 -0.68069780 0.61720507
vn -0.84932544 0.31479196 -0.42373615
vn -0.23607849 0.54377863 0.80533952
vn 0.07534397 0.68232680 0.72715433
vn -0.61155455 0.78855043 0.06472441
vn -0.71203616 0.00894542 0.70208581
vn 0.71105511 0.32990551 0.62093718
vn -0.22066606 0.92159334 0.31933088
vn -0.84822137 0.33864199 -0.40723718
vn 0.74854981 0.07658879 0.65864052
vn -0.74385618 0.46221614 -0.48273618
vn 0.34369999 0.55583886 -0.75691048
vn -0.68598634 0.72640174 0.04199103
vn -0.08377463 0.32095616 0.94338166
vn -0.05187114 0.91831458 0.39243818
vn -0.85116194 0.51960288 -0.07440567
vn 0.03924211 0.61685559 -0.78609748
vn 0.45011943 -0.17795389 0.87505709
vn -0.82284985 0.29411989 -0.48622178
vn 0.41794468 0.68190133 -0.60027729
vn 0.25360214 0.88927324 0.38062981
vn 0.88266251 -0.33642891 -0.32821104
vn 0.13554054 0.76542017 -0.62909516
vn -0.02944546 0.91483693 0.40274851
vn -0.90841247 0.08705262 -0.40891152
vn -0.28622859 0.93975140 0.18692376
vn -0.52993546 0.83724921 0.13484125
vn -0.61342766 0.33520200 -0.71508470
vn 0.67596214 0.47730790 0.56147337
vn -0.89240361 0.29101237 -0.34485881
vn 0.99532616 -0.07884979 -0.05575442
vn -0.89834460 0.05777845 -0.43547519
vn -0.84394129 0.02679128 -0.53576611
vn -0.85431876 0.23953454 -0.46126202
vn 0.98276241 -0.18204084 0.03223622
vn -0.60539401 0.70565520 0.36816957
vn -0.62721731 0.54331338 0.55804034
vn 0.31823945 -0.94158367 -0.11019912
vn 0.82992004 -0.55461740 0.06026830
vn 0.78268399 -0.61334147 0.10591510
vn 0.29722207 -0.95436193 -0.02919503
f 58//58 71//71 2//2
f 8//8 5//5 69//69
f 7//7 14//14 133//133
f 6//6 4//4 138//138
f 3//3 6//6 1//1
f 18//18 4//4 7//7
f 10//10 9//9 169//169
f 3//3 7//7 6//6
f 10//10 14//14 23//23
f 28//28 183//183 188//188
f 100//100 51//51 63//63
f 138//138 4//4 11//11
f 114//114 43//43 52//52
f 26//26 51//51 36//36
f 4//4 18//18 11//11
f 22//22 12//12 177//177
f 14//14 10//10 169//169
f 15//15 192//192 53//53
f 45//45 29//29 169//169
f 1//1 6//6 8//8
f 7//7 3//3 14//14
f 36//36 51//51 100//100
f 117//117 169//169 9//9
f 99//99 108//108 5//5
f 61//61 76//76 35//35
f 7//7 4//4 6//6
f 18//18 133//133 26//26
f 26//26 11//11 18//18
f 111//111 139//139 135//135
f 19//19 281//281 24//24
f 20//20 11//11 26//26
f 29//29 45//45 51//51
f 77//77 76//76 16//16
f 19//19 24//24 113//113
f 78//78 58//58 30//30
f 29//29 14//14 169//169
f 6//6 138//138 124//124
f 51//51 45//45 25//25
f 20//20 221//221 21//21
f 221//221 26//26 36//36
f 284//284 13//13 22//22
f 45//45 169//169 25//25
f 104//104 40//40 31//31
f 133//133 51//51 26//26
f 89//89 20//20 21//21
f 78//78 30//30 33//33
f 111//111 21//21 94//94
f 31//31 51//51 25//25
f 96//96 137//137 2//2
f 31//31 40//40 63//63
f 11//11 20//20 138//138
f 100//100 94//94 221//221
f 63//63 40//40 37//37
f 34//34 90//90 86//86
f 20//20 26//26 221//221
f 34//34 86//86 99//99
f 37//37 40//40 84//84
f 99//99 86//86 108//108
f 72//72 63//63 37//37
f 221//221 94//94 21//21
f 36//36 100//100 221//221
f 39//39 94//94 100//100
f 88//88 10//10 33//33
f 89//89 21//21 111//111
f 37//37 84//84 38//38
f 88//88 9//9 10//10
f 43//43 72//72 38//38
f 39//39 100//100 44//44
f 41//41 277//277 173//173
f 133//133 14//14 29//29
f 80//80 98//98 93//93
f 111//111 94//94 62//62
f 43//43 42//42 55//55
f 163//163 79//79 101//101
f 52//52 54//54 46//46
f 101//101 79//79 300//300
f 43//43 38//38 42//42
f 49//49 39//39 44//44
f 51//51 133//133 29//29
f 23//23 17//17 64//64
f 54//54 47//47 70//70
f 70//70 47//47 148//148
f 53//53 114//114 52//52
f 70//70 65//65 68//68
f 49//49 44//44 66//66
f 65//65 70//70 16//16
f 23//23 78//78 33//33
f 188//188 157//157 28//28
f 192//192 49//49 66//66
f 74//74 102//102 91//91
f 50//50 202//202 56//56
f 99//99 56//56 202//202
f 56//56 252//252 50//50
f 62//62 94//94 39//39
f 2//2 137//137 60//60
f 15//15 53//53 46//46
f 57//57 60//60 137//137
f 103//103 117//117 9//9
f 60//60 57//57 58//58
f 12//12 168//168 275//275
f 252//252 56//56 67//67
f 63//63 51//51 31//31
f 54//54 52//52 55//55
f 245//245 252//252 291//291
f 52//52 46//46 53//53
f 54//54 70//70 68//68
f 55//55 47//47 54//54
f 58//58 57//57 109//109
f 64//64 58//58 78//78
f 291//291 252//252 67//67
f 66//66 44//44 236//236
f 61//61 35//35 15//15
f 68//68 65//65 54//54
f 33//33 10//10 23//23
f 16//16 70//70 277//277
f 55//55 52//52 43//43
f 61//61 16//16 76//76
f 177//177 261//261 293//293
f 72//72 37//37 38//38
f 292//292 291//291 67//67
f 238//238 80//80 93//93
f 177//177 293//293 284//284
f 93//93 90//90 238//238
f 90//90 2//2 71//71
f 75//75 113//113 298//298
f 102//102 163//163 101//101
f 284//284 292//292 116//116
f 9//9 79//79 103//103
f 61//61 15//15 65//65
f 103//103 104//104 117//117
f 77//77 41//41 226//226
f 284//284 116//116 129//129
f 76//76 77//77 226//226
f 114//114 72//72 43//43
f 127//127 275//275 168//168
f 191//191 93//93 98//98
f 9//9 300//300 79//79
f 32//32 27//27 81//81
f 127//127 83//83 222//222
f 184//184 82//82 83//83
f 272//272 275//275 127//127
f 103//103 186//186 84//84
f 65//65 16//16 61//61
f 75//75 88//88 297//297
f 186//186 212//212 84//84
f 78//78 23//23 64//64
f 186//186 179//179 197//197
f 204//204 197//197 179//179
f 92//92 137//137 32//32
f 65//65 46//46 54//54
f 41//41 77//77 16//16
f 86//86 71//71 108//108
f 82//82 142//142 87//87
f 111//111 62//62 49//49
f 96//96 90//90 93//93
f 90//90 96//96 2//2
f 95//95 92//92 32//32
f 96//96 93//93 27//27
f 135//135 89//89 111//111
f 58//58 109//109 30//30
f 231//231 120//120 28//28
f 8//8 124//124 5//5
f 95//95 85//85 115//115
f 97//97 146//146 265//265
f 168//168 12//12 22//22
f 124//124 116//116 5//5
f 137//137 96//96 27//27
f 99//99 202//202 34//34
f 97//97 265//265 239//239
f 48//48 64//64 17//17
f 5//5 56//56 99//99
f 102//102 299//299 91//91
f 238//238 90//90 34//34
f 281//281 95//95 115//115
f 85//85 81//81 191//191
f 86//86 90//90 71//71
f 199//199 85//85 191//191
f 107//107 79//79 163//163
f 103//103 79//79 107//107
f 100//100 63//63 236//236
f 58//58 2//2 60//60
f 44//44 100//100 236//236
f 157//157 188//188 105//105
f 5//5 116//116 67//67
f 103//103 107//107 186//186
f 106//106 176//176 243//243
f 272//272 127//127 225//225
f 58//58 64//64 71//71
f 85//85 201//201 115//115
f 114//114 236//236 72//72
f 112//112 115//115 201//201
f 108//108 48//48 5//5
f 176//176 106//106 287//287
f 71//71 64//64 108//108
f 157//157 105//105 122//122
f 201//201 118//118 112//112
f 270//270 110//110 287//287
f 222//222 83//83 87//87
f 192//192 66//66 53//53
f 107//107 163//163 179//179
f 163//163 120//120 179//179
f 115//115 112//112 290//290
f 119//119 290//290 112//112
f 118//118 121//121 119//119
f 118//118 119//119 112//112
f 24//24 281//281 290//290
f 192//192 15//15 35//35
f 48//48 108//108 64//64
f 290//290 119//119 125//125
f 222//222 87//87 230//230
f 8//8 6//6 124//124
f 65//65 15//15 46//46
f 49//49 139//139 111//111
f 124//124 129//129 116//116
f 160//160 230//230 87//87
f 24//24 128//128 113//113
f 123//123 122//122 288//288
f 122//122 131//131 157//157
f 153//153 35//35 76//76
f 160//160 126//126 230//230
f 41//41 16//16 277//277
f 151//151 125//125 119//119
f 151//151 121//121 159//159
f 119//119 121//121 151//151
f 73//73 128//128 24//24
f 103//103 40//40 104//104
f 126//126 97//97 296//296
f 97//97 254//254 296//296
f 93//93 191//191 27//27
f 5//5 48//48 69//69
f 113//113 128//128 298//298
f 121//121 152//152 159//159
f 18//18 7//7 133//133
f 178//178 136//136 279//279
f 178//178 279//279 282//282
f 280//280 154//154 141//141
f 141//141 130//130 280//280
f 137//137 27//27 32//32
f 273//273 239//239 134//134
f 282//282 167//167 132//132
f 143//143 122//122 123//123
f 175//175 143//143 123//123
f 105//105 165//165 145//145
f 95//95 32//32 81//81
f 142//142 82//82 135//135
f 17//17 144//144 48//48
f 226//226 173//173 134//134
f 186//186 197//197 212//212
f 282//282 132//132 178//178
f 165//165 130//130 145//145
f 297//297 88//88 33//33
f 164//164 199//199 191//191
f 140//140 132//132 167//167
f 124//124 138//138 129//129
f 180//180 73//73 294//294
f 83//83 82//82 87//87
f 142//142 135//135 139//139
f 164//164 187//187 199//199
f 180//180 294//294 125//125
f 146//146 142//142 139//139
f 5//5 67//67 56//56
f 122//122 143//143 158//158
f 48//48 144//144 69//69
f 132//132 140//140 147//147
f 139//139 200//200 146//146
f 162//162 145//145 141//141
f 184//184 83//83 127//127
f 146//146 200//200 265//265
f 254//254 239//239 273//273
f 154//154 162//162 141//141
f 243//243 150//150 187//187
f 132//132 147//147 155//155
f 150//150 149//149 187//187
f 149//149 199//199 187//187
f 235//235 148//148 220//220
f 239//239 265//265 153//153
f 138//138 89//89 129//129
f 17//17 23//23 14//14
f 180//180 91//91 73//73
f 17//17 3//3 144//144
f 179//179 186//186 107//107
f 172//172 157//157 131//131
f 89//89 13//13 129//129
f 131//131 122//122 158//158
f 131//131 158//158 172//172
f 285//285 272//272 286//286
f 156//156 147//147 140//140
f 76//76 226//226 239//239
f 116//116 292//292 67//67
f 8//8 69//69 144//144
f 118//118 149//149 232//232
f 125//125 151//151 170//170
f 276//276 150//150 216//216
f 141//141 145//145 130//130
f 191//191 98//98 164//164
f 165//165 159//159 152//152
f 174//174 165//165 152//152
f 102//102 120//120 163//163
f 102//102 74//74 120//120
f 166//166 156//156 190//190
f 216//216 167//167 276//276
f 282//282 276//276 167//167
f 156//156 155//155 147//147
f 180//180 170//170 183//183
f 171//171 261//261 177//177
f 154//154 283//283 162//162
f 151//151 159//159 170//170
f 1//1 8//8 144//144
f 182//182 167//167 216//216
f 162//162 283//283 181//181
f 138//138 20//20 89//89
f 208//208 162//162 175//175
f 165//165 105//105 159//159
f 17//17 14//14 3//3
f 97//97 126//126 160//160
f 165//165 174//174 130//130
f 1//1 144//144 3//3
f 173//173 161//161 273//273
f 159//159 105//105 170//170
f 179//179 120//120 204//204
f 168//168 184//184 127//127
f 105//105 145//145 288//288
f 228//228 184//184 22//22
f 91//91 180//180 74//74
f 74//74 180//180 183//183
f 170//170 105//105 188//188
f 110//110 229//229 176//176
f 195//195 213//213 231//231
f 158//158 247//247 172//172
f 208//208 288//288 145//145
f 184//184 168//168 22//22
f 239//239 226//226 134//134
f 288//288 122//122 105//105
f 195//195 231//231 28//28
f 182//182 140//140 167//167
f 49//49 200//200 139//139
f 110//110 257//257 229//229
f 97//97 239//239 254//254
f 155//155 178//178 132//132
f 181//181 203//203 185//185
f 217//217 286//286 189//189
f 229//229 190//190 182//182
f 155//155 152//152 206//206
f 82//82 184//184 135//135
f 192//192 200//200 49//49
f 193//193 166//166 194//194
f 145//145 162//162 208//208
f 140//140 182//182 190//190
f 193//193 156//156 166//166
f 98//98 243//243 164//164
f 110//110 268//268 257//257
f 190//190 156//156 140//140
f 156//156 198//198 155//155
f 40//40 103//103 84//84
f 268//268 110//110 261//261
f 243//243 187//187 164//164
f 120//120 74//74 183//183
f 143//143 175//175 185//185
f 156//156 193//193 207//207
f 162//162 181//181 175//175
f 198//198 156//156 207//207
f 206//206 178//178 155//155
f 189//189 286//286 210//210
f 31//31 25//25 104//104
f 171//171 268//268 261//261
f 190//190 229//229 194//194
f 194//194 166//166 190//190
f 34//34 202//202 205//205
f 13//13 284//284 129//129
f 220//220 213//213 195//195
f 171//171 12//12 196//196
f 28//28 120//120 183//183
f 201//201 85//85 199//199
f 150//150 243//243 176//176
f 195//195 28//28 172//172
f 172//172 28//28 157//157
f 207//207 215//215 198//198
f 204//204 120//120 231//231
f 149//149 201//201 199//199
f 118//118 201//201 149//149
f 200//200 192//192 35//35
f 285//285 264//264 272//272
f 213//213 197//197 204//204
f 152//152 155//155 198//198
f 202//202 50//50 205//205
f 211//211 209//209 223//223
f 216//216 150//150 176//176
f 205//205 50//50 256//256
f 193//193 194//194 209//209
f 104//104 25//25 117//117
f 117//117 25//25 169//169
f 214//214 143//143 185//185
f 267//267 285//285 283//283
f 205//205 256//256 287//287
f 224//224 215//215 207//207
f 228//228 13//13 89//89
f 160//160 87//87 142//142
f 152//152 198//198 215//215
f 193//193 209//209 211//211
f 146//146 160//160 142//142
f 123//123 208//208 175//175
f 210//210 225//225 295//295
f 213//213 248//248 197//197
f 189//189 210//210 219//219
f 218//218 189//189 234//234
f 219//219 234//234 189//189
f 214//214 158//158 143//143
f 207//207 193//193 227//227
f 286//286 225//225 210//210
f 217//217 189//189 218//218
f 35//35 153//153 265//265
f 222//222 225//225 127//127
f 218//218 185//185 217//217
f 213//213 204//204 231//231
f 217//217 185//185 203//203
f 227//227 193//193 211//211
f 220//220 248//248 213//213
f 214//214 233//233 158//158
f 233//233 214//214 234//234
f 171//171 223//223 268//268
f 224//224 207//207 227//227
f 182//182 216//216 176//176
f 42//42 212//212 197//197
f 228//228 89//89 135//135
f 174//174 152//152 215//215
f 146//146 97//97 160//160
f 211//211 223//223 241//241
f 38//38 84//84 42//42
f 41//41 173//173 226//226
f 225//225 222//222 230//230
f 174//174 215//215 224//224
f 212//212 42//42 84//84
f 35//35 265//265 200//200
f 135//135 184//184 228//228
f 214//214 218//218 234//234
f 182//182 176//176 229//229
f 295//295 230//230 296//296
f 27//27 191//191 81//81
f 118//118 232//232 121//121
f 219//219 295//295 237//237
f 136//136 121//121 232//232
f 296//296 230//230 126//126
f 210//210 295//295 219//219
f 240//240 227//227 211//211
f 39//39 49//49 62//62
f 63//63 72//72 236//236
f 224//224 227//227 240//240
f 269//269 235//235 195//195
f 256//256 50//50 245//245
f 121//121 136//136 206//206
f 236//236 114//114 66//66
f 237//237 295//295 250//250
f 251//251 240//240 211//211
f 136//136 178//178 206//206
f 223//223 171//171 241//241
f 234//234 219//219 237//237
f 234//234 237//237 244//244
f 244//244 233//233 234//234
f 241//241 251//251 211//211
f 80//80 238//238 34//34
f 153//153 76//76 239//239
f 240//240 242//242 174//174
f 295//295 296//296 250//250
f 53//53 66//66 114//114
f 250//250 246//246 237//237
f 42//42 197//197 248//248
f 243//243 98//98 80//80
f 252//252 245//245 50//50
f 243//243 80//80 34//34
f 95//95 81//81 85//85
f 233//233 244//244 255//255
f 243//243 34//34 106//106
f 250//250 296//296 246//246
f 237//237 246//246 244//244
f 251//251 241//241 253//253
f 247//247 158//158 249//249
f 224//224 240//240 174//174
f 249//249 158//158 233//233
f 242//242 259//259 174//174
f 106//106 34//34 205//205
f 194//194 229//229 257//257
f 255//255 249//249 233//233
f 280//280 174//174 259//259
f 242//242 240//240 251//251
f 287//287 106//106 205//205
f 254//254 246//246 296//296
f 244//244 263//263 255//255
f 206//206 152//152 121//121
f 109//109 137//137 92//92
f 262//262 263//263 244//244
f 266//266 269//269 247//247
f 269//269 172//172 247//247
f 241//241 264//264 253//253
f 55//55 42//42 260//260
f 249//249 266//266 247//247
f 109//109 57//57 137//137
f 260//260 42//42 248//248
f 262//262 246//246 254//254
f 280//280 130//130 174//174
f 244//244 246//246 262//262
f 209//209 194//194 257//257
f 262//262 254//254 273//273
f 161//161 258//258 273//273
f 258//258 266//266 249//249
f 47//47 55//55 260//260
f 249//249 255//255 258//258
f 260//260 248//248 220//220
f 260//260 220//220 148//148
f 47//47 260//260 148//148
f 241//241 196//196 264//264
f 253//253 267//267 274//274
f 220//220 195//195 235//235
f 255//255 263//263 258//258
f 134//134 173//173 273//273
f 251//251 274//274 242//242
f 263//263 262//262 258//258
f 223//223 257//257 268//268
f 223//223 209//209 257//257
f 154//154 280//280 274//274
f 274//274 280//280 259//259
f 270//270 287//287 256//256
f 177//177 12//12 171//171
f 266//266 161//161 269//269
f 258//258 161//161 266//266
f 270//270 256//256 245//245
f 195//195 172//172 269//269
f 251//251 253//253 274//274
f 150//150 271//271 149//149
f 258//258 262//262 273//273
f 274//274 259//259 242//242
f 173//173 269//269 161//161
f 12//12 275//275 196//196
f 271//271 150//150 276//276
f 264//264 196//196 272//272
f 148//148 235//235 277//277
f 272//272 196//196 275//275
f 267//267 253//253 264//264
f 277//277 70//70 148//148
f 19//19 109//109 92//92
f 267//267 264//264 285//285
f 235//235 269//269 277//277
f 19//19 92//92 281//281
f 171//171 196//196 241//241
f 281//281 92//92 95//95
f 279//279 271//271 276//276
f 289//289 278//278 270//270
f 289//289 270//270 245//245
f 271//271 279//279 136//136
f 149//149 271//271 136//136
f 283//283 154//154 274//274
f 269//269 173//173 277//277
f 279//279 276//276 282//282
f 267//267 283//283 274//274
f 203//203 283//283 285//285
f 181//181 283//283 203//203
f 289//289 245//245 291//291
f 232//232 149//149 136//136
f 290//290 281//281 115//115
f 284//284 22//22 177//177
f 59//59 109//109 19//19
f 286//286 217//217 285//285
f 59//59 19//19 113//113
f 176//176 287//287 110//110
f 30//30 109//109 59//59
f 208//208 123//123 288//288
f 203//203 285//285 217//217
f 270//270 278//278 110//110
f 24//24 290//290 294//294
f 225//225 286//286 272//272
f 181//181 185//185 175//175
f 293//293 289//289 291//291
f 278//278 261//261 110//110
f 278//278 289//289 293//293
f 293//293 261//261 278//278
f 291//291 292//292 293//293
f 284//284 293//293 292//292
f 185//185 218//218 214//214
f 24//24 294//294 73//73
f 295//295 225//225 230//230
f 30//30 59//59 297//297
f 59//59 113//113 75//75
f 294//294 290//290 125//125
f 297//297 33//33 30//30
f 59//59 75//75 297//297
f 75//75 299//299 88//88
f 75//75 298//298 299//299
f 298//298 128//128 73//73
f 91//91 298//298 73//73
f 125//125 170//170 180//180
f 91//91 299//299 298//298
f 101//101 300//300 88//88
f 88//88 300//300 9//9
f 183//183 170//170 188//188
f 101//101 88//88 299//299
f 299//299 102//102 101//101
f 228//228 22//22 13//13