# https://github.com/mikedh/trimesh
v -0.05263552 -0.01153894 -0.01843496
v -0.06726156 -0.00938656 -0.02468618
v 0.01865408 -0.01885291 0.01817253
v -0.07278673 0.00282096 -0.02213176
v -0.01755277 -0.00189309 0.01072417
v -0.06561329 -0.01028458 -0.01615852
v 0.03141491 -0.01925987 0.01389352
v 0.01903244 -0.00925565 0.02201308
v -0.06403702 -0.00265095 -0.03078287
v -0.00121657 -0.00407534 0.01596293
v -0.00371712 -0.01955454 0.00942512
v -0.07127524 0.00157900 -0.01502286
v 0.00268970 -0.02045931 0.00932490
v -0.01036297 0.00123233 0.01162181
v -0.07094213 -0.00438180 -0.02597848
v -0.05931330 -0.01045983 -0.01379198
v 0.00356948 -0.01801934 0.01411100
v -0.05943281 0.00051800 -0.03065672
v -0.06086218 -0.01113398 -0.02162732
v 0.01359885 -0.02001177 0.01555537
v -0.06827202 -0.00369074 -0.01212606
v 0.00967685 -0.01518000 0.01786566
v -0.07057528 -0.00751483 -0.01617161
v 0.00594410 -0.01055428 0.01773616
v -0.06867344 -0.01014662 -0.02148057
v 0.02015235 -0.02035623 0.01455674
v 0.02795950 -0.01951515 0.01683931
v 0.02459728 -0.00603067 0.02449769
v 0.00599175 -0.00050625 0.01809204
v -0.04883444 -0.01002123 -0.00821074
v 0.01488098 -0.01431713 0.01988270
v 0.04555230 -0.01606824 0.01154165
v -0.04181838 -0.01118500 -0.00519364
v -0.05306107 -0.00546945 -0.00651783
v 0.03494018 -0.01591866 0.02413662
v -0.05277047 0.00092079 -0.00625831
v 0.02265400 -0.00076171 0.02372861
v 0.02779308 -0.01647060 0.00476407
v -0.04434250 -0.00109202 -0.00126972
v -0.04534798 -0.00477431 -0.00223779
v 0.03938866 -0.01475852 0.02524708
v -0.00149081 -0.01193104 0.01505452
v 0.05338763 -0.01382680 0.02624263
v -0.06431483 0.00205039 -0.03173057
v -0.05316114 -0.00793900 -0.02447898
v -0.05300609 -0.01080245 -0.01187672
v -0.05338276 -0.00249418 -0.02776905
v -0.03941159 -0.00874274 -0.02245176
v -0.03516879 -0.00642732 -0.02295946
v -0.04200495 -0.00273769 -0.02614486
v -0.03710272 -0.00305524 -0.02529907
v -0.06292652 -0.00398931 -0.00974296
v -0.05790462 -0.00738852 -0.00987028
v -0.06135555 0.00224238 -0.01098868
v -0.03185017 -0.01089304 -0.01830920
v -0.02417022 -0.00959518 -0.01775901
v -0.01899197 -0.00895694 -0.01809019
v 0.03779706 -0.01857044 0.01796309
v -0.04998527 -0.00772465 -0.00655204
v -0.01008595 -0.01037679 -0.01581633
v -0.00280813 -0.01981789 0.00193414
v -0.01701947 -0.01211680 -0.01505224
v -0.03672022 -0.01341831 -0.01366118
v -0.01582380 -0.01484703 -0.01187312
v -0.02233071 -0.01708630 -0.00285708
v -0.04553581 -0.00651573 -0.02451031
v -0.02442810 -0.01020539 0.00570781
v -0.01385869 -0.01872171 -0.00312482
v -0.00941218 -0.01753328 0.00880240
v -0.01691665 -0.01861004 0.00140536
v -0.01086330 -0.00559812 0.01249993
v -0.01503411 -0.01830178 0.00459999
v -0.02216583 -0.01608975 0.00280881
v -0.01587468 -0.00884929 0.01046675
v -0.00794946 -0.01042098 0.01304214
v -0.04010951 -0.01333408 -0.00946151
v -0.00836975 -0.01544995 -0.00929493
v -0.01030485 -0.01980257 0.00281451
v -0.02448936 -0.01295963 -0.01282870
v -0.03264590 -0.01369559 -0.00983623
v -0.01540790 -0.01625625 0.00706299
v -0.01707913 -0.00040930 -0.02233621
v 0.00774020 -0.01955521 0.01382849
v -0.03068627 -0.00703582 0.00192152
v -0.01438227 -0.00709202 -0.01928091
v -0.03136806 -0.01238405 -0.00474860
v -0.02435609 0.00651789 0.00488824
v -0.02362996 0.01307489 -0.00001997
v -0.02229945 0.01511654 -0.00189554
v -0.02740340 -0.01267888 -0.00043732
v -0.02777471 -0.01365686 -0.00773633
v -0.00134076 -0.01786247 -0.00213531
v -0.01789820 0.01960184 -0.00598837
v 0.00841724 -0.00721501 0.01873580
v 0.05968682 -0.00692633 0.01290570
v -0.01371405 0.00700387 0.00874638
v -0.00121233 -0.01570872 -0.00542284
v -0.00559349 -0.00621527 -0.01734048
v -0.04278614 -0.01214245 -0.01828762
v -0.01710885 0.01620728 0.00077581
v 0.00543176 -0.02012444 0.00516452
v -0.01950970 0.01053364 0.00499739
v -0.02493138 -0.00597449 0.00670169
v 0.01357567 -0.00225062 0.02093810
v -0.02489382 -0.00174292 0.00689169
v -0.02036753 0.00127539 0.00884482
v 0.02618668 -0.01367625 0.02317521
v 0.00025108 0.00259325 0.01511439
v -0.02006739 -0.00708458 0.00908214
v 0.03042395 -0.01558984 0.02339734
v 0.03871277 -0.01783923 0.02153415
v 0.00927172 -0.02072275 0.00988698
v -0.01747779 -0.01200172 0.00875807
v 0.00725268 0.00954730 0.01493299
v -0.00573075 0.02223239 -0.00421166
v 0.05222840 -0.01542792 0.01976210
v 0.00180564 0.01791276 0.00703312
v 0.05606858 -0.01519997 0.02010144
v 0.05951398 -0.01406064 0.02216709
v -0.03276841 0.00856796 -0.02267132
v 0.03309840 -0.01054274 0.02608212
v 0.05525277 -0.01013210 0.02957844
v 0.02424048 -0.01815098 0.02037634
v -0.04429316 -0.01306356 -0.01278204
v -0.03796422 0.00403893 -0.02647888
v 0.05938486 -0.00910571 0.02458541
v -0.01092038 0.01364423 0.00562928
v 0.03880911 -0.00464525 0.02927110
v 0.02339388 0.00653669 0.02205828
v -0.06030625 0.00685804 -0.02798329
v 0.04008320 -0.01228078 0.02699517
v 0.03944207 -0.00810523 0.02860004
v 0.00109060 -0.00643979 -0.01524564
v -0.00964624 0.00871045 -0.02013126
v -0.00355530 0.00733392 0.01199307
v -0.04851345 0.00583774 -0.02688424
v -0.02182645 -0.01576684 -0.00843499
v -0.05593132 0.00545756 -0.02798032
v -0.05344060 0.00208268 -0.02898495
v 0.00087575 0.00257237 -0.01742853
v 0.01467373 0.00573173 0.01923403
v 0.01893991 0.00307032 0.02160500
v -0.06660197 0.00748899 -0.02704951
v -0.02935654 0.01235955 -0.01523314
v 0.01192111 -0.00882575 -0.00977647
v 0.05768303 -0.01431341 0.02527144
v -0.02422173 0.00668200 -0.02217451
v -0.05377974 0.00949399 -0.02197939
v -0.02246471 0.01376096 -0.01657427
v -0.02595657 0.00988693 -0.01957541
v -0.04725550 0.00941004 -0.02275849
v -0.02025614 0.01711353 -0.01379113
v -0.00517151 0.01359026 -0.01649838
v -0.00393347 -0.01061369 -0.01209881
v -0.01215252 0.01692652 -0.01501694
v 0.01237830 0.01620494 -0.01033160
v 0.01038432 0.01109630 -0.01338298
v -0.02980526 0.01244424 -0.00804813
v 0.02207421 0.00536052 -0.01134295
v -0.02027783 0.01835418 -0.01107289
v 0.01801026 0.01898191 -0.00695398
v 0.05636253 -0.01266948 0.01176491
v -0.00926616 0.02080265 -0.01006827
v 0.00453557 -0.01108045 -0.00913783
v -0.03903998 0.01205131 -0.01743016
v -0.04520274 0.01117734 -0.01394383
v 0.01072668 0.02233222 -0.00500414
v 0.00340487 0.02222179 -0.00645825
v 0.00355246 0.00996923 -0.01548455
v 0.02547162 0.01615199 -0.00654987
v 0.01710160 0.02429394 0.00006785
v 0.03531923 0.01584915 -0.00370455
v 0.03027614 -0.01829201 0.02108773
v 0.00147223 0.01623563 -0.01284636
v -0.00178750 0.02187539 -0.00775444
v 0.05518756 0.00630617 -0.00106462
v 0.02360836 0.02149281 -0.00287536
v -0.03797763 0.01158041 -0.00935263
v 0.01262643 0.02314448 0.00473104
v 0.02118301 0.02405533 0.00562653
v 0.00635144 0.02121189 0.00516614
v 0.01641453 0.00381062 -0.01308955
v -0.00365375 0.01901614 0.00364189
v 0.01742269 0.02212851 0.00825359
v 0.02860757 0.00940029 -0.00889235
v 0.01330490 0.01881001 0.01074607
v 0.02622537 0.01054297 0.02111612
v 0.03667539 0.00984888 -0.00620886
v 0.03356016 0.02119163 -0.00009715
v -0.00742053 -0.01420300 0.01193845
v 0.01813725 0.01372689 0.01637125
v 0.02016183 0.01006781 -0.01112647
v 0.03272600 0.00776171 0.02486327
v -0.06762296 -0.00025470 -0.03207186
v 0.04404101 0.01962673 0.00205057
v 0.03722589 0.00641927 0.02710066
v 0.00619356 0.02369924 -0.00048631
v 0.04016993 0.00159496 -0.00555198
v -0.06360801 -0.00758580 -0.02796703
v 0.04564910 0.00683583 0.02845085
v -0.04064704 0.00852073 -0.02404720
v 0.04707262 -0.01705923 0.01754022
v -0.03032611 0.00113181 -0.02440172
v 0.02581966 -0.00861558 -0.00534172
v 0.04692041 0.02095822 0.00499657
v -0.01656627 0.00485752 -0.02248721
v -0.01677456 -0.01703797 -0.00767679
v 0.05505882 -0.00203705 0.00000393
v -0.00970063 0.01976283 -0.00050792
v 0.05545751 0.00208100 -0.00071885
v -0.00061285 0.02117236 0.00210718
v -0.00751813 -0.01795716 -0.00432052
v -0.00002426 0.01323654 0.01009543
v -0.01588057 0.01231452 -0.01941048
v 0.04448949 0.02286553 0.00870839
v -0.03172338 -0.01045737 -0.00135035
v 0.05461971 0.01140495 -0.00031366
v 0.05192517 0.01966922 0.00692579
v -0.03870346 -0.00819856 -0.00127201
v -0.02306440 -0.00486310 -0.02124734
v 0.05682991 0.01861442 0.00898225
v 0.06030216 0.01246954 0.01180156
v 0.05778154 0.01540187 0.00559099
v 0.04711220 0.01580433 -0.00019398
v -0.03271494 -0.00133245 0.00299760
v -0.03825408 -0.00022469 0.00092121
v -0.06966623 0.00757909 -0.02182916
v 0.06056758 0.00095710 0.01486793
v -0.06190457 0.00956685 -0.02257194
v 0.05233639 -0.01521973 0.01433529
v 0.05894018 0.01845128 0.01508710
v 0.05770112 -0.01414616 0.01665699
v 0.04085377 -0.01822362 0.01663001
v -0.02725884 0.00040217 0.00542096
v 0.05277096 0.02099431 0.01331962
v -0.06653320 0.00773285 -0.01878344
v -0.06407542 0.00707622 -0.01631883
v 0.05427295 0.01818902 0.02020764
v 0.04805277 -0.01454256 0.02541139
v 0.04488247 0.00812779 -0.00419623
v 0.05463612 0.01294913 0.02203012
v 0.03738335 -0.00111919 0.02877224
v 0.03212691 -0.00278512 0.02704418
v 0.04761366 -0.00860546 0.02970643
v 0.05606257 -0.00576215 0.02907486
v 0.04142704 0.01795356 0.02176851
v 0.04635952 0.01494113 0.02403301
v 0.05874061 -0.00135389 0.02303348
v 0.02282133 0.01912751 0.01377900
v 0.03999276 0.01001863 0.02678468
v -0.02919608 -0.00326105 -0.02300686
v 0.04547489 -0.00129641 0.03016742
v -0.04587918 0.00080251 -0.02779719
v 0.02881512 0.01728275 0.01755846
v -0.04399769 0.00462808 -0.00277360
v -0.01093904 -0.00392546 -0.02008230
v 0.02623405 0.02394481 0.00129795
v -0.02259332 -0.00012810 -0.02322112
v -0.04250907 0.00898384 -0.00641008
v -0.01018032 0.00192466 -0.02123427
v -0.03647453 0.00930570 -0.00441092
v -0.00395589 -0.00042240 -0.01856114
v -0.00444697 0.00265908 -0.01903983
v 0.00885551 0.00306262 -0.01532737
v 0.01866659 -0.00134461 -0.01150893
v 0.03793507 0.00277574 0.02872972
v -0.05541506 0.00880397 -0.01578634
v 0.00800194 -0.00476289 -0.01391331
v -0.05692560 0.00661143 -0.01308478
v 0.02640549 0.00268909 -0.00989956
v 0.03046602 0.00067824 -0.00841892
v -0.05076722 0.00590580 -0.00816360
v 0.04782685 0.00077382 -0.00315013
v 0.05558978 -0.00618076 0.00342864
v 0.02045758 -0.00685926 -0.00955380
v 0.03375919 -0.00431492 -0.00620742
v -0.04691577 0.00762251 -0.00769185
v 0.04579919 -0.00617510 -0.00164903
v 0.02007875 -0.01244088 -0.00268267
v -0.00220298 0.00726026 -0.01774748
v 0.05193879 -0.01061152 0.00571431
v 0.01112441 -0.01510157 -0.00284767
v 0.03122070 -0.00927360 -0.00226700
v 0.03903569 -0.00864053 -0.00099374
v -0.03692327 0.00607067 -0.00108502
v 0.03872352 0.02271570 0.00437094
v -0.02680711 0.01003519 0.00025381
v 0.03232268 0.02444990 0.00610080
v 0.00769279 -0.01814062 0.00084960
v 0.01631982 -0.01792833 0.00330673
v 0.03911904 -0.01323604 0.00463606
v -0.03129666 0.00485590 0.00162404
v 0.03388319 -0.01777060 0.00986126
v 0.01777465 -0.01953610 0.00751501
v 0.02955815 0.02311376 0.01085547
v 0.04054251 -0.01659350 0.01049093
v 0.02497519 0.02278687 0.00991500
v 0.02426768 -0.01993660 0.01341553
v 0.03892423 0.02399138 0.01099907
v 0.03808789 0.02127269 0.01709343
v 0.03447467 0.02208842 0.01406013
v 0.06044812 0.00672763 0.01273791
v 0.05961583 0.00805278 0.00662265
v 0.04229939 0.02171625 0.01718806
v 0.04742602 0.02235194 0.01458468
v 0.04950463 0.01974140 0.01801012
v 0.03442283 0.01359238 0.02226508
v 0.04137903 0.01328148 0.02532750
vn -0.05739539 -0.97611649 -0.20952891
vn -0.35266969 -0.77379443 -0.52618083
vn -0.15291516 -0.75766348 0.63447853
vn -0.97556591 0.19902485 -0.09306056
vn -0.32731590 0.08967026 0.94065060
vn -0.27670638 -0.86976590 0.40858397
vn 0.11289992 -0.98226681 -0.14968472
vn -0.29539985 -0.19016613 0.93625625
vn 0.16009533 -0.39152938 -0.90613146
vn -0.32899303 0.04270074 0.94336644
vn -0.23484933 -0.86920707 0.43511476
vn -0.78800880 0.27377098 0.55144500
vn -0.09929250 -0.97842469 0.18117980
vn -0.28580110 0.23478396 0.92908246
vn -0.83917155 -0.35122300 -0.41525114
vn -0.20777904 -0.87998842 0.42713961
vn -0.27398198 -0.62709192 0.72917049
vn 0.25787882 -0.03672103 -0.96547920
vn 0.00540565 -0.96949983 -0.24503236
vn -0.12914186 -0.87989233 0.45728750
vn -0.53481962 -0.15573732 0.83049013
vn -0.29906499 -0.41271457 0.86036435
vn -0.78597748 -0.49408851 0.37163955
vn -0.30921274 -0.17476049 0.93479744
vn -0.55069224 -0.82556039 -0.12324005
vn 0.00767480 -0.99401412 0.10898176
vn 0.04287042 -0.98408977 0.17242229
vn -0.30429610 -0.10512539 0.94675896
vn -0.32274793 0.15762917 0.93326675
vn -0.31841042 -0.78252853 0.53503637
vn -0.26028521 -0.33880574 0.90413621
vn 0.21382065 -0.90049657 -0.37866430
vn -0.26988309 -0.77577250 0.57038597
vn -0.47176921 -0.28377680 0.83480809
vn -0.08926696 -0.62356594 0.77665754
vn -0.45502753 0.22225657 0.86229459
vn -0.29851878 0.14072504 0.94397193
vn 0.17360180 -0.84676313 -0.50284651
vn -0.39228013 0.05943900 0.91792337
vn -0.39862838 -0.31704986 0.86056656
vn -0.01069900 -0.66674485 0.74520926
vn -0.31033150 -0.25028465 0.91708885
vn 0.02651586 -0.83925062 0.54309787
vn 0.03584910 0.29293338 -0.95546056
vn 0.12959493 -0.69263424 -0.70955124
vn -0.23278601 -0.90483180 0.35649697
vn 0.16695750 -0.40417901 -0.89931336
vn 0.09744914 -0.66327245 -0.74200628
vn 0.23543226 -0.53518061 -0.81126652
vn 0.10196937 -0.38713317 -0.91636791
vn 0.19470438 -0.32888214 -0.92408157
vn -0.37554472 -0.19427772 0.90621318
vn -0.33256333 -0.54133184 0.77224444
vn -0.37701638 0.46628880 0.80027083
vn 0.15325922 -0.79394395 -0.58835756
vn 0.07192964 -0.70342007 -0.70712540
vn 0.04449633 -0.63860124 -0.76825031
vn 0.10883971 -0.98842787 0.10566104
vn -0.41653108 -0.60540766 0.67822078
vn 0.23859605 -0.69448300 -0.67879694
vn 0.03996170 -0.97853408 -0.20217349
vn 0.02049252 -0.73408677 -0.67874640
vn 0.05361277 -0.97662366 -0.20816313
vn 0.02905017 -0.82341099 -0.56670136
vn -0.38208388 -0.92380169 -0.02454266
vn 0.09352720 -0.57045054 -0.81598949
vn -0.55227465 -0.41527738 0.72286749
vn -0.06586565 -0.96625126 -0.24903857
vn -0.33171172 -0.71852020 0.61130684
vn -0.26810101 -0.95828261 0.09907721
vn -0.30910780 -0.00070545 0.95102675
vn -0.20468277 -0.85806888 0.47098064
vn -0.52001797 -0.73330244 0.43800553
vn -0.36317963 -0.19059972 0.91201552
vn -0.33671753 -0.19954574 0.92021889
vn -0.13937213 -0.96834219 0.20709616
vn 0.19071682 -0.77941990 -0.59676773
vn -0.13605298 -0.98545227 0.10184998
vn -0.07755030 -0.89423354 -0.44083141
vn -0.00056432 -0.99999819 -0.00181873
vn -0.34833982 -0.65539559 0.67016117
vn 0.15476177 -0.21213914 -0.96490714
vn -0.18722291 -0.82980749 0.52570630
vn -0.44316913 -0.40465419 0.79991006
vn 0.12651346 -0.52869746 -0.83932910
vn -0.27786684 -0.90143766 0.33196411
vn -0.43595812 0.43230838 0.78933515
vn -0.50596383 0.68313073 0.52662416
vn -0.84172045 0.19311475 -0.50419577
vn -0.56118606 -0.68844623 0.45946926
vn -0.23241879 -0.96675435 -0.10661863
vn 0.15230717 -0.87354474 -0.46230089
vn -0.35764404 0.92012563 0.15956056
vn -0.30385629 -0.06979306 0.95015803
vn 0.95004567 0.08707768 -0.29971771
vn -0.28584841 0.39710457 0.87212307
vn 0.20384752 -0.78696296 -0.58235340
vn 0.29077183 -0.48308391 -0.82588236
vn 0.00228751 -0.90361709 -0.42833507
vn -0.33311145 0.74161234 0.58227820
vn 0.05310556 -0.96989068 -0.23768019
vn -0.35636213 0.53123246 0.76863392
vn -0.53748358 -0.14324931 0.83101807
vn -0.32545649 0.06400195 0.94338848
vn -0.49143295 0.02314695 0.87060776
vn -0.37873506 0.26077459 0.88800697
vn -0.27576701 -0.36480003 0.88931068
vn -0.32629058 0.27245013 0.90515490
vn -0.41760260 -0.19219370 0.88807075
vn -0.22680278 -0.51855456 0.82441595
vn 0.10585295 -0.91503990 0.38922632
vn 0.01357449 -0.99967503 0.02157692
vn -0.41955649 -0.39207761 0.81868645
vn -0.30265340 0.43368946 0.84871337
vn -0.17447669 0.97999125 0.09578638
vn 0.13078321 -0.98542423 0.10878806
vn -0.27745478 0.66947745 0.68907096
vn 0.18787938 -0.98208349 0.01460676
vn 0.80680711 -0.58287612 0.09652836
vn 0.15780276 0.65673401 -0.73742710
vn -0.25316828 -0.28433686 0.92469366
vn 0.33028855 -0.28927730 0.89845875
vn -0.14272844 -0.71375779 0.68569557
vn -0.16351916 -0.98436326 0.06550155
vn 0.20741140 0.22001695 -0.95319098
vn 0.92795671 0.17799838 0.32743384
vn -0.28684793 0.60543824 0.74240339
vn -0.22327229 -0.08955640 0.97063337
vn -0.31454168 0.33812244 0.88698182
vn 0.10665341 0.70930249 -0.69678908
vn -0.10801987 -0.47862170 0.87135123
vn -0.19864608 -0.28995856 0.93619644
vn 0.24191173 -0.50760347 -0.82693254
vn 0.24156278 0.30392796 -0.92156129
vn -0.30927752 0.37920825 0.87209433
vn 0.07212165 0.55195737 -0.83074757
vn -0.24085181 -0.90536370 -0.34972414
vn 0.15227135 0.58332027 -0.79784140
vn 0.18654653 0.09379277 -0.97795875
vn 0.28799140 -0.02928184 -0.95718521
vn -0.31729528 0.34024666 0.88518694
vn -0.31754492 0.24773578 0.91530990
vn -0.37575886 0.75759025 -0.53372492
vn -0.18709190 0.93147229 -0.31201921
vn 0.18999387 -0.69152484 -0.69691874
vn 0.46012299 -0.73420863 0.49922392
vn 0.04366606 0.44697713 -0.89347900
vn -0.01998642 0.96122049 -0.27505584
vn -0.21003610 0.70487885 -0.67751801
vn -0.04463484 0.73435390 -0.67729763
vn -0.04818098 0.88827658 -0.45677491
vn -0.19822419 0.82364843 -0.53132894
vn 0.21619948 0.52752590 -0.82156814
vn 0.25109589 -0.71310699 -0.65454509
vn 0.03522438 0.73998609 -0.67169921
vn 0.19919135 0.54743022 -0.81279946
vn 0.23710701 0.31817006 -0.91790418
vn -0.36824468 0.90370879 0.21841766
vn 0.28235426 0.02878190 -0.95887834
vn -0.33540971 0.91511362 -0.22375744
vn 0.19861815 0.63746744 -0.74443677
vn 0.60585221 -0.62826467 -0.48808464
vn -0.04748874 0.89859607 -0.43619940
vn 0.17523682 -0.73754630 -0.65216371
vn -0.03868301 0.97504638 -0.21860508
vn -0.23433832 0.96020531 0.15195826
vn 0.08807697 0.83815057 -0.53828066
vn 0.07646516 0.86832342 -0.49006889
vn 0.24939096 0.29671124 -0.92182785
vn 0.25045255 0.51252671 -0.82133421
vn 0.02308451 0.97356365 -0.22724641
vn 0.25151457 0.51386636 -0.82017180
vn -0.06995792 -0.84011174 0.53788304
vn 0.18274980 0.59648746 -0.78154029
vn 0.02882805 0.88724080 -0.46040494
vn 0.64709741 0.04771149 -0.76091298
vn 0.17419843 0.73236924 -0.65824783
vn -0.15836665 0.95139335 0.26414144
vn -0.16147688 0.91788646 0.36250471
vn -0.07907826 0.97227543 0.22006164
vn -0.24261564 0.81036597 0.53333353
vn 0.28447083 -0.00331659 -0.95867896
vn -0.29342423 0.75229583 0.58987558
vn -0.19224759 0.81989783 0.53926654
vn 0.29683634 0.23045857 -0.92670224
vn -0.26223375 0.66217685 0.70196530
vn -0.30205053 0.46936852 0.82973409
vn 0.27904484 0.24054954 -0.92966117
vn 0.22113049 0.74591769 -0.62825800
vn -0.33568642 -0.43567937 0.83516353
vn -0.29104908 0.52058533 0.80267138
vn 0.25465091 0.29899306 -0.91964997
vn -0.30116699 0.40994353 0.86095572
vn -0.43643658 -0.03555543 -0.89903221
vn 0.26270861 0.70557023 -0.65814499
vn -0.28493967 0.35186179 0.89162922
vn -0.10717625 0.99191773 0.06791523
vn 0.28606704 -0.10488010 -0.95245252
vn -0.02477228 -0.66618599 -0.74537411
vn 0.23837362 0.29995823 0.92368993
vn 0.07983811 0.73065159 -0.67806646
vn 0.20254718 -0.97826227 0.04446994
vn 0.19953570 0.00305483 -0.97988580
vn 0.26521399 -0.73005407 -0.62982744
vn 0.32950127 0.81669468 -0.47374963
vn 0.13475373 0.17569005 -0.97517918
vn -0.07491927 -0.92494255 -0.37265047
vn 0.66290340 -0.29856723 -0.68659791
vn -0.25894901 0.83419103 0.48689910
vn 0.70698088 -0.10422556 -0.69951059
vn -0.25994958 0.84530399 0.46678409
vn 0.10802588 -0.90182452 -0.41838134
vn -0.29311756 0.53298426 0.79373162
vn 0.01101066 0.56651137 -0.82398036
vn 0.22670090 0.95823635 -0.17432669
vn -0.35058290 -0.72900171 0.58791848
vn 0.55719925 0.36336276 -0.74665688
vn 0.36222677 0.82215198 -0.43915587
vn -0.27047644 -0.54748377 0.79189899
vn 0.09314406 -0.49832544 -0.86197212
vn 0.55689877 0.76243287 -0.32948426
vn 0.98665204 0.15250090 0.05710711
vn 0.76401562 0.38466026 -0.51799287
vn 0.30284744 0.55993562 -0.77120395
vn -0.36049545 -0.02052510 0.93253512
vn -0.34314568 0.15455934 0.92647852
vn -0.61805052 0.78608989 0.00873165
vn 0.98469092 -0.09248797 0.14774898
vn -0.09284204 0.99198468 -0.08571323
vn 0.26390229 -0.92934519 -0.25821134
vn 0.80678422 0.49884785 0.31662288
vn 0.69280826 -0.65878933 -0.29328030
vn 0.18635024 -0.98190960 -0.03357266
vn -0.48774589 0.12076728 0.86459193
vn 0.30794649 0.94921546 0.06449008
vn -0.31852931 0.85389745 0.41158015
vn -0.27407743 0.78768698 0.55175246
vn 0.44525822 0.61785399 0.64807528
vn 0.04976857 -0.82110515 0.56860305
vn 0.28076564 0.17463490 -0.94375490
vn 0.66105192 0.08794512 0.74516845
vn -0.25907589 0.04114639 0.96498013
vn -0.33116395 -0.00036666 0.94357316
vn -0.03354822 -0.29763361 0.95409054
vn 0.55939104 0.27338544 0.78252288
vn -0.09596477 0.69443547 0.71312701
vn 0.15096859 0.57218800 0.80610755
vn 0.86921706 0.27980495 0.40764065
vn -0.22985802 0.69224050 0.68408215
vn -0.22592655 0.37839448 0.89764961
vn 0.18623582 -0.41750796 -0.88938367
vn 0.09895842 0.12466685 0.98725144
vn 0.13528366 -0.08720784 -0.98696156
vn -0.25561035 0.64029049 0.72435588
vn -0.36904019 0.46430315 0.80512851
vn 0.23898840 -0.33846667 -0.91012354
vn 0.10586583 0.93487297 -0.33882880
vn 0.14184326 -0.21114084 -0.96710911
vn -0.31193422 0.79068721 0.52679291
vn 0.27878450 -0.04640546 -0.95923185
vn -0.11925122 0.78368734 0.60960094
vn 0.32350027 -0.19193301 -0.92655777
vn 0.33017572 0.00983361 -0.94386826
vn 0.26869030 -0.01164403 -0.96315624
vn 0.28794602 -0.19290412 -0.93801657
vn -0.23496825 0.20402079 0.95035017
vn -0.20975233 0.92311464 0.32227832
vn 0.26437201 -0.36823306 -0.89135394
vn -0.30274970 0.75347409 0.58362610
vn 0.30635739 -0.05558516 -0.95029229
vn 0.29947388 -0.11401637 -0.94726747
vn -0.39850375 0.67040907 0.62589651
vn 0.29071299 -0.15688046 -0.94386147
vn 0.71880906 -0.47556256 -0.50710332
vn 0.25773282 -0.53250392 -0.80623407
vn 0.27288411 -0.44088592 -0.85507536
vn -0.39531299 0.77041643 0.50018612
vn 0.27431778 -0.53468568 -0.79928780
vn 0.21865276 -0.77224725 -0.59651081
vn 0.29827526 0.20110549 -0.93305329
vn 0.39798433 -0.72526879 -0.56177722
vn 0.19285687 -0.78316265 -0.59115353
vn 0.22457860 -0.71647933 -0.66047091
vn 0.18127638 -0.71886389 -0.67109879
vn -0.29511425 0.55242171 0.77957542
vn 0.19206785 0.90085042 -0.38933080
vn -0.48213267 0.65425984 0.58265955
vn 0.06523977 0.99539669 -0.07020827
vn 0.13371012 -0.88107323 -0.45368665
vn 0.27076594 -0.84267885 -0.46537958
vn 0.20292778 -0.79016223 -0.57832860
vn -0.39083107 0.38838097 0.83451261
vn 0.16733555 -0.91526708 -0.36644915
vn 0.13501862 -0.94884833 -0.28540642
vn -0.12132883 0.89977373 0.41914978
vn 0.18585395 -0.89745619 -0.40003837
vn -0.14168685 0.86794214 0.47602655
vn 0.11899433 -0.98302280 -0.13966577
vn 0.02257957 0.99164824 0.12698002
vn -0.19322424 0.80156680 0.56582247
vn -0.19502817 0.86099655 0.46973285
vn 0.98558580 -0.01803308 0.16821246
vn 0.91617935 -0.17976150 -0.35819156
vn 0.05463033 0.84898582 0.52558406
vn 0.20226524 0.93696428 0.28493281
vn 0.12208970 0.84233641 0.52494141
vn -0.30380852 0.53410247 0.78894546
vn -0.12976118 0.52755635 0.83955127
f 1//1 19//19 45//45
f 15//15 199//199 2//2
f 19//19 1//1 16//16
f 2//2 19//19 25//25
f 31//31 3//3 123//123
f 5//5 14//14 106//106
f 11//11 190//190 69//69
f 11//11 13//13 17//17
f 17//17 190//190 11//11
f 291//291 38//38 283//283
f 2//2 25//25 15//15
f 23//23 15//15 25//25
f 14//14 5//5 71//71
f 23//23 12//12 15//15
f 199//199 9//9 18//18
f 17//17 42//42 190//190
f 53//53 16//16 46//46
f 83//83 17//17 13//13
f 75//75 42//42 10//10
f 31//31 24//24 22//22
f 21//21 52//52 54//54
f 20//20 26//26 3//3
f 54//54 12//12 21//21
f 83//83 20//20 22//22
f 42//42 24//24 10//10
f 29//29 94//94 104//104
f 17//17 24//24 42//42
f 22//22 24//24 17//17
f 66//66 99//99 45//45
f 12//12 4//4 15//15
f 48//48 99//99 66//66
f 99//99 1//1 45//45
f 27//27 123//123 26//26
f 27//27 26//26 298//298
f 54//54 52//52 36//36
f 6//6 23//23 25//25
f 296//296 7//7 293//293
f 53//53 30//30 34//34
f 37//37 104//104 28//28
f 25//25 19//19 6//6
f 19//19 16//16 6//6
f 20//20 83//83 112//112
f 30//30 59//59 34//34
f 8//8 123//123 107//107
f 31//31 94//94 24//24
f 26//26 123//123 3//3
f 36//36 53//53 34//34
f 94//94 31//31 8//8
f 162//162 32//32 281//281
f 16//16 1//1 46//46
f 293//293 38//38 291//291
f 111//111 41//41 35//35
f 104//104 8//8 28//28
f 34//34 39//39 36//36
f 34//34 40//40 39//39
f 12//12 23//23 21//21
f 1//1 99//99 124//124
f 39//39 255//255 36//36
f 42//42 75//75 190//190
f 46//46 1//1 124//124
f 43//43 118//118 146//146
f 52//52 23//23 6//6
f 31//31 123//123 8//8
f 199//199 15//15 194//194
f 52//52 21//21 23//23
f 28//28 121//121 243//243
f 6//6 16//16 52//52
f 66//66 50//50 48//48
f 47//47 253//253 66//66
f 65//65 68//68 70//70
f 47//47 66//66 45//45
f 49//49 55//55 48//48
f 52//52 16//16 53//53
f 39//39 40//40 226//226
f 48//48 50//50 51//51
f 251//251 55//55 49//49
f 39//39 226//226 285//285
f 46//46 30//30 53//53
f 251//251 56//56 55//55
f 251//251 220//220 56//56
f 52//52 53//53 36//36
f 94//94 10//10 24//24
f 65//65 70//70 73//73
f 9//9 194//194 44//44
f 60//60 57//57 85//85
f 56//56 57//57 62//62
f 40//40 34//34 59//59
f 57//57 60//60 62//62
f 33//33 59//59 30//30
f 79//79 56//56 62//62
f 199//199 194//194 9//9
f 70//70 78//78 72//72
f 59//59 33//33 40//40
f 29//29 10//10 94//94
f 33//33 30//30 76//76
f 66//66 253//253 50//50
f 55//55 56//56 79//79
f 79//79 62//62 64//64
f 63//63 55//55 80//80
f 79//79 80//80 55//55
f 64//64 62//62 60//60
f 64//64 60//60 154//154
f 78//78 61//61 11//11
f 45//45 18//18 47//47
f 219//219 40//40 33//33
f 15//15 4//4 194//194
f 45//45 199//199 18//18
f 137//137 207//207 65//65
f 65//65 207//207 68//68
f 63//63 80//80 76//76
f 96//96 106//106 14//14
f 137//137 79//79 64//64
f 190//190 81//81 69//69
f 90//90 65//65 73//73
f 91//91 80//80 79//79
f 81//81 190//190 113//113
f 296//296 293//293 291//291
f 113//113 75//75 74//74
f 73//73 70//70 72//72
f 113//113 190//190 75//75
f 71//71 74//74 75//75
f 203//203 251//251 51//51
f 207//207 64//64 77//77
f 81//81 73//73 72//72
f 230//230 32//32 162//162
f 27//27 58//58 173//173
f 91//91 79//79 137//137
f 72//72 78//78 81//81
f 78//78 69//69 81//81
f 97//97 77//77 154//154
f 97//97 154//154 164//164
f 99//99 48//48 55//55
f 78//78 11//11 69//69
f 68//68 207//207 77//77
f 61//61 68//68 212//212
f 76//76 80//80 86//86
f 82//82 220//220 258//258
f 33//33 76//76 86//86
f 17//17 83//83 22//22
f 78//78 70//70 68//68
f 86//86 80//80 91//91
f 68//68 61//61 78//78
f 97//97 212//212 77//77
f 22//22 20//20 31//31
f 20//20 3//3 31//31
f 97//97 289//289 92//92
f 289//289 97//97 282//282
f 86//86 91//91 65//65
f 67//67 84//84 90//90
f 289//289 101//101 92//92
f 92//92 212//212 97//97
f 67//67 90//90 73//73
f 67//67 103//103 84//84
f 102//102 87//87 96//96
f 282//282 97//97 164//164
f 100//100 89//89 88//88
f 289//289 290//290 294//294
f 289//289 294//294 101//101
f 212//212 92//92 61//61
f 8//8 104//104 94//94
f 102//102 287//287 87//87
f 88//88 287//287 102//102
f 100//100 88//88 102//102
f 85//85 98//98 60//60
f 61//61 92//92 101//101
f 103//103 105//105 234//234
f 100//100 102//102 127//127
f 99//99 55//55 63//63
f 104//104 37//37 142//142
f 127//127 102//102 96//96
f 14//14 135//135 96//96
f 13//13 101//101 112//112
f 135//135 14//14 108//108
f 298//298 7//7 27//27
f 110//110 173//173 35//35
f 109//109 74//74 71//71
f 5//5 109//109 71//71
f 116//116 202//202 230//230
f 11//11 61//61 13//13
f 13//13 61//61 101//101
f 108//108 114//114 135//135
f 230//230 232//232 118//118
f 108//108 29//29 114//114
f 109//109 5//5 103//103
f 111//111 173//173 58//58
f 93//93 100//100 209//209
f 5//5 105//105 103//103
f 105//105 5//5 106//106
f 115//115 209//209 183//183
f 211//211 115//115 183//183
f 104//104 141//141 29//29
f 124//124 99//99 63//63
f 232//232 119//119 118//118
f 118//118 116//116 230//230
f 116//116 239//239 202//202
f 58//58 7//7 233//233
f 119//119 95//95 126//126
f 95//95 245//245 126//126
f 114//114 186//186 213//213
f 203//203 125//125 120//120
f 124//124 63//63 76//76
f 209//209 100//100 127//127
f 46//46 124//124 30//30
f 245//245 122//122 126//126
f 118//118 239//239 116//116
f 27//27 173//173 123//123
f 201//201 120//120 125//125
f 268//268 145//145 133//133
f 118//118 119//119 146//146
f 298//298 294//294 38//38
f 114//114 141//141 191//191
f 129//129 191//191 141//141
f 243//243 121//121 128//128
f 95//95 248//248 245//245
f 41//41 239//239 131//131
f 129//129 141//141 142//142
f 128//128 121//121 132//132
f 165//165 120//120 201//201
f 214//214 147//147 150//150
f 131//131 239//239 244//244
f 130//130 148//148 138//138
f 132//132 121//121 131//131
f 213//213 127//127 96//96
f 132//132 131//131 244//244
f 130//130 143//143 229//229
f 122//122 239//239 43//43
f 213//213 96//96 135//135
f 245//245 248//248 252//252
f 293//293 7//7 38//38
f 148//148 136//136 138//138
f 133//133 145//145 164//164
f 30//30 124//124 76//76
f 7//7 58//58 27//27
f 122//122 43//43 146//146
f 213//213 135//135 114//114
f 244//244 128//128 132//132
f 29//29 141//141 114//114
f 252//252 128//128 244//244
f 138//138 18//18 130//130
f 38//38 7//7 298//298
f 244//244 245//245 252//252
f 18//18 9//9 44//44
f 141//141 104//104 142//142
f 140//140 280//280 169//169
f 264//264 140//140 169//169
f 37//37 129//129 142//142
f 130//130 44//44 143//143
f 165//165 144//144 120//120
f 122//122 146//146 126//126
f 150//150 147//147 120//120
f 229//229 148//148 130//130
f 149//149 150//150 144//144
f 253//253 47//47 139//139
f 10//10 14//14 71//71
f 150//150 149//149 214//214
f 155//155 153//153 214//214
f 214//214 153//153 134//134
f 152//152 149//149 144//144
f 174//174 157//157 169//169
f 133//133 164//164 154//154
f 136//136 148//148 151//151
f 153//153 174//174 169//169
f 165//165 201//201 151//151
f 151//151 148//148 166//166
f 160//160 152//152 144//144
f 166//166 165//165 151//151
f 166//166 148//148 267//267
f 153//153 163//163 174//174
f 130//130 18//18 44//44
f 192//192 182//182 157//157
f 158//158 160//160 144//144
f 270//270 159//159 185//185
f 156//156 157//157 174//174
f 185//185 159//159 192//192
f 145//145 268//268 275//275
f 49//49 48//48 51//51
f 185//185 192//192 170//170
f 161//161 170//170 192//192
f 159//159 182//182 192//192
f 265//265 159//159 270//270
f 182//182 159//159 265//265
f 163//163 160//160 93//93
f 280//280 153//153 169//169
f 115//115 175//175 163//163
f 156//156 168//168 167//167
f 144//144 150//150 120//120
f 178//178 165//165 166//166
f 115//115 163//163 93//93
f 177//177 170//170 161//161
f 170//170 177//177 172//172
f 171//171 161//161 167//167
f 209//209 115//115 93//93
f 172//172 224//224 188//188
f 152//152 214//214 149//149
f 174//174 163//163 175//175
f 144//144 165//165 178//178
f 173//173 111//111 35//35
f 175//175 168//168 174//174
f 155//155 214//214 152//152
f 177//177 161//161 171//171
f 197//197 168//168 175//175
f 197//197 175//175 115//115
f 144//144 178//178 158//158
f 192//192 156//156 161//161
f 155//155 163//163 153//153
f 152//152 160//160 155//155
f 176//176 217//217 303//303
f 171//171 257//257 177//177
f 266//266 200//200 196//196
f 200//200 250//250 196//196
f 171//171 197//197 179//179
f 308//308 250//250 200//200
f 200//200 247//247 308//308
f 155//155 160//160 163//163
f 180//180 257//257 171//171
f 262//262 260//260 263//263
f 280//280 263//263 260//260
f 197//197 211//211 181//181
f 157//157 264//264 169//169
f 93//93 160//160 158//158
f 271//271 270//270 185//185
f 171//171 179//179 180//180
f 174//174 168//168 156//156
f 197//197 181//181 179//179
f 156//156 167//167 161//161
f 184//184 179//179 181//181
f 93//93 158//158 88//88
f 181//181 186//186 184//184
f 183//183 117//117 211//211
f 117//117 181//181 211//211
f 188//188 198//198 271//271
f 181//181 117//117 186//186
f 182//182 264//264 157//157
f 10//10 108//108 14//14
f 191//191 249//249 186//186
f 145//145 275//275 279//279
f 117//117 213//213 186//186
f 240//240 198//198 188//188
f 89//89 100//100 93//93
f 249//249 191//191 254//254
f 254//254 191//191 187//187
f 114//114 191//191 186//186
f 168//168 197//197 167//167
f 200//200 302//302 241//241
f 257//257 189//189 177//177
f 228//228 302//302 200//200
f 189//189 172//172 177//177
f 307//307 193//193 196//196
f 195//195 172//172 189//189
f 191//191 129//129 187//187
f 288//288 286//286 189//189
f 193//193 187//187 129//129
f 196//196 193//193 266//266
f 205//205 224//224 195//195
f 210//210 302//302 208//208
f 273//273 198//198 240//240
f 29//29 108//108 10//10
f 136//136 125//125 253//253
f 193//193 129//129 266//266
f 303//303 302//302 176//176
f 200//200 248//248 228//228
f 125//125 136//136 201//201
f 151//151 201//201 136//136
f 192//192 157//157 156//156
f 247//247 200//200 241//241
f 19//19 2//2 199//199
f 239//239 122//122 244//244
f 195//195 286//286 205//205
f 147//147 203//203 120//120
f 197//197 115//115 211//211
f 19//19 199//199 45//45
f 218//218 224//224 205//205
f 204//204 276//276 283//283
f 206//206 203//203 147//147
f 258//258 203//203 206//206
f 202//202 32//32 230//230
f 171//171 167//167 197//197
f 207//207 137//137 64//64
f 138//138 139//139 18//18
f 91//91 137//137 65//65
f 138//138 136//136 139//139
f 136//136 253//253 139//139
f 286//286 215//215 205//205
f 210//210 208//208 273//273
f 212//212 68//68 77//77
f 302//302 228//228 208//208
f 210//210 273//273 176//176
f 214//214 206//206 147//147
f 176//176 273//273 240//240
f 209//209 127//127 183//183
f 223//223 222//222 217//217
f 183//183 127//127 117//117
f 117//117 127//127 213//213
f 215//215 218//218 205//205
f 284//284 283//283 276//276
f 33//33 86//86 219//219
f 280//280 260//260 134//134
f 185//185 188//188 271//271
f 176//176 240//240 217//217
f 251//251 49//49 51//51
f 262//262 263//263 140//140
f 220//220 251//251 258//258
f 216//216 219//219 86//86
f 107//107 28//28 8//8
f 263//263 280//280 140//140
f 107//107 121//121 28//28
f 121//121 107//107 110//110
f 224//224 172//172 195//195
f 110//110 35//35 121//121
f 37//37 28//28 243//243
f 235//235 218//218 215//215
f 90//90 86//86 65//65
f 243//243 242//242 266//266
f 284//284 276//276 278//278
f 90//90 216//216 86//86
f 242//242 252//252 266//266
f 235//235 221//221 218//218
f 279//279 204//204 283//283
f 302//302 303//303 222//222
f 217//217 222//222 303//303
f 219//219 216//216 84//84
f 221//221 231//231 223//223
f 215//215 299//299 305//305
f 305//305 235//235 215//215
f 51//51 125//125 203//203
f 4//4 227//227 143//143
f 227//227 229//229 143//143
f 172//172 188//188 185//185
f 216//216 90//90 84//84
f 231//231 221//221 235//235
f 107//107 123//123 173//173
f 40//40 219//219 225//225
f 223//223 217//217 224//224
f 84//84 225//225 219//219
f 40//40 225//225 226//226
f 210//210 176//176 302//302
f 57//57 56//56 220//220
f 57//57 220//220 85//85
f 304//304 305//305 299//299
f 107//107 173//173 110//110
f 227//227 4//4 12//12
f 218//218 223//223 224//224
f 222//222 223//223 231//231
f 283//283 38//38 279//279
f 236//236 229//229 227//227
f 291//291 283//283 284//284
f 234//234 225//225 84//84
f 119//119 162//162 95//95
f 234//234 84//84 103//103
f 162//162 119//119 232//232
f 170//170 172//172 185//185
f 236//236 227//227 12//12
f 58//58 233//233 111//111
f 235//235 305//305 306//306
f 306//306 238//238 235//235
f 237//237 229//229 236//236
f 113//113 67//67 73//73
f 180//180 179//179 184//184
f 239//239 233//233 202//202
f 236//236 12//12 237//237
f 106//106 234//234 105//105
f 239//239 111//111 233//233
f 113//113 73//73 81//81
f 67//67 113//113 74//74
f 180//180 184//184 297//297
f 109//109 67//67 74//74
f 103//103 67//67 109//109
f 146//146 119//119 126//126
f 54//54 237//237 12//12
f 269//269 237//237 54//54
f 235//235 238//238 231//231
f 237//237 269//269 267//267
f 129//129 37//37 243//243
f 85//85 256//256 98//98
f 222//222 241//241 302//302
f 243//243 266//266 129//129
f 111//111 239//239 41//41
f 43//43 239//239 118//118
f 304//304 300//300 246//246
f 121//121 35//35 131//131
f 131//131 35//35 41//41
f 186//186 249//249 184//184
f 249//249 297//297 184//184
f 269//269 54//54 272//272
f 122//122 245//245 244//244
f 139//139 47//47 18//18
f 295//295 297//297 249//249
f 247//247 246//246 308//308
f 246//246 307//307 308//308
f 44//44 194//194 143//143
f 272//272 54//54 36//36
f 240//240 188//188 224//224
f 4//4 143//143 194//194
f 51//51 50//50 253//253
f 308//308 307//307 250//250
f 51//51 253//253 125//125
f 254//254 295//295 249//249
f 217//217 240//240 224//224
f 243//243 128//128 242//242
f 206//206 82//82 258//258
f 242//242 128//128 252//252
f 220//220 82//82 85//85
f 255//255 277//277 272//272
f 252//252 248//248 200//200
f 256//256 85//85 82//82
f 259//259 277//277 255//255
f 60//60 98//98 154//154
f 154//154 98//98 133//133
f 254//254 187//187 307//307
f 258//258 251//251 203//203
f 259//259 255//255 285//285
f 238//238 241//241 222//222
f 260//260 256//256 82//82
f 148//148 229//229 267//267
f 231//231 238//238 222//222
f 307//307 187//187 193//193
f 262//262 256//256 260//260
f 261//261 259//259 285//285
f 229//229 237//237 267//267
f 262//262 98//98 256//256
f 241//241 238//238 247//247
f 133//133 98//98 262//262
f 255//255 39//39 285//285
f 140//140 133//133 262//262
f 268//268 133//133 140//140
f 264//264 268//268 140//140
f 64//64 154//154 77//77
f 307//307 196//196 250//250
f 226//226 225//225 285//285
f 285//285 225//225 292//292
f 265//265 268//268 264//264
f 182//182 265//265 264//264
f 267//267 269//269 272//272
f 200//200 266//266 252//252
f 275//275 268//268 265//265
f 286//286 195//195 189//189
f 271//271 275//275 265//265
f 271//271 265//265 270//270
f 272//272 166//166 267//267
f 276//276 271//271 198//198
f 189//189 257//257 288//288
f 281//281 278//278 274//274
f 214//214 134//134 206//206
f 255//255 272//272 36//36
f 278//278 198//198 273//273
f 260//260 82//82 206//206
f 277//277 166//166 272//272
f 134//134 260//260 206//206
f 204//204 275//275 276//276
f 208//208 278//278 273//273
f 282//282 164//164 145//145
f 276//276 275//275 271//271
f 277//277 259//259 166//166
f 282//282 145//145 279//279
f 292//292 225//225 234//234
f 234//234 87//87 292//292
f 178//178 166//166 259//259
f 228//228 274//274 208//208
f 248//248 274//274 228//228
f 153//153 280//280 134//134
f 198//198 278//278 276//276
f 208//208 274//274 278//278
f 178//178 261//261 158//158
f 234//234 106//106 87//87
f 261//261 178//178 259//259
f 275//275 204//204 279//279
f 281//281 284//284 278//278
f 93//93 88//88 89//89
f 158//158 261//261 285//285
f 291//291 284//284 281//281
f 88//88 158//158 287//287
f 285//285 287//287 158//158
f 96//96 87//87 106//106
f 274//274 248//248 95//95
f 32//32 291//291 281//281
f 287//287 285//285 292//292
f 257//257 180//180 288//288
f 282//282 279//279 290//290
f 287//287 292//292 87//87
f 290//290 289//289 282//282
f 281//281 274//274 95//95
f 294//294 290//290 279//279
f 32//32 296//296 291//291
f 38//38 294//294 279//279
f 299//299 286//286 288//288
f 112//112 101//101 294//294
f 162//162 281//281 95//95
f 218//218 221//221 223//223
f 288//288 180//180 297//297
f 295//295 288//288 297//297
f 13//13 112//112 83//83
f 215//215 286//286 299//299
f 112//112 294//294 20//20
f 7//7 296//296 233//233
f 296//296 32//32 233//233
f 20//20 294//294 26//26
f 26//26 294//294 298//298
f 202//202 233//233 32//32
f 162//162 232//232 230//230
f 71//71 75//75 10//10
f 288//288 295//295 301//301
f 299//299 288//288 301//301
f 299//299 301//301 300//300
f 301//301 295//295 254//254
f 304//304 299//299 300//300
f 254//254 300//300 301//301
f 246//246 305//305 304//304
f 305//305 246//246 306//306
f 300//300 254//254 307//307
f 300//300 307//307 246//246
f 246//246 247//247 306//306
f 238//238 306//306 247//247