# https://github.com/mikedh/trimesh
v 0.01191400 -0.02758000 -0.05937600
v -0.02423800 -0.02151400 -0.05525300
v -0.01566000 -0.02165100 -0.05662900
v -0.01674300 -0.01365700 -0.05547700
v -0.00568700 -0.02937700 -0.05912900
v 0.00062700 -0.02451400 -0.05610200
v 0.00744900 -0.00991300 -0.05508900
v -0.02036100 -0.02577200 -0.01638700
v -0.02879500 -0.01598400 -0.04120100
v -0.00623800 -0.03019400 -0.04246400
v -0.03171900 -0.00915800 -0.04123300
v -0.02510900 -0.02193800 -0.01838200
v -0.02804600 -0.01820400 -0.00151200
v -0.02961000 -0.01308300 -0.05787800
v -0.01786400 -0.02713800 -0.04166500
v -0.01357500 -0.02808600 -0.05823100
v -0.02024900 -0.02103600 -0.05874400
v -0.02554300 -0.01270000 -0.05667700
v 0.00039900 -0.03110500 -0.05400400
v -0.03317300 -0.00076100 -0.05729900
v 0.01221100 -0.02845700 -0.05182400
v -0.00507900 -0.02835500 -0.02412400
v 0.02246100 -0.02441600 -0.03097000
v 0.01623300 -0.02608900 -0.03106500
v 0.02600800 -0.02083800 -0.02026500
v -0.00579200 -0.02927200 0.00299700
v 0.00781100 -0.02932200 -0.00333100
v 0.01618000 -0.02695500 0.00701000
v 0.01914800 -0.02530400 -0.01606600
v 0.02578800 -0.02002700 -0.00528800
v -0.02848800 0.00207600 -0.05658200
v 0.00731600 0.02422800 -0.05564400
v 0.02498800 0.00892700 -0.05549400
v -0.03048000 0.01503700 -0.05309500
v -0.02000300 0.01100900 -0.05541400
v -0.01796000 0.02449400 -0.05635300
v -0.01768200 0.01756100 -0.05607200
v -0.00152000 0.02283300 -0.05532200
v -0.03233100 0.00869800 -0.01148200
v 0.00381800 0.03477800 -0.01004900
v -0.00379000 0.03432800 -0.05611900
v 0.00616400 0.03163600 -0.05868500
v 0.02142300 0.02577400 -0.05612100
v -0.03188800 -0.00071700 -0.05932300
v -0.03274500 0.00714000 -0.05704100
v -0.02781900 0.02026000 -0.05708400
v -0.02769300 0.01441100 -0.05789900
v -0.01754300 0.02922500 -0.05876300
v -0.02206900 0.02665200 -0.03930500
v -0.02752200 0.02016200 -0.02780500
v -0.00989000 0.03277400 -0.05869300
v -0.01117600 0.03311500 -0.03639100
v -0.01471000 0.03151800 -0.02694100
v 0.00159900 0.03481000 -0.04684400
v 0.00279000 0.02966800 -0.05628100
v 0.00823600 0.03280800 -0.05851500
v 0.01770900 -0.01691200 -0.05550300
v 0.02463900 -0.02098600 -0.05355900
v 0.02841600 -0.01544100 -0.04237700
v 0.02556900 -0.00448400 -0.05522700
v 0.02933400 0.01497300 -0.04828200
v 0.03152200 -0.00752100 -0.02783100
v 0.01944400 0.02795700 -0.01147200
v 0.02599800 0.02101400 -0.02240000
v 0.02979900 0.01419500 -0.00438500
v 0.02406600 -0.01683200 -0.05851900
v 0.02801300 -0.00937300 -0.05854000
v 0.02875500 -0.01392300 -0.05446700
v 0.03220500 -0.00121200 -0.05697500
v 0.02990000 0.01087100 -0.05886500
v 0.03214200 -0.00569400 -0.04903500
v 0.03200500 0.00608500 -0.05487500
v 0.02008000 0.02236100 -0.05708100
v 0.02697400 0.01906400 -0.05676200
v 0.03241000 -0.00049700 -0.01778500
v 0.03176900 0.00759200 -0.01798800
v 0.01306000 0.03188700 -0.04752100
v -0.03033200 -0.01401100 -0.00467400
v -0.01443200 -0.02784300 -0.00865500
v -0.01608500 -0.02712200 0.02127900
v -0.03306200 0.00202100 -0.00751900
v -0.02886800 -0.01692000 0.00872100
v -0.02362500 -0.02243700 0.01898400
v -0.03167800 -0.01042400 0.04070400
v -0.03308400 -0.00385600 0.02723400
v -0.03268500 -0.00619800 -0.00432000
v -0.03149200 0.01173900 0.01110800
v -0.03281200 0.00913500 0.03567000
v -0.01038500 0.01113500 0.03675300
v -0.01898600 0.02739200 0.03712200
v -0.02603100 0.02209100 0.03854900
v -0.03316100 0.00332300 0.02032500
v -0.03067600 -0.00665600 0.03735500
v -0.03331300 -0.00385000 0.04120900
v -0.03100400 0.01401400 0.04140900
v -0.03080900 0.01066700 0.03712800
v -0.00424100 -0.03108800 0.03729800
v -0.01776500 -0.02618500 0.03470200
v -0.01279900 -0.02882100 0.03953600
v 0.02989900 -0.01336300 -0.00745600
v 0.00367600 -0.01777800 0.03686800
v 0.01252500 -0.00680400 0.03661200
v 0.01586500 -0.00174700 0.03864900
v 0.02808900 -0.01609100 0.03578500
v 0.03226900 0.00570700 0.01532900
v 0.02275500 -0.02034900 0.03700400
v -0.02578200 -0.01964900 0.04021500
v -0.02187900 -0.02110900 0.03737300
v -0.00217600 -0.01240400 0.03647400
v -0.01272000 -0.00008900 0.03612300
v -0.00691000 -0.00161100 0.03755800
v 0.00823700 -0.00729800 0.03859800
v 0.00644000 0.01333600 0.03890500
v -0.00578500 -0.02944300 0.03707700
v 0.00745200 -0.03042500 0.03987400
v 0.00330900 -0.03097500 0.02418300
v 0.01447800 -0.02634600 0.03677800
v 0.01875500 -0.02562700 0.03680600
v 0.03061600 -0.01071300 0.04134000
v 0.03242100 -0.00169200 0.03945000
v 0.03089700 -0.00362600 0.03664000
v -0.01844700 -0.02617700 0.04105600
v -0.00385100 -0.03127600 0.04139800
v 0.00349200 -0.00299800 0.03604500
v 0.02527500 -0.02023000 0.04109000
v -0.02281300 0.02554600 0.00854600
v -0.01914900 0.02881500 0.03716900
v -0.02765800 0.02002400 0.01058200
v -0.00805000 0.03420000 -0.00909000
v -0.01490300 0.03152000 0.01874800
v -0.00189500 0.03502400 0.01565800
v -0.02217800 0.02723200 0.04163800
v -0.00870400 0.03393300 0.04150700
v 0.02675700 0.02026000 0.01829900
v 0.02129800 0.02630700 0.02685300
v 0.03226000 -0.00621700 0.01602400
v 0.03144400 0.00971100 0.03339500
v 0.00245300 0.01068400 0.03607900
v 0.02125100 0.01688400 0.03709600
v 0.02693700 0.00679100 0.03741800
v 0.00700600 0.01724900 0.03661000
v 0.01886200 0.02651100 0.03677100
v 0.01857900 0.02884800 0.03824500
v 0.01148900 0.03262000 -0.00496200
v 0.03006000 0.01421500 0.03735800
v 0.00655800 0.03436300 0.00832800
v 0.01399300 0.03134200 0.02316200
v 0.00046800 0.03486500 0.03697900
v 0.02473500 0.02338000 0.04114400
v 0.01120900 0.03267300 0.04069500
v 0.03250000 0.00489300 0.04008300
vn 0.20486755 -0.47768890 -0.85430826
vn -0.66745631 -0.67000125 -0.32496216
vn 0.24999097 0.43924127 -0.86288563
vn 0.08292750 0.08075523 -0.99327822
vn -0.04824354 -0.48880926 -0.87105572
vn -0.02198757 0.34700761 -0.93760454
vn 0.00116463 0.02515336 -0.99968293
vn -0.49993893 -0.86602692 0.00764451
vn -0.86702009 -0.49760847 -0.02572896
vn -0.07815713 -0.99580339 0.04761376
vn -0.95558508 -0.29403245 -0.02005156
vn -0.72758390 -0.68594220 -0.01024586
vn -0.81258013 -0.58283181 0.00453947
vn -0.58299049 -0.30904171 -0.75140888
vn -0.45211225 -0.89170095 -0.02153917
vn -0.32665055 -0.73653364 -0.59229859
vn -0.08970142 -0.03926116 -0.99519456
vn 0.24020541 0.16574487 -0.95646746
vn 0.04295088 -0.99112164 -0.12582975
vn -0.95570109 -0.08789853 -0.28090794
vn 0.34542625 -0.93733843 -0.04557815
vn 0.07350807 -0.99681915 0.03079187
vn 0.56321212 -0.82625552 -0.00969124
vn 0.20661848 -0.97799334 0.02894541
vn 0.76262967 -0.64657482 0.01835731
vn -0.06880036 -0.99642636 -0.04900020
vn 0.14629914 -0.98837398 -0.04139375
vn 0.43327329 -0.90120619 -0.01008288
vn 0.43558922 -0.90011106 0.00788125
vn 0.74872839 -0.66223618 0.02913830
vn 0.42951074 -0.02966611 -0.90257434
vn -0.07789798 -0.13110122 -0.98830379
vn -0.30450005 -0.10167845 -0.94706980
vn -0.92875704 0.36717607 -0.05091253
vn 0.18224386 -0.10527757 -0.97760105
vn 0.27933255 -0.26939994 -0.92162737
vn 0.13201578 -0.09245900 -0.98692612
vn 0.03960615 -0.10782398 -0.99338076
vn -0.98096141 0.19420218 0.00046778
vn 0.11731142 0.99306131 -0.00820141
vn -0.04126119 0.95437818 -0.29573603
vn -0.12084875 -0.09525520 -0.98809009
vn 0.55485770 0.61219562 -0.56333778
vn -0.24929647 -0.01893022 -0.96824218
vn -0.85252015 0.20676347 -0.48006068
vn -0.69175849 0.46199224 -0.55500753
vn -0.05846079 0.01577406 -0.99816507
vn -0.28806308 0.44507533 -0.84789599
vn -0.64429032 0.76473255 -0.00860905
vn -0.82974698 0.55809984 0.00667200
vn -0.18559456 0.54648265 -0.81664642
vn -0.32948733 0.94395948 -0.01945787
vn -0.47315574 0.88096718 -0.00452517
vn 0.06809485 0.99739171 -0.02393461
vn -0.06139976 -0.45466947 -0.88854136
vn 0.24031317 0.64885520 -0.72196711
vn -0.22027644 0.26970175 -0.93741093
vn 0.69459056 -0.66986990 -0.26233235
vn 0.88816343 -0.45923906 -0.01628548
vn -0.41462771 0.07978340 -0.90648688
vn 0.91931172 0.39284366 -0.02323396
vn 0.97030315 -0.24187044 -0.00323793
vn 0.62374345 0.78162902 -0.00042991
vn 0.80642431 0.59133381 -0.00204012
vn 0.92540523 0.37896255 -0.00354307
vn 0.24287779 -0.18786929 -0.95169087
vn 0.22732226 -0.08738507 -0.96989094
vn 0.85927031 -0.41919228 -0.29314224
vn 0.85980130 -0.08153550 -0.50407706
vn 0.44965338 0.17553882 -0.87578420
vn 0.98035054 -0.19264233 -0.04244705
vn 0.97659612 0.16543478 -0.13744583
vn 0.01174352 0.01604596 -0.99980229
vn 0.67012744 0.49791628 -0.55046216
vn 0.99986491 -0.01533303 -0.00592197
vn 0.98170476 0.19037254 -0.00375098
vn 0.42227486 0.90550310 -0.04181010
vn -0.92372606 -0.38300646 0.00601899
vn -0.22786580 -0.97367137 -0.00642101
vn -0.42507146 -0.90515430 0.00315518
vn -0.99953703 0.03034839 -0.00216812
vn -0.85619032 -0.51655275 0.01055381
vn -0.64400410 -0.76479062 0.01881581
vn -0.38990260 -0.09794718 0.91563219
vn -0.99504436 -0.09942762 0.00093281
vn -0.98420759 -0.17700357 0.00227151
vn -0.94983391 0.31271211 -0.00516601
vn -0.98048708 0.18919368 0.05339329
vn 0.00497245 -0.00563198 0.99997178
vn 0.32525889 -0.52686910 0.78524876
vn -0.41410207 0.36503797 0.83382657
vn -0.99753653 0.06960351 -0.00873103
vn 0.53063443 0.13261984 0.83716132
vn -0.33735120 -0.08265082 0.93774357
vn -0.16619005 0.18284220 0.96899412
vn 0.65100874 -0.13909256 0.74621772
vn -0.11702891 -0.99283691 -0.02406476
vn -0.54053234 -0.84129462 -0.00693828
vn -0.34150703 -0.92975138 0.13760571
vn 0.91484690 -0.40377523 0.00455077
vn -0.00072977 0.02644580 0.99964998
vn 0.17155297 -0.31098232 0.93480457
vn 0.02041111 -0.16035299 0.98684867
vn 0.83907602 -0.54401011 0.00210353
vn 0.99079134 0.13538802 -0.00161178
vn -0.43811266 0.42672214 0.79117982
vn -0.23193864 -0.35327455 0.90631206
vn 0.37038569 0.41467788 0.83117789
vn -0.02876906 -0.03073586 0.99911343
vn -0.04564434 -0.02906554 0.99853482
vn -0.11894639 -0.05444297 0.99140694
vn 0.13036648 -0.35192563 0.92690503
vn -0.15434130 0.12745095 0.97976274
vn 0.14137435 0.61333266 0.77706907
vn 0.15777413 -0.40377627 0.90115040
vn 0.09255493 -0.99512704 -0.03399644
vn -0.33107015 0.61097958 0.71909422
vn 0.53095544 -0.83723730 0.13084350
vn 0.33686069 0.01894088 0.94136397
vn 0.31622500 -0.04451193 0.94763940
vn -0.54994197 0.09329836 0.82997545
vn -0.30235416 -0.26924287 0.91437970
vn 0.01538187 -0.29511356 0.95533836
vn 0.02723961 0.31226139 0.94960562
vn 0.15837880 -0.38902337 0.90751142
vn -0.68611914 0.72746105 0.00639876
vn -0.56233966 0.82661447 -0.02196871
vn -0.83459511 0.55086373 0.00038345
vn -0.21611841 0.97636234 -0.00306971
vn -0.43969698 0.89813555 -0.00437047
vn -0.08342521 0.99651055 0.00263923
vn -0.44730352 0.05771184 0.89251829
vn 0.04929028 0.31343473 0.94832966
vn 0.81856753 0.57436491 -0.00722116
vn 0.65604806 0.75440857 -0.02164821
vn 0.98259756 -0.18565487 0.00585762
vn 0.97592687 0.21801960 -0.00584778
vn -0.09537443 -0.36288541 0.92694007
vn 0.01766832 0.06237822 0.99789618
vn 0.08669828 0.00022077 0.99623459
vn -0.04553952 0.22240675 0.97388982
vn -0.37013033 -0.50337934 0.78077703
vn 0.56145395 0.81568757 0.13936734
vn 0.39582500 0.91829659 -0.00734396
vn 0.67064032 0.28693031 0.68404135
vn 0.22486581 0.97436988 0.00622102
vn 0.47657822 0.87911403 -0.00563300
vn 0.04938930 0.73357001 0.67781689
vn 0.28508419 0.11424478 0.95166966
vn 0.00335592 0.33461281 0.94234973
vn 0.37919460 0.04282606 0.92432537
f 15//15 2//2 16//16
f 24//24 10//10 19//19
f 5//5 16//16 17//17
f 3//3 5//5 17//17
f 9//9 14//14 2//2
f 18//18 3//3 17//17
f 4//4 3//3 18//18
f 6//6 5//5 3//3
f 3//3 4//4 6//6
f 19//19 21//21 24//24
f 4//4 7//7 6//6
f 9//9 11//11 14//14
f 20//20 14//14 11//11
f 86//86 20//20 11//11
f 15//15 12//12 2//2
f 15//15 8//8 12//12
f 13//13 9//9 12//12
f 22//22 10//10 24//24
f 8//8 15//15 79//79
f 22//22 79//79 10//10
f 2//2 12//12 9//9
f 11//11 9//9 78//78
f 9//9 13//13 78//78
f 44//44 18//18 14//14
f 20//20 44//44 14//14
f 18//18 44//44 31//31
f 5//5 19//19 16//16
f 10//10 16//16 19//19
f 10//10 15//15 16//16
f 79//79 15//15 10//10
f 2//2 17//17 16//16
f 14//14 17//17 2//2
f 18//18 17//17 14//14
f 5//5 1//1 19//19
f 19//19 1//1 21//21
f 6//6 1//1 5//5
f 81//81 20//20 86//86
f 11//11 78//78 86//86
f 57//57 1//1 6//6
f 58//58 23//23 21//21
f 23//23 24//24 21//21
f 59//59 23//23 58//58
f 24//24 23//23 29//29
f 25//25 23//23 59//59
f 59//59 100//100 25//25
f 29//29 23//23 25//25
f 27//27 24//24 29//29
f 26//26 79//79 22//22
f 27//27 26//26 22//22
f 28//28 27//27 29//29
f 30//30 25//25 100//100
f 25//25 28//28 29//29
f 28//28 25//25 30//30
f 21//21 1//1 58//58
f 66//66 1//1 57//57
f 66//66 58//58 1//1
f 27//27 22//22 24//24
f 26//26 27//27 116//116
f 118//118 28//28 30//30
f 4//4 18//18 31//31
f 6//6 7//7 57//57
f 57//57 7//7 60//60
f 33//33 60//60 7//7
f 38//38 32//32 7//7
f 32//32 33//33 7//7
f 32//32 55//55 73//73
f 33//33 32//32 73//73
f 55//55 42//42 73//73
f 45//45 20//20 81//81
f 47//47 37//37 31//31
f 36//36 37//37 47//47
f 81//81 39//39 45//45
f 34//34 45//45 39//39
f 50//50 46//46 34//34
f 35//35 4//4 31//31
f 35//35 31//31 37//37
f 4//4 35//35 38//38
f 38//38 7//7 4//4
f 35//35 37//37 38//38
f 55//55 38//38 37//37
f 55//55 37//37 36//36
f 52//52 51//51 48//48
f 49//49 53//53 52//52
f 52//52 53//53 129//129
f 77//77 144//144 63//63
f 45//45 44//44 20//20
f 73//73 42//42 43//43
f 42//42 56//56 43//43
f 31//31 44//44 47//47
f 45//45 47//47 44//44
f 46//46 47//47 45//45
f 34//34 46//46 45//45
f 48//48 47//47 46//46
f 48//48 36//36 47//47
f 49//49 48//48 46//46
f 49//49 46//46 50//50
f 48//48 51//51 36//36
f 36//36 51//51 55//55
f 38//38 55//55 32//32
f 49//49 52//52 48//48
f 52//52 41//41 51//51
f 52//52 54//54 41//41
f 129//129 54//54 52//52
f 55//55 51//51 42//42
f 41//41 42//42 51//51
f 41//41 56//56 42//42
f 54//54 56//56 41//41
f 56//56 54//54 77//77
f 54//54 40//40 77//77
f 77//77 43//43 56//56
f 68//68 59//59 58//58
f 68//68 66//66 67//67
f 62//62 59//59 71//71
f 100//100 59//59 62//62
f 43//43 64//64 74//74
f 61//61 76//76 72//72
f 64//64 65//65 61//61
f 64//64 134//134 65//65
f 67//67 66//66 57//57
f 66//66 68//68 58//58
f 68//68 71//71 59//59
f 67//67 57//57 60//60
f 67//67 69//69 68//68
f 71//71 68//68 69//69
f 70//70 69//69 67//67
f 67//67 60//60 70//70
f 71//71 72//72 75//75
f 73//73 70//70 33//33
f 33//33 70//70 60//60
f 71//71 69//69 72//72
f 69//69 70//70 72//72
f 73//73 74//74 70//70
f 72//72 70//70 61//61
f 75//75 72//72 76//76
f 61//61 70//70 74//74
f 73//73 43//43 74//74
f 64//64 61//61 74//74
f 76//76 61//61 65//65
f 64//64 43//43 63//63
f 63//63 43//43 77//77
f 62//62 71//71 75//75
f 98//98 83//83 80//80
f 107//107 83//83 98//98
f 82//82 83//83 107//107
f 12//12 83//83 13//13
f 83//83 12//12 8//8
f 79//79 80//80 8//8
f 86//86 78//78 82//82
f 81//81 86//86 85//85
f 78//78 13//13 82//82
f 83//83 82//82 13//13
f 80//80 83//83 8//8
f 84//84 86//86 82//82
f 85//85 86//86 84//84
f 81//81 92//92 39//39
f 95//95 87//87 88//88
f 82//82 107//107 84//84
f 94//94 85//85 84//84
f 88//88 92//92 85//85
f 94//94 88//88 85//85
f 93//93 108//108 109//109
f 110//110 93//93 109//109
f 110//110 89//89 93//93
f 89//89 96//96 93//93
f 89//89 90//90 96//96
f 96//96 90//90 91//91
f 85//85 92//92 81//81
f 128//128 87//87 95//95
f 87//87 39//39 92//92
f 107//107 108//108 84//84
f 84//84 108//108 93//93
f 94//94 84//84 93//93
f 94//94 93//93 96//96
f 88//88 87//87 92//92
f 95//95 94//94 96//96
f 88//88 94//94 95//95
f 95//95 96//96 91//91
f 132//132 91//91 95//95
f 132//132 95//95 91//91
f 99//99 98//98 80//80
f 80//80 97//97 99//99
f 97//97 80//80 79//79
f 97//97 79//79 26//26
f 116//116 97//97 26//26
f 28//28 116//116 27//27
f 136//136 100//100 62//62
f 100//100 136//136 104//104
f 101//101 109//109 108//108
f 115//115 28//28 118//118
f 101//101 114//114 117//117
f 114//114 101//101 108//108
f 102//102 109//109 101//101
f 102//102 112//112 109//109
f 106//106 101//101 117//117
f 106//106 102//102 101//101
f 112//112 102//102 103//103
f 121//121 102//102 106//106
f 121//121 103//103 102//102
f 104//104 118//118 30//30
f 120//120 136//136 105//105
f 136//136 119//119 104//104
f 136//136 120//120 119//119
f 103//103 121//121 140//140
f 122//122 107//107 98//98
f 98//98 99//99 122//122
f 109//109 111//111 110//110
f 110//110 111//111 89//89
f 138//138 111//111 124//124
f 89//89 111//111 138//138
f 141//141 89//89 113//113
f 113//113 89//89 138//138
f 109//109 112//112 111//111
f 124//124 111//111 112//112
f 124//124 112//112 103//103
f 138//138 103//103 113//113
f 103//103 140//140 113//113
f 97//97 123//123 99//99
f 97//97 116//116 115//115
f 123//123 97//97 115//115
f 115//115 114//114 123//123
f 104//104 30//30 100//100
f 28//28 115//115 116//116
f 115//115 117//117 114//114
f 115//115 125//125 117//117
f 125//125 106//106 117//117
f 125//125 115//115 118//118
f 119//119 106//106 125//125
f 125//125 118//118 104//104
f 125//125 104//104 119//119
f 106//106 119//119 121//121
f 120//120 121//121 119//119
f 120//120 145//145 121//121
f 99//99 123//123 122//122
f 122//122 114//114 108//108
f 122//122 123//123 114//114
f 107//107 122//122 108//108
f 103//103 138//138 124//124
f 87//87 34//34 39//39
f 87//87 50//50 34//34
f 126//126 49//49 50//50
f 130//130 53//53 49//49
f 40//40 144//144 77//77
f 131//131 40//40 129//129
f 128//128 50//50 87//87
f 130//130 129//129 53//53
f 91//91 128//128 95//95
f 148//148 90//90 89//89
f 133//133 131//131 130//130
f 133//133 148//148 131//131
f 131//131 129//129 130//130
f 40//40 54//54 129//129
f 40//40 146//146 144//144
f 146//146 40//40 131//131
f 126//126 50//50 128//128
f 130//130 49//49 126//126
f 127//127 126//126 128//128
f 130//130 126//126 127//127
f 128//128 91//91 127//127
f 127//127 133//133 130//130
f 127//127 132//132 133//133
f 133//133 90//90 148//148
f 132//132 127//127 91//91
f 132//132 91//91 90//90
f 133//133 132//132 90//90
f 145//145 65//65 134//134
f 147//147 135//135 63//63
f 147//147 63//63 144//144
f 145//145 137//137 105//105
f 105//105 137//137 120//120
f 121//121 145//145 140//140
f 148//148 89//89 141//141
f 148//148 141//141 139//139
f 113//113 140//140 139//139
f 141//141 113//113 139//139
f 139//139 142//142 148//148
f 140//140 145//145 139//139
f 134//134 135//135 149//149
f 62//62 75//75 136//136
f 76//76 105//105 75//75
f 105//105 76//76 65//65
f 136//136 75//75 105//105
f 134//134 64//64 63//63
f 65//65 145//145 105//105
f 146//146 147//147 144//144
f 148//148 146//146 131//131
f 134//134 63//63 135//135
f 151//151 120//120 137//137
f 151//151 145//145 120//120
f 145//145 151//151 137//137
f 142//142 139//139 145//145
f 145//145 134//134 149//149
f 149//149 142//142 145//145
f 146//146 150//150 147//147
f 150//150 146//146 148//148
f 135//135 147//147 143//143
f 143//143 149//149 135//135
f 148//148 142//142 150//150
f 143//143 147//147 150//150
f 150//150 142//142 149//149
f 150//150 149//149 143//143

