# https://github.com/mikedh/trimesh
v -0.02587000 -0.04860900 -0.01825000
v -0.03874700 0.00382800 -0.01740300
v -0.03539500 -0.01078700 -0.01767000
v -0.01948200 0.00458000 -0.01815400
v -0.00244300 -0.02695000 -0.01845900
v -0.02958000 -0.03623700 -0.01814600
v -0.02367900 -0.04972900 -0.00019200
v -0.02612600 -0.04888900 0.00690700
v -0.02695000 -0.04558200 -0.00768400
v 0.02274300 -0.03636200 -0.01773400
v -0.01517500 -0.03822300 0.00933400
v 0.02710700 -0.03818200 -0.00743500
v 0.01576600 -0.03193900 0.00877300
v 0.01881800 -0.03798300 0.00812100
v 0.03477400 -0.03415700 0.00847800
v 0.00857300 -0.04055200 0.00819400
v 0.04323900 -0.03192800 0.00834500
v 0.04157500 -0.02571500 0.00944500
v -0.01314500 -0.04437000 -0.01844900
v 0.00623000 -0.03892200 -0.01816600
v 0.02394400 -0.02189300 -0.01844800
v 0.04263900 -0.03119500 -0.01733700
v 0.03279000 -0.01314000 0.01028700
v 0.02827200 -0.00204300 0.01062400
v 0.04275000 -0.03166300 -0.01091600
v -0.00360300 -0.04320600 -0.01715000
v -0.02159000 -0.04928700 -0.00925300
v 0.03471700 -0.03583500 0.00390000
v 0.01023600 -0.04010200 -0.01598800
v 0.00317600 -0.04333200 -0.00944900
v 0.04213300 -0.03452000 -0.00019600
v -0.01084800 -0.04583100 0.00646200
v 0.04086800 -0.03477200 -0.00952000
v 0.00744200 -0.04258100 0.00130100
v 0.03771600 -0.01112700 0.00896400
v -0.00163000 0.02435600 -0.01831200
v 0.00126500 0.04163900 -0.01782200
v 0.03883600 -0.01958200 -0.01812700
v 0.04134900 -0.02338900 -0.01544300
v 0.03952800 -0.01706500 -0.00761200
v 0.03442500 -0.00006700 0.00295400
v 0.02872800 0.02428300 -0.01819700
v 0.02209000 -0.00093900 -0.01838400
v 0.03403200 0.00287900 -0.01828100
v 0.03740500 -0.01055500 -0.01801800
v 0.03165900 0.01705700 -0.01557200
v 0.03173900 0.01528600 -0.00671900
v 0.02332100 0.04949700 -0.01755700
v 0.03514400 0.00202500 -0.01550200
v 0.02533700 0.04347000 -0.01797000
v 0.02402200 0.05068000 -0.01573200
v -0.01964900 0.00587300 0.01031800
v -0.02526500 -0.04794900 0.00859900
v -0.03179400 -0.02517300 -0.00734700
v -0.03709500 -0.00453700 0.00784600
v -0.03400200 -0.01620400 0.00904600
v -0.02709900 -0.02942800 0.00961500
v -0.03984100 0.00638800 0.00884400
v -0.03190000 -0.00013200 0.00949900
v -0.02936300 -0.03496400 0.00811000
v 0.01120000 -0.01587000 0.00948100
v -0.00772900 -0.02761800 0.00966000
v -0.01354600 -0.01558000 0.01003000
v -0.04542000 0.03003600 0.00865000
v -0.04514700 0.03379000 0.00910200
v -0.03288900 0.03396000 0.00935800
v -0.00341100 0.02170100 0.00981900
v -0.01371700 0.04111100 -0.01727400
v 0.00331000 0.04536000 -0.01692600
v -0.04481800 0.03563500 -0.00011800
v -0.02502100 0.03882100 -0.01709200
v -0.01620000 0.03223700 -0.01800300
v -0.04083600 0.03431000 -0.01713900
v -0.03977900 0.02430300 0.00944400
v -0.02462900 0.04050800 -0.00213900
v -0.03445700 0.03685800 0.00882200
v -0.04286200 0.01852900 0.00596500
v -0.01282000 0.04163800 0.00868900
v -0.00148800 0.04593700 0.00332600
v 0.00604100 0.04637500 0.00847600
v -0.04574900 0.03508600 0.00468100
v -0.01184300 0.04306500 0.00609300
v -0.04519700 0.02954800 -0.01686800
v -0.01449800 0.04253400 -0.01062700
v -0.03921100 0.03696800 -0.01030600
v -0.04581300 0.03132900 -0.00506400
v -0.04557400 0.03429700 -0.01591500
v 0.03079100 0.01415600 0.00771300
v 0.02981200 0.02016300 0.00972600
v 0.00203000 0.00599400 0.00996500
v 0.02756000 0.03428700 0.00877400
v 0.02811500 0.03425300 -0.01397900
v 0.01673900 0.03982900 0.00955900
v 0.00695200 0.02517200 0.01002600
v 0.01781700 0.04697400 0.00900300
v 0.03379900 0.00438100 -0.00367400
v 0.02896500 0.00818900 0.01110500
v 0.03462500 -0.00087100 0.00980000
v 0.02319900 0.05027400 0.00818000
v 0.01985300 0.05103100 -0.00984700
v 0.02512100 0.04472800 0.00880100
v 0.02474000 0.04824900 -0.00119000
vn -0.41943870 -0.69154861 -0.58807457
vn -0.69220160 -0.15135670 -0.70565438
vn -0.70127024 -0.15709617 -0.69537101
vn -0.02517195 0.00599743 -0.99966515
vn -0.00123354 -0.00354712 -0.99999295
vn -0.70598804 -0.17089815 -0.68729522
vn -0.21621314 -0.97632512 -0.00641362
vn -0.45773159 -0.82915358 0.32091451
vn -0.85623843 -0.51653610 -0.00679813
vn 0.15568109 -0.60984416 -0.77708011
vn 0.01455705 -0.07196065 0.99730124
vn 0.22120753 -0.96968326 -0.10383452
vn 0.01180812 -0.07552310 0.99707413
vn 0.13565098 -0.62394938 0.76960119
vn 0.14298725 -0.60968478 0.77964038
vn 0.16638992 -0.63666073 0.75297909
vn 0.74078353 -0.35754419 0.56868438
vn 0.68598740 0.10372829 0.72018173
vn 0.11513771 -0.54943436 -0.82756583
vn 0.10713458 -0.35858207 -0.92733008
vn 0.01894265 -0.02181540 -0.99958255
vn 0.70059008 -0.33733789 -0.62878986
vn 0.09548022 0.00549372 0.99541617
vn 0.04530013 -0.03750402 0.99826918
vn 0.98101539 -0.19070587 -0.03521463
vn 0.21063236 -0.82227652 -0.52867319
vn -0.08815885 -0.99329739 -0.07475505
vn 0.23442598 -0.95017179 0.20547028
vn 0.21078410 -0.87672254 -0.43235131
vn 0.22978719 -0.96519052 -0.12492043
vn 0.65730869 -0.75216190 0.04688042
vn 0.20511557 -0.92906585 0.30783801
vn 0.52494646 -0.83674751 -0.15583588
vn 0.22754000 -0.96706833 0.11403683
vn 0.76189065 0.21750796 0.61009256
vn -0.00628245 0.01386053 -0.99988420
vn -0.03195423 0.14170811 -0.98939261
vn 0.59169291 0.16686522 -0.78870495
vn 0.93629391 0.28452607 -0.20590925
vn 0.96609085 0.25760334 -0.01757805
vn 0.96624988 0.25549761 0.03289598
vn 0.53673605 0.13251579 -0.83327905
vn 0.00380716 0.00414046 -0.99998418
vn 0.57521972 0.13558260 -0.80668435
vn 0.68372077 0.12351805 -0.71921429
vn 0.95748785 0.22101471 -0.18539018
vn 0.97904039 0.19675975 0.05258816
vn 0.26979898 0.53378168 -0.80142724
vn 0.96601294 0.22613756 -0.12522299
vn 0.65600226 0.18680911 -0.73127518
vn 0.53133721 0.79928032 -0.28076991
vn -0.01836630 0.00169421 0.99982989
vn -0.24624622 -0.59871792 0.76216773
vn -0.97188983 -0.23504250 0.01360850
vn -0.79569727 -0.18500358 0.57674910
vn -0.71239752 -0.16955281 0.68098577
vn -0.16044439 -0.06926527 0.98461156
vn -0.72128842 -0.19455654 0.66474865
vn -0.12338280 -0.04246144 0.99145031
vn -0.81138632 -0.19935804 0.54946211
vn -0.00473186 -0.03484206 0.99938163
vn 0.01782172 -0.03510343 0.99922477
vn 0.00531309 -0.01847568 0.99981519
vn -0.79372978 -0.12460992 0.59536997
vn -0.59410324 0.40803480 0.69321637
vn -0.01805279 0.09343933 0.99546129
vn -0.01042830 0.02753489 0.99956645
vn -0.15331887 0.63708294 -0.75539305
vn -0.17767008 0.71081885 -0.68056587
vn -0.63917438 0.76821697 -0.03603877
vn -0.16200973 0.67939936 -0.71566009
vn -0.02651628 0.04684691 -0.99855008
vn -0.15269747 0.54052112 -0.82735748
vn -0.09456977 -0.00860771 0.99548102
vn -0.22933534 0.97329880 -0.00973326
vn -0.15690857 0.66867047 0.72681463
vn -0.97255403 -0.23196539 0.01818572
vn -0.12210812 0.55358619 0.82379120
vn -0.21956347 0.97005713 0.10383177
vn -0.14574728 0.65567423 0.74084346
vn -0.78085678 0.61215826 0.12459918
vn -0.22825005 0.94207963 0.24573949
vn -0.72983595 -0.07877010 -0.67906904
vn -0.23321658 0.96430766 -0.12538245
vn -0.25037740 0.95884330 -0.13390548
vn -0.99960901 -0.02782195 -0.00278716
vn -0.69710756 0.51851269 -0.49516224
vn 0.95089157 0.12704467 0.28224967
vn 0.72671476 0.14479375 0.67150609
vn -0.00858787 -0.00662006 0.99994121
vn 0.72654000 0.18320111 0.66225145
vn 0.97107582 0.20752616 -0.11808747
vn 0.02811388 0.06986432 0.99716026
vn -0.02703423 0.03102542 0.99915293
vn -0.00986652 0.18532341 0.98262805
vn 0.97188645 0.22515506 0.06886164
vn 0.28802911 0.08784056 0.95358443
vn 0.72765324 0.16026006 0.66696137
vn 0.40645133 0.73042357 0.54888863
vn -0.00884975 0.99971866 -0.02200626
vn 0.67729275 0.20668127 0.70608596
vn 0.84525813 0.53434036 -0.00436741
f 5//5 6//6 4//4
f 6//6 19//19 1//1
f 6//6 5//5 19//19
f 3//3 6//6 54//54
f 53//53 7//7 32//32
f 3//3 2//2 4//4
f 6//6 3//3 4//4
f 54//54 6//6 9//9
f 7//7 27//27 34//34
f 32//32 7//7 34//34
f 27//27 19//19 26//26
f 19//19 27//27 1//1
f 8//8 9//9 7//7
f 53//53 8//8 7//7
f 9//9 1//1 27//27
f 9//9 27//27 7//7
f 6//6 1//1 9//9
f 10//10 20//20 21//21
f 19//19 20//20 26//26
f 10//10 22//22 33//33
f 32//32 16//16 53//53
f 53//53 16//16 11//11
f 28//28 15//15 14//14
f 16//16 14//14 13//13
f 62//62 11//11 13//13
f 15//15 28//28 17//17
f 14//14 15//15 13//13
f 34//34 14//14 16//16
f 18//18 13//13 15//15
f 16//16 32//32 34//34
f 5//5 43//43 21//21
f 18//18 15//15 17//17
f 61//61 62//62 13//13
f 39//39 18//18 25//25
f 16//16 13//13 11//11
f 5//5 36//36 43//43
f 39//39 40//40 18//18
f 35//35 40//40 41//41
f 5//5 20//20 19//19
f 21//21 20//20 5//5
f 30//30 26//26 29//29
f 23//23 13//13 18//18
f 12//12 33//33 31//31
f 10//10 21//21 22//22
f 22//22 21//21 38//38
f 24//24 23//23 35//35
f 18//18 35//35 23//23
f 98//98 24//24 35//35
f 10//10 29//29 20//20
f 26//26 30//30 27//27
f 30//30 34//34 27//27
f 34//34 12//12 28//28
f 14//14 34//34 28//28
f 10//10 30//30 29//29
f 30//30 12//12 34//34
f 31//31 17//17 28//28
f 30//30 10//10 12//12
f 33//33 12//12 10//10
f 31//31 33//33 25//25
f 25//25 17//17 31//31
f 17//17 25//25 18//18
f 31//31 28//28 12//12
f 22//22 25//25 33//33
f 18//18 40//40 35//35
f 20//20 29//29 26//26
f 25//25 22//22 39//39
f 39//39 22//22 38//38
f 50//50 36//36 37//37
f 36//36 5//5 4//4
f 36//36 72//72 37//37
f 50//50 42//42 36//36
f 69//69 48//48 37//37
f 48//48 50//50 37//37
f 4//4 72//72 36//36
f 96//96 40//40 49//49
f 41//41 40//40 96//96
f 42//42 43//43 36//36
f 38//38 21//21 45//45
f 96//96 49//49 47//47
f 43//43 42//42 44//44
f 45//45 21//21 44//44
f 46//46 44//44 42//42
f 46//46 49//49 44//44
f 92//92 46//46 42//42
f 96//96 47//47 88//88
f 91//91 46//46 92//92
f 21//21 43//43 44//44
f 44//44 49//49 45//45
f 46//46 91//91 47//47
f 102//102 92//92 50//50
f 48//48 69//69 51//51
f 100//100 51//51 69//69
f 49//49 46//46 47//47
f 50//50 92//92 42//42
f 102//102 50//50 51//51
f 40//40 39//39 38//38
f 48//48 51//51 50//50
f 45//45 40//40 38//38
f 45//45 49//49 40//40
f 64//64 58//58 74//74
f 60//60 8//8 53//53
f 56//56 52//52 59//59
f 67//67 52//52 90//90
f 55//55 59//59 58//58
f 60//60 54//54 9//9
f 60//60 53//53 57//57
f 57//57 56//56 60//60
f 55//55 3//3 54//54
f 55//55 58//58 3//3
f 57//57 53//53 11//11
f 74//74 58//58 59//59
f 56//56 59//59 55//55
f 74//74 59//59 52//52
f 77//77 3//3 58//58
f 57//57 11//11 63//63
f 11//11 62//62 63//63
f 57//57 52//52 56//56
f 63//63 52//52 57//57
f 64//64 77//77 58//58
f 60//60 9//9 8//8
f 54//54 60//60 56//56
f 56//56 55//55 54//54
f 77//77 2//2 3//3
f 61//61 90//90 63//63
f 61//61 63//63 62//62
f 90//90 61//61 24//24
f 63//63 90//90 52//52
f 61//61 13//13 23//23
f 23//23 24//24 61//61
f 66//66 74//74 52//52
f 65//65 64//64 74//74
f 4//4 2//2 73//73
f 65//65 66//66 76//76
f 72//72 4//4 73//73
f 94//94 78//78 67//67
f 2//2 83//83 73//73
f 72//72 71//71 68//68
f 37//37 72//72 68//68
f 37//37 68//68 69//69
f 77//77 86//86 83//83
f 73//73 71//71 72//72
f 79//79 75//75 82//82
f 78//78 66//66 67//67
f 78//78 76//76 66//66
f 64//64 86//86 77//77
f 66//66 52//52 67//67
f 78//78 80//80 82//82
f 65//65 74//74 66//66
f 83//83 2//2 77//77
f 65//65 81//81 64//64
f 65//65 76//76 81//81
f 70//70 85//85 87//87
f 75//75 85//85 70//70
f 83//83 86//86 87//87
f 84//84 69//69 68//68
f 84//84 100//100 69//69
f 83//83 87//87 73//73
f 81//81 75//75 70//70
f 75//75 81//81 82//82
f 79//79 100//100 84//84
f 85//85 73//73 87//87
f 84//84 68//68 71//71
f 71//71 73//73 85//85
f 75//75 71//71 85//85
f 75//75 84//84 71//71
f 76//76 82//82 81//81
f 82//82 76//76 78//78
f 79//79 84//84 75//75
f 80//80 79//79 82//82
f 86//86 81//81 70//70
f 70//70 87//87 86//86
f 81//81 86//86 64//64
f 89//89 97//97 88//88
f 97//97 98//98 88//88
f 91//91 93//93 89//89
f 79//79 99//99 100//100
f 95//95 93//93 91//91
f 102//102 101//101 92//92
f 24//24 97//97 90//90
f 93//93 97//97 89//89
f 67//67 90//90 94//94
f 78//78 94//94 93//93
f 101//101 95//95 91//91
f 101//101 91//91 92//92
f 94//94 90//90 97//97
f 80//80 78//78 93//93
f 95//95 80//80 93//93
f 95//95 99//99 80//80
f 93//93 94//94 97//97
f 97//97 24//24 98//98
f 80//80 99//99 79//79
f 98//98 41//41 88//88
f 88//88 41//41 96//96
f 99//99 95//95 101//101
f 99//99 102//102 100//100
f 102//102 99//99 101//101
f 41//41 98//98 35//35
f 47//47 89//89 88//88
f 100//100 102//102 51//51
f 89//89 47//47 91//91

