# https://github.com/mikedh/trimesh
v 0.13477600 0.02224400 0.01819600
v 0.13477600 0.02209400 0.01847000
v 0.13477600 0.02430400 0.01840800
v 0.13477600 0.02019800 0.01855600
v 0.13477600 0.02025200 0.01852200
v 0.13477600 0.02195000 0.01873600
v 0.13477600 0.01927000 0.02250000
v 0.13477600 0.01950000 0.02231200
v 0.13477600 0.01788600 0.02235600
v 0.13477600 0.02086800 0.01943200
v 0.13477600 0.02171000 0.01918200
v 0.13477600 0.01907400 0.01924600
v 0.13477600 0.02235600 0.02658400
v 0.13477600 0.02179800 0.02645000
v 0.13477600 0.02122600 0.02646600
v 0.13477600 0.02381200 0.01892800
v 0.13477600 0.02368000 0.01891600
v 0.13477600 0.02631800 0.02322800
v 0.13477600 0.02631400 0.02324800
v 0.13477600 0.02646600 0.02324400
v 0.13477600 0.02012200 0.02447000
v 0.13477600 0.02079400 0.02376000
v 0.13477600 0.01905800 0.02408400
v 0.13477600 0.02104400 0.02041400
v 0.13477600 0.02159000 0.02007800
v 0.13477600 0.02122000 0.02008800
v 0.13477600 0.02211400 0.01788800
v 0.13477600 0.02233400 0.01803000
v 0.13477600 0.02237600 0.01795000
v 0.13477600 0.02099200 0.01806600
v 0.13477600 0.02000400 0.02033200
v 0.13477600 0.02050400 0.02010800
v 0.13477600 0.02288000 0.01883200
v 0.13477600 0.02213600 0.01875600
v 0.13477600 0.02473800 0.02538000
v 0.13477600 0.02491200 0.02523800
v 0.13477600 0.02481400 0.02524000
v 0.13477600 0.02441000 0.02598800
v 0.13477600 0.02443400 0.02594400
v 0.13477600 0.02403000 0.02595400
v 0.13477600 0.02239400 0.01791600
v 0.13477600 0.02192200 0.01879000
v 0.13477600 0.02267200 0.01802000
v 0.13477600 0.01931800 0.02360600
v 0.13477600 0.01955000 0.02343600
v 0.13477600 0.01940800 0.02344000
v 0.13477600 0.01938200 0.02361400
v 0.13477600 0.02326600 0.01887200
v 0.13477600 0.02016600 0.02606200
v 0.13477600 0.02055000 0.02553200
v 0.13477600 0.01958000 0.02563800
v 0.13477600 0.02238400 0.01959000
v 0.13477600 0.02143400 0.01969200
v 0.13477600 0.01947600 0.02137800
v 0.13477600 0.02064400 0.02115200
v 0.13477600 0.01980600 0.02117600
v 0.13477600 0.02046600 0.02148200
v 0.13477600 0.02521000 0.02520600
v 0.13477600 0.02518600 0.02523000
v 0.13477600 0.02539400 0.02522400
v 0.13477600 0.02324400 0.01800400
v 0.13477600 0.02350800 0.01889800
v 0.13477600 0.01995400 0.01853000
v 0.13477600 0.02002600 0.02229800
v 0.13477600 0.01988200 0.02256400
v 0.13477600 0.02363200 0.01912000
v 0.13477600 0.02342200 0.01912600
v 0.13477600 0.02131400 0.02157000
v 0.13477600 0.02273800 0.02109400
v 0.13477600 0.02173600 0.02112200
v 0.13477600 0.02206000 0.02164600
v 0.13477600 0.02535600 0.01989600
v 0.13477600 0.02522400 0.01907600
v 0.13477600 0.02503600 0.01986400
v 0.13477600 0.02589200 0.02324600
v 0.13477600 0.02588400 0.02326000
v 0.13477600 0.02589400 0.02326000
v 0.13477600 0.02444000 0.02593400
v 0.13477600 0.02410000 0.02589800
v 0.13477600 0.02246400 0.02629800
v 0.13477600 0.02258000 0.02599400
v 0.13477600 0.02451400 0.02594200
v 0.13477600 0.02276400 0.02633000
v 0.13477600 0.02269400 0.02642600
v 0.13477600 0.02347800 0.02640400
v 0.13477600 0.02624400 0.02097600
v 0.13477600 0.02625000 0.02099600
v 0.13477600 0.02640400 0.02099200
v 0.13477600 0.01840800 0.02016600
v 0.13477600 0.02312400 0.01913400
v 0.13477600 0.02279800 0.01963200
v 0.13477600 0.02179800 0.01952800
v 0.13477600 0.02265200 0.01914600
v 0.13477600 0.01800200 0.02122600
v 0.13477600 0.02171400 0.01917400
v 0.13477600 0.02153800 0.01950200
v 0.13477600 0.02367800 0.02071000
v 0.13477600 0.02435000 0.02000000
v 0.13477600 0.02434800 0.02000000
v 0.13477600 0.02468000 0.01982600
v 0.13477600 0.02452800 0.01981000
v 0.13477600 0.02369200 0.02504800
v 0.13477600 0.02385400 0.02482400
v 0.13477600 0.02297000 0.02497400
v 0.13477600 0.02093600 0.02114400
v 0.13477600 0.02051600 0.02148600
v 0.13477600 0.02241200 0.02643400
v 0.13477600 0.02103200 0.02043800
v 0.13477600 0.02101000 0.02043600
v 0.13477600 0.02227400 0.02005800
v 0.13477600 0.02172000 0.02050800
v 0.13477600 0.02421600 0.02187000
v 0.13477600 0.02464000 0.02152400
v 0.13477600 0.02415800 0.02186400
v 0.13477600 0.02275600 0.02004600
v 0.13477600 0.02226400 0.02056400
v 0.13477600 0.02311600 0.01966400
v 0.13477600 0.02327200 0.02177200
v 0.13477600 0.02447200 0.02104600
v 0.13477600 0.02378400 0.02106600
v 0.13477600 0.02636000 0.02136400
v 0.13477600 0.02608600 0.02100200
v 0.13477600 0.02401400 0.02074600
v 0.13477600 0.02487600 0.01998600
v 0.13477600 0.02455800 0.01999400
v 0.13477600 0.02456400 0.02080200
v 0.13477600 0.02407600 0.02000800
v 0.13477600 0.02326400 0.02066800
v 0.13477600 0.02361000 0.02584800
v 0.13477600 0.02064200 0.02228000
v 0.13477600 0.02033000 0.02261000
v 0.13477600 0.02174400 0.02275600
v 0.13477600 0.02223600 0.02223600
v 0.13477600 0.02223400 0.02223600
v 0.13477600 0.02434200 0.01979200
v 0.13477600 0.02522400 0.01907400
v 0.13477600 0.02109400 0.02478000
v 0.13477600 0.02319600 0.02438600
v 0.13477600 0.02134200 0.02443600
v 0.13477600 0.02510000 0.02310200
v 0.13477600 0.02573000 0.02223400
v 0.13477600 0.02428400 0.02301800
v 0.13477600 0.02606200 0.02430600
v 0.13477600 0.02250200 0.02283400
v 0.13477600 0.02382000 0.02219200
v 0.13477600 0.02295000 0.02221600
v 0.13477600 0.02297000 0.02288200
v 0.13477600 0.02658400 0.02211400
v 0.13477600 0.02542000 0.02089000
v 0.13477600 0.02550400 0.02082200
v 0.13477600 0.02480600 0.02082800
v 0.13477600 0.02594000 0.01995600
v 0.13477600 0.02606200 0.02036800
v 0.13477600 0.02610800 0.02033200
v 0.13477600 0.02560400 0.01992200
v 0.13477600 0.02562200 0.01996600
v 0.13477600 0.02587200 0.02052400
v 0.13477600 0.02536800 0.01997200
v 0.13477600 0.02492800 0.01985200
v 0.13477600 0.02379800 0.02506000
v 0.13477600 0.02358200 0.02596600
v 0.13477600 0.02301600 0.02598200
v 0.13477600 0.02314800 0.02580000
v 0.13477600 0.02374800 0.02527000
v 0.13477600 0.02352600 0.02527600
v 0.13477600 0.02068600 0.02473800
v 0.13477600 0.02104600 0.02444400
v 0.13477600 0.02530800 0.02432600
v 0.13477600 0.02419200 0.02435800
v 0.13477600 0.02485200 0.02516800
v 0.13477600 0.02396400 0.02436400
v 0.13477600 0.02402800 0.02409400
v 0.13477600 0.02496800 0.02328600
v 0.13477600 0.02421600 0.02330600
v 0.13477600 0.02435800 0.02412800
v 0.13477600 0.02571400 0.02213800
v 0.13477600 0.02448600 0.02217400
v 0.13477600 0.02455000 0.02190400
v 0.13477600 0.02553600 0.02101600
v 0.13477600 0.02525600 0.02102400
v 0.13477600 0.02569600 0.02202200
v 0.13477600 0.02475600 0.02103800
v 0.13477600 0.02500800 0.01998200
v 0.13477600 0.02261000 0.02654200
v 0.13477600 0.01980400 0.02545400
v 0.13477600 0.01989800 0.02537800
v 0.13477600 0.01924600 0.02539600
v 0.13477600 0.02267400 0.02575000
v 0.13477600 0.02284800 0.02529600
v 0.13477600 0.02176000 0.02386000
v 0.13477600 0.02175200 0.02387200
v 0.13477600 0.02176600 0.02386000
v 0.13477600 0.02238600 0.02335800
v 0.13477600 0.02211800 0.02336400
v 0.13477600 0.02403600 0.02218600
v 0.13477600 0.02374000 0.02296200
v 0.13477600 0.02413000 0.02193800
v 0.13477600 0.02580000 0.02213600
v 0.13477600 0.02650200 0.02211600
v 0.13477600 0.02588200 0.02318400
v 0.13477600 0.02592400 0.02318800
v 0.13477600 0.02656600 0.02200000
v 0.13477600 0.02655600 0.02202000
v 0.13477600 0.02644400 0.02124600
v 0.13477600 0.02587000 0.02204000
v 0.13477600 0.02629000 0.02145800
v 0.13477600 0.02654800 0.02203400
v 0.13477600 0.02606600 0.02095800
v 0.13477600 0.02174200 0.01917200
v 0.13477600 0.01961000 0.02363800
v 0.13477600 0.01922200 0.02378000
v 0.13477600 0.01806600 0.02347800
v 0.13477600 0.02114200 0.02339200
v 0.13477600 0.01986800 0.02342800
v 0.13477600 0.02042200 0.02156200
v 0.13477600 0.02081200 0.02266000
v 0.13477600 0.02130200 0.02226200
v 0.13477600 0.02333000 0.02107800
v 0.13477600 0.02272800 0.02171600
v 0.13477600 0.02498200 0.02518200
v 0.13477600 0.02535800 0.02423200
v 0.13477600 0.01852800 0.02451400
v 0.13477600 0.01883000 0.02450600
v 0.13477600 0.01881000 0.02454400
v 0.13477600 0.01994200 0.02466200
v 0.13477600 0.02067600 0.02535600
v 0.13477600 0.02360200 0.02332400
v 0.13477600 0.02333400 0.02402200
v 0.13477600 0.02551600 0.02090000
v 0.13477600 0.02650800 0.02210600
v 0.13477600 0.01994200 0.02466000
v 0.13477600 0.01870800 0.02473400
v 0.06629800 0.01058000 0.00328800
v 0.09828200 0.01058000 0.00328800
v 0.09828200 0.01588000 0.00091600
v 0.01802800 0.01588000 0.00091600
v 0.00567000 0.01588000 0.00091600
v 0.00567000 0.01058000 0.00328800
v 0.01802800 0.01058000 0.00328800
v 0.06629800 0.01588000 0.00091600
v 0.06629800 0.00607401 0.00695200
v 0.09828200 0.00607401 0.00695200
v 0.00567000 0.00607401 0.00695200
v 0.01802800 0.00607401 0.00695200
v 0.09828200 0.02161400 0.00000000
v 0.01802800 0.02161400 0.00000000
v 0.00567000 0.02161400 0.00000000
v 0.06629800 0.02161400 0.00000000
v 0.01802800 0.00266800 0.01165400
v 0.00567000 0.00266800 0.01165400
v 0.09828200 0.00266800 0.01165400
v 0.06629800 0.00266800 0.01165400
v 0.09828200 0.02739200 0.00059600
v 0.01802800 0.02739200 0.00059600
v 0.00567000 0.02739200 0.00059600
v 0.06629800 0.02739200 0.00059600
v 0.01802800 0.00059600 0.01707800
v 0.00567000 0.00059600 0.01707800
v 0.09828200 0.00059600 0.01707800
v 0.06629800 0.00059600 0.01707800
v 0.09828200 0.03281600 0.00266800
v 0.01802800 0.03281600 0.00266800
v 0.00567000 0.03281600 0.00266800
v 0.06629800 0.03281600 0.00266800
v 0.01802800 0.00000000 0.02285600
v 0.00567000 0.00000000 0.02285600
v 0.09828200 0.00000000 0.02285600
v 0.06629800 0.00000000 0.02285600
v 0.09828200 0.03752000 0.00607400
v 0.01802800 0.03752000 0.00607400
v 0.00567000 0.03752000 0.00607400
v 0.06629800 0.03752000 0.00607400
v 0.01802800 0.00091600 0.02858800
v 0.00567000 0.00091600 0.02858800
v 0.09828200 0.00091600 0.02858800
v 0.06629800 0.00091600 0.02858800
v 0.00567000 0.04118200 0.01058000
v 0.01802800 0.04118200 0.01058000
v 0.06629800 0.04118200 0.01058000
v 0.09828200 0.04118200 0.01058000
v 0.01802800 0.00328800 0.03389000
v 0.00567000 0.00328800 0.03389000
v 0.09828200 0.00328800 0.03389000
v 0.06629800 0.00328800 0.03389000
v 0.00567000 0.04355400 0.01588000
v 0.01802800 0.04355400 0.01588000
v 0.06629800 0.04355400 0.01588000
v 0.09828200 0.04355400 0.01588000
v 0.01802800 0.00695000 0.03839600
v 0.00567000 0.00695000 0.03839600
v 0.09828200 0.00695000 0.03839600
v 0.06629800 0.00695000 0.03839600
v 0.00567000 0.04447000 0.02161400
v 0.01802800 0.04447000 0.02161400
v 0.06629800 0.04447000 0.02161400
v 0.09828200 0.04447000 0.02161400
v 0.00567000 0.01165400 0.04180200
v 0.01802800 0.01165400 0.04180200
v 0.06629800 0.01165400 0.04180200
v 0.09828200 0.01165400 0.04180200
v 0.00567000 0.04387400 0.02739200
v 0.01802800 0.04387400 0.02739200
v 0.06629800 0.04387400 0.02739200
v 0.09828200 0.04387400 0.02739200
v 0.00567000 0.01707800 0.04387400
v 0.01802800 0.01707800 0.04387400
v 0.06629800 0.01707800 0.04387400
v 0.09828200 0.01707800 0.04387400
v 0.00567000 0.04180200 0.03281600
v 0.01802800 0.04180200 0.03281600
v 0.06629800 0.04180200 0.03281600
v 0.09828200 0.04180200 0.03281600
v 0.00567000 0.02285600 0.04447000
v 0.01802800 0.02285600 0.04447000
v 0.06629800 0.02285600 0.04447000
v 0.09828200 0.02285600 0.04447000
v 0.00567000 0.03839600 0.03752000
v 0.01802800 0.03839600 0.03752000
v 0.06629800 0.03839600 0.03752000
v 0.09828200 0.03839600 0.03752000
v 0.00567000 0.02858800 0.04355400
v 0.01802800 0.02858800 0.04355400
v 0.06629800 0.02858800 0.04355400
v 0.09828200 0.02858800 0.04355400
v 0.00567000 0.03389000 0.04118200
v 0.01802800 0.03389000 0.04118200
v 0.06629800 0.03389000 0.04118200
v 0.09828200 0.03389000 0.04118200
v 0.14131800 0.02073600 0.02852000
v 0.14131800 0.01916200 0.02791800
v 0.13477600 0.02052000 0.02943000
v 0.13477600 0.01871800 0.02874000
v 0.14131800 0.02241600 0.02869400
v 0.13477600 0.02244200 0.02962800
v 0.13477600 0.02434600 0.02932200
v 0.14131800 0.02408000 0.02842800
v 0.13477600 0.02611000 0.02853600
v 0.14131800 0.02562000 0.02773800
v 0.14131800 0.01779600 0.02693000
v 0.13477600 0.01715200 0.02761000
v 0.13477600 0.02760800 0.02731800
v 0.14131800 0.02693000 0.02667400
v 0.14131800 0.01673200 0.02562000
v 0.14786200 0.01779600 0.02693000
v 0.14786200 0.01673200 0.02562000
v 0.14972200 0.01673200 0.02562000
v 0.14972200 0.01779600 0.02693000
v 0.14972200 0.01916200 0.02791800
v 0.14786200 0.01916200 0.02791800
v 0.14972200 0.02073600 0.02852000
v 0.14786200 0.02073600 0.02852000
v 0.14972200 0.02241600 0.02869400
v 0.14786200 0.02241600 0.02869400
v 0.14972200 0.02408000 0.02842800
v 0.14786200 0.02408000 0.02842800
v 0.14786200 0.02562000 0.02773800
v 0.14972200 0.02562000 0.02773800
v 0.14972200 0.02693000 0.02667400
v 0.14786200 0.02693000 0.02667400
v 0.14786200 0.02791800 0.02530800
v 0.14972200 0.02791800 0.02530800
v 0.14131800 0.02791800 0.02530800
v 0.14131800 0.01604200 0.02408000
v 0.14786200 0.01604200 0.02408000
v 0.14972200 0.01604200 0.02408000
v 0.13477600 0.01593600 0.02611200
v 0.13477600 0.02874000 0.02575400
v 0.14786200 0.02851800 0.02373400
v 0.14972200 0.02851800 0.02373400
v 0.14131800 0.02851800 0.02373400
v 0.14786200 0.01577800 0.02241600
v 0.14131800 0.01577800 0.02241600
v 0.14972200 0.01577800 0.02241600
v 0.14786200 0.02869400 0.02205400
v 0.14972200 0.02869400 0.02205400
v 0.14131800 0.02869400 0.02205400
v 0.14786200 0.01595000 0.02073800
v 0.14131800 0.01595000 0.02073800
v 0.14972200 0.01595000 0.02073800
v 0.13477600 0.01514800 0.02434800
v 0.13477600 0.02943000 0.02395000
v 0.14786200 0.02842600 0.02039000
v 0.14972200 0.02842600 0.02039000
v 0.14131800 0.02842600 0.02039000
v 0.15292200 0.01432600 0.02245600
v 0.15292200 0.01453800 0.02040200
v 0.15292200 0.01465200 0.02449600
v 0.15292200 0.01549400 0.02638200
v 0.15292200 0.01679800 0.02798400
v 0.15292200 0.01847000 0.02919600
v 0.15292200 0.02040200 0.02993200
v 0.15292200 0.02245400 0.03014600
v 0.15292200 0.02449400 0.02981800
v 0.15292200 0.02638200 0.02897600
v 0.15292200 0.02798400 0.02767200
v 0.15292200 0.02919600 0.02600000
v 0.15292200 0.02993200 0.02406800
v 0.15292200 0.03014400 0.02201400
v 0.15292200 0.02981800 0.01997600
v 0.15292200 0.02897600 0.01808800
v 0.14972200 0.02773800 0.01885000
v 0.15292200 0.01527400 0.01847200
v 0.14972200 0.01655200 0.01916200
v 0.15292200 0.01648600 0.01679800
v 0.14972200 0.01754000 0.01779600
v 0.14786200 0.01655200 0.01916200
v 0.14131800 0.01655200 0.01916200
v 0.13477600 0.01484200 0.02244200
v 0.13477600 0.02962800 0.02202800
v 0.14786200 0.02773800 0.01885000
v 0.14131800 0.02773800 0.01885000
v 0.15292200 0.02767200 0.01648600
v 0.14972200 0.02667400 0.01754000
v 0.15990000 0.01577800 0.02241600
v 0.15990000 0.01595000 0.02073800
v 0.15990000 0.01604200 0.02408000
v 0.15990000 0.01673200 0.02562000
v 0.15990000 0.01779600 0.02693000
v 0.15990000 0.01916200 0.02791800
v 0.15990000 0.02073600 0.02852000
v 0.15990000 0.02241600 0.02869400
v 0.15990000 0.02408000 0.02842800
v 0.15990000 0.02562000 0.02773800
v 0.15990000 0.02693000 0.02667400
v 0.15990000 0.02791800 0.02530800
v 0.15990000 0.02851800 0.02373400
v 0.15990000 0.02869400 0.02205400
v 0.15990000 0.02842600 0.02039000
v 0.15990000 0.02773800 0.01885000
v 0.15990000 0.02667400 0.01754000
v 0.15990000 0.01885000 0.01673400
v 0.15292200 0.01808800 0.01549600
v 0.15990000 0.01754000 0.01779600
v 0.15990000 0.01655200 0.01916200
v 0.15292200 0.02600000 0.01527400
v 0.15990000 0.02530800 0.01655200
v 0.15990000 0.02039000 0.01604400
v 0.15292200 0.01997600 0.01465200
v 0.14972200 0.01885000 0.01673400
v 0.14786200 0.01754000 0.01779600
v 0.14131800 0.01754000 0.01779600
v 0.13477600 0.01504000 0.02052200
v 0.13477600 0.02932200 0.02012400
v 0.14786200 0.02667400 0.01754000
v 0.14131800 0.02667400 0.01754000
v 0.14972200 0.02530800 0.01655200
v 0.15990000 0.02205400 0.01577800
v 0.15990000 0.02373200 0.01595200
v 0.15990000 0.02211400 0.01788800
v 0.15990000 0.02324400 0.01800400
v 0.15990000 0.02430400 0.01840800
v 0.15990000 0.02522400 0.01907600
v 0.15990000 0.02594000 0.01995600
v 0.15990000 0.02099200 0.01806600
v 0.15990000 0.01995400 0.01853000
v 0.15990000 0.02640400 0.02099200
v 0.15990000 0.02658400 0.02211400
v 0.15990000 0.01907400 0.01924600
v 0.15990000 0.02646600 0.02324400
v 0.15990000 0.02606200 0.02430600
v 0.15990000 0.02539400 0.02522400
v 0.15990000 0.01800200 0.02122600
v 0.15990000 0.02451400 0.02594200
v 0.15990000 0.02347800 0.02640400
v 0.15990000 0.01852800 0.02451400
v 0.15990000 0.02016600 0.02606200
v 0.15990000 0.02235600 0.02658400
v 0.15990000 0.01840800 0.02016600
v 0.15990000 0.01788600 0.02235600
v 0.15990000 0.01806600 0.02347800
v 0.15990000 0.01924600 0.02539600
v 0.15990000 0.02122600 0.02646600
v 0.15292200 0.02406800 0.01453800
v 0.15292200 0.02201400 0.01432600
v 0.14972200 0.02039000 0.01604400
v 0.14786200 0.01885000 0.01673400
v 0.14131800 0.01885000 0.01673400
v 0.13477600 0.01573000 0.01871800
v 0.13477600 0.02853400 0.01836000
v 0.14131800 0.02530800 0.01655200
v 0.14786200 0.02530800 0.01655200
v 0.14972200 0.02373200 0.01595200
v 0.14972200 0.02205400 0.01577800
v 0.14786200 0.02039000 0.01604400
v 0.14131800 0.02039000 0.01604400
v 0.13477600 0.01686000 0.01715200
v 0.13477600 0.02731800 0.01686200
v 0.14131800 0.02373200 0.01595200
v 0.14786200 0.02373200 0.01595200
v 0.14786200 0.02205400 0.01577800
v 0.14131800 0.02205400 0.01577800
v 0.13477600 0.01836000 0.01593600
v 0.13477600 0.02575400 0.01573000
v 0.13477600 0.02012200 0.01514800
v 0.13477600 0.02395000 0.01504000
v 0.13477600 0.02202800 0.01484200
v 0.06077200 0.03295600 0.03966400
v 0.06077200 0.02808000 0.04184600
v 0.06077200 0.03710200 0.03629600
v 0.06077200 0.04023400 0.03196800
v 0.06077200 0.04214000 0.02697800
v 0.06077200 0.04268800 0.02166400
v 0.06077200 0.04184400 0.01639200
v 0.06077200 0.03966400 0.01151400
v 0.06077200 0.03629600 0.00736800
v 0.06077200 0.03196800 0.00423600
v 0.06077200 0.02697800 0.00233000
v 0.06077200 0.02166400 0.00178000
v 0.06077200 0.01639000 0.00262600
v 0.06077200 0.01151400 0.00480600
v 0.06077200 0.01250200 0.04023400
v 0.06077200 0.00817400 0.03710200
v 0.06077200 0.01749200 0.04214000
v 0.06077200 0.02280600 0.04268800
v 0.06077200 0.00736800 0.00817600
v 0.06077200 0.00480600 0.03295600
v 0.05539400 0.03222400 0.03847600
v 0.05539400 0.02768200 0.04050800
v 0.05539400 0.03608800 0.03533600
v 0.05539400 0.03900600 0.03130600
v 0.05539400 0.04078400 0.02665400
v 0.05539400 0.04129600 0.02170400
v 0.05539400 0.04050800 0.01679000
v 0.05539400 0.03847600 0.01224400
v 0.05539400 0.03533600 0.00838200
v 0.05539400 0.03130400 0.00546400
v 0.05539400 0.02665400 0.00368600
v 0.05539400 0.02170200 0.00317400
v 0.05539400 0.01678800 0.00396200
v 0.05539400 0.01224400 0.00599600
v 0.05539400 0.00913400 0.03609000
v 0.05539400 0.01316400 0.03900800
v 0.05539400 0.01781600 0.04078400
v 0.05539400 0.02276600 0.04129600
v 0.05539400 0.00838200 0.00913400
v 0.06077200 0.00423600 0.01250200
v 0.06077200 0.00262600 0.02808000
v 0.05539400 0.00599400 0.03222600
v 0.04943200 0.03154400 0.03737000
v 0.04943200 0.02731000 0.03926200
v 0.04943200 0.03514400 0.03444400
v 0.04943200 0.03786400 0.03068600
v 0.04943200 0.03951800 0.02635400
v 0.04943200 0.03999600 0.02174000
v 0.04943200 0.03926200 0.01716000
v 0.04943200 0.03737000 0.01292600
v 0.04943200 0.03444400 0.00932600
v 0.04943200 0.03068600 0.00660600
v 0.04943200 0.02635400 0.00495000
v 0.04943200 0.02173800 0.00447400
v 0.04943200 0.01716000 0.00520800
v 0.04943200 0.01292600 0.00710000
v 0.04943200 0.01002600 0.03514600
v 0.04943200 0.01378200 0.03786600
v 0.04943200 0.01811600 0.03951800
v 0.04943200 0.02273000 0.03999600
v 0.04943200 0.00932600 0.01002600
v 0.05539400 0.00546400 0.01316600
v 0.06077200 0.00233000 0.01749200
v 0.06077200 0.00178001 0.02280600
v 0.05539400 0.00396201 0.02768200
v 0.04943200 0.00710000 0.03154400
v 0.03533000 0.02731000 0.03926200
v 0.03533000 0.03154400 0.03737000
v 0.03533000 0.03514400 0.03444400
v 0.03533000 0.03786400 0.03068600
v 0.03533000 0.03951800 0.02635400
v 0.03533000 0.03999600 0.02174000
v 0.03533000 0.03926200 0.01716000
v 0.03533000 0.03737000 0.01292600
v 0.03533000 0.03444400 0.00932600
v 0.03533000 0.03068600 0.00660600
v 0.03533000 0.02635400 0.00495000
v 0.03533000 0.02173800 0.00447400
v 0.03533000 0.01716000 0.00520800
v 0.03533000 0.01292600 0.00710000
v 0.03533000 0.01002600 0.03514600
v 0.03533000 0.01378200 0.03786600
v 0.03533000 0.01811600 0.03951800
v 0.03533000 0.02273000 0.03999600
v 0.03533000 0.00932600 0.01002600
v 0.04943200 0.00660600 0.01378400
v 0.05539400 0.00368600 0.01781600
v 0.05539400 0.00317400 0.02276800
v 0.04943200 0.00520800 0.02731000
v 0.03533000 0.00710000 0.03154400
v 0.02995000 0.02768200 0.04050800
v 0.02995000 0.03222400 0.03847600
v 0.02995000 0.03608800 0.03533600
v 0.02995000 0.03900600 0.03130600
v 0.02995000 0.04078400 0.02665400
v 0.02995000 0.04129600 0.02170400
v 0.02995000 0.04050800 0.01679000
v 0.02995000 0.03847600 0.01224400
v 0.02995000 0.03533600 0.00838200
v 0.02995000 0.03130400 0.00546400
v 0.02995000 0.02665400 0.00368600
v 0.02995000 0.02170200 0.00317400
v 0.02995000 0.01678800 0.00396200
v 0.02995000 0.01224400 0.00599600
v 0.02995000 0.01316400 0.03900800
v 0.02995000 0.00913400 0.03609000
v 0.02995000 0.01781600 0.04078400
v 0.02995000 0.02276600 0.04129600
v 0.02995000 0.00838200 0.00913400
v 0.03533000 0.00660600 0.01378400
v 0.04943200 0.00495000 0.01811600
v 0.04943200 0.00447401 0.02273200
v 0.03533000 0.00520800 0.02731000
v 0.02995000 0.00599400 0.03222600
v 0.02995000 0.00546400 0.01316600
v 0.03533000 0.00495000 0.01811600
v 0.03533000 0.00447401 0.02273200
v 0.02995000 0.00396201 0.02768200
v 0.02995000 0.00368600 0.01781600
v 0.02995000 0.00317400 0.02276800
v 0.00000000 0.03235800 0.03869000
v 0.00000000 0.02775200 0.04075000
v 0.00000000 0.03627200 0.03550800
v 0.00000000 0.03922800 0.03142400
v 0.00000000 0.04102800 0.02671200
v 0.00000000 0.04154600 0.02169800
v 0.00000000 0.04074800 0.01671800
v 0.00000000 0.03868800 0.01211200
v 0.00000000 0.03550800 0.00820000
v 0.00000000 0.03142400 0.00524200
v 0.00000000 0.02671200 0.00344200
v 0.00000000 0.02169600 0.00292400
v 0.00000000 0.01671800 0.00372200
v 0.00000000 0.01211200 0.00578000
v 0.00000000 0.00819801 0.00896200
v 0.00000000 0.00578001 0.03235800
v 0.00000000 0.00896200 0.03627200
v 0.00000000 0.01304600 0.03922800
v 0.00000000 0.01775800 0.04102800
v 0.00000000 0.02277200 0.04154600
v 0.00000000 0.00524200 0.01304600
v 0.00000000 0.00372000 0.02775400
v 0.00000000 0.00344200 0.01775800
v 0.00000000 0.00292400 0.02277400
v 0.13346800 0.02001200 0.01477400
v 0.13346800 0.01815600 0.01560400
v 0.13346800 0.01657800 0.01688600
v 0.13346800 0.02201800 0.01445200
v 0.12372600 0.01932800 0.01247800
v 0.12372600 0.01690000 0.01356200
v 0.12372600 0.01483800 0.01524000
v 0.13346800 0.01538600 0.01853200
v 0.13346800 0.02404000 0.01466200
v 0.12372600 0.02195200 0.01205800
v 0.12023800 0.01879000 0.01067600
v 0.12023800 0.01591600 0.01196200
v 0.12023800 0.01347200 0.01394800
v 0.12372600 0.01328000 0.01739200
v 0.13346800 0.01466000 0.02043000
v 0.13346800 0.02593800 0.01538800
v 0.12372600 0.02459600 0.01233000
v 0.12023800 0.02190000 0.01017800
v 0.11529400 0.01792800 0.00779000
v 0.11529400 0.01433800 0.00939600
v 0.11529400 0.01128200 0.01187800
v 0.12023800 0.01162400 0.01649800
v 0.12372600 0.01233000 0.01987600
v 0.13346800 0.01445200 0.02245200
v 0.13346800 0.02758400 0.01657800
v 0.12372600 0.02707800 0.01328000
v 0.12023800 0.02503000 0.01050200
v 0.11529400 0.02181600 0.00716800
v 0.10642600 0.01674000 0.00380200
v 0.10642600 0.01215600 0.00585200
v 0.10642600 0.00825800 0.00901800
v 0.11529400 0.00897601 0.01506400
v 0.12023800 0.01050000 0.01944000
v 0.12372600 0.01205800 0.02251800
v 0.13346800 0.01477400 0.02445800
v 0.13346800 0.02886600 0.01815600
v 0.12372600 0.02923200 0.01483800
v 0.12023800 0.02797200 0.01162400
v 0.11529400 0.02573000 0.00757200
v 0.10642600 0.02169800 0.00300800
v 0.10642600 0.00531600 0.01308600
v 0.11529400 0.00757200 0.01874200
v 0.12023800 0.01017600 0.02257200
v 0.12372600 0.01247800 0.02514400
v 0.13346800 0.01560400 0.02631600
v 0.13346800 0.02969600 0.02001200
v 0.12372600 0.03090600 0.01690200
v 0.12023800 0.03052400 0.01347200
v 0.11529400 0.02940600 0.00897600
v 0.10642600 0.02669400 0.00352400
v 0.10642600 0.00352400 0.01777800
v 0.11529400 0.00716801 0.02265600
v 0.12023800 0.01067400 0.02568200
v 0.12372600 0.01356200 0.02757000
v 0.13346800 0.01688400 0.02789200
v 0.13346800 0.03001600 0.02201800
v 0.12372600 0.03199200 0.01932800
v 0.12023800 0.03250800 0.01591600
v 0.11529400 0.03259200 0.01128200
v 0.10642600 0.03138400 0.00531600
v 0.10642600 0.00300800 0.02277200
v 0.11529400 0.00779000 0.02654000
v 0.12023800 0.01196200 0.02855400
v 0.12372600 0.01523800 0.02963400
v 0.13346800 0.01853200 0.02908400
v 0.13346800 0.02980800 0.02404000
v 0.12372600 0.03241200 0.02195200
v 0.12023800 0.03379400 0.01879000
v 0.11529400 0.03507400 0.01433800
v 0.10642600 0.03545200 0.00826000
v 0.10642600 0.00380200 0.02773000
v 0.11529400 0.00939400 0.03013400
v 0.12023800 0.01394800 0.03100000
v 0.12372600 0.01739200 0.03119000
v 0.13346800 0.02043000 0.02980800
v 0.13346800 0.02908400 0.02594000
v 0.12372600 0.03213800 0.02459600
v 0.12023800 0.03429200 0.02190000
v 0.11529400 0.03668000 0.01793000
v 0.10642600 0.03861800 0.01215800
v 0.10642600 0.00585201 0.03231400
v 0.11529400 0.01187800 0.03318800
v 0.12023800 0.01649800 0.03284600
v 0.12372600 0.01987600 0.03213800
v 0.13346800 0.02245200 0.03001800
v 0.13346800 0.02789200 0.02758600
v 0.12372600 0.03119000 0.02707800
v 0.12023800 0.03396800 0.02503000
v 0.11529400 0.03730200 0.02181600
v 0.10642600 0.04066800 0.01674200
v 0.10642600 0.00901800 0.03621200
v 0.13346800 0.02445800 0.02969600
v 0.11529400 0.01506400 0.03549400
v 0.12023800 0.01944000 0.03396800
v 0.12372600 0.02251800 0.03241400
v 0.13346800 0.02631400 0.02886800
v 0.12372600 0.02963200 0.02923200
v 0.12023800 0.03284600 0.02797400
v 0.11529400 0.03689800 0.02573000
v 0.10642600 0.04146400 0.02169800
v 0.10642600 0.01308600 0.03915400
v 0.12372600 0.02514200 0.03199200
v 0.11529400 0.01874200 0.03689800
v 0.12023800 0.02257200 0.03429400
v 0.12372600 0.02756800 0.03090600
v 0.12023800 0.03100000 0.03052400
v 0.11529400 0.03549400 0.02940600
v 0.10642600 0.04094600 0.02669400
v 0.10642600 0.01777600 0.04094600
v 0.12023800 0.02568000 0.03379600
v 0.11529400 0.02265600 0.03730400
v 0.12023800 0.02855400 0.03250800
v 0.11529400 0.03318800 0.03259200
v 0.10642600 0.03915400 0.03138400
v 0.10642600 0.02277000 0.04146400
v 0.11529400 0.02654000 0.03668000
v 0.11529400 0.03013400 0.03507600
v 0.10642600 0.03621000 0.03545200
v 0.10642600 0.02773000 0.04066800
v 0.10642600 0.03231200 0.03861800
vn -1.00000000 0.00000000 0.00000000
vn -1.00000000 0.00000000 0.00000000
vn -0.67879491 0.34907848 -0.64605084
vn -1.00000000 0.00000000 0.00000000
vn -1.00000000 0.00000000 0.00000000
vn -1.00000000 0.00000000 0.00000000
vn -1.00000000 0.00000000 0.00000000
vn -1.00000000 0.00000000 0.00000000
vn -0.67891875 -0.73391759 0.02083999
vn -1.00000000 0.00000000 0.00000000
vn -1.00000000 0.00000000 0.00000000
vn -0.67893612 -0.53358911 -0.50430984
vn -0.67824477 0.02197709 0.73450734
vn -1.00000000 0.00000000 0.00000000
vn -0.67905072 -0.17027956 0.71406932
vn -1.00000000 0.00000000 0.00000000
vn -1.00000000 0.00000000 0.00000000
vn -1.00000000 0.00000000 0.00000000
vn -1.00000000 0.00000000 0.00000000
vn -0.67911533 0.71406451 0.17004188
vn -1.00000000 0.00000000 0.00000000
vn -1.00000000 0.00000000 0.00000000
vn -1.00000000 0.00000000 0.00000000
vn -1.00000000 0.00000000 0.00000000
vn -1.00000000 0.00000000 0.00000000
vn -1.00000000 0.00000000 0.00000000
vn -0.67934770 -0.02112727 -0.73351233
vn -1.00000000 0.00000000 0.00000000
vn -1.00000000 0.00000000 0.00000000
vn -0.67874732 -0.20918645 -0.70394822
vn -1.00000000 0.00000000 0.00000000
vn -1.00000000 0.00000000 0.00000000
vn -1.00000000 0.00000000 0.00000000
vn -1.00000000 0.00000000 0.00000000
vn -1.00000000 0.00000000 0.00000000
vn -1.00000000 0.00000000 0.00000000
vn -1.00000000 0.00000000 0.00000000
vn -0.70751194 0.28692779 0.64583225
vn -1.00000000 0.00000000 0.00000000
vn -1.00000000 0.00000000 0.00000000
vn -0.70669240 0.07160388 -0.70388830
vn -1.00000000 0.00000000 0.00000000
vn -1.00000000 0.00000000 0.00000000
vn -1.00000000 0.00000000 0.00000000
vn -1.00000000 0.00000000 0.00000000
vn -1.00000000 0.00000000 0.00000000
vn -1.00000000 0.00000000 0.00000000
vn -1.00000000 0.00000000 0.00000000
vn -0.67882907 -0.34897536 0.64607065
vn -1.00000000 0.00000000 0.00000000
vn -0.70703092 -0.41473457 0.57280233
vn -1.00000000 0.00000000 0.00000000
vn -1.00000000 0.00000000 0.00000000
vn -1.00000000 0.00000000 0.00000000
vn -1.00000000 0.00000000 0.00000000
vn -1.00000000 0.00000000 0.00000000
vn -1.00000000 0.00000000 0.00000000
vn -1.00000000 0.00000000 0.00000000
vn -1.00000000 0.00000000 0.00000000
vn -0.67933055 0.53304807 0.50435082
vn -0.67895944 0.16998283 -0.71422680
vn -1.00000000 0.00000000 0.00000000
vn -0.67878855 -0.38488067 -0.62539026
vn -1.00000000 0.00000000 0.00000000
vn -1.00000000 0.00000000 0.00000000
vn -1.00000000 0.00000000 0.00000000
vn -1.00000000 0.00000000 0.00000000
vn -1.00000000 0.00000000 0.00000000
vn -1.00000000 0.00000000 0.00000000
vn -1.00000000 0.00000000 0.00000000
vn -1.00000000 0.00000000 0.00000000
vn -1.00000000 0.00000000 0.00000000
vn -0.79080373 0.57672479 -0.20498289
vn -1.00000000 0.00000000 0.00000000
vn -1.00000000 0.00000000 0.00000000
vn -1.00000000 0.00000000 0.00000000
vn -1.00000000 0.00000000 0.00000000
vn -1.00000000 0.00000000 0.00000000
vn -1.00000000 0.00000000 0.00000000
vn -1.00000000 0.00000000 0.00000000
vn -1.00000000 0.00000000 0.00000000
vn -0.67826839 0.38435754 0.62627571
vn -1.00000000 0.00000000 0.00000000
vn -1.00000000 0.00000000 0.00000000
vn -0.67884971 0.20909665 0.70387617
vn -1.00000000 0.00000000 0.00000000
vn -1.00000000 0.00000000 0.00000000
vn -0.67850832 0.70415210 -0.20927559
vn -0.67897602 -0.64562316 -0.34951724
vn -1.00000000 0.00000000 0.00000000
vn -1.00000000 0.00000000 0.00000000
vn -1.00000000 0.00000000 0.00000000
vn -1.00000000 0.00000000 0.00000000
vn -0.67870076 -0.71439297 -0.17031721
vn -1.00000000 0.00000000 0.00000000
vn -1.00000000 0.00000000 0.00000000
vn -1.00000000 0.00000000 0.00000000
vn -1.00000000 0.00000000 0.00000000
vn -1.00000000 0.00000000 0.00000000
vn -1.00000000 0.00000000 0.00000000
vn -1.00000000 0.00000000 0.00000000
vn -1.00000000 0.00000000 0.00000000
vn -1.00000000 0.00000000 0.00000000
vn -1.00000000 0.00000000 0.00000000
vn -1.00000000 0.00000000 0.00000000
vn -1.00000000 0.00000000 0.00000000
vn -1.00000000 0.00000000 0.00000000
vn -1.00000000 0.00000000 0.00000000
vn -1.00000000 0.00000000 0.00000000
vn -1.00000000 0.00000000 0.00000000
vn -1.00000000 0.00000000 0.00000000
vn -1.00000000 0.00000000 0.00000000
vn -1.00000000 0.00000000 0.00000000
vn -1.00000000 0.00000000 0.00000000
vn -1.00000000 0.00000000 0.00000000
vn -1.00000000 0.00000000 0.00000000
vn -1.00000000 0.00000000 0.00000000
vn -1.00000000 0.00000000 0.00000000
vn -1.00000000 0.00000000 0.00000000
vn -1.00000000 0.00000000 0.00000000
vn -1.00000000 0.00000000 0.00000000
vn -1.00000000 0.00000000 0.00000000
vn -1.00000000 0.00000000 0.00000000
vn -1.00000000 0.00000000 0.00000000
vn -1.00000000 0.00000000 0.00000000
vn -1.00000000 0.00000000 0.00000000
vn -1.00000000 0.00000000 0.00000000
vn -1.00000000 0.00000000 0.00000000
vn -1.00000000 0.00000000 0.00000000
vn -1.00000000 0.00000000 0.00000000
vn -1.00000000 0.00000000 0.00000000
vn -1.00000000 0.00000000 0.00000000
vn -1.00000000 0.00000000 0.00000000
vn -1.00000000 0.00000000 0.00000000
vn -1.00000000 0.00000000 0.00000000
vn -0.61763460 0.70043039 -0.35766572
vn -1.00000000 0.00000000 0.00000000
vn -1.00000000 0.00000000 0.00000000
vn -1.00000000 0.00000000 0.00000000
vn -1.00000000 0.00000000 0.00000000
vn -1.00000000 0.00000000 0.00000000
vn -1.00000000 0.00000000 0.00000000
vn -0.67848874 0.64598656 0.34979193
vn -1.00000000 0.00000000 0.00000000
vn -1.00000000 0.00000000 0.00000000
vn -1.00000000 0.00000000 0.00000000
vn -1.00000000 0.00000000 0.00000000
vn -0.67897292 0.73390918 -0.01931555
vn -1.00000000 0.00000000 0.00000000
vn -1.00000000 0.00000000 0.00000000
vn -1.00000000 0.00000000 0.00000000
vn -0.67877096 0.62543699 -0.38483576
vn -1.00000000 0.00000000 0.00000000
vn -0.70726806 0.64524373 -0.28884669
vn -1.00000000 0.00000000 0.00000000
vn -1.00000000 0.00000000 0.00000000
vn -1.00000000 0.00000000 0.00000000
vn -1.00000000 0.00000000 0.00000000
vn -1.00000000 0.00000000 0.00000000
vn -1.00000000 0.00000000 0.00000000
vn -1.00000000 0.00000000 0.00000000
vn -1.00000000 0.00000000 0.00000000
vn -1.00000000 0.00000000 0.00000000
vn -1.00000000 0.00000000 0.00000000
vn -1.00000000 0.00000000 0.00000000
vn -1.00000000 0.00000000 0.00000000
vn -1.00000000 0.00000000 0.00000000
vn -1.00000000 0.00000000 0.00000000
vn -1.00000000 0.00000000 0.00000000
vn -1.00000000 0.00000000 0.00000000
vn -1.00000000 0.00000000 0.00000000
vn -1.00000000 0.00000000 0.00000000
vn -1.00000000 0.00000000 0.00000000
vn -1.00000000 0.00000000 0.00000000
vn -1.00000000 0.00000000 0.00000000
vn -1.00000000 0.00000000 0.00000000
vn -1.00000000 0.00000000 0.00000000
vn -1.00000000 0.00000000 0.00000000
vn -1.00000000 0.00000000 0.00000000
vn -1.00000000 0.00000000 0.00000000
vn -1.00000000 0.00000000 0.00000000
vn -1.00000000 0.00000000 0.00000000
vn -1.00000000 0.00000000 0.00000000
vn -0.70781705 0.11306389 0.69728873
vn -1.00000000 0.00000000 0.00000000
vn -1.00000000 0.00000000 0.00000000
vn -0.67892046 -0.50458353 0.53335023
vn -1.00000000 0.00000000 0.00000000
vn -1.00000000 0.00000000 0.00000000
vn -1.00000000 0.00000000 0.00000000
vn -1.00000000 0.00000000 0.00000000
vn -1.00000000 0.00000000 0.00000000
vn -1.00000000 0.00000000 0.00000000
vn -1.00000000 0.00000000 0.00000000
vn -1.00000000 0.00000000 0.00000000
vn -1.00000000 0.00000000 0.00000000
vn -1.00000000 0.00000000 0.00000000
vn -1.00000000 0.00000000 0.00000000
vn -1.00000000 0.00000000 0.00000000
vn -1.00000000 0.00000000 0.00000000
vn -1.00000000 0.00000000 0.00000000
vn -0.70666524 0.69868369 -0.11164832
vn -1.00000000 0.00000000 0.00000000
vn -0.70758922 0.69778674 -0.11140540
vn -1.00000000 0.00000000 0.00000000
vn -1.00000000 0.00000000 0.00000000
vn -1.00000000 0.00000000 0.00000000
vn -1.00000000 0.00000000 0.00000000
vn -1.00000000 0.00000000 0.00000000
vn -1.00000000 0.00000000 0.00000000
vn -1.00000000 0.00000000 0.00000000
vn -0.67901806 -0.70361953 0.20941357
vn -1.00000000 0.00000000 0.00000000
vn -1.00000000 0.00000000 0.00000000
vn -1.00000000 0.00000000 0.00000000
vn -1.00000000 0.00000000 0.00000000
vn -1.00000000 0.00000000 0.00000000
vn -1.00000000 0.00000000 0.00000000
vn -1.00000000 0.00000000 0.00000000
vn -1.00000000 0.00000000 0.00000000
vn -1.00000000 0.00000000 0.00000000
vn -0.67843617 -0.62532700 0.38560408
vn -1.00000000 0.00000000 0.00000000
vn -1.00000000 0.00000000 0.00000000
vn -1.00000000 0.00000000 0.00000000
vn -1.00000000 0.00000000 0.00000000
vn -1.00000000 0.00000000 0.00000000
vn -1.00000000 0.00000000 0.00000000
vn -1.00000000 0.00000000 0.00000000
vn -1.00000000 0.00000000 0.00000000
vn -1.00000000 0.00000000 0.00000000
vn -0.70749848 -0.54768870 0.44663519
vn 0.15340124 0.51796125 0.84153681
vn -0.17353686 0.51618848 0.83870997
vn -0.17364813 0.28122085 0.94380144
vn -0.12853630 0.28321523 0.95040389
vn 0.23167219 0.27776647 0.93229490
vn 0.23152005 0.50992742 0.82847601
vn -0.12850560 0.51981400 0.84455889
vn 0.15354207 0.28215633 0.94700192
vn 0.15333617 0.71796543 0.67897987
vn -0.17348862 0.71557917 0.67664477
vn 0.23147766 0.70682169 0.66844685
vn -0.12848161 0.72055486 0.68139062
vn -0.17360143 0.02741654 0.98443429
vn -0.12845749 0.02761093 0.99133057
vn 0.23158488 0.02710495 0.97243702
vn 0.15337042 0.02755230 0.98778458
vn -0.12851835 0.87223994 0.47189038
vn 0.23155943 0.85565356 0.46285766
vn -0.17363020 0.86618559 0.46858840
vn 0.15341656 0.86914280 0.47016396
vn -0.17359975 -0.22821598 0.95800866
vn -0.12847967 -0.22983326 0.96471221
vn 0.23157016 -0.22543976 0.94633618
vn 0.15341024 -0.22901283 0.96125877
vn -0.12845714 0.96471919 0.22981654
vn 0.23158132 0.94633607 0.22542877
vn -0.17361387 0.95800485 0.22822123
vn 0.15344878 0.96126164 0.22897494
vn -0.17360525 -0.46849220 0.86624262
vn -0.12852523 -0.47177475 0.87230147
vn 0.23161203 -0.46280759 0.85566641
vn 0.15341624 -0.47007509 0.86919093
vn -0.12845346 0.99133044 -0.02763463
vn 0.23154401 0.97244768 -0.02707166
vn -0.17359623 0.98443459 -0.02743889
vn 0.15333751 0.98779193 -0.02747192
vn -0.17356451 -0.67670055 0.71550802
vn -0.12850045 -0.68143344 0.72051100
vn 0.23164383 -0.66843509 0.70677837
vn 0.15335643 -0.67901705 0.71792593
vn -0.12849960 0.95042598 -0.28315774
vn 0.23153060 0.93232745 -0.27777529
vn -0.17363274 0.94381533 -0.28118374
vn 0.15347556 0.94699744 -0.28220754
vn 0.23166851 -0.82852368 0.50978251
vn -0.12848383 -0.84461127 0.51973427
vn 0.15348339 -0.84161447 0.51781071
vn -0.17361675 -0.83875191 0.51609345
vn -0.12846493 0.84465711 -0.51966445
vn 0.23152692 0.82857025 -0.50977116
vn -0.17356157 0.83879994 -0.51603396
vn 0.15344973 0.84163826 -0.51778202
vn 0.23168504 -0.93226378 0.27786019
vn -0.12851992 -0.95041284 0.28319264
vn 0.15359267 -0.94696865 0.28224045
vn -0.17367766 -0.94379409 0.28122730
vn -0.12844520 0.68144150 -0.72051323
vn 0.23154371 0.66845332 -0.70679394
vn -0.17348936 0.67671396 -0.71551357
vn 0.15335643 0.67901705 -0.71792593
vn 0.23155236 -0.97244622 0.02705299
vn -0.12845962 -0.99133012 0.02761721
vn 0.15345381 -0.98777352 0.02748464
vn -0.17353751 -0.98444459 0.02745131
vn 0.23158175 0.46278555 -0.85568652
vn -0.12843907 0.47178964 -0.87230611
vn 0.15341624 0.47007509 -0.86919093
vn -0.17357733 0.46847325 -0.86625846
vn 0.23158132 -0.94633607 -0.22542877
vn -0.12845418 -0.96471902 -0.22981892
vn 0.15344878 -0.96126164 -0.22897494
vn -0.17355917 -0.95801000 -0.22824122
vn 0.23158132 0.22542877 -0.94633607
vn -0.12845967 0.22979180 -0.96472475
vn 0.15344878 0.22897494 -0.96126164
vn -0.17361111 0.22820593 -0.95800900
vn 0.23158175 -0.85568652 -0.46278555
vn -0.12849350 -0.87229679 -0.47179203
vn 0.15341624 -0.86919093 -0.47007509
vn -0.17361979 -0.86622915 -0.46851171
vn 0.23155468 -0.02708202 -0.97244485
vn -0.12847108 -0.02762110 -0.99132853
vn 0.15343677 -0.02749504 -0.98777587
vn -0.17357348 -0.02743001 -0.98443885
vn 0.23155974 -0.70678063 -0.66846184
vn -0.12850022 -0.72051089 -0.68143359
vn 0.15333333 -0.71794400 -0.67900317
vn -0.17358536 -0.71551778 -0.67668488
vn 0.23156041 -0.27777076 -0.93232139
vn -0.12851114 -0.28316638 -0.95042185
vn 0.15340069 -0.28216379 -0.94702261
vn -0.17364665 -0.28119460 -0.94380954
vn 0.23154731 -0.50977792 -0.82856039
vn -0.12850478 -0.51966631 -0.84464990
vn 0.15339970 -0.51778926 -0.84164293
vn -0.17361545 -0.51603536 -0.83878792
vn -0.07133033 0.23150607 -0.97021489
vn -0.07130659 0.47448953 -0.87736826
vn -0.21510522 0.22671692 -0.94991009
vn -0.21568260 0.46403077 -0.85916032
vn -0.07129319 -0.02758066 -0.99707401
vn -0.21547391 -0.02765543 -0.97611791
vn -0.21554020 -0.27856605 -0.93591847
vn -0.07122223 -0.28514602 -0.95583426
vn -0.21551840 -0.51121138 -0.83199444
vn -0.07132368 -0.52271545 -0.84951838
vn -0.07137591 0.68526243 -0.72479024
vn -0.21546093 0.67069199 -0.70975267
vn -0.21562967 -0.70953358 -0.67086954
vn -0.07138202 -0.72478615 -0.68526611
vn -0.07133125 0.84950433 -0.52273727
vn 0.00000000 0.68704612 -0.72661381
vn 0.00000000 0.85164079 -0.52412591
vn 0.21518891 0.83174879 -0.51174963
vn 0.21523936 0.67093305 -0.70959204
vn 0.21513847 0.46443695 -0.85907727
vn 0.00000000 0.47568221 -0.87961721
vn 0.21503197 0.22677637 -0.94991248
vn 0.00000000 0.23211486 -0.97268838
vn 0.21516282 -0.02702994 -0.97620405
vn 0.00000000 -0.02765206 -0.99961761
vn 0.21497786 -0.27922825 -0.93585047
vn 0.00000000 -0.28583118 -0.95827999
vn 0.00000000 -0.52412591 -0.85164079
vn 0.21515282 -0.51172524 -0.83177313
vn 0.21514346 -0.70966853 -0.67088290
vn 0.00000000 -0.72661381 -0.68704612
vn 0.00000000 -0.87988083 -0.47519441
vn 0.21517931 -0.85923582 -0.46412462
vn -0.07133685 -0.87763741 -0.47398695
vn -0.07132828 0.95598524 -0.28461287
vn 0.00000000 0.95844735 -0.28526949
vn 0.21508953 0.93599454 -0.27865877
vn -0.21544307 0.83198466 -0.51125904
vn -0.21589766 -0.85878779 -0.46461998
vn 0.00000000 -0.97268041 -0.23214828
vn 0.21520841 -0.94988367 -0.22672971
vn -0.07143879 -0.97018080 -0.23161545
vn 0.00000000 0.99961920 -0.02759460
vn -0.07140354 0.99706849 -0.02749486
vn 0.21507364 0.97622756 -0.02689031
vn 0.00000000 -0.99961769 0.02764909
vn 0.21508195 -0.97621901 0.02713308
vn -0.07140136 -0.99706416 0.02765684
vn 0.00000000 0.97285997 0.23139465
vn -0.07133795 0.97037600 0.23082747
vn 0.21508784 0.95010114 0.22593152
vn -0.21535997 0.93582976 -0.27900312
vn -0.21523131 -0.94998358 -0.22628894
vn 0.00000000 -0.95826717 0.28587414
vn 0.21501626 -0.93587555 0.27911460
vn -0.07129275 -0.95583093 0.28513956
vn 0.10744651 0.99382795 -0.02759091
vn 0.10745616 0.96721510 0.23010460
vn 0.10744725 0.95290559 -0.28359483
vn 0.10752828 0.84678105 -0.52096020
vn 0.10739535 0.68310851 -0.72237732
vn 0.10749359 0.47272822 -0.87462744
vn 0.10745257 0.23056716 -0.96710534
vn 0.10743034 -0.02753114 -0.99383135
vn 0.10742776 -0.28395270 -0.95280121
vn 0.10751117 -0.52072159 -0.84692997
vn 0.10752549 -0.72244085 -0.68302085
vn 0.10755642 -0.87458297 -0.47279621
vn 0.10739374 -0.96723928 -0.23003210
vn 0.10738584 -0.99383083 0.02772299
vn 0.10758435 -0.95292578 0.28347499
vn 0.10749104 -0.84689819 0.52077744
vn 0.21526729 -0.83198523 0.51133216
vn 0.10745788 0.87463724 0.47271821
vn 0.21509656 0.85910293 0.46440890
vn 0.10746984 0.72235899 0.68311619
vn 0.21517230 0.70935946 0.67120044
vn 0.00000000 0.87971791 0.47549595
vn -0.07135131 0.87749930 0.47424041
vn -0.21557214 0.97609936 -0.02754422
vn -0.21482391 -0.97625858 0.02774658
vn 0.00000000 -0.85192424 0.52366505
vn -0.07131921 -0.84975771 0.52232691
vn 0.10739535 -0.68310851 0.72237732
vn 0.21523936 -0.67093305 0.70959204
vn -0.75092425 0.66013496 -0.01829202
vn -0.75064216 0.64276769 0.15292497
vn -0.75053535 0.63339925 -0.18841997
vn -0.75084758 0.56245427 -0.34622696
vn -0.75068394 0.45394553 -0.48000737
vn -0.75082250 0.31411392 -0.58103186
vn -0.75067995 0.15341442 -0.64260689
vn -0.75075794 -0.01828342 -0.66032434
vn -0.75060135 -0.18892170 -0.63317155
vn -0.75082166 -0.34609741 -0.56256859
vn -0.75072528 -0.48001778 -0.45386616
vn -0.75076245 -0.58123694 -0.31387794
vn -0.75089494 -0.64239470 -0.15325090
vn -0.75049185 -0.66062881 0.01820851
vn -0.75088892 -0.63287554 0.18877068
vn -0.75074698 -0.56274218 0.34597719
vn -0.75068394 -0.45394553 0.48000737
vn -0.75094155 0.34580840 0.56258630
vn 0.10752300 0.52076074 0.84690440
vn -0.75062426 0.47991936 0.45413724
vn -0.75076934 0.58112382 0.31407086
vn 0.10749359 -0.47272822 0.87462744
vn -0.75073959 -0.31378800 0.58131502
vn -0.75065814 0.18886073 0.63312240
vn 0.10749767 0.28389262 0.95281123
vn 0.21522006 0.51139169 0.83196085
vn 0.00000000 0.72629750 0.68738050
vn -0.07146098 0.72444165 0.68562207
vn -0.21588505 0.94981519 0.22637304
vn -0.21544691 -0.93587252 0.27879248
vn 0.00000000 -0.68704612 0.72661381
vn -0.07135350 -0.68530547 0.72475175
vn 0.21530046 -0.46386469 0.85934583
vn -0.75076762 0.01825530 0.66031411
vn -0.75091680 -0.15283802 0.64246751
vn -0.73743803 -0.01858424 -0.67515907
vn -0.73770493 0.15602629 -0.65684643
vn -0.73795244 0.32121643 -0.59350333
vn -0.73745524 0.46426963 -0.49052368
vn -0.73771417 0.57482820 -0.35404850
vn -0.73784950 -0.19226443 -0.64700271
vn -0.73780106 -0.35379206 -0.57487457
vn -0.73772629 0.64689503 -0.19309774
vn -0.73785997 0.67469840 -0.01856722
vn -0.73762779 -0.49071737 -0.46379058
vn -0.73741757 0.65706394 0.15646820
vn -0.73815355 0.59324432 0.32123280
vn -0.73716540 0.49083027 0.46440587
vn -0.73790421 -0.65650589 -0.15651645
vn -0.73807402 0.35377233 0.57453623
vn -0.73753171 0.19263785 0.64725392
vn -0.73793949 -0.57485812 0.35352998
vn -0.73778007 -0.32088308 0.59389782
vn -0.73786019 0.01856722 0.67469816
vn -0.73758097 -0.59382477 -0.32147544
vn -0.73764818 -0.67491324 0.01916453
vn -0.73753165 -0.64725398 0.19263787
vn -0.73759715 -0.46375119 0.49080065
vn -0.73749334 -0.15665495 0.65693439
vn 0.10752724 -0.22998278 0.96723617
vn 0.10749219 0.02770016 0.99381997
vn 0.21515579 0.27915830 0.93583045
vn 0.00000000 0.52373385 0.85188195
vn -0.07140494 0.52237260 0.84972242
vn -0.21559048 0.85906941 0.46424184
vn -0.21542178 -0.83196081 0.51130683
vn -0.07145115 -0.47384576 0.87770435
vn 0.00000000 -0.47500855 0.87998118
vn 0.21525922 -0.22600814 0.95004410
vn 0.21521534 0.02698573 0.97619369
vn 0.00000000 0.28583118 0.95827999
vn -0.07140046 0.28512691 0.95582667
vn -0.21487889 0.70977468 0.67085540
vn -0.21517016 -0.67111393 0.70944196
vn -0.07154290 -0.23083008 0.97036029
vn 0.00000000 -0.23142941 0.97285170
vn 0.00000000 0.02759102 0.99961930
vn -0.07148505 0.02755020 0.99706112
vn -0.21546847 0.51113404 0.83205489
vn -0.21490871 -0.46473914 0.85897135
vn -0.21547861 0.27917602 0.93575088
vn -0.21507025 -0.22640430 0.94999257
vn -0.21548526 0.02747004 0.97612064
vn 0.27982983 -0.50304108 -0.81770712
vn 0.27984523 -0.27411666 -0.92007972
vn 0.27986571 -0.69751459 -0.65965793
vn 0.27985330 -0.84450345 -0.45661367
vn 0.27978237 -0.93393472 -0.22245847
vn 0.27969472 -0.95971480 0.02680229
vn 0.27983397 -0.92007264 0.27415193
vn 0.27970640 -0.81785386 0.50287114
vn 0.27979469 -0.65965865 0.69754240
vn 0.27990527 -0.45659502 0.84449632
vn 0.27980590 -0.22263201 0.93388631
vn 0.27965644 0.02687196 0.95972401
vn 0.27985234 0.27425313 0.92003690
vn 0.27990378 0.50301316 0.81769899
vn 0.27970926 0.45663938 -0.84453728
vn 0.27970360 0.65970335 -0.69753666
vn 0.27974108 0.22242238 -0.93395568
vn 0.27972302 -0.02670444 -0.95970928
vn 0.27974682 0.69756963 0.65965016
vn 0.27970499 0.81781514 -0.50293490
vn 0.23240142 -0.50965676 -0.82839578
vn 0.23246078 -0.27783366 -0.93207856
vn 0.23244368 -0.70663706 -0.66830682
vn 0.23239302 -0.85547579 -0.46276847
vn 0.23241042 -0.94611566 -0.22550068
vn 0.23235018 -0.97225344 0.02714099
vn 0.23238908 -0.93210734 0.27779708
vn 0.23243226 -0.82843988 0.50957100
vn 0.23250919 -0.66814037 0.70677289
vn 0.23240956 -0.46270973 0.85550307
vn 0.23235414 -0.22559123 0.94610790
vn 0.23245477 0.02720835 0.97222656
vn 0.23235474 0.27802292 0.93204857
vn 0.23234868 0.50970311 0.82838205
vn 0.23235727 0.66831094 -0.70666157
vn 0.23223995 0.46267128 -0.85556992
vn 0.23239089 0.22530684 -0.94616663
vn 0.23231581 -0.02713969 -0.97226169
vn 0.23242139 0.70668362 0.66826534
vn 0.27988167 0.84446319 0.45667075
vn 0.27981059 0.92002772 -0.27432652
vn 0.23241835 0.82845772 -0.50954835
vn 0.10801410 -0.52082432 -0.84680280
vn 0.10812818 -0.28386887 -0.95274695
vn 0.10800953 -0.72234192 -0.68304911
vn 0.10809289 -0.87450894 -0.47281079
vn 0.10816441 -0.96704601 -0.23048313
vn 0.10812923 -0.99375126 0.02768561
vn 0.10806614 -0.95274721 0.28389163
vn 0.10802993 -0.84682326 0.52078777
vn 0.10799265 -0.68302414 0.72236806
vn 0.10798437 -0.47297951 0.87443111
vn 0.10802866 -0.23046666 0.96706511
vn 0.10810737 0.02791671 0.99374718
vn 0.10812739 0.28390122 0.95273741
vn 0.10798439 0.52082895 0.84680374
vn 0.10799072 0.68321410 -0.72218868
vn 0.10803975 0.47270795 -0.87457110
vn 0.10816238 0.23021157 -0.96711092
vn 0.10814005 -0.02767517 -0.99375038
vn 0.10797559 0.72235812 0.68303734
vn 0.23240956 0.85550307 0.46270973
vn 0.27975339 0.93390892 0.22260316
vn 0.27967896 0.95972030 -0.02676972
vn 0.23242748 0.93207077 -0.27788765
vn 0.10802678 0.84689389 -0.52067356
vn -0.11947115 -0.28349761 -0.95150184
vn -0.11934361 -0.52014821 -0.84569672
vn -0.11931869 -0.72141513 -0.68214607
vn -0.11936753 -0.87338201 -0.47218138
vn -0.11949070 -0.96576981 -0.23024042
vn -0.11950413 -0.99244838 0.02765829
vn -0.11942799 -0.95150048 0.28352034
vn -0.11939749 -0.84571846 0.52010050
vn -0.11934286 -0.68211771 0.72143795
vn -0.11931301 -0.47236337 0.87329104
vn -0.11936263 -0.23016680 0.96580319
vn -0.11945056 0.02787848 0.99244867
vn -0.11947029 0.28352990 0.95149232
vn -0.11930963 0.52015298 0.84569858
vn -0.11934308 0.68230574 -0.72126008
vn -0.11937131 0.47209449 -0.87342846
vn -0.11950983 0.22991015 -0.96584612
vn -0.11948476 -0.02763914 -0.99245124
vn -0.11931169 0.72141097 0.68215169
vn 0.10798437 0.87443111 0.47297951
vn 0.23233833 0.94610251 0.22563011
vn 0.23243599 0.97222968 -0.02725714
vn 0.10809270 0.95273363 -0.28392712
vn -0.11941568 0.84577788 -0.51999969
vn -0.24641155 -0.27689053 -0.92876961
vn -0.24633239 -0.50785002 -0.82547484
vn -0.24637558 -0.70414594 -0.66594111
vn -0.24645224 -0.85242561 -0.46112024
vn -0.24651592 -0.94271398 -0.22476712
vn -0.24642248 -0.96878337 0.02710611
vn -0.24643371 -0.92880123 0.27676471
vn -0.24639067 -0.82546802 0.50783283
vn -0.24635391 -0.66581127 0.70427630
vn -0.24635199 -0.46109289 0.85246938
vn -0.24637774 -0.22478718 0.94274532
vn -0.24642428 0.02713706 0.96878205
vn -0.24640216 0.27698080 0.92874518
vn -0.24630415 0.50793905 0.82542849
vn -0.24629196 0.46101587 -0.85252838
vn -0.24629904 0.66596459 -0.70415051
vn -0.24643940 0.22451845 -0.94279324
vn -0.24642377 -0.02704508 -0.96878475
vn -0.24632353 0.70421070 0.66589189
vn -0.11930937 0.87329900 0.47234958
vn 0.10806009 0.96705503 0.23049424
vn 0.10813592 0.99374314 -0.02794991
vn -0.11946994 0.95149254 -0.28352934
vn -0.24636347 0.82550946 -0.50777867
vn -0.24634526 0.85245195 0.46112870
vn -0.11935279 0.96580233 0.23017553
vn -0.11945118 0.99244860 -0.02787823
vn -0.24642353 0.92877707 -0.27685482
vn -0.24641261 0.94273999 0.22477130
vn -0.24642467 0.96878193 -0.02713760
vn 0.83478828 -0.28853894 -0.46890703
vn 0.83480708 -0.15717089 -0.52763098
vn 0.83482537 -0.40001641 -0.37822411
vn 0.83485319 -0.48421348 -0.26183478
vn 0.83481289 -0.53554824 -0.12757555
vn 0.83482381 -0.55030415 0.01531464
vn 0.83492082 -0.52742525 0.15725722
vn 0.83485998 -0.46883527 0.28844809
vn 0.83489305 -0.37819070 0.39990672
vn 0.83482988 -0.26193252 0.48420081
vn 0.83481949 -0.12758319 0.53553613
vn 0.83479833 0.01544284 0.55033923
vn 0.83493425 0.15706435 0.52746146
vn 0.83479210 0.28850686 0.46891997
vn 0.83479929 0.40004366 0.37825284
vn 0.83480403 0.46888276 -0.28853282
vn 0.83483554 0.37819668 -0.40002111
vn 0.83485319 0.26183478 -0.48421348
vn 0.83481289 0.12757555 -0.53554824
vn 0.83482343 -0.01526860 -0.55030602
vn 0.83485308 0.48421342 0.26183527
vn 0.83477766 0.52765684 -0.15724032
vn 0.83481238 0.53555040 0.12756983
vn 0.83482622 0.55030117 -0.01529065
vn -0.26176113 0.27578314 0.92489176
vn -0.26163624 0.50547743 0.82221594
vn -0.26129467 0.70141156 0.66313417
vn -0.26189261 0.02688572 0.96472246
vn -0.36316581 0.26582312 0.89299981
vn -0.36304427 0.48826652 0.79359604
vn -0.36299424 0.67715540 0.64007480
vn -0.26215208 0.84871623 0.45930061
vn -0.26154177 -0.22406825 0.93882337
vn -0.36306798 0.02613034 0.93139618
vn -0.49847019 0.24761820 0.83079040
vn -0.49841262 0.45432929 0.73835612
vn -0.49862377 0.62963643 0.59576196
vn -0.36318609 0.81942202 0.44344493
vn -0.26209052 0.93874228 0.22376659
vn -0.26141041 -0.45912278 0.84904115
vn -0.36299390 -0.21612423 0.90638057
vn -0.49852266 0.02412792 0.86654082
vn -0.47137740 0.25191726 0.84518698
vn -0.47142452 0.46200015 0.75120888
vn -0.47145631 0.64066370 0.60603545
vn -0.49864893 0.76236111 0.41249821
vn -0.36322644 0.90633222 0.21593626
vn -0.26183793 0.96472528 -0.02731347
vn -0.26154823 -0.66300318 0.70144088
vn -0.36317551 -0.44321095 0.81955330
vn -0.49855225 -0.20080203 0.84328180
vn -0.47133811 0.02459071 0.88160971
vn -0.38487776 0.26359606 0.88452599
vn -0.38486852 0.48350743 0.78619132
vn -0.38471555 0.67072948 0.63412610
vn -0.47129357 0.77586444 0.41942431
vn -0.49853581 0.84325679 0.20094785
vn -0.36330730 0.93130555 -0.02603409
vn -0.26178012 0.92494667 -0.27558090
vn -0.26164086 -0.82214438 0.50559142
vn -0.36325613 -0.64037125 0.67673454
vn -0.49862579 -0.41216303 0.76255751
vn -0.47133713 -0.20436719 0.85794834
vn -0.38481426 0.02579549 0.92263350
vn -0.38475907 0.81198670 0.43890553
vn -0.47121283 0.85802438 0.20433461
vn -0.49856391 0.86651628 -0.02415704
vn -0.36338697 0.89289057 -0.26588785
vn -0.26172440 0.82225630 -0.50536612
vn -0.26194666 -0.92496720 0.27535365
vn -0.36314960 -0.79375485 0.48792993
vn -0.49852038 -0.59582669 0.62965704
vn -0.47131037 -0.41952150 0.77580168
vn -0.38483141 -0.21395066 0.89784737
vn -0.38486041 0.89784604 0.21390409
vn -0.47119606 0.88168372 -0.02465953
vn -0.49841818 0.83071670 -0.24796992
vn -0.36306790 0.79373388 -0.48802482
vn -0.26152032 0.66315383 -0.70130886
vn -0.26138123 -0.96485856 0.02697812
vn -0.36314030 -0.89288407 0.26624644
vn -0.49855954 -0.73844876 0.45401741
vn -0.47134522 -0.60603677 0.64074419
vn -0.38481644 -0.43902282 0.81189609
vn -0.38482575 0.92262910 -0.02578131
vn -0.47132165 0.84528728 -0.25168496
vn -0.49839906 0.73837219 -0.45431805
vn -0.36310961 0.64007751 -0.67709098
vn -0.26200770 0.45856155 -0.84916033
vn -0.26128663 -0.93910278 -0.22319334
vn -0.36320202 -0.93135242 0.02582578
vn -0.49851534 -0.83073848 0.24770150
vn -0.47136134 -0.75128948 0.46193355
vn -0.38482363 -0.63422784 0.67057127
vn -0.38482295 0.88455431 -0.26358104
vn -0.47145923 0.75122868 -0.46193253
vn -0.49845127 0.59572519 -0.62980778
vn -0.36323134 0.44265921 -0.81982670
vn -0.26151889 0.22395306 -0.93885723
vn -0.26196730 -0.84897392 -0.45892964
vn -0.36324631 -0.90630636 -0.21601134
vn -0.49852266 -0.86654082 0.02412792
vn -0.47138593 -0.84519002 0.25189113
vn -0.38487912 -0.78619502 0.48349296
vn -0.38478604 0.78620985 -0.48354294
vn -0.47132886 0.60585068 -0.64093218
vn -0.49857428 0.41207751 -0.76263741
vn -0.36311534 0.21630513 -0.90628877
vn -0.26185142 -0.02698223 -0.96473094
vn -0.26195952 -0.70109465 -0.66320699
vn -0.36328668 -0.81961061 -0.44301380
vn -0.49852146 -0.84331559 -0.20073655
vn -0.47138680 -0.88158367 0.02459098
vn -0.38485355 -0.88449356 0.26374020
vn -0.38483784 0.63412993 -0.67065570
vn -0.26193209 -0.27537327 -0.92496548
vn -0.47131312 0.41945478 -0.77583608
vn -0.49858929 0.20100643 -0.84321121
vn -0.36320347 -0.02577839 -0.93135316
vn -0.26170768 -0.50533560 -0.82228038
vn -0.36323582 -0.67673338 -0.64038400
vn -0.49860278 -0.76261231 -0.41208946
vn -0.47136017 -0.85792708 -0.20440329
vn -0.38480407 -0.92263646 0.02584170
vn -0.38483780 0.43890196 -0.81195132
vn -0.36323755 -0.26648710 -0.89277271
vn -0.47136400 0.20447766 -0.85790726
vn -0.49858450 -0.02393420 -0.86651062
vn -0.36313151 -0.48798843 -0.79372716
vn -0.49870164 -0.62959447 -0.59574112
vn -0.47127873 -0.77585563 -0.41945726
vn -0.38487267 -0.89779295 -0.21410475
vn -0.38478412 0.21409964 -0.89783212
vn -0.49856139 -0.24797007 -0.83063072
vn -0.47131581 -0.02462611 -0.88162064
vn -0.49866709 -0.45397670 -0.73840117
vn -0.47120520 -0.64096635 -0.60591071
vn -0.38480502 -0.81189075 -0.43904271
vn -0.38471480 -0.02572719 -0.92267689
vn -0.47133038 -0.25187954 -0.84522445
vn -0.47139436 -0.46194153 -0.75126386
vn -0.38479715 -0.67059291 -0.63422102
vn -0.38478283 -0.26376502 -0.88451692
vn -0.38478208 -0.48358234 -0.78618756
f 1//1 2//2 3//3
f 4//4 2//2 5//5
f 6//6 2//2 4//4
f 7//7 8//8 9//9
f 10//10 11//11 12//12
f 13//13 14//14 15//15
f 16//16 3//3 17//17
f 18//18 19//19 20//20
f 21//21 22//22 23//23
f 24//24 25//25 26//26
f 27//27 28//28 29//29
f 27//27 30//30 28//28
f 31//31 26//26 32//32
f 24//24 26//26 31//31
f 33//33 3//3 34//34
f 35//35 36//36 37//37
f 38//38 39//39 40//40
f 27//27 29//29 41//41
f 6//6 42//42 34//34
f 29//29 28//28 43//43
f 44//44 45//45 46//46
f 47//47 45//45 44//44
f 48//48 3//3 33//33
f 49//49 50//50 51//51
f 25//25 52//52 53//53
f 54//54 55//55 56//56
f 57//57 55//55 54//54
f 58//58 59//59 60//60
f 61//61 41//41 29//29
f 62//62 3//3 48//48
f 30//30 63//63 5//5
f 7//7 64//64 8//8
f 65//65 64//64 7//7
f 17//17 66//66 16//16
f 17//17 67//67 66//66
f 68//68 69//69 70//70
f 71//71 69//69 68//68
f 72//72 73//73 74//74
f 75//75 76//76 77//77
f 78//78 35//35 79//79
f 80//80 81//81 49//49
f 78//78 39//39 82//82
f 83//83 84//84 85//85
f 17//17 3//3 62//62
f 86//86 87//87 88//88
f 31//31 32//32 89//89
f 30//30 2//2 1//1
f 30//30 5//5 2//2
f 6//6 3//3 2//2
f 34//34 3//3 6//6
f 52//52 67//67 90//90
f 91//91 67//67 52//52
f 92//92 90//90 93//93
f 52//52 90//90 92//92
f 54//54 56//56 94//94
f 95//95 12//12 11//11
f 96//96 11//11 10//10
f 97//97 98//98 99//99
f 100//100 73//73 101//101
f 102//102 103//103 104//104
f 57//57 105//105 55//55
f 106//106 105//105 57//57
f 13//13 107//107 14//14
f 49//49 15//15 14//14
f 108//108 24//24 109//109
f 24//24 110//110 25//25
f 108//108 110//110 24//24
f 111//111 110//110 108//108
f 53//53 32//32 26//26
f 112//112 113//113 114//114
f 111//111 115//115 110//110
f 116//116 115//115 111//111
f 91//91 66//66 67//67
f 117//117 66//66 91//91
f 118//118 119//119 120//120
f 114//114 119//119 118//118
f 121//121 87//87 122//122
f 123//123 124//124 125//125
f 126//126 124//124 123//123
f 116//116 127//127 115//115
f 128//128 127//127 116//116
f 79//79 35//35 129//129
f 4//4 5//5 63//63
f 65//65 130//130 64//64
f 131//131 130//130 65//65
f 132//132 133//133 134//134
f 101//101 73//73 135//135
f 136//136 3//3 16//16
f 137//137 138//138 139//139
f 104//104 138//138 137//137
f 140//140 141//141 142//142
f 60//60 143//143 58//58
f 144//144 145//145 146//146
f 147//147 145//145 144//144
f 20//20 148//148 18//18
f 143//143 19//19 77//77
f 149//149 150//150 151//151
f 152//152 153//153 154//154
f 155//155 156//156 152//152
f 157//157 156//156 158//158
f 74//74 73//73 159//159
f 1//1 43//43 28//28
f 3//3 43//43 1//1
f 160//160 103//103 102//102
f 83//83 161//161 162//162
f 85//85 161//161 83//83
f 163//163 164//164 165//165
f 129//129 164//164 163//163
f 166//166 139//139 167//167
f 137//137 139//139 166//166
f 103//103 168//168 169//169
f 160//160 168//168 103//103
f 170//170 168//168 160//160
f 103//103 169//169 171//171
f 172//172 173//173 174//174
f 175//175 173//173 172//172
f 141//141 176//176 177//177
f 178//178 113//113 112//112
f 113//113 179//179 180//180
f 178//178 179//179 113//113
f 181//181 179//179 178//178
f 113//113 180//180 182//182
f 159//159 73//73 100//100
f 150//150 158//158 183//183
f 184//184 84//84 107//107
f 185//185 186//186 187//187
f 188//188 165//165 189//189
f 163//163 165//165 188//188
f 190//190 191//191 192//192
f 103//103 171//171 138//138
f 190//190 193//193 194//194
f 192//192 193//193 190//190
f 147//147 195//195 145//145
f 196//196 195//195 147//147
f 197//197 145//145 195//195
f 196//196 177//177 195//195
f 142//142 177//177 196//196
f 113//113 182//182 119//119
f 126//126 183//183 124//124
f 151//151 183//183 126//126
f 141//141 198//198 176//176
f 141//141 199//199 198//198
f 200//200 199//199 141//141
f 201//201 199//199 200//200
f 148//148 202//202 203//203
f 202//202 204//204 121//121
f 86//86 154//154 153//153
f 88//88 154//154 86//86
f 204//204 88//88 87//87
f 152//152 73//73 155//155
f 205//205 206//206 181//181
f 143//143 20//20 19//19
f 206//206 205//205 207//207
f 148//148 203//203 207//207
f 155//155 73//73 72//72
f 208//208 153//153 157//157
f 86//86 153//153 208//208
f 153//153 152//152 156//156
f 11//11 209//209 95//95
f 1//1 28//28 30//30
f 184//184 85//85 84//84
f 23//23 210//210 211//211
f 44//44 46//46 212//212
f 210//210 213//213 214//214
f 22//22 213//213 210//210
f 215//215 8//8 64//64
f 216//216 134//134 217//217
f 132//132 134//134 216//216
f 57//57 215//215 106//106
f 71//71 218//218 69//69
f 219//219 218//218 71//71
f 128//128 99//99 127//127
f 97//97 99//99 128//128
f 38//38 82//82 39//39
f 58//58 143//143 220//220
f 177//177 178//178 197//197
f 82//82 60//60 59//59
f 175//175 76//76 173//173
f 221//221 76//76 175//175
f 23//23 222//222 223//223
f 224//224 223//223 222//222
f 211//211 222//222 23//23
f 225//225 167//167 21//21
f 166//166 167//167 225//225
f 22//22 194//194 213//213
f 190//190 194//194 22//22
f 132//132 146//146 133//133
f 144//144 146//146 132//132
f 219//219 120//120 218//218
f 118//118 120//120 219//219
f 97//97 125//125 98//98
f 123//123 125//125 97//97
f 80//80 162//162 81//81
f 83//83 162//162 80//80
f 191//191 167//167 139//139
f 50//50 189//189 226//226
f 188//188 189//189 50//50
f 192//192 227//227 193//193
f 228//228 227//227 192//192
f 228//228 174//174 227//227
f 172//172 174//174 228//228
f 229//229 150//150 149//149
f 229//229 157//157 150//150
f 208//208 157//157 229//229
f 206//206 122//122 179//179
f 19//19 18//18 75//75
f 221//221 168//168 143//143
f 35//35 59//59 36//36
f 78//78 59//59 35//35
f 82//82 59//59 78//78
f 200//200 141//141 140//140
f 230//230 199//199 148//148
f 148//148 207//207 230//230
f 187//187 231//231 232//232
f 185//185 226//226 186//186
f 50//50 226//226 185//185
f 225//225 21//21 231//231
f 224//224 21//21 223//223
f 231//231 21//21 224//224
f 47//47 214//214 45//45
f 210//210 214//214 47//47
f 131//131 217//217 130//130
f 216//216 217//217 131//131
f 106//106 70//70 105//105
f 68//68 70//70 106//106
f 89//89 94//94 31//31
f 42//42 12//12 95//95
f 11//11 93//93 209//209
f 96//96 93//93 11//11
f 92//92 93//93 96//96
f 3//3 61//61 43//43
f 230//230 207//207 205//205
f 85//85 40//40 161//161
f 35//35 37//37 164//164
f 170//170 143//143 168//168
f 220//220 143//143 170//170
f 221//221 77//77 76//76
f 143//143 77//77 221//221
f 203//203 121//121 206//206
f 201//201 148//148 199//199
f 18//18 148//148 201//201
f 16//16 73//73 136//136
f 16//16 66//66 73//73
f 62//62 67//67 17//17
f 62//62 90//90 67//67
f 48//48 90//90 62//62
f 48//48 93//93 90//90
f 33//33 93//93 48//48
f 33//33 209//209 93//93
f 33//33 34//34 42//42
f 117//117 73//73 66//66
f 135//135 73//73 117//117
f 4//4 42//42 6//6
f 4//4 12//12 42//42
f 63//63 12//12 4//4
f 72//72 156//156 155//155
f 72//72 158//158 156//156
f 74//74 158//158 72//72
f 74//74 183//183 158//158
f 159//159 183//183 74//74
f 159//159 124//124 183//183
f 100//100 124//124 159//159
f 100//100 125//125 124//124
f 101//101 125//125 100//100
f 101//101 98//98 125//125
f 101//101 99//99 98//98
f 135//135 99//99 101//101
f 135//135 127//127 99//99
f 117//117 127//127 135//135
f 117//117 115//115 127//127
f 91//91 115//115 117//117
f 91//91 110//110 115//115
f 52//52 110//110 91//91
f 52//52 25//25 110//110
f 92//92 53//53 52//52
f 96//96 53//53 92//92
f 10//10 53//53 96//96
f 10//10 32//32 53//53
f 10//10 89//89 32//32
f 12//12 89//89 10//10
f 208//208 87//87 86//86
f 208//208 122//122 87//87
f 229//229 122//122 208//208
f 229//229 179//179 122//122
f 149//149 179//179 229//229
f 149//149 180//180 179//179
f 151//151 180//180 149//149
f 151//151 182//182 180//180
f 126//126 182//182 151//151
f 126//126 119//119 182//182
f 123//123 119//119 126//126
f 123//123 120//120 119//119
f 97//97 120//120 123//123
f 97//97 218//218 120//120
f 128//128 218//218 97//97
f 128//128 69//69 218//218
f 116//116 69//69 128//128
f 116//116 70//70 69//69
f 111//111 70//70 116//116
f 111//111 105//105 70//70
f 108//108 105//105 111//111
f 108//108 55//55 105//105
f 109//109 55//55 108//108
f 109//109 56//56 55//55
f 31//31 56//56 109//109
f 31//31 94//94 56//56
f 205//205 199//199 230//230
f 205//205 198//198 199//199
f 181//181 198//198 205//205
f 181//181 176//176 198//198
f 178//178 176//176 181//181
f 178//178 177//177 176//176
f 112//112 197//197 178//178
f 114//114 197//197 112//112
f 118//118 197//197 114//114
f 118//118 145//145 197//197
f 118//118 146//146 145//145
f 219//219 146//146 118//118
f 219//219 133//133 146//146
f 219//219 134//134 133//133
f 71//71 134//134 219//219
f 71//71 217//217 134//134
f 68//68 217//217 71//71
f 68//68 130//130 217//217
f 68//68 106//106 215//215
f 54//54 215//215 57//57
f 54//54 8//8 215//215
f 54//54 9//9 8//8
f 94//94 9//9 54//54
f 201//201 75//75 18//18
f 200//200 75//75 201//201
f 140//140 75//75 200//200
f 140//140 76//76 75//75
f 140//140 173//173 76//76
f 142//142 173//173 140//140
f 142//142 174//174 173//173
f 196//196 174//174 142//142
f 196//196 227//227 174//174
f 147//147 227//227 196//196
f 147//147 193//193 227//227
f 144//144 193//193 147//147
f 144//144 194//194 193//193
f 132//132 194//194 144//144
f 132//132 213//213 194//194
f 216//216 213//213 132//132
f 216//216 214//214 213//213
f 131//131 214//214 216//216
f 131//131 45//45 214//214
f 65//65 45//45 131//131
f 65//65 46//46 45//45
f 7//7 46//46 65//65
f 7//7 212//212 46//46
f 9//9 212//212 7//7
f 175//175 168//168 221//221
f 175//175 169//169 168//168
f 172//172 169//169 175//175
f 172//172 171//171 169//169
f 228//228 171//171 172//172
f 228//228 138//138 171//171
f 228//228 192//192 191//191
f 22//22 191//191 190//190
f 22//22 167//167 191//191
f 22//22 21//21 167//167
f 210//210 23//23 22//22
f 47//47 211//211 210//210
f 44//44 211//211 47//47
f 212//212 211//211 44//44
f 212//212 222//222 211//211
f 220//220 59//59 58//58
f 220//220 36//36 59//59
f 170//170 36//36 220//220
f 170//170 37//37 36//36
f 160//160 37//37 170//170
f 160//160 164//164 37//37
f 102//102 164//164 160//160
f 102//102 165//165 164//164
f 104//104 165//165 102//102
f 104//104 189//189 165//165
f 137//137 189//189 104//104
f 137//137 226//226 189//189
f 166//166 226//226 137//137
f 166//166 186//186 226//226
f 225//225 186//186 166//166
f 225//225 187//187 186//186
f 231//231 187//187 225//225
f 224//224 232//232 231//231
f 222//222 232//232 224//224
f 79//79 39//39 78//78
f 79//79 40//40 39//39
f 129//129 40//40 79//79
f 129//129 161//161 40//40
f 163//163 161//161 129//129
f 163//163 162//162 161//161
f 188//188 162//162 163//163
f 188//188 81//81 162//162
f 50//50 81//81 188//188
f 50//50 49//49 81//81
f 185//185 51//51 50//50
f 187//187 51//51 185//185
f 80//80 84//84 83//83
f 80//80 107//107 84//84
f 49//49 107//107 80//80
f 49//49 14//14 107//107
f 29//29 43//43 61//61
f 87//87 121//121 204//204
f 23//23 223//223 21//21
f 121//121 203//203 202//202
f 158//158 150//150 157//157
f 31//31 109//109 24//24
f 53//53 26//26 25//25
f 197//197 195//195 177//177
f 206//206 207//207 203//203
f 119//119 114//114 113//113
f 75//75 77//77 19//19
f 138//138 104//104 103//103
f 122//122 206//206 121//121
f 156//156 157//157 153//153
f 179//179 181//181 206//206
f 177//177 142//142 141//141
f 183//183 151//151 150//150
f 40//40 85//85 38//38
f 164//164 129//129 35//35
f 107//107 13//13 184//184
f 42//42 209//209 33//33
f 42//42 95//95 209//209
f 215//215 130//130 68//68
f 215//215 64//64 130//130
f 191//191 138//138 228//228
f 191//191 139//139 138//138
f 233//233 234//234 235//235
f 236//236 237//237 238//238
f 238//238 239//239 236//236
f 235//235 240//240 233//233
f 241//241 242//242 234//234
f 239//239 238//238 243//243
f 243//243 244//244 239//239
f 234//234 233//233 241//241
f 240//240 235//235 245//245
f 246//246 247//247 237//237
f 237//237 236//236 246//246
f 245//245 248//248 240//240
f 249//249 244//244 243//243
f 243//243 250//250 249//249
f 251//251 242//242 241//241
f 241//241 252//252 251//251
f 248//248 245//245 253//253
f 254//254 255//255 247//247
f 247//247 246//246 254//254
f 253//253 256//256 248//248
f 257//257 249//249 250//250
f 250//250 258//258 257//257
f 259//259 251//251 252//252
f 252//252 260//260 259//259
f 256//256 253//253 261//261
f 262//262 263//263 255//255
f 255//255 254//254 262//262
f 261//261 264//264 256//256
f 265//265 257//257 258//258
f 258//258 266//266 265//265
f 267//267 259//259 260//260
f 260//260 268//268 267//267
f 264//264 261//261 269//269
f 270//270 271//271 263//263
f 263//263 262//262 270//270
f 269//269 272//272 264//264
f 273//273 265//265 266//266
f 266//266 274//274 273//273
f 275//275 267//267 268//268
f 268//268 276//276 275//275
f 271//271 270//270 277//277
f 278//278 277//277 270//270
f 272//272 269//269 279//279
f 280//280 279//279 269//269
f 281//281 273//273 274//274
f 274//274 282//282 281//281
f 283//283 275//275 276//276
f 276//276 284//284 283//283
f 277//277 278//278 285//285
f 286//286 285//285 278//278
f 279//279 280//280 287//287
f 288//288 287//287 280//280
f 289//289 281//281 282//282
f 282//282 290//290 289//289
f 291//291 283//283 284//284
f 284//284 292//292 291//291
f 285//285 286//286 293//293
f 294//294 293//293 286//286
f 287//287 288//288 295//295
f 296//296 295//295 288//288
f 290//290 297//297 289//289
f 298//298 289//289 297//297
f 292//292 299//299 291//291
f 300//300 291//291 299//299
f 293//293 294//294 301//301
f 302//302 301//301 294//294
f 295//295 296//296 303//303
f 304//304 303//303 296//296
f 297//297 305//305 298//298
f 306//306 298//298 305//305
f 299//299 307//307 300//300
f 308//308 300//300 307//307
f 301//301 302//302 309//309
f 310//310 309//309 302//302
f 303//303 304//304 311//311
f 312//312 311//311 304//304
f 305//305 313//313 306//306
f 314//314 306//306 313//313
f 307//307 315//315 308//308
f 316//316 308//308 315//315
f 309//309 310//310 317//317
f 318//318 317//317 310//310
f 311//311 312//312 319//319
f 320//320 319//319 312//312
f 313//313 321//321 314//314
f 322//322 314//314 321//321
f 315//315 323//323 316//316
f 324//324 316//316 323//323
f 325//325 317//317 326//326
f 318//318 326//326 317//317
f 327//327 319//319 328//328
f 320//320 328//328 319//319
f 321//321 325//325 322//322
f 326//326 322//322 325//325
f 323//323 327//327 324//324
f 328//328 324//324 327//327
f 329//329 330//330 331//331
f 332//332 331//331 330//330
f 333//333 329//329 334//334
f 331//331 334//334 329//329
f 335//335 336//336 334//334
f 333//333 334//334 336//336
f 337//337 338//338 335//335
f 336//336 335//335 338//338
f 330//330 339//339 332//332
f 340//340 332//332 339//339
f 341//341 342//342 337//337
f 338//338 337//337 342//342
f 343//343 339//339 344//344
f 345//345 344//344 346//346
f 347//347 346//346 344//344
f 344//344 345//345 343//343
f 344//344 348//348 347//347
f 339//339 330//330 344//344
f 348//348 344//344 349//349
f 349//349 344//344 330//330
f 349//349 350//350 348//348
f 330//330 329//329 349//349
f 350//350 349//349 351//351
f 351//351 349//349 329//329
f 351//351 352//352 350//350
f 329//329 333//333 351//351
f 352//352 351//351 353//353
f 353//353 351//351 333//333
f 353//353 354//354 352//352
f 333//333 336//336 353//353
f 354//354 353//353 355//355
f 355//355 353//353 336//336
f 336//336 338//338 355//355
f 355//355 356//356 354//354
f 357//357 354//354 356//356
f 356//356 355//355 338//338
f 356//356 358//358 357//357
f 338//338 342//342 356//356
f 358//358 356//356 359//359
f 359//359 356//356 342//342
f 360//360 358//358 359//359
f 358//358 360//360 361//361
f 362//362 360//360 342//342
f 359//359 342//342 360//360
f 363//363 343//343 345//345
f 364//364 345//345 365//365
f 346//346 365//365 345//345
f 345//345 364//364 363//363
f 343//343 366//366 339//339
f 340//340 339//339 366//366
f 342//342 341//341 362//362
f 367//367 362//362 341//341
f 368//368 361//361 360//360
f 361//361 368//368 369//369
f 370//370 368//368 362//362
f 360//360 362//362 368//368
f 364//364 371//371 372//372
f 371//371 364//364 373//373
f 372//372 363//363 364//364
f 365//365 373//373 364//364
f 369//369 374//374 375//375
f 374//374 369//369 368//368
f 376//376 374//374 370//370
f 368//368 370//370 374//374
f 371//371 377//377 378//378
f 377//377 371//371 379//379
f 378//378 372//372 371//371
f 373//373 379//379 371//371
f 363//363 380//380 343//343
f 366//366 343//343 380//380
f 362//362 367//367 370//370
f 381//381 370//370 367//367
f 375//375 382//382 383//383
f 382//382 375//375 374//374
f 384//384 382//382 376//376
f 374//374 376//376 382//382
f 385//385 386//386 373//373
f 379//379 373//373 386//386
f 387//387 385//385 365//365
f 373//373 365//365 385//385
f 388//388 387//387 346//346
f 365//365 346//346 387//387
f 389//389 388//388 347//347
f 346//346 347//347 388//388
f 348//348 390//390 347//347
f 389//389 347//347 390//390
f 350//350 391//391 348//348
f 390//390 348//348 391//391
f 352//352 392//392 350//350
f 391//391 350//350 392//392
f 393//393 392//392 354//354
f 352//352 354//354 392//392
f 394//394 393//393 357//357
f 354//354 357//357 393//393
f 395//395 394//394 358//358
f 357//357 358//358 394//394
f 396//396 395//395 361//361
f 358//358 361//361 395//395
f 397//397 396//396 369//369
f 361//361 369//369 396//396
f 398//398 397//397 375//375
f 369//369 375//375 397//397
f 399//399 398//398 383//383
f 375//375 383//383 398//398
f 400//400 399//399 401//401
f 383//383 401//401 399//399
f 386//386 402//402 379//379
f 403//403 379//379 402//402
f 402//402 404//404 403//403
f 405//405 403//403 404//404
f 377//377 406//406 407//407
f 406//406 377//377 403//403
f 407//407 378//378 377//377
f 379//379 403//403 377//377
f 372//372 408//408 363//363
f 380//380 363//363 408//408
f 370//370 381//381 376//376
f 409//409 376//376 381//381
f 383//383 410//410 401//401
f 410//410 383//383 382//382
f 411//411 410//410 384//384
f 382//382 384//384 410//410
f 412//412 400//400 413//413
f 401//401 413//413 400//400
f 414//414 415//415 385//385
f 386//386 385//385 415//415
f 416//416 414//414 387//387
f 385//385 387//387 414//414
f 417//417 416//416 388//388
f 387//387 388//388 416//416
f 418//418 417//417 389//389
f 388//388 389//389 417//417
f 419//419 418//418 390//390
f 389//389 390//390 418//418
f 420//420 419//419 391//391
f 390//390 391//391 419//419
f 421//421 420//420 392//392
f 391//391 392//392 420//420
f 393//393 422//422 392//392
f 421//421 392//392 422//422
f 394//394 423//423 393//393
f 422//422 393//393 423//423
f 395//395 424//424 394//394
f 423//423 394//394 424//424
f 425//425 424//424 396//396
f 395//395 396//396 424//424
f 426//426 425//425 397//397
f 396//396 397//397 425//425
f 427//427 426//426 398//398
f 397//397 398//398 426//426
f 428//428 427//427 399//399
f 398//398 399//399 427//427
f 429//429 428//428 400//400
f 399//399 400//400 428//428
f 430//430 429//429 412//412
f 400//400 412//412 429//429
f 431//431 432//432 433//433
f 404//404 433//433 432//432
f 434//434 433//433 402//402
f 404//404 402//402 433//433
f 415//415 434//434 386//386
f 402//402 386//386 434//434
f 412//412 435//435 430//430
f 436//436 430//430 435//435
f 437//437 438//438 431//431
f 432//432 431//431 438//438
f 439//439 405//405 432//432
f 404//404 432//432 405//405
f 406//406 440//440 441//441
f 440//440 406//406 405//405
f 441//441 407//407 406//406
f 403//403 405//405 406//406
f 378//378 442//442 372//372
f 408//408 372//372 442//442
f 376//376 409//409 384//384
f 443//443 384//384 409//409
f 401//401 444//444 413//413
f 444//444 401//401 410//410
f 445//445 444//444 411//411
f 410//410 411//411 444//444
f 412//412 413//413 435//435
f 446//446 435//435 413//413
f 430//430 436//436 431//431
f 447//447 437//437 448//448
f 436//436 448//448 437//437
f 449//449 430//430 433//433
f 437//437 431//431 436//436
f 431//431 433//433 430//430
f 429//429 450//450 451//451
f 450//450 430//430 449//449
f 429//429 430//430 450//450
f 451//451 452//452 429//429
f 428//428 429//429 452//452
f 428//428 452//452 453//453
f 454//454 434//434 455//455
f 453//453 456//456 428//428
f 427//427 428//428 456//456
f 426//426 427//427 457//457
f 433//433 454//454 449//449
f 434//434 415//415 458//458
f 426//426 457//457 459//459
f 456//456 457//457 427//427
f 459//459 460//460 426//426
f 425//425 426//426 460//460
f 425//425 460//460 461//461
f 415//415 414//414 462//462
f 461//461 463//463 425//425
f 424//424 425//425 463//463
f 424//424 463//463 464//464
f 416//416 417//417 465//465
f 417//417 418//418 466//466
f 424//424 464//464 467//467
f 433//433 434//434 454//454
f 458//458 455//455 434//434
f 458//458 415//415 468//468
f 462//462 414//414 469//469
f 462//462 468//468 415//415
f 465//465 470//470 416//416
f 470//470 469//469 414//414
f 414//414 416//416 470//470
f 465//465 417//417 471//471
f 466//466 418//418 472//472
f 466//466 471//471 417//417
f 467//467 418//418 424//424
f 472//472 418//418 467//467
f 422//422 423//423 419//419
f 423//423 424//424 418//418
f 421//421 422//422 420//420
f 418//418 419//419 423//423
f 419//419 420//420 422//422
f 435//435 473//473 436//436
f 448//448 436//436 473//473
f 447//447 474//474 437//437
f 438//438 437//437 474//474
f 475//475 439//439 438//438
f 432//432 438//438 439//439
f 476//476 477//477 441//441
f 441//441 440//440 476//476
f 440//440 405//405 476//476
f 439//439 476//476 405//405
f 407//407 478//478 378//378
f 442//442 378//378 478//478
f 384//384 443//443 411//411
f 479//479 411//411 443//443
f 444//444 445//445 480//480
f 480//480 481//481 444//444
f 481//481 446//446 444//444
f 413//413 444//444 446//446
f 435//435 446//446 473//473
f 482//482 473//473 446//446
f 448//448 473//473 447//447
f 474//474 447//447 473//473
f 483//483 475//475 474//474
f 438//438 474//474 475//475
f 484//484 485//485 477//477
f 477//477 476//476 484//484
f 476//476 439//439 484//484
f 475//475 484//484 439//439
f 441//441 486//486 407//407
f 478//478 407//407 486//486
f 411//411 479//479 445//445
f 487//487 445//445 479//479
f 481//481 480//480 488//488
f 488//488 489//489 481//481
f 489//489 482//482 481//481
f 446//446 481//481 482//482
f 482//482 483//483 473//473
f 474//474 473//473 483//483
f 490//490 491//491 485//485
f 485//485 484//484 490//490
f 484//484 475//475 490//490
f 483//483 490//490 475//475
f 477//477 492//492 441//441
f 486//486 441//441 492//492
f 487//487 493//493 445//445
f 480//480 445//445 493//493
f 489//489 488//488 491//491
f 491//491 490//490 489//489
f 490//490 483//483 489//489
f 482//482 489//489 483//483
f 485//485 494//494 477//477
f 492//492 477//477 494//494
f 493//493 495//495 480//480
f 488//488 480//480 495//495
f 491//491 496//496 485//485
f 494//494 485//485 496//496
f 488//488 495//495 491//491
f 496//496 491//491 495//495
f 61//61 451//451 450//450
f 451//451 61//61 3//3
f 3//3 452//452 451//451
f 452//452 136//136 73//73
f 452//452 3//3 136//136
f 27//27 450//450 449//449
f 450//450 41//41 61//61
f 450//450 27//27 41//41
f 73//73 152//152 452//452
f 453//453 452//452 152//152
f 30//30 449//449 454//454
f 449//449 30//30 27//27
f 154//154 88//88 453//453
f 152//152 154//154 453//453
f 456//456 453//453 88//88
f 63//63 454//454 455//455
f 454//454 63//63 30//30
f 457//457 456//456 148//148
f 202//202 148//148 456//456
f 204//204 202//202 456//456
f 88//88 204//204 456//456
f 12//12 455//455 458//458
f 455//455 12//12 63//63
f 148//148 20//20 457//457
f 459//459 457//457 20//20
f 12//12 468//468 89//89
f 468//468 12//12 458//458
f 20//20 143//143 459//459
f 460//460 459//459 143//143
f 89//89 462//462 94//94
f 462//462 89//89 468//468
f 143//143 60//60 460//460
f 461//461 460//460 60//60
f 94//94 469//469 9//9
f 469//469 94//94 462//462
f 82//82 463//463 60//60
f 461//461 60//60 463//463
f 9//9 470//470 212//212
f 470//470 9//9 469//469
f 85//85 464//464 38//38
f 463//463 82//82 464//464
f 82//82 38//38 464//464
f 212//212 465//465 222//222
f 465//465 212//212 470//470
f 85//85 184//184 467//467
f 13//13 467//467 184//184
f 464//464 85//85 467//467
f 471//471 222//222 465//465
f 232//232 471//471 187//187
f 222//222 471//471 232//232
f 15//15 472//472 13//13
f 467//467 13//13 472//472
f 49//49 51//51 471//471
f 187//187 471//471 51//51
f 466//466 49//49 471//471
f 49//49 466//466 15//15
f 472//472 15//15 466//466
f 327//327 323//323 497//497
f 498//498 497//497 323//323
f 319//319 327//327 499//499
f 497//497 499//499 327//327
f 319//319 499//499 311//311
f 500//500 311//311 499//499
f 311//311 500//500 303//303
f 501//501 303//303 500//500
f 303//303 501//501 295//295
f 502//502 295//295 501//501
f 295//295 502//502 287//287
f 503//503 287//287 502//502
f 287//287 503//503 279//279
f 504//504 279//279 503//503
f 279//279 504//504 272//272
f 505//505 272//272 504//504
f 272//272 505//505 264//264
f 506//506 264//264 505//505
f 264//264 506//506 256//256
f 507//507 256//256 506//506
f 507//507 508//508 256//256
f 248//248 256//256 508//508
f 508//508 509//509 248//248
f 240//240 248//248 509//509
f 509//509 510//510 240//240
f 233//233 240//240 510//510
f 511//511 299//299 512//512
f 292//292 512//512 299//299
f 513//513 307//307 511//511
f 299//299 511//511 307//307
f 514//514 315//315 513//513
f 307//307 513//513 315//315
f 323//323 315//315 498//498
f 514//514 498//498 315//315
f 510//510 515//515 233//233
f 241//241 233//233 515//515
f 284//284 516//516 292//292
f 512//512 292//292 516//516
f 498//498 517//517 497//497
f 517//517 498//498 518//518
f 497//497 519//519 499//499
f 519//519 497//497 517//517
f 519//519 500//500 499//499
f 500//500 519//519 520//520
f 520//520 501//501 500//500
f 501//501 520//520 521//521
f 521//521 502//502 501//501
f 502//502 521//521 522//522
f 522//522 503//503 502//502
f 503//503 522//522 523//523
f 523//523 504//504 503//503
f 504//504 523//523 524//524
f 524//524 505//505 504//504
f 505//505 524//524 525//525
f 525//525 506//506 505//505
f 506//506 525//525 526//526
f 526//526 507//507 506//506
f 507//507 526//526 527//527
f 528//528 507//507 527//527
f 507//507 528//528 508//508
f 529//529 508//508 528//528
f 508//508 529//529 509//509
f 530//530 509//509 529//529
f 509//509 530//530 510//510
f 511//511 531//531 532//532
f 531//531 511//511 512//512
f 513//513 532//532 533//533
f 532//532 513//513 511//511
f 514//514 533//533 534//534
f 533//533 514//514 513//513
f 514//514 518//518 498//498
f 518//518 514//514 534//534
f 535//535 510//510 530//530
f 510//510 535//535 515//515
f 241//241 515//515 252//252
f 536//536 252//252 515//515
f 276//276 537//537 284//284
f 516//516 284//284 537//537
f 538//538 512//512 516//516
f 512//512 538//538 531//531
f 518//518 539//539 517//517
f 539//539 518//518 540//540
f 517//517 541//541 519//519
f 541//541 517//517 539//539
f 541//541 520//520 519//519
f 520//520 541//541 542//542
f 542//542 521//521 520//520
f 521//521 542//542 543//543
f 543//543 522//522 521//521
f 522//522 543//543 544//544
f 544//544 523//523 522//522
f 523//523 544//544 545//545
f 545//545 524//524 523//523
f 524//524 545//545 546//546
f 546//546 525//525 524//524
f 525//525 546//546 547//547
f 547//547 526//526 525//525
f 526//526 547//547 548//548
f 548//548 527//527 526//526
f 527//527 548//548 549//549
f 550//550 527//527 549//549
f 527//527 550//550 528//528
f 551//551 528//528 550//550
f 528//528 551//551 529//529
f 552//552 529//529 551//551
f 529//529 552//552 530//530
f 532//532 553//553 554//554
f 553//553 532//532 531//531
f 533//533 554//554 555//555
f 554//554 533//533 532//532
f 534//534 555//555 556//556
f 555//555 534//534 533//533
f 534//534 540//540 518//518
f 540//540 534//534 556//556
f 557//557 530//530 552//552
f 530//530 557//557 535//535
f 535//535 536//536 515//515
f 536//536 535//535 558//558
f 252//252 536//536 260//260
f 559//559 260//260 536//536
f 268//268 560//560 276//276
f 537//537 276//276 560//560
f 561//561 516//516 537//537
f 516//516 561//561 538//538
f 562//562 531//531 538//538
f 531//531 562//562 553//553
f 563//563 564//564 540//540
f 539//539 540//540 564//564
f 564//564 565//565 539//539
f 541//541 539//539 565//565
f 566//566 542//542 565//565
f 541//541 565//565 542//542
f 567//567 543//543 566//566
f 542//542 566//566 543//543
f 568//568 544//544 567//567
f 543//543 567//567 544//544
f 569//569 545//545 568//568
f 544//544 568//568 545//545
f 570//570 546//546 569//569
f 545//545 569//569 546//546
f 571//571 547//547 570//570
f 546//546 570//570 547//547
f 572//572 548//548 571//571
f 547//547 571//571 548//548
f 548//548 572//572 573//573
f 573//573 549//549 548//548
f 574//574 550//550 573//573
f 549//549 573//573 550//550
f 550//550 574//574 575//575
f 575//575 551//551 550//550
f 576//576 552//552 575//575
f 551//551 575//575 552//552
f 577//577 578//578 553//553
f 554//554 553//553 578//578
f 578//578 579//579 554//554
f 555//555 554//554 579//579
f 579//579 580//580 555//555
f 556//556 555//555 580//580
f 540//540 580//580 563//563
f 580//580 540//540 556//556
f 260//260 559//559 268//268
f 560//560 268//268 559//559
f 581//581 557//557 576//576
f 552//552 576//576 557//557
f 557//557 558//558 535//535
f 558//558 557//557 582//582
f 558//558 559//559 536//536
f 559//559 558//558 583//583
f 584//584 537//537 560//560
f 537//537 584//584 561//561
f 585//585 538//538 561//561
f 538//538 585//585 562//562
f 553//553 562//562 586//586
f 586//586 577//577 553//553
f 564//564 587//587 588//588
f 587//587 564//564 563//563
f 565//565 588//588 589//589
f 588//588 565//565 564//564
f 589//589 566//566 565//565
f 566//566 589//589 590//590
f 590//590 567//567 566//566
f 567//567 590//590 591//591
f 591//591 568//568 567//567
f 568//568 591//591 592//592
f 592//592 569//569 568//568
f 569//569 592//592 593//593
f 593//593 570//570 569//569
f 570//570 593//593 594//594
f 594//594 571//571 570//570
f 571//571 594//594 595//595
f 596//596 571//571 595//595
f 571//571 596//596 572//572
f 597//597 572//572 596//596
f 572//572 597//597 573//573
f 597//597 574//574 573//573
f 574//574 597//597 598//598
f 598//598 575//575 574//574
f 575//575 598//598 599//599
f 599//599 576//576 575//575
f 576//576 599//599 600//600
f 577//577 601//601 578//578
f 601//601 577//577 602//602
f 578//578 603//603 579//579
f 603//603 578//578 601//601
f 579//579 604//604 580//580
f 604//604 579//579 603//603
f 563//563 604//604 587//587
f 604//604 563//563 580//580
f 600//600 581//581 576//576
f 581//581 600//600 605//605
f 583//583 560//560 559//559
f 560//560 583//583 584//584
f 582//582 557//557 581//581
f 581//581 606//606 582//582
f 582//582 583//583 558//558
f 583//583 582//582 607//607
f 608//608 561//561 584//584
f 561//561 608//608 585//585
f 562//562 585//585 609//609
f 609//609 586//586 562//562
f 610//610 577//577 586//586
f 577//577 610//610 602//602
f 588//588 322//322 326//326
f 322//322 588//588 587//587
f 589//589 326//326 318//318
f 326//326 589//589 588//588
f 318//318 590//590 589//589
f 590//590 318//318 310//310
f 310//310 591//591 590//590
f 591//591 310//310 302//302
f 302//302 592//592 591//591
f 592//592 302//302 294//294
f 294//294 593//593 592//592
f 593//593 294//294 286//286
f 286//286 594//594 593//593
f 594//594 286//286 278//278
f 278//278 595//595 594//594
f 595//595 278//278 270//270
f 262//262 595//595 270//270
f 595//595 262//262 596//596
f 254//254 596//596 262//262
f 596//596 254//254 597//597
f 254//254 598//598 597//597
f 598//598 254//254 246//246
f 246//246 599//599 598//598
f 599//599 246//246 236//236
f 236//236 600//600 599//599
f 600//600 236//236 239//239
f 602//602 298//298 601//601
f 298//298 602//602 289//289
f 601//601 306//306 603//603
f 306//306 601//601 298//298
f 603//603 314//314 604//604
f 314//314 603//603 306//306
f 587//587 314//314 322//322
f 314//314 587//587 604//604
f 239//239 605//605 600//600
f 605//605 239//239 244//244
f 605//605 606//606 581//581
f 606//606 605//605 611//611
f 607//607 584//584 583//583
f 584//584 607//607 608//608
f 607//607 582//582 606//606
f 606//606 612//612 607//607
f 585//585 608//608 613//613
f 613//613 609//609 585//585
f 614//614 586//586 609//609
f 586//586 614//614 610//610
f 281//281 602//602 610//610
f 602//602 281//281 289//289
f 244//244 611//611 605//605
f 611//611 244//244 249//249
f 611//611 612//612 606//606
f 612//612 611//611 615//615
f 608//608 607//607 612//612
f 612//612 613//613 608//608
f 616//616 609//609 613//613
f 609//609 616//616 614//614
f 273//273 610//610 614//614
f 610//610 273//273 281//281
f 321//321 617//617 325//325
f 617//617 321//321 618//618
f 325//325 619//619 317//317
f 619//619 325//325 617//617
f 619//619 309//309 317//317
f 309//309 619//619 620//620
f 620//620 301//301 309//309
f 301//301 620//620 621//621
f 621//621 293//293 301//301
f 293//293 621//621 622//622
f 622//622 285//285 293//293
f 285//285 622//622 623//623
f 623//623 277//277 285//285
f 277//277 623//623 624//624
f 624//624 271//271 277//277
f 271//271 624//624 625//625
f 625//625 263//263 271//271
f 263//263 625//625 626//626
f 626//626 255//255 263//263
f 255//255 626//626 627//627
f 628//628 255//255 627//627
f 255//255 628//628 247//247
f 629//629 247//247 628//628
f 247//247 629//629 237//237
f 630//630 237//237 629//629
f 237//237 630//630 238//238
f 631//631 238//238 630//630
f 238//238 631//631 243//243
f 632//632 290//290 282//282
f 290//290 632//632 633//633
f 297//297 633//633 634//634
f 633//633 297//297 290//290
f 305//305 634//634 635//635
f 634//634 305//305 297//297
f 313//313 635//635 636//636
f 635//635 313//313 305//305
f 313//313 618//618 321//321
f 618//618 313//313 636//636
f 631//631 250//250 243//243
f 250//250 631//631 637//637
f 638//638 282//282 274//274
f 282//282 638//638 632//632
f 249//249 615//615 611//611
f 615//615 249//249 257//257
f 615//615 613//613 612//612
f 613//613 615//615 616//616
f 265//265 614//614 616//616
f 614//614 265//265 273//273
f 625//625 630//630 626//626
f 628//628 627//627 629//629
f 626//626 629//629 627//627
f 624//624 631//631 625//625
f 629//629 626//626 630//630
f 623//623 637//637 624//624
f 630//630 625//625 631//631
f 622//622 639//639 623//623
f 631//631 624//624 637//637
f 621//621 640//640 622//622
f 637//637 623//623 639//639
f 620//620 638//638 621//621
f 639//639 622//622 640//640
f 619//619 632//632 620//620
f 640//640 621//621 638//638
f 617//617 633//633 619//619
f 638//638 620//620 632//632
f 618//618 634//634 617//617
f 632//632 619//619 633//633
f 636//636 635//635 618//618
f 633//633 617//617 634//634
f 634//634 618//618 635//635
f 637//637 258//258 250//250
f 258//258 637//637 639//639
f 640//640 274//274 266//266
f 274//274 640//640 638//638
f 257//257 616//616 615//615
f 616//616 257//257 265//265
f 639//639 266//266 258//258
f 266//266 639//639 640//640
f 641//641 492//492 494//494
f 492//492 641//641 642//642
f 642//642 486//486 492//492
f 486//486 642//642 643//643
f 644//644 494//494 496//496
f 494//494 644//644 641//641
f 645//645 642//642 641//641
f 642//642 645//645 646//646
f 646//646 643//643 642//642
f 643//643 646//646 647//647
f 643//643 478//478 486//486
f 478//478 643//643 648//648
f 649//649 496//496 495//495
f 496//496 649//649 644//644
f 650//650 641//641 644//644
f 641//641 650//650 645//645
f 651//651 646//646 645//645
f 646//646 651//651 652//652
f 652//652 647//647 646//646
f 647//647 652//652 653//653
f 647//647 648//648 643//643
f 648//648 647//647 654//654
f 648//648 442//442 478//478
f 442//442 648//648 655//655
f 649//649 493//493 656//656
f 493//493 649//649 495//495
f 657//657 644//644 649//649
f 644//644 657//657 650//650
f 658//658 645//645 650//650
f 645//645 658//658 651//651
f 659//659 652//652 651//651
f 652//652 659//659 660//660
f 660//660 653//653 652//652
f 653//653 660//660 661//661
f 653//653 654//654 647//647
f 654//654 653//653 662//662
f 654//654 655//655 648//648
f 655//655 654//654 663//663
f 655//655 408//408 442//442
f 408//408 655//655 664//664
f 656//656 487//487 665//665
f 487//487 656//656 493//493
f 657//657 656//656 666//666
f 656//656 657//657 649//649
f 667//667 650//650 657//657
f 650//650 667//667 658//658
f 668//668 651//651 658//658
f 651//651 668//668 659//659
f 669//669 660//660 659//659
f 660//660 669//669 670//670
f 670//670 661//661 660//660
f 661//661 670//670 671//671
f 661//661 662//662 653//653
f 662//662 661//661 672//672
f 662//662 663//663 654//654
f 663//663 662//662 673//673
f 663//663 664//664 655//655
f 664//664 663//663 674//674
f 664//664 380//380 408//408
f 380//380 664//664 675//675
f 676//676 487//487 479//479
f 487//487 676//676 665//665
f 666//666 665//665 677//677
f 665//665 666//666 656//656
f 667//667 666//666 678//678
f 666//666 667//667 657//657
f 679//679 658//658 667//667
f 658//658 679//679 668//668
f 680//680 659//659 668//668
f 659//659 680//680 669//669
f 669//669 235//235 670//670
f 234//234 670//670 235//235
f 670//670 234//234 671//671
f 242//242 671//671 234//234
f 671//671 672//672 661//661
f 672//672 671//671 681//681
f 672//672 673//673 662//662
f 673//673 672//672 682//682
f 673//673 674//674 663//663
f 674//674 673//673 683//683
f 674//674 675//675 664//664
f 675//675 674//674 684//684
f 675//675 366//366 380//380
f 366//366 675//675 685//685
f 686//686 479//479 443//443
f 479//479 686//686 676//676
f 687//687 665//665 676//676
f 665//665 687//687 677//677
f 678//678 677//677 688//688
f 677//677 678//678 666//666
f 679//679 678//678 689//689
f 678//678 679//679 667//667
f 690//690 668//668 679//679
f 668//668 690//690 680//680
f 680//680 245//245 669//669
f 235//235 669//669 245//245
f 671//671 242//242 681//681
f 251//251 681//681 242//242
f 681//681 682//682 672//672
f 682//682 681//681 691//691
f 682//682 683//683 673//673
f 683//683 682//682 692//692
f 683//683 684//684 674//674
f 684//684 683//683 693//693
f 684//684 685//685 675//675
f 685//685 684//684 694//694
f 685//685 340//340 366//366
f 340//340 685//685 695//695
f 696//696 443//443 409//409
f 443//443 696//696 686//686
f 697//697 676//676 686//686
f 676//676 697//697 687//687
f 698//698 677//677 687//687
f 677//677 698//698 688//688
f 689//689 688//688 699//699
f 688//688 689//689 678//678
f 690//690 689//689 700//700
f 689//689 690//690 679//679
f 690//690 253//253 680//680
f 245//245 680//680 253//253
f 681//681 251//251 691//691
f 259//259 691//691 251//251
f 691//691 692//692 682//682
f 692//692 691//691 701//701
f 692//692 693//693 683//683
f 693//693 692//692 702//702
f 693//693 694//694 684//684
f 694//694 693//693 703//703
f 694//694 695//695 685//685
f 695//695 694//694 704//704
f 340//340 705//705 332//332
f 705//705 340//340 695//695
f 706//706 409//409 381//381
f 409//409 706//706 696//696
f 707//707 686//686 696//696
f 686//686 707//707 697//697
f 708//708 687//687 697//697
f 687//687 708//708 698//698
f 709//709 688//688 698//698
f 688//688 709//709 699//699
f 700//700 699//699 710//710
f 699//699 700//700 689//689
f 261//261 253//253 700//700
f 690//690 700//700 253//253
f 691//691 259//259 701//701
f 267//267 701//701 259//259
f 701//701 702//702 692//692
f 702//702 701//701 711//711
f 702//702 703//703 693//693
f 703//703 702//702 712//712
f 703//703 704//704 694//694
f 704//704 703//703 713//713
f 695//695 714//714 705//705
f 714//714 695//695 704//704
f 332//332 715//715 331//331
f 715//715 332//332 705//705
f 716//716 381//381 367//367
f 381//381 716//716 706//706
f 717//717 696//696 706//706
f 696//696 717//717 707//707
f 718//718 697//697 707//707
f 697//697 718//718 708//708
f 719//719 698//698 708//708
f 698//698 719//719 709//709
f 720//720 699//699 709//709
f 699//699 720//720 710//710
f 269//269 261//261 710//710
f 700//700 710//710 261//261
f 701//701 267//267 711//711
f 275//275 711//711 267//267
f 711//711 712//712 702//702
f 712//712 711//711 721//721
f 712//712 713//713 703//703
f 713//713 712//712 722//722
f 704//704 723//723 714//714
f 723//723 704//704 713//713
f 705//705 724//724 715//715
f 724//724 705//705 714//714
f 331//331 725//725 334//334
f 725//725 331//331 715//715
f 726//726 367//367 341//341
f 367//367 726//726 716//716
f 727//727 706//706 716//716
f 706//706 727//727 717//717
f 728//728 707//707 717//717
f 707//707 728//728 718//718
f 729//729 708//708 718//718
f 708//708 729//729 719//719
f 730//730 709//709 719//719
f 709//709 730//730 720//720
f 720//720 280//280 710//710
f 269//269 710//710 280//280
f 711//711 275//275 721//721
f 283//283 721//721 275//275
f 721//721 722//722 712//712
f 722//722 721//721 731//731
f 335//335 725//725 732//732
f 725//725 335//335 334//334
f 713//713 733//733 723//723
f 733//733 713//713 722//722
f 714//714 734//734 724//724
f 734//734 714//714 723//723
f 715//715 735//735 725//725
f 735//735 715//715 724//724
f 341//341 736//736 726//726
f 736//736 341//341 337//337
f 737//737 716//716 726//726
f 716//716 737//737 727//727
f 738//738 717//717 727//727
f 717//717 738//738 728//728
f 739//739 718//718 728//728
f 718//718 739//739 729//729
f 740//740 719//719 729//729
f 719//719 740//740 730//730
f 730//730 288//288 720//720
f 280//280 720//720 288//288
f 721//721 283//283 731//731
f 291//291 731//731 283//283
f 722//722 741//741 733//733
f 741//741 722//722 731//731
f 337//337 732//732 736//736
f 732//732 337//337 335//335
f 732//732 735//735 742//742
f 735//735 732//732 725//725
f 723//723 743//743 734//734
f 743//743 723//723 733//733
f 724//724 744//744 735//735
f 744//744 724//724 734//734
f 726//726 745//745 737//737
f 745//745 726//726 736//736
f 746//746 727//727 737//737
f 727//727 746//746 738//738
f 747//747 728//728 738//738
f 728//728 747//747 739//739
f 748//748 729//729 739//739
f 729//729 748//748 740//740
f 740//740 296//296 730//730
f 288//288 730//730 296//296
f 741//741 731//731 300//300
f 291//291 300//300 731//731
f 733//733 749//749 743//743
f 749//749 733//733 741//741
f 736//736 742//742 745//745
f 742//742 736//736 732//732
f 742//742 744//744 750//750
f 744//744 742//742 735//735
f 734//734 751//751 744//744
f 751//751 734//734 743//743
f 737//737 752//752 746//746
f 752//752 737//737 745//745
f 753//753 738//738 746//746
f 738//738 753//753 747//747
f 754//754 739//739 747//747
f 739//739 754//754 748//748
f 748//748 304//304 740//740
f 296//296 740//740 304//304
f 749//749 741//741 308//308
f 300//300 308//308 741//741
f 743//743 755//755 751//751
f 755//755 743//743 749//749
f 745//745 750//750 752//752
f 750//750 745//745 742//742
f 750//750 751//751 756//756
f 751//751 750//750 744//744
f 746//746 757//757 753//753
f 757//757 746//746 752//752
f 758//758 747//747 753//753
f 747//747 758//758 754//754
f 754//754 312//312 748//748
f 304//304 748//748 312//312
f 755//755 749//749 316//316
f 308//308 316//316 749//749
f 756//756 755//755 759//759
f 755//755 756//756 751//751
f 752//752 756//756 757//757
f 756//756 752//752 750//750
f 753//753 760//760 758//758
f 760//760 753//753 757//757
f 758//758 320//320 754//754
f 312//312 754//754 320//320
f 324//324 759//759 316//316
f 755//755 316//316 759//759
f 757//757 759//759 760//760
f 759//759 757//757 756//756
f 320//320 758//758 328//328
f 760//760 328//328 758//758
f 328//328 760//760 324//324
f 759//759 324//324 760//760