# https://github.com/mikedh/trimesh
v -0.04472300 -0.02480500 -0.07041500
v -0.03908300 -0.02482900 -0.07059200
v -0.00032800 -0.04956800 -0.07037500
v -0.03816600 -0.03355300 -0.06941800
v -0.01312000 -0.04703300 -0.07058300
v -0.01058500 -0.04956800 -0.07309700
v -0.01300900 -0.03379300 -0.07010300
v -0.05070100 -0.00860700 -0.06964200
v -0.04222600 -0.02842300 -0.04720500
v -0.03985500 -0.03074900 -0.03771700
v -0.03342500 -0.03823100 -0.04720600
v -0.02654200 -0.04300800 -0.04144800
v -0.01473700 -0.04780300 -0.02682100
v -0.04716400 -0.01962600 -0.03977600
v -0.03206800 -0.03919700 -0.02473900
v -0.04981500 -0.01182200 -0.01597300
v -0.05151600 0.00095400 -0.02482900
v -0.04810600 -0.01785900 -0.07285500
v -0.03154300 -0.04029800 -0.07288900
v -0.02766300 -0.03988400 -0.07002600
v -0.02406200 -0.04409000 -0.06976300
v -0.04860800 -0.00114400 -0.07004100
v 0.01103600 -0.04811500 -0.07244900
v 0.03583400 -0.03321200 -0.07197100
v 0.02964200 -0.03196200 -0.07078400
v -0.00057500 -0.04942300 -0.03292400
v 0.02449000 -0.04224900 -0.02838900
v 0.03380200 -0.03514000 -0.01854000
v 0.01505200 -0.04682100 -0.02512400
v 0.01634700 -0.04627900 0.00954900
v 0.02601100 -0.04143600 -0.00369700
v 0.03915300 -0.02916900 0.00659800
v 0.02228300 -0.04369800 -0.07165000
v 0.00603700 -0.02639100 -0.06961500
v 0.02946500 0.00647700 -0.06986200
v -0.05124000 0.00357100 -0.07223200
v -0.03246000 -0.00758200 -0.06967000
v -0.04108000 0.03082700 -0.04381600
v -0.05005200 0.01117400 -0.04389400
v -0.03333600 0.03897800 -0.05946000
v -0.02446100 0.04491600 -0.07070500
v -0.01193100 0.02679000 -0.06969200
v -0.03312400 0.03925500 -0.02253000
v -0.04398900 0.02667000 -0.02192500
v -0.02609200 0.04418900 -0.03098300
v -0.01324100 0.04922300 -0.04051400
v -0.00382100 0.05150600 -0.07357300
v -0.00273500 0.04690900 -0.07065400
v 0.01912300 0.04614600 -0.07352600
v 0.01766200 0.04159200 -0.07087000
v 0.00745000 0.05050700 -0.04108900
v -0.05001800 0.01238100 -0.07255300
v -0.04400500 0.01961300 -0.07078600
v -0.04828200 0.01882600 -0.07225400
v -0.03079500 0.04187400 -0.07336400
v 0.01868100 0.04619500 -0.01693700
v 0.04307900 -0.02174300 -0.07110100
v 0.04820100 -0.00192500 -0.03844800
v 0.04721500 0.01228600 -0.07046500
v 0.04445900 0.02036900 -0.07059400
v 0.03574800 0.03398300 -0.07269100
v 0.04701300 0.01133000 -0.02974300
v 0.04391800 -0.02197400 -0.03306800
v 0.04359800 -0.02114600 -0.00806900
v 0.04220300 0.02417000 -0.02407900
v 0.04750900 -0.00958500 -0.01250900
v 0.04775100 -0.00726500 0.01768600
v 0.04841200 0.00445600 -0.00843900
v 0.04749900 0.01088700 0.00933400
v 0.02763200 0.04116000 -0.03875200
v 0.03587400 0.03363200 -0.03946600
v 0.04897900 -0.00480100 -0.07236600
v -0.02121400 -0.04533900 0.02929200
v -0.01725800 -0.04719600 0.03630000
v -0.03185400 -0.03887500 0.03089600
v -0.04214900 -0.02874600 -0.00747400
v -0.03011700 -0.04060200 0.00485700
v -0.04383800 -0.02635100 0.01496800
v -0.04949700 -0.01302700 0.01889700
v -0.05136500 0.00495800 -0.00710200
v -0.04534100 -0.02369400 0.03082100
v -0.03804700 -0.03382000 0.04594100
v -0.05086100 -0.00646500 0.03173000
v -0.05144100 0.00240700 0.05653600
v -0.05058400 -0.01514200 0.06567200
v -0.05011800 -0.01099700 0.05800200
v -0.04541600 0.02469600 0.05226900
v -0.04206800 -0.00640100 0.06369800
v -0.03436500 0.02834700 0.06353800
v -0.05151000 0.01178500 0.06564700
v -0.03709600 0.03777600 0.06575100
v -0.05133800 0.00335900 0.01599200
v -0.04347400 -0.02693700 0.06526100
v -0.00535700 -0.04939300 0.02851100
v -0.02775200 -0.04278300 0.06604900
v -0.01444500 -0.04820900 0.06519500
v 0.00187400 -0.04949000 0.05607500
v -0.00108900 -0.05077800 0.06430500
v -0.00921600 -0.04518500 0.06522500
v 0.00359900 -0.04933000 0.00094600
v 0.00918900 -0.04834000 0.03666300
v 0.02290300 -0.04338600 0.02122300
v 0.03528000 -0.03309900 0.01894000
v 0.04342700 -0.02129300 0.01699700
v 0.02078800 -0.04440400 0.05715400
v 0.01085200 -0.04935000 0.06514700
v 0.03931400 -0.02843200 0.05784300
v 0.03213500 -0.03664300 0.04680300
v 0.04129600 -0.02817200 0.06573500
v 0.04668200 -0.01302700 0.04866700
v 0.04471400 -0.01862700 0.05768900
v 0.01653200 -0.03669200 0.06388400
v 0.04781100 -0.01408900 0.06550800
v 0.05055100 0.00013500 0.06566700
v -0.02779000 -0.03121600 0.06383700
v -0.00668100 -0.01452200 0.06444700
v 0.03413900 -0.01604700 0.06350400
v -0.01404700 -0.04784200 -0.00713400
v 0.02625100 -0.04276600 0.06579200
v -0.04879200 0.01638100 -0.01726300
v -0.04652800 0.02256000 0.01092900
v 0.00383100 0.05034700 -0.02399900
v -0.01134700 0.04964800 -0.00793900
v -0.04986500 0.01276500 0.04971400
v -0.03650900 0.03637700 0.01026500
v -0.01218500 0.04915900 0.04287200
v -0.03769900 0.03500200 0.05762100
v -0.02506500 0.04488600 0.05718200
v -0.00406700 0.05063900 0.01724200
v -0.02030100 0.04703900 -0.00375400
v -0.01586100 0.04952100 0.06560400
v 0.03126600 0.03778700 0.00101800
v 0.03911100 0.02934300 0.00290200
v 0.04489700 0.01840200 0.01818900
v 0.01638200 0.04738900 0.00570800
v 0.01011000 0.04935800 0.02305000
v 0.02752400 0.04159600 0.02529200
v 0.03840500 0.03126200 0.02812400
v 0.03407900 0.03607400 0.05477500
v 0.04759600 0.00908700 0.03096000
v 0.04863300 0.00187200 0.05779200
v 0.00610300 0.00609200 0.06422100
v -0.00204300 0.04210200 0.06351300
v 0.03532800 0.02284200 0.06374700
v 0.04421500 0.02444200 0.06571300
v -0.00201800 0.05077400 0.06279000
v 0.00635000 0.05008500 0.05696500
v 0.01562700 0.04865000 0.06611100
v 0.02914800 0.04188400 0.06591600
v 0.04672200 0.01474600 0.06570700
v 0.04242400 0.02469800 0.05699500
v 0.02294800 0.04461700 0.05539000
vn -0.63313888 -0.38547072 -0.67122834
vn -0.00553902 -0.01124179 -0.99992147
vn 0.05212390 -0.73611365 -0.67484798
vn -0.73526125 -0.66942978 -0.10608798
vn 0.09199153 0.43951703 -0.89351124
vn -0.05719696 -0.36788452 -0.92811071
vn 0.01124252 0.03847292 -0.99919640
vn -0.97494859 -0.15342398 -0.16104762
vn -0.81457306 -0.57955371 0.02425348
vn -0.76861083 -0.63958381 0.01303617
vn -0.65386088 -0.75557282 0.03969465
vn -0.50867442 -0.86076401 0.01832066
vn -0.27759400 -0.96052237 0.01839442
vn -0.90685292 -0.42138197 0.00741738
vn -0.60177314 -0.79866563 -0.00151669
vn -0.96448073 -0.26404119 0.00769272
vn -0.99983682 0.01771390 0.00354190
vn -0.30634978 -0.28681560 -0.90768201
vn -0.30522136 -0.49534660 -0.81330909
vn 0.18910741 0.36057795 -0.91335750
vn -0.40870272 -0.89366688 -0.18526089
vn 0.38294787 0.03910680 -0.92294181
vn 0.06129122 -0.41483859 -0.90782836
vn 0.49358473 -0.43306118 -0.75420961
vn -0.09170569 0.09984067 -0.99076834
vn 0.02802989 -0.99954888 0.01078721
vn 0.52269654 -0.85250346 -0.00511662
vn 0.71595529 -0.69814033 0.00284585
vn 0.31122307 -0.95032711 -0.00431076
vn 0.33710217 -0.94145798 -0.00435919
vn 0.56036777 -0.82822401 0.00574100
vn 0.79528071 -0.60616918 0.00935489
vn 0.32544377 -0.60064146 -0.73028500
vn -0.01541356 0.05578364 -0.99832390
vn -0.03878499 0.00216630 -0.99924523
vn -0.51659937 -0.01345266 -0.85612156
vn 0.05636251 0.00795390 -0.99837869
vn -0.77417459 0.63295402 -0.00478643
vn -0.97157294 0.23649247 0.01083214
vn -0.64065570 0.76758765 0.01922175
vn -0.27174164 0.67316774 -0.68775117
vn 0.00785867 -0.02679417 -0.99961008
vn -0.65303271 0.75731408 -0.00486513
vn -0.84720661 0.53120964 -0.00756835
vn -0.49902575 0.86656524 -0.00616417
vn -0.22395717 0.97456131 0.00856944
vn -0.06956601 0.55464179 -0.82917613
vn -0.03475694 -0.32623497 -0.94464951
vn 0.25056357 0.50376303 -0.82670473
vn -0.12416761 -0.26586141 -0.95598123
vn 0.18487340 0.98270049 0.01102649
vn -0.54549599 0.08725251 -0.83355931
vn 0.22960410 -0.14858241 -0.96187589
vn -0.56187941 0.29072054 -0.77445019
vn -0.18075232 0.49559173 -0.84953955
vn 0.41473047 0.90993704 0.00363726
vn 0.63606550 -0.31446988 -0.70464841
vn 0.99844812 -0.05521466 0.00725938
vn 0.71329719 0.18550236 -0.67586685
vn 0.66412588 0.29477121 -0.68705659
vn 0.48214900 0.37758490 -0.79054537
vn 0.97256902 0.23242509 0.00938487
vn 0.90403968 -0.42743139 0.00382822
vn 0.90136677 -0.43305254 0.00185674
vn 0.89595056 0.44412187 0.00532546
vn 0.98133652 -0.19225029 0.00429667
vn 0.98982531 -0.14227534 -0.00189137
vn 0.99496227 0.10001913 -0.00680110
vn 0.97666894 0.21474366 -0.00171450
vn 0.56442496 0.82547884 0.00302629
vn 0.75863870 0.65148927 0.00538943
vn 0.69282771 -0.07226780 -0.71747273
vn -0.40889306 -0.91255689 0.00681048
vn -0.33039488 -0.94315930 -0.03591323
vn -0.62751844 -0.77854601 -0.00931267
vn -0.81723905 -0.57629780 0.00108805
vn -0.57642412 -0.81714894 -0.00168692
vn -0.83408164 -0.55163732 0.00201961
vn -0.96584885 -0.25909540 -0.00236104
vn -0.99622610 0.08633134 0.00896961
vn -0.87236713 -0.48884274 -0.00289218
vn -0.72910026 -0.68424823 -0.01473674
vn -0.98554055 -0.16938418 -0.00433781
vn -0.99984748 0.00138712 -0.01740974
vn -0.72486516 -0.28409132 0.62758475
vn -0.96791066 -0.23950891 -0.07605545
vn -0.87366264 0.48653096 -0.00110544
vn 0.10336278 0.01847449 0.99447214
vn 0.11575099 -0.09393017 0.98882700
vn -0.69813532 0.16213148 0.69736680
vn -0.51862593 0.51506345 0.68244911
vn -0.99801705 0.06218380 -0.00975364
vn -0.58109038 -0.40460726 0.70613521
vn -0.08233657 -0.99658056 -0.00691924
vn -0.38026309 -0.56023417 0.73589242
vn -0.15537486 -0.74097121 0.65331487
vn 0.07205114 -0.99515146 -0.06694923
vn -0.07107749 -0.85852874 0.50781531
vn 0.02871298 0.01184224 0.99951755
vn 0.08107881 -0.99669734 -0.00454294
vn 0.21356606 -0.97692858 0.00028051
vn 0.50259948 -0.86450858 0.00432172
vn 0.73380133 -0.67934045 0.00567016
vn 0.90499053 -0.42537404 0.00700514
vn 0.40175591 -0.91268254 -0.07485166
vn 0.20579882 -0.74299930 0.63686646
vn 0.85355642 -0.50548354 -0.12620551
vn 0.66797143 -0.74393403 -0.01939912
vn 0.62485433 -0.41179621 0.66331060
vn 0.96847787 -0.24884382 -0.01128595
vn 0.91903932 -0.38773326 -0.07092000
vn -0.04188680 0.07617512 0.99621426
vn 0.73896056 -0.19307948 0.64549021
vn 0.76474090 0.03111386 0.64358627
vn 0.06125344 0.09384158 0.99370105
vn -0.00186517 -0.00610035 0.99997965
vn -0.08600286 0.06135038 0.99440416
vn -0.26040123 -0.96549590 -0.00297713
vn 0.37007989 -0.60849955 0.70197519
vn -0.95123466 0.30815084 -0.01398834
vn -0.90428899 0.42691820 0.00150906
vn 0.08856822 0.99602218 0.00977200
vn -0.18747124 0.98224671 -0.00677825
vn -0.96848673 0.24706403 -0.03150891
vn -0.69358421 0.72036994 -0.00284398
vn -0.23360189 0.97231166 -0.00633952
vn -0.70337444 0.70308637 -0.10456560
vn -0.48948386 0.87175262 -0.02128202
vn -0.06123414 0.99812289 -0.00104064
vn -0.39960705 0.91667665 0.00425730
vn -0.18631239 0.68491951 0.70439545
vn 0.65053348 0.75945279 -0.00613615
vn 0.82561624 0.56421471 -0.00442486
vn 0.92428699 0.38139732 -0.01515389
vn 0.39592083 0.91823555 -0.00949586
vn 0.24499083 0.96952257 0.00233876
vn 0.57213703 0.82013786 -0.00575304
vn 0.79289154 0.60926393 -0.01097592
vn 0.71131140 0.70157973 -0.04268462
vn 0.98918368 0.14596666 -0.01447033
vn 0.99048969 0.08450135 -0.10858037
vn 0.00714341 0.00841875 0.99993905
vn -0.00947124 -0.15042422 0.98857617
vn -0.10986096 -0.09101520 0.98977109
vn 0.67551108 0.30178852 0.67276182
vn 0.00255702 0.97747851 0.21101951
vn 0.17117134 0.98520231 -0.00876266
vn 0.19219760 0.68191596 0.70572707
vn 0.47526007 0.60868922 0.63531512
vn 0.63108386 0.17007634 0.75684028
vn 0.87880778 0.47236831 -0.06756525
vn 0.46881696 0.88155383 -0.05543912
f 18//18 1//1 9//9
f 8//8 36//36 18//18
f 1//1 22//22 2//2
f 21//21 19//19 5//5
f 21//21 11//11 4//4
f 12//12 11//11 21//21
f 21//21 5//5 6//6
f 21//21 6//6 12//12
f 6//6 13//13 12//12
f 6//6 3//3 26//26
f 37//37 7//7 2//2
f 9//9 1//1 4//4
f 1//1 2//2 20//20
f 7//7 37//37 34//34
f 20//20 2//2 5//5
f 5//5 2//2 7//7
f 25//25 5//5 7//7
f 34//34 25//25 7//7
f 37//37 42//42 34//34
f 14//14 18//18 9//9
f 8//8 18//18 14//14
f 17//17 8//8 16//16
f 17//17 36//36 8//8
f 8//8 14//14 16//16
f 39//39 52//52 36//36
f 17//17 39//39 36//36
f 9//9 4//4 11//11
f 9//9 10//10 14//14
f 10//10 76//76 14//14
f 9//9 11//11 10//10
f 10//10 11//11 12//12
f 10//10 12//12 15//15
f 13//13 6//6 26//26
f 15//15 12//12 13//13
f 13//13 118//118 15//15
f 76//76 10//10 15//15
f 118//118 13//13 26//26
f 76//76 15//15 77//77
f 16//16 14//14 76//76
f 18//18 22//22 1//1
f 36//36 22//22 18//18
f 20//20 5//5 19//19
f 1//1 19//19 4//4
f 4//4 19//19 21//21
f 20//20 19//19 1//1
f 6//6 5//5 3//3
f 77//77 15//15 118//118
f 26//26 3//3 23//23
f 26//26 23//23 29//29
f 5//5 25//25 3//3
f 34//34 57//57 25//25
f 28//28 33//33 24//24
f 24//24 25//25 57//57
f 27//27 23//23 33//33
f 29//29 23//23 27//27
f 28//28 27//27 33//33
f 63//63 28//28 24//24
f 63//63 24//24 57//57
f 31//31 29//29 27//27
f 64//64 28//28 63//63
f 29//29 100//100 26//26
f 31//31 30//30 29//29
f 100//100 29//29 30//30
f 31//31 102//102 30//30
f 102//102 31//31 103//103
f 31//31 27//27 28//28
f 31//31 28//28 32//32
f 64//64 32//32 28//28
f 32//32 103//103 31//31
f 103//103 32//32 104//104
f 104//104 32//32 64//64
f 67//67 64//64 66//66
f 64//64 67//67 104//104
f 3//3 33//33 23//23
f 3//3 25//25 33//33
f 25//25 24//24 33//33
f 118//118 26//26 100//100
f 42//42 35//35 34//34
f 42//42 50//50 35//35
f 22//22 53//53 2//2
f 2//2 53//53 37//37
f 53//53 42//42 37//37
f 39//39 54//54 52//52
f 55//55 54//54 38//38
f 41//41 53//53 55//55
f 40//40 55//55 38//38
f 44//44 54//54 39//39
f 120//120 39//39 17//17
f 54//54 44//44 38//38
f 44//44 39//39 120//120
f 38//38 44//44 43//43
f 41//41 42//42 53//53
f 42//42 41//41 48//48
f 41//41 55//55 40//40
f 46//46 47//47 41//41
f 41//41 40//40 45//45
f 45//45 40//40 38//38
f 41//41 45//45 46//46
f 38//38 43//43 45//45
f 46//46 123//123 122//122
f 42//42 48//48 50//50
f 51//51 49//49 47//47
f 70//70 61//61 49//49
f 51//51 70//70 49//49
f 46//46 51//51 47//47
f 122//122 51//51 46//46
f 56//56 51//51 122//122
f 49//49 61//61 50//50
f 60//60 50//50 61//61
f 22//22 36//36 52//52
f 53//53 52//52 54//54
f 53//53 54//54 55//55
f 47//47 48//48 41//41
f 47//47 49//49 48//48
f 48//48 49//49 50//50
f 52//52 53//53 22//22
f 34//34 35//35 57//57
f 57//57 35//35 72//72
f 63//63 57//57 72//72
f 58//58 63//63 72//72
f 59//59 72//72 35//35
f 59//59 62//62 72//72
f 62//62 59//59 60//60
f 35//35 50//50 60//60
f 59//59 35//35 60//60
f 62//62 58//58 72//72
f 66//66 63//63 58//58
f 64//64 63//63 66//66
f 68//68 66//66 58//58
f 60//60 65//65 62//62
f 71//71 60//60 61//61
f 65//65 60//60 71//71
f 133//133 65//65 71//71
f 68//68 58//58 62//62
f 68//68 67//67 66//66
f 71//71 70//70 133//133
f 133//133 70//70 132//132
f 62//62 65//65 68//68
f 69//69 68//68 65//65
f 133//133 69//69 65//65
f 69//69 133//133 134//134
f 61//61 70//70 71//71
f 56//56 70//70 51//51
f 132//132 70//70 56//56
f 77//77 73//73 75//75
f 95//95 75//75 74//74
f 95//95 82//82 75//75
f 78//78 16//16 76//76
f 16//16 78//78 79//79
f 76//76 77//77 78//78
f 75//75 78//78 77//77
f 80//80 120//120 17//17
f 17//17 16//16 79//79
f 80//80 17//17 79//79
f 92//92 80//80 79//79
f 92//92 120//120 80//80
f 120//120 92//92 121//121
f 78//78 81//81 79//79
f 79//79 81//81 83//83
f 92//92 79//79 83//83
f 86//86 83//83 81//81
f 83//83 84//84 92//92
f 81//81 75//75 82//82
f 81//81 78//78 75//75
f 93//93 81//81 82//82
f 86//86 81//81 93//93
f 121//121 92//92 124//124
f 87//87 125//125 121//121
f 93//93 82//82 95//95
f 93//93 85//85 86//86
f 85//85 93//93 115//115
f 95//95 115//115 93//93
f 115//115 88//88 85//85
f 86//86 84//84 83//83
f 90//90 84//84 85//85
f 90//90 85//85 88//88
f 88//88 116//116 89//89
f 84//84 124//124 92//92
f 121//121 124//124 87//87
f 90//90 124//124 84//84
f 90//90 87//87 124//124
f 90//90 88//88 89//89
f 91//91 87//87 90//90
f 89//89 91//91 90//90
f 86//86 85//85 84//84
f 73//73 77//77 118//118
f 94//94 73//73 118//118
f 74//74 75//75 73//73
f 74//74 73//73 94//94
f 94//94 101//101 97//97
f 74//74 96//96 95//95
f 94//94 96//96 74//74
f 96//96 94//94 97//97
f 97//97 101//101 105//105
f 105//105 106//106 97//97
f 97//97 106//106 98//98
f 96//96 98//98 99//99
f 98//98 106//106 99//99
f 115//115 99//99 112//112
f 112//112 99//99 106//106
f 118//118 100//100 94//94
f 101//101 100//100 30//30
f 94//94 100//100 101//101
f 102//102 101//101 30//30
f 102//102 105//105 101//101
f 108//108 102//102 103//103
f 105//105 102//102 108//108
f 105//105 119//119 106//106
f 115//115 112//112 116//116
f 116//116 112//112 117//117
f 103//103 107//107 108//108
f 104//104 67//67 110//110
f 107//107 103//103 104//104
f 111//111 104//104 110//110
f 119//119 105//105 108//108
f 109//109 119//119 108//108
f 109//109 108//108 107//107
f 106//106 119//119 112//112
f 119//119 109//109 112//112
f 111//111 107//107 104//104
f 110//110 67//67 141//141
f 112//112 109//109 113//113
f 117//117 112//112 113//113
f 114//114 110//110 141//141
f 114//114 117//117 113//113
f 110//110 114//114 111//111
f 95//95 99//99 115//115
f 95//95 96//96 99//99
f 115//115 116//116 88//88
f 116//116 142//142 89//89
f 142//142 116//116 117//117
f 97//97 98//98 96//96
f 111//111 109//109 107//107
f 111//111 113//113 109//109
f 111//111 114//114 113//113
f 121//121 44//44 120//120
f 121//121 125//125 44//44
f 44//44 125//125 43//43
f 43//43 130//130 45//45
f 46//46 45//45 123//123
f 125//125 130//130 43//43
f 123//123 45//45 130//130
f 129//129 122//122 123//123
f 122//122 136//136 135//135
f 122//122 129//129 136//136
f 130//130 125//125 128//128
f 130//130 129//129 123//123
f 126//126 129//129 130//130
f 128//128 126//126 130//130
f 125//125 87//87 127//127
f 91//91 127//127 87//87
f 128//128 125//125 127//127
f 91//91 128//128 127//127
f 126//126 128//128 131//131
f 146//146 147//147 129//129
f 129//129 126//126 146//146
f 126//126 131//131 146//146
f 91//91 143//143 131//131
f 89//89 143//143 91//91
f 91//91 131//131 128//128
f 135//135 56//56 122//122
f 67//67 68//68 69//69
f 69//69 134//134 140//140
f 132//132 56//56 135//135
f 135//135 137//137 132//132
f 138//138 134//134 133//133
f 134//134 151//151 150//150
f 138//138 151//151 134//134
f 138//138 137//137 152//152
f 136//136 137//137 135//135
f 147//147 136//136 129//129
f 152//152 137//137 136//136
f 138//138 133//133 137//137
f 139//139 138//138 152//152
f 67//67 69//69 140//140
f 141//141 67//67 140//140
f 140//140 134//134 150//150
f 150//150 141//141 140//140
f 142//142 143//143 89//89
f 142//142 144//144 143//143
f 144//144 142//142 117//117
f 151//151 138//138 139//139
f 144//144 150//150 145//145
f 148//148 143//143 144//144
f 148//148 144//144 145//145
f 147//147 152//152 136//136
f 143//143 148//148 131//131
f 147//147 146//146 148//148
f 152//152 149//149 139//139
f 149//149 145//145 139//139
f 145//145 149//149 148//148
f 131//131 148//148 146//146
f 144//144 117//117 114//114
f 144//144 114//114 150//150
f 132//132 137//137 133//133
f 114//114 141//141 150//150
f 151//151 139//139 145//145
f 148//148 152//152 147//147
f 148//148 149//149 152//152
f 145//145 150//150 151//151

