# https://github.com/mikedh/trimesh
v -0.02177135 -0.02182521 -0.05413535
v -0.07129027 -0.01387594 -0.03592464
v -0.00084423 -0.04798434 0.02264016
v -0.06735543 -0.01847236 -0.03065905
v -0.04697315 -0.02353838 0.03045406
v -0.04663442 -0.02467428 0.02182272
v -0.01183818 -0.04162688 0.03064026
v -0.03427255 -0.04881582 0.02312106
v -0.00483047 -0.04091245 0.03483032
v -0.02046682 -0.00631474 0.04672974
v -0.01600606 -0.04652258 0.01645026
v -0.00619283 -0.01076674 0.04996246
v -0.02909687 -0.04534829 0.02829930
v -0.02329743 -0.03058142 -0.04893518
v -0.02827823 -0.03320240 0.03488775
v -0.03215938 -0.04607953 0.01641202
v -0.02659852 -0.04502692 0.02236157
v -0.01870289 -0.04398849 0.02227804
v -0.08058594 -0.00963000 -0.02865821
v -0.07548111 0.02007881 0.00684782
v -0.04023930 -0.03527485 0.03073540
v -0.01564918 -0.03788296 0.03809747
v -0.07664832 -0.00615297 -0.02842888
v -0.02317514 -0.04781085 0.02554274
v -0.02291611 -0.00916910 -0.05750228
v -0.01962271 -0.01148687 -0.05737344
v 0.07142568 -0.00188033 -0.01332057
v -0.01337803 -0.04329925 0.03410328
v -0.01848435 -0.04310564 0.03639065
v 0.05735082 -0.00682015 0.06429894
v -0.02509322 0.00526350 -0.05648518
v -0.00947667 -0.03763232 0.03620138
v -0.02230977 -0.02831546 0.03749866
v -0.08216210 -0.00718888 -0.02591174
v -0.03971208 0.03418132 0.02858512
v -0.04214435 0.03805054 0.02311193
v -0.04799763 0.00545286 0.03047430
v 0.05051834 -0.00063978 0.06474054
v -0.01021710 -0.03205401 -0.04485164
v -0.01440099 -0.04246875 0.03782193
v -0.04527894 0.02606396 0.02402412
v -0.03515846 -0.00739435 0.04281789
v -0.02857273 -0.02001477 -0.04116170
v -0.07502861 -0.01238794 -0.02475106
v -0.07203726 -0.00643185 -0.02084269
v -0.03759223 -0.03312676 0.03784672
v -0.03390193 -0.02300517 -0.03904188
v -0.03460563 -0.02700793 0.03602433
v -0.01691789 -0.02538693 0.04244330
v -0.04845131 0.01143480 0.03272710
v -0.01871160 -0.04776844 0.02892951
v -0.02532599 0.03520529 0.03150181
v -0.04435906 0.01017603 0.03981068
v 0.01858130 -0.02598121 0.05015180
v -0.04512864 -0.02040131 -0.03865935
v -0.03050830 -0.04056974 0.03374468
v -0.01700162 -0.01521068 0.04661009
v -0.04150333 -0.02238376 -0.04008753
v -0.04103039 0.02624475 0.03432538
v 0.01445691 0.00021958 0.05589685
v 0.02585117 -0.02433211 0.05235859
v -0.04719299 0.01937559 0.03231745
v -0.02545321 -0.04319899 0.03343345
v 0.02439625 -0.00914941 0.05711369
v -0.03398654 0.00176927 0.04355451
v -0.08178363 -0.00025836 -0.02166750
v -0.02480128 -0.02721101 -0.04989799
v 0.06086216 -0.04351113 0.04177090
v 0.02855625 -0.00075224 0.05901397
v 0.04157877 -0.00426363 0.06160271
v -0.03960491 -0.02282046 -0.03670103
v 0.05446045 -0.03930117 0.04532738
v -0.01791748 -0.03439134 0.03710520
v -0.03684590 0.01030863 0.04191656
v -0.04308009 -0.00812139 0.04075829
v 0.04972103 -0.03720192 0.04716954
v -0.02583610 -0.02068626 -0.05139229
v -0.02910195 -0.00697585 0.04418274
v -0.02513928 -0.03786193 0.03909129
v -0.02477366 -0.00232406 -0.05677832
v -0.01754023 0.01861057 -0.05436444
v -0.04087577 -0.02585376 -0.03530049
v -0.00098061 0.04783961 -0.02381851
v -0.01267555 -0.02552510 -0.04998552
v 0.05384220 -0.03427790 0.05068584
v 0.00690531 -0.01893544 -0.04907894
v -0.01798713 0.00193206 0.04814723
v -0.01948719 0.01314198 0.04575682
v -0.02201773 -0.03581524 -0.04455629
v 0.00900570 0.01498755 0.05237103
v 0.00498816 0.05079166 -0.01410908
v 0.01343506 -0.01129922 -0.05002371
v -0.00021100 0.02203845 -0.04906565
v 0.02353712 -0.01054862 -0.04811326
v 0.01665596 -0.02458311 -0.04398696
v 0.06419749 0.00420095 0.04163906
v 0.01368098 0.05228002 -0.00649706
v 0.02893317 0.01567578 0.05695438
v 0.00996473 0.00453639 0.05456510
v 0.04593081 -0.02853474 0.05375487
v 0.02336364 0.00896023 -0.04876083
v 0.06003617 -0.02631559 0.05598836
v 0.07402217 0.04443132 -0.01796056
v 0.01727568 0.04480158 -0.02764123
v 0.03358327 0.00300313 0.06012780
v 0.00668609 -0.01849956 0.05025311
v 0.01095609 -0.02980577 0.04885095
v -0.00300214 -0.03530626 -0.04055172
v -0.02172995 0.00277578 -0.05855606
v 0.02696493 0.05077193 -0.01092827
v -0.01840373 0.00869397 -0.05755293
v 0.01513710 -0.03273580 0.04659211
v 0.02814108 0.04599593 -0.02266838
v -0.02288184 0.02282005 -0.05334987
v 0.00438912 -0.03841047 -0.03596182
v -0.02222770 0.02654654 -0.05133819
v 0.05955336 -0.04643591 -0.00781628
v -0.03492746 0.03033868 0.03307754
v -0.04857735 -0.02574382 -0.04423672
v -0.02712451 0.02141282 -0.05042361
v -0.01405912 0.02631950 -0.04985761
v 0.06079230 -0.01518932 0.05901703
v -0.01548851 -0.04163744 -0.03626908
v -0.02893536 0.03118467 0.03378372
v 0.06598520 -0.04947980 0.00128639
v 0.06148567 0.00943018 0.05828291
v 0.05548208 0.04330978 -0.02333775
v -0.03043185 -0.01753620 -0.03553851
v -0.01616537 0.02983420 -0.04889323
v 0.04502510 -0.00176887 -0.04421678
v -0.04329535 0.02089990 0.03660538
v 0.01563050 0.05281748 0.00474754
v -0.02906866 -0.00392747 -0.04134713
v 0.00461839 -0.00368900 0.05346867
v 0.05087159 -0.00649560 -0.04221928
v 0.05798952 -0.04908087 0.00032422
v 0.06808033 0.00500638 -0.03909764
v -0.00744864 0.02693701 -0.04779541
v -0.01004320 0.03067310 -0.04857507
v 0.03293526 -0.02510394 0.05337326
v 0.07108955 -0.00000113 -0.03918344
v 0.05793157 -0.00499933 -0.04072183
v -0.03076949 -0.03081282 -0.03365565
v -0.07761148 -0.00522747 -0.01815221
v 0.00061642 0.05177668 0.00867668
v 0.00155244 -0.04482126 -0.02739931
v -0.00447529 -0.04616936 -0.02508274
v 0.06696917 -0.00354011 -0.03873313
v 0.02532002 0.02397654 -0.04346436
v 0.05513150 -0.02151986 0.06119155
v -0.05238394 -0.02424697 -0.04380425
v -0.04259678 -0.02801568 -0.04445840
v 0.03361886 0.01449294 -0.04547857
v -0.02977087 -0.03276810 -0.04336256
v 0.00205310 -0.04877072 -0.01882404
v -0.04551543 -0.02535081 -0.04391609
v 0.07930198 0.00903639 -0.03652069
v 0.06988027 0.04885210 -0.01390669
v -0.04674045 -0.03081585 -0.04174754
v 0.07701488 0.01220730 -0.03812296
v -0.00928052 -0.01266706 -0.05456971
v -0.01230428 -0.00045207 -0.05679652
v -0.02032451 -0.03766470 0.04046301
v 0.00461645 0.03717633 -0.04017580
v 0.00295636 -0.01183776 -0.05194103
v -0.07867775 -0.00102384 -0.01380110
v 0.06862867 0.01416021 -0.03790967
v 0.00233176 -0.02775846 -0.04510420
v 0.03110865 0.03057038 -0.03851482
v -0.03247052 0.02014244 0.03967956
v -0.03567067 0.04842673 0.00713250
v -0.03723179 -0.02040980 -0.03197440
v -0.06994905 -0.00939054 -0.02980166
v 0.01522636 -0.03604964 -0.03572011
v -0.02387678 0.00908060 0.04486723
v 0.01842660 -0.05149939 0.00187445
v 0.02628248 -0.05119036 0.00206505
v -0.04145891 0.04315299 0.00966408
v 0.02164861 -0.05052298 0.01455476
v 0.02434992 -0.03172792 -0.03728636
v 0.06305919 -0.05086699 0.01017211
v -0.06565185 0.02232437 0.00655708
v 0.04092677 0.02923911 -0.03720161
v 0.00403447 -0.05068311 0.01285036
v -0.02971110 -0.03938568 -0.03596539
v -0.07341256 0.02136476 0.00862985
v -0.00883365 -0.02046434 0.04667776
v -0.01120957 -0.00095606 0.04997642
v 0.00673332 -0.04741728 0.02561671
v -0.00213866 0.01846545 0.04859049
v 0.04818451 0.04146721 -0.02746523
v 0.00889213 0.04104203 -0.03602270
v -0.06548223 -0.01199255 -0.02957409
v 0.00360201 0.00680051 0.05272472
v 0.07522360 0.03494455 -0.02860239
v 0.01029108 -0.04261145 -0.02868427
v 0.02959829 -0.03512098 -0.03279200
v -0.02727318 0.02713211 -0.04834850
v 0.02339603 0.04077709 -0.03318096
v 0.06137362 0.04304455 -0.02314809
v 0.04118128 0.01072079 0.06108721
v 0.01652030 -0.01348382 0.05451075
v 0.01219657 -0.02121964 0.05106112
v -0.03651288 -0.03177835 -0.03948050
v 0.06740618 0.04270977 -0.02110179
v -0.03743541 -0.02031882 -0.00398830
v 0.01626703 -0.04569500 -0.02181374
v -0.02673571 0.03254736 -0.04678558
v 0.00057328 -0.04515600 0.03023196
v 0.07295080 0.03997712 -0.02467993
v -0.00640232 0.00565085 -0.05513317
v 0.01917535 -0.05008872 -0.00938937
v 0.02434211 -0.04284612 -0.02477965
v 0.03072908 -0.01358648 0.05760578
v -0.03920910 0.04359668 0.01692580
v -0.05612179 -0.02348152 -0.04324682
v -0.02557945 0.01429122 -0.05467695
v -0.04296491 0.03814938 0.01575207
v 0.03502763 -0.04262526 -0.02220314
v 0.02908867 -0.04885847 -0.01045660
v 0.04330568 0.04675762 -0.01834840
v -0.07350272 0.01624260 -0.00216398
v -0.00983509 0.01574605 -0.05373677
v 0.04291461 -0.05067063 0.01131820
v -0.02808802 0.03794545 -0.04142318
v 0.03953146 -0.04858327 -0.00830972
v 0.06129050 0.04840340 -0.01296118
v -0.01236868 -0.03620488 0.03649467
v 0.05244996 -0.04991443 0.01851625
v 0.07602732 0.03539036 -0.02108772
v -0.01781052 0.03285373 -0.04604076
v -0.03355538 -0.02537633 -0.02804883
v -0.04855123 -0.01362260 0.03347200
v 0.03128458 -0.05106497 0.00932062
v 0.04660890 -0.04979607 -0.00160182
v -0.04817950 -0.00142400 0.03696616
v 0.05722915 -0.05030923 0.00890641
v 0.00674314 0.04720127 -0.02396625
v -0.00930557 0.05073916 -0.01255025
v 0.01518577 0.04907535 -0.01764702
v -0.05973119 -0.01978239 -0.04084561
v 0.04926984 -0.05058186 0.00997937
v 0.05037826 -0.01013031 0.06323752
v -0.02889970 0.00895969 -0.04282083
v 0.05423588 -0.00546268 0.06602503
v -0.03327162 -0.03147980 -0.02824378
v -0.04316355 -0.03290766 -0.03898216
v 0.06883474 0.05271496 -0.00634978
v -0.07593599 0.01163794 0.00003672
v -0.04890823 -0.03024946 -0.03974902
v 0.03602085 -0.04966909 0.02120108
v -0.00611397 0.05212418 -0.00604448
v 0.05404913 0.00197516 -0.04216087
v -0.06871383 -0.00900438 -0.02621512
v -0.05057980 -0.01933754 -0.03817157
v 0.07313052 0.04640205 -0.00822060
v -0.04408187 -0.03305720 -0.03888011
v -0.04397814 -0.03237149 -0.03853514
v 0.02918455 -0.04975963 0.01910908
v -0.04447550 -0.03224411 -0.03881394
v 0.00269964 0.05239160 -0.00381213
v 0.01533865 -0.04804848 0.02390303
v -0.06805045 -0.02073671 -0.03948753
v -0.04810469 -0.00777757 0.03621028
v 0.05989245 0.05236427 -0.00360833
v -0.04146948 -0.04280939 0.01101620
v -0.02038971 0.04023872 -0.03849062
v -0.01256542 0.05123016 -0.00532735
v 0.04612018 0.05034284 -0.00946457
v -0.06397041 -0.01984298 -0.04073822
v -0.06401272 -0.01631897 -0.03727089
v 0.07599740 -0.00490097 -0.03797914
v -0.05309732 -0.01970036 -0.03622354
v 0.01941734 -0.04501844 0.03092037
v -0.07121192 -0.01980650 -0.03670285
v 0.01138297 -0.04189368 0.03194136
v -0.07413244 -0.01753656 -0.03468338
v -0.07090959 0.01490003 0.00392641
v -0.05889168 -0.02732678 -0.04103851
v 0.05560504 0.05146591 -0.00444481
v -0.00788921 0.05183896 0.00338651
v -0.06780281 -0.01489104 -0.03643026
v -0.01025187 0.02698300 -0.04904082
v 0.03913264 -0.04654548 0.03093674
v -0.02575886 -0.01142187 -0.05418489
v 0.02875723 -0.04510450 0.03198551
v 0.03838885 0.05279914 -0.00066770
v -0.06704269 0.01946701 0.01005460
v 0.06867241 0.00705651 -0.00408317
v -0.05138652 -0.02988185 -0.04237962
v 0.07215596 0.01727319 -0.01435444
v 0.07430439 -0.04341997 -0.00311570
v 0.05299260 0.05046063 -0.00792539
v -0.00214092 -0.02045446 -0.04971854
v -0.05783258 -0.02158789 -0.03366221
v -0.01028742 0.03540740 -0.05067977
v -0.07089907 0.01793765 0.00082073
v -0.04189035 0.04174075 0.01484191
v -0.07874454 0.01780882 0.00326685
v 0.01566345 0.03376877 0.04397862
v -0.03093310 -0.01838200 0.04085382
v 0.02927860 0.05284023 -0.00060379
v 0.05034597 0.05346649 0.00435581
v 0.07784220 0.00504222 -0.03842161
v 0.06921174 0.01551577 -0.00479871
v -0.03358737 -0.02145710 -0.02595441
v -0.00003387 -0.03520393 0.04172100
v 0.07063789 0.03132860 -0.00278267
v 0.04408070 0.05294726 0.00022123
v -0.00050898 -0.02812484 0.04750679
v -0.06728247 0.01603763 0.00212462
v 0.00391390 -0.03019045 0.04662266
v 0.06582635 0.05427801 -0.00078327
v -0.06299922 -0.02475944 -0.04037392
v 0.00860469 -0.03209358 0.04373882
v 0.07131290 -0.04992965 0.00373736
v -0.04073839 -0.02016394 0.00970721
v -0.07010988 0.01247423 -0.00093973
v -0.01196031 0.03826400 -0.04805909
v -0.01572813 0.03689668 -0.04854559
v -0.04339700 -0.03675297 0.00999771
v -0.01427007 0.05071235 0.00425912
v 0.03444452 0.05328248 0.01087316
v -0.01007578 -0.04874130 0.01767198
v 0.02478825 0.05287654 0.01087281
v 0.01846222 0.02459731 0.05085696
v 0.06675269 0.00769735 0.00663862
v -0.04367948 0.00145725 0.04095002
v 0.06586549 0.00427450 0.00826310
v 0.06822007 0.01843593 0.00049924
v 0.07748977 -0.01309978 -0.03656289
v 0.02739149 0.02457976 0.05301500
v -0.03894036 -0.02633524 -0.04387999
v -0.07900239 -0.01193512 -0.03030797
v -0.02181220 -0.01559330 0.04391891
v -0.05497154 -0.02852661 -0.04152763
v -0.07728373 -0.00325481 -0.02490350
v -0.02329634 0.00019160 0.04588977
v -0.00982486 0.03912452 -0.04511500
v -0.07086436 -0.00593031 -0.02356782
v -0.01372364 0.04843452 0.01390673
v -0.07573308 -0.01617101 -0.03012160
v -0.00544124 -0.02629967 0.04536296
v -0.04402663 -0.03722318 0.01565554
v 0.04763850 0.05111760 0.02631210
v -0.04140882 -0.02578027 0.01031228
v 0.06582188 0.00614553 0.01281357
v 0.07140173 0.04892698 -0.00132091
v -0.02794422 -0.03086993 -0.04458732
v 0.07848132 -0.01885694 -0.02909217
v -0.03467958 -0.02573750 -0.01538899
v 0.05865143 0.00305144 0.06368792
v 0.05832628 0.01164248 0.06308799
v 0.05355638 0.00703703 0.06627339
v -0.02261210 0.01873538 -0.05506514
v -0.08360705 -0.00448225 -0.02155283
v -0.01369703 -0.04853846 -0.02233342
v -0.03404462 -0.03010327 -0.04314568
v 0.00284943 0.01144956 -0.05245488
v 0.07884814 -0.01603697 -0.03318953
v 0.06474444 0.00918421 0.02516193
v 0.06536544 0.02005107 0.02485288
v 0.06784960 0.02959363 0.00856888
v -0.03276945 0.02783184 -0.02865809
v -0.02888680 -0.02652940 -0.04274775
v -0.08477087 -0.00095401 -0.01879534
v -0.01051880 0.03508808 -0.04282870
v -0.06176674 0.02113450 0.00739370
v 0.06432450 0.04293086 0.03649214
v 0.07618786 -0.02431568 -0.03162392
v -0.03034981 0.02174545 -0.03761574
v -0.02811729 0.04159170 -0.03726004
v -0.07294466 -0.00214927 -0.01993037
v -0.04055458 -0.03180659 -0.04210558
v -0.06197478 -0.02466338 -0.03623282
v -0.07066558 0.02229794 0.00524221
v 0.01330596 0.01068434 -0.05090699
v 0.00857797 0.04501765 0.02876249
v -0.01834243 0.03858146 -0.04300977
v -0.01049789 -0.05108585 -0.00771389
v 0.07021806 -0.01817207 -0.03497766
v -0.06828548 -0.02209081 -0.03508684
v 0.06838549 0.03710372 0.01047771
v -0.00195729 0.03379682 -0.04181817
v -0.00228135 -0.00000497 0.05210407
v -0.01485344 -0.05129661 -0.00779581
v 0.06523900 0.02896358 0.03235869
v -0.02824526 -0.03487363 -0.04021466
v 0.00495045 0.02096596 -0.04942764
v 0.02248035 -0.03270711 0.04626053
v 0.07019794 -0.04888845 0.01410315
v -0.00847337 -0.05125846 -0.00442199
v 0.04567982 0.04086074 0.04439936
v 0.07061007 -0.03644018 0.00924065
v 0.03217690 0.04329386 0.03771182
v -0.03511016 0.01796412 -0.01754342
v -0.07617096 0.00139444 -0.01880055
v -0.03376762 -0.01350787 -0.02038700
v 0.06484598 0.00375711 0.02347575
v 0.00100517 0.02920820 -0.04537224
v -0.05686070 0.01980635 0.00933408
v -0.05957813 0.01951086 0.00894103
v -0.04452142 -0.03343345 0.02306273
v 0.02137920 -0.00135196 0.05730433
v -0.05272501 -0.02648621 -0.03679237
v -0.02415740 -0.04180427 -0.03769989
v -0.02981970 0.03319511 -0.04004884
v 0.06730386 -0.01812866 0.01263743
v -0.04436481 -0.02298889 0.01759633
v -0.00486854 0.03188354 0.04036536
v 0.06002666 0.01183325 -0.03992852
v 0.05083077 0.01877327 -0.04019960
v -0.03730072 -0.03356998 -0.01853303
v 0.06519065 -0.05104766 0.01482037
v 0.05064695 -0.01857626 0.06045924
v -0.01423831 0.04516836 -0.04141298
v -0.00772058 -0.05139582 0.00614049
v -0.06399273 0.02601154 0.01515188
v -0.01150652 0.03775519 -0.04022208
v -0.03740268 0.00477882 -0.00677941
v -0.07370790 0.00091521 -0.01546761
v 0.06672817 0.05557463 0.00183339
v 0.06041714 0.02335371 -0.03599613
v 0.06054914 -0.05025414 0.02162161
v -0.01245447 -0.05051622 0.00387702
v 0.06243711 0.03897592 0.04594532
v -0.01452855 -0.04880067 0.01071097
v -0.03112916 0.03828511 -0.03474739
v 0.04088654 -0.01169887 0.06020561
v -0.01202366 0.04264950 -0.04281585
v 0.06410551 0.02450253 0.04467766
v 0.03702946 0.02685587 0.05421375
v 0.00695547 0.03482703 0.04099472
v 0.06725557 -0.05112637 0.01589591
v -0.04012235 0.01034874 0.00467257
v -0.03843528 0.01653504 -0.00268628
v -0.02463207 -0.04666230 -0.03020198
v 0.06186234 0.02943901 0.05215041
v 0.06416183 0.03025029 0.04353181
v -0.03121865 0.04428805 -0.03144884
v -0.05826687 0.02231203 0.01522519
v -0.04216491 0.01881820 0.00740274
v 0.06765009 0.02352054 -0.03491619
v -0.00736414 0.03749437 -0.03894883
v -0.03198979 -0.04311448 -0.02903511
v 0.04387676 0.02763124 0.05539437
v -0.03365084 0.04573229 -0.02368038
v -0.06000034 0.02544291 0.01086178
v 0.04511452 0.03358959 0.05159121
v -0.01525820 0.04505562 0.02086379
v 0.00122029 -0.00164237 -0.05355688
v 0.06382934 0.01794321 0.04754055
v 0.00849266 0.02385980 0.04865583
v -0.03998455 -0.03783492 -0.01264519
v -0.03311024 0.04857259 -0.02036457
v -0.02840831 -0.04806188 -0.02520401
v 0.01686019 -0.00428531 -0.05049116
v -0.06730201 0.02442724 0.01326815
v -0.03724059 -0.00361384 -0.00725710
v -0.03397782 -0.04708494 -0.01961699
v -0.03487529 0.03687927 -0.01914755
v -0.06264971 0.02747608 0.01467773
v 0.02037126 0.01122572 0.05616828
v -0.03825492 0.03133288 -0.00548027
v 0.03690182 0.00098425 -0.04611234
v -0.03816441 0.04767885 -0.00422375
v 0.02442244 0.02050533 0.05412316
v 0.00039984 -0.05124126 -0.00982572
v -0.01529860 -0.04319809 0.02651438
v -0.02767219 -0.05029276 -0.01997945
v 0.03869333 -0.00986951 -0.04447454
v 0.00597686 0.00128467 -0.05334107
v -0.00453484 -0.05201051 -0.00325413
v 0.04338891 0.02362580 0.05731862
v -0.04010239 -0.04330256 -0.00467342
v -0.00531595 -0.04474002 0.02861861
v -0.00279384 0.04197114 0.03007482
v 0.04795950 0.01911209 0.06106661
v 0.07674464 0.01951456 -0.03621291
v -0.04159380 0.01577521 0.00912334
v -0.04584985 -0.02566454 -0.03547429
v -0.04193464 0.00844007 0.01255124
v 0.02779012 -0.01726497 -0.04476816
v 0.03806615 0.01773162 0.05848700
v 0.05473684 0.05323699 0.00321917
v -0.04677914 0.01769080 0.00812940
v -0.01188368 0.04196036 -0.03749077
v 0.04859726 0.01083510 0.06345734
v 0.07855428 0.01851640 -0.03355140
v -0.03723406 -0.02852241 -0.00574254
v -0.04052869 -0.02928461 0.03431201
v -0.03836429 -0.03752220 0.03232025
v 0.07759982 0.02713649 -0.02919463
v 0.05226297 0.03373334 -0.03194834
v -0.02040199 -0.05141597 -0.01130012
v 0.05772663 0.03090692 0.05759918
v 0.06528782 0.03654831 -0.02747824
v 0.04121350 0.04151105 -0.02899339
v -0.03456014 -0.04136187 0.03150437
v -0.03400822 -0.04891810 -0.01372152
v 0.05264642 0.01577123 0.06412107
v -0.03535027 -0.03682844 0.03521153
v 0.04231497 -0.02833892 -0.03535332
v -0.02915729 -0.05169726 -0.00929436
v -0.04536288 0.02036325 0.01525635
v -0.04057158 0.02338777 0.00547060
v -0.04885697 0.02124614 0.01254559
v 0.06023310 0.05446569 0.00335917
v -0.02165638 0.01363195 -0.05680313
v -0.04406223 0.01949695 0.01642271
v -0.05220054 0.02530740 0.01933991
v 0.05228736 -0.04806041 0.02818138
v -0.05629081 -0.01803364 -0.03578273
v -0.04099485 -0.00577631 0.00978691
v -0.03182742 -0.03620760 0.03516902
v -0.04881024 0.02788326 0.02161802
v 0.07918091 -0.00710521 -0.03393050
v -0.04884109 -0.02020471 -0.03655404
v -0.03954081 -0.02846722 0.00326544
v -0.04533429 0.01165766 0.02217026
v 0.05342850 -0.01586623 -0.03909329
v 0.01602625 0.02339665 -0.04580865
v -0.01650291 0.03591472 0.03381276
v 0.03993034 -0.03655007 -0.02860422
v 0.04310808 0.01210370 -0.04396022
v 0.06121903 -0.04690501 0.03566177
v -0.06205925 -0.01432417 -0.03247541
v 0.06345584 -0.04910131 0.02875410
v 0.02098622 0.05223521 -0.00584677
v -0.03484810 -0.02101881 -0.03524307
v 0.04056526 0.05039144 -0.01003132
v 0.03332355 0.05151011 -0.00777840
v -0.02135725 0.02722547 0.03843979
v -0.03232169 -0.03056702 -0.03622687
v -0.01307953 0.04549910 -0.03496412
v 0.06765669 -0.04447972 0.02772695
v 0.06903358 -0.03910786 0.02241462
v 0.07490006 -0.03119151 -0.02693061
v -0.02015914 0.04396761 -0.03591708
v 0.06756444 -0.02000535 0.02115313
v 0.06515134 -0.00431804 0.02290692
v -0.03409133 -0.05069069 -0.00355046
v -0.03717136 -0.02579166 -0.03455597
v -0.04797694 0.02168706 0.01165411
v -0.07605061 -0.01129059 -0.03312840
v -0.02085215 0.02081220 0.04224048
v -0.02413430 -0.05047336 0.00471428
v 0.04075360 -0.04206417 0.03981436
v -0.01020605 0.01569147 0.04759568
v 0.01066883 0.05069940 0.01603754
v -0.04235494 -0.01894118 0.03798543
v -0.04350935 0.01641880 0.01486295
v -0.02359706 0.04554083 -0.03047941
v -0.04293669 0.02332184 0.00961321
v 0.03221552 0.05003376 0.02500776
v 0.00306809 -0.04070537 0.03531408
v -0.00478387 0.04313081 -0.03147165
v 0.06852922 0.04617261 0.01339219
v 0.03138916 0.00896768 0.05904210
v -0.04563738 0.02873917 0.01639763
v 0.01921586 0.04777879 0.02625713
v 0.03467358 -0.02417176 -0.03992055
v -0.04120048 -0.04395576 0.00359250
v -0.03712973 -0.04521576 0.01772675
v -0.00521796 -0.04157713 -0.03305242
v 0.05416860 -0.04333643 0.03943726
v -0.05899580 -0.01676096 -0.03452487
v 0.01094650 -0.03931719 0.03839852
v -0.02379360 -0.03345926 0.03838029
v 0.00759964 -0.03930338 0.03710065
v -0.01382385 0.03250964 -0.05347059
v 0.06347164 0.05585031 0.00877396
v 0.01428102 -0.04145834 0.03565859
v 0.01391803 -0.03694305 0.04234814
v 0.07070961 -0.04321766 0.01501004
v 0.06604256 -0.02072018 0.03349567
v 0.03156558 -0.04095513 0.03929113
v -0.01290736 0.02914295 -0.05136187
v -0.00548802 -0.03377899 0.04190864
v 0.06740332 -0.02806441 -0.02959701
v -0.01110410 0.04541581 -0.02832454
v 0.06975821 -0.03588860 -0.02290644
v -0.00592441 0.04645122 -0.02542876
v -0.03455801 -0.04934394 0.00595734
v 0.06777225 0.05382481 0.00859936
v 0.01955409 0.04249372 0.03531627
v 0.04289273 0.05327321 0.01620948
v -0.02899859 0.04865243 -0.02385075
v 0.05446400 0.05402583 0.00955771
v 0.07692448 -0.03410668 -0.02044265
v 0.06320339 0.05580077 0.01660912
v 0.03414557 0.03996010 -0.03166358
v 0.06613766 0.03102021 -0.03102297
v 0.02496347 0.03474144 0.04551205
v -0.03355471 0.05002628 -0.01521097
v 0.00665884 -0.04257221 0.03356551
v -0.01072590 -0.03169361 0.04054347
v 0.05779998 0.05526602 0.01344101
v 0.02474403 -0.03885241 0.04070424
v -0.07856451 0.00293768 -0.01784902
v 0.05335440 0.05378726 0.01946931
v 0.07882752 0.01454901 -0.03260012
v 0.07479183 0.02797206 -0.03281439
v 0.07930032 -0.00198106 -0.03648063
v -0.04320481 -0.01464813 0.01981856
v 0.07241492 -0.01546473 -0.01265289
v 0.06713993 0.05039858 0.01781992
v -0.03387765 0.05066702 -0.00986735
v -0.04544987 -0.00452484 0.02525307
v 0.06561861 -0.03645014 0.04010463
v -0.02832302 0.05082002 -0.01209734
v 0.07428188 0.01584276 -0.02070136
v -0.03442261 0.05064874 -0.00607035
v -0.03129586 0.04029532 0.02404881
v -0.03253229 -0.01582700 -0.03066066
v 0.06406448 0.01292384 0.04153339
v 0.01967797 -0.03774958 0.04136104
v -0.03720344 -0.01774340 -0.02989385
v -0.03830966 0.04019805 -0.00368949
v 0.03390555 0.03276528 0.04964159
v 0.01578887 0.03717950 -0.03827431
v -0.01898614 0.04094903 0.02621399
v -0.04018304 0.04582162 0.00480355
v -0.03202753 0.00299604 -0.02911292
v -0.03865037 0.04776456 0.00331450
v -0.03542834 0.04990889 -0.00040126
v 0.06101157 0.05501525 0.02364445
v 0.04548322 -0.03591711 0.04786283
v -0.00103809 0.03993860 -0.03785553
v -0.01575338 0.04987861 -0.03573249
v -0.01811859 0.05117331 -0.03362018
v -0.03551816 -0.00758159 -0.01338043
v -0.00130094 -0.01990338 0.04869456
v -0.00530091 -0.05027908 -0.01379717
v -0.04164087 0.03101892 0.01120836
v -0.03084502 -0.04506802 0.02366423
v 0.06361388 -0.01987907 0.05058800
v 0.03530967 -0.03285602 0.04862798
v 0.04239947 -0.01974453 0.05771513
v 0.05789472 0.05283463 0.03040800
v 0.00959165 -0.05060853 -0.00977764
v 0.04565817 -0.04198524 -0.02017716
v 0.06048651 -0.03689504 0.04869675
v 0.00273240 -0.05197169 -0.00112529
v 0.07803880 -0.02685537 -0.02588666
v 0.01099146 -0.05166983 0.00409821
v -0.02024727 0.04859762 -0.03271027
v 0.04818932 0.04796081 0.03453819
v 0.05234350 -0.03044114 0.05374924
v 0.05712307 -0.02989197 0.05586426
v -0.04377633 0.00227182 0.02157759
v -0.07331720 0.00495905 -0.01161544
v 0.06432086 -0.00628705 0.04372147
v 0.06472554 -0.04099698 -0.01711642
v -0.04796826 -0.01766533 0.02571997
v -0.03955228 -0.04085725 0.02296542
v 0.07200017 -0.04304972 -0.01368346
v 0.04853941 -0.02465336 0.05691830
v -0.00036251 0.04544289 -0.02914710
v -0.08336223 0.01044810 -0.00866845
v -0.07692518 0.00822988 -0.01125884
v 0.06334718 0.05113400 0.03010175
v -0.01409491 0.05004580 -0.03231192
v -0.04457402 -0.02936478 0.02870591
v -0.07957597 0.01402771 -0.00533469
v 0.03093428 -0.00095200 -0.04744937
v 0.06602405 -0.04509621 -0.01024211
v 0.05514876 0.04988017 0.03575893
v -0.07147358 0.00958131 -0.00456554
v 0.04432669 0.00351606 0.06285009
v -0.07216133 0.00753028 -0.00777286
v -0.01439382 0.04562438 -0.02995154
v 0.06985872 -0.00957763 -0.03777076
v 0.07369407 -0.04563837 -0.00849543
v -0.01706334 0.04725551 -0.02709349
v -0.07521022 0.01376458 -0.00480644
v 0.05046125 -0.02475778 -0.03545068
v -0.00793526 0.04873031 -0.01992884
v -0.02031954 0.04662021 -0.02787982
v 0.05156772 0.04534981 0.04186000
v -0.08457893 0.00725686 -0.00990744
v 0.06331137 -0.01931171 -0.03523756
v 0.06782693 -0.00535216 0.00166990
v 0.05903096 0.04810449 0.04144742
v -0.08264315 0.01004354 -0.00439294
v 0.06214219 -0.03403844 -0.02527515
v -0.07656257 0.01914563 0.00104757
v -0.02099391 0.05078713 -0.01315139
v 0.05142866 -0.03554025 -0.02678427
v -0.02656595 0.05101375 -0.00332125
v 0.05334738 -0.04338076 -0.01599808
v 0.05624277 0.04303072 0.04841530
v 0.06909858 -0.01575907 0.00055077
v -0.01874693 0.05108577 -0.00122325
v -0.06500054 0.01812667 0.00462126
v -0.08530340 0.00332091 -0.01453046
v 0.07021896 -0.04809243 -0.00445231
v -0.08189843 0.01330081 -0.00169512
v -0.02666195 0.04885079 0.00882162
v -0.06226787 0.01772797 0.00769576
v 0.07454116 -0.03981605 -0.01834659
v -0.07009387 0.02414241 0.01050442
v -0.02569614 0.04505892 0.01800006
v 0.06684162 -0.00070494 0.00663626
v -0.08168781 0.00615731 -0.01476778
v 0.05049318 0.03554606 0.05246977
v 0.05589978 0.03867937 0.05299696
v -0.00367263 0.04675176 0.02171641
v -0.05271730 0.02147417 0.01123482
v -0.05365790 0.02959532 0.01716229
v -0.05867639 0.02878924 0.01631412
v 0.07570243 -0.03760592 -0.01120974
v -0.07863427 0.00379196 -0.00849723
v -0.04270885 0.01140999 0.01634122
v 0.05364084 0.03001480 0.05815238
v -0.01587658 0.02743710 0.04058633
v 0.05113783 0.02695832 0.05863175
v 0.05404758 0.02538143 0.06127391
v -0.04820717 0.02994598 0.02214250
v -0.04436551 0.03224641 0.02004354
v 0.05575764 0.01960012 0.06307996
v -0.04575497 0.03066379 0.02438764
v -0.04529430 0.02810514 0.02938771
vn -0.18388800 -0.36862904 -0.91120680
vn -0.14601410 0.53412446 -0.83270100
vn -0.08285039 -0.94521440 0.31576185
vn 0.09637196 -0.61728305 0.78081629
vn -0.89830674 -0.22170620 0.37933015
vn -0.94136108 -0.17278243 -0.28980261
vn 0.20424710 -0.88915274 0.40950034
vn -0.06283485 -0.97474700 0.21428969
vn -0.17852097 -0.75945556 0.62558574
vn -0.30112538 -0.11618826 0.94647969
vn -0.20690495 -0.93446572 0.28976571
vn -0.21080330 -0.18431431 0.95999490
vn -0.32668686 -0.90580884 0.26978888
vn -0.28449911 -0.55811848 -0.77946393
vn -0.21194857 0.09824754 0.97232979
vn -0.08458267 -0.99293587 0.08321133
vn -0.07154368 -0.99617993 -0.05007040
vn 0.09930651 -0.99341433 0.05715049
vn -0.92119161 -0.17091131 -0.34956450
vn -0.71048158 0.25739891 0.65495170
vn -0.79666725 -0.47408221 0.37492312
vn 0.49426874 0.16396175 0.85370660
vn -0.04360038 0.74246919 -0.66845981
vn -0.08185102 -0.97563210 -0.20357411
vn -0.30789522 -0.17065558 -0.93598996
vn -0.03559793 -0.23015408 -0.97250290
vn 0.94808756 0.03562003 0.31600822
vn 0.68840453 -0.65690448 0.30753164
vn -0.09771449 -0.78651431 0.60979268
vn 0.54887487 -0.17882060 0.81655347
vn -0.73362655 0.07655889 -0.67522650
vn -0.29913707 -0.67618553 0.67326825
vn -0.29918342 -0.26035323 0.91798991
vn -0.93856109 -0.16495002 -0.30314118
vn -0.37364048 0.64617411 0.66547112
vn -0.65430662 0.62789631 0.42146065
vn -0.99783920 -0.03494229 -0.05564136
vn -0.34855450 -0.07435089 0.93433490
vn 0.17725691 -0.60973610 -0.77252953
vn 0.60678327 -0.47206876 0.63950382
vn -0.95249329 -0.18108071 0.24488019
vn -0.22412588 -0.14953616 0.96301949
vn -0.87398518 0.18694389 -0.44855534
vn -0.13198045 -0.69573681 0.70606760
vn 0.68834198 -0.33698617 0.64235944
vn -0.35357220 -0.16881023 0.92004881
vn -0.23198622 0.69882203 -0.67663148
vn -0.10984170 -0.18303059 0.97695169
vn -0.36586329 -0.40728111 0.83681907
vn -0.98674079 0.01987783 0.16108224
vn 0.26176507 -0.96232365 0.07356791
vn -0.20669871 0.68037179 0.70311441
vn -0.63069443 0.12344142 0.76615060
vn -0.07998650 -0.41654810 0.90558812
vn 0.08246032 0.99658354 -0.00464062
vn -0.25206236 -0.52567409 0.81248465
vn -0.32916520 -0.24981933 0.91062647
vn 0.21575389 0.85231787 -0.47644989
vn -0.35901971 0.52961134 0.76851589
vn -0.21406517 0.00018440 0.97681936
vn -0.17737896 -0.44045828 0.88007568
vn -0.91716798 0.33074290 0.22228816
vn -0.29686025 -0.75006723 0.59099335
vn -0.21241779 -0.14703059 0.96605418
vn -0.23131401 0.03339105 0.97230595
vn -0.35989190 0.60744652 -0.70815715
vn -0.67029334 -0.38163372 -0.63644524
vn 0.35968065 -0.75486259 0.54846358
vn -0.22543601 -0.03335366 0.97368688
vn -0.25825244 -0.11285767 0.95946278
vn -0.09140168 0.83253568 0.54637906
vn -0.12366587 -0.76964336 0.62638315
vn 0.06904190 0.04391972 0.99664651
vn -0.23554106 0.20852631 0.94922979
vn -0.46112239 -0.16243423 0.87234240
vn -0.12595590 -0.76852248 0.62730241
vn -0.81285813 -0.16753285 -0.55784801
vn -0.23318370 -0.14198908 0.96201063
vn -0.42783880 -0.22025305 0.87660855
vn -0.72552305 -0.05273246 -0.68617461
vn 0.18269656 0.36808061 -0.91166805
vn -0.15750833 -0.15816642 0.97476895
vn -0.02084566 0.93084835 -0.36481065
vn 0.22144103 -0.48925551 -0.84355967
vn -0.12832709 -0.69936239 0.70315319
vn 0.18337964 -0.37589358 -0.90833690
vn -0.29529146 0.06474243 0.95321109
vn -0.32965336 0.25743353 0.90832628
vn -0.13313734 -0.68374256 -0.71747512
vn -0.22224197 0.26939718 0.93703451
vn 0.01522417 0.96820660 -0.24968822
vn 0.20303268 -0.24539120 -0.94792452
vn 0.11496724 0.40284432 -0.90801927
vn 0.21439487 -0.21552115 -0.95267281
vn 0.20911967 -0.48306591 -0.85024484
vn 0.99582719 -0.00150238 0.09124662
vn 0.00712965 0.98967667 -0.14314070
vn -0.21855462 0.28790142 0.93238761
vn -0.19004466 0.12577475 0.97368565
vn -0.17617710 -0.55147972 0.81537215
vn 0.22083468 0.14136753 -0.96501154
vn 0.72267942 -0.30969328 0.61791951
vn 0.76091811 0.57978053 -0.29130425
vn 0.08859774 0.88049405 -0.46570448
vn -0.23558932 0.03984560 0.97103553
vn -0.20735972 -0.22931846 0.95100736
vn -0.15511857 -0.54229811 0.82574269
vn 0.16004542 -0.68183211 -0.71378599
vn -0.17563245 0.06849873 -0.98206984
vn 0.04749783 0.95360345 -0.29729515
vn 0.07074161 0.15822128 -0.98486631
vn -0.07860000 -0.64411134 0.76088279
vn 0.08419074 0.89982628 -0.42804741
vn -0.26161354 0.43355040 -0.86231804
vn 0.13972802 -0.73425887 -0.66433424
vn -0.14255869 0.47342682 -0.86922038
vn 0.06313442 -0.92258675 -0.38058867
vn -0.19797551 0.59444620 0.77938399
vn 0.01105350 -0.04578714 -0.99889006
vn -0.83313449 0.16959539 -0.52642600
vn 0.06037168 0.15924505 -0.98539143
vn 0.82304526 -0.12444226 0.55417562
vn 0.15506133 -0.80617663 -0.57099494
vn -0.17474614 0.59570484 0.78396399
vn -0.01780458 -0.97236053 -0.23280462
vn 0.92390755 0.06666746 0.37676290
vn 0.08199904 0.80441161 -0.58838602
vn -0.83152118 0.32803954 -0.44828851
vn -0.44865030 0.24030062 -0.86079528
vn 0.22484365 -0.07071745 -0.97182528
vn -0.53993349 0.40026350 0.74044646
vn -0.04915419 0.99822081 0.03375021
vn -0.96550849 -0.00578295 -0.26030736
vn -0.21749739 -0.09313288 0.97160751
vn 0.18264740 -0.20754159 -0.96102363
vn 0.02911165 -0.97599133 -0.21585513
vn 0.11329345 0.04694845 -0.99245173
vn 0.30742414 0.34314843 -0.88754693
vn 0.69226923 0.16241018 -0.70312605
vn -0.17284218 -0.46604881 0.86771198
vn 0.04612199 -0.05225262 -0.99756826
vn 0.22143759 -0.15388925 -0.96295560
vn -0.91153621 -0.40360045 -0.07879345
vn -0.03152375 -0.69310599 0.72014606
vn -0.07395589 0.98079887 0.18045527
vn 0.09089002 -0.86737446 -0.48928576
vn 0.04981781 -0.89878249 -0.43555507
vn 0.12949062 -0.08307900 -0.98809415
vn 0.20981483 0.40249655 -0.89105234
vn 0.10138012 -0.38393006 0.91777981
vn -0.08840927 0.26947325 -0.95894107
vn -0.00957279 -0.08384214 -0.99643307
vn 0.20455657 0.26233189 -0.94304750
vn -0.18211549 -0.76448628 -0.61838068
vn 0.05968275 -0.93583887 -0.34733785
vn 0.08504383 0.32653250 -0.94135226
vn 0.95792620 0.09986916 -0.26907907
vn 0.31125669 0.84393006 -0.43692257
vn -0.06303838 -0.96726970 -0.24579563
vn 0.47154350 0.21227927 -0.85591135
vn 0.22916369 -0.24100420 -0.94308058
vn 0.25244243 -0.03648579 -0.96692379
vn 0.05929352 -0.00998275 0.99819067
vn 0.05508414 0.59422253 -0.80241219
vn 0.18512826 -0.22540773 -0.95651392
vn -0.03965215 -0.72927578 0.68306994
vn 0.08235010 0.22656942 -0.97050747
vn 0.16937114 -0.53660802 -0.82665909
vn 0.19666295 0.49154965 -0.84835289
vn -0.21332862 0.38970087 0.89589292
vn -0.31104424 0.91153542 0.26898820
vn -0.97990229 0.13251232 -0.14910397
vn 0.35683320 0.81078948 -0.46399406
vn 0.18195778 -0.69776283 -0.69283360
vn -0.28574813 0.18410860 0.94045310
vn 0.02392283 -0.99898545 -0.03815446
vn 0.06372269 -0.99629684 -0.05772371
vn -0.90953736 0.41441336 -0.03167582
vn -0.00381323 -0.98446667 0.17553016
vn 0.19536469 -0.61696612 -0.76235519
vn -0.03516971 -0.99680185 -0.07175766
vn 0.16604909 0.70135986 -0.69319697
vn 0.18607680 0.47073081 -0.86243141
vn -0.02298433 -0.98357463 0.17903259
vn -0.74163066 -0.39171790 -0.54455584
vn -0.62307723 0.23142543 0.74713923
vn -0.22820977 -0.31758536 0.92035854
vn -0.24453511 0.00178428 0.96963880
vn 0.02798797 -0.91083533 0.41181996
vn -0.22223237 0.35087771 0.90966895
vn 0.16491799 0.72973324 -0.66354462
vn 0.11113000 0.78707851 -0.60675988
vn 0.81433953 0.48470934 0.31923031
vn -0.25269445 0.14469998 0.95666474
vn 0.58914441 0.54597753 -0.59566551
vn 0.16942871 -0.82538206 -0.53855210
vn 0.15908196 -0.70000138 -0.69619753
vn -0.79419526 0.21711455 -0.56755190
vn 0.13461283 0.75000331 -0.64759124
vn 0.14919694 0.76399144 -0.62773987
vn -0.26683404 0.17698211 0.94735259
vn -0.22148197 -0.24183503 0.94470183
vn -0.18368484 -0.26817310 0.94569713
vn -0.17481164 -0.94629892 0.27195448
vn 0.08981350 0.77919616 -0.62031192
vn -0.97157321 0.00082009 -0.23673786
vn 0.13558076 -0.88881526 -0.43775025
vn -0.55345276 0.42343399 -0.71721245
vn -0.07102555 -0.85552285 0.51287037
vn 0.43072336 0.68307594 -0.58981746
vn 0.22112816 0.07886148 -0.97205103
vn 0.07624942 -0.96667366 -0.24439324
vn 0.13452084 -0.83541119 -0.53290926
vn -0.19930243 -0.26088680 0.94457219
vn -0.46097421 0.79670258 0.39085519
vn -0.20107367 0.25066450 -0.94696182
vn -0.75845282 0.12434882 -0.63975519
vn -0.97168665 0.23280921 -0.04031028
vn 0.14155446 -0.84112263 -0.52199144
vn 0.08925307 -0.94812946 -0.30509738
vn 0.07326958 0.90647466 -0.41585485
vn 0.35313152 0.62134334 -0.69945020
vn 0.20065325 0.30777575 -0.93006041
vn 0.01850672 -0.99944415 0.02772903
vn -0.55856021 0.57263370 -0.60008428
vn 0.09070793 -0.95059958 -0.29687119
vn -0.04489716 0.88771918 -0.45819091
vn 0.07446500 -0.51618352 0.85323475
vn -0.03583519 -0.99183020 0.12242828
vn 0.98418718 0.15906416 0.07793706
vn -0.42614750 0.42473336 -0.79874895
vn -0.98482297 -0.17291301 0.01499362
vn -0.94537499 -0.20857514 0.25052451
vn 0.02045840 -0.99944818 0.02616834
vn 0.06222511 -0.97802381 -0.19899111
vn -0.92586177 0.09579006 0.36551914
vn -0.03340219 -0.99683135 -0.07219111
vn 0.06801098 0.92021223 -0.38546591
vn -0.02407904 0.98115511 -0.19171553
vn 0.05907958 0.94180967 -0.33091412
vn 0.04183853 0.61273358 -0.78918128
vn 0.03023851 -0.99944905 -0.01368282
vn -0.20669097 -0.24558843 0.94708245
vn -0.96843028 -0.01549718 -0.24880241
vn 0.03548014 -0.23472687 0.97141364
vn -0.91625868 -0.04151127 -0.39843047
vn 0.93443112 -0.27446181 -0.22695639
vn 0.40724338 0.87433922 -0.26397683
vn -0.09573581 -0.72042997 0.68688814
vn -0.09721838 -0.88393061 0.45740055
vn -0.02542536 -0.97224237 0.23259047
vn -0.07041123 0.99390222 -0.08485657
vn 0.22115582 0.01886988 -0.97505591
vn 0.78765941 0.40242471 0.46652653
vn 0.13844249 0.96778074 -0.21031908
vn 0.96175810 0.27044132 0.04339189
vn -0.39357509 -0.90608793 -0.15525242
vn 0.16755409 0.56427941 0.80840236
vn -0.04781479 -0.97046248 0.23646632
vn -0.80419825 0.58353290 -0.11293591
vn -0.00343400 0.99919165 -0.04005314
vn 0.00875447 -0.92511146 0.37959470
vn -0.55027644 -0.29300130 -0.78188623
vn -0.93547663 -0.07674302 0.34495505
vn -0.15276274 0.93128598 -0.33071130
vn -0.78333091 -0.60977421 0.12069837
vn -0.38505261 0.67678895 -0.62744817
vn -0.07381227 0.99685816 -0.02873243
vn 0.05290393 0.94326961 -0.32778593
vn -0.10703135 0.36251802 -0.92581044
vn 0.26082973 0.75239530 -0.60487120
vn 0.37280089 -0.15868123 -0.91424273
vn 0.28523549 0.78051592 0.55626937
vn -0.11060929 -0.88252499 0.45707246
vn -0.77635923 -0.53608621 -0.33147839
vn -0.03379102 -0.87017253 0.49158716
vn -0.71887123 -0.56047130 -0.41121294
vn 0.10677184 -0.77396451 0.62416241
vn -0.43317196 -0.83176125 -0.34718191
vn -0.06370368 0.95557832 -0.28777060
vn -0.11079161 0.98796110 0.10797262
vn 0.08975719 0.73494586 -0.67215938
vn 0.36076966 0.17812764 -0.91548664
vn -0.05001950 -0.92093176 0.38650064
vn -0.81476005 -0.14319016 -0.56183862
vn -0.07863998 -0.89169327 0.44575650
vn 0.01157040 0.98996757 -0.14082021
vn -0.20631294 -0.70559209 0.67791945
vn 0.97004593 -0.00795275 0.24279136
vn -0.33110655 -0.82596478 -0.45623529
vn 0.95284163 -0.05298570 0.29880652
vn 0.95979404 -0.24124608 0.14351211
vn 0.03210396 0.94520101 -0.32490674
vn 0.17961720 -0.41332638 -0.89269197
vn -0.01057949 -0.16571703 0.98611660
vn 0.68620096 0.36026560 -0.63193112
vn 0.39185919 0.58488638 -0.71017907
vn -0.82799751 0.49142961 0.27003159
vn -0.85675001 0.21648708 0.46809482
vn -0.18711522 0.63407919 0.75028759
vn -0.19815753 -0.34600077 0.91706982
vn -0.00324783 0.99497925 -0.10002875
vn -0.02062860 0.99249676 -0.12051818
vn 0.47212347 0.00930071 -0.88148336
vn 0.96543211 -0.07154290 0.25064407
vn -0.98716173 0.03195454 0.15649483
vn -0.06805926 -0.70206798 0.70885012
vn 0.96854093 -0.08829070 0.23266545
vn 0.00941505 0.98816151 -0.15312798
vn -0.22916733 -0.37691772 0.89744937
vn 0.87557541 -0.29316811 -0.38395334
vn -0.07216769 -0.57070003 0.81798124
vn -0.19571810 0.91790143 -0.34518313
vn -0.54256704 -0.64410994 -0.53920626
vn -0.12039433 -0.75457020 0.64508063
vn 0.65951999 -0.75143290 -0.01954425
vn -0.95810013 0.04821075 -0.28234705
vn 0.86490924 -0.48268096 -0.13766302
vn 0.10988840 0.74383285 -0.65927023
vn -0.58135055 0.51317374 -0.63141448
vn -0.98347906 0.05333529 -0.17298638
vn -0.10025051 0.98346197 0.15083897
vn -0.03864647 0.99669361 0.07147232
vn -0.21259754 -0.93534281 0.28272975
vn -0.05474022 0.98974177 0.13196494
vn -0.21661898 0.45522721 0.86362284
vn 0.42993932 0.33466850 0.83853991
vn -0.55843222 0.07747435 0.82592444
vn 0.98640512 0.00135487 0.16432620
vn 0.97726912 -0.08492310 0.19425016
vn 0.52640898 -0.28356688 -0.80155063
vn -0.21395515 0.45636003 0.86368902
vn 0.13176693 0.32076244 -0.93794932
vn -0.84143002 -0.45459480 -0.29212853
vn -0.34373773 -0.30431488 0.88839002
vn -0.34740984 -0.88563323 -0.30815611
vn 0.08808748 0.72824591 -0.67963114
vn -0.30678941 0.01947898 0.95157807
vn 0.91617742 0.37972775 -0.12816309
vn 0.94663611 0.32172500 -0.01931562
vn -0.11637492 0.93763918 0.32755099
vn -0.63683430 -0.74998097 0.17880329
vn -0.35426879 -0.34396227 0.86958817
vn -0.96048322 -0.27833788 -0.00006600
vn -0.18114100 0.93508309 0.30464333
vn -0.94038444 0.06823440 -0.33319840
vn 0.97637227 -0.19481256 0.09351612
vn 0.94343342 0.30616416 0.12726701
vn -0.45536185 -0.24141098 -0.85695177
vn 0.99381943 -0.07917344 0.07781069
vn -0.97300997 0.17250534 -0.15327593
vn 0.74055937 -0.01922022 0.67171601
vn 0.70484006 0.17270589 0.68802120
vn 0.04368586 0.08901387 0.99507189
vn -0.23218411 0.34595249 -0.90906953
vn -0.91574335 -0.39969042 0.04076374
vn 0.10319889 -0.93878942 -0.32867069
vn -0.14664316 -0.21879097 -0.96468974
vn 0.15796465 0.20603588 -0.96571030
vn 0.88322478 -0.26135905 -0.38936542
vn 0.56897519 -0.79487100 0.21082533
vn 0.99450698 -0.05240671 0.09060574
vn 0.98410644 -0.09172970 0.15205318
vn -0.97224409 -0.00910473 -0.23379165
vn -0.62414681 0.20295673 -0.75448613
vn -0.98278267 -0.18157087 -0.03420895
vn 0.77877418 0.52964836 -0.33613003
vn 0.52541222 0.24061683 -0.81611613
vn 0.91978419 0.26561776 0.28886717
vn 0.51931693 -0.42952349 -0.73879598
vn -0.96720938 -0.00286376 -0.25396418
vn -0.41767634 0.69141614 -0.58948299
vn 0.93092774 0.35065115 0.10206521
vn -0.10002858 -0.95667484 -0.27343651
vn -0.16018249 -0.81500975 0.55686684
vn -0.05555954 0.86591530 -0.49709539
vn 0.21816625 0.18737647 -0.95775443
vn -0.14017490 0.84987773 0.50799491
vn -0.41808764 0.63832332 -0.64633278
vn 0.01761278 -0.99718807 -0.07284049
vn 0.11373568 -0.39578577 -0.91127264
vn -0.49688149 -0.82861239 0.25789591
vn 0.98380856 -0.13017542 0.12318718
vn 0.06028539 0.65077476 -0.75687376
vn -0.22830007 0.03160610 0.97307766
vn 0.04251290 -0.99828967 -0.04012964
vn 0.99131891 -0.07497185 0.10800941
vn -0.67082105 -0.57217644 -0.47181908
vn 0.11548715 0.37917930 -0.91808811
vn -0.06958723 -0.61858648 0.78262915
vn 0.87117965 -0.44617271 0.20488027
vn -0.12306847 -0.99159954 -0.03980573
vn -0.26906998 0.74554837 0.60972041
vn 0.98406422 0.09007828 0.15330854
vn -0.15052846 0.81148969 0.56464649
vn -0.97333452 -0.01828693 -0.22866024
vn 0.40450560 0.71842575 -0.56589721
vn -0.98471975 0.01249219 -0.17369789
vn 0.99845836 0.01831273 0.05239802
vn 0.14521331 0.50784803 -0.84911923
vn 0.35798695 -0.68454872 -0.63501055
vn 0.48081441 -0.79970710 -0.35956370
vn -0.92993072 -0.34399345 0.12998988
vn -0.22326882 -0.03424841 0.97415506
vn -0.13847544 -0.56325092 0.81459988
vn -0.20676248 -0.74933894 -0.62907903
vn -0.92891207 0.06761372 -0.36407521
vn 0.98515996 0.14120017 0.09758262
vn -0.91301157 0.07255349 -0.40142978
vn -0.18339796 0.59942281 0.77913893
vn 0.17753493 0.18984023 -0.96563038
vn 0.19917585 0.32845945 -0.92327860
vn -0.95272540 0.11187526 -0.28248582
vn -0.07426112 -0.99713018 0.01472038
vn -0.30755513 -0.34277009 0.88764774
vn 0.14443405 0.74926623 -0.64632726
vn -0.12904122 -0.98514153 0.11333373
vn -0.54543886 0.38958474 0.74210524
vn 0.79453559 0.50763802 -0.33319189
vn -0.97358610 -0.01345721 -0.22792325
vn 0.97865879 -0.13713294 0.15304093
vn 0.33536431 0.93173780 -0.13926757
vn 0.16110137 0.40132418 -0.90165695
vn -0.06173418 -0.98928274 0.13231986
vn -0.10468339 -0.98874465 0.10688969
vn 0.82347470 0.34513529 0.45030106
vn -0.15798049 -0.95403565 0.25467261
vn -0.92238806 0.16893622 -0.34736267
vn -0.23246040 -0.23693528 0.94330474
vn 0.56888834 0.70834105 -0.41787439
vn 0.98796610 0.02363718 0.15285378
vn -0.21279866 0.46848310 0.85746155
vn -0.19115372 0.65489075 0.73114866
vn 0.35697432 -0.91985642 0.16258385
vn -0.97090329 -0.03208672 -0.23731255
vn -0.97003598 -0.02167227 -0.24199279
vn -0.12681782 -0.86796054 -0.48016844
vn 0.86201968 0.11726852 0.49312287
vn 0.98069615 0.04744031 0.18969576
vn -0.65292812 0.60324286 -0.45802065
vn -0.22620748 -0.69307770 0.68445122
vn -0.70209676 -0.06412785 -0.70918810
vn 0.06351923 0.38949981 -0.91883361
vn 0.15227388 0.69680305 -0.70091239
vn -0.76173028 -0.46315084 -0.45305440
vn -0.24949467 0.49881192 0.83002354
vn -0.87745033 0.39079825 -0.27813243
vn 0.08406114 0.70927701 -0.69989988
vn -0.25828314 0.61765667 0.74282573
vn -0.15059773 0.86932896 0.47073079
vn 0.14709745 -0.05303072 -0.98769939
vn 0.97787744 0.03329331 0.20651216
vn -0.23176162 0.46388718 0.85504107
vn -0.97979477 -0.03852359 -0.19626039
vn -0.71900128 0.63701004 -0.27794850
vn -0.36347553 -0.83528255 -0.41253922
vn 0.23802126 -0.07168001 -0.96861130
vn -0.57032500 -0.00769208 0.82138312
vn -0.96998399 -0.01749790 -0.24253841
vn -0.74030510 -0.59481902 -0.31327095
vn -0.97446268 0.05696589 -0.21720353
vn -0.57417034 0.79163116 0.20892230
vn -0.23658219 0.19485395 0.95187226
vn -0.97548803 0.00749546 -0.21992480
vn 0.21458728 0.00229731 -0.97670211
vn -0.88641631 0.41411705 -0.20681683
vn -0.22609697 0.35328712 0.90778212
vn 0.02358944 -0.98396564 -0.17679128
vn 0.26286919 -0.96023497 0.09406692
vn -0.18097792 -0.94937662 -0.25677040
vn 0.23919118 -0.23985356 -0.94088142
vn 0.13615807 0.00495566 -0.99067473
vn -0.07675787 -0.99584517 -0.04899625
vn -0.25163285 0.42807734 0.86800386
vn -0.92366301 -0.31359258 -0.22024152
vn -0.19750135 -0.86706750 0.45736983
vn -0.16500840 0.79450361 0.58441103
vn -0.34016404 0.32552480 0.88222561
vn 0.58376427 0.36899275 -0.72323138
vn -0.82830114 -0.43634715 -0.35145182
vn 0.00644602 -0.19372095 0.98103549
vn -0.97732399 -0.02658145 -0.21007439
vn 0.21478913 -0.38195281 -0.89887579
vn -0.24392293 0.31546209 0.91705249
vn -0.09706116 0.97670986 -0.19135564
vn -0.71560474 -0.37266366 -0.59078901
vn 0.71104450 0.54424014 -0.44521723
vn -0.35704716 0.18269407 0.91604596
vn 0.37882522 0.71096365 0.59247121
vn -0.97379248 0.14227013 -0.17744692
vn -0.66237460 -0.21915282 0.71640207
vn -0.71008995 -0.64058272 0.29227734
vn 0.97823091 0.14132810 -0.15195607
vn 0.17624067 0.53219456 -0.82807498
vn 0.05725392 -0.99485377 -0.08359410
vn 0.48214154 0.45533689 0.74847034
vn 0.08885561 0.60803472 -0.78892234
vn 0.12664168 0.74486800 -0.65508286
vn -0.42563581 -0.69280740 0.58211002
vn -0.66663897 -0.72661500 -0.16620207
vn -0.20372964 0.25065886 0.94639546
vn -0.14380095 -0.63641739 0.75782201
vn 0.20729283 -0.54855882 -0.81000796
vn -0.15486999 -0.98620140 -0.05849854
vn -0.65794290 -0.63938968 0.39785925
vn -0.93657081 0.08530654 -0.33993810
vn -0.33767475 -0.75142137 -0.56687008
vn -0.20257297 0.95796864 -0.20312627
vn -0.12903262 0.22095513 -0.96671061
vn -0.89215199 -0.36545611 0.26553091
vn -0.33484091 -0.42720658 0.83986672
vn -0.09809799 -0.95487646 0.28033502
vn 0.48663799 0.84903878 0.20571004
vn -0.97255633 -0.01524469 -0.23216758
vn -0.06784956 -0.33315250 0.94042855
vn -0.74538137 0.06632879 0.66333031
vn 0.99321616 -0.03753371 -0.11005853
vn 0.29463987 0.72521826 0.62229079
vn -0.96051529 0.08412132 -0.26520555
vn -0.94657603 -0.04353690 -0.31952834
vn 0.21632652 -0.33319678 -0.91770515
vn 0.20034818 0.40091711 -0.89393852
vn -0.21561990 0.69191690 0.68902762
vn 0.17151457 -0.72270240 -0.66954013
vn 0.22491024 0.20324224 -0.95294700
vn 0.29528687 -0.84141805 0.45257191
vn 0.69363382 0.62770082 0.35336073
vn 0.35853278 -0.87349909 0.32932291
vn 0.01520842 0.98553918 -0.16876385
vn -0.58467507 0.69776638 -0.41385643
vn 0.03873266 0.94447250 -0.32629968
vn 0.03248674 0.96319964 -0.26681653
vn -0.26338044 0.52581989 0.80879181
vn -0.49136670 -0.77376454 0.39980896
vn 0.74826348 0.61996254 -0.23611060
vn 0.87663754 -0.36559588 0.31280390
vn 0.02632961 -0.96053946 -0.27689474
vn 0.41775164 -0.63372380 -0.65105892
vn -0.50006672 0.63834306 -0.58519349
vn 0.98979898 0.11795160 0.07990871
vn 0.99480479 0.08239765 0.05978335
vn -0.47278473 -0.88066808 -0.02997236
vn -0.33749872 -0.26027816 0.90462694
vn -0.82679878 0.04105731 -0.56099740
vn -0.43739849 0.32636781 -0.83795382
vn -0.26577380 0.39005595 0.88160118
vn -0.03089974 -0.97907002 0.20116435
vn -0.09801034 -0.82517327 0.55631201
vn -0.23468066 0.27965416 0.93097719
vn -0.08214663 0.95535502 0.28381106
vn -0.52256681 -0.32890698 0.78660290
vn -0.93372453 -0.35122694 -0.06926855
vn -0.07385515 0.91352145 -0.40002998
vn -0.68478286 0.35537748 -0.63622267
vn -0.10639230 0.93147585 0.34789859
vn -0.03150157 -0.74892145 0.66190959
vn 0.03202030 0.86474723 -0.50118552
vn 0.96752993 0.15918480 0.19633143
vn -0.22842163 0.14513435 0.96268353
vn -0.52662761 0.68596434 -0.50211182
vn -0.11432988 0.90769595 0.40375331
vn 0.22768128 -0.46499905 -0.85553323
vn -0.90799172 -0.40918280 -0.09011366
vn -0.56872526 -0.81899710 -0.07612708
vn 0.11164992 -0.82708800 -0.55087180
vn -0.15332635 -0.85563049 0.49435563
vn 0.54143163 0.72707669 0.42215078
vn -0.21859570 -0.79772535 0.56200551
vn -0.25730426 0.31438425 0.91375985
vn -0.04148920 -0.77583269 0.62957310
vn -0.15728770 0.00986049 -0.98750360
vn 0.09250460 0.99549834 -0.02063872
vn -0.17259756 -0.87067408 0.46058303
vn -0.17801445 -0.72440207 0.66599737
vn 0.98671413 -0.02662630 0.16026937
vn -0.11435453 0.81604090 0.56656888
vn -0.11444682 -0.80135987 0.58713226
vn 0.11819484 -0.38758102 -0.91422696
vn -0.29889675 -0.57580395 0.76099313
vn 0.01463995 -0.56720374 -0.82344738
vn 0.19819707 0.93048924 -0.30807093
vn 0.13062867 -0.70492835 -0.69714573
vn -0.04694272 0.90247210 -0.42818277
vn -0.36872920 -0.90588855 0.20833797
vn 0.77147225 0.60186286 0.20637747
vn -0.15731343 0.79530520 0.58544182
vn -0.07881258 0.98930328 0.12275016
vn -0.17135830 0.92093492 -0.35002173
vn -0.15197190 0.98583450 -0.07095695
vn 0.91591684 -0.33648085 -0.21880810
vn 0.38850529 0.90757255 0.15929756
vn 0.13149404 0.69668237 -0.70522549
vn 0.07050576 0.50523106 -0.86009913
vn -0.18808844 0.65658640 0.73042251
vn -0.62079255 0.74648313 -0.23954029
vn 0.13487796 -0.78413208 0.60575971
vn -0.28583296 -0.52261226 0.80322845
vn -0.21229167 0.97719610 -0.00447647
vn -0.10104185 -0.76524393 0.63576118
vn 0.20412815 0.75666881 -0.62111513
vn -0.17449381 0.97688959 0.12344485
vn 0.99700572 0.01546932 0.07576472
vn 0.42648412 0.41205273 -0.80518560
vn 0.91154780 -0.09901085 -0.39909579
vn -0.90776900 0.09953948 -0.40748906
vn 0.95464958 0.10860293 0.27721758
vn 0.90078202 0.43008596 0.06014826
vn -0.36747773 0.92614110 -0.08498691
vn -0.95254632 0.03217025 -0.30268892
vn 0.89866280 -0.00267453 0.43863198
vn -0.03099652 0.99489326 -0.09605530
vn 0.94406987 -0.01738142 0.32928707
vn -0.36107302 0.93250662 -0.00759420
vn -0.16925375 0.77885285 0.60393824
vn -0.91072570 0.35097757 -0.21770035
vn 0.99891970 -0.00651471 0.04601080
vn -0.03488431 -0.76290271 0.64557148
vn -0.81810485 0.55593723 0.14709946
vn -0.96878751 0.03757700 -0.24502801
vn -0.20351575 0.61943060 0.75821308
vn 0.17251063 0.62141712 -0.76425182
vn -0.17109887 0.80672826 0.56561002
vn -0.89159651 0.45260657 0.01424663
vn -0.97403099 -0.00309069 -0.22639363
vn -0.63805487 0.76223797 0.10899203
vn -0.33898627 0.93677599 0.08682777
vn 0.23275770 0.94734141 0.21992749
vn -0.12508002 -0.70381827 0.69928166
vn -0.08452455 0.73236699 -0.67564354
vn 0.15755305 0.76524339 -0.62416311
vn -0.37656822 0.90648315 -0.19100961
vn -0.97173240 -0.02389667 -0.23487249
vn -0.21289432 -0.21992941 0.95200161
vn -0.00710589 -0.97419711 -0.22558700
vn -0.93444955 0.13090237 -0.33116251
vn 0.25021710 -0.94907736 0.19142508
vn 0.96381623 -0.08527194 0.25256083
vn -0.14745699 -0.63801843 0.75577042
vn -0.21212858 -0.39128348 0.89548797
vn 0.00734337 0.91419482 0.40520847
vn 0.07783599 -0.97480247 -0.20904953
vn 0.14480872 -0.83176764 -0.53590393
vn 0.53361110 -0.54565941 0.64615401
vn 0.02892602 -0.99951761 -0.01130631
vn 0.97775009 -0.18898911 -0.09103774
vn 0.01951582 -0.99943518 0.02735782
vn -0.88249384 0.43321141 -0.18311879
vn -0.25465395 0.87085523 0.42043136
vn -0.20806383 -0.61478373 0.76075647
vn 0.13591258 -0.58394408 0.80033561
vn -0.94429694 -0.02190753 -0.32836466
vn 0.99015809 -0.03434284 -0.13567432
vn -0.04247456 0.77155633 0.63474148
vn 0.04904774 -0.81039647 -0.58382521
vn -0.98435491 0.01824079 -0.17525033
vn -0.78170417 -0.56441612 0.26527916
vn 0.40158359 -0.79633201 -0.45231179
vn -0.25065626 -0.50009127 0.82890299
vn -0.04129072 0.88130776 -0.47073528
vn -0.60831762 0.73437627 -0.30106671
vn 0.31128602 0.78887371 -0.52988610
vn 0.65568909 0.65962511 0.36737790
vn 0.67792836 0.70232453 0.21714832
vn -0.85644826 -0.38072693 0.34863072
vn -0.30007665 0.73394687 -0.60932421
vn 0.20496719 -0.02781144 -0.97837364
vn 0.00248960 -0.88830174 -0.45925356
vn -0.16660799 0.90527845 0.39078472
vn 0.91439590 -0.40406786 -0.02468398
vn -0.30046761 0.02634117 0.95342821
vn 0.98277637 -0.14656567 -0.11255716
vn 0.57507314 0.81312939 0.09006369
vn 0.08854413 -0.22089850 -0.97126916
vn 0.64960280 -0.71418040 -0.26069631
vn 0.04180128 0.99873364 -0.02799577
vn 0.29198784 0.55489779 -0.77899393
vn 0.22056245 -0.50999755 -0.83141729
vn 0.01006787 0.95155948 -0.30729985
vn -0.21760283 0.96873797 -0.11914593
vn -0.33834689 0.80776364 0.48274143
vn -0.99335849 -0.05971410 0.09835214
vn 0.15359264 -0.43014526 -0.88959786
vn 0.97810528 0.07138314 0.19548534
vn 0.30528781 0.80444146 0.50958148
vn -0.83992331 -0.14489806 0.52300419
vn 0.11066440 -0.67031664 -0.73377721
vn -0.31538544 0.86196863 -0.39691575
vn 0.00362052 0.99050798 -0.13740756
vn 0.19963998 -0.69490462 -0.69083387
vn -0.04204552 0.99631854 0.07470965
vn 0.12672206 -0.85797019 -0.49782394
vn 0.09144523 0.73845159 0.66807711
vn 0.96964221 0.13532036 0.20367223
vn -0.03462943 0.99700196 0.06919465
vn 0.60408676 -0.43451358 -0.66803977
vn -0.99948073 0.00510984 0.03181442
vn 0.27867574 -0.91769186 -0.28316334
vn -0.93181452 0.11408905 0.34453649
vn -0.09507282 0.95491179 0.28125546
vn 0.43909375 -0.89631677 -0.06174898
vn 0.57057991 -0.69057173 -0.44446513
vn -0.66410383 0.63641732 0.39235075
vn -0.12994591 0.87737010 0.46188286
vn -0.01623474 -0.54396137 0.83895319
vn -0.17222011 0.75830633 -0.62873822
vn -0.34575537 0.59116740 0.72867985
vn 0.11389193 0.62120456 0.77532801
vn -0.13724548 0.89744931 0.41922358
vn 0.43575143 -0.58493940 -0.68408083
vn -0.14978167 0.98348908 0.10156118
vn -0.43802799 0.78646502 0.43543571
vn 0.99007820 -0.12158213 0.07044821
vn -0.04843917 -0.76175531 0.64605146
vn -0.94613950 -0.13026957 -0.29639481
vn -0.22662264 0.58170482 0.78119248
vn -0.26309171 0.50770543 0.82037671
vn -0.40173609 0.46764494 0.78734765
vn -0.08634652 0.42986158 0.89875653
vn -0.84904720 0.47349066 0.23436180
vn -0.85112700 0.49303701 -0.18027015
vn 0.41346395 0.25758606 0.87332524
vn -0.83158541 0.40960389 0.37508715
vn -0.88513227 0.26901074 0.37970264
f 285//285 26//26 1//1
f 77//77 1//1 67//67
f 324//324 425//425 417//417
f 547//547 427//427 11//11
f 65//65 42//42 78//78
f 324//324 427//427 425//425
f 67//67 1//1 14//14
f 13//13 636//636 17//17
f 609//609 233//233 264//264
f 324//324 3//3 476//476
f 5//5 655//655 6//6
f 16//16 547//547 11//11
f 9//9 32//32 7//7
f 11//11 427//427 324//324
f 469//469 324//324 476//476
f 1//1 84//84 14//14
f 10//10 12//12 188//188
f 8//8 499//499 656//656
f 6//6 403//403 664//664
f 8//8 636//636 499//499
f 11//11 17//17 16//16
f 20//20 299//299 249//249
f 13//13 499//499 636//636
f 18//18 17//17 11//11
f 46//46 15//15 48//48
f 202//202 54//54 61//61
f 636//636 16//16 17//17
f 6//6 664//664 5//5
f 23//23 545//545 19//19
f 545//545 23//23 173//173
f 403//403 656//656 21//21
f 21//21 664//664 403//403
f 24//24 63//63 13//13
f 214//214 639//639 429//429
f 21//21 656//656 499//499
f 51//51 63//63 24//24
f 254//254 173//173 23//23
f 17//17 18//18 24//24
f 56//56 13//13 63//63
f 77//77 67//67 365//365
f 69//69 214//214 429//429
f 664//664 21//21 491//491
f 69//69 429//429 70//70
f 73//73 22//22 228//228
f 34//34 23//23 19//19
f 63//63 51//51 29//29
f 590//590 606//606 712//712
f 569//569 73//73 33//33
f 62//62 41//41 552//552
f 29//29 51//51 28//28
f 342//342 4//4 44//44
f 187//187 343//343 633//633
f 43//43 77//77 365//365
f 36//36 722//722 35//35
f 343//343 310//310 633//633
f 337//337 23//23 34//34
f 349//349 14//14 89//89
f 340//340 254//254 23//23
f 84//84 161//161 294//294
f 510//510 41//41 505//505
f 228//228 32//32 597//597
f 49//49 33//33 73//73
f 28//28 40//40 29//29
f 24//24 18//18 51//51
f 42//42 551//551 301//301
f 35//35 723//723 59//59
f 42//42 65//65 75//75
f 614//614 215//215 36//36
f 510//510 552//552 41//41
f 108//108 39//39 168//168
f 17//17 24//24 13//13
f 312//312 315//315 107//107
f 63//63 79//79 515//515
f 5//5 664//664 551//551
f 66//66 337//337 34//34
f 51//51 18//18 469//469
f 123//123 89//89 39//39
f 35//35 59//59 118//118
f 664//664 491//491 551//551
f 47//47 358//358 333//333
f 10//10 338//338 78//78
f 340//340 45//45 44//44
f 59//59 723//723 131//131
f 365//365 358//358 47//47
f 614//614 36//36 35//35
f 356//356 66//66 34//34
f 551//551 655//655 5//5
f 87//87 338//338 10//10
f 515//515 79//79 15//15
f 106//106 633//633 310//310
f 44//44 144//144 34//34
f 48//48 551//551 491//491
f 43//43 365//365 47//47
f 53//53 62//62 50//50
f 354//354 38//38 245//245
f 491//491 46//46 48//48
f 79//79 163//163 569//569
f 144//144 356//356 34//34
f 50//50 37//37 53//53
f 599//599 286//286 577//577
f 388//388 89//89 406//406
f 310//310 312//312 106//106
f 28//28 51//51 469//469
f 28//28 469//469 7//7
f 89//89 123//123 406//406
f 44//44 45//45 144//144
f 62//62 552//552 520//520
f 614//614 35//35 118//118
f 118//118 52//52 614//614
f 312//312 107//107 106//106
f 526//526 610//610 68//68
f 58//58 156//156 55//55
f 63//63 29//29 79//79
f 118//118 124//124 52//52
f 47//47 58//58 71//71
f 46//46 21//21 492//492
f 22//22 40//40 28//28
f 61//61 390//390 140//140
f 213//213 219//219 220//220
f 45//45 373//373 144//144
f 328//328 74//74 53//53
f 62//62 520//520 50//50
f 492//492 502//502 46//46
f 134//134 60//60 99//99
f 515//515 502//502 499//499
f 515//515 499//499 56//56
f 61//61 140//140 214//214
f 202//202 214//214 64//64
f 26//26 285//285 25//25
f 62//62 53//53 131//131
f 515//515 56//56 63//63
f 365//365 67//67 14//14
f 610//610 643//643 68//68
f 685//685 665//665 660//660
f 394//394 316//316 292//292
f 69//69 64//64 214//214
f 175//175 65//65 338//338
f 144//144 366//366 356//356
f 301//301 48//48 33//33
f 643//643 610//610 540//540
f 71//71 58//58 55//55
f 70//70 670//670 105//105
f 131//131 53//53 74//74
f 49//49 73//73 597//597
f 243//243 245//245 38//38
f 131//131 74//74 170//170
f 84//84 1//1 161//161
f 481//481 374//374 82//82
f 204//204 82//82 374//374
f 66//66 366//366 696//696
f 42//42 75//75 551//551
f 518//518 481//481 55//55
f 109//109 162//162 26//26
f 175//175 74//74 65//65
f 301//301 78//78 42//42
f 643//643 540//540 637//637
f 285//285 80//80 25//25
f 72//72 643//643 85//85
f 534//534 543//543 204//204
f 158//158 205//205 227//227
f 76//76 85//85 649//649
f 87//87 175//175 338//338
f 88//88 175//175 87//87
f 451//451 211//211 359//359
f 14//14 84//84 89//89
f 219//219 642//642 226//226
f 377//377 472//472 359//359
f 691//691 226//226 642//642
f 188//188 88//88 87//87
f 89//89 84//84 39//39
f 55//55 82//82 71//71
f 481//481 82//82 55//55
f 92//92 95//95 86//86
f 240//240 91//91 97//97
f 92//92 94//94 95//95
f 674//674 712//712 292//292
f 98//98 467//467 463//463
f 97//97 529//529 240//240
f 96//96 122//122 637//637
f 134//134 194//194 385//385
f 671//671 249//249 713//713
f 389//389 359//359 93//93
f 101//101 457//457 377//377
f 188//188 87//87 10//10
f 194//194 99//99 90//90
f 194//194 134//134 99//99
f 649//649 100//100 628//628
f 374//374 152//152 333//333
f 488//488 201//201 670//670
f 669//669 249//249 671//671
f 649//649 85//85 650//650
f 101//101 377//377 522//522
f 404//404 69//69 463//463
f 149//149 101//101 522//522
f 638//638 100//100 140//140
f 102//102 637//637 122//122
f 559//559 105//105 201//201
f 245//245 352//352 354//354
f 240//240 104//104 238//238
f 96//96 452//452 122//122
f 91//91 261//261 97//97
f 115//115 108//108 168//168
f 115//115 168//168 174//174
f 702//702 278//278 288//288
f 223//223 211//211 111//111
f 125//125 117//117 667//667
f 120//120 114//114 355//355
f 81//81 114//114 116//116
f 81//81 116//116 121//121
f 567//567 295//295 513//513
f 203//203 106//106 107//107
f 132//132 529//529 97//97
f 151//151 119//119 290//290
f 54//54 203//203 107//107
f 253//253 525//525 412//412
f 283//283 223//223 121//121
f 185//185 406//406 445//445
f 695//695 700//700 288//288
f 97//97 261//261 145//145
f 222//222 669//669 676//676
f 411//411 253//253 412//412
f 565//565 123//123 108//108
f 578//578 129//129 571//571
f 178//178 171//171 623//623
f 31//31 133//133 244//244
f 363//363 308//308 256//256
f 122//122 452//452 126//126
f 665//665 685//685 698//698
f 129//129 320//320 571//571
f 117//117 125//125 136//136
f 615//615 128//128 530//530
f 97//97 145//145 132//132
f 122//122 126//126 30//30
f 40//40 163//163 29//29
f 383//383 363//363 256//256
f 139//139 571//571 296//296
f 134//134 106//106 202//202
f 412//412 525//525 183//183
f 198//198 120//120 371//371
f 106//106 203//203 202//202
f 525//525 130//130 465//465
f 163//163 40//40 22//22
f 59//59 131//131 170//170
f 253//253 130//130 525//525
f 231//231 320//320 129//129
f 193//193 527//527 282//282
f 128//128 615//615 133//133
f 59//59 170//170 118//118
f 244//244 133//133 624//624
f 635//635 218//218 178//178
f 565//565 115//115 146//146
f 352//352 245//245 30//30
f 253//253 135//135 130//130
f 139//139 138//138 283//283
f 127//127 221//221 269//269
f 227//227 127//127 293//293
f 142//142 135//135 253//253
f 141//141 137//137 304//304
f 521//521 135//135 142//142
f 666//666 101//101 153//153
f 214//214 140//140 639//639
f 160//160 304//304 137//137
f 565//565 146//146 147//147
f 167//167 137//137 411//411
f 142//142 253//253 137//137
f 318//318 669//669 222//222
f 404//404 64//64 69//69
f 148//148 142//142 137//137
f 525//525 465//465 153//153
f 166//166 366//366 144//144
f 58//58 152//152 156//156
f 333//333 152//152 58//58
f 141//141 148//148 137//137
f 167//167 160//160 137//137
f 70//70 429//429 243//243
f 127//127 269//269 293//293
f 196//196 155//155 146//146
f 138//138 139//139 400//400
f 144//144 421//421 166//166
f 70//70 243//243 38//38
f 136//136 125//125 181//181
f 159//159 290//290 119//119
f 388//388 154//154 349//349
f 155//155 147//147 146//146
f 172//172 543//543 534//534
f 119//119 156//156 159//159
f 26//26 80//80 109//109
f 109//109 80//80 31//31
f 159//159 156//156 152//152
f 152//152 374//374 159//159
f 621//621 400//400 164//164
f 165//165 161//161 451//451
f 237//237 136//136 181//181
f 207//207 641//641 155//155
f 235//235 136//136 242//242
f 641//641 207//207 212//212
f 163//163 22//22 73//73
f 423//423 167//167 411//411
f 290//290 159//159 250//250
f 165//165 92//92 86//86
f 673//673 148//148 141//141
f 256//256 103//103 158//158
f 151//151 290//290 336//336
f 479//479 160//160 167//167
f 457//457 94//94 92//92
f 212//212 220//220 177//177
f 226//226 177//177 220//220
f 149//149 621//621 169//169
f 212//212 177//177 176//176
f 359//359 211//211 223//223
f 176//176 646//646 212//212
f 170//170 175//175 546//546
f 74//74 175//175 170//170
f 173//173 193//193 2//2
f 174//174 168//168 95//95
f 88//88 546//546 175//175
f 125//125 316//316 181//181
f 355//355 217//217 120//120
f 176//176 177//177 179//179
f 343//343 49//49 597//597
f 186//186 20//20 278//278
f 489//489 160//160 479//479
f 177//177 234//234 179//179
f 180//180 174//174 95//95
f 343//343 597//597 579//579
f 713//713 421//421 652//652
f 179//179 234//234 259//259
f 251//251 259//259 234//234
f 621//621 199//199 169//169
f 199//199 592//592 169//169
f 186//186 278//278 702//702
f 169//169 592//592 183//183
f 166//166 421//421 713//713
f 93//93 223//223 283//283
f 593//593 423//423 494//494
f 549//549 88//88 188//188
f 443//443 423//423 593//593
f 184//184 262//262 189//189
f 198//198 116//116 120//120
f 187//187 49//49 343//343
f 187//187 57//57 49//49
f 115//115 565//565 108//108
f 673//673 141//141 272//272
f 602//602 489//489 479//479
f 104//104 199//199 621//621
f 490//490 206//206 351//351
f 702//702 376//376 186//186
f 602//602 479//479 603//603
f 632//632 398//398 206//206
f 188//188 385//385 549//549
f 494//494 183//183 498//498
f 549//549 385//385 190//190
f 4//4 527//527 193//193
f 316//316 434//434 181//181
f 498//498 191//191 494//494
f 385//385 194//194 190//190
f 209//209 3//3 189//189
f 90//90 190//190 194//194
f 174//174 196//196 115//115
f 198//198 208//208 116//116
f 180//180 213//213 174//174
f 10//10 335//335 57//57
f 494//494 200//200 497//497
f 200//200 494//494 127//127
f 621//621 192//192 104//104
f 213//213 180//180 197//197
f 60//60 90//90 99//99
f 434//434 316//316 391//391
f 191//191 127//127 494//494
f 115//115 196//196 146//146
f 129//129 121//121 116//116
f 57//57 187//187 12//12
f 189//189 262//262 276//276
f 60//60 463//463 90//90
f 189//189 276//276 596//596
f 232//232 172//172 534//534
f 197//197 219//219 213//213
f 463//463 60//60 404//404
f 207//207 196//196 174//174
f 12//12 10//10 57//57
f 209//209 189//189 596//596
f 207//207 174//174 213//213
f 463//463 69//69 559//559
f 155//155 196//196 207//207
f 199//199 104//104 113//113
f 105//105 559//559 69//69
f 385//385 188//188 12//12
f 208//208 231//231 116//116
f 200//200 205//205 497//497
f 670//670 201//201 105//105
f 178//178 298//298 215//215
f 205//205 210//210 497//497
f 129//129 116//116 231//231
f 208//208 198//198 371//371
f 203//203 54//54 202//202
f 208//208 371//371 407//407
f 192//192 238//238 104//104
f 236//236 37//37 609//609
f 154//154 204//204 358//358
f 141//141 304//304 272//272
f 488//488 670//670 354//354
f 670//670 38//38 354//354
f 195//195 230//230 493//493
f 140//140 100//100 639//639
f 232//232 534//534 143//143
f 210//210 230//230 195//195
f 519//519 206//206 490//490
f 162//162 109//109 111//111
f 202//202 60//60 134//134
f 171//171 178//178 215//215
f 207//207 213//213 212//212
f 434//434 414//414 181//181
f 209//209 9//9 476//476
f 212//212 213//213 220//220
f 225//225 208//208 407//407
f 151//151 216//216 255//255
f 209//209 596//596 556//556
f 151//151 255//255 156//156
f 226//226 220//220 219//219
f 702//702 288//288 458//458
f 218//218 298//298 178//178
f 202//202 64//64 404//404
f 708//708 550//550 145//145
f 665//665 222//222 676//676
f 202//202 404//404 60//60
f 235//235 691//691 117//117
f 226//226 691//691 235//235
f 575//575 316//316 394//394
f 264//264 236//236 609//609
f 378//378 550//550 708//708
f 618//618 172//172 306//306
f 228//228 28//28 7//7
f 229//229 224//224 242//242
f 216//216 279//279 241//241
f 156//156 255//255 518//518
f 210//210 205//205 103//103
f 248//248 158//158 227//227
f 336//336 216//216 151//151
f 136//136 235//235 117//117
f 367//367 444//444 384//384
f 561//561 550//550 378//378
f 239//239 91//91 678//678
f 391//391 575//575 537//537
f 114//114 120//120 116//116
f 251//251 224//224 229//229
f 644//644 417//417 473//473
f 228//228 7//7 32//32
f 177//177 226//226 234//234
f 379//379 231//231 208//208
f 229//229 237//237 181//181
f 632//632 206//206 317//317
f 235//235 234//234 226//226
f 230//230 210//210 103//103
f 238//238 83//83 91//91
f 206//206 519//519 317//317
f 242//242 136//136 237//237
f 291//291 230//230 305//305
f 216//216 241//241 273//273
f 256//256 158//158 248//248
f 232//232 306//306 172//172
f 242//242 224//224 235//235
f 239//239 252//252 91//91
f 240//240 238//238 91//91
f 712//712 606//606 693//693
f 234//234 235//235 224//224
f 234//234 224//224 251//251
f 185//185 445//445 246//246
f 265//265 248//248 227//227
f 513//513 273//273 241//241
f 104//104 240//240 113//113
f 255//255 216//216 273//273
f 245//245 243//243 30//30
f 698//698 249//249 299//299
f 229//229 242//242 237//237
f 536//536 391//391 537//537
f 246//246 232//232 143//143
f 260//260 247//247 257//257
f 69//69 70//70 105//105
f 249//249 669//669 318//318
f 241//241 270//270 567//567
f 284//284 251//251 229//229
f 567//567 513//513 241//241
f 283//283 578//578 139//139
f 529//529 110//110 240//240
f 240//240 110//110 113//113
f 698//698 299//299 665//665
f 221//221 113//113 532//532
f 193//193 254//254 4//4
f 248//248 348//348 256//256
f 274//274 262//262 179//179
f 179//179 259//259 274//274
f 120//120 244//244 371//371
f 252//252 261//261 91//91
f 561//561 586//586 395//395
f 279//279 270//270 241//241
f 247//247 258//258 257//257
f 260//260 257//257 258//258
f 260//260 258//258 247//247
f 254//254 193//193 173//173
f 227//227 280//280 265//265
f 317//317 519//519 346//346
f 263//263 382//382 275//275
f 532//532 113//113 110//110
f 28//28 228//228 22//22
f 263//263 282//282 270//270
f 286//286 274//274 259//259
f 330//330 230//230 308//308
f 567//567 270//270 271//271
f 221//221 532//532 531//531
f 266//266 321//321 563//563
f 321//321 519//519 563//563
f 259//259 251//251 286//286
f 379//379 225//225 267//267
f 161//161 1//1 26//26
f 270//270 279//279 314//314
f 2//2 263//263 275//275
f 282//282 263//263 2//2
f 271//271 270//270 282//282
f 276//276 262//262 274//274
f 518//518 273//273 405//405
f 578//578 121//121 129//129
f 416//416 379//379 539//539
f 304//304 604//604 272//272
f 285//285 1//1 77//77
f 2//2 275//275 277//277
f 249//249 318//318 278//278
f 586//586 378//378 433//433
f 227//227 293//293 280//280
f 336//336 279//279 216//216
f 477//477 410//410 433//433
f 284//284 512//512 548//548
f 286//286 599//599 274//274
f 33//33 15//15 569//569
f 283//283 121//121 578//578
f 261//261 252//252 281//281
f 694//694 322//322 268//268
f 287//287 269//269 531//531
f 276//276 274//274 573//573
f 635//635 720//720 218//218
f 252//252 268//268 281//281
f 261//261 281//281 145//145
f 286//286 251//251 284//284
f 337//337 340//340 23//23
f 269//269 309//309 293//293
f 233//233 655//655 551//551
f 287//287 309//309 269//269
f 291//291 305//305 289//289
f 273//273 518//518 255//255
f 254//254 44//44 4//4
f 293//293 309//309 303//303
f 712//712 408//408 292//292
f 280//280 293//293 303//303
f 281//281 268//268 322//322
f 586//586 433//433 300//300
f 2//2 277//277 545//545
f 93//93 283//283 138//138
f 286//286 284//284 577//577
f 302//302 287//287 532//532
f 285//285 77//77 43//43
f 31//31 80//80 133//133
f 303//303 485//485 280//280
f 84//84 294//294 39//39
f 39//39 294//294 168//168
f 513//513 295//295 273//273
f 233//233 75//75 264//264
f 80//80 285//285 133//133
f 372//372 267//267 225//225
f 233//233 551//551 75//75
f 9//9 579//579 32//32
f 248//248 265//265 313//313
f 75//75 328//328 236//236
f 328//328 75//75 65//65
f 604//604 517//517 272//272
f 265//265 280//280 485//485
f 517//517 331//331 272//272
f 287//287 302//302 323//323
f 264//264 75//75 236//236
f 289//289 305//305 330//330
f 244//244 624//624 371//371
f 4//4 277//277 275//275
f 4//4 275//275 382//382
f 43//43 133//133 285//285
f 381//381 673//673 331//331
f 321//321 266//266 344//344
f 307//307 312//312 310//310
f 309//309 287//287 323//323
f 567//567 4//4 375//375
f 307//307 310//310 579//579
f 375//375 295//295 567//567
f 367//367 139//139 296//296
f 325//325 323//323 302//302
f 365//365 14//14 349//349
f 309//309 323//323 587//587
f 309//309 587//587 303//303
f 315//315 574//574 112//112
f 566//566 526//526 68//68
f 277//277 342//342 545//545
f 315//315 112//112 107//107
f 263//263 270//270 314//314
f 331//331 673//673 272//272
f 297//297 687//687 376//376
f 324//324 417//417 184//184
f 594//594 300//300 326//326
f 26//26 25//25 80//80
f 579//579 310//310 343//343
f 300//300 453//453 326//326
f 339//339 296//296 319//319
f 575//575 391//391 316//316
f 322//322 341//341 281//281
f 519//519 321//321 344//344
f 48//48 301//301 551//551
f 322//322 699//699 341//341
f 367//367 296//296 339//339
f 693//693 408//408 712//712
f 408//408 693//693 329//329
f 289//289 330//330 327//327
f 605//605 514//514 317//317
f 289//289 327//327 329//329
f 329//329 327//327 330//330
f 279//279 375//375 314//314
f 594//594 326//326 332//332
f 320//320 430//430 319//319
f 349//349 89//89 388//388
f 299//299 20//20 687//687
f 342//342 277//277 4//4
f 332//332 326//326 467//467
f 687//687 20//20 376//376
f 375//375 263//263 314//314
f 409//409 317//317 346//346
f 323//323 555//555 587//587
f 379//379 430//430 320//320
f 545//545 334//334 19//19
f 339//339 319//319 430//430
f 278//278 318//318 311//311
f 57//57 335//335 49//49
f 360//360 381//381 331//331
f 334//334 545//545 342//342
f 281//281 341//341 145//145
f 574//574 617//617 112//112
f 620//620 332//332 432//432
f 78//78 338//338 65//65
f 374//374 333//333 358//358
f 340//340 44//44 254//254
f 334//334 342//342 44//44
f 570//570 568//568 315//315
f 248//248 585//585 348//348
f 19//19 334//334 44//44
f 340//340 337//337 373//373
f 313//313 422//422 248//248
f 508//508 265//265 485//485
f 565//565 147//147 357//357
f 347//347 329//329 362//362
f 362//362 616//616 347//347
f 599//599 390//390 617//617
f 587//587 555//555 345//345
f 478//478 484//484 201//201
f 362//362 329//329 330//330
f 330//330 308//308 363//363
f 139//139 384//384 400//400
f 363//363 362//362 330//330
f 397//397 337//337 66//66
f 320//320 231//231 379//379
f 383//383 348//348 387//387
f 312//312 307//307 570//570
f 315//315 312//312 570//570
f 409//409 605//605 317//317
f 201//201 488//488 478//478
f 44//44 34//34 19//19
f 288//288 278//278 311//311
f 405//405 279//279 336//336
f 349//349 154//154 358//358
f 30//30 126//126 352//352
f 428//428 372//372 225//225
f 574//574 315//315 568//568
f 695//695 288//288 311//311
f 708//708 145//145 341//341
f 112//112 617//617 390//390
f 358//358 365//365 349//349
f 501//501 354//354 721//721
f 354//354 353//353 721//721
f 367//367 384//384 139//139
f 353//353 352//352 126//126
f 354//354 352//352 353//353
f 405//405 336//336 290//290
f 379//379 208//208 225//225
f 186//186 376//376 20//20
f 81//81 509//509 355//355
f 509//509 81//81 111//111
f 634//634 357//357 147//147
f 345//345 555//555 395//395
f 45//45 340//340 373//373
f 81//81 223//223 111//111
f 66//66 356//356 366//366
f 347//347 616//616 361//361
f 313//313 265//265 508//508
f 428//428 225//225 407//407
f 313//313 508//508 422//422
f 345//345 395//395 648//648
f 290//290 250//250 405//405
f 368//368 700//700 695//695
f 370//370 381//381 360//360
f 634//634 380//380 357//357
f 166//166 696//696 366//366
f 386//386 495//495 357//357
f 380//380 386//386 357//357
f 371//371 624//624 396//396
f 395//395 393//393 648//648
f 364//364 371//371 396//396
f 564//564 656//656 344//344
f 461//461 428//428 364//364
f 373//373 337//337 397//397
f 165//165 294//294 161//161
f 599//599 638//638 390//390
f 119//119 151//151 156//156
f 182//182 376//376 702//702
f 713//713 696//696 166//166
f 351//351 306//306 232//232
f 378//378 708//708 477//477
f 250//250 481//481 405//405
f 204//204 374//374 358//358
f 54//54 107//107 112//112
f 409//409 344//344 403//403
f 700//700 368//368 402//402
f 346//346 344//344 409//409
f 614//614 703//703 215//215
f 246//246 445//445 413//413
f 12//12 633//633 106//106
f 47//47 333//333 58//58
f 413//413 232//232 246//246
f 368//368 182//182 448//448
f 362//362 363//363 383//383
f 375//375 382//382 263//263
f 380//380 634//634 392//392
f 422//422 585//585 248//248
f 12//12 134//134 385//385
f 439//439 362//362 387//387
f 392//392 634//634 473//473
f 54//54 390//390 61//61
f 202//202 61//61 214//214
f 407//407 371//371 364//364
f 390//390 638//638 140//140
f 101//101 666//666 94//94
f 380//380 425//425 386//386
f 106//106 134//134 12//12
f 375//375 279//279 295//295
f 416//416 430//430 379//379
f 405//405 295//295 279//279
f 393//393 395//395 620//620
f 18//18 11//11 324//324
f 288//288 700//700 418//418
f 418//418 700//700 402//402
f 458//458 288//288 418//418
f 600//600 397//397 66//66
f 586//586 561//561 378//378
f 367//367 339//339 419//419
f 425//425 380//380 392//392
f 96//96 399//399 361//361
f 362//362 439//439 431//431
f 3//3 324//324 184//184
f 402//402 441//441 418//418
f 534//534 204//204 154//154
f 362//362 452//452 616//616
f 441//441 402//402 401//401
f 387//387 362//362 383//383
f 369//369 684//684 426//426
f 344//344 656//656 403//403
f 709//709 441//441 401//401
f 402//402 368//368 448//448
f 273//273 295//295 405//405
f 425//425 547//547 386//386
f 378//378 477//477 433//433
f 410//410 477//477 523//523
f 292//292 408//408 394//394
f 153//153 149//149 169//169
f 517//517 360//360 331//331
f 137//137 253//253 411//411
f 294//294 165//165 86//86
f 431//431 452//452 362//362
f 392//392 417//417 425//425
f 267//267 539//539 379//379
f 392//392 473//473 417//417
f 469//469 18//18 324//324
f 382//382 375//375 4//4
f 703//703 614//614 622//622
f 448//448 401//401 402//402
f 411//411 412//412 423//423
f 406//406 123//123 437//437
f 415//415 429//429 639//639
f 413//413 351//351 232//232
f 393//393 620//620 449//449
f 450//450 703//703 622//622
f 444//444 367//367 419//419
f 421//421 373//373 397//397
f 464//464 396//396 436//436
f 436//436 396//396 420//420
f 479//479 167//167 443//443
f 487//487 430//430 416//416
f 448//448 709//709 401//401
f 185//185 388//388 406//406
f 150//150 243//243 415//415
f 181//181 414//414 424//424
f 440//440 372//372 428//428
f 443//443 167//167 423//423
f 437//437 445//445 406//406
f 580//580 381//381 370//370
f 86//86 168//168 294//294
f 427//427 547//547 425//425
f 364//364 428//428 407//407
f 339//339 430//430 419//419
f 154//154 388//388 534//534
f 6//6 409//409 403//403
f 144//144 373//373 421//421
f 670//670 70//70 38//38
f 297//297 318//318 222//222
f 30//30 243//243 150//150
f 458//458 418//418 702//702
f 440//440 428//428 461//461
f 436//436 442//442 506//506
f 620//620 432//432 446//446
f 620//620 446//446 449//449
f 436//436 435//435 480//480
f 435//435 420//420 514//514
f 431//431 439//439 438//438
f 439//439 426//426 438//438
f 707//707 438//438 426//426
f 588//588 553//553 440//440
f 630//630 416//416 539//539
f 565//565 357//357 123//123
f 229//229 181//181 424//424
f 460//460 454//454 413//413
f 456//456 445//445 437//437
f 55//55 156//156 518//518
f 357//357 437//437 123//123
f 430//430 487//487 419//419
f 433//433 190//190 453//453
f 447//447 440//440 461//461
f 444//444 629//629 384//384
f 300//300 433//433 453//453
f 162//162 161//161 26//26
f 443//443 603//603 479//479
f 470//470 456//456 437//437
f 422//422 508//508 572//572
f 414//414 434//434 424//424
f 444//444 419//419 487//487
f 451//451 161//161 211//211
f 96//96 361//361 616//616
f 416//416 535//535 487//487
f 159//159 374//374 481//481
f 364//364 396//396 461//461
f 453//453 190//190 90//90
f 413//413 454//454 351//351
f 447//447 461//461 455//455
f 457//457 92//92 472//472
f 445//445 456//456 460//460
f 709//709 507//507 511//511
f 357//357 470//470 437//437
f 398//398 351//351 206//206
f 413//413 445//445 460//460
f 453//453 90//90 326//326
f 396//396 464//464 461//461
f 482//482 480//480 435//435
f 536//536 434//434 391//391
f 470//470 460//460 456//456
f 90//90 463//463 326//326
f 446//446 717//717 449//449
f 450//450 622//622 477//477
f 454//454 490//490 351//351
f 630//630 535//535 416//416
f 495//495 470//470 357//357
f 394//394 408//408 540//540
f 165//165 451//451 472//472
f 329//329 693//693 683//683
f 326//326 463//463 467//467
f 464//464 436//436 506//506
f 481//481 250//250 159//159
f 350//350 370//370 360//360
f 562//562 483//483 471//471
f 7//7 469//469 476//476
f 460//460 470//470 500//500
f 616//616 452//452 96//96
f 528//528 434//434 536//536
f 92//92 165//165 472//472
f 634//634 468//468 473//473
f 98//98 332//332 467//467
f 454//454 475//475 490//490
f 619//619 464//464 635//635
f 157//157 160//160 602//602
f 462//462 418//418 441//441
f 86//86 95//95 168//168
f 489//489 602//602 160//160
f 552//552 486//486 480//480
f 332//332 98//98 484//484
f 506//506 635//635 464//464
f 717//717 446//446 478//478
f 512//512 284//284 229//229
f 468//468 641//641 644//644
f 442//442 436//436 480//480
f 471//471 483//483 94//94
f 559//559 484//484 98//98
f 95//95 94//94 483//483
f 462//462 441//441 711//711
f 143//143 388//388 185//185
f 622//622 523//523 477//477
f 527//527 271//271 282//282
f 714//714 480//480 482//482
f 563//563 490//490 475//475
f 552//552 480//480 714//714
f 567//567 271//271 527//527
f 718//718 717//717 478//478
f 506//506 442//442 554//554
f 180//180 95//95 483//483
f 157//157 604//604 304//304
f 9//9 7//7 476//476
f 473//473 468//468 644//644
f 562//562 180//180 483//483
f 519//519 490//490 563//563
f 505//505 544//544 486//486
f 544//544 505//505 507//507
f 459//459 632//632 317//317
f 21//21 499//499 492//492
f 718//718 478//478 501//501
f 602//602 603//603 493//493
f 486//486 552//552 505//505
f 510//510 505//505 552//552
f 459//459 514//514 420//420
f 511//511 441//441 709//709
f 494//494 497//497 593//593
f 500//500 470//470 504//504
f 405//405 481//481 518//518
f 711//711 441//441 511//511
f 317//317 514//514 459//459
f 721//721 496//496 718//718
f 711//711 511//511 710//710
f 485//485 303//303 589//589
f 503//503 562//562 471//471
f 499//499 13//13 56//56
f 491//491 21//21 46//46
f 538//538 580//580 370//370
f 502//502 492//492 499//499
f 503//503 521//521 677//677
f 162//162 111//111 211//211
f 589//589 508//508 485//485
f 500//500 454//454 460//460
f 93//93 359//359 223//223
f 554//554 442//442 486//486
f 39//39 108//108 123//123
f 15//15 46//46 515//515
f 509//509 217//217 355//355
f 191//191 498//498 221//221
f 470//470 495//495 504//504
f 291//291 493//493 230//230
f 417//417 644//644 184//184
f 370//370 350//350 645//645
f 267//267 372//372 539//539
f 221//221 127//127 191//191
f 138//138 400//400 93//93
f 635//635 506//506 554//554
f 542//542 454//454 500//500
f 714//714 482//482 651//651
f 523//523 622//622 52//52
f 521//521 503//503 471//471
f 197//197 180//180 562//562
f 629//629 444//444 557//557
f 504//504 542//542 500//500
f 647//647 630//630 539//539
f 93//93 400//400 389//389
f 534//534 388//388 143//143
f 197//197 503//503 524//524
f 486//486 442//442 480//480
f 522//522 389//389 400//400
f 472//472 451//451 359//359
f 346//346 519//519 344//344
f 486//486 544//544 554//554
f 133//133 43//43 128//128
f 205//205 158//158 103//103
f 541//541 408//408 329//329
f 541//541 329//329 399//399
f 329//329 361//361 399//399
f 526//526 566//566 512//512
f 52//52 124//124 533//533
f 219//219 197//197 524//524
f 511//511 507//507 505//505
f 523//523 52//52 533//533
f 424//424 434//434 528//528
f 515//515 46//46 502//502
f 128//128 43//43 47//47
f 535//535 444//444 487//487
f 359//359 389//389 377//377
f 572//572 508//508 598//598
f 124//124 118//118 533//533
f 282//282 2//2 193//193
f 547//547 504//504 495//495
f 533//533 118//118 170//170
f 71//71 530//530 47//47
f 542//542 475//475 454//454
f 305//305 230//230 330//330
f 221//221 531//531 269//269
f 229//229 424//424 512//512
f 372//372 553//553 539//539
f 546//546 533//533 170//170
f 230//230 103//103 308//308
f 370//370 645//645 538//538
f 308//308 103//103 256//256
f 528//528 512//512 424//424
f 528//528 536//536 526//526
f 560//560 516//516 719//719
f 157//157 304//304 160//160
f 512//512 566//566 548//548
f 532//532 287//287 531//531
f 535//535 557//557 444//444
f 110//110 529//529 302//302
f 532//532 110//110 302//302
f 465//465 666//666 153//153
f 530//530 128//128 47//47
f 408//408 541//541 540//540
f 153//153 101//101 149//149
f 96//96 541//541 399//399
f 256//256 348//348 383//383
f 82//82 204//204 543//543
f 325//325 302//302 132//132
f 302//302 529//529 132//132
f 723//723 35//35 722//722
f 37//37 651//651 609//609
f 720//720 36//36 218//218
f 542//542 504//504 547//547
f 209//209 556//556 9//9
f 553//553 372//372 440//440
f 400//400 621//621 522//522
f 149//149 522//522 621//621
f 549//549 716//716 546//546
f 132//132 145//145 550//550
f 494//494 412//412 183//183
f 88//88 549//549 546//546
f 325//325 132//132 550//550
f 164//164 400//400 384//384
f 422//422 572//572 585//585
f 386//386 547//547 495//495
f 544//544 507//507 560//560
f 33//33 48//48 15//15
f 542//542 563//563 475//475
f 554//554 544//544 560//560
f 714//714 520//520 552//552
f 555//555 323//323 325//325
f 560//560 635//635 554//554
f 423//423 412//412 494//494
f 530//530 71//71 543//543
f 575//575 610//610 536//536
f 575//575 536//536 537//537
f 387//387 348//348 558//558
f 550//550 561//561 325//325
f 555//555 325//325 561//561
f 589//589 598//598 508//508
f 153//153 169//169 183//183
f 647//647 539//539 679//679
f 512//512 528//528 526//526
f 535//535 672//672 581//581
f 557//557 535//535 581//581
f 463//463 559//559 98//98
f 720//720 560//560 719//719
f 71//71 82//82 543//543
f 201//201 484//484 559//559
f 679//679 539//539 553//553
f 584//584 542//542 547//547
f 573//573 274//274 617//617
f 558//558 607//607 439//439
f 131//131 41//41 62//62
f 31//31 111//111 109//109
f 79//79 29//29 163//163
f 395//395 555//555 561//561
f 2//2 545//545 173//173
f 509//509 111//111 31//31
f 543//543 172//172 530//530
f 41//41 131//131 723//723
f 562//562 503//503 197//197
f 509//509 31//31 217//217
f 607//607 662//662 369//369
f 114//114 81//81 355//355
f 4//4 567//567 527//527
f 560//560 720//720 635//635
f 582//582 580//580 538//538
f 579//579 9//9 307//307
f 9//9 556//556 307//307
f 563//563 542//542 584//584
f 223//223 81//81 121//121
f 570//570 556//556 596//596
f 139//139 578//578 571//571
f 631//631 679//679 663//663
f 675//675 672//672 663//663
f 574//574 573//573 617//617
f 576//576 575//575 394//394
f 607//607 369//369 439//439
f 394//394 540//540 576//576
f 298//298 218//218 215//215
f 73//73 228//228 597//597
f 32//32 579//579 597//597
f 320//320 296//296 571//571
f 570//570 307//307 556//556
f 583//583 557//557 581//581
f 439//439 387//387 558//558
f 439//439 369//369 426//426
f 583//583 659//659 557//557
f 686//686 580//580 582//582
f 588//588 440//440 447//447
f 585//585 558//558 348//348
f 303//303 587//587 589//589
f 581//581 678//678 583//583
f 15//15 79//79 569//569
f 276//276 570//570 596//596
f 603//603 443//443 593//593
f 582//582 538//538 590//590
f 654//654 686//686 582//582
f 455//455 588//588 447//447
f 319//319 296//296 320//320
f 569//569 163//163 73//73
f 587//587 601//601 589//589
f 592//592 498//498 183//183
f 586//586 300//300 594//594
f 594//594 395//395 586//586
f 335//335 301//301 33//33
f 572//572 598//598 591//591
f 538//538 645//645 590//590
f 389//389 522//522 377//377
f 33//33 49//49 335//335
f 679//679 588//588 688//688
f 582//582 590//590 701//701
f 172//172 615//615 530//530
f 572//572 591//591 585//585
f 688//688 675//675 679//679
f 595//595 588//588 455//455
f 563//563 584//584 266//266
f 605//605 409//409 655//655
f 675//675 688//688 239//239
f 598//598 589//589 601//601
f 558//558 585//585 591//591
f 574//574 568//568 573//573
f 276//276 573//573 568//568
f 588//588 595//595 611//611
f 266//266 584//584 16//16
f 584//584 547//547 16//16
f 78//78 301//301 335//335
f 395//395 594//594 620//620
f 276//276 568//568 570//570
f 113//113 592//592 199//199
f 335//335 10//10 78//78
f 654//654 582//582 701//701
f 617//617 274//274 599//599
f 624//624 632//632 420//420
f 607//607 558//558 591//591
f 438//438 452//452 431//431
f 455//455 461//461 595//595
f 525//525 153//153 183//183
f 689//689 503//503 677//677
f 618//618 615//615 172//172
f 517//517 604//604 612//612
f 608//608 611//611 595//595
f 689//689 524//524 503//503
f 629//629 164//164 384//384
f 564//564 266//266 16//16
f 595//595 461//461 619//619
f 591//591 598//598 601//601
f 593//593 195//195 603//603
f 592//592 113//113 498//498
f 624//624 133//133 615//615
f 143//143 185//185 246//246
f 461//461 464//464 619//619
f 215//215 218//218 36//36
f 564//564 344//344 266//266
f 594//594 332//332 620//620
f 595//595 466//466 608//608
f 595//595 619//619 466//466
f 606//606 645//645 350//350
f 608//608 466//466 613//613
f 688//688 611//611 690//690
f 610//610 526//526 536//536
f 591//591 601//601 627//627
f 611//611 608//608 613//613
f 621//621 164//164 192//192
f 575//575 576//576 610//610
f 493//493 603//603 195//195
f 610//610 576//576 540//540
f 604//604 157//157 612//612
f 655//655 409//409 6//6
f 540//540 541//541 653//653
f 602//602 493//493 612//612
f 96//96 637//637 541//541
f 637//637 653//653 541//541
f 157//157 602//602 612//612
f 607//607 591//591 627//627
f 624//624 615//615 398//398
f 284//284 548//548 577//577
f 221//221 498//498 113//113
f 466//466 626//626 613//613
f 612//612 493//493 291//291
f 497//497 195//195 593//593
f 618//618 306//306 615//615
f 37//37 236//236 328//328
f 164//164 629//629 192//192
f 53//53 37//37 328//328
f 601//601 587//587 345//345
f 622//622 614//614 52//52
f 466//466 619//619 623//623
f 227//227 200//200 127//127
f 625//625 466//466 623//623
f 466//466 625//625 626//626
f 662//662 607//607 627//627
f 74//74 328//328 65//65
f 227//227 205//205 200//200
f 628//628 566//566 72//72
f 452//452 438//438 496//496
f 83//83 678//678 91//91
f 398//398 615//615 306//306
f 548//548 566//566 628//628
f 632//632 624//624 398//398
f 619//619 178//178 623//623
f 432//432 332//332 484//484
f 474//474 432//432 484//484
f 72//72 566//566 68//68
f 446//446 432//432 474//474
f 178//178 619//619 635//635
f 306//306 351//351 398//398
f 696//696 705//705 66//66
f 171//171 626//626 625//625
f 638//638 599//599 577//577
f 638//638 577//577 548//548
f 8//8 564//564 16//16
f 147//147 155//155 634//634
f 76//76 628//628 72//72
f 647//647 631//631 630//630
f 54//54 112//112 390//390
f 496//496 126//126 452//452
f 627//627 601//601 640//640
f 642//642 524//524 689//689
f 663//663 535//535 630//630
f 68//68 643//643 72//72
f 662//662 627//627 640//640
f 12//12 187//187 633//633
f 478//478 474//474 484//484
f 468//468 634//634 155//155
f 632//632 459//459 420//420
f 76//76 72//72 85//85
f 478//478 446//446 474//474
f 641//641 468//468 155//155
f 219//219 524//524 642//642
f 195//195 497//497 210//210
f 600//600 66//66 705//705
f 8//8 16//16 636//636
f 396//396 624//624 420//420
f 637//637 540//540 653//653
f 652//652 600//600 705//705
f 548//548 628//628 638//638
f 640//640 601//601 345//345
f 150//150 658//658 649//649
f 8//8 656//656 564//564
f 649//649 628//628 76//76
f 212//212 644//644 641//641
f 212//212 646//646 644//644
f 415//415 639//639 658//658
f 192//192 629//629 659//659
f 590//590 645//645 606//606
f 640//640 345//345 648//648
f 643//643 637//637 102//102
f 126//126 721//721 353//353
f 630//630 631//631 663//663
f 397//397 600//600 652//652
f 496//496 721//721 126//126
f 691//691 642//642 689//689
f 644//644 646//646 184//184
f 421//421 397//397 652//652
f 658//658 150//150 415//415
f 478//478 488//488 501//501
f 100//100 638//638 628//628
f 650//650 85//85 643//643
f 631//631 647//647 679//679
f 646//646 176//176 179//179
f 650//650 102//102 150//150
f 179//179 184//184 646//646
f 488//488 354//354 501//501
f 650//650 643//643 102//102
f 150//150 102//102 122//122
f 652//652 705//705 661//661
f 640//640 648//648 668//668
f 415//415 243//243 429//429
f 262//262 184//184 179//179
f 659//659 629//629 557//557
f 651//651 514//514 609//609
f 605//605 609//609 514//514
f 150//150 122//122 30//30
f 184//184 189//189 3//3
f 535//535 663//663 672//672
f 661//661 705//705 660//660
f 609//609 605//605 655//655
f 100//100 649//649 658//658
f 639//639 100//100 658//658
f 655//655 233//233 609//609
f 691//691 654//654 117//117
f 161//161 162//162 211//211
f 117//117 654//654 667//667
f 640//640 668//668 662//662
f 457//457 472//472 377//377
f 652//652 661//661 671//671
f 663//663 679//679 675//675
f 209//209 476//476 3//3
f 120//120 217//217 244//244
f 94//94 457//457 101//101
f 150//150 649//649 650//650
f 217//217 31//31 244//244
f 667//667 657//657 674//674
f 192//192 659//659 238//238
f 713//713 681//681 696//696
f 471//471 94//94 666//666
f 666//666 465//465 471//471
f 684//684 662//662 668//668
f 471//471 465//465 130//130
f 671//671 665//665 676//676
f 553//553 588//588 679//679
f 83//83 659//659 583//583
f 521//521 471//471 130//130
f 135//135 521//521 130//130
f 668//668 648//648 680//680
f 684//684 369//369 662//662
f 83//83 238//238 659//659
f 682//682 521//521 142//142
f 676//676 669//669 671//671
f 678//678 581//581 672//672
f 142//142 148//148 673//673
f 673//673 682//682 142//142
f 675//675 678//678 672//672
f 381//381 682//682 673//673
f 697//697 667//667 674//674
f 678//678 83//83 583//583
f 678//678 675//675 239//239
f 684//684 668//668 680//680
f 648//648 393//393 680//680
f 682//682 677//677 521//521
f 612//612 360//360 517//517
f 222//222 665//665 687//687
f 125//125 667//667 697//697
f 688//688 588//588 611//611
f 682//682 381//381 580//580
f 682//682 689//689 677//677
f 606//606 27//27 683//683
f 683//683 27//27 289//289
f 681//681 713//713 685//685
f 689//689 682//682 686//686
f 686//686 682//682 580//580
f 687//687 665//665 299//299
f 27//27 612//612 289//289
f 685//685 660//660 681//681
f 297//297 222//222 687//687
f 268//268 239//239 688//688
f 252//252 239//239 268//268
f 291//291 289//289 612//612
f 688//688 690//690 694//694
f 691//691 689//689 686//686
f 611//611 613//613 690//690
f 268//268 688//688 694//694
f 297//297 311//311 318//318
f 420//420 435//435 436//436
f 692//692 684//684 680//680
f 686//686 654//654 691//691
f 613//613 626//626 690//690
f 311//311 297//297 376//376
f 626//626 171//171 690//690
f 612//612 27//27 350//350
f 360//360 612//612 350//350
f 376//376 695//695 311//311
f 692//692 426//426 684//684
f 693//693 606//606 683//683
f 694//694 690//690 699//699
f 393//393 692//692 680//680
f 322//322 694//694 699//699
f 690//690 171//171 699//699
f 657//657 654//654 701//701
f 713//713 249//249 685//685
f 292//292 697//697 674//674
f 623//623 171//171 625//625
f 695//695 376//376 182//182
f 393//393 449//449 706//706
f 685//685 249//249 698//698
f 706//706 692//692 393//393
f 695//695 182//182 368//368
f 703//703 341//341 699//699
f 703//703 699//699 171//171
f 707//707 426//426 692//692
f 215//215 703//703 171//171
f 182//182 702//702 418//418
f 418//418 448//448 182//182
f 692//692 706//706 707//707
f 697//697 316//316 125//125
f 435//435 514//514 482//482
f 683//683 704//704 329//329
f 704//704 289//289 329//329
f 683//683 289//289 704//704
f 703//703 450//450 341//341
f 657//657 701//701 712//712
f 712//712 701//701 590//590
f 606//606 350//350 27//27
f 341//341 450//450 708//708
f 657//657 667//667 654//654
f 705//705 696//696 681//681
f 707//707 496//496 438//438
f 462//462 448//448 418//418
f 697//697 292//292 316//316
f 708//708 450//450 477//477
f 674//674 657//657 712//712
f 710//710 709//709 448//448
f 560//560 507//507 709//709
f 660//660 705//705 681//681
f 711//711 448//448 462//462
f 706//706 449//449 717//717
f 711//711 710//710 448//448
f 560//560 709//709 710//710
f 482//482 514//514 651//651
f 329//329 347//347 361//361
f 496//496 707//707 706//706
f 706//706 717//717 715//715
f 496//496 706//706 715//715
f 560//560 710//710 516//516
f 660//660 671//671 661//661
f 660//660 665//665 671//671
f 523//523 533//533 716//716
f 410//410 523//523 716//716
f 713//713 652//652 671//671
f 511//511 505//505 516//516
f 20//20 249//249 278//278
f 511//511 516//516 710//710
f 716//716 533//533 546//546
f 715//715 717//717 718//718
f 410//410 716//716 190//190
f 505//505 41//41 516//516
f 716//716 549//549 190//190
f 433//433 410//410 190//190
f 714//714 651//651 520//520
f 719//719 516//516 41//41
f 715//715 718//718 496//496
f 721//721 718//718 501//501
f 722//722 720//720 719//719
f 722//722 719//719 41//41
f 37//37 520//520 651//651
f 36//36 720//720 722//722
f 722//722 41//41 723//723
f 520//520 37//37 50//50