# https://github.com/mikedh/trimesh
v -0.00949700 -0.01121300 0.00516800
v -0.04010700 -0.05336300 0.00380500
v -0.03476500 -0.00214600 -0.00734100
v -0.04802100 -0.03628700 -0.00330100
v -0.03690300 -0.04356300 0.00240800
v -0.01845400 -0.02845700 -0.00356800
v -0.01886900 -0.02061900 0.00010200
v -0.02196600 -0.03104000 0.00173300
v -0.02699800 -0.04217200 -0.00417800
v -0.05365000 -0.03642800 -0.00685600
v -0.02902100 -0.04978600 -0.00430500
v -0.05319700 -0.02393600 -0.00716400
v -0.04554200 -0.04805200 -0.00654700
v -0.02474800 -0.04410700 0.00404400
v -0.00709400 -0.01556100 -0.00267100
v -0.01181200 0.00069100 -0.00605100
v -0.02964700 -0.03949800 0.00123000
v -0.00153300 -0.01339700 0.00502700
v -0.01389900 -0.02175400 -0.00558500
v -0.02377600 -0.04897700 0.00209800
v -0.01906700 -0.03656300 -0.00496700
v -0.03935800 -0.04170500 -0.00212300
v -0.01115400 -0.02944700 -0.00381700
v -0.00925800 -0.00725500 -0.00469500
v -0.01615300 -0.01863900 0.00430500
v -0.01907600 -0.00390100 -0.00637900
v -0.00601900 -0.00237300 -0.00523200
v -0.00580000 0.01839600 -0.00467300
v -0.01260600 -0.03387300 0.00036400
v -0.00944700 -0.01815500 0.00006900
v -0.00698000 -0.05946900 0.00650500
v 0.00124200 -0.06871500 -0.00848400
v 0.02413200 -0.00884500 -0.00480900
v -0.00140800 -0.02304200 -0.00594200
v -0.00908200 -0.05630900 0.00386900
v 0.01908600 -0.06631800 -0.00348600
v -0.00276500 -0.05791800 0.00524300
v 0.03177300 -0.03238800 0.00273300
v 0.00201800 -0.04139700 0.00514400
v 0.02517800 -0.02536100 0.00102000
v -0.00486900 -0.06687500 0.00087600
v 0.00239000 -0.07060300 0.00687200
v 0.00790800 -0.07281000 -0.00047000
v 0.02797500 -0.02235500 -0.00568700
v -0.00768000 -0.06067300 -0.00884300
v -0.01286100 -0.03238800 0.00506100
v 0.02779600 -0.03051000 0.00555000
v 0.01817200 -0.06634600 0.00619100
v 0.02021900 -0.05962900 -0.00620100
v 0.02120500 -0.05351200 -0.00274600
v 0.01995000 -0.06255200 0.00571600
v 0.02347700 -0.06131400 0.00363500
v 0.01530800 -0.06194500 0.00066300
v -0.00279000 -0.02801600 0.00676200
v 0.00336400 -0.02376200 0.00709900
v 0.02565300 -0.05511100 -0.00630800
v 0.01401800 -0.06567700 -0.00574900
v 0.02363000 -0.05053400 0.00378600
v 0.00139400 -0.06324200 -0.00135500
v -0.00496600 -0.01458900 -0.00613600
v 0.00349900 0.00424900 -0.00732200
v 0.02559800 -0.03949900 0.00207900
v 0.00785400 -0.06714000 0.00478900
v 0.01939000 -0.00718700 -0.00589600
v 0.01104500 -0.00617500 -0.00447900
v 0.00007600 -0.05334300 -0.00007300
v -0.01117700 -0.04431700 -0.00718700
v 0.02964400 -0.04799500 0.00515200
v -0.00039800 -0.04186000 -0.00438400
v 0.00541000 -0.00092900 -0.00708300
v -0.00597700 -0.00639900 -0.00302500
v 0.00396300 -0.00849200 -0.00593900
v 0.00647900 -0.01432600 -0.00217700
v 0.00597600 -0.03024900 0.00214300
v 0.02591500 -0.02384800 -0.00475600
v 0.00856200 -0.01114300 0.00379300
v 0.01984900 0.00372900 -0.00003400
v 0.01662700 -0.00830800 -0.00009600
v 0.02950500 -0.01940300 -0.00134600
v 0.01931300 -0.00748200 0.00669500
v 0.00726000 -0.00556800 0.00753700
v 0.01633300 0.00993200 -0.00495700
v 0.02115800 -0.01397000 0.00273700
v 0.02929000 -0.01979600 0.00593600
v 0.02501700 -0.01199400 0.00650200
v 0.02974500 -0.04424200 -0.00515800
v 0.02146700 0.03396000 -0.00476600
v 0.02615600 -0.03947500 -0.00429500
v 0.01855900 0.01846300 0.00101700
v -0.00906600 -0.02868300 0.00027900
v 0.01228100 0.02804600 -0.00692600
v -0.05305600 -0.04292300 0.00472900
v -0.03274400 0.00237900 -0.00651500
v -0.05481500 -0.02939900 0.00426700
v -0.04760300 -0.04165500 0.00387500
v -0.05232100 -0.02285200 0.00573500
v -0.04820800 -0.03073800 0.00096800
v -0.05232600 -0.01729300 0.00007700
v -0.03273200 0.00201200 0.00628000
v -0.02463200 -0.00751000 -0.00293300
v -0.02935500 -0.00874400 0.00198400
v -0.02082700 -0.01393000 0.00331800
v -0.04524900 -0.01684500 0.00358900
v -0.03401100 -0.00510300 0.00571100
v -0.04540200 -0.00620800 -0.00082700
v -0.01119800 0.01463900 0.00538400
v -0.03936400 -0.00209400 -0.00645000
v -0.04676700 -0.00928400 0.00546300
v -0.04724100 -0.02221800 -0.00273000
v -0.03926800 -0.01314400 -0.00182100
v -0.00223400 0.02308000 0.00431900
v -0.01665100 -0.00439300 0.00594800
v 0.00032200 0.02803900 -0.00376400
v -0.00460400 -0.00601600 0.00486600
v -0.00493100 0.00244900 0.00482000
v 0.00493100 0.03008800 0.00648200
v 0.01737700 0.00964300 0.00560500
v 0.00486600 0.03839300 0.00518800
v 0.00064600 -0.01206300 0.00705100
v 0.01271800 0.02734300 0.00709500
v 0.02094200 0.03340700 0.00501500
v 0.00580200 0.04250200 0.00146000
v 0.00443100 0.03884300 -0.00464900
v 0.00950900 0.04504900 -0.00331400
v 0.02094300 0.04461400 0.00260400
v 0.03276100 0.08210800 -0.00174100
v 0.01419100 0.06689400 0.00253900
v 0.01181500 0.05412400 -0.00154700
v 0.01669700 0.04390600 -0.00684300
v 0.03004300 0.10472000 -0.00136100
v 0.01891600 0.04121800 0.00720700
v 0.02168900 0.08991100 0.00060200
v 0.02968500 0.10929300 0.00030800
v 0.01931700 0.04512900 -0.00190100
v 0.02675600 0.07558700 0.00247900
v 0.03098900 0.07392400 -0.00084200
v 0.02736200 0.06128600 -0.00188000
v 0.03512400 0.12724800 0.00250300
v 0.02161000 0.07689700 -0.00199700
v 0.03552800 0.09357900 0.00011800
v 0.02222200 0.09353700 0.00235300
v 0.01052100 0.04720500 0.00251100
v 0.03863800 0.11377600 -0.00165900
v 0.03919900 0.12887400 0.00124800
v 0.03951500 0.12738800 -0.00075500
v 0.03102300 0.09996000 0.00251500
vn 0.60488228 -0.23763037 0.76003239
vn -0.14300316 -0.83283006 0.53473750
vn 0.01083406 -0.07488463 -0.99713335
vn 0.56540977 0.29240154 -0.77124129
vn -0.07307962 0.53808353 0.83971750
vn -0.71164007 0.25511512 -0.65458742
vn -0.99058349 -0.03459024 -0.13246837
vn -0.80925406 0.39916988 0.43101191
vn -0.22467320 0.36510386 -0.90344957
vn -0.52244218 -0.13982657 -0.84113180
vn 0.29080940 -0.65494534 -0.69747867
vn -0.47537368 0.08437248 -0.87572893
vn -0.31336429 -0.46553172 -0.82769743
vn 0.01432558 -0.05025653 0.99863360
vn -0.93478226 0.35354160 0.03450295
vn 0.09223858 0.00444624 -0.99572701
vn -0.40760554 0.84095553 0.35588134
vn -0.77322823 0.00887423 0.63406573
vn -0.08916910 -0.04124495 -0.99516216
vn 0.57544576 -0.75635564 0.31110823
vn 0.29654159 -0.20013048 -0.93381522
vn 0.16699037 0.92182156 -0.34979885
vn -0.57336306 -0.19545265 -0.79564632
vn 0.56395749 -0.32443339 -0.75940433
vn -0.39382826 -0.09274556 0.91449306
vn -0.07279898 -0.15128932 -0.98580518
vn 0.11113277 -0.24223588 -0.96383157
vn -0.50278780 0.49929080 -0.70562959
vn 0.84451020 -0.49570903 -0.20266987
vn 0.95715104 0.09138770 0.27479114
vn -0.51706736 -0.21916304 0.82741097
vn -0.14205674 -0.34973633 -0.92601533
vn 0.66402735 0.25135743 -0.70419253
vn 0.17513948 -0.04809875 -0.98336802
vn -0.92611095 -0.13539915 0.35211587
vn 0.56545043 -0.69963169 -0.43678521
vn 0.62483481 0.04982719 0.77916539
vn 0.95968121 0.02170998 0.28025105
vn 0.76542679 -0.20764559 0.60910191
vn -0.97842019 -0.15704791 0.13427545
vn -0.72239411 -0.68587147 0.08790378
vn -0.17463099 -0.51024299 0.84211407
vn 0.11024209 -0.98781728 -0.10983490
vn 0.39350170 0.06746058 -0.91684540
vn -0.41239833 -0.28083927 -0.86663540
vn 0.53807928 -0.23739433 0.80877353
vn -0.23443516 -0.06737327 0.96979431
vn 0.31380820 -0.35358983 0.88119160
vn -0.27692510 0.08738577 -0.95690972
vn -0.81728664 0.42322414 -0.39105483
vn -0.06116540 0.14612466 0.98737347
vn 0.79871824 -0.41301444 0.43757084
vn -0.71153318 0.68509471 0.15609539
vn -0.42445264 0.06456634 0.90314514
vn 0.40704071 -0.09087974 0.90887773
vn 0.44601770 -0.18796696 -0.87506379
vn -0.05991803 0.09984828 -0.99319693
vn -0.62330397 0.22415035 0.74916539
vn 0.66621641 0.73104939 -0.14738549
vn -0.46105797 0.09223066 -0.88256391
vn -0.05391413 -0.02937264 -0.99811348
vn -0.92068103 0.07083280 0.38383480
vn -0.13758509 0.81109631 0.56850076
vn -0.12133721 -0.33646989 -0.93384436
vn 0.10567569 -0.68321365 -0.72253150
vn 0.97808379 -0.13395679 -0.15939787
vn -0.70082651 0.00667640 -0.71330052
vn 0.61285233 -0.17949198 0.76954185
vn 0.60849866 -0.09282031 -0.78810772
vn -0.01692981 -0.08237770 -0.99645737
vn -0.29437991 -0.63018320 -0.71847728
vn 0.26067362 -0.22736901 -0.93827107
vn 0.78710936 -0.27707074 -0.55108136
vn 0.98243294 -0.18250675 0.03894620
vn -0.74217630 -0.13406862 -0.65665817
vn 0.75019186 -0.57360307 0.32892504
vn 0.94994492 0.30648546 -0.06059130
vn -0.26673743 -0.93708224 -0.22522883
vn 0.94410365 0.26611474 -0.19455398
vn -0.10807436 -0.34330963 0.93298362
vn 0.07210037 -0.11284221 0.99099353
vn 0.58421833 0.04784040 -0.81018531
vn -0.80206445 -0.48723953 0.34538422
vn 0.70890230 0.19825124 0.67687073
vn 0.40932687 0.03928102 0.91154183
vn 0.67512877 -0.08318032 -0.73299535
vn 0.82785052 -0.03632745 -0.55977123
vn -0.73724813 0.08461014 -0.67030315
vn 0.99040618 -0.13039259 -0.04575340
vn -0.44913786 -0.01291954 0.89336906
vn 0.02412945 0.01228561 -0.99963335
vn -0.65937849 -0.42867180 0.61762488
vn -0.35077682 0.66761046 -0.65669772
vn -0.89021844 0.02567922 0.45480953
vn 0.31703761 0.17254373 0.93258555
vn -0.35677473 0.11700139 0.92683465
vn 0.94368238 0.09338925 0.31739881
vn -0.91656880 0.39987698 -0.00017938
vn -0.38082297 0.56468924 0.73218845
vn -0.19616467 -0.67797489 -0.70842747
vn -0.07704338 -0.98517276 0.15329365
vn -0.60579114 -0.44653586 0.65850044
vn 0.57064895 -0.43237084 0.69815130
vn 0.04959258 -0.26498354 0.96297679
vn -0.74317300 0.66127788 -0.10200713
vn -0.32514854 0.57564669 0.75027283
vn -0.51197843 0.60171392 -0.61304033
vn -0.53030062 0.34352659 0.77509401
vn 0.84397089 -0.35392909 -0.40304757
vn 0.56704335 -0.75298070 -0.33388906
vn -0.64391191 0.45425366 0.61565499
vn 0.01441839 -0.07259662 0.99725716
vn -0.74601232 0.41396434 -0.52163122
vn -0.29650489 -0.33147100 0.89566279
vn -0.07584440 0.02403549 0.99682994
vn -0.46079765 0.19757885 0.86523299
vn 0.64547608 0.05411944 0.76186070
vn -0.66446931 0.29722561 0.68566572
vn -0.32404918 -0.02267872 0.94576837
vn 0.07845030 0.01165239 0.99684992
vn 0.82644348 -0.10202467 0.55369859
vn -0.83949950 0.52646543 0.13444237
vn -0.69591547 0.35190622 -0.62599015
vn -0.48052827 0.50102761 -0.71976657
vn 0.87513115 0.16918222 0.45334628
vn 0.65964844 -0.16782977 -0.73259614
vn -0.82486154 0.30879875 0.47354701
vn -0.69060207 0.22464772 -0.68746068
vn 0.25135374 0.54619268 -0.79905873
vn -0.35745175 0.14741559 -0.92222388
vn 0.38726348 0.30042009 0.87165060
vn -0.34576875 -0.93201533 -0.10858820
vn -0.67869942 0.27988886 -0.67899140
vn 0.68893458 0.21165461 -0.69323262
vn 0.30649930 -0.09413933 0.94720429
vn 0.92208334 -0.32109465 -0.21601051
vn 0.87334086 -0.18836473 -0.44921540
vn -0.61561423 0.65692649 0.43527774
vn -0.34437319 0.10955191 -0.93241916
vn 0.89888371 -0.16785783 0.40476143
vn -0.87321878 0.25353693 0.41618263
vn -0.40759294 0.40885970 0.81651806
vn 0.79638575 -0.04359412 -0.60321579
vn 0.42331394 0.86801214 0.25953850
vn 0.52664077 0.44555061 -0.72397110
vn 0.18903186 -0.03299442 0.98141649
f 1//1 30//30 24//24
f 3//3 100//100 110//110
f 14//14 8//8 17//17
f 95//95 2//2 5//5
f 3//3 26//26 100//100
f 46//46 8//8 14//14
f 92//92 13//13 2//2
f 46//46 20//20 29//29
f 22//22 4//4 97//97
f 97//97 95//95 22//22
f 95//95 5//5 22//22
f 5//5 17//17 22//22
f 7//7 6//6 8//8
f 17//17 5//5 14//14
f 3//3 93//93 26//26
f 92//92 10//10 13//13
f 92//92 94//94 10//10
f 26//26 93//93 16//16
f 4//4 10//10 12//12
f 94//94 12//12 10//10
f 12//12 107//107 3//3
f 21//21 11//11 9//9
f 24//24 19//19 16//16
f 4//4 12//12 109//109
f 12//12 3//3 109//109
f 110//110 109//109 3//3
f 97//97 4//4 109//109
f 2//2 14//14 5//5
f 19//19 26//26 16//16
f 14//14 2//2 20//20
f 107//107 93//93 3//3
f 46//46 14//14 20//20
f 27//27 24//24 16//16
f 10//10 4//4 13//13
f 9//9 6//6 21//21
f 8//8 9//9 17//17
f 71//71 15//15 18//18
f 8//8 6//6 9//9
f 71//71 60//60 15//15
f 22//22 9//9 13//13
f 7//7 19//19 6//6
f 11//11 29//29 20//20
f 21//21 6//6 19//19
f 9//9 11//11 13//13
f 11//11 21//21 29//29
f 11//11 2//2 13//13
f 11//11 20//20 2//2
f 22//22 13//13 4//4
f 67//67 23//23 34//34
f 15//15 23//23 19//19
f 30//30 15//15 19//19
f 19//19 29//29 21//21
f 17//17 9//9 22//22
f 26//26 19//19 7//7
f 24//24 27//27 71//71
f 23//23 60//60 34//34
f 24//24 30//30 19//19
f 61//61 71//71 27//27
f 28//28 16//16 93//93
f 15//15 60//60 23//23
f 25//25 102//102 7//7
f 46//46 29//29 30//30
f 8//8 25//25 7//7
f 25//25 8//8 46//46
f 16//16 28//28 27//27
f 25//25 46//46 1//1
f 61//61 27//27 28//28
f 100//100 26//26 7//7
f 102//102 100//100 7//7
f 15//15 30//30 90//90
f 46//46 30//30 1//1
f 23//23 90//90 29//29
f 29//29 19//19 23//23
f 33//33 44//44 75//75
f 79//79 44//44 33//33
f 32//32 57//57 43//43
f 38//38 68//68 86//86
f 43//43 57//57 36//36
f 49//49 36//36 57//57
f 54//54 35//35 31//31
f 54//54 31//31 55//55
f 55//55 31//31 37//37
f 49//49 56//56 36//36
f 68//68 47//47 62//62
f 31//31 42//42 37//37
f 37//37 66//66 39//39
f 73//73 74//74 69//69
f 88//88 75//75 44//44
f 88//88 62//62 75//75
f 31//31 35//35 41//41
f 62//62 40//40 75//75
f 32//32 43//43 41//41
f 54//54 90//90 35//35
f 55//55 37//37 39//39
f 90//90 23//23 35//35
f 42//42 41//41 43//43
f 73//73 69//69 34//34
f 90//90 54//54 18//18
f 29//29 90//90 30//30
f 79//79 86//86 44//44
f 79//79 38//38 86//86
f 31//31 41//41 42//42
f 42//42 43//43 48//48
f 42//42 48//48 63//63
f 39//39 66//66 74//74
f 59//59 32//32 45//45
f 32//32 41//41 45//45
f 68//68 38//38 47//47
f 43//43 36//36 48//48
f 66//66 59//59 45//45
f 47//47 40//40 62//62
f 48//48 36//36 52//52
f 51//51 48//48 52//52
f 90//90 18//18 15//15
f 50//50 49//49 53//53
f 41//41 35//35 45//45
f 52//52 36//36 56//56
f 47//47 38//38 84//84
f 38//38 79//79 84//84
f 58//58 50//50 53//53
f 67//67 69//69 45//45
f 45//45 35//35 67//67
f 23//23 67//67 35//35
f 85//85 40//40 47//47
f 66//66 45//45 69//69
f 48//48 51//51 53//53
f 83//83 40//40 85//85
f 119//119 18//18 54//54
f 85//85 47//47 84//84
f 58//58 51//51 52//52
f 49//49 50//50 56//56
f 59//59 57//57 32//32
f 74//74 55//55 39//39
f 63//63 53//53 57//57
f 57//57 53//53 49//49
f 55//55 74//74 76//76
f 52//52 56//56 68//68
f 86//86 68//68 56//56
f 88//88 56//56 50//50
f 88//88 86//86 56//56
f 59//59 37//37 42//42
f 62//62 88//88 50//50
f 37//37 59//59 66//66
f 72//72 34//34 60//60
f 63//63 57//57 59//59
f 59//59 42//42 63//63
f 64//64 65//65 70//70
f 63//63 48//48 53//53
f 34//34 72//72 73//73
f 82//82 64//64 70//70
f 51//51 58//58 53//53
f 76//76 74//74 73//73
f 58//58 52//52 68//68
f 50//50 58//58 62//62
f 70//70 60//60 71//71
f 74//74 66//66 69//69
f 70//70 71//71 61//61
f 70//70 72//72 60//60
f 34//34 69//69 67//67
f 62//62 58//58 68//68
f 65//65 73//73 72//72
f 70//70 61//61 82//82
f 82//82 61//61 91//91
f 70//70 65//65 72//72
f 83//83 64//64 75//75
f 114//114 71//71 18//18
f 24//24 71//71 114//114
f 33//33 64//64 82//82
f 119//119 54//54 55//55
f 77//77 33//33 82//82
f 55//55 76//76 81//81
f 77//77 79//79 33//33
f 73//73 65//65 76//76
f 76//76 65//65 78//78
f 83//83 75//75 40//40
f 64//64 33//33 75//75
f 117//117 85//85 77//77
f 117//117 80//80 85//85
f 85//85 79//79 77//77
f 64//64 78//78 65//65
f 78//78 64//64 83//83
f 89//89 77//77 82//82
f 117//117 77//77 89//89
f 76//76 78//78 80//80
f 80//80 78//78 83//83
f 76//76 80//80 81//81
f 82//82 91//91 87//87
f 82//82 87//87 89//89
f 80//80 83//83 85//85
f 85//85 84//84 79//79
f 86//86 88//88 44//44
f 129//129 87//87 91//91
f 92//92 95//95 96//96
f 96//96 95//95 97//97
f 103//103 108//108 96//96
f 96//96 94//94 92//92
f 108//108 103//103 104//104
f 94//94 96//96 98//98
f 105//105 93//93 107//107
f 105//105 99//99 93//93
f 99//99 105//105 108//108
f 97//97 103//103 96//96
f 94//94 98//98 12//12
f 103//103 110//110 101//101
f 101//101 104//104 103//103
f 93//93 99//99 106//106
f 101//101 110//110 100//100
f 93//93 106//106 28//28
f 103//103 97//97 109//109
f 103//103 109//109 110//110
f 101//101 102//102 104//104
f 99//99 104//104 112//112
f 96//96 108//108 98//98
f 92//92 2//2 95//95
f 106//106 99//99 112//112
f 105//105 12//12 98//98
f 105//105 107//107 12//12
f 108//108 104//104 99//99
f 108//108 105//105 98//98
f 101//101 100//100 102//102
f 111//111 28//28 106//106
f 25//25 112//112 102//102
f 115//115 111//111 106//106
f 25//25 1//1 112//112
f 104//104 102//102 112//112
f 1//1 24//24 114//114
f 115//115 112//112 1//1
f 115//115 1//1 114//114
f 61//61 28//28 91//91
f 113//113 91//91 28//28
f 106//106 112//112 115//115
f 113//113 28//28 111//111
f 111//111 116//116 113//113
f 118//118 122//122 113//113
f 116//116 118//118 113//113
f 115//115 119//119 111//111
f 114//114 18//18 119//119
f 115//115 114//114 119//119
f 119//119 55//55 81//81
f 118//118 116//116 120//120
f 120//120 116//116 81//81
f 117//117 120//120 81//81
f 131//131 120//120 121//121
f 117//117 81//81 80//80
f 116//116 111//111 119//119
f 89//89 121//121 117//117
f 120//120 117//117 121//121
f 116//116 119//119 81//81
f 91//91 113//113 123//123
f 123//123 122//122 124//124
f 124//124 129//129 123//123
f 91//91 123//123 129//129
f 113//113 122//122 123//123
f 124//124 122//122 128//128
f 127//127 125//125 135//135
f 141//141 130//130 139//139
f 129//129 124//124 134//134
f 128//128 127//127 139//139
f 121//121 89//89 87//87
f 121//121 87//87 125//125
f 134//134 87//87 129//129
f 134//134 125//125 87//87
f 130//130 141//141 132//132
f 142//142 118//118 131//131
f 127//127 128//128 142//142
f 127//127 142//142 125//125
f 120//120 131//131 118//118
f 124//124 128//128 134//134
f 146//146 141//141 127//127
f 118//118 142//142 122//122
f 137//137 134//134 139//139
f 146//146 127//127 135//135
f 131//131 125//125 142//142
f 125//125 131//131 121//121
f 125//125 137//137 135//135
f 141//141 146//146 138//138
f 136//136 135//135 137//137
f 140//140 126//126 143//143
f 133//133 145//145 130//130
f 137//137 139//139 136//136
f 125//125 134//134 137//137
f 134//134 128//128 139//139
f 126//126 136//136 139//139
f 141//141 133//133 132//132
f 140//140 135//135 136//136
f 126//126 140//140 136//136
f 141//141 139//139 127//127
f 128//128 122//122 142//142
f 130//130 132//132 133//133
f 138//138 146//146 144//144
f 135//135 140//140 146//146
f 140//140 144//144 146//146
f 144//144 140//140 143//143
f 138//138 145//145 133//133
f 138//138 133//133 141//141
f 145//145 143//143 130//130
f 144//144 143//143 145//145
f 139//139 130//130 143//143
f 138//138 144//144 145//145
f 139//139 143//143 126//126

