# https://github.com/mikedh/trimesh
v 0.00465617 0.03474712 0.01697039
v -0.01455242 0.03802288 0.01649356
v -0.01455309 0.03802288 0.01656048
v -0.00421578 0.03797277 0.01246575
v 0.00541804 0.03187299 0.01686309
v 0.00486841 0.03805215 0.01392511
v 0.00401617 0.03824677 0.01206898
v -0.01455504 0.03802098 0.01686308
v -0.01119828 0.01988445 0.02293840
v -0.01245896 -0.01537106 0.02293762
v -0.01248385 -0.03268487 0.01953615
v -0.01145153 0.00980100 0.02293802
v 0.00896592 -0.01585183 0.02293809
v 0.00836495 -0.00598927 0.02293455
v -0.01109447 -0.03261387 0.02292878
v -0.01171883 -0.03268399 0.02088062
v -0.01075622 0.01989109 0.01962255
v 0.00945305 -0.04733386 0.01673600
v 0.00714300 -0.05884335 0.01656788
v 0.00754407 -0.05389266 0.01674733
v -0.01444210 -0.05884518 0.01025900
v 0.00842353 -0.06278760 0.01023708
v -0.01809135 -0.06029862 0.00564529
v 0.02153810 -0.04731321 0.00535377
v 0.01837303 -0.05826265 0.00564346
v 0.01989526 -0.05336529 0.00565632
v 0.01415332 -0.06319315 0.00565063
v 0.00825415 -0.06314945 0.00897116
v -0.02050375 -0.04732520 0.00564415
v -0.01776355 -0.06315384 0.00564593
v -0.01324608 -0.06314756 0.01026093
v -0.00846643 0.02985165 0.00533652
v -0.00622359 0.03009728 0.00533275
v 0.00615569 0.02106492 0.01954678
v -0.01533426 0.02939686 0.00525796
v 0.02184923 -0.04452956 0.00533786
v -0.02366594 0.00579100 0.00533946
v -0.02588264 0.01993285 0.00532573
v -0.02429505 -0.01685678 0.00533832
v 0.00204370 0.03187035 0.00547892
v 0.00400067 0.03185954 0.01952466
v -0.02060317 -0.04728463 0.00533968
v 0.02221887 -0.00600752 0.00534083
v 0.02174148 -0.01349724 0.00533835
v 0.02223165 -0.01838695 0.00533837
v 0.02240133 -0.02328367 0.00534954
v 0.02197047 -0.03515475 0.00534051
v 0.00973365 -0.03268466 0.01953647
v 0.02107522 0.01283797 0.00533623
v -0.01179518 0.03194931 0.01696431
v -0.02427797 -0.01746342 0.00533832
v -0.02476108 -0.00864176 0.00533864
v -0.02495755 -0.00732329 0.00533955
v 0.00843436 -0.03740683 0.01957611
v 0.00745985 -0.04731925 0.01953516
v 0.01826486 0.03187932 0.00561767
v -0.02321954 -0.02646759 0.00533834
v -0.02179811 -0.03792577 0.00533825
v -0.00926296 -0.04732122 0.01953647
v 0.02278612 -0.05308236 -0.02948054
v 0.02172211 0.00616766 -0.02947958
v -0.01992223 -0.03039464 -0.02947564
v 0.00011027 -0.07611633 -0.02945061
v 0.02046714 0.04758911 -0.02947705
v -0.02290130 0.00933368 -0.02947730
v 0.00090825 0.05408067 -0.02947890
v 0.01685395 -0.07243532 -0.02948340
v 0.02443232 -0.04554870 -0.02947505
v 0.02246484 0.04262230 -0.02946197
v 0.00441562 0.05850970 -0.02948598
v -0.00641067 0.03673640 -0.02947953
v -0.02337167 -0.01146079 -0.02948014
v -0.00792462 -0.07028888 -0.02947961
v -0.02068122 -0.02343619 -0.02949436
v 0.02181558 -0.06514128 -0.02947951
v 0.01005974 -0.07309616 -0.02947819
v -0.02380143 -0.04037098 -0.02947656
v 0.02427589 -0.01093708 -0.02945641
v 0.02135351 0.02497012 -0.02947826
v 0.02403555 -0.01834629 -0.02947829
v 0.02232835 0.00048065 -0.02952514
v 0.02747874 -0.04074089 -0.02947984
v -0.01514689 0.02911729 -0.02948606
v -0.02354276 0.02279460 -0.02948271
v 0.00855521 0.05604804 -0.02956213
v 0.02545611 -0.02447586 -0.02947914
v -0.01122433 -0.04732322 0.01669291
v -0.01072104 0.02555790 0.01953002
v -0.01391552 0.03802157 0.01481277
v -0.01258478 0.03187299 0.01953645
v 0.02232021 0.03145804 -0.02947689
v 0.00501532 0.01071681 0.02306408
v -0.01208784 0.02845255 0.00481621
v 0.02027106 0.02700879 0.00533985
v 0.02127594 0.00344978 0.00533710
v -0.00729656 -0.04735648 0.02261722
v 0.00504855 0.03805147 0.01693908
v 0.00398197 0.02956026 0.01966133
v 0.00091239 0.03831431 0.01093743
v 0.00715891 -0.03259246 0.02290470
v 0.02627754 -0.03664890 -0.02938074
v -0.00938059 -0.05883456 0.01668694
v 0.02247507 0.01593230 -0.02947999
v 0.00863535 -0.05922193 0.01089463
v 0.00347459 0.01989498 0.02273462
v 0.00434931 0.01215517 0.02327361
v 0.00795198 -0.02226969 0.02317946
v -0.00204048 0.03091564 0.00512669
v 0.01510312 0.05186271 -0.02953149
v -0.01397856 0.03679007 0.01692461
v -0.01426729 -0.05742213 -0.02947948
v 0.00531506 0.03212762 0.00562705
v 0.01446483 0.03531008 0.00566760
v -0.01238125 -0.00440235 0.02292808
v 0.01235999 -0.06580865 0.01228098
v 0.01276647 -0.06581172 0.01209137
v 0.01263440 -0.06574307 0.01218374
v 0.01246859 -0.06575677 0.01203701
v 0.00376409 0.06059548 0.00181354
v 0.00368554 0.06062146 0.00159310
v 0.00399889 0.06060547 0.00172765
v 0.00408920 0.06064673 0.00147561
v -0.00226590 0.05820527 0.00706628
v -0.00235143 0.05807228 0.00691450
v -0.00237919 0.05821726 0.00680357
v -0.00241704 0.05821610 0.00695886
v -0.00091950 0.05852347 0.00646349
v 0.00066735 0.05880850 0.00628809
v -0.00168709 0.05868302 0.00592869
v -0.00159461 0.05889147 0.00567757
v -0.00178375 0.05882050 0.00579028
v -0.00166425 0.05881147 0.00578400
v -0.00164942 0.05901146 0.00553365
v -0.00154607 0.05896412 0.00557952
v -0.00154499 0.05896747 0.00557427
v -0.00162653 0.05901948 0.00551463
v -0.00153551 0.05905610 0.00544198
v -0.00218826 0.05896075 0.00572125
v -0.00167612 0.05881350 0.00578056
v -0.00153547 0.05902347 0.00548985
v -0.00150465 0.05910348 0.00537636
v -0.00152801 0.05906420 0.00543120
v -0.00158760 0.05960112 0.00477503
v -0.00220918 0.05979348 0.00444574
v -0.00234849 0.06022303 0.00373272
v -0.00111466 0.05991377 0.00480691
v -0.00156752 0.05954895 0.00477626
v -0.00123047 0.06024148 0.00445357
v -0.00142753 0.06015025 0.00427716
v -0.00155765 0.06033324 0.00382830
v -0.00187509 0.06025355 0.00374169
v -0.00144032 0.06011147 0.00431783
v -0.00147539 0.06006179 0.00435160
v 0.00048733 0.05971095 0.00573499
v -0.00230872 0.06045948 0.00323633
v -0.00237067 0.06036347 0.00345705
v -0.00233906 0.06041147 0.00334541
v -0.00260053 0.06044347 0.00334094
v 0.00631586 0.06098058 -0.00121972
v 0.00570285 0.06089186 -0.00103402
v 0.00593219 0.06118001 -0.00217795
v 0.00667349 0.06104505 -0.00227475
v 0.01111052 -0.05804302 0.01666571
v 0.00980152 -0.05877755 0.01665230
v 0.00994409 -0.06323924 0.01563626
v 0.01180240 -0.06152576 0.01693693
v 0.01251829 -0.06114425 0.01535558
v 0.01207854 -0.06550843 0.01290631
v 0.01281350 -0.06470094 0.01345093
v 0.00884616 -0.05812395 0.02015854
v 0.00834054 -0.05945383 0.01882019
v 0.01045154 -0.06284946 0.01424196
v 0.00753739 -0.05526534 0.02163929
v 0.01039888 -0.05592066 0.02113335
v 0.00896387 -0.05433197 0.01921950
v 0.01111837 -0.05524455 0.02007177
v 0.00819465 -0.05152012 0.02255174
v 0.00881174 -0.05218712 0.02365724
v 0.00970376 -0.05293724 0.01993739
v -0.01245839 -0.01291935 0.02293810
v -0.01073730 0.01999756 0.02024157
v -0.01976414 -0.05080335 0.00564459
v 0.00931991 -0.03451054 0.01953674
v -0.02495227 -0.00782778 0.00533223
v -0.02233740 -0.03577490 0.00533897
v -0.02292147 -0.04130480 -0.02948313
v -0.00640701 0.03846424 -0.02913699
v 0.02512430 -0.04277743 0.00173354
v 0.02311556 -0.06700400 -0.02744264
v 0.02430424 -0.05490970 -0.02657398
v -0.01102400 -0.02910118 0.02539669
v 0.02757955 -0.03493981 -0.02682345
v -0.00974737 -0.03082933 0.03108925
v 0.00082809 -0.08190912 -0.01047537
v -0.00681496 -0.02219577 0.03485622
v -0.01377874 -0.06959721 0.00821206
v -0.01195541 0.01515079 0.02916485
v -0.00925377 -0.00499019 0.03559475
v -0.00847283 -0.06137370 0.01879129
v -0.00689298 -0.03595784 0.03145166
v -0.03144563 0.00798128 -0.00479257
v 0.00909194 -0.07528088 -0.01647272
v -0.02959983 -0.01919238 -0.00256491
v 0.01693902 -0.07039694 -0.02062693
v -0.01029658 -0.06640062 0.01418125
v 0.00020438 0.00671325 0.03468023
v -0.00961677 0.02139894 0.03074429
v 0.02560717 -0.01232441 -0.00677631
v -0.01073665 -0.06387117 0.01309983
v 0.01250429 -0.07471475 -0.01788772
v 0.01731812 -0.07430051 -0.02752341
v 0.02058076 -0.06990854 -0.00342918
v -0.01194316 -0.03431958 0.01955588
v -0.02540442 -0.04946755 -0.02347887
v 0.02101013 -0.06858056 -0.00891564
v -0.02128641 -0.05633897 -0.02325973
v -0.01965627 -0.06602309 -0.01214127
v 0.02143232 -0.05840574 -0.01295160
v -0.01843454 -0.06191295 -0.01360727
v -0.00541830 -0.06891689 0.01450175
v 0.00162411 -0.04858350 0.02734899
v 0.02335146 -0.06122555 -0.00843998
v -0.01526677 0.03972536 0.01558352
v 0.02534048 -0.05610528 -0.00778994
v 0.02660217 -0.04720541 -0.00724574
v -0.02797928 -0.00692399 -0.02344085
v -0.02818014 0.00042481 -0.02387692
v -0.02855129 -0.00228415 -0.01981311
v -0.01963258 -0.07181227 -0.00785821
v -0.01153996 0.02593582 0.02491724
v 0.00363884 -0.07723345 -0.01337935
v 0.00404998 -0.00064951 0.03421790
v 0.01636215 -0.07526604 -0.00876899
v 0.01850307 -0.07087115 0.00131588
v 0.02324675 -0.06378370 -0.00086320
v -0.01613742 0.05420391 0.00547418
v -0.02614491 -0.01600705 -0.02702917
v -0.00734402 0.02991704 0.02722477
v -0.01135483 -0.02096166 0.03205536
v 0.00148441 0.02111372 0.03023898
v 0.02652424 -0.04327408 -0.00165636
v 0.00789172 -0.08069967 -0.01055189
v 0.00578553 -0.00530234 0.03264513
v 0.01066448 -0.07420491 0.00636762
v -0.02612083 -0.03578703 -0.02751494
v -0.00852429 -0.03678556 0.02925907
v 0.00352449 0.02691577 0.02119221
v -0.02177363 -0.05351839 -0.01475905
v -0.02137022 -0.05989128 -0.01389063
v -0.02264039 -0.06183857 -0.02025558
v 0.00454713 0.03480410 0.01828404
v -0.02697908 0.00826091 -0.01420906
v -0.02934935 0.00841525 -0.02417778
v -0.03127152 0.01948501 -0.02451517
v -0.02444508 -0.04327772 -0.01188516
v -0.02210615 -0.05325796 -0.01070477
v 0.02592861 -0.05085818 -0.02303917
v -0.03040516 -0.00560109 -0.00237692
v -0.03086566 0.00065684 -0.00337646
v -0.02634128 0.01521503 -0.02772969
v -0.02596206 -0.00365090 -0.02734139
v -0.01300700 -0.07927046 -0.00408693
v 0.01915286 -0.07023668 -0.02797924
v -0.02717613 0.03756470 -0.01165879
v 0.02363749 0.02575608 -0.02620204
v -0.01322127 0.05889083 -0.00157283
v 0.02357876 0.03606689 -0.02649564
v -0.02955113 0.01569825 -0.02303051
v -0.01952685 0.05662262 -0.00679014
v -0.02174637 -0.06664011 -0.00930002
v -0.01745583 -0.06321739 0.00613227
v 0.02575596 0.03055831 -0.02636205
v -0.00483974 0.03389959 0.02537414
v -0.00464212 0.03979466 0.02127529
v -0.02719513 -0.05231049 -0.00335146
v -0.03029141 0.02438295 -0.02404582
v 0.01617822 -0.06481514 0.00363513
v 0.01625065 -0.06793273 0.00327159
v -0.02842746 0.03221273 -0.01821220
v -0.02322422 -0.06561508 -0.00293971
v -0.02356912 0.00476041 -0.02947539
v -0.01462921 0.04388001 -0.00083828
v 0.00471737 -0.08094015 -0.02552730
v -0.02594631 0.04553535 -0.02545023
v -0.02227759 0.03461512 0.00245686
v -0.02173689 0.04821633 -0.02230504
v 0.01348110 -0.07177711 -0.01280412
v 0.02079031 -0.05863601 0.00394736
v -0.01860139 0.05259923 -0.01414429
v -0.01473937 -0.07408532 -0.02120085
v -0.00866657 0.05963657 0.00126510
v -0.02373906 -0.02405501 -0.01512316
v -0.00714573 0.06082320 -0.00726161
v -0.02427093 -0.02557753 -0.02003861
v -0.00508961 -0.07982972 0.00320604
v -0.01606958 0.04731184 0.01224838
v -0.01964865 -0.07131309 -0.00044022
v -0.00076995 -0.07962643 -0.02814424
v 0.02609377 -0.02663397 -0.00050143
v -0.01704531 0.03022449 0.00194379
v 0.00401031 -0.07899664 0.00425404
v 0.02003683 -0.06211934 -0.01662716
v 0.00435617 0.01177896 0.03108021
v -0.00349117 0.04999091 0.01402810
v 0.00378354 0.01795633 0.02653948
v 0.02607537 -0.02202363 -0.00699003
v -0.02549487 -0.05105619 -0.01764333
v 0.01332094 -0.07654743 0.00102808
v -0.00967688 -0.03782080 0.02298969
v 0.02438916 -0.01717417 0.00263618
v 0.02457321 -0.06054869 -0.02485974
v -0.00450396 0.04555446 0.00237797
v 0.01367437 -0.07803858 -0.00377578
v -0.00409674 0.04343609 0.00739033
v 0.00293198 0.02524215 0.02597314
v 0.02257461 -0.00674391 0.00531469
v -0.02396001 -0.05936538 -0.02007683
v 0.01821780 -0.06375136 -0.01053099
v 0.00162011 0.03054731 0.02600302
v 0.00096879 -0.01645449 0.03556538
v 0.00098380 -0.00441696 0.03604056
v -0.00436673 0.05483381 0.01054659
v 0.00043658 0.04157371 0.01096396
v -0.00305949 -0.03125659 0.03395861
v -0.00144603 0.05589036 0.00867577
v 0.02234267 -0.06815133 -0.02506582
v 0.01887184 -0.06689880 -0.01591733
v 0.00386891 0.03657989 0.02085844
v -0.00352476 -0.03866041 0.03127887
v -0.02837965 -0.04129177 -0.00362250
v -0.00745836 0.02893596 0.00318249
v -0.01080502 0.03310498 -0.00193542
v -0.02448419 -0.03729073 -0.00978164
v 0.00359658 0.02991625 0.02153363
v 0.02061656 -0.05430165 -0.01338354
v 0.02835991 -0.04125141 -0.02795707
v -0.02695347 -0.04972029 -0.00780186
v 0.00522071 0.00488445 0.02463677
v -0.02502700 -0.06035882 -0.00718375
v 0.02610798 -0.04598902 -0.02656841
v -0.00654790 0.06020557 -0.00060710
v -0.00270592 0.06133643 -0.00241128
v 0.00600011 -0.00254307 0.02511900
v 0.00653932 -0.00703455 0.02574246
v 0.00642997 0.05933771 -0.00109302
v -0.02857055 -0.03578973 -0.00280176
v -0.02783654 -0.04680352 -0.00308476
v 0.02209198 -0.04062374 -0.00960776
v -0.02427566 0.04566629 0.00136507
v -0.02438154 -0.05848870 -0.00904091
v 0.00239108 -0.05948204 0.02183407
v -0.00783107 -0.07676702 -0.02480228
v 0.00431609 -0.05414876 0.02400229
v 0.02345367 -0.03195203 -0.01621978
v 0.00718701 0.04282736 0.01264842
v -0.02401734 -0.04966140 -0.01075100
v -0.00176171 0.03948048 0.01132340
v -0.00986385 -0.07420401 -0.01314108
v 0.00457190 -0.01198943 0.03460148
v -0.02267093 -0.05843503 -0.01087209
v 0.00172976 0.05467788 0.00890512
v 0.00769285 -0.06351978 0.01712366
v -0.00357084 0.03477921 -0.00210575
v 0.00929631 0.05204043 -0.01057731
v -0.00108746 0.06079981 -0.00794400
v 0.01488317 0.04473941 -0.00834187
v 0.00261146 0.03728251 0.02171715
v 0.01653332 0.04151886 -0.01219792
v 0.00188394 0.06064142 -0.00184492
v 0.02264918 -0.03517800 -0.01050883
v 0.01960696 0.04306316 -0.00740501
v 0.01731946 0.04971406 -0.00160565
v -0.01283101 -0.07784890 -0.02623025
v -0.00686693 -0.05317763 0.02397051
v 0.00841965 0.04567454 0.01237714
v 0.00458639 0.05532304 -0.00956539
v 0.00668502 -0.05827255 0.01993141
v 0.00987314 -0.06457299 0.01418781
v -0.01557725 -0.07176249 -0.02465526
v 0.02229063 -0.05090847 -0.00986814
v 0.00359319 0.04255097 0.01846154
v 0.00450498 0.04227896 0.01025511
v 0.00940596 0.03492275 0.00449621
v 0.00261130 -0.02493668 0.03525482
v 0.02514596 -0.05552581 -0.00133789
v -0.00235693 -0.05692349 0.02343462
v 0.02143888 0.01891622 -0.00762070
v 0.00672054 -0.00896844 0.02729924
v 0.00596353 -0.05350945 0.01866246
v 0.00683755 -0.03861690 0.02163019
v -0.00571516 -0.08059199 -0.02402007
v 0.00594106 -0.03519357 0.02597979
v 0.00736581 -0.03503681 0.02172071
v 0.01107724 0.04704057 -0.00149529
v 0.00501698 0.05881802 -0.00792081
v -0.00979669 -0.07247266 -0.02822241
v 0.01195930 0.04952033 0.00714238
v 0.01207483 0.04754531 0.00662023
v 0.00714266 -0.01696841 0.02528793
v 0.02357065 -0.04614244 -0.01860728
v -0.02960114 0.03772711 -0.01773832
v -0.02670107 -0.02038604 -0.01563140
v 0.01364754 0.05143580 0.00394286
v 0.02451368 0.01366194 -0.01989661
v 0.00759807 0.05315585 0.00778516
v 0.02107026 0.01796796 -0.01216734
v 0.00345268 -0.04114405 0.03002377
v 0.01420035 0.04702166 0.00491833
v 0.02092365 0.00456763 -0.00836190
v 0.00699504 -0.04779419 0.02002784
v 0.02486099 -0.04196655 -0.01843892
v -0.00517088 0.04865947 -0.02704039
v 0.00069771 -0.07625233 -0.01543575
v -0.02455288 0.03953656 -0.01262462
v 0.00150366 -0.03812907 0.03183697
v 0.00718334 -0.05979413 0.01313904
v -0.00273926 -0.08135078 -0.02513908
v -0.01196582 -0.01309917 0.03198881
v 0.02183617 0.00175518 -0.01577486
v -0.01250636 -0.01025093 0.02428231
v 0.02022435 0.04252821 0.00125539
v 0.00179532 0.05661057 0.00698285
v 0.00536143 0.04679885 0.00037043
v 0.00845190 0.04514156 0.00803027
v -0.02468638 0.03958935 -0.01697495
v 0.02495370 0.00640736 -0.00054560
v 0.00600058 0.05412002 -0.01507395
v -0.01624725 -0.07022304 0.00509407
v 0.01148815 0.05396825 0.00316790
v 0.00821362 -0.06179345 0.01111817
v 0.02524809 -0.00405796 -0.00025227
v 0.02692927 -0.03875038 -0.00794404
v 0.02614423 -0.00705676 -0.00678449
v 0.02319225 -0.00612252 -0.00860635
v -0.02012768 0.04526845 0.00161868
v 0.02191018 0.03418696 0.00265207
v 0.01264694 0.05504799 -0.00231680
v 0.02225815 -0.02032602 -0.01374464
v -0.00228783 0.02085869 0.03172241
v 0.01156017 0.04692817 0.00252902
v 0.01263809 0.04369380 0.00248482
v 0.02651752 -0.02781778 -0.02472826
v 0.01721785 0.04049655 -0.00867971
v -0.02354010 0.04916739 -0.01294646
v 0.01343188 0.05415765 -0.00728504
v -0.02197931 0.05507898 -0.00808035
v -0.00087988 0.05835938 -0.01073909
v -0.02698150 0.04726006 -0.02105559
v 0.02439610 0.02663544 -0.00127242
v 0.02475095 -0.01337430 -0.02359343
v 0.02358885 0.01913628 -0.02185170
v 0.02231076 0.03872188 -0.00689775
v -0.03073299 0.00041292 -0.00577007
v 0.01386300 0.04988859 -0.01027782
v 0.02481856 0.01856583 -0.00629929
v 0.00701902 -0.07874796 -0.02001215
v 0.02541754 -0.01980800 -0.02587231
v 0.02463322 -0.00531270 -0.02713338
v 0.02054887 0.00844582 -0.00959594
v 0.01567472 0.04559301 0.00446031
v 0.02248227 0.00939318 -0.02866583
v -0.00588084 0.05698453 -0.01564960
v 0.00037317 0.05688103 -0.02815847
v -0.02956201 -0.02026729 -0.00532314
v 0.00023915 0.05953299 -0.02444099
v 0.02189412 -0.01360973 0.00521682
v 0.02252883 -0.01255990 0.00479548
v 0.00999435 -0.07551137 -0.02738193
v 0.01096467 -0.07632739 -0.02294652
v -0.03018700 0.00354533 -0.00777606
v -0.00840971 -0.05760227 0.01823156
v -0.02822294 -0.03457660 -0.00701090
v -0.01644724 0.04442106 0.01395911
v -0.02663394 -0.00450683 -0.00961534
v -0.00167188 0.05778388 -0.01423951
v 0.02327918 -0.02485430 0.00456607
v 0.02309007 0.00947639 -0.02234534
v 0.02277247 0.03654326 -0.00219863
v 0.02475711 -0.00994188 -0.02124916
v 0.00486721 -0.04485966 0.02483480
v -0.01816342 0.04428157 0.01044668
v 0.00272676 0.05635195 -0.01289466
v 0.02528375 0.00558201 -0.02331533
v 0.01797134 -0.06836536 -0.01138038
v 0.02113393 -0.00219094 -0.00877052
v -0.02608648 -0.01766613 -0.01097867
v 0.02160832 0.00164130 -0.00875028
v 0.01775767 0.04769681 -0.00681399
v 0.02076863 -0.06025389 -0.01038554
v 0.02601362 -0.00177289 -0.02505819
v 0.00451342 -0.07125746 0.01230816
v 0.02250835 -0.04526773 -0.01031549
v -0.01267695 0.00406956 0.03057238
v 0.02343783 -0.00104231 0.00302488
v -0.01330836 0.03540679 0.02048172
v -0.01177507 0.00858933 0.03171220
v -0.03041710 0.03103534 0.00074061
v -0.01027082 0.03214444 0.02552154
v 0.00476480 -0.04888114 0.02479491
v 0.00221905 0.06010136 -0.02278439
v 0.00391217 0.05841000 -0.01960643
v -0.02612983 -0.01549080 -0.01697429
v -0.02465055 -0.02967433 -0.01053080
v -0.03197338 0.02007999 -0.00666700
v -0.02539147 -0.02551372 -0.01058166
v -0.00794256 0.00537879 0.03459763
v -0.02484825 -0.02142208 -0.00977090
v -0.02730932 0.03466481 0.00297514
v 0.01023647 -0.06800571 0.01233240
v -0.00453591 -0.08002340 -0.01945695
v 0.02062435 -0.01452887 -0.00976251
v 0.02406105 0.03002826 -0.00637330
v -0.01565970 0.03836083 -0.00245252
v 0.02010510 0.01473196 -0.00767356
v -0.02541168 -0.03416939 -0.01068572
v -0.02348885 -0.03954587 -0.01436898
v 0.00441762 0.06022611 -0.02860923
v 0.02196962 -0.00601310 -0.01271505
v 0.02372590 -0.00730991 -0.01955027
v -0.00909022 0.05750918 0.00512536
v -0.02867591 -0.02045901 -0.00775284
v -0.02970789 -0.00936483 -0.00757375
v -0.02532755 0.03489946 0.00331766
v -0.02561631 0.04564547 0.00152520
v 0.00912027 -0.06449266 0.00922900
v 0.02625758 -0.02458231 -0.02801245
v 0.01241160 0.05348353 -0.02031173
v -0.02337128 -0.04698759 -0.01383352
v 0.01488331 0.04905175 -0.01453173
v -0.02680491 0.04178230 0.00210601
v -0.02556480 -0.01225890 -0.00975229
v -0.00263561 -0.07791506 -0.01336017
v 0.01223998 -0.06726876 0.00645531
v -0.00734127 0.05761542 0.00634304
v 0.01327681 -0.06776414 0.00461556
v 0.02142928 -0.02447309 -0.00865500
v -0.03055146 0.03906303 -0.00196045
v 0.01420437 -0.06681897 0.00348095
v -0.02187330 -0.02783500 -0.02731037
v -0.01374521 -0.07253591 0.00677372
v -0.02663945 -0.02687440 -0.01590611
v 0.00968582 -0.07582999 -0.01323910
v -0.00882999 0.05843919 0.00359261
v -0.01117843 0.05773746 0.00447168
v 0.00975127 0.05657117 -0.02659886
v 0.00609560 0.06033608 -0.02775882
v 0.02276205 -0.03756234 -0.01479806
v -0.02922736 -0.01157899 -0.02256783
v 0.02272379 0.00977659 -0.01781876
v -0.02887239 -0.01984003 -0.02212378
v -0.02535314 -0.04019210 -0.01850117
v 0.02038249 0.02218203 -0.00990107
v -0.02833799 -0.03563333 -0.02495960
v 0.01240779 -0.06751410 0.00955617
v -0.00641028 -0.07709002 -0.01235539
v -0.02893198 0.02026873 -0.01589272
v 0.02070135 0.02744885 -0.00814914
v -0.02756472 0.00626525 -0.00972697
v -0.02712168 -0.03999739 -0.02531260
v -0.02534221 -0.03054159 -0.01864541
v 0.01611979 -0.07511929 -0.02545456
v 0.01473710 -0.06902841 0.00523306
v -0.02031918 0.04577417 0.00481806
v -0.00547936 -0.04544120 0.02853264
v 0.01351146 0.05013783 -0.01707264
v 0.01587221 -0.07444896 -0.02192899
v 0.01412627 -0.07125570 0.00650889
v -0.02651826 0.01621984 -0.01234732
v -0.02742021 -0.04585108 -0.02465403
v -0.02337017 -0.05377786 -0.02462581
v -0.02499137 -0.04478617 -0.02796007
v 0.02488790 0.02207079 -0.02426152
v -0.01466679 -0.07527262 0.00262078
v 0.02109956 0.02931292 -0.01281859
v 0.02666176 0.01489297 -0.02577593
v -0.01965843 -0.06432078 -0.02321659
v 0.01909770 0.03263450 -0.00996693
v 0.01924940 0.03542770 -0.01047380
v -0.02202911 -0.06169953 -0.02251536
v -0.01915516 -0.05638064 -0.02722298
v -0.01270907 -0.07842182 -0.00901914
v -0.03039498 0.01310825 -0.02242856
v 0.01597489 0.05195867 -0.02791657
v -0.02008015 -0.06851625 -0.02095918
v 0.02377196 0.00990239 -0.02557226
v -0.01438207 -0.07227773 -0.01219958
v 0.02078567 0.02550160 -0.01398647
v -0.02686286 0.03411906 -0.01012860
v -0.03226654 0.02971199 -0.00479386
v -0.01502904 -0.06863713 -0.01352428
v 0.01814774 0.04677370 -0.01868088
v -0.00611519 -0.08149837 -0.00971424
v 0.02007373 -0.05987436 0.00396226
v -0.02688327 -0.00684868 -0.01976658
v -0.02744498 -0.00939618 -0.01609911
v 0.01361253 0.05583082 -0.02750351
v 0.02253414 -0.04551710 0.00470095
v 0.02238057 -0.03886720 0.00485513
v 0.02377175 -0.05492931 0.00168484
v 0.02294818 -0.03329652 0.00429072
v -0.02278538 0.03929864 -0.02666551
v -0.02334438 0.02851771 -0.02878770
v 0.01782419 0.05006213 -0.02156516
v -0.03135765 0.02697027 -0.00765234
v 0.00519836 -0.03299696 0.03121616
v -0.00142695 -0.08282811 -0.00499315
v -0.01249642 0.03912447 0.01973982
v 0.00642645 -0.02469594 0.02721509
v -0.00128352 0.03270807 0.00071115
v 0.02235025 0.03855859 -0.02183477
v -0.00054462 -0.07776680 -0.02078861
v 0.00444936 0.04006645 0.01157436
v -0.03189868 0.02022815 -0.00189075
v 0.01774206 0.04348764 -0.01774268
v 0.00574152 -0.02652037 0.03204786
v -0.00638269 0.05485183 0.00880215
v -0.02560562 0.04841444 0.00109384
v -0.02683092 0.03158526 -0.01349775
v 0.02097129 0.03513745 -0.01938939
v -0.00549236 0.05897273 0.00363987
v -0.03158029 0.02818769 -0.02365504
v -0.02714055 0.02146735 -0.00977324
v -0.02834207 0.02809993 -0.01061890
v -0.00114167 0.03084900 0.00462570
v -0.02640080 0.02464882 -0.01132974
v 0.02365823 0.03946058 -0.02685575
v 0.02668482 -0.03872866 -0.02570326
v 0.01122016 0.04676188 0.00460721
v -0.00430154 0.05809663 0.00638835
v 0.00804093 0.04289121 -0.00147564
v 0.02253651 0.02179326 -0.01538861
v 0.00629349 0.03450768 0.00335745
v -0.00311314 0.05769848 0.00794804
v 0.00726673 -0.01602181 0.02604412
v -0.02716088 -0.00747460 -0.01054291
v -0.02987633 0.03974810 -0.00843914
v -0.02725158 0.02358107 -0.01575140
v 0.01771655 0.03849194 0.00528450
v -0.02682181 0.04912130 -0.00596907
v -0.01521249 0.04101045 0.01669531
v 0.02372508 0.03075770 -0.02073562
v -0.00024456 0.04259721 -0.00225911
v -0.00832660 0.03889579 -0.00369785
v 0.01887639 0.05136150 -0.02726443
v 0.02094676 -0.05505606 -0.00981114
v 0.02283449 0.02398839 0.00312857
v -0.02150600 0.04999838 0.00544209
v 0.02128714 -0.01062054 -0.00867257
v -0.01560178 0.04159395 0.01096399
v -0.00126300 0.05910645 0.00432200
v 0.02136036 0.04819346 -0.02740170
v -0.02529993 0.04567578 -0.01220614
v 0.02191123 -0.01960728 -0.00959808
v 0.02496809 0.00477204 -0.00610814
v 0.02253167 -0.02915006 -0.00998362
v -0.00117281 0.06053684 0.00165286
v 0.00478791 -0.08152634 -0.00139531
v 0.02237146 0.04374211 -0.02890834
v 0.02181899 0.04447726 -0.02705473
v 0.02263899 0.03926719 -0.02935322
v -0.03138108 0.02151851 -0.00070400
v -0.03136286 0.01144804 -0.00755658
v 0.02548695 0.00249749 -0.02647199
v -0.03077010 0.03657582 -0.02407091
v -0.02084033 0.04744436 0.00698461
v -0.01888552 0.05613251 0.00047304
v -0.01035598 0.05100933 -0.02114169
v 0.00858584 -0.06488856 0.00829603
v 0.02588546 -0.00956047 -0.02659596
v 0.00624747 -0.07681703 -0.01263129
v 0.01260875 -0.07818836 -0.01036586
v -0.02351312 0.05320574 -0.00280577
v -0.02710565 -0.02217293 -0.02499561
v -0.02762463 0.01311411 -0.01090182
v -0.01117433 0.04301726 -0.02615785
v -0.02954472 0.02488794 -0.02815280
v -0.02826264 0.03179255 -0.02535018
v -0.02740050 0.04016188 -0.02285020
v -0.02792642 0.04461580 -0.02508099
v -0.02641445 0.00021473 -0.01073282
v -0.01179339 0.05622325 0.00467492
v -0.01417227 0.05875651 0.00059500
v -0.02938322 0.00451823 -0.02166418
vn 0.73860418 -0.01398013 -0.67399438
vn -0.57032798 -0.81733196 -0.08181971
vn 0.00000000 -0.00000000 0.00000000
vn -0.05585326 -0.88208949 -0.46775907
vn 0.77967904 -0.46662481 -0.41756663
vn 0.54200600 -0.82041954 -0.18204743
vn 0.41406264 -0.69140039 -0.59204529
vn 0.73312035 -0.45968845 -0.50121959
vn -0.87010430 -0.25841105 -0.41969303
vn -0.74448101 -0.03786822 -0.66656885
vn -0.79353182 0.46709220 -0.39004119
vn -0.65961781 0.02923872 -0.75103225
vn 0.87180156 -0.07668264 -0.48382003
vn 0.88590904 0.12708367 -0.44611087
vn 0.41286043 0.63812031 -0.64988364
vn -0.67263473 0.72922467 0.12567377
vn -0.58115989 -0.57615524 -0.57471587
vn 0.81338212 0.45595745 -0.36126490
vn 0.78846609 0.56866842 -0.23438741
vn 0.87554013 -0.18498927 -0.44632774
vn -0.81924421 0.45957444 -0.34297267
vn 0.55431680 0.60893172 -0.56739320
vn -0.88209346 -0.16334471 -0.44184798
vn 0.38902545 -0.05915971 0.91932548
vn 0.29278272 -0.16517622 0.94180417
vn 0.35730537 -0.06357470 0.93182141
vn 0.32712140 -0.17173642 0.92924603
vn 0.42661975 0.90369917 -0.03637867
vn -0.53301538 0.49922643 0.68313071
vn 0.69294765 0.58387073 0.42298762
vn -0.87517956 0.36376813 0.31895686
vn -0.22880452 0.83188058 0.50559192
vn -0.11630556 0.80954741 0.57541812
vn 0.85113056 -0.37325322 -0.36913249
vn -0.01478960 0.68354503 0.72975850
vn 0.38999297 -0.01002284 0.92076328
vn -0.41147742 -0.00767707 0.91138762
vn -0.46981376 0.18011599 0.86419515
vn -0.88558507 -0.03930190 -0.46281146
vn -0.08630842 0.92654292 0.36615444
vn 0.86685956 -0.46755906 -0.17304056
vn -0.64489573 0.10828766 0.75656016
vn 0.29102483 0.09847962 0.95163350
vn 0.31969813 -0.00572740 0.94750214
vn -0.99508831 -0.09734585 0.01797309
vn 0.37948733 0.02297260 0.92491168
vn 0.39511836 -0.00615659 0.91860959
vn 0.78605217 0.48961654 -0.37735611
vn 0.40702959 0.00946612 0.91336592
vn -0.40722298 -0.64874941 -0.64287919
vn -0.37167050 0.78930962 -0.48872422
vn -0.90351585 -0.14150017 -0.40452048
vn -0.51867529 -0.04417005 0.85382958
vn 0.82384663 -0.21071181 -0.52619128
vn 0.88558081 0.36664265 0.28516625
vn 0.28250157 0.06525596 0.95704468
vn -0.45385847 -0.04410991 0.88998135
vn -0.43876209 -0.04242980 0.89760099
vn -0.66191599 -0.61729729 -0.42521910
vn 0.46709966 -0.07119897 -0.88133343
vn 0.30878145 0.03183575 -0.95060007
vn -0.26745397 0.07612973 -0.96055850
vn 0.00073916 -0.24304497 -0.97001474
vn 0.46648932 0.29790645 -0.83285020
vn -0.21355291 0.01497261 -0.97681676
vn -0.29080414 0.15744582 -0.94373925
vn 0.30647007 -0.40399585 -0.86189526
vn 0.41970757 -0.16768208 -0.89203603
vn 0.72895272 0.06864517 -0.68111362
vn -0.09011022 0.31984859 -0.94317391
vn -0.08045936 0.07836897 -0.99367228
vn -0.35293252 -0.01975168 -0.93544027
vn -0.18454582 -0.14877206 -0.97149870
vn -0.31498792 -0.08899002 -0.94491449
vn 0.45972884 -0.11843287 -0.88012672
vn 0.06756395 -0.33381373 -0.94021461
vn -0.74955506 -0.47403619 -0.46201396
vn 0.53571862 0.01561828 -0.84425211
vn 0.40838391 -0.02505960 -0.91246622
vn 0.53739656 0.04575611 -0.84208748
vn 0.37532044 0.01612699 -0.92675482
vn 0.57189483 -0.04195057 -0.81925360
vn -0.05797769 0.08206891 -0.99493883
vn -0.14679982 0.01048518 -0.98911065
vn 0.26063761 0.39857648 -0.87932066
vn 0.52860856 0.08156319 -0.84493812
vn -0.77983694 0.49791006 -0.37939414
vn -0.61106646 -0.09519460 -0.78583444
vn -0.38280960 -0.87334875 -0.30119557
vn -0.84354421 -0.38915032 -0.37012862
vn 0.41179904 0.02804882 -0.91084291
vn 0.85806915 0.33308895 -0.39085686
vn 0.00321618 0.51955005 0.85443397
vn 0.41103578 0.04592267 0.91046180
vn 0.40718254 0.01485377 0.91322601
vn -0.95691298 -0.12967612 0.25981080
vn 0.83305061 -0.53147223 -0.15350554
vn 0.79364105 -0.00865164 -0.60832478
vn 0.08923886 -0.59324183 -0.80006285
vn 0.92866355 0.37025973 0.02217533
vn 0.59713479 0.03278793 -0.80147052
vn -0.88967934 0.43139076 0.14957498
vn 0.39471119 0.02453218 -0.91847768
vn 0.76030551 0.54221209 -0.35768922
vn 0.87819126 -0.36706671 -0.30666290
vn 0.72645150 0.12653823 -0.67546746
vn 0.83894448 -0.02764156 -0.54351458
vn -0.14489242 0.66212660 0.73525135
vn 0.31460001 0.36552643 -0.87602355
vn -0.66011127 -0.31239784 -0.68312568
vn -0.23144477 -0.12591572 -0.96466499
vn -0.15639915 0.17762700 0.97159043
vn -0.08833403 0.13316487 0.98714954
vn -0.68794775 0.01587702 -0.72558653
vn -0.79000510 -0.14591312 0.59548409
vn 0.93972596 -0.20765558 -0.27165102
vn 0.44703899 0.65363705 0.61066747
vn -0.54181030 0.16301144 -0.82454161
vn 0.50327756 0.10978945 -0.85712191
vn 0.89871301 -0.03976651 0.43673052
vn -0.76051689 0.10823852 -0.64023315
vn -0.71389036 -0.11540670 0.69068216
vn 0.58024341 0.18833448 0.79236842
vn 0.04327628 -0.98784794 -0.14927697
vn -0.11523420 0.32449845 -0.93884069
vn -0.82945696 0.43603109 0.34911037
vn -0.34726555 -0.56426062 0.74901041
vn 0.83700225 -0.38977495 0.38406083
vn -0.85625618 -0.44517360 0.26200347
vn -0.19802871 -0.73592601 -0.64745466
vn -0.99788276 -0.03392510 0.05548954
vn 0.96589239 -0.16161211 0.20232007
vn -0.04493681 -0.82504947 -0.56327086
vn 0.01840731 0.81196094 0.58342146
vn 0.13328405 0.82286184 0.55238914
vn -0.16280368 -0.79107732 -0.58965383
vn 0.12148148 0.75954726 0.63900721
vn -0.74649350 -0.31344680 0.58694000
vn -0.08873527 -0.85618250 -0.50899664
vn -0.65041848 -0.58297904 -0.48692016
vn -0.10357507 0.76754709 0.63256910
vn -0.00045154 0.80300412 0.59597330
vn -0.97444659 0.19826748 0.10556442
vn -0.87543687 -0.33034455 0.35282114
vn -0.84418618 -0.35839086 0.39862976
vn 0.41655820 0.85380479 -0.31224453
vn -0.28832327 -0.62007511 -0.72964138
vn 0.51368877 0.84921378 0.12231028
vn 0.42718368 -0.79690799 -0.42714372
vn 0.77190201 0.50335860 -0.38832642
vn 0.22292240 -0.79454002 -0.56481126
vn -0.67788603 -0.66482997 -0.31380190
vn -0.86272860 0.12299799 -0.49048023
vn 0.72200833 0.67655065 -0.14485578
vn -0.30177438 0.33290751 -0.89336712
vn 0.54412436 0.71694545 -0.43579571
vn 0.96369534 -0.16759362 0.20785494
vn -0.80150235 0.28300605 -0.52678416
vn 0.63598221 -0.01744684 0.77150647
vn -0.64755125 -0.17651174 0.74129682
vn -0.58879835 0.29047314 -0.75428235
vn 0.72770594 -0.01485972 -0.68572826
vn 0.50535783 0.45414959 -0.73373129
vn -0.54654192 0.31516426 -0.77586301
vn -0.66166372 -0.69449132 0.28263568
vn 0.62511138 -0.37428724 0.68494148
vn 0.84223796 0.40491536 -0.35591961
vn 0.11871180 -0.79413641 -0.59603261
vn 0.87920256 -0.35365526 -0.31926605
vn -0.08190035 -0.59126549 0.80230758
vn -0.84353399 -0.49195506 0.21547766
vn -0.56621728 0.16367397 -0.80784208
vn -0.90028026 -0.23655284 0.36542880
vn 0.58433928 -0.31783291 0.74667921
vn -0.58058981 0.40324604 -0.70732461
vn 0.96549167 0.23663249 0.10876990
vn -0.39383721 0.91121597 0.12073814
vn 0.10939368 0.40183937 0.90915243
vn 0.30490435 0.80828507 -0.50369494
vn 0.00504701 -0.20606186 0.97852595
vn -0.93725330 0.33758728 -0.08712677
vn -0.51760168 0.73182446 -0.44330741
vn 0.39971634 -0.62656919 -0.66905747
vn 0.36293503 0.49215611 0.79123987
vn -0.34498051 -0.67789048 -0.64919408
vn -0.89493666 0.21667936 0.39004927
vn -0.31189217 0.22850244 -0.92223094
vn 0.85333808 -0.03619248 0.52010021
vn 0.85553232 -0.41159061 -0.31409811
vn 0.96718952 -0.13610459 -0.21452268
vn -0.97715128 -0.14284823 0.15738412
vn 0.99669747 -0.05702688 -0.05781079
vn -0.80393066 -0.23594788 0.54591582
vn 0.03486084 -0.85694356 -0.51422996
vn -0.31395888 -0.12449039 0.94123959
vn -0.74462386 -0.23961694 0.62299200
vn -0.94149073 0.09741749 0.32265313
vn -0.46098829 0.02690291 0.88699832
vn -0.66063121 -0.31277815 0.68244871
vn -0.46969023 -0.31131856 0.82611854
vn -0.97194181 -0.06672393 0.22555937
vn 0.53846967 -0.82729411 0.16010895
vn -0.94739601 -0.06652183 0.31307450
vn 0.76766792 -0.57847617 0.27577398
vn -0.67642983 -0.34124103 0.65268464
vn 0.22448502 0.18703215 0.95636052
vn -0.52384186 0.27994362 0.80450064
vn 0.77408518 -0.03508572 -0.63210848
vn -0.85133451 -0.08492875 0.51770326
vn 0.36395166 -0.87530726 0.31839661
vn 0.62724591 -0.71982450 -0.29734703
vn 0.84408669 -0.52829415 0.09177667
vn 0.11851456 0.59294774 0.79647176
vn -0.92491982 -0.36388281 0.11005741
vn 0.81009642 -0.33323815 -0.48238587
vn -0.94654446 -0.13968658 -0.29075975
vn -0.85322095 -0.35698545 -0.38023071
vn 0.97800824 -0.14551595 0.14941552
vn -0.91963339 -0.35302407 -0.17218723
vn -0.17348793 -0.64604081 0.74332577
vn 0.12588893 -0.39432400 0.91030795
vn 0.80019789 -0.23088443 -0.55351216
vn -0.95658058 -0.29146638 -0.00097320
vn 0.84772533 -0.17152070 -0.50193865
vn 0.90591765 -0.09489704 -0.41268361
vn -0.97759981 0.03398532 -0.20771040
vn -0.96737264 -0.11365871 -0.22643293
vn -0.99709659 0.02822168 0.07072436
vn -0.76751249 -0.55362129 -0.32315329
vn -0.98369423 0.02469441 0.17814560
vn 0.03231675 -0.91664271 -0.39839901
vn 0.62461804 0.12442410 0.77095457
vn 0.72542646 -0.61335462 -0.31233406
vn 0.74306502 -0.45229410 0.49323870
vn 0.89631950 -0.31973298 0.30721683
vn -0.38334440 0.71638895 0.58295278
vn -0.78891200 -0.07015468 -0.61048848
vn -0.07270996 0.43930495 0.89539065
vn -0.86034505 -0.12563877 0.49398512
vn 0.62541912 0.28776815 0.72528643
vn 0.97286212 -0.04881317 0.22617820
vn 0.28543754 -0.83337437 -0.47329967
vn 0.91989193 0.07072785 0.38574137
vn 0.41572688 -0.67949713 0.60452859
vn -0.65549617 0.13946746 -0.74220860
vn -0.85872367 -0.27685327 0.43121447
vn 0.93188306 0.07325031 0.35528631
vn -0.94037107 -0.33013501 0.08193369
vn -0.81118158 -0.56112347 0.16469637
vn -0.72560924 -0.68120755 0.09719830
vn 0.98145852 -0.08353875 0.17251217
vn -0.99350381 0.06752368 0.09160094
vn -0.94573779 -0.06323111 -0.31871910
vn -0.89643254 -0.27098395 -0.35067990
vn -0.99676386 -0.02647816 0.07589934
vn -0.86326711 -0.13548432 -0.48622412
vn 0.97207973 -0.19278197 0.13377637
vn -0.94877614 -0.03117494 0.31440730
vn -0.95343037 -0.01321419 0.30132362
vn -0.63004623 -0.07405119 -0.77301886
vn -0.75173085 -0.02300272 -0.65906874
vn -0.53376147 -0.84115507 0.08693003
vn 0.69406696 -0.71268291 0.10175522
vn -0.92878302 0.23806138 -0.28405789
vn 0.97524549 -0.08374026 -0.20465535
vn -0.25172334 0.96776739 -0.00785069
vn 0.99047050 0.10942512 -0.08363215
vn -0.97876265 -0.06604482 -0.19406637
vn -0.43242655 0.88604387 -0.16713330
vn -0.80193453 -0.37474738 -0.46525844
vn -0.68999893 0.39549227 0.60620734
vn 0.98220382 -0.00659377 -0.18770234
vn 0.01372701 0.50230506 0.86458151
vn -0.04162832 0.57373049 0.81798558
vn -0.94826804 -0.17488544 0.26495814
vn -0.99688541 -0.05162501 0.05961831
vn 0.31448257 -0.26409356 0.91178688
vn 0.45987798 0.05698993 0.88615145
vn -0.97735437 0.05778807 0.20356565
vn -0.90630540 -0.35119675 0.23509863
vn 0.60846413 -0.30148485 -0.73408330
vn 0.12873857 -0.62531949 0.76967650
vn 0.26602195 -0.93258471 -0.24396329
vn -0.28711030 0.46938093 -0.83501450
vn 0.34761131 0.25410649 0.90254987
vn -0.15369272 0.84605400 -0.51046173
vn 0.69316229 -0.64694082 -0.31779494
vn 0.63863560 -0.22289257 0.73652120
vn -0.40236331 0.79712721 -0.45021325
vn -0.83836202 -0.51857008 0.16803031
vn -0.13915660 0.95731480 0.25334524
vn -0.99827278 0.04211144 0.04096443
vn -0.17277953 0.96182405 -0.21223036
vn -0.97078219 -0.19627933 -0.13804477
vn -0.18669300 -0.85065987 0.49145042
vn -0.40147183 0.55668867 0.72726755
vn -0.81044790 -0.49774134 0.30891384
vn -0.10084881 -0.61213524 -0.78429584
vn 0.96094033 0.01347794 0.27642725
vn -0.05873612 0.58360693 0.80990926
vn 0.16962491 -0.81283593 0.55724782
vn 0.87674943 -0.36213886 0.31648994
vn 0.84535620 0.19635123 0.49680892
vn -0.03791992 0.61655176 0.78640067
vn 0.97594600 0.16753968 0.13949863
vn 0.86158828 0.04862497 -0.50527343
vn -0.95818952 -0.25347926 0.13274449
vn 0.54463054 -0.73902327 0.39651253
vn -0.92524549 -0.23300444 0.29938224
vn 0.84408710 0.02562234 0.53559356
vn 0.99399216 -0.10012605 0.04420825
vn 0.07141592 -0.99458809 0.07546058
vn 0.57984219 -0.80573276 0.12073837
vn 0.05434173 -0.84350420 -0.53436658
vn 0.93855394 0.12098908 0.32323079
vn 0.53964582 0.03733174 0.84106405
vn -0.99526583 -0.04118132 -0.08803426
vn 0.87367958 -0.23177617 -0.42774269
vn 0.49357240 0.36852617 0.78776567
vn 0.09769646 -0.02389253 0.99492942
vn 0.19753138 0.04934055 0.97905407
vn -0.22647026 0.60881561 0.76029913
vn 0.12706294 -0.53173059 -0.83732765
vn -0.13089992 -0.24095358 0.96166865
vn 0.24707922 0.62402672 0.74131134
vn 0.76873882 -0.61837692 0.16325016
vn 0.85916125 -0.45113273 0.24149786
vn 0.84547149 0.15073837 0.51230449
vn -0.10878951 -0.35699201 0.92775080
vn -0.99705798 -0.06804557 0.03528711
vn -0.15627082 0.97004574 0.18598572
vn 0.07480934 0.54599768 0.83443999
vn -0.86885603 -0.15972070 -0.46859203
vn 0.98702678 -0.03213958 0.15730603
vn 0.97435383 -0.19397953 0.11404633
vn 0.98801764 -0.08085300 -0.13146836
vn -0.87771604 -0.10499780 -0.46753611
vn 0.94988870 0.13576991 0.28156349
vn -0.92632051 -0.28263239 -0.24909688
vn 0.95225969 -0.26817811 -0.14588347
vn -0.16447634 0.96739912 0.19257850
vn -0.02965175 0.99637447 0.07974144
vn 0.92046698 0.13247102 0.36768460
vn 0.94746257 0.11516232 0.29841634
vn 0.42021628 0.89301036 0.16109244
vn -0.21599309 0.96811638 -0.12687658
vn -0.95025725 -0.11269618 0.29036310
vn 0.84121187 0.02639497 -0.54006102
vn -0.16137475 -0.36282140 0.91777929
vn -0.78495274 -0.18005664 -0.59281431
vn 0.15853234 -0.52917237 0.83357310
vn -0.37324749 -0.85685520 -0.35564797
vn 0.52194966 -0.32667663 0.78794094
vn 0.96531412 -0.02573140 0.25982020
vn 0.83162192 -0.52711352 -0.17480368
vn -0.90430160 -0.21580074 -0.36833226
vn -0.06174415 -0.41363008 -0.90834895
vn -0.48399785 -0.82868283 -0.28112426
vn 0.63223506 -0.01541526 0.77462326
vn -0.81029755 -0.17879825 -0.55807622
vn 0.25195689 0.64846651 0.71833760
vn 0.52954244 -0.41517032 0.73974212
vn -0.20657407 0.47792928 0.85376270
vn 0.46263852 0.81399457 -0.35125268
vn 0.14774434 0.89624242 -0.41823574
vn 0.84734171 0.23206515 -0.47765866
vn 0.41262099 0.44122939 0.79690686
vn 0.92019403 0.33348655 0.20501138
vn 0.23084774 0.97179955 0.04811403
vn 0.90594552 -0.03819694 -0.42166777
vn 0.49880348 0.27065090 -0.82337305
vn 0.83114777 0.54217746 0.12343817
vn -0.36871663 -0.80317110 -0.46793615
vn -0.71255329 -0.29211199 0.63791723
vn 0.86040812 0.02813987 0.50882808
vn 0.37215624 0.72690804 -0.57715200
vn 0.91273173 0.00097544 0.40855824
vn 0.91077827 0.12566813 0.39330708
vn -0.79377982 -0.37742432 -0.47693237
vn 0.86109853 -0.17977613 -0.47559422
vn 0.39593278 0.47762215 0.78429224
vn 0.27199864 -0.69014030 -0.67061398
vn -0.31190750 0.54087330 0.78113365
vn 0.33419622 -0.12306126 0.93443502
vn 0.95646996 -0.15889674 0.24477958
vn -0.11198932 -0.49229777 0.86319250
vn 0.75235545 -0.06044853 -0.65597809
vn 0.99413386 0.06428024 0.08698229
vn 0.91516262 -0.04966917 0.40001294
vn 0.87405351 -0.18234940 0.45031006
vn -0.63543544 -0.75273571 -0.17207777
vn 0.96069316 -0.09902177 0.25935179
vn 0.18450460 0.83008341 0.52623150
vn -0.51602912 -0.53128127 0.67190338
vn 0.31434049 0.75943219 -0.56960759
vn -0.34216910 -0.31538998 -0.88512681
vn 0.69376939 0.28241509 0.66251472
vn 0.64324678 -0.56855405 0.51281564
vn 0.93409837 -0.19354320 0.30000211
vn 0.96158672 -0.03213724 0.27261361
vn -0.88428072 0.39771142 0.24469008
vn -0.87046959 -0.43462822 0.23104330
vn 0.69569882 0.52818863 0.48684692
vn 0.96182724 -0.07645074 0.26276158
vn 0.43167184 0.64950409 0.62594237
vn 0.97582072 0.04102258 0.21468829
vn 0.46108063 -0.34177754 0.81889729
vn 0.35585182 -0.22991309 0.90581977
vn 0.87734479 0.05291836 -0.47693372
vn 0.81154898 -0.19512365 0.55074042
vn 0.94444514 -0.06096961 0.32296454
vn -0.55129767 0.31419683 -0.77288500
vn -0.01666820 -0.99985359 0.00386857
vn -0.87880938 0.33753973 -0.33728475
vn 0.17662989 -0.36159535 0.91545108
vn 0.97466377 -0.14697654 0.16860733
vn -0.10653254 -0.98252474 -0.15263010
vn -0.92223667 -0.05019311 0.38335385
vn 0.96894038 -0.00228359 0.24728391
vn -0.99985497 -0.01689266 -0.00216106
vn 0.85109552 0.34630159 0.39460311
vn 0.30615260 0.75589073 0.57870527
vn 0.17725111 -0.95500780 0.23778591
vn 0.43840269 -0.88162374 -0.17476461
vn -0.88188500 0.37221003 0.28937611
vn 0.97541754 0.02281457 0.21918055
vn 0.48657029 0.84699021 0.21414231
vn -0.75578788 -0.30694684 0.57841881
vn 0.56582527 0.71319162 0.41376259
vn 0.95648750 0.23218518 0.17669664
vn 0.96040029 0.05150317 0.27382241
vn 0.86324441 -0.00949419 -0.50469690
vn 0.89241328 0.03151370 -0.45011712
vn 0.72045484 0.01808832 -0.69326592
vn -0.06454523 -0.86069884 0.50500635
vn 0.81564904 0.17634812 0.55101542
vn 0.65498002 0.74782247 0.10845613
vn 0.97002228 0.09897706 0.22194664
vn 0.10790319 0.32360464 0.94001965
vn -0.59738639 -0.79999914 -0.05595428
vn -0.68476791 0.04613875 0.72729920
vn 0.97463924 0.09978433 0.20030336
vn 0.72708464 0.35904191 -0.58518103
vn -0.73810866 0.63043150 -0.24031589
vn 0.61324489 0.67704223 -0.40687163
vn -0.58912790 0.76294429 -0.26616598
vn 0.33756002 0.86555022 -0.36996763
vn -0.76182335 0.64492101 -0.06084460
vn 0.97822960 0.09285949 0.18559083
vn 0.95997733 -0.05772376 0.27406476
vn 0.93223590 0.03907401 0.35973526
vn 0.82621475 0.29000427 -0.48297693
vn -0.98035369 -0.06801916 -0.18514868
vn 0.73692204 0.59762381 -0.31589823
vn 0.83047805 0.00008753 -0.55705134
vn 0.44363570 -0.86042678 0.25070524
vn 0.99324205 0.11604713 0.00181719
vn 0.95070774 0.04142907 -0.30730835
vn 0.98327361 0.09963070 -0.15246878
vn 0.27319033 0.10101075 0.95664198
vn 0.83245309 -0.04529777 -0.55224086
vn -0.34377574 0.88367370 -0.31770902
vn -0.56139487 0.46862014 -0.68207841
vn -0.98478314 -0.06213851 -0.16229903
vn -0.48082255 0.84600066 -0.23041820
vn 0.64843400 -0.01753723 0.76106885
vn 0.65468577 -0.07567994 0.75210311
vn 0.27716949 -0.76027246 -0.58750563
vn 0.43421740 -0.90017197 0.03384790
vn -0.77249468 -0.06478450 -0.63170796
vn -0.90290036 -0.02355210 0.42920419
vn -0.89163202 -0.09502817 -0.44267593
vn -0.65350136 0.32526824 0.68347387
vn -0.86682129 -0.01409936 -0.49841956
vn 0.08045108 0.99610489 -0.03609267
vn 0.76062230 -0.02164198 0.64883383
vn 0.98804338 0.06815213 0.13829518
vn 0.96094892 0.24291313 0.13255334
vn 0.97119052 0.03298243 0.23601087
vn 0.99070196 -0.06793895 -0.11787251
vn -0.84203396 -0.47421017 0.25710607
vn 0.51419943 0.32018069 0.79566530
vn 0.98679726 0.10289555 0.12507464
vn 0.79326664 -0.38192397 -0.47419629
vn 0.80367329 0.08744220 -0.58861117
vn -0.95316677 -0.07727910 -0.29240563
vn 0.86187320 0.10914994 -0.49523820
vn 0.78614022 0.35749466 -0.50416378
vn 0.80002172 -0.29830935 -0.52055430
vn 0.99821339 -0.03679966 -0.04707252
vn 0.16972654 -0.66784736 0.72468808
vn 0.91019679 -0.00320022 -0.41416369
vn -0.94232403 0.05010026 0.33093110
vn 0.84890784 0.05314514 0.52586222
vn -0.93391184 -0.00703223 0.35743422
vn -0.71311047 0.16606576 0.68109884
vn -0.65974831 -0.07563556 0.74767067
vn -0.51696621 0.37517378 0.76940924
vn 0.94092652 -0.08410471 0.32799951
vn 0.00520419 0.98697364 0.16079784
vn 0.48362828 0.80890552 0.33432850
vn -0.98717082 0.05653276 0.14932454
vn -0.89787970 0.00068742 -0.44024035
vn -0.90163946 -0.01245519 -0.43230910
vn -0.91951185 0.06609882 -0.38746470
vn -0.33335138 0.14159348 0.93210951
vn -0.83944785 -0.14175571 -0.52462618
vn -0.40352596 -0.09046007 0.91048546
vn 0.58207641 -0.44612902 0.67982053
vn -0.15154744 -0.96092275 0.23164812
vn 0.94047767 0.06377355 -0.33381836
vn 0.88383646 0.07844303 -0.46117220
vn 0.30455665 0.04803918 0.95128202
vn 0.88375868 -0.03408461 -0.46669995
vn -0.94944118 -0.14324653 -0.27935978
vn -0.97468837 -0.07372340 0.21106264
vn -0.11779902 0.80095653 -0.58701962
vn 0.99100364 -0.03843477 0.12819730
vn 0.97564001 0.06671952 0.20898583
vn -0.29776037 0.73671099 0.60712081
vn -0.80995828 -0.08405850 -0.58043238
vn -0.84616029 -0.05896883 -0.52965597
vn 0.02007333 -0.07126068 0.99725572
vn 0.10254347 0.10886909 0.98875293
vn 0.65945470 0.52592418 -0.53714361
vn 0.96174769 0.14744266 -0.23087236
vn 0.62611227 0.72234960 0.29358897
vn -0.99665487 -0.05323878 0.06200563
vn 0.57478647 0.81627710 0.05755172
vn -0.40343147 0.18749388 0.89559427
vn -0.86179858 -0.03488195 -0.50604986
vn -0.00008021 -0.95001277 -0.31221104
vn 0.72030012 0.54302610 0.43161372
vn -0.30857204 0.72312528 0.61795884
vn 0.73614933 0.41257312 0.53653293
vn 0.82760202 0.12172435 -0.54795810
vn -0.93078682 0.23802906 0.27744921
vn 0.55744416 -0.13677202 0.81887082
vn -0.80605511 0.01187954 -0.59172125
vn -0.55698255 -0.55306168 0.61959116
vn -0.97878141 0.18906940 -0.07899179
vn 0.43037834 -0.68856911 -0.58364978
vn -0.16403306 -0.41514018 0.89484736
vn -0.36285186 0.60621886 0.70769854
vn 0.45023414 0.89069776 0.06282288
vn 0.43393128 0.87384008 -0.21933346
vn 0.97453592 0.04484387 0.21970156
vn -0.98478075 -0.11330141 -0.13179404
vn 0.97641284 -0.06521439 0.20582771
vn -0.99283491 -0.11455445 -0.03400181
vn -0.96290655 -0.07347202 0.25963983
vn 0.99613914 0.07973429 -0.03673224
vn -0.96596187 0.11479179 -0.23181999
vn 0.87883019 0.35061488 0.32361506
vn -0.41972454 -0.80193042 -0.42513400
vn -0.95582291 0.03694996 0.29161150
vn 0.84128896 0.01376857 -0.54041031
vn -0.87502078 -0.04047538 -0.48239028
vn -0.97140566 -0.10623042 -0.21233496
vn -0.97242968 0.21689732 -0.08565089
vn 0.44902629 -0.89350941 -0.00404025
vn 0.71107954 0.42692777 0.55865783
vn -0.46877902 -0.86378770 0.18470798
vn -0.34679865 -0.36156487 0.86544875
vn 0.55370181 0.79879402 0.23524969
vn 0.68216671 -0.68075587 0.26687079
vn 0.71138491 -0.35338340 0.60749623
vn -0.99698556 0.07715866 0.00814506
vn -0.96012603 -0.21557581 -0.17800303
vn -0.78028660 -0.54085306 -0.31405539
vn -0.62553230 -0.18613129 -0.75767043
vn 0.95876275 0.23388424 0.16146875
vn -0.57680484 -0.69153712 0.43482478
vn 0.96481571 0.09646250 0.24459280
vn 0.97964161 -0.07312889 -0.18696118
vn -0.83916195 -0.34519138 -0.42029766
vn 0.95120333 0.17996644 -0.25064778
vn 0.90510612 0.14574480 0.39942630
vn -0.77698106 -0.37985499 -0.50200660
vn -0.59179035 -0.30105720 -0.74776250
vn -0.51660019 -0.70885662 -0.48025675
vn -0.99272292 0.05026652 -0.10942794
vn 0.52332595 0.85110903 -0.04175378
vn -0.87680804 -0.47356863 -0.08330916
vn 0.98679151 -0.12922332 -0.09769258
vn -0.69202480 -0.57113028 -0.44148826
vn 0.97741851 0.04580520 0.20628850
vn -0.81536653 0.04283476 -0.57735830
vn -0.99620990 0.07911789 -0.03614124
vn -0.77568484 -0.60430506 -0.18201216
vn 0.90599966 0.24266532 0.34681143
vn -0.26244721 -0.83534488 -0.48303249
vn 0.82603287 -0.55639799 -0.08994989
vn -0.98540747 0.05537579 0.16095226
vn -0.98944427 -0.00277696 0.14488727
vn 0.56691579 0.80344771 -0.18187433
vn 0.71567106 -0.06455595 0.69544767
vn 0.73594242 -0.00740419 0.67700364
vn 0.80875039 -0.14227048 0.57068548
vn 0.78573914 -0.00805722 0.61850552
vn -0.26868810 0.18718654 -0.94486396
vn -0.21349984 0.20654602 -0.95485944
vn 0.61840141 0.71888426 0.31746673
vn -0.81612542 -0.01748338 -0.57761028
vn 0.80818295 -0.19015057 0.55738952
vn -0.04879548 -0.99619047 0.07227414
vn -0.43227549 0.47118284 0.76884630
vn 0.97662274 -0.06681311 0.20431354
vn -0.31398406 0.74229559 0.59195546
vn 0.92864573 0.15655714 0.33631379
vn 0.14660045 -0.92786272 0.34289806
vn 0.42762819 -0.43972206 -0.78979658
vn -0.94678607 -0.02750478 0.32068619
vn 0.92720929 0.19159821 0.32182770
vn 0.88383797 -0.09329919 0.45839470
vn -0.35646626 0.63570015 0.68470221
vn -0.78204485 0.33022341 0.52854360
vn -0.97249732 0.18478956 0.14178073
vn 0.95274153 0.10629443 0.28457874
vn -0.09976547 0.93591845 0.33779211
vn -0.98080623 0.16089696 -0.11014223
vn -0.87531183 0.02553375 -0.48288429
vn -0.90904551 -0.04564540 -0.41418928
vn -0.06957621 0.99324533 0.09285937
vn -0.96269575 -0.19524835 -0.18733653
vn 0.99154786 0.12698678 -0.02659321
vn 0.95852067 0.14313235 0.24647768
vn 0.02158254 -0.98840120 0.15032387
vn -0.18839359 0.86994541 0.45574426
vn -0.36918731 0.30034622 0.87948444
vn 0.95730328 0.09187691 0.27409681
vn -0.34694571 0.63814951 0.68730915
vn -0.04596776 0.79332896 0.60705529
vn 0.95083880 -0.06145939 0.30352648
vn -0.97279588 -0.03178288 -0.22947335
vn -0.87808258 0.19026949 -0.43905410
vn -0.96412413 0.01827588 0.26482192
vn 0.38094345 0.17243251 0.90837719
vn -0.87492784 0.47357818 -0.10111869
vn -0.84911975 0.11104848 0.51639509
vn 0.94668479 0.08650644 0.31032972
vn 0.03131949 -0.47591650 0.87893263
vn 0.02506480 -0.06229299 0.99774312
vn 0.54067339 0.83229899 -0.12227294
vn 0.83557987 -0.09432932 -0.54121000
vn 0.82841353 0.05611701 0.55729876
vn -0.66736784 0.46586949 0.58102132
vn 0.79786564 -0.11779152 -0.59121534
vn -0.46873045 -0.80534924 -0.36291097
vn 0.10362511 0.89722319 0.42924631
vn 0.90880889 0.41720916 0.00170868
vn -0.95150674 0.23010831 -0.20416928
vn 0.88865070 0.05885309 -0.45479254
vn 0.87884849 0.06048739 -0.47325110
vn 0.87459704 0.16380889 -0.45634052
vn 0.03586168 0.93011630 0.36551006
vn 0.23061680 -0.94179130 0.24463244
vn 0.93421902 0.28550267 -0.21382947
vn 0.92043199 0.25332133 0.29771337
vn -0.31228087 -0.06496906 -0.94776562
vn -0.82915014 0.54705611 0.11506372
vn -0.88330195 -0.05290579 -0.46580966
vn 0.94731297 0.07248122 -0.31200097
vn -0.91856773 0.10518000 -0.38101246
vn -0.85094502 -0.20276806 0.48453863
vn -0.53425942 0.77283432 0.34248211
vn -0.40949426 0.67299734 -0.61594564
vn 0.90167215 0.35346959 0.24909153
vn 0.98441839 0.10835720 -0.13848882
vn 0.28061308 -0.79540927 -0.53719679
vn 0.53830637 -0.69352730 -0.47879655
vn -0.71887016 0.66863137 0.19015201
vn -0.82641394 -0.39951693 -0.39676972
vn -0.92239337 0.04296807 -0.38385441
vn -0.20727684 0.43173945 -0.87785953
vn -0.65055012 0.06493179 -0.75668250
vn -0.72407989 0.25930137 -0.63911745
vn -0.87283711 0.38882057 -0.29491346
vn -0.74623125 0.06348622 -0.66265257
vn -0.95448605 -0.05116034 -0.29383500
vn -0.49227820 0.77198989 0.40211165
vn -0.34847555 0.89184993 0.28838947
vn -0.99499305 -0.09433711 0.03300510
f 77//77 62//62 111//111
f 66//66 70//70 71//71
f 70//70 85//85 71//71
f 85//85 109//109 71//71
f 109//109 64//64 71//71
f 64//64 79//79 71//71
f 79//79 103//103 71//71
f 103//103 61//61 71//71
f 61//61 81//81 71//71
f 81//81 78//78 71//71
f 78//78 80//80 71//71
f 80//80 86//86 71//71
f 86//86 68//68 71//71
f 71//71 68//68 60//60
f 71//71 60//60 75//75
f 71//71 75//75 67//67
f 71//71 67//67 76//76
f 71//71 76//76 63//63
f 71//71 63//63 73//73
f 73//73 111//111 71//71
f 71//71 111//111 83//83
f 62//62 74//74 83//83
f 69//69 79//79 64//64
f 68//68 101//101 82//82
f 83//83 74//74 84//84
f 84//84 74//74 65//65
f 69//69 91//91 79//79
f 74//74 72//72 65//65
f 86//86 101//101 68//68
f 83//83 111//111 62//62
f 59//59 55//55 96//96
f 48//48 54//54 11//11
f 96//96 55//55 87//87
f 88//88 41//41 17//17
f 42//42 29//29 24//24
f 24//24 95//95 42//42
f 42//42 95//95 58//58
f 24//24 36//36 44//44
f 24//24 44//44 95//95
f 57//57 49//49 94//94
f 57//57 94//94 56//56
f 57//57 56//56 40//40
f 57//57 40//40 108//108
f 57//57 108//108 33//33
f 57//57 33//33 32//32
f 57//57 32//32 93//93
f 57//57 93//93 35//35
f 57//57 35//35 37//37
f 53//53 57//57 37//37
f 52//52 51//51 53//53
f 39//39 51//51 52//52
f 44//44 47//47 45//45
f 41//41 90//90 5//5
f 90//90 50//50 5//5
f 90//90 41//41 88//88
f 98//98 34//34 17//17
f 17//17 41//41 98//98
f 45//45 47//47 46//46
f 35//35 38//38 37//37
f 43//43 95//95 44//44
f 36//36 47//47 44//44
f 95//95 49//49 57//57
f 58//58 95//95 57//57
f 55//55 18//18 87//87
f 54//54 55//55 11//11
f 11//11 55//55 59//59
f 22//22 31//31 21//21
f 31//31 22//22 28//28
f 28//28 27//27 30//30
f 27//27 29//29 30//30
f 29//29 23//23 30//30
f 27//27 25//25 29//29
f 25//25 26//26 29//29
f 26//26 24//24 29//29
f 113//113 112//112 56//56
f 40//40 56//56 112//112
f 104//104 22//22 21//21
f 31//31 28//28 30//30
f 87//87 18//18 20//20
f 102//102 87//87 20//20
f 102//102 20//20 19//19
f 102//102 19//19 21//21
f 21//21 19//19 104//104
f 9//9 17//17 105//105
f 105//105 106//106 12//12
f 106//106 92//92 12//12
f 92//92 14//14 12//12
f 12//12 14//14 13//13
f 12//12 13//13 107//107
f 12//12 107//107 100//100
f 100//100 15//15 12//12
f 15//15 100//100 16//16
f 105//105 17//17 34//34
f 100//100 48//48 16//16
f 16//16 48//48 11//11
f 9//9 105//105 12//12
f 114//114 15//15 10//10
f 15//15 114//114 12//12
f 99//99 7//7 4//4
f 7//7 6//6 4//4
f 6//6 97//97 4//4
f 8//8 97//97 1//1
f 8//8 1//1 5//5
f 5//5 110//110 8//8
f 3//3 2//2 8//8
f 2//2 89//89 8//8
f 89//89 4//4 8//8
f 4//4 97//97 8//8
f 110//110 5//5 50//50
f 115//115 117//117 118//118
f 115//115 118//118 116//116
f 117//117 115//115 116//116
f 118//118 117//117 116//116
f 122//122 120//120 121//121
f 120//120 119//119 121//121
f 119//119 120//120 122//122
f 119//119 122//122 121//121
f 125//125 124//124 126//126
f 124//124 125//125 123//123
f 126//126 123//123 125//125
f 126//126 124//124 123//123
f 127//127 128//128 154//154
f 127//127 154//154 146//146
f 127//127 146//146 143//143
f 143//143 141//141 127//127
f 135//135 127//127 141//141
f 141//141 142//142 135//135
f 142//142 140//140 135//135
f 137//137 135//135 140//140
f 142//142 137//137 140//140
f 142//142 133//133 137//137
f 133//133 135//135 137//137
f 135//135 133//133 134//134
f 131//131 127//127 134//134
f 139//139 127//127 131//131
f 127//127 139//139 129//129
f 149//149 146//146 147//147
f 147//147 150//150 149//149
f 152//152 150//150 147//147
f 153//153 152//152 147//147
f 143//143 153//153 147//147
f 152//152 153//153 143//143
f 150//150 152//152 143//143
f 143//143 151//151 150//150
f 150//150 145//145 144//144
f 153//153 150//150 144//144
f 151//151 153//153 144//144
f 149//149 151//151 144//144
f 143//143 149//149 144//144
f 143//143 144//144 145//145
f 151//151 143//143 145//145
f 150//150 151//151 155//155
f 156//156 150//150 155//155
f 155//155 158//158 156//156
f 150//150 156//156 158//158
f 145//145 150//150 158//158
f 155//155 145//145 158//158
f 155//155 157//157 145//145
f 157//157 156//156 145//145
f 145//145 156//156 151//151
f 156//156 157//157 151//151
f 157//157 155//155 151//151
f 149//149 148//148 153//153
f 148//148 150//150 153//153
f 146//146 150//150 148//148
f 146//146 148//148 143//143
f 149//149 153//153 151//151
f 148//148 149//149 143//143
f 150//150 146//146 149//149
f 128//128 147//147 146//146
f 128//128 146//146 154//154
f 147//147 142//142 138//138
f 147//147 138//138 133//133
f 131//131 147//147 133//133
f 133//133 139//139 131//131
f 133//133 136//136 139//139
f 136//136 137//137 139//139
f 137//137 138//138 139//139
f 138//138 142//142 139//139
f 137//137 136//136 138//138
f 143//143 147//147 131//131
f 136//136 133//133 138//138
f 142//142 147//147 139//139
f 147//147 141//141 139//139
f 141//141 140//140 139//139
f 137//137 135//135 139//139
f 135//135 134//134 139//139
f 134//134 130//130 139//139
f 132//132 139//139 130//130
f 131//131 132//132 130//130
f 131//131 130//130 129//129
f 132//132 131//131 129//129
f 130//130 134//134 129//129
f 129//129 134//134 147//147
f 128//128 129//129 147//147
f 135//135 137//137 134//134
f 137//137 139//139 134//134
f 139//139 140//140 134//134
f 134//134 140//140 141//141
f 134//134 141//141 147//147
f 139//139 132//132 129//129
f 131//131 134//134 143//143
f 134//134 133//133 143//143
f 141//141 133//133 142//142
f 134//134 127//127 135//135
f 143//143 133//133 141//141
f 127//127 129//129 128//128
f 159//159 162//162 161//161
f 159//159 161//161 160//160
f 161//161 162//162 160//160
f 159//159 160//160 162//162
f 166//166 170//170 171//171
f 172//172 165//165 171//171
f 166//166 165//165 169//169
f 166//166 169//169 167//167
f 163//163 166//166 167//167
f 163//163 176//176 166//166
f 178//178 173//173 170//170
f 167//167 164//164 163//163
f 172//172 171//171 164//164
f 179//179 175//175 177//177
f 179//179 178//178 176//176
f 176//176 163//163 179//179
f 173//173 178//178 177//177
f 178//178 179//179 177//177
f 173//173 177//177 175//175
f 174//174 176//176 178//178
f 166//166 176//176 174//174
f 163//163 164//164 175//175
f 179//179 163//163 175//175
f 173//173 175//175 171//171
f 173//173 171//171 170//170
f 164//164 171//171 175//175
f 172//172 164//164 167//167
f 169//169 165//165 168//168
f 172//172 169//169 168//168
f 168//168 165//165 172//172
f 178//178 170//170 174//174
f 166//166 174//174 170//170
f 169//169 172//172 167//167
f 165//165 166//166 171//171
f 10//10 180//180 420//420
f 418//418 420//420 180//180
f 239//239 193//193 195//195
f 418//418 239//239 198//198
f 418//418 493//493 420//420
f 114//114 420//420 493//493
f 114//114 10//10 420//420
f 418//418 10//10 191//191
f 418//418 191//191 239//239
f 198//198 239//239 195//195
f 207//207 197//197 506//506
f 197//197 496//496 506//506
f 496//496 197//197 493//493
f 493//493 506//506 496//496
f 195//195 193//193 200//200
f 96//96 374//374 246//246
f 87//87 471//471 96//96
f 386//386 374//374 199//199
f 246//246 564//564 200//200
f 329//329 324//324 200//200
f 506//506 198//198 321//321
f 321//321 206//206 506//506
f 206//206 439//439 506//506
f 207//207 506//506 439//439
f 198//198 506//506 493//493
f 198//198 493//493 418//418
f 197//197 12//12 493//493
f 200//200 193//193 246//246
f 16//16 213//213 191//191
f 309//309 191//191 213//213
f 183//183 48//48 100//100
f 11//11 213//213 16//16
f 54//54 390//390 410//410
f 54//54 410//410 55//55
f 471//471 374//374 96//96
f 199//199 471//471 102//102
f 102//102 209//209 199//199
f 386//386 564//564 374//374
f 564//564 386//386 221//221
f 407//407 221//221 353//353
f 329//329 564//564 407//407
f 329//329 407//407 415//415
f 359//359 232//232 321//321
f 320//320 359//359 321//321
f 384//384 198//198 195//195
f 498//498 495//495 230//230
f 207//207 498//498 230//230
f 17//17 181//181 88//88
f 181//181 230//230 88//88
f 9//9 197//197 230//230
f 9//9 181//181 17//17
f 105//105 34//34 247//247
f 247//247 315//315 105//105
f 106//106 338//338 92//92
f 338//338 343//343 14//14
f 243//243 343//343 338//338
f 243//243 338//338 303//303
f 344//344 634//634 13//13
f 344//344 13//13 14//14
f 634//634 608//608 399//399
f 608//608 107//107 399//399
f 399//399 107//107 13//13
f 107//107 608//608 100//100
f 392//392 480//480 390//390
f 410//410 390//390 480//480
f 410//410 480//480 389//389
f 471//471 199//199 374//374
f 87//87 102//102 471//471
f 31//31 209//209 21//21
f 491//491 362//362 351//351
f 362//362 353//353 351//351
f 605//605 615//615 384//384
f 359//359 320//320 384//384
f 232//232 359//359 243//243
f 13//13 634//634 399//399
f 389//389 499//499 377//377
f 410//410 389//389 20//20
f 271//271 30//30 23//23
f 280//280 271//271 23//23
f 182//182 275//275 29//29
f 337//337 275//275 330//330
f 339//339 275//275 337//337
f 256//256 337//337 356//356
f 360//360 256//256 248//248
f 356//356 307//307 248//248
f 356//356 248//248 256//256
f 337//337 350//350 339//339
f 275//275 280//280 23//23
f 339//339 280//280 275//275
f 280//280 428//428 271//271
f 30//30 271//271 31//31
f 205//205 540//540 220//220
f 567//567 509//509 244//244
f 554//554 509//509 567//567
f 430//430 378//378 554//554
f 430//430 554//554 525//525
f 22//22 430//430 525//525
f 525//525 668//668 28//28
f 525//525 554//554 668//668
f 277//277 668//668 533//533
f 533//533 538//538 277//277
f 277//277 538//538 278//278
f 277//277 278//278 288//288
f 277//277 288//288 593//593
f 27//27 277//277 593//593
f 58//58 347//347 42//42
f 58//58 346//346 347//347
f 346//346 330//330 347//347
f 356//356 337//337 333//333
f 528//528 214//214 307//307
f 216//216 317//317 248//248
f 350//350 360//360 270//270
f 280//280 297//297 428//428
f 31//31 196//196 209//209
f 205//205 196//196 540//540
f 491//491 244//244 509//509
f 235//235 234//234 212//212
f 241//241 599//599 385//385
f 385//385 599//599 235//235
f 567//567 562//562 554//554
f 362//362 509//509 378//378
f 378//378 377//377 362//362
f 533//533 535//535 538//538
f 278//278 234//234 288//288
f 599//599 597//597 24//24
f 494//494 49//49 95//95
f 185//185 346//346 58//58
f 58//58 330//330 185//185
f 185//185 330//330 346//346
f 472//472 330//330 464//464
f 333//333 337//337 472//472
f 255//255 551//551 569//569
f 551//551 559//559 569//569
f 248//248 307//307 570//570
f 249//249 219//219 360//360
f 339//339 270//270 280//280
f 379//379 290//290 590//590
f 290//290 586//586 590//590
f 581//581 555//555 592//592
f 581//581 586//586 358//358
f 297//297 280//280 229//229
f 428//428 297//297 540//540
f 196//196 428//428 540//540
f 295//295 573//573 262//262
f 244//244 491//491 301//301
f 212//212 233//233 215//215
f 234//234 313//313 212//212
f 567//567 308//308 234//234
f 235//235 215//215 222//222
f 385//385 235//235 224//224
f 385//385 224//224 225//225
f 432//432 241//241 225//225
f 241//241 432//432 299//299
f 188//188 241//241 299//299
f 599//599 241//241 188//188
f 288//288 234//234 235//235
f 567//567 278//278 562//562
f 533//533 554//554 562//562
f 535//535 278//278 538//538
f 278//278 535//535 562//562
f 509//509 554//554 378//378
f 599//599 288//288 235//235
f 188//188 597//597 599//599
f 597//597 36//36 24//24
f 494//494 426//426 646//646
f 259//259 53//53 37//37
f 203//203 184//184 258//258
f 184//184 259//259 258//258
f 52//52 259//259 184//184
f 259//259 52//52 53//53
f 203//203 53//53 51//51
f 39//39 203//203 51//51
f 203//203 39//39 52//52
f 203//203 52//52 184//184
f 464//464 203//203 258//258
f 515//515 472//472 521//521
f 553//553 515//515 560//560
f 553//553 551//551 515//515
f 570//570 569//569 571//571
f 528//528 255//255 569//569
f 570//570 214//214 569//569
f 214//214 528//528 569//569
f 570//570 307//307 214//214
f 317//317 216//216 580//580
f 317//317 580//580 579//579
f 379//379 580//580 111//111
f 379//379 576//576 580//580
f 576//576 579//579 580//580
f 579//579 250//250 317//317
f 576//576 249//249 250//250
f 510//510 555//555 358//358
f 606//606 592//592 194//194
f 233//233 313//313 671//671
f 233//233 212//212 313//313
f 222//222 224//224 235//235
f 299//299 476//476 600//600
f 598//598 600//600 47//47
f 188//188 600//600 598//598
f 597//597 188//188 598//598
f 597//597 598//598 36//36
f 47//47 36//36 598//598
f 46//46 44//44 45//45
f 466//466 316//316 43//43
f 43//43 44//44 466//466
f 466//466 467//467 316//316
f 43//43 494//494 95//95
f 646//646 426//426 449//449
f 383//383 632//632 112//112
f 112//112 624//624 40//40
f 632//632 624//624 112//112
f 441//441 630//630 383//383
f 632//632 609//609 624//624
f 108//108 624//624 609//609
f 108//108 609//609 331//331
f 331//331 332//332 93//93
f 331//331 93//93 32//32
f 93//93 332//332 300//300
f 35//35 93//93 300//300
f 35//35 300//300 38//38
f 300//300 661//661 38//38
f 201//201 37//37 38//38
f 661//661 201//201 38//38
f 470//470 453//453 662//662
f 470//470 522//522 453//453
f 522//522 464//464 453//453
f 505//505 541//541 503//503
f 294//294 560//560 541//541
f 580//580 570//570 571//571
f 571//571 111//111 580//580
f 602//602 601//601 83//83
f 601//601 675//675 187//187
f 601//601 187//187 71//71
f 83//83 601//601 71//71
f 111//111 396//396 379//379
f 219//219 576//576 584//584
f 584//584 590//590 217//217
f 373//373 290//290 379//379
f 586//586 290//290 358//358
f 391//391 510//510 352//352
f 611//611 510//510 417//417
f 417//417 298//298 283//283
f 231//231 532//532 413//413
f 542//542 671//671 242//242
f 670//670 242//242 231//231
f 532//532 231//231 194//194
f 194//194 555//555 532//532
f 313//313 242//242 671//671
f 215//215 318//318 222//222
f 299//299 306//306 208//208
f 310//310 476//476 299//299
f 433//433 654//654 431//431
f 478//478 436//436 449//449
f 449//449 436//436 646//646
f 56//56 436//436 638//638
f 113//113 56//56 638//638
f 113//113 441//441 383//383
f 441//441 113//113 460//460
f 630//630 643//643 363//363
f 332//332 643//643 513//513
f 285//285 300//300 513//513
f 504//504 613//613 589//589
f 604//604 504//504 589//589
f 613//613 504//504 662//662
f 661//661 613//613 201//201
f 613//613 662//662 201//201
f 470//470 558//558 680//680
f 680//680 522//522 470//470
f 635//635 680//680 228//228
f 594//594 635//635 228//228
f 226//226 594//594 228//228
f 522//522 635//635 531//531
f 486//486 522//522 531//531
f 595//595 548//548 502//502
f 486//486 531//531 502//502
f 521//521 486//486 507//507
f 505//505 521//521 507//507
f 503//503 521//521 505//505
f 541//541 505//505 292//292
f 292//292 294//294 541//541
f 294//294 292//292 402//402
f 402//402 550//550 673//673
f 62//62 539//539 74//74
f 601//601 284//284 675//675
f 66//66 187//187 412//412
f 85//85 517//517 546//546
f 85//85 545//545 596//596
f 109//109 596//596 583//583
f 64//64 658//658 69//69
f 663//663 458//458 81//81
f 663//663 490//490 458//458
f 526//526 192//192 86//86
f 192//192 101//101 86//86
f 82//82 340//340 68//68
f 340//340 190//190 60//60
f 263//263 67//67 189//189
f 67//67 263//263 211//211
f 211//211 468//468 76//76
f 468//468 298//298 63//63
f 298//298 396//396 63//63
f 298//298 352//352 396//396
f 391//391 352//352 298//298
f 417//417 510//510 391//391
f 298//298 417//417 391//391
f 373//373 379//379 396//396
f 352//352 373//373 396//396
f 611//611 417//417 283//283
f 456//456 231//231 283//283
f 456//456 670//670 231//231
f 413//413 611//611 231//231
f 532//532 611//611 413//413
f 215//215 671//671 287//287
f 542//542 287//287 671//671
f 215//215 233//233 671//671
f 287//287 204//204 327//327
f 311//311 327//327 326//326
f 189//189 311//311 326//326
f 218//218 302//302 311//311
f 327//327 204//204 326//326
f 327//327 318//318 484//484
f 222//222 318//318 489//489
f 489//489 645//645 222//222
f 380//380 224//224 645//645
f 431//431 299//299 433//433
f 421//421 478//478 452//452
f 421//421 638//638 436//436
f 436//436 478//478 421//421
f 630//630 441//441 394//394
f 282//282 643//643 642//642
f 282//282 513//513 643//643
f 300//300 285//285 523//523
f 300//300 523//523 497//497
f 300//300 497//497 613//613
f 504//504 604//604 622//622
f 674//674 252//252 558//558
f 268//268 260//260 582//582
f 253//253 260//260 261//261
f 227//227 253//253 261//261
f 683//683 558//558 252//252
f 227//227 228//228 680//680
f 680//680 635//635 474//474
f 531//531 635//635 595//595
f 502//502 531//531 595//595
f 594//594 595//595 635//635
f 548//548 595//595 226//226
f 502//502 550//550 486//486
f 237//237 550//550 502//502
f 550//550 237//237 673//673
f 402//402 507//507 486//486
f 602//602 83//83 84//84
f 676//676 602//602 84//84
f 602//602 677//677 601//601
f 284//284 286//286 675//675
f 463//463 667//667 465//465
f 546//546 517//517 500//500
f 596//596 527//527 583//583
f 610//610 659//659 614//614
f 79//79 272//272 265//265
f 91//91 272//272 79//79
f 641//641 265//265 272//272
f 575//575 265//265 572//572
f 631//631 572//572 265//265
f 103//103 265//265 575//575
f 585//585 461//461 575//575
f 627//627 411//411 336//336
f 190//190 311//311 189//189
f 311//311 335//335 218//218
f 302//302 218//218 318//318
f 318//318 218//218 489//489
f 225//225 224//224 380//380
f 306//306 655//655 536//536
f 306//306 511//511 208//208
f 208//208 511//511 648//648
f 654//654 426//426 431//431
f 455//455 512//512 449//449
f 449//449 512//512 478//478
f 452//452 478//478 512//512
f 452//452 512//512 577//577
f 452//452 371//371 488//488
f 372//372 452//452 488//488
f 372//372 421//421 452//452
f 628//628 440//440 441//441
f 628//628 441//441 408//408
f 441//441 440//440 394//394
f 630//630 394//394 642//642
f 440//440 423//423 394//394
f 423//423 312//312 642//642
f 285//285 513//513 524//524
f 530//530 523//523 285//285
f 523//523 508//508 497//497
f 508//508 537//537 497//497
f 623//623 588//588 618//618
f 604//604 623//623 622//622
f 637//637 625//625 623//623
f 604//604 636//636 623//623
f 637//637 556//556 622//622
f 637//637 622//622 625//625
f 276//276 556//556 637//637
f 582//582 674//674 568//568
f 72//72 237//237 261//261
f 74//74 673//673 237//237
f 281//281 260//260 65//65
f 261//261 281//281 65//65
f 261//261 65//65 72//72
f 74//74 237//237 72//72
f 84//84 260//260 676//676
f 260//260 84//84 65//65
f 286//286 289//289 667//667
f 365//365 447//447 293//293
f 447//447 475//475 293//293
f 644//644 603//603 651//651
f 578//578 610//610 614//614
f 659//659 610//610 626//626
f 658//658 659//659 626//626
f 660//660 267//267 69//69
f 91//91 267//267 272//272
f 610//610 267//267 626//626
f 458//458 490//490 519//519
f 669//669 479//479 450//450
f 511//511 450//450 479//479
f 438//438 511//511 653//653
f 654//654 433//433 434//434
f 434//434 487//487 654//654
f 409//409 459//459 654//654
f 426//426 654//654 455//455
f 452//452 577//577 443//443
f 488//488 454//454 445//445
f 460//460 421//421 403//403
f 372//372 403//403 421//421
f 423//423 424//424 312//312
f 435//435 312//312 314//314
f 435//435 513//513 282//282
f 435//435 349//349 513//513
f 508//508 523//523 530//530
f 617//617 639//639 537//537
f 446//446 639//639 672//672
f 636//636 537//537 639//639
f 537//537 636//636 589//589
f 264//264 588//588 636//636
f 588//588 264//264 618//618
f 677//677 621//621 279//279
f 276//276 637//637 621//621
f 676//676 254//254 276//276
f 622//622 556//556 568//568
f 254//254 676//676 268//268
f 268//268 676//676 260//260
f 676//676 621//621 677//677
f 268//268 556//556 254//254
f 556//556 268//268 568//568
f 268//268 582//582 568//568
f 276//276 254//254 556//556
f 276//276 621//621 676//676
f 621//621 637//637 623//623
f 623//623 625//625 622//622
f 621//621 623//623 618//618
f 618//618 279//279 621//621
f 284//284 601//601 678//678
f 678//678 679//679 284//284
f 289//289 286//286 444//444
f 414//414 264//264 636//636
f 425//425 652//652 678//678
f 448//448 679//679 678//678
f 284//284 448//448 286//286
f 284//284 679//679 448//448
f 444//444 448//448 652//652
f 448//448 678//678 652//652
f 264//264 414//414 425//425
f 401//401 425//425 678//678
f 401//401 264//264 425//425
f 664//664 401//401 678//678
f 664//664 677//677 401//401
f 618//618 401//401 279//279
f 601//601 664//664 678//678
f 401//401 677//677 279//279
f 425//425 414//414 652//652
f 414//414 636//636 652//652
f 286//286 448//448 444//444
f 401//401 618//618 264//264
f 652//652 636//636 639//639
f 462//462 269//269 293//293
f 395//395 376//376 365//365
f 447//447 482//482 475//475
f 546//546 500//500 501//501
f 368//368 591//591 366//366
f 641//641 267//267 619//619
f 575//575 404//404 585//585
f 585//585 404//404 477//477
f 549//549 483//483 477//477
f 518//518 490//490 485//485
f 490//490 518//518 519//519
f 518//518 479//479 519//519
f 511//511 518//518 648//648
f 511//511 479//479 518//518
f 511//511 438//438 450//450
f 518//518 434//434 648//648
f 518//518 485//485 434//434
f 485//485 487//487 434//434
f 654//654 487//487 409//409
f 577//577 619//619 578//578
f 610//610 578//578 619//619
f 574//574 641//641 577//577
f 631//631 406//406 451//451
f 549//549 459//459 409//409
f 549//549 409//409 483//483
f 419//419 483//483 409//409
f 490//490 419//419 485//485
f 487//487 485//485 419//419
f 387//387 455//455 514//514
f 654//654 514//514 455//455
f 574//574 557//557 587//587
f 387//387 406//406 552//552
f 387//387 514//514 406//406
f 406//406 514//514 404//404
f 419//419 663//663 483//483
f 419//419 409//409 487//487
f 514//514 459//459 404//404
f 587//587 557//557 552//552
f 587//587 552//552 631//631
f 557//557 387//387 552//552
f 512//512 455//455 557//557
f 455//455 387//387 557//557
f 514//514 654//654 459//459
f 663//663 419//419 490//490
f 404//404 459//459 549//549
f 406//406 631//631 552//552
f 574//574 587//587 641//641
f 577//577 557//557 574//574
f 408//408 397//397 398//398
f 628//628 408//408 398//398
f 612//612 323//323 382//382
f 7//7 99//99 323//323
f 7//7 323//323 612//612
f 357//357 4//4 649//649
f 314//314 357//357 649//649
f 617//617 530//530 524//524
f 446//446 269//269 289//289
f 342//342 341//341 656//656
f 395//395 345//345 445//445
f 372//372 437//437 429//429
f 375//375 398//398 397//397
f 7//7 612//612 6//6
f 110//110 223//223 8//8
f 89//89 223//223 649//649
f 89//89 2//2 223//223
f 2//2 8//8 223//223
f 3//3 8//8 2//2
f 563//563 617//617 349//349
f 665//665 617//617 563//563
f 269//269 266//266 293//293
f 293//293 341//341 342//342
f 342//342 365//365 293//293
f 437//437 345//345 429//429
f 429//429 405//405 403//403
f 397//397 405//405 375//375
f 375//375 424//424 398//398
f 424//424 628//628 398//398
f 382//382 355//355 612//612
f 355//355 6//6 612//612
f 296//296 304//304 616//616
f 473//473 296//296 647//647
f 269//269 672//672 666//666
f 291//291 266//266 682//682
f 293//293 266//266 341//341
f 355//355 382//382 424//424
f 355//355 97//97 6//6
f 355//355 375//375 97//97
f 328//328 97//97 375//375
f 328//328 251//251 97//97
f 90//90 495//495 50//50
f 563//563 481//481 665//665
f 647//647 665//665 473//473
f 361//361 325//325 322//322
f 361//361 322//322 304//304
f 322//322 616//616 304//304
f 322//322 633//633 616//616
f 629//629 633//633 650//650
f 656//656 650//650 422//422
f 345//345 369//369 656//656
f 405//405 429//429 422//422
f 315//315 319//319 240//240
f 328//328 315//315 334//334
f 328//328 334//334 251//251
f 334//334 247//247 98//98
f 334//334 98//98 41//41
f 98//98 247//247 34//34
f 498//498 238//238 273//273
f 273//273 274//274 498//498
f 498//498 607//607 495//495
f 90//90 230//230 495//495
f 381//381 361//361 304//304
f 328//328 367//367 319//319
f 238//238 207//207 439//439
f 273//273 238//238 319//319
f 304//304 274//274 381//381
f 367//367 381//381 274//274
f 274//274 273//273 367//367
f 273//273 319//319 367//367
f 304//304 607//607 274//274
f 319//319 439//439 240//240
f 319//319 238//238 439//439
f 207//207 238//238 498//498
f 334//334 315//315 247//247
f 381//381 367//367 328//328
f 381//381 405//405 361//361
f 361//361 405//405 422//422
f 345//345 422//422 429//429
f 325//325 422//422 633//633
f 650//650 633//633 422//422
f 345//345 656//656 422//422
f 629//629 616//616 633//633
f 422//422 325//325 361//361
f 607//607 473//473 640//640
f 649//649 223//223 640//640
f 649//649 640//640 481//481
f 640//640 473//473 481//481
f 665//665 481//481 473//473
f 304//304 473//473 607//607
f 495//495 607//607 640//640
f 274//274 607//607 498//498
f 303//303 206//206 232//232
f 206//206 303//303 240//240
f 232//232 243//243 303//303
f 303//303 305//305 240//240
f 305//305 303//303 106//106
f 305//305 315//315 240//240
f 315//315 328//328 319//319
f 534//534 629//629 620//620
f 543//543 534//534 620//620
f 544//544 543//543 620//620
f 544//544 620//620 291//291
f 682//682 544//544 291//291
f 544//544 682//682 681//681
f 629//629 534//534 616//616
f 236//236 296//296 616//616
f 666//666 681//681 682//682
f 296//296 236//236 647//647
f 666//666 236//236 681//681
f 682//682 269//269 666//666
f 666//666 647//647 236//236
f 544//544 520//520 543//543
f 534//534 520//520 616//616
f 681//681 236//236 520//520
f 543//543 520//520 534//534
f 520//520 544//544 681//681
f 236//236 616//616 520//520
f 341//341 291//291 620//620
f 341//341 266//266 291//291
f 650//650 620//620 629//629
f 325//325 633//633 322//322
f 649//649 481//481 563//563
f 495//495 640//640 223//223
f 110//110 495//495 223//223
f 110//110 50//50 495//495
f 88//88 230//230 90//90
f 41//41 251//251 334//334
f 375//375 381//381 328//328
f 341//341 620//620 650//650
f 269//269 682//682 266//266
f 647//647 666//666 617//617
f 666//666 672//672 617//617
f 296//296 473//473 304//304
f 665//665 647//647 617//617
f 1//1 251//251 41//41
f 41//41 5//5 1//1
f 1//1 97//97 251//251
f 424//424 375//375 355//355
f 375//375 405//405 381//381
f 342//342 656//656 369//369
f 656//656 341//341 650//650
f 446//446 672//672 269//269
f 649//649 563//563 314//314
f 649//649 4//4 89//89
f 405//405 397//397 403//403
f 403//403 372//372 429//429
f 437//437 372//372 445//445
f 437//437 445//445 345//345
f 365//365 342//342 369//369
f 269//269 462//462 289//289
f 672//672 639//639 617//617
f 314//314 563//563 435//435
f 4//4 357//357 99//99
f 357//357 323//323 99//99
f 323//323 357//357 314//314
f 382//382 323//323 314//314
f 314//314 312//312 424//424
f 382//382 314//314 424//424
f 427//427 447//447 376//376
f 529//529 565//565 454//454
f 482//482 501//501 500//500
f 482//482 500//500 475//475
f 546//546 501//501 427//427
f 583//583 565//565 603//603
f 591//591 368//368 614//614
f 368//368 443//443 578//578
f 443//443 366//366 371//371
f 366//366 454//454 488//488
f 371//371 366//366 488//488
f 577//577 578//578 443//443
f 368//368 366//366 443//443
f 427//427 376//376 364//364
f 364//364 445//445 454//454
f 364//364 395//395 445//445
f 603//603 565//565 529//529
f 565//565 527//527 364//364
f 364//364 545//545 427//427
f 427//427 501//501 482//482
f 545//545 546//546 427//427
f 565//565 364//364 454//454
f 603//603 529//529 591//591
f 527//527 545//545 364//364
f 427//427 482//482 447//447
f 395//395 364//364 376//376
f 669//669 458//458 479//479
f 519//519 479//479 458//458
f 477//477 404//404 549//549
f 404//404 451//451 406//406
f 575//575 451//451 404//404
f 631//631 265//265 587//587
f 587//587 265//265 641//641
f 641//641 619//619 577//577
f 267//267 610//610 619//619
f 591//591 454//454 366//366
f 454//454 591//591 529//529
f 527//527 565//565 583//583
f 462//462 475//475 500//500
f 447//447 365//365 376//376
f 395//395 369//369 345//345
f 365//365 369//369 395//395
f 530//530 617//617 537//537
f 349//349 617//617 524//524
f 530//530 285//285 524//524
f 435//435 563//563 349//349
f 524//524 513//513 349//349
f 424//424 423//423 628//628
f 628//628 423//423 440//440
f 488//488 445//445 372//372
f 452//452 443//443 371//371
f 306//306 653//653 511//511
f 536//536 438//438 653//653
f 354//354 192//192 442//442
f 645//645 489//489 218//218
f 335//335 380//380 645//645
f 432//432 492//492 348//348
f 536//536 354//354 442//442
f 354//354 627//627 192//192
f 348//348 400//400 411//411
f 380//380 400//400 492//492
f 370//370 348//348 547//547
f 411//411 547//547 348//348
f 547//547 354//354 370//370
f 627//627 354//354 547//547
f 354//354 655//655 370//370
f 354//354 536//536 655//655
f 380//380 257//257 400//400
f 340//340 400//400 257//257
f 348//348 492//492 400//400
f 627//627 547//547 411//411
f 442//442 438//438 536//536
f 432//432 348//348 370//370
f 225//225 380//380 492//492
f 218//218 335//335 645//645
f 257//257 335//335 190//190
f 380//380 335//335 257//257
f 311//311 190//190 335//335
f 340//340 336//336 400//400
f 336//336 411//411 400//400
f 457//457 438//438 442//442
f 438//438 457//457 450//450
f 483//483 663//663 585//585
f 626//626 660//660 658//658
f 660//660 626//626 267//267
f 658//658 660//660 69//69
f 614//614 368//368 578//578
f 545//545 527//527 596//596
f 465//465 462//462 500//500
f 601//601 677//677 664//664
f 676//676 677//677 602//602
f 228//228 227//227 226//226
f 226//226 227//227 261//261
f 260//260 281//281 261//261
f 253//253 674//674 582//582
f 622//622 568//568 674//674
f 622//622 674//674 504//504
f 623//623 636//636 588//588
f 589//589 497//497 537//537
f 497//497 589//589 613//613
f 444//444 652//652 639//639
f 289//289 444//444 446//446
f 444//444 639//639 446//446
f 537//537 508//508 530//530
f 312//312 282//282 642//642
f 435//435 282//282 312//312
f 394//394 423//423 642//642
f 408//408 403//403 397//397
f 403//403 408//408 460//460
f 577//577 512//512 557//557
f 449//449 426//426 455//455
f 648//648 434//434 208//208
f 433//433 208//208 434//434
f 653//653 306//306 536//536
f 225//225 492//492 432//432
f 101//101 627//627 336//336
f 336//336 82//82 101//101
f 340//340 82//82 336//336
f 627//627 101//101 192//192
f 526//526 442//442 192//192
f 526//526 457//457 442//442
f 450//450 457//457 669//669
f 457//457 78//78 669//669
f 461//461 585//585 663//663
f 585//585 477//477 483//483
f 461//461 103//103 575//575
f 451//451 575//575 572//572
f 572//572 631//631 451//451
f 641//641 272//272 267//267
f 267//267 91//91 69//69
f 658//658 651//651 659//659
f 591//591 614//614 659//659
f 603//603 591//591 659//659
f 651//651 603//603 659//659
f 603//603 644//644 583//583
f 463//463 465//465 517//517
f 412//412 667//667 463//463
f 500//500 517//517 465//465
f 462//462 465//465 667//667
f 293//293 475//475 462//462
f 667//667 289//289 462//462
f 74//74 539//539 673//673
f 507//507 292//292 505//505
f 507//507 402//402 292//292
f 402//402 486//486 550//550
f 548//548 237//237 502//502
f 237//237 226//226 261//261
f 548//548 226//226 237//237
f 226//226 595//595 594//594
f 227//227 680//680 683//683
f 680//680 558//558 683//683
f 227//227 683//683 253//253
f 253//253 582//582 260//260
f 252//252 674//674 253//253
f 253//253 683//683 252//252
f 674//674 662//662 504//504
f 636//636 604//604 589//589
f 441//441 460//460 408//408
f 299//299 208//208 433//433
f 370//370 655//655 432//432
f 224//224 222//222 645//645
f 318//318 327//327 302//302
f 302//302 327//327 311//311
f 231//231 611//611 283//283
f 283//283 298//298 468//468
f 566//566 469//469 561//561
f 287//287 210//210 566//566
f 204//204 263//263 326//326
f 670//670 456//456 202//202
f 287//287 542//542 202//202
f 469//469 210//210 202//202
f 542//542 670//670 202//202
f 210//210 287//287 202//202
f 211//211 204//204 566//566
f 287//287 566//566 204//204
f 211//211 566//566 561//561
f 566//566 210//210 469//469
f 469//469 468//468 561//561
f 469//469 202//202 456//456
f 469//469 283//283 468//468
f 456//456 283//283 469//469
f 468//468 211//211 561//561
f 263//263 204//204 211//211
f 215//215 287//287 484//484
f 326//326 263//263 189//189
f 190//190 189//189 60//60
f 257//257 190//190 340//340
f 457//457 526//526 80//80
f 457//457 80//80 78//78
f 669//669 78//78 458//458
f 81//81 461//461 663//663
f 61//61 103//103 461//461
f 658//658 64//64 651//651
f 64//64 644//644 651//651
f 644//644 109//109 583//583
f 545//545 85//85 546//546
f 463//463 517//517 70//70
f 66//66 412//412 463//463
f 675//675 667//667 412//412
f 286//286 667//667 675//675
f 673//673 294//294 402//402
f 522//522 521//521 464//464
f 521//521 522//522 486//486
f 635//635 522//522 474//474
f 474//474 522//522 680//680
f 470//470 662//662 558//558
f 558//558 662//662 674//674
f 300//300 613//613 661//661
f 332//332 513//513 300//300
f 630//630 642//642 643//643
f 638//638 460//460 113//113
f 638//638 421//421 460//460
f 310//310 299//299 431//431
f 600//600 46//46 47//47
f 43//43 316//316 494//494
f 310//310 431//431 316//316
f 316//316 467//467 310//310
f 494//494 316//316 431//431
f 467//467 466//466 310//310
f 476//476 310//310 46//46
f 476//476 46//46 600//600
f 306//306 432//432 655//655
f 287//287 327//327 484//484
f 242//242 657//657 606//606
f 606//606 194//194 242//242
f 242//242 194//194 231//231
f 542//542 242//242 670//670
f 532//532 510//510 611//611
f 352//352 510//510 358//358
f 373//373 358//358 290//290
f 373//373 352//352 358//358
f 590//590 584//584 379//379
f 219//219 584//584 217//217
f 576//576 250//250 579//579
f 576//576 379//379 584//584
f 73//73 396//396 111//111
f 63//63 396//396 73//73
f 76//76 468//468 63//63
f 211//211 76//76 67//67
f 67//67 75//75 189//189
f 60//60 189//189 75//75
f 340//340 60//60 68//68
f 526//526 86//86 80//80
f 458//458 78//78 81//81
f 461//461 81//81 61//61
f 265//265 103//103 79//79
f 109//109 644//644 64//64
f 109//109 85//85 596//596
f 517//517 85//85 70//70
f 66//66 463//463 70//70
f 71//71 187//187 66//66
f 187//187 675//675 412//412
f 580//580 216//216 570//570
f 245//245 539//539 62//62
f 553//553 560//560 539//539
f 245//245 559//559 553//553
f 571//571 559//559 245//245
f 186//186 571//571 245//245
f 553//553 539//539 245//245
f 186//186 245//245 77//77
f 569//569 559//559 571//571
f 673//673 539//539 294//294
f 515//515 521//521 503//503
f 453//453 258//258 259//259
f 259//259 201//201 453//453
f 201//201 259//259 37//37
f 453//453 201//201 662//662
f 363//363 643//643 332//332
f 630//630 363//363 632//632
f 363//363 332//332 609//609
f 332//332 331//331 609//609
f 632//632 363//363 609//609
f 630//630 632//632 383//383
f 383//383 112//112 113//113
f 646//646 436//436 94//94
f 431//431 426//426 494//494
f 310//310 466//466 46//46
f 466//466 44//44 46//46
f 600//600 188//188 299//299
f 306//306 299//299 432//432
f 215//215 484//484 318//318
f 573//573 297//297 262//262
f 657//657 301//301 295//295
f 295//295 606//606 657//657
f 262//262 592//592 606//606
f 573//573 540//540 297//297
f 262//262 297//297 229//229
f 262//262 581//581 592//592
f 244//244 301//301 308//308
f 657//657 313//313 308//308
f 657//657 308//308 301//301
f 657//657 242//242 313//313
f 592//592 555//555 194//194
f 270//270 217//217 590//590
f 586//586 229//229 270//270
f 217//217 270//270 219//219
f 590//590 586//586 270//270
f 216//216 248//248 570//570
f 111//111 571//571 77//77
f 62//62 77//77 245//245
f 571//571 186//186 77//77
f 551//551 553//553 559//559
f 294//294 539//539 560//560
f 333//333 472//472 515//515
f 516//516 333//333 515//515
f 515//515 503//503 560//560
f 560//560 503//503 541//541
f 521//521 472//472 464//464
f 330//330 58//58 57//57
f 203//203 464//464 330//330
f 258//258 453//453 464//464
f 53//53 203//203 57//57
f 33//33 331//331 32//32
f 331//331 33//33 108//108
f 624//624 108//108 40//40
f 436//436 56//56 94//94
f 646//646 94//94 49//49
f 494//494 646//646 49//49
f 234//234 308//308 313//313
f 301//301 491//491 220//220
f 301//301 220//220 295//295
f 606//606 295//295 262//262
f 555//555 581//581 358//358
f 510//510 532//532 555//555
f 586//586 581//581 229//229
f 262//262 229//229 581//581
f 229//229 280//280 270//270
f 576//576 219//219 249//249
f 250//250 249//249 317//317
f 249//249 248//248 317//317
f 356//356 255//255 528//528
f 551//551 516//516 515//515
f 203//203 330//330 57//57
f 26//26 599//599 24//24
f 26//26 288//288 599//599
f 593//593 288//288 25//25
f 533//533 562//562 535//535
f 567//567 234//234 278//278
f 225//225 241//241 385//385
f 235//235 212//212 215//215
f 244//244 308//308 567//567
f 540//540 295//295 220//220
f 573//573 295//295 540//540
f 205//205 209//209 196//196
f 271//271 196//196 31//31
f 271//271 428//428 196//196
f 360//360 219//219 270//270
f 248//248 249//249 360//360
f 307//307 356//356 528//528
f 255//255 356//356 333//333
f 516//516 551//551 255//255
f 333//333 516//516 255//255
f 472//472 337//337 330//330
f 347//347 182//182 42//42
f 182//182 29//29 42//42
f 347//347 275//275 182//182
f 288//288 26//26 25//25
f 593//593 25//25 27//27
f 668//668 554//554 533//533
f 277//277 27//27 668//668
f 104//104 430//430 22//22
f 19//19 416//416 104//104
f 416//416 19//19 378//378
f 416//416 378//378 430//430
f 377//377 378//378 19//19
f 416//416 430//430 104//104
f 509//509 362//362 491//491
f 209//209 205//205 199//199
f 350//350 270//270 339//339
f 350//350 337//337 360//360
f 360//360 337//337 256//256
f 275//275 347//347 330//330
f 29//29 275//275 23//23
f 668//668 27//27 28//28
f 525//525 28//28 22//22
f 377//377 19//19 389//389
f 407//407 353//353 499//499
f 605//605 499//499 392//392
f 499//499 480//480 392//392
f 499//499 389//389 480//480
f 359//359 615//615 243//243
f 415//415 605//605 384//384
f 384//384 615//615 359//359
f 615//615 388//388 243//243
f 634//634 615//615 608//608
f 615//615 634//634 388//388
f 392//392 608//608 615//615
f 615//615 605//605 392//392
f 407//407 605//605 415//415
f 407//407 499//499 605//605
f 353//353 377//377 499//499
f 362//362 377//377 353//353
f 351//351 220//220 491//491
f 220//220 199//199 205//205
f 20//20 389//389 19//19
f 410//410 18//18 55//55
f 410//410 20//20 18//18
f 608//608 392//392 100//100
f 344//344 388//388 634//634
f 343//343 388//388 344//344
f 343//343 344//344 14//14
f 243//243 388//388 343//343
f 106//106 303//303 338//338
f 9//9 230//230 181//181
f 206//206 240//240 439//439
f 198//198 320//320 321//321
f 384//384 195//195 324//324
f 198//198 384//384 320//320
f 206//206 321//321 232//232
f 407//407 564//564 221//221
f 221//221 351//351 353//353
f 351//351 221//221 386//386
f 386//386 220//220 351//351
f 21//21 209//209 102//102
f 54//54 392//392 390//390
f 48//48 393//393 392//392
f 183//183 393//393 48//48
f 100//100 392//392 393//393
f 100//100 393//393 183//183
f 48//48 392//392 54//54
f 59//59 96//96 11//11
f 191//191 309//309 246//246
f 246//246 309//309 96//96
f 11//11 96//96 309//309
f 11//11 309//309 213//213
f 15//15 16//16 191//191
f 191//191 246//246 193//193
f 338//338 14//14 92//92
f 105//105 305//305 106//106
f 105//105 315//315 305//305
f 197//197 9//9 12//12
f 230//230 197//197 207//207
f 384//384 324//324 415//415
f 324//324 329//329 415//415
f 564//564 329//329 200//200
f 386//386 199//199 220//220
f 564//564 246//246 374//374
f 195//195 200//200 324//324
f 15//15 191//191 10//10
f 114//114 493//493 12//12
f 191//191 193//193 239//239
f 10//10 418//418 180//180