####
#
# OBJ File Generated by Meshlab
#
####
# Object finger_simplify.obj
#
# Vertices: 9
# Faces: 14
#
####
vn 0.0000000000000000 0.0000000000000000 0.0000000000000000
v 0.0333443289134804 0.0000000000000000 0.0089300982437465
vn 1.5756147836191892 -1.2482919076308403 -1.2555127880661372
v 0.0332396104066403 0.0220050196952381 0.0001738750493685
vn 1.5114096101457846 1.6763092706210996 1.5944422634444042
v 0.0288375361272936 0.0546890513906204 0.0190000000000000
vn 1.7108689174049558 1.6445147527014137 -1.7406561247892740
v 0.0294048620764185 0.0534214788649774 0.0000000000000000
vn -1.7128134075556853 1.7187761012399225 1.8047695182555792
v 0.0055842779343711 0.0534214738667247 0.0190000000000000
vn -1.4975835230712229 1.7675803093985121 -1.6522325054132536
v 0.0061516044360464 0.0546890471749716 0.0000000000000000
vn -1.5683582770482893 -1.3943303936327944 -1.5945483701019780
v 0.0022496673357309 0.0213172208855644 0.0000000000000000
vn -1.2547024030130525 -1.3507423889948296 1.1304947882077776
v 0.0017612026562287 0.0186734988112464 0.0190000000000000
vn 1.6462157056961868 -1.5572894310640342 1.7052398158744393
v 0.0305418361636750 0.0218672290729449 0.0190000000000000
# 9 vertices, 0 vertices normals

f 3//3 9//9 4//4
f 4//4 9//9 2//2
f 5//5 3//3 6//6
f 6//6 3//3 4//4
f 8//8 5//5 7//7
f 7//7 5//5 6//6
f 9//9 8//8 7//7
f 2//2 9//9 7//7
f 1//1 9//9 2//2
f 9//9 1//1 2//2
f 3//3 5//5 8//8
f 3//3 8//8 9//9
f 6//6 4//4 2//2
f 6//6 2//2 7//7
# 14 faces, 0 coords texture

# End of File
