# File generated by ImageToStl.com - Free Image and 3D model conversion tools

o obj1
v 0.03458627 0.024 0.019
v 0.03458627 0 0.019
v 0.03458627 0.024 0
v 0.03458627 0 0
v 0.02979299 0.027 0.019
v 0.02979299 0.027 0
v 0.02979299 0.05 0.019
v 0.02979299 0.05 0
v 0.02307548 0.05671751 0.019
v 0.02307548 0.05671751 -0
v 0.02979299 0.05 -0
v 0.01191367 0.05671751 0.019
v 0.01191367 0.05671751 0
v 0.02307548 0.05671751 0
v 0.00519615 0.05 0.019
v 0.00519615 0.05 -0
v 0.01191367 0.05671751 -0
v 0.00519615 0.027 0.019
v 0.00519615 0.027 0
v 0.00519615 0.05 0
v 0 0.024 0.019
v 0 0.024 -0
v 0.00519615 0.027 -0
v 0 0 0.019
v 0 0 0
v 0 0.024 0
v 0.0030297 0 0.019
v 0.0030297 0 0
v 0.0030297 0.02000742 0.019
v 0.0030297 0.02000742 0
v 0.00479397 0.02177169 0.019
v 0.00479397 0.02177169 0
v 0.02979299 0.02177169 0.019
v 0.02979299 0.02177169 0
v 0.03155726 0.02000742 0.019
v 0.03155726 0.02000742 0
v 0.03155726 0 0.019
v 0.03155726 0 0
vn 1 0 0
vn 0.53053 0.84766 0
vn 0.70711 0.70711 0
vn -0 1 0
vn -0.70711 0.70711 0
vn -1 0 0
vn -0.5 0.86603 0
vn -0 -1 -0
vn 0.70711 -0.70711 0
vn -0.70711 -0.70711 -0
vn 0 0 1
vn -0 -0 -1
f 1//1 2//1 3//1
f 3//1 2//1 4//1
f 5//2 1//2 6//2
f 6//2 1//2 3//2
f 7//1 5//1 8//1
f 8//1 5//1 6//1
f 9//3 7//3 10//3
f 10//3 7//3 11//3
f 12//4 9//4 13//4
f 13//4 9//4 14//4
f 15//5 12//5 16//5
f 16//5 12//5 17//5
f 18//6 15//6 19//6
f 19//6 15//6 20//6
f 21//7 18//7 22//7
f 22//7 18//7 23//7
f 24//6 21//6 25//6
f 25//6 21//6 26//6
f 27//8 24//8 28//8
f 28//8 24//8 25//8
f 29//1 27//1 30//1
f 30//1 27//1 28//1
f 31//9 29//9 32//9
f 32//9 29//9 30//9
f 33//8 31//8 34//8
f 34//8 31//8 32//8
f 35//10 33//10 36//10
f 36//10 33//10 34//10
f 37//6 35//6 38//6
f 38//6 35//6 36//6
f 2//8 37//8 4//8
f 4//8 37//8 38//8
f 24//11 27//11 21//11
f 21//11 27//11 29//11
f 21//11 29//11 18//11
f 18//11 29//11 31//11
f 18//11 31//11 33//11
f 37//11 2//11 35//11
f 35//11 2//11 1//11
f 35//11 1//11 33//11
f 33//11 1//11 5//11
f 33//11 5//11 18//11
f 12//11 15//11 9//11
f 9//11 15//11 18//11
f 9//11 18//11 7//11
f 7//11 18//11 5//11
f 14//12 8//12 13//12
f 13//12 8//12 6//12
f 13//12 6//12 20//12
f 20//12 6//12 19//12
f 4//12 38//12 3//12
f 3//12 38//12 36//12
f 3//12 36//12 6//12
f 6//12 36//12 34//12
f 6//12 34//12 19//12
f 19//12 34//12 32//12
f 19//12 32//12 26//12
f 26//12 32//12 30//12
f 26//12 30//12 25//12
f 25//12 30//12 28//12
# Vertices: 38, normals: 12, texture coordinates: 0, faces: 60

