# https://github.com/mikedh/trimesh
v 0.10065687 0.00000000 0.04600000 1.00000000 1.00000000 0.00000000
v 0.10065687 0.00000000 0.04600000 1.00000000 1.00000000 0.00000000
v 0.10065687 0.00000000 0.04600000 1.00000000 1.00000000 0.00000000
v 0.10065687 0.00000000 0.00000000 1.00000000 1.00000000 0.00000000
v 0.10065687 0.00000000 0.00000000 1.00000000 1.00000000 0.00000000
v 0.10065687 0.00000000 0.00000000 1.00000000 1.00000000 0.00000000
v 0.12016562 0.06381025 0.04600000 1.00000000 1.00000000 0.00000000
v 0.12016562 0.06381025 0.04600000 1.00000000 1.00000000 0.00000000
v 0.12016562 0.06381025 0.04600000 1.00000000 1.00000000 0.00000000
v 0.12200000 0.06981025 0.00000000 1.00000000 1.00000000 0.00000000
v 0.12200000 0.06981025 0.00000000 1.00000000 1.00000000 0.00000000
v 0.12200000 0.06981025 0.00000000 1.00000000 1.00000000 0.00000000
v 0.12200000 0.06981025 0.04000000 1.00000000 1.00000000 0.00000000
v 0.12200000 0.06981025 0.04000000 1.00000000 1.00000000 0.00000000
v 0.12200000 0.06981025 0.04000000 1.00000000 1.00000000 0.00000000
v 0.12200000 0.07981025 0.03000000 1.00000000 1.00000000 0.00000000
v 0.12200000 0.07981025 0.03000000 1.00000000 1.00000000 0.00000000
v 0.12200000 0.07981025 0.03000000 1.00000000 1.00000000 0.00000000
v 0.12200000 0.10381025 0.00000000 1.00000000 1.00000000 0.00000000
v 0.12200000 0.10381025 0.00000000 1.00000000 1.00000000 0.00000000
v 0.12200000 0.10381025 0.00000000 1.00000000 1.00000000 0.00000000
v 0.12200000 0.07981025 0.04000000 1.00000000 1.00000000 0.00000000
v 0.12200000 0.07981025 0.04000000 1.00000000 1.00000000 0.00000000
v 0.12200000 0.07981025 0.04000000 1.00000000 1.00000000 0.00000000
v 0.12200000 0.10381025 0.04000000 1.00000000 1.00000000 0.00000000
v 0.12200000 0.10381025 0.04000000 1.00000000 1.00000000 0.00000000
v 0.12200000 0.10381025 0.04000000 1.00000000 1.00000000 0.00000000
v 0.09000000 0.10381025 0.00000000 1.00000000 1.00000000 0.00000000
v 0.09000000 0.10381025 0.00000000 1.00000000 1.00000000 0.00000000
v 0.09000000 0.10381025 0.00000000 1.00000000 1.00000000 0.00000000
v 0.09000000 0.10381025 0.04000000 1.00000000 1.00000000 0.00000000
v 0.09000000 0.10381025 0.04000000 1.00000000 1.00000000 0.00000000
v 0.09000000 0.10381025 0.04000000 1.00000000 1.00000000 0.00000000
v 0.09000000 0.07981025 0.04000000 1.00000000 1.00000000 0.00000000
v 0.09000000 0.07981025 0.04000000 1.00000000 1.00000000 0.00000000
v 0.09000000 0.07981025 0.04000000 1.00000000 1.00000000 0.00000000
v 0.09000000 0.07981025 0.03000000 1.00000000 1.00000000 0.00000000
v 0.09000000 0.07981025 0.03000000 1.00000000 1.00000000 0.00000000
v 0.09000000 0.07981025 0.03000000 1.00000000 1.00000000 0.00000000
v 0.09000000 0.07981025 0.03000000 1.00000000 1.00000000 0.00000000
v 0.09000000 0.07981025 0.00000000 1.00000000 1.00000000 0.00000000
v 0.09000000 0.07981025 0.00000000 1.00000000 1.00000000 0.00000000
v 0.09000000 0.07981025 0.00000000 1.00000000 1.00000000 0.00000000
v 0.07500000 0.07981025 0.00000000 1.00000000 1.00000000 0.00000000
v 0.07500000 0.07981025 0.00000000 1.00000000 1.00000000 0.00000000
v 0.07500000 0.07981025 0.00000000 1.00000000 1.00000000 0.00000000
v 0.07500000 0.07981025 0.03000000 1.00000000 1.00000000 0.00000000
v 0.07500000 0.07981025 0.03000000 1.00000000 1.00000000 0.00000000
v 0.07500000 0.07981025 0.03000000 1.00000000 1.00000000 0.00000000
v 0.07500000 0.07981025 0.03000000 1.00000000 1.00000000 0.00000000
v 0.07500000 0.10381025 0.00000000 1.00000000 1.00000000 0.00000000
v 0.07500000 0.10381025 0.00000000 1.00000000 1.00000000 0.00000000
v 0.07500000 0.10381025 0.00000000 1.00000000 1.00000000 0.00000000
v 0.07500000 0.10381025 0.04000000 1.00000000 1.00000000 0.00000000
v 0.07500000 0.10381025 0.04000000 1.00000000 1.00000000 0.00000000
v 0.07500000 0.10381025 0.04000000 1.00000000 1.00000000 0.00000000
v 0.07500000 0.07981025 0.04000000 1.00000000 1.00000000 0.00000000
v 0.07500000 0.07981025 0.04000000 1.00000000 1.00000000 0.00000000
v 0.07500000 0.07981025 0.04000000 1.00000000 1.00000000 0.00000000
v 0.04500000 0.10381025 0.00000000 1.00000000 1.00000000 0.00000000
v 0.04500000 0.10381025 0.00000000 1.00000000 1.00000000 0.00000000
v 0.04500000 0.10381025 0.00000000 1.00000000 1.00000000 0.00000000
v 0.04500000 0.10381025 0.04000000 1.00000000 1.00000000 0.00000000
v 0.04500000 0.10381025 0.04000000 1.00000000 1.00000000 0.00000000
v 0.04500000 0.10381025 0.04000000 1.00000000 1.00000000 0.00000000
v 0.04500000 0.07981025 0.04000000 1.00000000 1.00000000 0.00000000
v 0.04500000 0.07981025 0.04000000 1.00000000 1.00000000 0.00000000
v 0.04500000 0.07981025 0.04000000 1.00000000 1.00000000 0.00000000
v 0.04500000 0.07981025 0.03000000 1.00000000 1.00000000 0.00000000
v 0.04500000 0.07981025 0.03000000 1.00000000 1.00000000 0.00000000
v 0.04500000 0.07981025 0.03000000 1.00000000 1.00000000 0.00000000
v 0.04500000 0.07981025 0.03000000 1.00000000 1.00000000 0.00000000
v 0.04500000 0.07981025 0.00000000 1.00000000 1.00000000 0.00000000
v 0.04500000 0.07981025 0.00000000 1.00000000 1.00000000 0.00000000
v 0.04500000 0.07981025 0.00000000 1.00000000 1.00000000 0.00000000
v 0.03000000 0.07981025 0.00000000 1.00000000 1.00000000 0.00000000
v 0.03000000 0.07981025 0.00000000 1.00000000 1.00000000 0.00000000
v 0.03000000 0.07981025 0.00000000 1.00000000 1.00000000 0.00000000
v 0.03000000 0.07981025 0.03000000 1.00000000 1.00000000 0.00000000
v 0.03000000 0.07981025 0.03000000 1.00000000 1.00000000 0.00000000
v 0.03000000 0.07981025 0.03000000 1.00000000 1.00000000 0.00000000
v 0.03000000 0.07981025 0.03000000 1.00000000 1.00000000 0.00000000
v 0.03000000 0.10381025 0.00000000 1.00000000 1.00000000 0.00000000
v 0.03000000 0.10381025 0.00000000 1.00000000 1.00000000 0.00000000
v 0.03000000 0.10381025 0.00000000 1.00000000 1.00000000 0.00000000
v 0.03000000 0.10381025 0.04000000 1.00000000 1.00000000 0.00000000
v 0.03000000 0.10381025 0.04000000 1.00000000 1.00000000 0.00000000
v 0.03000000 0.10381025 0.04000000 1.00000000 1.00000000 0.00000000
v 0.03000000 0.07981025 0.04000000 1.00000000 1.00000000 0.00000000
v 0.03000000 0.07981025 0.04000000 1.00000000 1.00000000 0.00000000
v 0.03000000 0.07981025 0.04000000 1.00000000 1.00000000 0.00000000
v 0.00000000 0.10381025 0.00000000 1.00000000 1.00000000 0.00000000
v 0.00000000 0.10381025 0.00000000 1.00000000 1.00000000 0.00000000
v 0.00000000 0.10381025 0.00000000 1.00000000 1.00000000 0.00000000
v 0.00000000 0.10381025 0.04000000 1.00000000 1.00000000 0.00000000
v 0.00000000 0.10381025 0.04000000 1.00000000 1.00000000 0.00000000
v 0.00000000 0.10381025 0.04000000 1.00000000 1.00000000 0.00000000
v 0.00000000 0.07981025 0.03000000 1.00000000 1.00000000 0.00000000
v 0.00000000 0.07981025 0.03000000 1.00000000 1.00000000 0.00000000
v 0.00000000 0.07981025 0.03000000 1.00000000 1.00000000 0.00000000
v 0.00000000 0.07981025 0.04000000 1.00000000 1.00000000 0.00000000
v 0.00000000 0.07981025 0.04000000 1.00000000 1.00000000 0.00000000
v 0.00000000 0.07981025 0.04000000 1.00000000 1.00000000 0.00000000
v 0.00000000 0.03481025 0.04600000 1.00000000 1.00000000 0.00000000
v 0.00000000 0.03481025 0.04600000 1.00000000 1.00000000 0.00000000
v 0.00000000 0.03481025 0.04600000 1.00000000 1.00000000 0.00000000
v 0.00000000 0.06381025 0.04600000 1.00000000 1.00000000 0.00000000
v 0.00000000 0.06381025 0.04600000 1.00000000 1.00000000 0.00000000
v 0.00000000 0.06381025 0.04600000 1.00000000 1.00000000 0.00000000
v 0.00000000 0.03481025 0.00000000 1.00000000 1.00000000 0.00000000
v 0.00000000 0.03481025 0.00000000 1.00000000 1.00000000 0.00000000
v 0.00000000 0.03481025 0.00000000 1.00000000 1.00000000 0.00000000
v 0.05065687 0.00000000 0.04600000 1.00000000 1.00000000 0.00000000
v 0.05065687 0.00000000 0.04600000 1.00000000 1.00000000 0.00000000
v 0.05065687 0.00000000 0.04600000 1.00000000 1.00000000 0.00000000
v 0.05065687 0.03481025 0.04600000 1.00000000 1.00000000 0.00000000
v 0.05065687 0.03481025 0.04600000 1.00000000 1.00000000 0.00000000
v 0.05065687 0.03481025 0.04600000 1.00000000 1.00000000 0.00000000
v 0.05065687 0.03481025 0.00000000 1.00000000 1.00000000 0.00000000
v 0.05065687 0.03481025 0.00000000 1.00000000 1.00000000 0.00000000
v 0.05065687 0.03481025 0.00000000 1.00000000 1.00000000 0.00000000
v 0.05065687 0.00000000 0.00000000 1.00000000 1.00000000 0.00000000
v 0.05065687 0.00000000 0.00000000 1.00000000 1.00000000 0.00000000
v 0.05065687 0.00000000 0.00000000 1.00000000 1.00000000 0.00000000
f 1 6 8
f 8 6 10
f 8 10 15
f 13 11 16
f 16 11 21
f 16 21 22
f 22 21 26
f 19 30 25
f 25 30 33
f 35 31 39
f 39 31 28
f 39 28 41
f 43 45 40
f 40 45 47
f 46 52 48
f 48 52 54
f 48 54 59
f 53 60 55
f 55 60 63
f 66 64 71
f 71 64 62
f 71 62 75
f 74 77 72
f 72 77 81
f 78 85 80
f 80 85 88
f 80 88 91
f 83 93 86
f 86 93 96
f 99 103 95
f 104 109 110
f 110 109 99
f 110 99 94
f 94 99 95
f 113 3 117
f 117 3 7
f 117 7 106
f 106 7 107
f 116 105 121
f 121 105 111
f 114 118 124
f 124 118 120
f 2 115 4
f 4 115 123
f 5 122 119
f 61 51 73
f 73 51 44
f 29 20 42
f 42 20 12
f 42 12 5
f 92 84 112
f 112 84 76
f 112 76 119
f 119 76 73
f 119 73 5
f 5 73 44
f 5 44 42
f 32 36 27
f 27 36 23
f 65 67 56
f 56 67 58
f 97 102 87
f 87 102 89
f 34 38 24
f 24 38 18
f 68 69 57
f 57 69 50
f 101 98 90
f 90 98 79
f 82 100 108
f 14 17 37
f 14 37 9
f 9 37 49
f 9 49 108
f 108 49 70
f 108 70 82