####
#
# OBJ File Generated by Meshlab
#
####
# Object palam_sw_simplify.obj
#
# Vertices: 13
# Faces: 22
#
####
vn -1.3011427032745655 -2.3461181297038509 4.4285353611413276
v 0.0506568700000000 0.0348102500000000 0.0460000000000000
vn -1.5703134813245834 -1.5318518709300692 1.5460009755093247
v 0.0000000000000000 0.0348102500000000 0.0460000000000000
vn -1.5585059281422780 -1.5320839154839203 -4.7121105123464773
v 0.0506568700000000 0.0348102500000000 0.0000000000000000
vn -1.5603302384204145 -1.4890769078930357 -1.5389245540451180
v 0.0000000000000000 0.0348102500000000 0.0000000000000000
vn -1.4702017447969358 -1.4579930707517756 -1.1174872495612367
v 0.0506568700000000 0.0000000000000000 0.0000000000000000
vn 0.8683897980502443 -1.9635241090680056 1.7721022755745166
v 0.0945387188216090 -0.0021675885812429 0.0460000000000000
vn 1.5759713002037539 -1.8757244653695988 -1.7253706573872447
v 0.1006568700000000 0.0000000000000000 0.0000000000000000
vn 1.4098729008010817 1.1227079387519123 1.2106258367146021
v 0.1275590708082946 0.1009322535178637 0.0460000000000000
vn 1.5967701165590891 1.0545573390532479 -1.3523055394866492
v 0.1282156546014009 0.0973744146980590 0.0000000000000000
vn 0.0903733832867276 3.1060041603947628 3.5451022039084994
v 0.0566666666666667 0.0958102500000000 0.0460000000000000
vn 0.0234260515616592 3.1761309432348717 -3.0413469282434749
v 0.0700000000000000 0.0992609660909857 0.0007288400317197
vn -1.3545672119112773 1.5641523013342014 1.3821227981314110
v 0.0017112299465241 0.1038102500000000 0.0460000000000000
vn -1.3495557943757219 1.7672220695440557 -1.6423655973338196
v 0.0058447488584475 0.1038102500000000 0.0000000000000000
# 13 vertices, 0 vertices normals

f 1//1 2//2 3//3
f 3//3 2//2 4//4
f 6//6 1//1 5//5
f 5//5 1//1 3//3
f 7//7 6//6 5//5
f 8//8 6//6 9//9
f 9//9 6//6 7//7
f 11//11 8//8 9//9
f 12//12 10//10 13//13
f 13//13 10//10 11//11
f 2//2 12//12 4//4
f 4//4 12//12 13//13
f 8//8 11//11 10//10
f 6//6 8//8 1//1
f 10//10 2//2 1//1
f 10//10 1//1 8//8
f 10//10 12//12 2//2
f 7//7 5//5 3//3
f 11//11 9//9 7//7
f 4//4 13//13 11//11
f 4//4 11//11 3//3
f 3//3 11//11 7//7
# 22 faces, 0 coords texture

# End of File
