####
#
# OBJ File Generated by Meshlab
#
####
# Object palm_lower_left_simplify.obj
#
# Vertices: 375
# Faces: 864
#
####
vn 0.2045838466628875 0.3109845165316903 0.2810742297091292
v 0.0720167574829876 -0.0237047036293968 0.0620658561638078
vn -0.8784078362739327 -0.2637092815414295 1.4116821535896960
v 0.0758004262391703 -0.0061669192386774 0.0616235027913535
vn -0.0003568853995344 -0.0188568462458028 -0.0019949950287903
v 0.0749513473972690 0.0140247569408534 0.0660222297347027
vn -0.0241772187857719 0.1661263030475746 -0.0742089564805393
v 0.0741388615686535 -0.0259787200000000 0.0661349064178859
vn -6.1900994508044658 0.8096951731281297 -0.4610642226412738
v 0.0238055414579835 -0.0092296051841321 0.0419456910199622
vn -1.3870869208525323 0.3055101215630340 0.7725671779038912
v 0.0306423519994730 -0.0258223900960719 0.0314872062856302
vn -2.8435565138784749 -4.3848401681823841 -0.3249430575708750
v 0.0311234632271727 -0.0258778839105561 0.0411679564256649
vn -4.3988522289597460 -2.8374281104529615 1.4889929649292164
v 0.0235305658083362 -0.0222664822935811 0.0330449045891019
vn -3.0780309252570461 -2.5963302811891147 0.5380175120139670
v 0.0212764886066047 -0.0252269424849310 0.0266018763945984
vn -4.9053734270716882 1.3027765947771857 -0.4400598754320916
v 0.0207023850673736 -0.0103347314457203 0.0241834372965960
vn -1.5634724796733692 -1.9700025641032874 -1.9544481315232010
v 0.0234620770559057 -0.0256218495928490 0.0180729416133374
vn 3.8221930367505350 1.4203752493355157 -1.8827856933236031
v 0.0485141021352880 -0.0090476778709494 0.0192512892357581
vn 0.5883745574744487 -1.1483703277724342 0.5625832153296957
v 0.0489694724613236 -0.0244618014688580 0.0234239981622951
vn 6.1447034028301468 -0.6535294998745277 0.4656876972980221
v 0.0465164001522737 -0.0107957756583445 0.0340810621729113
vn 0.4390108317715936 2.2415806320849612 -2.1627214417048175
v 0.0447001620885418 -0.0058886675207392 0.0175385543280139
vn -3.0416589375468996 3.8994451625514972 -0.1361987534524400
v 0.0245381585887036 -0.0058791092342298 0.0413435944196681
vn -0.5862405708454381 -2.7708344886499021 -4.1063653661305173
v 0.0285316573692138 -0.0250788856904818 0.0175012398747216
vn -0.1807261459962524 0.0289916543266666 -6.2755668283520905
v 0.0285283886412086 -0.0088662036914177 0.0174957795517622
vn -1.2894524166687551 2.3569123191874843 -2.4294549359913371
v 0.0261599616140867 -0.0058926890529721 0.0175999054333269
vn -5.8687859177296469 1.7454004192519257 0.5761999771921437
v 0.0236590153373386 -0.0092190484386500 0.0317505313316002
vn 1.6272532199116818 5.3933987799092380 -0.3994799273412980
v 0.0430423190173432 -0.0058818581591852 0.0512663067442059
vn 0.0000000000000000 -0.0000000000000002 0.0000000000000000
v 0.0350513284893186 -0.0069778967443790 0.0518552486487715
vn -0.0555394291554772 0.0333699781280936 -0.2362091494104868
v 0.0284373747936608 -0.0258267186212294 0.0511589228468511
vn 3.7105737970297121 1.7982930189951134 -2.1773311194089566
v 0.0425510297855582 -0.0065093650608232 0.0181000360427726
vn -0.0448223974553066 -0.7321392831252411 -0.5643784004606762
v 0.0464875997659220 -0.0258740042555957 0.0175655515736741
vn 2.9557987882793286 2.7572899868497593 0.8539195203628005
v 0.0464934469105008 -0.0059374225829967 0.0466681953836489
vn -1.6734961434832434 3.3308755634546419 -0.3269084883990417
v 0.0234728667192288 -0.0060946069403014 0.0217468889572969
vn 2.3644515494758527 -2.7843186054287226 -1.2356426041305699
v 0.0424500000000000 -0.0258787200000000 0.0185000000000000
vn 2.3719433932911569 -1.1157504874617523 -2.7064789427000404
v 0.0424500000000000 -0.0248787200000000 0.0175000000000000
vn 1.5623407652916002 1.7071352280233447 -1.7137268997447637
v 0.0424500000000000 -0.0058832196164899 0.0175091330310414
vn -2.5136217893794526 -2.7295535228866608 -0.5790267704237935
v 0.0286825031514848 -0.0258742880951902 0.0186333825221612
vn -2.0933449630692809 -3.6019837852010972 -0.5608058180358850
v 0.0300707969446915 -0.0225008308421220 0.0406861474531264
vn 0.4852478745854190 1.1666958104445990 -0.8557053984710326
v 0.0321076046176259 -0.0185865622060102 0.0536838777289048
vn 0.1859709667807727 -0.0182615140943199 0.0261269697527178
v 0.0267518229738010 -0.0159281925260566 0.0515846878785043
vn -0.2533255830857425 0.1358805846212533 0.0388012533587665
v 0.0421506450801918 -0.0184269414850382 0.0515418036017992
vn -1.7725042564546334 4.4697477488579356 1.0445782917998736
v 0.0209699660136717 -0.0259782463209608 0.0543006099146864
vn 4.1054704560194164 -0.6918386051841954 2.5903108248309166
v 0.0469139373972889 -0.0205661570412002 0.0498486389420673
vn -2.9709809471145703 3.9451023595060399 -0.4638593081273643
v 0.0233914855068257 -0.0059088110473872 0.0526005251977258
vn -4.7129622227841459 0.6171227017976206 1.5421436950864633
v 0.0209683211107350 -0.0141501841720993 0.0523102284542611
vn -2.1654296205688968 -3.2485354282846215 -1.1337709506066487
v 0.0234880748091768 -0.0256603608240686 0.0451014762223337
vn 2.1919690597373540 1.7296953464894063 -1.2466602989755124
v 0.0491232983851813 -0.0059147507419083 0.0540644720011465
vn 1.4853979602651981 -1.7442162710382823 1.8507502611927782
v 0.0450971549014930 -0.0258718146363081 0.0512122250445129
vn -2.6282049341327882 2.7932176059295193 -0.3118395396890733
v 0.0490000000000000 -0.0259787200000000 0.0594147108815696
vn -1.4370327184833267 1.1126206906712865 1.1255376679304545
v 0.0210131891160288 -0.0059982542647403 0.0594191812448711
vn 0.5300696952670142 2.9461944072851458 3.0799121167932189
v 0.0111386808168464 0.0170166908020654 0.1245888607618534
vn 0.0000000000000000 -0.0000000000000000 0.0000000000000000
v 0.0079403349764129 0.0020441536400923 0.1214712794894301
vn 0.3082294287431766 5.5898994319421753 0.9191918715604178
v 0.0453413907693440 0.0170212785207501 0.1054101964155019
vn -2.3687670993496921 4.5382616323270346 -0.2353538051121539
v 0.0477371518704291 0.0170206695964605 0.1087289558562397
vn 0.4979730889406502 5.3159178505532241 -1.2824753239835938
v 0.0455930814710340 0.0170211655250476 0.1107409010600616
vn 1.7529425650628303 1.1953845159841132 0.1128378097144438
v 0.0430056563274928 -0.0259244776301217 0.1081459061781100
vn 0.6277555115305162 -5.8201307169574417 -0.8306420877981111
v 0.0624226300000000 0.0140212800000000 0.0981101800000000
vn -1.4318029059707773 -5.4487847415377759 -1.0224440800850112
v 0.0224770600000000 0.0140212800000000 0.1096648100000000
vn 1.5074196428750855 -1.5101556259022890 1.5801660401314197
v 0.0050000000000000 0.0140212800000000 0.0080000000000000
vn 1.6060084365588798 1.5945827340335510 1.5702554644431927
v 0.0170000000000000 0.0140212800000000 0.0080000000000000
vn 1.2625211970920747 -5.6363735717189654 -0.8846769624642792
v 0.0767500000000000 0.0140212800000000 0.0472300000000000
vn -1.3754808397179128 -5.4605217669623425 -1.0808008249622529
v 0.0687500000000000 0.0140212800000000 0.0472300000000000
vn -0.5340820859626629 -5.8745808770507306 1.0059101160007689
v 0.0205000000000000 0.0140212800000000 0.0110310000000000
vn -0.9701780306253893 -5.9368171153475906 0.8507859804838058
v 0.0687500000000000 0.0140212800000000 0.0562300000000000
vn -1.2510942750613949 -1.4881714654013198 -1.1447916493490622
v 0.0770000000000000 0.0140212800000000 0.0590000000000000
vn -1.5715092596110924 -4.6920624256071131 -1.5694813245497847
v 0.0700000000000000 0.0140212800000000 0.0590000000000000
vn 1.5670643685473717 -1.5685232621211338 -1.5707115188087526
v 0.0800000000000000 0.0140212800000000 -0.0001190000000000
vn 4.7123889736068110 -1.5705901057792815 -1.5708038698528191
v 0.0800000000000000 0.0140212800000000 0.0170000000000000
vn -1.5707963267948961 -4.7123889803849259 -1.5707963267948966
v 0.0770000000000000 0.0140212800000000 0.0170000000000000
vn -0.5984637866803187 0.5957552001984648 -1.1369979067778351
v 0.0205000000000000 0.0140212800000000 0.0030310000000000
vn 1.5707957516772364 -1.5707963267823328 1.5707962568125557
v 0.0170000000000000 0.0140212800000000 0.0030000000000000
vn 1.5709204767686225 -4.7123889702538797 1.5705904471687009
v 0.0375000000000000 0.0140212800000000 0.0030000000000000
vn 2.4058409835414323 -4.1518934901935012 -1.3304516231383232
v 0.0375000000000000 0.0140212800000000 0.0013856200000000
vn -1.2057066496820219 -2.5015193615229459 -1.7056829959352384
v 0.0564353604800955 0.0138706323470008 0.1085780067535947
vn 1.1408053440859012 -1.3025694201953366 -1.5036794240016560
v 0.0500000000000000 0.0140212800000000 0.1103066500000000
vn -1.4399401634442339 -5.4456099982669484 -0.9941763352969454
v 0.0537770600000000 0.0140212800000000 0.1006109900000000
vn -2.6131147577885194 2.3177537408049949 -1.1739928047274357
v 0.0000009110777834 0.0170212777306112 0.0031517620843214
vn -0.9870687340072419 2.4913744876858668 -2.7933655515420348
v 0.0037310924943670 0.0170185172011502 -0.0000128707738787
vn 1.5666449388039483 1.5680070527112764 -1.5708717652889232
v 0.0799997589606201 0.0170212725700473 -0.0001197348623316
vn 0.1968704542812051 -0.1815069640829148 -6.2697351014526559
v 0.0330000000000000 0.0140212800000000 0.0000000000000000
vn 0.8107989024684187 -3.3986668982656458 -3.0077388276654378
v 0.0350705500000000 0.0140212800000000 0.0002725900000000
vn 1.4353857836170842 -3.3108302941569412 -2.7819991010045388
v 0.0370000000000000 0.0140212800000000 0.0010718000000000
vn -1.5707963267948966 -1.5707963267948966 1.5707963267948994
v 0.0770000000000000 0.0140212800000000 0.0680000000000000
vn -1.5707963267948963 -1.5707963267948966 -1.5707963267948970
v 0.0770000000000000 0.0140212800000000 0.0843585500000000
vn -1.5707730071008683 -4.7123889802917001 1.5707998814763582
v 0.0700000000000000 0.0140212800000000 0.0680000000000000
vn -1.5707963267948966 -4.7123889803846861 -1.5707963267948963
v 0.0700000000000000 0.0140212800000000 0.0843585500000000
vn 1.5707963267948966 -4.7123889803846897 -1.5707963267948966
v 0.0500000000000000 0.0140212800000000 0.1039099800000000
vn 0.6505097548445438 -5.5402368521135648 -1.5664578521831984
v 0.0311200561789174 0.0140209683134370 0.1071647444179387
vn -1.5706636307953505 -4.7123749156452668 -1.5706887563067793
v 0.0410000000000000 0.0140212800000000 0.1039099800000000
vn 1.4591359435306752 -5.4202840734624536 1.0248564771084010
v 0.0333455700000000 0.0140212800000000 0.1148489500000000
vn -2.0072718564951355 -1.8523714982679218 -1.5089367820571180
v 0.0410000000000000 0.0140212800000000 0.1129099800000000
vn -0.6687688891243693 -5.4963488483598963 1.6019647774575760
v 0.0247000000000000 0.0140212800000000 0.1173497600000000
vn 1.1343241287131356 -1.2892237742197619 -1.5089377457581095
v 0.0170000000000000 0.0140212800000000 0.1198522000000000
vn 1.6029283327393125 -4.6908779168222150 -1.5703500384220166
v 0.0170000000000000 0.0140212800000000 0.1168770100000000
vn -2.4617008472677733 -2.8765664518909975 -1.9066864129438759
v 0.0740800900000000 0.0140212800000000 0.1008636700000000
vn -1.9444758935337703 -2.9314760057491580 -2.4428286344247789
v 0.0719783177388819 0.0140212704536835 0.1029368950401201
vn -1.3160669131709954 -2.8836494890581350 -2.8311467859829240
v 0.0699972661409089 0.0140113696432292 0.1042033476299505
vn -2.1903089747330622 -1.6394155092887392 0.5473820378115837
v 0.0763112937259145 0.0140212800000000 0.0970086519062347
vn -2.3106159495784717 -4.2661429496259977 1.3843765130372327
v 0.0700000000000000 0.0140212800000000 0.0933585500000000
vn -1.0102526006841552 5.0825440673166087 -1.3809660787874936
v 0.0754477375138610 0.0170207362379063 0.0906979929479470
vn -1.2227394735385804 -1.7340051845264735 0.0767087584656676
v 0.0548749667459173 0.0072334053451499 0.1037938134147368
vn 0.5501439676874647 -6.1542892831217024 0.0514164479975642
v 0.0294709118829538 0.0140204338886841 0.0075967477296499
vn 0.0000000000000000 0.0000000000000000 0.0000000000000000
v 0.0294059678403394 0.0070616004220928 0.0083961159222227
vn -1.1031593539047264 -1.6615520584295509 0.1791145652710466
v 0.0235931221723412 0.0070956808377862 0.1130900508594056
vn 0.0000000000000000 -0.0000000000000000 0.0000000000000000
v 0.0727618148969393 0.0070106620134389 0.0561791867594321
vn -0.0239081081907007 -1.4023296365940296 -0.6590078088293730
v 0.0724160868319779 0.0071459471987663 0.0473235022834482
vn 1.2151434708504005 -4.8313090099697975 2.0971708947078578
v 0.0745374812594043 0.0121709671410141 0.0558835045074879
vn -0.2827070824338411 -0.9747021206734420 -0.1551478446951005
v 0.0208849582937396 0.0072155555001478 0.0058454670473855
vn 1.1487933585285766 -1.6953456539069163 -0.1314903147179400
v 0.0322441216570983 0.0071892515297214 0.1117001862726398
vn 0.9651358073624168 -0.7448670367969370 0.0863700480342802
v 0.0638229807303703 0.0073781258787300 0.1032803713541690
vn -0.0002619231180221 6.2831820346818699 0.0056622881379147
v 0.0073786681897413 0.0170206479516239 0.1196708311532109
vn -0.0001780563095828 6.2831848748582964 -0.0016113833988829
v 0.0060055118534724 0.0170212798070825 0.0042902469109623
vn -0.0002150566264316 6.2831840329416249 -0.0028144462328425
v 0.0109493837869350 0.0170212796356070 0.0027704907367958
vn -0.7796694847518624 5.1244260539566344 1.4839399719448807
v 0.0751734769803867 0.0170212790642795 0.0866112396514721
vn 1.4480741235972627 5.2776175932059246 -0.0979232882558299
v 0.0712111916827519 0.0170212799503881 0.0889663346496392
vn -2.8433639275311213 2.5419856060306958 0.9214256779631432
v 0.0000000000000000 0.0170212800000000 0.1198810000000000
vn 1.9146707736755784 2.6980905583511134 2.3947870428837201
v 0.0745358914214111 0.0170206915820008 0.1052197734644727
vn 2.7420007219839739 2.7373416414480940 1.3900414901924179
v 0.0780995876716640 0.0170208815289663 0.1007819432989324
vn 3.0935443552389055 2.9052330761045209 0.3838231717236458
v 0.0800000000000000 0.0170212797732415 0.0934741173134329
vn 3.0418512626123739 -2.7821474808351807 0.5512723053452226
v 0.0799915274301385 -0.0289787194445656 0.0956882935670232
vn -2.3972206884899649 -1.6624545421809509 2.9423686561817894
v 0.0026108563286840 -0.0155751057897512 0.1248331563272337
vn -1.1817636997622722 2.2110853794450072 2.5285328309742710
v 0.0037851503922425 0.0170111264541330 0.1249789081838881
vn 1.1433844272166120 2.9635161934603329 2.9130287867264717
v 0.0696756991432765 0.0170204399593659 0.1076205972660711
vn 1.2172568586420311 0.5087555015006300 -0.8230113972764168
v -0.0065381440148792 -0.0058271221671142 0.0097459176607184
vn 0.0785445236407178 -0.3871991562378794 -0.7092505946591311
v -0.0043084200678560 -0.0003794282278206 0.0122588906649292
vn -6.1439945144148336 -0.4859763379132450 -0.6617029012096201
v -0.0228610824039866 0.0004589324617515 0.0128867467292516
vn -2.3824287473696435 -0.4272008550402017 -4.9297171745956891
v -0.0191554577734955 -0.0017338324598450 0.0055149861921567
vn -2.4012870953152321 0.3121359102309826 -2.2963450337723916
v -0.0222951790601586 -0.0120460407052632 0.0032000552413155
vn -1.1478486324015247 -2.9012824062312896 -3.9159997935645436
v -0.0174714357736786 -0.0191664633974076 0.0039870012725784
vn -0.3648421001834907 2.8613606716851652 3.5712041887190358
v -0.0186658303988741 0.0111940326151072 0.0283483720291107
vn -0.8708320653521588 -0.2410949126768962 6.1409188652663147
v -0.0050016084804232 -0.0167579234943572 0.0312238676632167
vn -3.4497928055513229 1.0621631317351765 4.7377647886587138
v -0.0209770224382941 -0.0084459453866584 0.0285108389898667
vn -1.5666846135684163 1.5086836504372934 3.2403613978257906
v -0.0194237809556807 -0.0092549435565656 0.0313031057507806
vn -2.0772287751517262 0.8324620560100378 4.8465284643937796
v -0.0057915251904976 -0.0063078808910393 0.0283820836436815
vn -0.5430007722407426 -4.1243439943257663 2.9906991089596189
v -0.0121398604040417 -0.0223995054910056 0.0282426787575311
vn -2.8095401123957116 -0.9787198945278324 4.9142627452194931
v -0.0210904578164083 -0.0173840026183609 0.0286294563175138
vn 1.2744861409575741 -5.0932256458844982 -0.9857099113216751
v -0.0023608206155483 -0.0224800874044886 0.0086917557673462
vn -3.2429909236433909 -0.3108722776213070 -3.1195240129886739
v -0.0017964790606830 0.0028063480845137 0.0054827130276590
vn -2.6632365834694500 -1.1911220251348420 -2.3193441119330038
v -0.0229998009901495 0.0012718011513487 0.0055828231966902
vn -3.1257735878797144 3.1188023727351277 -0.0474784080311862
v -0.0229586354808317 0.0115167686996922 0.0105314195160088
vn -1.5657575426029973 1.6295827124353270 -1.6521115793079508
v -0.0228005359916577 0.0114651368187304 0.0055075581934444
vn -2.1592220033601297 -1.9154343006913355 1.1319704231976613
v -0.0229779600658962 -0.0223975498971792 0.0264270277012347
vn 2.4278051772712588 -3.0653432560224063 1.2915097865359568
v -0.0030777125708868 -0.0224475765670584 0.0701426801112371
vn -0.3661497435512137 6.2567790533072705 -0.0665645469699704
v -0.0034313964742338 0.0115184669735425 0.0696969134603903
vn -1.5898400594886002 -1.5852041868942828 1.5614424255838122
v -0.0229957323862151 -0.0224741313714921 0.0699000000000000
vn -3.1305668755306422 3.1063116536733961 -0.0743733186236834
v -0.0229662502590772 0.0115150876515034 0.0559797011342686
vn -0.1421321846531595 6.2781313743094307 -0.0920486625369795
v -0.0033191749716231 0.0115151678897723 0.0559803707996687
vn -0.0000000000000001 0.0000000000000000 -0.0000000000000002
v -0.0031244649850726 0.0000152714784189 0.0599413942021528
vn 5.3003689242365031 0.7225239825985450 0.6812780557897213
v -0.0028616770711748 -0.0161241648659110 0.0583551416888000
vn 0.0000000000000000 0.0000000000000000 0.0000000000000000
v -0.0018519415729970 0.0027379230564726 0.0675874231327052
vn 1.8910597313807662 -2.4080073489644893 3.7566388717856687
v -0.0043116384293385 -0.0188256704476400 0.0758115167444337
vn 0.2162951176229950 -1.0229773825432937 0.1097665262313768
v -0.0025585323199200 -0.0070008615421467 0.0170774853233136
vn -0.0000000000000000 -0.0000000000000000 0.0000000000000000
v -0.0018699106583867 -0.0041622712291879 0.0284848650698230
vn -3.4392389105877754 1.4705142855049786 3.4973758695495678
v -0.0031424429502422 0.0062864096011954 0.0284915615519497
vn -3.8419147056344851 1.2176156918239576 -0.0981547286988196
v -0.0017104672422666 -0.0082414237395117 0.0054449778619637
vn -0.0000000000000004 0.0000000000000002 -0.0000000000000002
v -0.0018297667604563 0.0021704579712770 0.0171497468380531
vn -0.0151582846679112 0.0003715822976590 -0.0121384037842873
v -0.0030116758564474 0.0114227505646952 0.0097349230448551
vn 0.9533052615635151 1.2687725524606259 -1.0424495294142522
v -0.0026585926754575 -0.0160501767950687 0.0267800207842065
vn 0.6633746437066248 -2.6830383296806475 0.6029584562626626
v -0.0001209750550691 -0.0128723978386625 0.0088392057286501
vn -0.5733421767911921 -2.4363043330511860 2.0364504590922441
v 0.0000017570032259 -0.0129804771025605 0.0302565019930833
vn -3.8460106839279606 1.6957448950206899 -2.8144255793862785
v 0.0000000000000000 0.0095212800000000 0.0043500000000000
vn 1.1076327302180744 -1.3213295661021196 -1.6012811665721414
v -0.0002702914783170 -0.0207434205811004 0.0030107027624050
vn 0.0000000000000000 0.0000000000000000 0.0000000000000000
v -0.0009421875000000 -0.0195411702343750 0.0171102107226562
vn 5.3944430391925779 -2.0819367129250894 0.2219054700421280
v -0.0000186962788327 -0.0204995663351289 0.0246864480220174
vn -0.9493687100453022 0.2157604003023381 -2.5973006698683831
v -0.0016744888321535 0.0059579192159458 0.0026628620930795
vn -0.1338905942232466 1.2671273560996241 1.2847291998939350
v -0.0015416268703730 0.0111357553255884 0.0314552279168338
vn 0.7133113527579333 3.5717240184079788 -2.2694442491880045
v -0.0024617534148035 0.0115311995068109 0.0059803838085862
vn -0.0000000000000004 -0.0000000000000000 -0.0000000000000000
v 0.0049999719803991 -0.0068874638098771 0.0165867754867768
vn 0.8516862168291128 -1.5699199735858065 -0.1290263287480903
v -0.0017916067471728 -0.0112611017696633 0.1056432638282898
vn 1.6818303518329305 -2.0757630571091408 1.8424526405090911
v -0.0013957784144705 -0.0220745305856706 0.1191740666210669
vn 1.1026313563095067 6.0045618645683900 -0.3972003453946346
v -0.0033152861133532 0.0115159900111945 0.1014363899389878
vn 0.8781277070351048 -6.1677525911066606 -0.5193302621963422
v -0.0029624272263079 -0.0220235369973074 0.0987185243338221
vn -0.5877654371048261 0.4554964622693735 1.7396770993148993
v -0.0018671915510697 -0.0041546907716275 0.1190792206880462
vn 0.8356364125400579 2.7546939416565972 -1.7556468547146449
v -0.0001137170978462 0.0099411225439850 0.0939302103835052
vn 0.6443208675818308 0.6953599058583853 1.5412770394649036
v -0.0000225332241270 0.0095422726484053 0.1217612698648833
vn -0.3671079822437202 -0.7096954312886909 4.1420185593434979
v -0.0016288585031569 -0.0139925000009337 0.1221845629201499
vn 1.7837633838495459 -1.6765384406957717 -1.7056520786723026
v -0.0008279636917975 -0.0214529338680294 0.0942133906910047
vn -3.7534099589644652 -1.8665389185881867 -2.3665703158075306
v -0.0001077142313970 -0.0128632858357680 0.0938189214750548
vn -0.0914833012471030 1.6708302348971154 -5.6112402736138991
v -0.0046000918400748 -0.0122783752727494 0.0964160451709112
vn -5.7468099976821447 0.8583090005138124 -2.0161376966487166
v -0.0018565695198344 -0.0046218399144621 0.0977724114415904
vn -0.0001729378798097 0.0827506301777415 0.1883400606890583
v -0.0028726182269409 -0.0022885083889723 0.1106598054614566
vn -0.2314717181591459 -0.3295535978231078 -0.7671813560707373
v -0.0020876209892478 0.0009300772286977 0.1042583232016289
vn -0.0685474239726354 0.1779546347628188 0.0263179568413432
v -0.0109125041782830 -0.0027737311783507 0.0767585767500556
vn -1.2861466443005218 2.2637056265781137 4.0788360299462303
v -0.0184545216100025 0.0101066319696506 0.0739615677642741
vn 0.9722028917882173 -3.8461530116273153 -2.4900656290178738
v -0.0050479353695486 -0.0224604937009910 0.0521072614314160
vn -1.7526694622533014 -1.6728996678755543 -1.5595287479985558
v -0.0229200273401431 -0.0223881680762360 0.0518269457922262
vn -0.3050924706665531 0.4698180165029289 -5.8881911096681128
v -0.0059118594618925 -0.0106685129598317 0.0486657002792720
vn -3.2574017925354557 -0.3752454159792394 -3.2793189301336811
v -0.0217273948058234 -0.0004093739892655 0.0510688858578840
vn 0.0935435496669768 0.1610175144504613 -0.6372662126483741
v -0.0055983703808664 -0.0062192848136073 0.0573652254785531
vn -6.2823263178224273 0.0056916946403606 0.0163815638203568
v -0.0230000000000000 0.0105212800000000 0.0244500000000000
vn -2.0743839660194845 1.9409143223486975 1.4794719646537049
v -0.0229889456385372 0.0115139700866349 0.0269068629165976
vn -0.1169719595100319 5.6436844452142338 1.4226197493682038
v -0.0034248278060173 0.0115149951180201 0.0245753398384665
vn -2.8268293685469996 -2.7748472034486245 -0.7237249722100927
v -0.0229933333624683 -0.0224566214181848 0.0133657601471933
vn -3.0731057842571752 -3.4212107796931210 -0.1949546156544386
v -0.0225388966078632 -0.0224748883810029 0.0244746898002657
vn -6.1403510946089979 -0.4745363882112471 -0.6655105035162410
v -0.0229992524338153 0.0010878526198938 0.0585532266843201
vn -1.3591004727644906 0.4119908501439781 -1.4620045711875067
v -0.0194806519147024 -0.0074184936012256 0.0580557774642996
vn -0.3196318383810689 -0.1166533224148840 -6.1061185342402853
v -0.0057876617036255 0.0015037937984181 0.0509926352266328
vn -1.5144807498447161 0.3584165399047478 -0.6584950552654428
v -0.0049757149998885 0.0093098354101804 0.0486579183557982
vn -1.5753004898058598 1.5344886840749661 -1.6205860047318481
v -0.0228070183606405 0.0114649777904342 0.0509907823454941
vn 0.6850290491453329 -0.2622409047699410 -0.8180743188676134
v -0.0029021456785960 0.0113468700339093 0.0509554691268099
vn -2.5376970982755993 2.3282829821700810 1.2056428678605098
v -0.0229863971911296 0.0115068923229164 0.0699893039924311
vn 0.6780376805436101 3.3685846601369831 2.1618476877216821
v -0.0023042957413472 0.0116678213360493 0.0739570813826369
vn -0.5937932016931748 -0.4229152317439709 0.0161613405587774
v -0.0229225454368258 -0.0222168251441880 0.0737656258017470
vn -1.9086874746423192 0.2938145909313039 5.5495941729129257
v -0.0038478784921157 0.0062214553286188 0.0738014076869171
vn -0.7610508650991730 -0.9358700463493366 2.2965800351707459
v -0.0174649004890429 -0.0208844870391223 0.0767273063154216
vn 0.6509380713273873 -6.1963999252370492 0.1086597500651994
v -0.0034898495163099 -0.0224765044704281 0.1153765500625537
vn -0.2722679530654882 6.2723481677556538 -0.0184097468528386
v -0.0034628668952665 0.0115201243912146 0.1153945035522602
vn -1.6296565287548668 1.6260159838673265 1.5665810130106383
v -0.0229949625597553 0.0115121519031215 0.1153500000000000
vn -2.7537951022181648 -1.0826907429857351 2.4272306154093708
v -0.0230000000000000 -0.0214787200000000 0.1153500000000000
vn -2.2218424467171030 -5.2680737335265668 0.3898470368413467
v -0.0220004226197142 -0.0224757160935370 0.1153630771901730
vn -3.0807939786256244 -3.1067404444737639 -0.1488102810856785
v -0.0229780154410800 -0.0224662151661632 0.1014260268690681
vn 0.9744167157651117 0.3255675179891490 -0.9652593097421359
v -0.0063659852193094 -0.0043477745672027 0.1034356069526426
vn -1.2491510423283505 -1.8519393370755131 2.3864812487279901
v -0.0215791554711447 -0.0221576463813835 0.1191695461192558
vn -1.6115952862429272 1.5090486707173523 -1.5994557847698503
v -0.0228461676840004 0.0114452465138273 0.0964073160963999
vn -0.6278559245559869 2.8301205878880387 2.8381934963083575
v -0.0181716482629514 0.0113044797909154 0.1193697899419687
vn 2.6853801336370839 1.1335539765333222 -2.3781669981634459
v 0.0049480460505029 -0.0138466920092129 0.1168705309467562
vn -0.7934176872716174 -2.1543229391375611 -5.2889851737948561
v -0.0054907951549987 -0.0185457653628590 0.0041413394986055
vn 1.1778499535006361 -1.8444681010934707 1.9804758088020944
v -0.0017502109728215 -0.0223272253615447 0.0314192758680199
vn -1.7702062625906059 1.1615751217128474 2.3570673547199368
v 0.0000000000000000 0.0095212800000000 0.0303000000000000
vn 0.2191461246201945 -6.2738403162257459 0.0502974097107255
v -0.0031927783076379 -0.0224688670864372 0.0244942371921869
vn -5.9661746136161362 -0.7082226524516737 -0.1545755706224456
v 0.0000000000000000 0.0098499357089472 0.0849543382789189
vn -3.3446710742192325 1.2417893692600839 -2.3358513343249672
v 0.0000000000000000 0.0095212800000000 0.0491500000000000
vn -4.7159449377902272 1.5643774471359935 -1.5699585777241190
v 0.0000000000000000 -0.0069787200000000 0.0432000000000000
vn -4.6189008790865671 0.9550964258731631 1.7746968681823643
v 0.0000103580634692 -0.0069777974395925 0.0361973535314516
vn -4.9270669341036237 1.2694749555611955 -1.5989850962496919
v 0.0000155086616477 -0.0069745821079127 0.0886578328483044
vn -4.7095573641445521 1.5293847174117183 1.5853233463495449
v 0.0000000000000000 -0.0069759521950763 0.0816473382864261
vn -5.1076446431517004 -1.2771493042751658 -1.6720897897626954
v 0.0000000000000000 0.0090766615849004 0.0431450076354875
vn 0.0000000000000000 0.0000000000000000 0.0000000000000000
v 0.0049996173959169 0.0020312068306749 0.0560916707499278
vn 0.0000000000000000 -0.0000000000000000 -0.0000000000000000
v 0.0029664062500000 -0.0039725444824219 0.0625948467773438
vn 1.3883803793164582 -1.4073892161572810 -2.9212156517736911
v -0.0013005093924425 -0.0170018275843775 0.0481184175430289
vn -5.3577479413598725 0.9956274605233796 1.7129644609048635
v -0.0000176816492359 0.0095565504376989 0.0763700164462962
vn 0.3749479225126144 2.7083532561629706 -1.8671803444816788
v -0.0020000000000000 0.0115212800000000 0.0491500000000000
vn -2.6918624516515566 -2.9000906220709455 2.4737824608971271
v -0.0000347478791399 -0.0129453130623780 0.0763539260935564
vn -0.2154841611635979 -2.6559190642954658 -1.9399700104823070
v 0.0000029343410480 -0.0129813478797814 0.0492575615477552
vn 3.9219589941740107 -2.2103457616171940 -0.1306921235544463
v -0.0006406097073157 -0.0213261589892392 0.0598137527567227
vn -2.4930166564076730 0.3872554679103297 1.8501530103352699
v -0.0020525218304543 -0.0073691649978223 0.0739350720416147
vn 0.1071408394555682 -1.4636923432328794 0.1516546405064028
v -0.0013310570652538 -0.0089251600222967 0.0632157999751337
vn -2.5046215698580374 -0.1668410572746086 4.1039282865709703
v -0.0019849978329128 -0.0007601223632096 0.0766505627225549
vn -4.2482954994374138 -0.2764433380634467 -0.0745206002647143
v -0.0017360218196761 -0.0033851494876150 0.0499351396080502
vn 0.0076544021028475 0.0064945390996612 -0.0021948489000531
v 0.0363920601644717 0.0076756284911648 0.1173658588812288
vn 0.0000000000000000 0.0000000000000000 0.0000000000000000
v 0.0359275871064394 0.0018220520676704 0.1183566184848263
vn 1.6550018771922390 1.4062244729020941 5.6823258862375123
v 0.0184471824208827 -0.0003477566779414 0.1225782616841137
vn 0.6966220651165003 -0.8695124755567918 2.3586112571330071
v 0.0185614097460531 -0.0037309486517700 0.1251260178541457
vn 0.0000000000000000 0.0000000000000000 0.0000000000000000
v 0.0258873884258656 0.0038032631395837 0.1221924432750730
vn 0.0000000000000000 0.0000000000000000 0.0000000000000000
v 0.0260658857351837 -0.0041127741104717 0.1229552854498761
vn 1.8972047816747559 -0.0232004551572386 5.9737595755197574
v 0.0251202888859240 -0.0034127417146913 0.1206263168715356
vn 1.2951351789963521 -2.0853276670840706 2.6340492002745135
v 0.0616370248646369 -0.0289786105623576 0.1100632100440093
vn 0.2174491912776663 -2.0185404060098122 2.7384338961499606
v 0.0664031568103883 -0.0289749678987642 0.1089234505127234
vn 1.3834315077590051 1.4340764434613971 -0.9642698305337126
v 0.0586830399232285 -0.0209899565143401 0.1084212261706903
vn 0.7038455050054873 -0.0648891687638027 6.1781142032859400
v 0.0100000011392325 -0.0046547199999316 0.1249999999999718
vn -0.6240006190535401 -2.4711576738034546 2.2892649499095321
v 0.0159997651555979 -0.0289786559002177 0.1233826375966344
vn 0.0662355805381360 -0.0368432004671937 -0.0219783420756955
v 0.0413075859661471 -0.0046547199991604 0.1159439990917590
vn 0.0008536592909675 0.0005581932131866 -0.0002462147069169
v 0.0607276135937500 0.0109645573437500 0.1103265778906250
vn -1.7458954492211238 -0.0000117078955450 -6.0357490574304702
v 0.0284001528070203 0.0104217574685570 0.1165546187503232
vn 0.0000000000000000 0.0000000000000000 6.2831853071795862
v 0.0246909942578125 0.0120791313671875 0.0030000000000000
vn 0.0010708063324529 -0.0039011514732028 -6.2831832395119127
v 0.0250179649968764 0.0115334244987302 0.0000000374041996
vn -1.7050673561491707 -1.6196775373645307 -0.4572630927630666
v 0.0049279148545281 0.0101742324834688 0.0405649037656215
vn 4.6094976070995450 1.3780125120652786 -2.0463988107107274
v 0.0050000000000000 -0.0069787200000000 0.0432000000000000
vn 4.7034219562649291 1.5866033337462140 1.5673198141658680
v 0.0050000000000000 -0.0069787200000000 0.0816500000000000
vn -0.5459722060500845 -0.7755102342557172 0.4782494811239922
v 0.0049999765216251 0.0083688877465029 0.0815004787182850
vn 0.0000000000000000 0.0000000000000000 0.0000000000000000
v 0.0084039700208490 0.0021526216156267 0.0044475427287265
vn 3.3344949900179550 -0.1178511503866039 -2.9067193622968714
v 0.0043748913776045 0.0053648766150150 0.1163701075322121
vn 1.5106258294713351 -1.5405535396363934 -1.5910499381595975
v 0.0050000000000000 0.0140212800000000 0.1168770100000000
vn 2.6848507141835478 4.2488491035205769 -0.7830260812921864
v 0.0170000000000000 -0.0259787200000000 0.1168770100000000
vn 1.1343228244735719 1.2892229809750542 -1.5089373684959586
v 0.0170000000000000 -0.0259787200000000 0.1198522000000000
vn 2.6815161805520513 4.2523133071971602 0.7853931025443156
v 0.0170000000000000 -0.0259787200000000 0.0080000000000000
vn 1.5707963267948968 1.5707963267948961 1.5707963267948963
v 0.0170000000000000 -0.0259787200000000 0.0030000000000000
vn -2.0072611167696075 1.8523708149801497 -1.5089263716768013
v 0.0410000000000000 -0.0259787200000000 0.1129099800000000
vn 1.5707963267948959 4.7123889803846897 1.5707963267948966
v 0.0375000000000000 -0.0259787200000000 0.0030000000000000
vn 5.2753366663476378 2.5987581135363236 0.1216846864074154
v 0.0049999568641938 -0.0139786717964235 0.0361880627448930
vn 3.3632646580783900 -0.1043005653967501 2.9301497831410384
v 0.0045312500000000 0.0051207485937500 0.0085584202343750
vn -0.0000000000000000 -0.0000000000000004 -0.0000000000000002
v 0.0050000000000000 -0.0065016075781250 0.0623894172656250
vn 6.2831852922893328 0.0002038752307093 -0.0001739790591418
v 0.0049999244021835 0.0083843035092270 0.1079807111384236
vn 0.0000000000000000 0.0000000000000001 0.0000000000000000
v 0.0049997497106332 -0.0042131015964750 0.1083486972010745
vn 2.6795336442682842 1.1366731765371432 2.3806089134457427
v 0.0050000000000000 -0.0139787200000000 0.0080000000000000
vn 4.9275954423937742 1.1594290551744972 -1.5070226923132222
v 0.0050000000000000 -0.0069485869486642 0.0886689966897128
vn -0.0000000000000002 0.0000000000000001 -0.0000000000000002
v 0.0049989051001438 0.0022010726228050 0.1139785068468885
vn 0.0000000000000000 0.0000000000000000 0.0000000000000000
v 0.0045312500000000 0.0020678839062500 0.0109372837500000
vn -0.0000000000000001 0.0000000000000003 -0.0000000000000004
v -0.0004659835906657 0.0054565824317684 0.0568859825394485
vn 0.0000000000000000 0.0000000000000000 0.0000000000000000
v 0.0049985156973972 0.0076886997296023 0.0628161107898191
vn 0.0000000000000004 -0.0000000000000000 -0.0000000000000001
v 0.0049998630650236 0.0085360490623181 0.0169063211401671
vn -1.1103695704221999 -2.6808404476096070 -2.3563577160755051
v 0.0160000000000000 -0.0289787200000000 0.0000000000000000
vn -2.6454322027388706 -1.3756003823407355 -2.6883035295899305
v 0.0019176831897637 -0.0148948203383085 0.0000141759846391
vn -0.1315081323176716 -2.1566070318319319 3.6658528542437172
v 0.0000428266071693 -0.0130143763196733 0.1210525992994880
vn -1.5707623757985307 4.7123495471137762 -1.5707776639605595
v 0.0410000000000000 -0.0259787200000000 0.1039099800000000
vn 3.9812286114599607 0.2241618859504992 -3.8268309828238749
v 0.0375000000000000 -0.0259787200000000 0.0013856200000000
vn -1.5707548861801628 1.5707448839523122 -1.5707862383181972
v 0.0490000000000000 -0.0259787200000000 0.1039099800000000
vn 1.5708750356323664 4.7123425438890489 -1.5709499526449109
v 0.0410000000000000 -0.0259787200000000 0.0530000000000000
vn -1.4666581068754909 0.9860289574830085 -1.4358234824019684
v 0.0491116600000000 -0.0220236418664146 0.0547633649732939
vn -2.0477279962112211 2.2497399460252536 -1.4163666443987213
v 0.0700000000000000 -0.0259787200000000 0.1032767600000000
vn -1.5704725507740607 1.5693967224705834 1.5708045879748727
v 0.0700000000000000 -0.0259787200000000 0.0552267600000000
vn 2.5283471893624103 2.8560330231091480 -0.9041362040416706
v 0.0510000000000000 -0.0259787200000000 0.1032767600000000
vn -1.5707963267948961 4.7123889803846897 1.5707963267948966
v 0.0533223500000000 -0.0259787200000000 0.0552267600000000
vn 2.5809397751472409 2.6101320893276032 1.1458841444469274
v 0.0510000000000000 -0.0259787200000000 0.0547169400000000
vn -1.8027462976970836 4.7876197950683972 -1.3947337969222247
v 0.0533223500000000 -0.0259787200000000 0.0532267600000000
vn 1.5707963267948961 1.5707963267948966 -1.5707963267948966
v 0.0720000000000000 -0.0259787200000000 0.0590000000000000
vn -1.5707963267948954 1.5707963267948966 -1.5707963267948970
v 0.0770000000000000 -0.0259787200000000 0.0590000000000000
vn 1.5707963267948966 4.7123889803846888 -1.5707963267948966
v 0.0720000000000000 -0.0259787200000000 0.0532267600000000
vn -1.5897749796510179 1.5497907683481602 -4.7120021950705162
v 0.0770000000000000 -0.0259787200000000 0.0530000000000000
vn 2.8194588076312637 2.5556203623544826 -0.9496386105499897
v 0.0409968465006896 -0.0259787200000000 0.0055562266023929
vn 1.4970849025891142 1.5458106696806082 -1.5482415540377994
v 0.0510000000000000 -0.0219787200000000 0.0547169400000000
vn 1.5707244114572489 1.5850169191213721 -1.5840234989504789
v 0.0491116600000000 -0.0219787200000000 0.0945959100000000
vn 4.7123595089638464 1.5723716721206431 -1.5699952043756455
v 0.0510000000000000 -0.0219787200000000 0.0945959100000000
vn 2.1731720056941062 -2.0199784558999108 1.4486780199381850
v 0.0800000000000000 -0.0169881393095122 0.0509656923709629
vn 1.5710888089293449 -1.5707962599632082 -1.5712545177599591
v 0.0800000000000000 -0.0169787200000000 0.0170000000000000
vn -1.5710888458276084 -1.5707962595904303 -1.5712558146104434
v 0.0770000000000000 -0.0169787200000000 0.0170000000000000
vn -1.8257707190652086 -1.5015555094060100 -0.5293754309087497
v 0.0770000000000000 -0.0169889810893475 0.0520783638236442
vn 1.5719962999517461 -1.5751378782900769 -1.5706188348220802
v 0.0800000000000000 -0.0289787200000000 0.0530000000000000
vn 6.2827585421117718 -0.0100424942414963 -0.0002225494160270
v 0.0800000000000000 0.0109289592210627 0.0527768449190932
vn 1.5707942878172694 -4.7123425719149665 -1.5708553914709484
v 0.0410000000000000 -0.0289787200000000 0.0530000000000000
vn 2.6446243598057761 -2.2991967947631915 -1.1416416055718202
v 0.0409977819718210 -0.0289787200569113 0.0052060956470621
vn 0.7855580388673000 -2.6880899808110530 -2.9244559562888743
v 0.0343320781473348 -0.0289787495869425 0.0000059100504616
vn 2.6758103746491146 -2.8058175297354233 1.5590664826520517
v 0.0780492900000000 -0.0289787200000000 0.1008728400000000
vn 1.8504604959506743 -2.6978447037855782 2.4414514714845024
v 0.0743059324058232 -0.0289787200000000 0.1053362993288114
vn -6.2831853071795871 0.0000000000000000 0.0000000000000000
v 0.0770000000000000 0.0103987928906250 0.0523902235156250
vn -2.3308861089798509 2.7817778196650553 0.7934944263848722
v 0.0661118656212365 -0.0253940545081641 0.1056265721658190
vn 3.8740132177968087 2.8426534810037514 -0.7021199905848089
v 0.0510000000000000 -0.0252363641091808 0.1043316015511243
vn -3.4291771381283747 0.9341656179830543 -2.8946837324598320
v 0.0700004514977861 -0.0239787200160835 0.1041814626476003
vn 0.2613081218785213 1.8520637181585340 -4.5289278527985113
v 0.0510000000000000 -0.0049787200000000 0.1100174000000000
vn 1.0810522079578992 1.3329128463249180 -1.3240885023834812
v 0.0510000000000000 -0.0259787200000000 0.1100174000000000
vn 1.7633064274084165 1.6326708087977644 -1.6190393628668036
v 0.0509929698968221 -0.0051220315963091 0.0947031854505826
vn 0.0000000000000000 0.0000000000000000 0.0000000000000000
v 0.0627822144151084 -0.0228110558680116 0.1192343432934478
vn -0.1973065079226002 -0.2952183351915491 -0.0123364687601473
v 0.0401134402548612 -0.0116749773561552 0.0523812314083247
vn 0.0000000000000000 0.0000000000000000 0.0000000000000000
v 0.0262948864257813 -0.0188544608398438 0.0586406250000000
vn -0.0000000000000000 0.0000000000000000 0.0000000000000000
v 0.0349457551562500 -0.0223330231250000 0.0582500000000000
vn 1.5869410549775069 1.6134327011938290 1.6564280377906950
v 0.0489330303380317 -0.0060022135803348 0.0594000904785118
vn -0.8320044056304504 1.0492687693920755 1.2490425271740015
v 0.0468840830709287 -0.0259657661095653 0.1060265747621804
vn -0.6235543093299958 1.0953520576021003 -1.4438499073669242
v 0.0463952412217476 -0.0259787200000000 0.1106642310716141
vn -1.8051049092084535 1.5539183122347731 -4.5830375630938880
v 0.0490000000000000 -0.0051516632662870 0.1039092979242075
vn 1.4509559330248314 4.6771943652343673 -1.8253310143582864
v 0.0500000000000000 -0.0049787200000000 0.1039099800000000
vn 1.1343351608146874 1.2892308616263373 -1.5089409368373354
v 0.0500000000000000 -0.0049787200000000 0.1103066500000000
vn 2.9057403018552241 0.6327755016005370 -3.9623844284600453
v 0.0720000000000000 -0.0049787200000000 0.0590000000000000
vn 1.5707963267948966 1.5707963267948966 1.5707963267948966
v 0.0720000000000000 -0.0259787200000000 0.0680000000000000
vn -1.5707963267948963 1.5707963267948966 1.5707963267948970
v 0.0770000000000000 -0.0259787200000000 0.0680000000000000
vn 1.5707963267948966 1.5707963267948966 4.7123889803846897
v 0.0720000000000000 -0.0049787200000000 0.0680000000000000
vn -4.7123889802604371 1.5707754379522589 1.5708117780774833
v 0.0700000000000000 -0.0049787200000000 0.0680000000000000
vn -1.5707963267948966 1.5707963267948966 -1.5707963267948970
v 0.0770000000000000 -0.0259787200000000 0.0843585500000000
vn 1.5707963267948966 1.5707963267948966 -1.5707963267948966
v 0.0720000000000000 -0.0259787200000000 0.0843585500000000
vn 1.5707963267948966 1.5707963267948968 -4.7123889803846897
v 0.0720000000000000 -0.0049787200000000 0.0843585500000000
vn -4.7123889794976890 1.5707216729987832 -1.5707963267948966
v 0.0700000000000000 -0.0049787200000000 0.0843585500000000
vn 0.5076039932342774 0.8271393864678913 1.1561022705699517
v 0.0720000000000000 -0.0259787200000000 0.0933585500000000
vn -0.5213988616696982 1.5655820192998133 3.9365915537152376
v 0.0720040984295628 -0.0049634539875434 0.0933585499946935
vn -4.7227814659640437 1.5706865291217413 1.5651338098526824
v 0.0700000000000000 -0.0049787200000000 0.0933585500000000
vn 0.1078116561417687 0.9985430164432161 1.3533094803291201
v 0.0742544228460444 -0.0259786091914682 0.0862035458950494
vn 0.7805341627268181 0.8352059104653526 -0.8862632345798150
v 0.0723464538605712 -0.0258848291983117 0.0912073539693302
vn -2.2414556713754745 1.5279155170270500 -0.6373570363974477
v 0.0761676500419401 -0.0257209656341825 0.0892853832877799
vn -1.3701262387151778 1.5273780697865136 -1.4666337470258255
v 0.0490000000000000 -0.0049787200000000 0.0945959100000000
vn 2.1895528807557159 0.2452678481861195 -3.4347007171715211
v 0.0540059964575447 -0.0049877702978015 0.1091478921302999
vn 0.7032790395618971 0.9907833155025538 -1.3096722164168273
v 0.0700000000000000 -0.0049787200000000 0.1042148200000000
vn 2.4302930876879065 2.1504203707588263 1.3158179369915808
v 0.0719999500000000 -0.0049787200000000 0.1029079000000000
vn -2.4487378595890004 2.8903973131053853 -1.9283195694636672
v 0.0740800900000000 -0.0259787200000000 0.1008636700000000
vn -2.4095879414005195 1.7744210095066959 0.3464495595649104
v 0.0762456097343870 -0.0259787200000000 0.0972629623568427
vn -1.7252943278052215 4.3435551709588527 0.9118408043178764
v 0.0700000000000000 -0.0049787200000000 0.0552706626328408
vn 0.4681651102769855 0.7924416646638373 -1.1185685567304617
v 0.0719999994906378 -0.0259787205680708 0.1029137891209491
vn 1.5707963267948961 1.5707963267948968 -1.5707963267948966
v 0.0720000000000000 -0.0049787200000000 0.0532267600000000
vn -1.5707963267948961 1.5707963267948966 -1.5707963267948966
v 0.0533223500000000 -0.0049787200000000 0.0532267600000000
vn -1.5731644960870448 1.5715480058895430 1.5707939955171528
v 0.0533223500000000 -0.0049787200000000 0.0552267600000000
vn 3.2157497008358611 -0.3447212767530190 3.6887238147471768
v 0.0540099802554550 -0.0049805156436630 0.1122681776876775
vn -1.7383982644407430 -0.6363628669753991 5.4769698818850117
v -0.0039645113184533 -0.0161978686679222 0.1192166701397584
vn 0.0000000000000000 0.0000000000000000 0.0000000000000000
v -0.0049813208925053 0.0094937596031640 0.1201019704104843
vn -1.7011810069417448 1.9672653952007328 4.4043549352622620
v -0.0225744789141765 0.0110952654614594 0.1153798701568677
vn -2.3335232817960532 1.8893090655985987 1.1410122671849405
v -0.0229986798404013 0.0110113544025434 0.1173000042501402
vn 0.6990919174752275 3.1411260342118577 2.2562868548676898
v -0.0023026089493494 0.0116200094618028 0.1194980585614129
vn -2.6322411931395910 -1.1155992615663337 -1.8263821726479430
v -0.0230000000000000 -0.0214787200000000 0.1154000000000000
vn -2.2453715149760098 -0.3865964309543989 2.9622711359204552
v -0.0229986093206006 -0.0158225626567079 0.1193974141586748
vn 0.3029672709074703 -0.3872376171968129 5.4367920778419743
v -0.0203153254077148 -0.0178855034814453 0.1181034188623047
vn -2.4920074619882819 0.0333916394102501 5.0416009020510835
v -0.0021249298537318 0.0062610327933481 0.1193871311140140
vn -6.1125014399903739 -0.2813702023142745 -0.7400075517327336
v -0.0229877291364163 0.0012148151613017 0.1037495923975191
vn 0.1212487438646588 1.1680750792616397 -0.5271754262916963
v -0.0105572190848656 -0.0077104349528498 0.0936115000130851
vn -2.5071279447029520 -0.9993052138531114 -4.5406653540430417
v -0.0019826714830834 0.0022626883109529 0.0963775769822112
vn -3.1267989478264915 3.1368928407300700 -0.0589905985176854
v -0.0229329407618722 0.0115173740185279 0.1014218510949565
vn 1.6402653506478617 -5.8014322390562683 -0.2467383029775013
v -0.0036117636717548 -0.0224757618513834 0.1015189979349473
vn -0.0188772746412553 -3.5819554705049907 3.1708156247990438
v -0.0119959760465045 -0.0223863437948406 0.1190565034653150
vn -1.5980598807747810 0.7006051369926989 1.5463878597911442
v -0.0191515676476311 -0.0103878670997158 0.1222120864386904
vn 0.1634349569115704 0.3686822576831804 -0.0725430075603882
v -0.0152371803970821 -0.0044579494614410 0.1193227230223163
vn 0.0169020457239573 -0.0619035763362309 6.2810201262398513
v -0.0046078767599355 0.0063615038962569 0.1193999498869439
vn -0.1227488564916203 -2.8410993434479974 -3.5322078479377077
v -0.0056050962384625 -0.0214947680391918 0.0941083007303335
vn -1.8419650267182399 -1.7284651800469881 -1.7232763022508624
v -0.0227841425260405 -0.0221685725747261 0.0965847937292540
vn -2.1461789358396768 0.7305507461497742 -5.4850323868529278
v -0.0195483869559958 -0.0095253650598052 0.0960782504714699
vn -4.2361075789636065 1.1957868706179542 -2.6833142646497383
v -0.0229234170956864 -0.0089613715434326 0.0983962787412293
vn -0.2209131885535809 -0.1863405411676695 -0.1188440432816609
v -0.0194740297817530 0.0002838550438469 0.1031984644541328
# 375 vertices, 0 vertices normals

f 2//2 4//4 3//3
f 3//3 4//4 1//1
f 1//1 4//4 2//2
f 1//1 2//2 3//3
f 5//5 16//16 20//20
f 16//16 19//19 20//20
f 7//7 6//6 31//31
f 7//7 32//32 6//6
f 32//32 8//8 6//6
f 9//9 6//6 8//8
f 11//11 10//10 19//19
f 20//20 27//27 10//10
f 27//27 19//19 10//10
f 10//10 11//11 9//9
f 20//20 10//10 8//8
f 10//10 9//9 8//8
f 14//14 25//25 13//13
f 13//13 12//12 14//14
f 27//27 12//12 15//15
f 23//23 40//40 32//32
f 5//5 20//20 40//40
f 40//40 20//20 8//8
f 19//19 18//18 11//11
f 31//31 6//6 17//17
f 6//6 11//11 17//17
f 17//17 11//11 18//18
f 38//38 16//16 5//5
f 5//5 40//40 39//39
f 6//6 9//9 11//11
f 32//32 40//40 8//8
f 5//5 16//16 38//38
f 21//21 22//22 38//38
f 19//19 27//27 20//20
f 37//37 14//14 26//26
f 12//12 26//26 14//14
f 37//37 42//42 25//25
f 37//37 25//25 14//14
f 15//15 25//25 24//24
f 15//15 24//24 21//21
f 42//42 24//24 25//25
f 25//25 15//15 12//12
f 13//13 25//25 12//12
f 15//15 21//21 26//26
f 37//37 26//26 21//21
f 26//26 12//12 15//15
f 15//15 12//12 27//27
f 35//35 317//317 34//34
f 38//38 23//23 34//34
f 35//35 34//34 33//33
f 42//42 28//28 24//24
f 28//28 29//29 24//24
f 29//29 30//30 24//24
f 30//30 21//21 24//24
f 7//7 23//23 32//32
f 31//31 28//28 7//7
f 28//28 42//42 7//7
f 42//42 23//23 7//7
f 38//38 21//21 16//16
f 21//21 30//30 16//16
f 30//30 19//19 16//16
f 30//30 18//18 19//19
f 30//30 29//29 18//18
f 29//29 17//17 18//18
f 29//29 28//28 17//17
f 28//28 31//31 17//17
f 38//38 22//22 21//21
f 34//34 317//317 33//33
f 33//33 317//317 35//35
f 34//34 23//23 38//38
f 37//37 36//36 42//42
f 42//42 36//36 40//40
f 36//36 39//39 40//40
f 38//38 39//39 36//36
f 38//38 16//16 5//5
f 42//42 40//40 23//23
f 5//5 39//39 38//38
f 38//38 41//41 21//21
f 21//21 41//41 37//37
f 41//41 36//36 37//37
f 320//320 41//41 38//38
f 320//320 43//43 41//41
f 41//41 43//43 36//36
f 36//36 44//44 38//38
f 38//38 44//44 320//320
f 49//49 50//50 47//47
f 68//68 104//104 51//51
f 257//257 53//53 52//52
f 55//55 56//56 96//96
f 96//96 56//56 57//57
f 56//56 58//58 57//57
f 59//59 60//60 58//58
f 61//61 62//62 63//63
f 58//58 101//101 59//59
f 101//101 55//55 59//59
f 59//59 55//55 63//63
f 53//53 54//54 64//64
f 54//54 65//65 64//64
f 64//64 65//65 96//96
f 65//65 66//66 96//96
f 96//96 66//66 55//55
f 66//66 67//67 55//55
f 55//55 67//67 63//63
f 68//68 69//69 70//70
f 72//72 73//73 74//74
f 73//73 61//61 74//74
f 74//74 61//61 75//75
f 61//61 63//63 75//75
f 75//75 63//63 76//76
f 63//63 67//67 76//76
f 77//77 78//78 79//79
f 78//78 80//80 79//79
f 79//79 80//80 81//81
f 82//82 83//83 84//84
f 83//83 85//85 84//84
f 84//84 85//85 86//86
f 85//85 87//87 86//86
f 86//86 87//87 52//52
f 87//87 88//88 52//52
f 52//52 88//88 257//257
f 64//64 57//57 53//53
f 57//57 58//58 53//53
f 53//53 58//58 52//52
f 58//58 60//60 52//52
f 52//52 60//60 82//82
f 60//60 79//79 82//82
f 82//82 79//79 83//83
f 79//79 81//81 83//83
f 89//89 90//90 51//51
f 90//90 91//91 51//51
f 51//51 91//91 68//68
f 336//336 92//92 93//93
f 92//92 89//89 93//93
f 89//89 51//51 93//93
f 93//93 51//51 80//80
f 51//51 70//70 80//80
f 80//80 70//70 81//81
f 70//70 69//69 81//81
f 108//108 340//340 94//94
f 339//339 109//109 94//94
f 96//96 102//102 97//97
f 82//82 103//103 98//98
f 102//102 96//96 57//57
f 102//102 57//57 64//64
f 97//97 102//102 96//96
f 96//96 102//102 64//64
f 103//103 82//82 84//84
f 86//86 98//98 103//103
f 86//86 103//103 84//84
f 98//98 86//86 52//52
f 82//82 98//98 52//52
f 56//56 100//100 58//58
f 58//58 100//100 101//101
f 58//58 101//101 99//99
f 100//100 56//56 55//55
f 55//55 101//101 100//100
f 99//99 101//101 58//58
f 68//68 95//95 104//104
f 95//95 68//68 70//70
f 95//95 70//70 51//51
f 104//104 95//95 51//51
f 46//46 105//105 45//45
f 110//110 169//169 278//278
f 110//110 278//278 116//116
f 278//278 115//115 116//116
f 49//49 47//47 110//110
f 106//106 107//107 72//72
f 72//72 71//71 106//106
f 73//73 108//108 113//113
f 108//108 94//94 113//113
f 110//110 116//116 105//105
f 49//49 110//110 105//105
f 72//72 107//107 73//73
f 110//110 106//106 71//71
f 107//107 109//109 73//73
f 109//109 108//108 73//73
f 113//113 94//94 112//112
f 112//112 94//94 111//111
f 94//94 117//117 111//111
f 105//105 45//45 49//49
f 49//49 45//45 117//117
f 45//45 105//105 116//116
f 47//47 109//109 110//110
f 110//110 109//109 106//106
f 48//48 49//49 117//117
f 47//47 48//48 117//117
f 107//107 106//106 109//109
f 47//47 117//117 109//109
f 109//109 117//117 94//94
f 107//107 255//255 106//106
f 114//114 113//113 112//112
f 211//211 132//132 118//118
f 119//119 131//131 146//146
f 131//131 119//119 146//146
f 120//120 121//121 187//187
f 122//122 187//187 121//121
f 121//121 132//132 211//211
f 211//211 122//122 121//121
f 122//122 211//211 123//123
f 123//123 211//211 131//131
f 126//126 130//130 127//127
f 125//125 127//127 129//129
f 127//127 130//130 129//129
f 126//126 127//127 128//128
f 125//125 128//128 127//127
f 130//130 136//136 129//129
f 131//131 153//153 119//119
f 132//132 121//121 135//135
f 121//121 133//133 135//135
f 161//161 132//132 135//135
f 131//131 187//187 123//123
f 120//120 134//134 133//133
f 133//133 134//134 135//135
f 149//149 211//211 118//118
f 149//149 131//131 211//211
f 150//150 132//132 151//151
f 134//134 151//151 135//135
f 151//151 161//161 135//135
f 123//123 187//187 122//122
f 118//118 132//132 119//119
f 150//150 119//119 132//132
f 120//120 133//133 121//121
f 211//211 149//149 159//159
f 132//132 159//159 149//149
f 118//118 119//119 149//149
f 131//131 149//149 211//211
f 214//214 129//129 188//188
f 129//129 136//136 188//188
f 186//186 185//185 124//124
f 185//185 188//188 136//136
f 214//214 146//146 186//186
f 186//186 146//146 214//214
f 148//148 128//128 147//147
f 126//126 124//124 185//185
f 148//148 124//124 126//126
f 148//148 126//126 128//128
f 136//136 130//130 126//126
f 126//126 185//185 136//136
f 214//214 212//212 129//129
f 146//146 152//152 214//214
f 128//128 125//125 152//152
f 186//186 124//124 148//148
f 136//136 130//130 123//123
f 130//130 136//136 123//123
f 128//128 148//148 147//147
f 137//137 195//195 139//139
f 144//144 196//196 138//138
f 195//195 138//138 140//140
f 138//138 141//141 140//140
f 182//182 189//189 193//193
f 189//189 140//140 193//193
f 191//191 273//273 142//142
f 180//180 139//139 189//189
f 139//139 195//195 189//189
f 195//195 140//140 189//189
f 183//183 231//231 143//143
f 142//142 231//231 183//183
f 142//142 273//273 144//144
f 137//137 143//143 231//231
f 137//137 139//139 179//179
f 139//139 180//180 179//179
f 141//141 138//138 196//196
f 206//206 364//364 176//176
f 206//206 176//176 173//173
f 176//176 366//366 173//173
f 132//132 149//149 119//119
f 148//148 150//150 146//146
f 132//132 150//150 151//151
f 119//119 150//150 132//132
f 150//150 119//119 146//146
f 154//154 152//152 146//146
f 153//153 152//152 156//156
f 152//152 154//154 156//156
f 155//155 153//153 156//156
f 156//156 153//153 157//157
f 156//156 157//157 153//153
f 154//154 158//158 156//156
f 159//159 155//155 156//156
f 155//155 159//159 161//161
f 186//186 160//160 161//161
f 211//211 159//159 156//156
f 175//175 268//268 176//176
f 176//176 268//268 175//175
f 361//361 357//357 201//201
f 200//200 166//166 164//164
f 357//357 370//370 361//361
f 364//364 174//174 176//176
f 168//168 364//364 208//208
f 169//169 170//170 278//278
f 278//278 170//170 164//164
f 168//168 357//357 169//169
f 361//361 169//169 357//357
f 361//361 357//357 354//354
f 164//164 170//170 353//353
f 364//364 168//168 172//172
f 354//354 357//357 361//361
f 169//169 361//361 170//170
f 371//371 171//171 166//166
f 171//171 164//164 166//166
f 371//371 173//173 172//172
f 171//171 371//371 172//172
f 364//364 165//165 168//168
f 164//164 353//353 163//163
f 163//163 175//175 353//353
f 172//172 173//173 174//174
f 199//199 145//145 177//177
f 197//197 145//145 199//199
f 145//145 230//230 177//177
f 230//230 199//199 177//177
f 182//182 181//181 180//180
f 180//180 181//181 179//179
f 183//183 191//191 142//142
f 184//184 185//185 134//134
f 185//185 184//184 188//188
f 184//184 187//187 188//188
f 185//185 186//186 134//134
f 186//186 161//161 134//134
f 131//131 119//119 153//153
f 134//134 161//161 151//151
f 119//119 150//150 146//146
f 187//187 184//184 120//120
f 184//184 134//134 120//120
f 153//153 146//146 131//131
f 150//150 148//148 146//146
f 153//153 131//131 152//152
f 131//131 146//146 152//152
f 214//214 152//152 146//146
f 214//214 188//188 131//131
f 188//188 187//187 131//131
f 189//189 190//190 180//180
f 182//182 190//190 189//189
f 182//182 193//193 191//191
f 181//181 182//182 191//191
f 191//191 193//193 194//194
f 193//193 140//140 141//141
f 141//141 194//194 193//193
f 180//180 190//190 182//182
f 191//191 183//183 181//181
f 233//233 183//183 191//191
f 224//224 181//181 233//233
f 191//191 183//183 142//142
f 195//195 137//137 197//197
f 196//196 144//144 138//138
f 198//198 196//196 178//178
f 199//199 230//230 197//197
f 197//197 230//230 178//178
f 178//178 230//230 198//198
f 230//230 145//145 137//137
f 178//178 195//195 197//197
f 232//232 198//198 230//230
f 195//195 196//196 138//138
f 195//195 178//178 196//196
f 137//137 145//145 197//197
f 145//145 232//232 230//230
f 145//145 230//230 137//137
f 163//163 353//353 200//200
f 200//200 175//175 361//361
f 361//361 201//201 200//200
f 201//201 357//357 200//200
f 200//200 357//357 201//201
f 201//201 202//202 355//355
f 202//202 203//203 355//355
f 355//355 203//203 204//204
f 202//202 201//201 365//365
f 201//201 165//165 365//365
f 366//366 173//173 163//163
f 205//205 203//203 362//362
f 203//203 202//202 362//362
f 202//202 365//365 362//362
f 366//366 166//166 200//200
f 200//200 204//204 366//366
f 204//204 205//205 366//366
f 204//204 203//203 205//205
f 201//201 357//357 165//165
f 176//176 210//210 175//175
f 357//357 168//168 165//165
f 171//171 163//163 278//278
f 172//172 163//163 171//171
f 278//278 164//164 171//171
f 173//173 176//176 174//174
f 175//175 210//210 176//176
f 163//163 353//353 175//175
f 125//125 128//128 152//152
f 131//131 212//212 214//214
f 211//211 156//156 131//131
f 158//158 212//212 156//156
f 212//212 131//131 156//156
f 160//160 125//125 212//212
f 125//125 129//129 212//212
f 161//161 159//159 132//132
f 160//160 148//148 128//128
f 128//128 125//125 160//160
f 186//186 148//148 160//160
f 161//161 160//160 155//155
f 155//155 160//160 213//213
f 213//213 160//160 154//154
f 160//160 212//212 154//154
f 212//212 158//158 154//154
f 154//154 146//146 153//153
f 110//110 215//215 169//169
f 155//155 213//213 71//71
f 213//213 110//110 71//71
f 169//169 215//215 168//168
f 216//216 221//221 228//228
f 221//221 217//217 228//228
f 228//228 217//217 154//154
f 217//217 218//218 154//154
f 154//154 218//218 213//213
f 213//213 218//218 251//251
f 215//215 219//219 168//168
f 168//168 219//219 172//172
f 172//172 219//219 227//227
f 219//219 220//220 227//227
f 227//227 220//220 225//225
f 225//225 220//220 215//215
f 213//213 251//251 221//221
f 215//215 110//110 225//225
f 225//225 110//110 216//216
f 110//110 213//213 216//216
f 216//216 213//213 221//221
f 194//194 141//141 192//192
f 196//196 226//226 141//141
f 141//141 226//226 192//192
f 226//226 216//216 192//192
f 216//216 224//224 192//192
f 229//229 224//224 228//228
f 228//228 224//224 216//216
f 229//229 143//143 227//227
f 229//229 228//228 143//143
f 273//273 142//142 144//144
f 142//142 273//273 191//191
f 228//228 231//231 143//143
f 143//143 231//231 227//227
f 231//231 183//183 143//143
f 231//231 142//142 183//183
f 181//181 183//183 233//233
f 231//231 230//230 137//137
f 137//137 230//230 143//143
f 192//192 233//233 194//194
f 181//181 224//224 179//179
f 229//229 179//179 224//224
f 179//179 229//229 137//137
f 137//137 229//229 145//145
f 229//229 227//227 145//145
f 232//232 145//145 227//227
f 198//198 232//232 225//225
f 225//225 232//232 227//227
f 198//198 225//225 192//192
f 225//225 198//198 192//192
f 192//192 224//224 233//233
f 226//226 196//196 216//216
f 196//196 225//225 216//216
f 233//233 191//191 194//194
f 225//225 196//196 198//198
f 231//231 143//143 228//228
f 143//143 231//231 228//228
f 143//143 230//230 227//227
f 231//231 143//143 227//227
f 231//231 228//228 227//227
f 231//231 227//227 230//230
f 235//235 246//246 234//234
f 237//237 240//240 236//236
f 236//236 244//244 237//237
f 237//237 244//244 240//240
f 238//238 239//239 240//240
f 239//239 238//238 240//240
f 241//241 243//243 246//246
f 246//246 243//243 352//352
f 244//244 241//241 240//240
f 244//244 245//245 241//241
f 240//240 241//241 234//234
f 236//236 238//238 240//240
f 234//234 236//236 240//240
f 240//240 238//238 236//236
f 235//235 234//234 246//246
f 234//234 241//241 246//246
f 236//236 45//45 244//244
f 246//246 45//45 234//234
f 234//234 45//45 236//236
f 246//246 247//247 45//45
f 352//352 247//247 246//246
f 242//242 117//117 352//352
f 117//117 45//45 352//352
f 352//352 45//45 247//247
f 251//251 218//218 264//264
f 217//217 221//221 252//252
f 252//252 221//221 251//251
f 217//217 252//252 218//218
f 220//220 219//219 253//253
f 219//219 270//270 253//253
f 253//253 254//254 220//220
f 215//215 220//220 254//254
f 219//219 215//215 270//270
f 270//270 215//215 254//254
f 107//107 106//106 255//255
f 45//45 105//105 46//46
f 88//88 210//210 256//256
f 256//256 257//257 88//88
f 88//88 258//258 210//210
f 258//258 88//88 259//259
f 88//88 87//87 259//259
f 53//53 265//265 54//54
f 54//54 265//265 269//269
f 54//54 269//269 260//260
f 65//65 54//54 261//261
f 54//54 260//260 261//261
f 87//87 248//248 259//259
f 262//262 248//248 85//85
f 259//259 248//248 262//262
f 85//85 248//248 87//87
f 65//65 249//249 250//250
f 261//261 249//249 65//65
f 250//250 249//249 65//65
f 65//65 249//249 66//66
f 66//66 249//249 263//263
f 263//263 249//249 261//261
f 269//269 264//264 260//260
f 260//260 264//264 258//258
f 258//258 264//264 210//210
f 361//361 256//256 210//210
f 264//264 265//265 53//53
f 265//265 151//151 264//264
f 264//264 151//151 265//265
f 270//270 257//257 256//256
f 361//361 210//210 256//256
f 218//218 252//252 264//264
f 270//270 254//254 53//53
f 266//266 142//142 252//252
f 142//142 266//266 252//252
f 264//264 266//266 252//252
f 252//252 266//266 264//264
f 257//257 267//267 53//53
f 176//176 270//270 267//267
f 176//176 267//267 270//270
f 270//270 267//267 257//257
f 210//210 175//175 270//270
f 270//270 210//210 264//264
f 268//268 176//176 270//270
f 175//175 210//210 270//270
f 270//270 176//176 268//268
f 270//270 268//268 210//210
f 210//210 268//268 270//270
f 264//264 162//162 269//269
f 269//269 162//162 264//264
f 253//253 270//270 264//264
f 253//253 264//264 252//252
f 53//53 223//223 252//252
f 269//269 264//264 146//146
f 269//269 146//146 264//264
f 256//256 210//210 270//270
f 210//210 271//271 270//270
f 270//270 271//271 210//210
f 271//271 175//175 210//210
f 210//210 175//175 271//271
f 254//254 252//252 53//53
f 53//53 252//252 144//144
f 252//252 53//53 144//144
f 252//252 254//254 253//253
f 252//252 53//53 222//222
f 252//252 222//222 53//53
f 150//150 148//148 264//264
f 264//264 148//148 150//150
f 264//264 272//272 269//269
f 272//272 264//264 269//269
f 265//265 264//264 269//269
f 252//252 53//53 273//273
f 252//252 273//273 191//191
f 191//191 273//273 252//252
f 252//252 273//273 53//53
f 270//270 53//53 267//267
f 223//223 53//53 252//252
f 252//252 274//274 53//53
f 251//251 53//53 252//252
f 252//252 53//53 274//274
f 264//264 275//275 150//150
f 150//150 275//275 264//264
f 275//275 53//53 264//264
f 264//264 53//53 251//251
f 264//264 53//53 275//275
f 278//278 163//163 245//245
f 276//276 245//245 154//154
f 245//245 228//228 154//154
f 154//154 153//153 276//276
f 228//228 245//245 227//227
f 245//245 163//163 172//172
f 172//172 227//227 245//245
f 245//245 115//115 278//278
f 276//276 153//153 277//277
f 262//262 279//279 36//36
f 263//263 294//294 280//280
f 279//279 281//281 36//36
f 281//281 43//43 36//36
f 259//259 262//262 258//258
f 262//262 36//36 258//258
f 258//258 36//36 260//260
f 260//260 36//36 282//282
f 284//284 285//285 286//286
f 285//285 287//287 286//286
f 286//286 287//287 288//288
f 287//287 289//289 288//288
f 288//288 289//289 283//283
f 289//289 43//43 283//283
f 290//290 291//291 292//292
f 291//291 293//293 292//292
f 292//292 293//293 289//289
f 293//293 282//282 289//289
f 289//289 282//282 43//43
f 282//282 36//36 43//43
f 263//263 261//261 294//294
f 261//261 260//260 294//294
f 260//260 282//282 294//294
f 115//115 245//245 244//244
f 115//115 244//244 116//116
f 116//116 244//244 45//45
f 277//277 72//72 250//250
f 277//277 250//250 276//276
f 276//276 250//250 306//306
f 306//306 250//250 74//74
f 74//74 250//250 72//72
f 295//295 288//288 283//283
f 297//297 295//295 296//296
f 295//295 283//283 296//296
f 142//142 231//231 266//266
f 231//231 142//142 266//266
f 175//175 361//361 271//271
f 361//361 175//175 271//271
f 298//298 301//301 299//299
f 301//301 300//300 299//299
f 298//298 303//303 301//301
f 61//61 73//73 62//62
f 73//73 113//113 62//62
f 113//113 303//303 62//62
f 298//298 299//299 303//303
f 62//62 303//303 299//299
f 303//303 113//113 302//302
f 302//302 113//113 114//114
f 276//276 305//305 245//245
f 305//305 304//304 245//245
f 245//245 304//304 241//241
f 304//304 302//302 114//114
f 276//276 306//306 305//305
f 114//114 307//307 304//304
f 304//304 307//307 308//308
f 308//308 242//242 304//304
f 304//304 242//242 241//241
f 301//301 303//303 293//293
f 303//303 302//302 293//293
f 293//293 302//302 282//282
f 302//302 304//304 282//282
f 312//312 284//284 311//311
f 284//284 286//286 311//311
f 311//311 310//310 312//312
f 286//286 288//288 295//295
f 313//313 314//314 311//311
f 311//311 315//315 313//313
f 295//295 297//297 286//286
f 297//297 315//315 286//286
f 286//286 315//315 311//311
f 311//311 314//314 310//310
f 241//241 316//316 243//243
f 241//241 243//243 316//316
f 262//262 85//85 279//279
f 85//85 83//83 279//279
f 321//321 322//322 48//48
f 48//48 322//322 49//49
f 322//322 50//50 49//49
f 50//50 321//321 47//47
f 47//47 321//321 48//48
f 281//281 279//279 323//323
f 279//279 83//83 323//323
f 323//323 83//83 324//324
f 83//83 81//81 324//324
f 44//44 36//36 43//43
f 320//320 43//43 319//319
f 319//319 43//43 320//320
f 43//43 318//318 44//44
f 318//318 43//43 44//44
f 33//33 43//43 320//320
f 44//44 34//34 43//43
f 34//34 44//44 43//43
f 317//317 320//320 43//43
f 43//43 320//320 317//317
f 43//43 320//320 44//44
f 43//43 33//33 320//320
f 81//81 69//69 324//324
f 69//69 325//325 324//324
f 291//291 290//290 326//326
f 347//347 60//60 326//326
f 60//60 59//59 326//326
f 326//326 59//59 291//291
f 327//327 328//328 329//329
f 328//328 77//77 329//329
f 329//329 77//77 330//330
f 77//77 79//79 330//330
f 331//331 332//332 333//333
f 334//334 80//80 333//333
f 80//80 78//78 333//333
f 333//333 78//78 331//331
f 336//336 93//93 337//337
f 339//339 338//338 109//109
f 108//108 109//109 338//338
f 339//339 94//94 340//340
f 340//340 108//108 338//338
f 325//325 313//313 324//324
f 313//313 315//315 324//324
f 324//324 315//315 323//323
f 315//315 341//341 323//323
f 325//325 69//69 313//313
f 69//69 342//342 313//313
f 313//313 342//342 314//314
f 314//314 342//342 243//243
f 314//314 243//243 310//310
f 69//69 68//68 342//342
f 243//243 241//241 310//310
f 43//43 323//323 341//341
f 323//323 315//315 341//341
f 281//281 323//323 43//43
f 341//341 315//315 323//323
f 343//343 344//344 337//337
f 344//344 336//336 337//337
f 334//334 333//333 330//330
f 333//333 329//329 330//330
f 344//344 348//348 336//336
f 348//348 335//335 336//336
f 333//333 332//332 329//329
f 332//332 327//327 329//329
f 346//346 92//92 336//336
f 331//331 78//78 328//328
f 78//78 77//77 328//328
f 301//301 293//293 291//291
f 300//300 301//301 309//309
f 63//63 309//309 59//59
f 300//300 309//309 63//63
f 59//59 309//309 291//291
f 309//309 301//301 291//291
f 346//346 336//336 335//335
f 348//348 345//345 335//335
f 345//345 346//346 335//335
f 338//338 339//339 340//340
f 332//332 331//331 327//327
f 331//331 328//328 327//327
f 322//322 321//321 50//50
f 304//304 305//305 282//282
f 305//305 294//294 282//282
f 76//76 67//67 280//280
f 294//294 305//305 280//280
f 305//305 306//306 280//280
f 280//280 306//306 76//76
f 76//76 306//306 75//75
f 75//75 306//306 74//74
f 285//285 284//284 312//312
f 343//343 337//337 91//91
f 337//337 312//312 91//91
f 79//79 60//60 330//330
f 60//60 347//347 330//330
f 93//93 80//80 337//337
f 80//80 334//334 337//337
f 337//337 334//334 312//312
f 334//334 330//330 312//312
f 312//312 330//330 285//285
f 330//330 347//347 285//285
f 344//344 343//343 348//348
f 343//343 91//91 348//348
f 292//292 349//349 290//290
f 349//349 326//326 290//290
f 350//350 349//349 289//289
f 349//349 292//292 289//289
f 351//351 350//350 287//287
f 350//350 289//289 287//287
f 347//347 351//351 285//285
f 351//351 287//287 285//285
f 326//326 349//349 347//347
f 347//347 349//349 351//351
f 349//349 350//350 351//351
f 283//283 43//43 296//296
f 43//43 341//341 296//296
f 296//296 341//341 297//297
f 341//341 315//315 297//297
f 342//342 352//352 243//243
f 242//242 352//352 68//68
f 68//68 352//352 342//342
f 310//310 242//242 68//68
f 242//242 310//310 241//241
f 63//63 62//62 300//300
f 62//62 299//299 300//300
f 91//91 312//312 68//68
f 312//312 310//310 68//68
f 92//92 346//346 89//89
f 348//348 91//91 90//90
f 90//90 89//89 348//348
f 348//348 89//89 345//345
f 89//89 346//346 345//345
f 66//66 263//263 67//67
f 263//263 280//280 67//67
f 117//117 242//242 111//111
f 242//242 308//308 111//111
f 308//308 307//307 111//111
f 111//111 307//307 112//112
f 307//307 114//114 112//112
f 155//155 71//71 277//277
f 153//153 155//155 277//277
f 71//71 72//72 277//277
f 170//170 361//361 167//167
f 359//359 209//209 356//356
f 356//356 209//209 201//201
f 209//209 357//357 201//201
f 353//353 170//170 370//370
f 170//170 167//167 370//370
f 370//370 167//167 361//361
f 357//357 361//361 201//201
f 163//163 353//353 164//164
f 353//353 367//367 164//164
f 200//200 164//164 367//367
f 207//207 359//359 358//358
f 358//358 359//359 356//356
f 207//207 360//360 359//359
f 353//353 370//370 369//369
f 369//369 370//370 359//359
f 360//360 369//369 359//359
f 370//370 209//209 359//359
f 357//357 209//209 370//370
f 367//367 204//204 200//200
f 201//201 355//355 356//356
f 367//367 207//207 204//204
f 355//355 204//204 358//358
f 361//361 175//175 200//200
f 200//200 201//201 361//361
f 358//358 204//204 207//207
f 356//356 355//355 358//358
f 200//200 353//353 163//163
f 166//166 173//173 172//172
f 166//166 172//172 173//173
f 174//174 364//364 172//172
f 176//176 173//173 175//175
f 364//364 206//206 173//173
f 375//375 362//362 373//373
f 373//373 362//362 208//208
f 208//208 165//165 168//168
f 365//365 165//165 208//208
f 165//165 364//364 168//168
f 362//362 365//365 208//208
f 366//366 371//371 166//166
f 371//371 366//366 372//372
f 366//366 205//205 372//372
f 173//173 373//373 208//208
f 173//173 208//208 364//364
f 374//374 372//372 205//205
f 366//366 163//163 173//173
f 360//360 207//207 367//367
f 369//369 368//368 353//353
f 353//353 368//368 367//367
f 367//367 368//368 360//360
f 369//369 360//360 368//368
f 164//164 353//353 170//170
f 353//353 164//164 170//170
f 363//363 371//371 373//373
f 374//374 373//373 372//372
f 372//372 373//373 371//371
f 371//371 363//363 173//173
f 173//173 363//363 373//373
f 362//362 374//374 205//205
f 375//375 373//373 374//374
f 362//362 375//375 374//374
f 173//173 366//366 175//175
f 366//366 176//176 175//175
# 864 faces, 0 coords texture

# End of File
