####
#
# OBJ File Generated by Meshlab
#
####
# Object thumb_finger_sw_simplify.obj
#
# Vertices: 13
# Faces: 22
#
####
vn -1.3251396520226211 -1.5510172447265360 1.4359612377360613
v 0.0000000000000000 0.0000000000000000 0.0260000000000000
vn -1.3992487655585935 -1.5614008244221649 -1.4613674924411915
v 0.0000000000000000 0.0000000000000000 0.0000000000000000
vn 1.9037782194007842 -1.7064163153571033 1.8780606650439582
v 0.0192297137070721 0.0036546534160496 0.0260000000000000
vn 1.7300564835318415 -1.6818687993720696 -1.7481908846642689
v 0.0183045136354222 0.0020110753271412 0.0000000000000000
vn 2.5509143881718943 -1.2202232792372643 -4.2794172540127775
v 0.0200000000000000 0.0320144000000000 0.0000000000000000
vn 3.0236264819606360 -0.5663465905973228 2.6509888163465587
v 0.0255009651647744 0.0320144000000000 0.0260000000000000
vn 2.6510314167906537 -0.4170671003725818 -2.1448355866310309
v 0.0280300500000000 0.0400096000000000 0.0000000000000000
vn 3.0529846871978714 0.6126273654956628 2.8194735107104281
v 0.0245057273122781 0.0560000000000000 0.0260000000000000
vn 2.8671895914657362 0.6626066602417063 -4.1038582287552865
v 0.0200000000000000 0.0560000000000000 0.0000000000000000
vn 1.5043917412621826 2.0226885585210890 1.8626035624606572
v 0.0200000000000000 0.0709999900000000 0.0260000000000000
vn 1.5576746001407877 1.7267707945238495 -1.7507517703836097
v 0.0200000000000000 0.0709999900000000 0.0000000000000000
vn -1.5707963267948968 1.5707963267948970 1.5707963267948961
v 0.0000000000000000 0.0709999900000000 0.0260000000000000
vn -1.5707963267948966 1.5707963267948966 -1.5707963267948966
v 0.0000000000000000 0.0709999900000000 0.0000000000000000
# 13 vertices, 0 vertices normals

f 3//3 1//1 4//4
f 4//4 1//1 2//2
f 6//6 3//3 5//5
f 5//5 3//3 4//4
f 7//7 6//6 5//5
f 8//8 6//6 7//7
f 9//9 8//8 7//7
f 10//10 8//8 11//11
f 11//11 8//8 9//9
f 12//12 10//10 13//13
f 13//13 10//10 11//11
f 1//1 12//12 2//2
f 2//2 12//12 13//13
f 1//1 3//3 6//6
f 1//1 6//6 12//12
f 12//12 6//6 8//8
f 12//12 8//8 10//10
f 2//2 13//13 11//11
f 9//9 7//7 5//5
f 5//5 4//4 2//2
f 5//5 2//2 9//9
f 9//9 2//2 11//11
# 22 faces, 0 coords texture

# End of File
