# https://github.com/mikedh/trimesh
v 0.02400000 0.06105657 0.02000000 1.00000000 1.00000000 0.00000000
v 0.02400000 0.00000000 0.02000000 1.00000000 1.00000000 0.00000000
v 0.02400000 0.06105657 0.00000000 1.00000000 1.00000000 0.00000000
v 0.02400000 0.00000000 0.00000000 1.00000000 1.00000000 0.00000000
v 0.02350000 0.06418157 0.02000000 1.00000000 1.00000000 0.00000000
v 0.02350000 0.06418157 -0.00000000 1.00000000 1.00000000 0.00000000
v 0.02200000 0.06730657 0.02000000 1.00000000 1.00000000 0.00000000
v 0.02200000 0.06730657 0.00000000 1.00000000 1.00000000 0.00000000
v 0.01950000 0.06918157 0.02000000 1.00000000 1.00000000 0.00000000
v 0.01950000 0.06918157 0.00000000 1.00000000 1.00000000 0.00000000
v 0.01600000 0.06980657 0.02000000 1.00000000 1.00000000 0.00000000
v 0.01600000 0.06980657 0.00000000 1.00000000 1.00000000 0.00000000
v 0.00800000 0.06980657 0.02000000 1.00000000 1.00000000 0.00000000
v 0.00800000 0.06980657 0.00000000 1.00000000 1.00000000 0.00000000
v 0.00550000 0.06918157 0.02000000 1.00000000 1.00000000 0.00000000
v 0.00550000 0.06918157 -0.00000000 1.00000000 1.00000000 0.00000000
v 0.00200000 0.06730657 0.02000000 1.00000000 1.00000000 0.00000000
v 0.00200000 0.06730657 0.00000000 1.00000000 1.00000000 0.00000000
v 0.00050000 0.06418157 0.02000000 1.00000000 1.00000000 0.00000000
v 0.00050000 0.06418157 -0.00000000 1.00000000 1.00000000 0.00000000
v 0.00000000 0.06105657 0.02000000 1.00000000 1.00000000 0.00000000
v 0.00000000 0.06105657 -0.00000000 1.00000000 1.00000000 0.00000000
v 0.00000000 0.00000000 0.02000000 1.00000000 1.00000000 0.00000000
v 0.00000000 0.00000000 0.00000000 1.00000000 1.00000000 0.00000000
f 1 2 3
f 3 2 4
f 5 1 6
f 6 1 3
f 7 5 8
f 8 5 6
f 9 7 10
f 10 7 8
f 11 9 12
f 12 9 10
f 13 11 14
f 14 11 12
f 15 13 16
f 16 13 14
f 17 15 18
f 18 15 16
f 19 17 20
f 20 17 18
f 21 19 22
f 22 19 20
f 23 21 24
f 24 21 22
f 2 23 4
f 4 23 24
f 7 9 5
f 5 9 11
f 5 11 1
f 1 11 21
f 1 21 2
f 2 21 23
f 11 13 21
f 21 13 15
f 21 15 19
f 19 15 17
f 4 24 3
f 3 24 22
f 12 10 8
f 8 6 12
f 12 6 3
f 12 3 14
f 14 3 22
f 14 22 16
f 16 22 20
f 16 20 18