# File generated by ImageToStl.com - Free Image and 3D model conversion tools

o obj1
v 0.0130819 0 0.026
v 0 0 0.026
v 0.0130819 0 0
v 0 0 0
v 0.02 0.0090144 0.026
v 0.02 0.0090144 0
v 0.02 0.0320144 0.026
v 0.02 0.0320144 0
v 0.02 0.0090144 0
v 0.02803005 0.0320144 0.026
v 0.02803005 0.0320144 0
v 0.02 0.0320144 0
v 0.02803005 0.056 0.026
v 0.02803005 0.056 0
v 0.02 0.056 0.026
v 0.02 0.056 0
v 0.02 0.07099999 0.026
v 0.02 0.07099999 0
v 0.02 0.056 0
v 0 0.07099999 0.026
v 0 0.07099999 0
v 0.02 0.07099999 0
v 0 0 0
v 0 0.07099999 0
vn -0 -1 -0
vn 0.79331 -0.60882 0
vn 1 0 0
vn -0 1 0
vn -1 -0 -0
vn 0 -0 1
vn 0 0 -1
f 1//1 2//1 3//1
f 3//1 2//1 4//1
f 5//2 1//2 6//2
f 6//2 1//2 3//2
f 7//3 5//3 8//3
f 8//3 5//3 9//3
f 10//1 7//1 11//1
f 11//1 7//1 12//1
f 13//3 10//3 14//3
f 14//3 10//3 11//3
f 15//4 13//4 16//4
f 16//4 13//4 14//4
f 17//3 15//3 18//3
f 18//3 15//3 19//3
f 20//4 17//4 21//4
f 21//4 17//4 22//4
f 2//5 20//5 23//5
f 23//5 20//5 24//5
f 10//6 13//6 7//6
f 7//6 13//6 15//6
f 1//6 5//6 2//6
f 2//6 5//6 7//6
f 2//6 7//6 20//6
f 20//6 7//6 15//6
f 20//6 15//6 17//6
f 4//7 21//7 22//7
f 14//7 11//7 16//7
f 16//7 11//7 12//7
f 6//7 3//7 12//7
f 12//7 3//7 4//7
f 12//7 4//7 16//7
f 16//7 4//7 22//7
# Vertices: 24, normals: 7, texture coordinates: 0, faces: 32

