# https://github.com/mikedh/trimesh
v -0.04339256 -0.00574360 -0.09218204
v -0.04365056 -0.01170160 -0.08995604
v -0.04468456 -0.01067559 -0.08984604
v -0.04480056 0.00101241 -0.09223404
v -0.02962256 -0.00591359 -0.09283004
v -0.04031256 -0.01205560 -0.09018804
v -0.04697256 0.00741641 -0.08546604
v -0.04603056 -0.01226959 -0.08627004
v -0.04285456 -0.00124959 -0.09314604
v -0.03218456 0.00818041 -0.09324004
v -0.04276456 0.00727640 -0.09272404
v -0.03259856 -0.00008559 -0.09372004
v -0.01285856 0.00221040 -0.09346204
v -0.02424256 -0.01541360 -0.08874004
v -0.03691456 -0.01816360 -0.08636204
v -0.04358256 -0.01878560 -0.08532404
v -0.04624256 -0.02257960 -0.07800804
v -0.04542656 -0.02076560 -0.08177404
v -0.04301056 -0.02443159 -0.07859004
v -0.04713656 -0.02275160 -0.07226004
v -0.04839256 0.00879041 -0.07087004
v -0.04941856 -0.01101559 -0.05835204
v -0.04621656 -0.02537359 -0.07278004
v -0.04752856 -0.02534960 -0.06665804
v -0.04746056 -0.02565159 -0.07006004
v -0.03311256 0.03019041 -0.06960404
v -0.04527456 0.02842240 -0.06763204
v -0.03930056 0.02942241 -0.05707804
v -0.02762856 0.03171841 -0.06049204
v -0.04810856 0.02180441 -0.07705204
v -0.04631456 0.01513240 -0.08695404
v -0.01926656 0.01565841 -0.09061004
v -0.00137656 0.01568041 -0.09023604
v 0.00015344 0.00927440 -0.09219004
v -0.00029056 -0.00323760 -0.09232404
v -0.00158456 -0.01030560 -0.09034404
v 0.00420745 -0.01721359 -0.08647804
v -0.04523656 -0.02801160 -0.06577004
v -0.04149856 -0.02729160 -0.07307204
v -0.04857656 -0.02492760 -0.05989404
v -0.04771856 -0.02658960 -0.06017804
v -0.04887456 0.02522641 -0.06876004
v -0.04961856 0.01276041 -0.06126204
v -0.05044256 0.02158641 -0.05905804
v -0.04674056 0.02695841 -0.05526404
v -0.04838456 0.02443040 -0.05211004
v -0.04815256 0.02695441 -0.06168804
v -0.03388056 0.02583841 -0.04557804
v -0.01007256 0.02849841 -0.04211204
v -0.02205256 0.02994241 -0.04796604
v -0.00809656 0.03212841 -0.04887804
v -0.01531456 0.03270041 -0.05268804
v 0.00024544 0.03379841 -0.06737404
v 0.00749144 0.03421040 -0.06093804
v 0.00856944 0.03359041 -0.06610804
v 0.01023545 0.03083041 -0.07412604
v 0.00112944 0.03244841 -0.07319804
v -0.01328856 0.03312641 -0.06476604
v -0.04515456 0.02698040 -0.07454804
v -0.04642656 0.02337241 -0.08006004
v -0.04705656 0.02601241 -0.07404204
v -0.04387656 0.02047641 -0.08581604
v -0.04459056 0.01738641 -0.08789604
v -0.04483056 0.01190441 -0.09063604
v -0.00347256 0.03405041 -0.06211804
v -0.02308856 0.02892641 -0.07733604
v -0.04255256 0.01488440 -0.09002404
v 0.00271944 0.02761441 -0.08157004
v 0.00325745 0.02144041 -0.08745604
v -0.00239656 0.02276041 -0.08622604
v -0.03088256 0.02119241 -0.08672804
v -0.03232256 0.01593241 -0.09025004
v 0.01154544 0.02693041 -0.08041404
v -0.00390656 0.03104041 -0.07496404
v -0.04229856 0.02427441 -0.08178804
v 0.01229144 0.02349841 -0.08399004
v 0.00809145 0.00620041 -0.09205204
v 0.00348345 0.00734241 -0.09324404
v 0.01358544 0.01033241 -0.09042204
v 0.01665344 0.00287241 -0.09065404
v 0.00366144 -0.00343759 -0.09263604
v 0.01367344 -0.00265559 -0.09064004
v 0.01176944 -0.00623159 -0.09007204
v 0.00413144 -0.01039959 -0.09067204
v 0.00881545 -0.01037759 -0.08918404
v 0.01367745 -0.00412159 -0.09064604
v 0.01322944 -0.01015959 -0.08829604
v 0.02814944 -0.00573559 -0.08711004
v 0.01711144 -0.00896960 -0.08802404
v 0.01982543 -0.00749359 -0.08806804
v 0.02321144 -0.00512560 -0.08816604
v 0.01970143 -0.01456560 -0.08480804
v -0.02698456 -0.02247560 -0.08243604
v -0.03195856 -0.02963360 -0.06148004
v -0.04658056 -0.02731359 -0.06031004
v -0.04930456 -0.00050159 -0.06153204
v -0.04986856 -0.00655359 -0.05055204
v -0.04977456 0.02030841 -0.04582604
v -0.04055456 0.02727841 -0.05130604
v -0.04621256 0.02828041 -0.06130604
v -0.04773656 0.02720240 -0.06876404
v -0.04337856 0.02889841 -0.05456204
v -0.02526056 0.03101241 -0.05308404
v -0.01289456 0.02422240 -0.03770204
v -0.00238456 0.02704241 -0.03663404
v -0.01032656 0.03344641 -0.05527404
v 0.00147544 0.03352241 -0.04902404
v -0.00522656 0.03368241 -0.05610404
v 0.00507744 0.03429041 -0.05647204
v 0.00871144 0.03418841 -0.05260404
v 0.01700945 0.03367841 -0.05440804
v 0.01346544 0.03280840 -0.04895604
v 0.01462944 0.03384641 -0.05663404
v 0.01301744 0.01824241 -0.08748604
v 0.00379944 0.01580841 -0.09044004
v 0.02116345 0.01668840 -0.08689204
v 0.02311744 0.01226841 -0.08826804
v 0.01766744 0.00914441 -0.08988204
v 0.03594145 0.00681841 -0.08687404
v 0.04192144 0.01024640 -0.08480804
v 0.04050344 0.00433841 -0.08584204
v -0.01071256 -0.01926560 -0.08533804
v 0.00102745 -0.01999360 -0.08438604
v 0.00330545 -0.02297960 -0.08117004
v -0.02111056 -0.02960160 -0.06813204
v -0.01195256 -0.02784360 -0.07376004
v -0.03537056 -0.02869160 -0.05656604
v -0.04398656 -0.02625760 -0.05359404
v -0.03421056 -0.02575560 -0.04865404
v -0.04779056 -0.02101959 -0.04716804
v -0.04818856 -0.02309760 -0.05175604
v -0.04411656 -0.01314359 -0.04306804
v -0.04184256 -0.02204160 -0.04606204
v -0.04760856 -0.01387359 -0.04735804
v -0.04929056 -0.01966960 -0.05041804
v -0.04830456 -0.02397760 -0.05480804
v -0.03460256 -0.00721759 -0.03484004
v -0.04278856 -0.00562959 -0.03645204
v -0.03884856 -0.01958159 -0.04301804
v -0.02085456 -0.00421159 -0.03100404
v -0.02431056 -0.01325559 -0.03609404
v -0.02855656 -0.00161759 -0.03159404
v -0.03222456 -0.00202560 -0.03279804
v -0.04743856 -0.00648159 -0.03826004
v -0.04861656 -0.00717359 -0.04222804
v -0.05209056 0.00120241 -0.04232004
v -0.05154856 0.00566641 -0.05341204
v -0.05200456 0.01813641 -0.05163604
v -0.05104656 0.01961041 -0.04687404
v -0.02577056 0.02172041 -0.03864404
v -0.02027256 0.01684441 -0.03379204
v -0.01298656 0.01867841 -0.03366004
v -0.00406656 0.02210241 -0.03299804
v 0.00210144 0.02321640 -0.03513404
v -0.00100256 0.03094241 -0.04170804
v 0.00405144 0.03157640 -0.04436804
v 0.00723744 0.03325241 -0.04852604
v 0.03401743 0.01995240 -0.08245804
v 0.01849745 0.02531440 -0.08101004
v 0.02756345 0.02580841 -0.07857604
v 0.01627745 0.02127240 -0.08505204
v 0.04744144 0.02425240 -0.07521404
v 0.04577544 0.02786041 -0.06996404
v 0.04829544 0.02504240 -0.07164204
v 0.02873545 0.01324441 -0.08690604
v 0.04872945 0.01298441 -0.08237804
v 0.04804544 0.01840241 -0.07996204
v 0.04880943 0.00867841 -0.08369004
v 0.01744944 -0.01892360 -0.08182204
v 0.01210944 -0.01893760 -0.08309004
v 0.01093744 -0.02419560 -0.07748804
v 0.00169944 -0.02678560 -0.07580804
v -0.00297456 -0.03028159 -0.06711204
v -0.01505656 -0.03016959 -0.05497604
v -0.02262256 -0.02746560 -0.04858804
v -0.02291056 -0.02580359 -0.04539404
v -0.03787856 -0.02320160 -0.04515404
v -0.02659256 -0.01680559 -0.03836804
v -0.01227056 -0.02295160 -0.04008604
v -0.02721056 -0.02232160 -0.04244204
v -0.01155256 -0.01912759 -0.03778004
v -0.00513856 -0.02117160 -0.03645404
v -0.00687856 -0.01435760 -0.03558804
v -0.01355456 -0.00899959 -0.03416204
v -0.02217656 -0.00093759 -0.03054604
v -0.03309456 0.00707441 -0.03357804
v -0.03955056 0.00742641 -0.03509804
v -0.03835856 -0.00094559 -0.03374804
v -0.05058856 -0.00250559 -0.04059804
v -0.05084656 0.00266441 -0.03823404
v -0.05195056 0.01215641 -0.04459004
v -0.05155656 0.00741641 -0.04063404
v -0.04842856 0.01499641 -0.04105604
v -0.04091856 0.02050840 -0.04211604
v -0.03909656 0.01079241 -0.03600404
v -0.00360656 0.01768840 -0.03102003
v -0.01140656 0.01127841 -0.03090404
v -0.00832256 0.01281041 -0.03088204
v 0.02654544 0.03262041 -0.05419004
v 0.02723545 0.03272841 -0.06191804
v 0.01942944 0.03334641 -0.06033404
v 0.04565144 0.03012841 -0.06253604
v 0.04522544 0.03013841 -0.06387004
v 0.04397744 0.03081441 -0.06047404
v 0.03220944 0.03017841 -0.06950204
v 0.02906144 0.02873040 -0.07364604
v 0.02442344 0.02999641 -0.07295804
v 0.05016545 0.01196241 -0.08156604
v 0.04912544 0.00624841 -0.08373404
v 0.00992944 -0.02680760 -0.07265404
v 0.00399144 -0.02909960 -0.06980404
v -0.00903856 -0.03076159 -0.06155404
v -0.00775456 -0.02958360 -0.05089804
v -0.00708856 -0.01019359 -0.03124804
v -0.01173056 -0.00833360 -0.03172804
v -0.00814456 -0.01140359 -0.03405804
v -0.00166856 -0.01091360 -0.03180804
v -0.00153456 -0.01024760 -0.02848404
v -0.01837856 -0.00295960 -0.01472404
v -0.01722856 -0.00468759 -0.02005804
v -0.01641056 -0.00662359 -0.01229803
v -0.01818856 -0.00426959 -0.00901004
v -0.01887656 0.00058040 -0.00572804
v -0.01320856 -0.00771959 -0.02538804
v -0.01414656 -0.00922559 -0.00934004
v -0.00700456 -0.00986159 -0.02913604
v -0.01787656 -0.00218159 -0.02608604
v -0.01846856 -0.00147159 -0.02758604
v -0.01728256 -0.00331959 -0.02861204
v -0.02121856 0.00239040 -0.03032404
v -0.04725656 0.00201241 -0.03674204
v -0.04774056 -0.00101359 -0.03705804
v -0.04720256 0.01088241 -0.03865604
v -0.00265456 0.01105441 -0.03115004
v -0.00231656 0.01285841 -0.03204204
v -0.00759856 0.01098840 -0.03158004
v 0.00274144 0.02729641 -0.03816804
v 0.00335544 0.02970841 -0.04108604
v 0.03115344 0.03243441 -0.05447804
v 0.03562144 0.03184041 -0.05391404
v 0.03899345 0.03162241 -0.05669004
v 0.04234145 0.03041841 -0.05709604
v 0.04678744 0.02928440 -0.06367804
v 0.00434944 -0.03117960 -0.06323004
v 0.00841344 -0.02917959 -0.06535204
v 0.00769144 -0.03073360 -0.06190004
v -0.00788256 -0.02648359 -0.04373804
v -0.00411656 -0.02659960 -0.04100204
v -0.00150856 -0.01265559 -0.03437004
v -0.00966456 -0.00998559 -0.01804004
v -0.01969056 -0.00756559 0.01186597
v -0.01635056 -0.01085159 0.01073797
v -0.02211056 -0.00464159 0.02199397
v -0.01848656 -0.00525159 -0.00315604
v -0.01753456 0.00152641 -0.02611204
v -0.01936656 0.00070241 -0.02877203
v -0.01699256 0.01146441 -0.03075804
v -0.03329656 0.01519040 -0.03610604
v -0.01381856 0.00776841 -0.03045204
v -0.00912656 0.00951040 -0.03090404
v -0.01146256 0.00877241 -0.03018204
v 0.00102745 0.00986440 -0.02988804
v -0.00198856 0.01048241 -0.02978604
v 0.00051344 0.01003441 -0.02741804
v 0.00143544 0.01090041 -0.03185004
v 0.00172145 0.01467640 -0.03315804
v -0.00515056 0.01039441 -0.03051804
v 0.03637744 0.03118241 -0.05219004
v 0.04651344 0.02953041 -0.06155804
v 0.04676544 0.02942241 -0.06258204
v 0.04676945 0.02941641 -0.06262204
v 0.04676145 0.02942641 -0.06254404
v 0.04677944 0.02941040 -0.06266404
v 0.04676145 0.02941840 -0.06259604
v 0.04676544 0.02941840 -0.06260804
v 0.04677145 0.02941441 -0.06263004
v 0.00688544 -0.03144159 -0.05801004
v -0.00033656 -0.01516159 -0.03560404
v -0.00003856 -0.02385759 -0.03897204
v 0.00175144 -0.01182960 -0.03390004
v 0.00185344 -0.01166559 -0.03381804
v 0.00184744 -0.01167559 -0.03382204
v 0.00184744 -0.01169959 -0.03383204
v 0.00183344 -0.01178960 -0.03387004
v 0.00187944 -0.01178559 -0.03396604
v 0.00173744 -0.01200159 -0.03407204
v 0.00176144 -0.01135959 -0.03343604
v 0.00197744 -0.01235759 -0.03445004
v 0.00215944 -0.01384559 -0.03533804
v -0.01848256 0.00324241 0.00060995
v -0.02365656 -0.00238160 0.03384196
v -0.02414456 0.00157241 0.04730997
v -0.02029856 -0.00140959 0.00664796
v -0.01798456 0.00373040 -0.00742004
v -0.01900056 0.00150641 -0.00137003
v -0.01720256 0.00556441 0.00029196
v -0.01441656 0.00740041 -0.00988603
v -0.01693456 0.00610241 -0.03009204
v -0.01346256 0.00668440 -0.02890604
v 0.00258344 0.00918441 -0.01909403
v 0.00775745 0.00729841 -0.02688604
v 0.00422544 0.00882241 -0.02636604
v -0.00054856 -0.03157960 -0.05595804
v 0.00573545 -0.03035360 -0.05249804
v 0.00522945 -0.02956160 -0.04995604
v -0.00042056 -0.02761159 -0.04323204
v -0.00171856 -0.02954760 -0.04764804
v 0.00334545 -0.02472560 -0.04106404
v 0.00310544 -0.02422160 -0.03989004
v 0.00127745 -0.01017759 -0.03109204
v 0.00177344 -0.01134159 -0.03347204
v -0.02058256 -0.01122159 0.03463996
v -0.02710856 0.00148641 0.07549397
v -0.02828856 0.00310441 0.09593597
v -0.02545456 0.00559640 0.08603397
v -0.02147456 0.00512641 0.04047797
v -0.01910256 0.00496041 0.01470596
v -0.02043256 0.00660041 0.04318197
v -0.01641656 0.00890641 0.03615997
v -0.01164456 0.00964240 0.00164596
v 0.00684744 0.00659641 -0.00544404
v 0.00182744 0.00879041 0.00275597
v 0.00638344 0.00513841 0.01050197
v 0.01123944 0.00093241 -0.01100005
v 0.01070545 0.00476641 -0.02110603
v 0.00887145 0.00120841 0.00891797
v 0.00976145 -0.00187960 0.00091596
v 0.01080345 -0.00431759 -0.01430003
v 0.01266944 -0.00035159 -0.01809403
v 0.01502745 0.00111440 -0.02611604
v 0.01287944 0.00509441 -0.02626404
v 0.00392345 -0.02660759 -0.04378604
v 0.00088145 -0.00988759 -0.02918604
v -0.00286856 -0.01074159 -0.01715204
v -0.00397056 -0.01238959 0.00848196
v -0.01240456 -0.01315359 0.01990597
v -0.02483456 -0.00967159 0.05402396
v -0.02804856 -0.00819959 0.07355596
v -0.02707656 -0.00313559 0.06326797
v -0.01176056 0.00990841 0.02829197
v 0.00648145 -0.00801360 -0.00313004
v 0.00821144 -0.00697359 -0.01494604
v 0.00265744 -0.01005360 -0.00807803
v 0.00371944 -0.00899959 -0.01901804
v 0.01303945 -0.00432159 -0.02351804
v 0.01000945 -0.00743159 -0.02578404
v 0.00620145 -0.00814360 -0.02806203
v 0.00311945 -0.00915559 -0.02817004
v -0.00316456 -0.01323360 0.02519597
v -0.03424056 -0.00538960 0.12539796
v -0.03307856 -0.00014759 0.12938796
v -0.02719656 0.00632841 0.12441798
v -0.02756456 0.00615640 0.14254395
v -0.02380656 0.00770641 0.13041398
v -0.02967456 0.00484041 0.13381997
v -0.03132256 0.00283441 0.12885796
v -0.01927656 0.00843040 0.06198397
v -0.00731856 0.00960641 0.05009397
v -0.00028656 0.00763041 0.03814997
v -0.00223256 0.00740841 0.06161997
v 0.00304544 0.00508440 0.03806597
v 0.00250744 0.00495641 0.05317197
v 0.00450144 0.00511641 0.02465597
v 0.00284944 0.00744841 0.01628596
v -0.00046056 0.00860241 0.02613396
v 0.00639344 0.00080840 0.04167997
v 0.00837344 -0.00224759 0.02517397
v 0.00387145 0.00610241 0.03006595
v 0.00376345 -0.01027559 0.03030997
v 0.00654944 -0.00830759 0.01191595
v 0.00746744 -0.00630759 0.02735596
v -0.01941456 -0.01354960 0.04709197
v -0.01544256 -0.01466359 0.04598997
v -0.02191856 -0.01193559 0.04705596
v -0.02417256 -0.01310359 0.06686797
v -0.02807256 -0.01241959 0.08665995
v -0.02482456 -0.01476159 0.08119195
v -0.03069656 -0.00795159 0.09416595
v -0.02439856 0.00628441 0.16037397
v -0.02904856 0.00497841 0.18556997
v -0.01867256 0.00619040 0.16134197
v -0.01440856 0.00423241 0.17264797
v -0.01292056 0.00442841 0.16282998
v -0.00878456 0.00174040 0.16343996
v -0.00970856 -0.00608959 0.20698797
v -0.00265456 -0.00619359 0.16251598
v -0.00799056 -0.00218959 0.18849197
v -0.00976256 -0.01144359 0.20573998
v -0.00348456 -0.00938959 0.16844198
v -0.01093456 -0.01047359 0.21658797
v -0.01280856 -0.01602359 0.21589397
v -0.01165056 -0.00300760 0.21470797
v -0.01133456 -0.00708159 0.22239397
v -0.01522056 -0.01937559 0.20541598
v -0.01251656 -0.01652559 0.20606997
v -0.01771856 -0.02116159 0.22158999
v -0.00441056 -0.01277159 0.16854397
v -0.00737656 0.00214840 0.15704397
v -0.01658056 0.00825241 0.12996596
v -0.02195456 0.00816841 0.09173797
v -0.01592656 0.00906641 0.09471397
v -0.01458656 0.00950641 0.06952195
v 0.00707744 -0.00393559 0.04191196
v 0.00400745 -0.00103560 0.06730997
v 0.00355944 -0.00589559 0.07104597
v 0.00518544 -0.00705359 0.05347997
v 0.00118745 -0.01133759 0.06144196
v 0.00403545 -0.00976760 0.04737597
v 0.00113944 -0.01209160 0.04428797
v -0.00440056 -0.01445959 0.05396197
v -0.00855256 -0.01499559 0.04614397
v 0.00315145 -0.01063960 0.01684196
v -0.02058256 -0.01527560 0.06632597
v -0.02638456 -0.01582160 0.09840397
v -0.03024456 -0.01253959 0.10273196
v -0.02822256 0.00536641 0.16563796
v -0.01946256 0.00480040 0.18661797
v -0.02491856 0.00523240 0.18910998
v -0.02292856 0.00418041 0.21532598
v -0.01385856 0.00138041 0.20504397
v -0.01287456 -0.00024959 0.21012399
v -0.01113056 0.00102041 0.19112197
v -0.01186256 0.00289240 0.17509597
v -0.01376056 0.00317441 0.18111797
v -0.00811856 0.00021641 0.17381997
v -0.00465256 -0.00223359 0.16580798
v -0.01537656 0.00283841 0.20066796
v -0.01422656 -0.00006359 0.22421398
v -0.01252056 -0.00632559 0.24096398
v -0.01190656 -0.01324759 0.22603597
v -0.02456256 -0.02326359 0.21900399
v -0.01863656 -0.02245560 0.24120397
v -0.03221656 -0.02325360 0.24311394
v -0.03692056 -0.02367160 0.24087597
v -0.02740056 -0.02470759 0.24072594
v -0.03249256 -0.02253560 0.21676998
v -0.01061856 -0.01745759 0.18694598
v -0.00171656 -0.00207559 0.14506797
v -0.00580456 0.00226040 0.14463998
v -0.00128656 0.00053641 0.12872996
v -0.00598655 0.00511241 0.12662997
v -0.01040256 0.00651041 0.13363798
v -0.00827856 0.00838041 0.08971596
v -0.00475055 0.00716441 0.08549197
v 0.00248344 0.00242040 0.06928797
v -0.00078456 0.00550241 0.07733598
v 0.00263944 -0.00435359 0.08502997
v 0.00172145 -0.00892959 0.07858997
v -0.00388056 -0.01475759 0.06708997
v -0.03673456 -0.00623760 0.15745597
v -0.03075056 0.00437840 0.16561596
v -0.03525056 0.00297440 0.20580196
v -0.02931656 0.00458841 0.21573397
v -0.03769256 0.00176641 0.24349596
v -0.02980856 0.00182841 0.24507397
v -0.03065256 0.00374041 0.24301797
v -0.01904456 -0.01968159 0.24494598
v -0.01482056 -0.00813359 0.24623397
v -0.02969256 -0.01087959 0.24465197
v -0.02357256 -0.02154960 0.24461199
v -0.01226256 -0.01120759 0.24321795
v -0.01451856 -0.01299759 0.24620199
v -0.01423056 -0.01510759 0.24512594
v -0.01499856 -0.00282959 0.24384399
v -0.01356056 -0.00658360 0.24443798
v -0.01394256 -0.01754159 0.24031994
v -0.02443856 -0.02344160 0.24319997
v -0.01761456 -0.02109960 0.24269195
v -0.02518456 -0.02249560 0.20054397
v -0.01860056 -0.02120559 0.20595797
v -0.00527056 -0.01526360 0.16024998
v -0.00085056 -0.00669560 0.14940797
v -0.00086056 -0.01173559 0.14126997
v 0.00152544 -0.00814360 0.11079397
v 0.00088944 -0.00683159 0.12855196
v -0.00666656 0.00620841 0.11418597
v -0.00370656 0.00553040 0.10473797
v -0.00292656 0.00558641 0.09619598
v 0.00107544 0.00024041 0.09984397
v 0.00037544 0.00284641 0.08620597
v -0.03091856 -0.01521359 0.11979597
v -0.03431256 -0.00914759 0.12600596
v -0.03386856 -0.01187759 0.12709997
v -0.03330056 0.00258040 0.16639397
v -0.02593456 0.00394441 0.24076998
v -0.02403856 0.00306441 0.24309597
v -0.02363856 0.00152641 0.24497597
v -0.02053256 0.00157641 0.24378197
v -0.01769056 -0.00313159 0.24585198
v -0.03802056 0.00031041 0.24405999
v -0.03218456 -0.02200560 0.24385595
v -0.03903856 -0.02038359 0.24325198
v -0.04190456 -0.02104560 0.24064999
v -0.04257056 -0.01838160 0.24249197
v -0.03979856 -0.02142960 0.22824197
v -0.03850256 -0.02031760 0.21546798
v -0.03344256 -0.02138759 0.20407998
v -0.04431256 -0.01632559 0.22697198
v -0.04253056 -0.01295759 0.20823598
v -0.04252056 -0.01683959 0.21760397
v -0.03948256 -0.01855960 0.20763796
v -0.03952256 -0.01551959 0.19276598
v -0.03917256 -0.01335760 0.18295199
v -0.03015056 -0.02112560 0.19129397
v -0.03583256 -0.01991760 0.19806399
v -0.03379656 -0.01886959 0.17876397
v -0.03834056 -0.01696959 0.19167199
v -0.02630456 -0.02024160 0.16350997
v -0.01703856 -0.02029160 0.18642599
v -0.01570456 -0.01988159 0.19755398
v -0.01020056 -0.01795960 0.17340798
v 0.00082744 -0.00414559 0.12615397
v -0.00438256 -0.01567959 0.12937797
v -0.00031856 -0.01215359 0.11085197
v 0.00190145 -0.00448359 0.10480996
v -0.00459056 -0.01524960 0.08149396
v -0.00179256 -0.01402359 0.09963998
v -0.01943656 -0.01763960 0.09018597
v -0.01138656 -0.01654159 0.06626797
v -0.01251656 -0.01813759 0.09513998
v -0.02182656 -0.01967360 0.12548197
v -0.03257056 -0.01551159 0.13468197
v -0.02937256 -0.01771159 0.13088798
v -0.03740856 -0.01109559 0.16275997
v -0.03632856 0.00152241 0.19336596
v -0.01607456 0.00167040 0.22239199
v -0.01817056 0.00183441 0.23820995
v -0.01561256 0.00188641 0.21204397
v -0.01584856 -0.00101359 0.24200399
v -0.04434256 -0.01336560 0.24293593
v -0.04383056 -0.00538759 0.24290197
v -0.04524056 -0.01684359 0.24029397
v -0.04679056 -0.00962159 0.24070397
v -0.04608456 -0.01625759 0.23738994
v -0.04472856 -0.01849160 0.23652798
v -0.04117656 -0.01943760 0.22239797
v -0.02249656 -0.02134360 0.18274798
v -0.00955856 -0.01723560 0.16564596
v -0.00843456 -0.01749359 0.15749195
v -0.02088856 -0.02055360 0.16014397
v -0.01522056 -0.01945960 0.16597997
v -0.01824656 -0.02058960 0.17774197
v -0.01516456 -0.01968760 0.14650198
v -0.00801656 -0.01704759 0.14653396
v -0.01138856 -0.01877759 0.12931197
v -0.01378656 -0.01947760 0.12599796
v -0.00561656 -0.01632559 0.10103397
v -0.04010056 -0.00039159 0.21550399
v -0.03693456 -0.00066760 0.18081197
v -0.03234856 0.00413441 0.24029797
v -0.03822256 0.00287441 0.24098199
v -0.04188056 -0.00008559 0.24215597
v -0.04419056 -0.00203559 0.24052596
v -0.04657256 -0.00743559 0.23891598
v -0.04648256 -0.01166959 0.23708794
v -0.04455656 -0.00426959 0.23529595
v -0.04102056 0.00125641 0.23897597
v -0.04194856 -0.00302559 0.21945797
v -0.03986856 -0.00908760 0.18657397
v -0.03643256 -0.01627560 0.17496197
v -0.03565056 -0.01468159 0.15833997
v -0.03304256 -0.01695159 0.15460397
v -0.02988056 -0.01885559 0.15716798
v -0.03403256 -0.01368959 0.13673397
v -0.04309456 -0.00891959 0.21516598
v -0.03814656 -0.00364359 0.18150997
v -0.04629656 -0.00599159 0.23988994
v -0.03489056 -0.00023559 0.15782996
v -0.03065856 -0.00426360 0.09433196
v 0.01401944 -0.00534359 -0.02710204
v 0.00997344 -0.00801360 -0.02811604
v -0.00500856 0.01002841 0.01836397
v -0.00328656 0.01023441 -0.02270604
v 0.00185544 -0.01179359 -0.03387604
v 0.04722744 0.02800240 -0.06706204
v -0.04974856 0.00608041 -0.03833604
v 0.04971945 0.01756241 -0.07860204
v 0.04940945 0.02156440 -0.07549004
v 0.02847944 -0.01612560 -0.08169404
v 0.03155744 -0.00890760 -0.08518604
v 0.02149945 0.00651241 -0.08974004
v 0.02624544 0.01037241 -0.08833004
v 0.01167545 0.03411041 -0.06149804
v 0.01424144 0.03288841 -0.06626404
v 0.01610344 0.03219441 -0.07044404
v 0.00977344 0.03273641 -0.07189004
v 0.01064545 0.03118640 -0.07609804
v 0.01579744 0.02897041 -0.07711404
v 0.02631545 0.00097640 -0.09065404
v 0.02174144 0.00574841 -0.09065404
v 0.02783944 0.00211440 -0.08911604
v 0.01368744 -0.00982159 -0.09065404
v 0.01884944 -0.00818760 -0.09065404
v 0.02121744 -0.00640159 -0.09065404
v 0.02119944 -0.00639160 -0.09065404
v 0.02118144 -0.00638359 -0.09065404
v 0.02284744 -0.00478359 -0.08942004
v 0.02616544 -0.00183959 -0.09066204
v 0.02920345 -0.00160959 -0.08866404
v 0.04129745 -0.00761759 -0.08436804
v 0.01262145 0.02261441 -0.08556804
v 0.01186945 0.02690041 -0.08196004
v 0.03570944 -0.00144359 -0.08762404
v 0.00555744 0.03116040 -0.04318804
v 0.02015944 0.03308841 -0.06664404
v 0.03960944 -0.00144359 -0.08636804
v 0.03471144 -0.01898559 -0.07926404
v 0.04562544 -0.02176959 -0.07499604
v 0.01920944 -0.02062960 -0.08060604
v 0.03879344 0.03017841 -0.04798004
v 0.05418545 0.02546440 -0.06723204
v 0.05540145 0.01714041 -0.07720404
v 0.05034145 0.00314441 -0.08369804
v 0.05609544 0.00845641 -0.08075804
v 0.04516345 -0.00103960 -0.08559804
v 0.01716545 -0.02520360 -0.07719404
v 0.02874144 -0.02477760 -0.07547004
v 0.01199944 -0.02165160 -0.08244604
v 0.01100545 -0.02669760 -0.07775404
v 0.00153344 0.02156440 -0.03230404
v 0.00350144 0.02172441 -0.03191804
v 0.00258744 0.02720240 -0.03738204
v 0.00470944 0.02719241 -0.03708404
v 0.03428343 0.02716241 -0.03900604
v 0.04941744 0.02868041 -0.06574004
v 0.05748545 0.00294840 -0.08132604
v 0.05859544 0.00847041 -0.07840204
v 0.05858745 0.00204241 -0.07955804
v 0.05462544 -0.00649959 -0.08089604
v 0.04985745 -0.00339759 -0.08338804
v 0.05212744 -0.01114559 -0.07699004
v 0.04022744 -0.02179359 -0.07579004
v 0.01042345 -0.02755759 -0.07502804
v 0.01297144 -0.02730960 -0.07409804
v 0.00963944 -0.02941560 -0.07124604
v 0.01453144 -0.02927759 -0.06886204
v 0.01105744 -0.03081759 -0.06369604
v 0.00838344 -0.03104160 -0.06522804
v 0.04984145 0.02462640 -0.03775804
v 0.05084744 0.02906841 -0.06420204
v 0.05346945 0.02847241 -0.05793404
v 0.05774145 0.02010441 -0.07255204
v 0.05873744 0.01679441 -0.07281004
v 0.05858745 -0.00083159 -0.07788404
v 0.05480744 -0.00054359 -0.08225804
v 0.05141744 -0.01724960 -0.07471604
v 0.04918745 -0.02176560 -0.07318404
v 0.01510745 -0.03075159 -0.05772204
v 0.03462544 -0.02974359 -0.05828604
v 0.05140945 -0.02611359 -0.06524604
v 0.04198744 -0.02895760 -0.06081804
v 0.04077745 -0.02718159 -0.06755004
v 0.02357144 -0.02942360 -0.06612604
v 0.00092544 0.01627841 -0.02940004
v 0.00430144 0.01306441 -0.02743604
v 0.05225344 0.02798441 -0.04748604
v 0.05175945 0.02880040 -0.05299004
v 0.05652145 0.02446240 -0.06473604
v 0.05867145 0.01930841 -0.07003804
v 0.05888944 0.01762040 -0.06600604
v 0.05946144 0.00546241 -0.07642604
v 0.05551344 -0.00947159 -0.07231804
v 0.05701944 -0.00537959 -0.06645004
v 0.05524545 -0.01578759 -0.07108604
v 0.03077544 -0.02716760 -0.07053204
v 0.05394345 -0.02711959 -0.05903604
v 0.02956745 -0.02933559 -0.05078804
v 0.01060544 -0.02964160 -0.05072404
v 0.00711745 0.01082040 -0.02739204
v 0.00907544 0.01614640 -0.02908004
v 0.05365944 0.02580241 -0.04304404
v 0.05558744 0.02639841 -0.05851604
v 0.05863144 0.00477840 -0.06589004
v 0.05576944 -0.01992360 -0.07153204
v 0.05345944 -0.02224159 -0.07112204
v 0.04458144 -0.02374360 -0.07315204
v 0.03841145 -0.02499559 -0.07195404
v 0.05506345 -0.02490159 -0.06280804
v 0.05565144 -0.02515959 -0.05872004
v 0.05192345 -0.02794559 -0.05295404
v 0.00556345 -0.02594159 -0.04197004
v 0.01880545 -0.02763360 -0.04529204
v 0.00326145 -0.01154160 -0.02916003
v 0.05481544 0.02743241 -0.05067204
v 0.05653345 -0.01014159 -0.06014604
v 0.05562744 -0.02288959 -0.06699604
v 0.05469145 -0.02510760 -0.05264404
v 0.05369144 -0.02655560 -0.05001404
v 0.04755145 -0.02776160 -0.04833604
v 0.00454544 -0.02104759 -0.03606204
v 0.02543544 -0.01853559 -0.03307604
v 0.00388745 -0.01767560 -0.03313604
v 0.00182744 -0.01799159 -0.03373804
v 0.00120544 -0.01329960 -0.03073204
v 0.00898345 -0.01286959 -0.03005604
v 0.04906745 0.02059240 -0.03291404
v 0.05517944 0.02247041 -0.04221804
v 0.05263345 0.02144041 -0.03561804
v 0.05382945 0.01549841 -0.03318804
v 0.05581545 0.01509441 -0.04764204
v 0.05595344 0.02576841 -0.05087204
v 0.05680544 0.01251241 -0.05831604
v 0.05497144 -0.01221560 -0.04972004
v 0.05674745 0.00298041 -0.05840004
v 0.04646545 -0.02558560 -0.04222804
v 0.03307544 -0.02193559 -0.03629404
v 0.05249144 -0.02510160 -0.04426204
v 0.02665344 -0.00472160 -0.02632603
v 0.05235945 0.01586241 -0.03074004
v 0.05103544 0.01606041 -0.03001604
v 0.04147144 0.01593241 -0.02893404
v 0.05047543 0.01105441 -0.02763604
v 0.02695944 0.01069040 -0.02664603
v 0.02392944 0.01981041 -0.03074604
v 0.04081944 0.00920241 -0.02624204
v 0.05330144 -0.01470759 -0.03501004
v 0.05069345 -0.02203759 -0.03772004
v 0.05015544 0.00467641 -0.02612003
v 0.05185345 0.00967041 -0.02794604
v 0.05345944 0.00370441 -0.02998204
v 0.05184744 -0.00995159 -0.02914603
v 0.05443745 -0.02495160 -0.04864204
v 0.05292745 -0.02177560 -0.03947004
v 0.05174545 -0.01910159 -0.03502604
v 0.04259545 -0.01845160 -0.03321604
v 0.04898744 -0.00855959 -0.02754204
v 0.03477745 0.00102440 -0.02531603
v 0.05079544 -0.00316760 -0.02645004
v 0.03839745 -0.01417959 -0.02991804
v 0.05039143 -0.01808759 -0.03333604
v 0.05474745 0.02211641 -0.07259204
v 0.04677745 0.02941241 -0.06264604
v 0.01730345 0.00932841 -0.09065404
vn -0.38060483 -0.22616788 -0.89665381
vn -0.30504703 -0.44660425 -0.84112481
vn -0.70728465 -0.26239282 -0.65642854
vn -0.74208669 -0.00440735 -0.67028943
vn 0.00266016 -0.26615281 -0.96392718
vn -0.07315969 -0.45422299 -0.88787901
vn -0.97831571 -0.00847336 -0.20694583
vn -0.94098049 -0.15529336 -0.30073191
vn -0.26749779 -0.08207507 -0.96005657
vn -0.02888915 0.20818801 -0.97766209
vn -0.28332579 0.16934720 -0.94395340
vn -0.02143159 -0.04869086 -0.99858394
vn 0.03686047 -0.00523323 -0.99930672
vn 0.00675993 -0.53106686 -0.84730295
vn -0.04401685 -0.63495425 -0.77129476
vn -0.36077510 -0.60638863 -0.70861425
vn -0.81606328 -0.47611123 -0.32765656
vn -0.69092815 -0.52919201 -0.49251814
vn -0.26051069 -0.82519844 -0.50118031
vn -0.97722122 -0.13040089 -0.16743443
vn -0.99386859 -0.02380767 -0.10797421
vn -0.99827295 -0.04285157 -0.04018529
vn -0.66747040 -0.66672281 -0.33160814
vn -0.92952640 -0.36034329 -0.07831593
vn -0.85319592 -0.48162675 -0.20023086
vn -0.13872741 0.97389999 -0.17964828
vn -0.27775690 0.95565754 -0.09782521
vn -0.13597242 0.98283290 0.12470362
vn -0.14928318 0.98858914 0.02015062
vn -0.95672959 0.20317214 -0.20830165
vn -0.89025592 0.20263067 -0.40790343
vn 0.00188877 0.42970335 -0.90296814
vn -0.01626082 0.38879593 -0.92118039
vn -0.06439399 0.19613831 -0.97845959
vn -0.02683228 -0.14811091 -0.98860669
vn 0.00074571 -0.37981479 -0.92506225
vn 0.11294523 -0.57997599 -0.80676591
vn -0.40197158 -0.91123551 -0.08982588
vn -0.17743729 -0.93401577 -0.31004927
vn -0.95934429 -0.28098916 -0.02652598
vn -0.72110590 -0.68775343 0.08367497
vn -0.95053087 0.28343085 -0.12711419
vn -0.98299946 -0.02039732 -0.18247196
vn -0.97030239 0.23410936 -0.06087754
vn -0.66035477 0.72496692 0.19584319
vn -0.66151183 0.70078182 0.26703359
vn -0.77065758 0.63420619 0.06220452
vn -0.22010282 0.79324839 0.56772505
vn -0.20604079 0.82816360 0.52124106
vn -0.16792921 0.88669366 0.43078316
vn -0.12568134 0.94429639 0.30415213
vn -0.11596077 0.97247839 0.20208632
vn -0.02608902 0.98536201 -0.16846683
vn 0.00871573 0.99856510 -0.05283726
vn 0.05381357 0.98351576 -0.17262921
vn -0.64231506 0.62583614 -0.44244829
vn -0.01569325 0.93367267 -0.35778354
vn -0.09731405 0.98801153 -0.11984656
vn -0.32061588 0.88959025 -0.32532238
vn -0.67765126 0.59145534 -0.43700040
vn -0.71443591 0.63377326 -0.29650089
vn -0.36017706 0.64029676 -0.67844863
vn -0.49987641 0.49712123 -0.70922074
vn -0.61713926 0.24136879 -0.74891938
vn -0.04909614 0.99847485 -0.02524980
vn -0.07002571 0.89087724 -0.44881415
vn -0.17229315 0.45351081 -0.87443869
vn 0.04620839 0.78830096 -0.61355226
vn 0.05456084 0.57812684 -0.81412068
vn -0.03462778 0.63163712 -0.77449046
vn -0.04627231 0.67905700 -0.73262574
vn -0.04362817 0.46876371 -0.88224552
vn -0.62939542 0.53412389 -0.56442279
vn -0.06823994 0.91159801 -0.40537929
vn -0.21135493 0.81810754 -0.53481692
vn -0.62086938 0.44655600 -0.64428949
vn 0.21934836 0.01713064 -0.97549620
vn -0.00021568 0.11115172 -0.99380343
vn 0.15753625 0.23258466 -0.95973262
vn 0.06285277 0.00186382 -0.99802107
vn 0.06438615 -0.16727554 -0.98380553
vn 0.08026520 -0.08133458 -0.99344964
vn -0.05829709 -0.14507029 -0.98770241
vn 0.11530349 -0.38993184 -0.91359634
vn 0.21208785 -0.39465780 -0.89401564
vn -0.15664194 -0.03268157 -0.98711459
vn 0.06521449 -0.57068788 -0.81857340
vn 0.18490560 -0.43359376 -0.88193332
vn 0.31269509 -0.76573773 -0.56202091
vn 0.44558872 -0.69314663 -0.56656724
vn 0.33295121 -0.60533747 -0.72298689
vn 0.18376393 -0.51874600 -0.83494515
vn -0.01121511 -0.77418300 -0.63286247
vn -0.09003979 -0.99593634 0.00190882
vn -0.38003058 -0.91442757 0.13928022
vn -0.98941128 -0.04795043 -0.13698931
vn -0.97850018 -0.20591723 0.01163987
vn -0.54300065 0.61388735 0.57296825
vn -0.21756879 0.85680259 0.46749668
vn -0.39589350 0.91751849 0.03779094
vn -0.66067408 0.73778288 -0.13851421
vn -0.24261056 0.91543909 0.32110962
vn -0.17764852 0.95530862 0.23627621
vn -0.21590330 0.67937288 0.70131181
vn -0.02958661 0.69945694 0.71406206
vn -0.07039682 0.99229491 0.10195640
vn -0.04956948 0.97316312 0.22471406
vn -0.05007892 0.99416786 0.09551110
vn -0.02136639 0.99948186 0.02407276
vn 0.04112687 0.99169758 0.12183797
vn 0.09673464 0.99039021 0.09884148
vn 0.09071231 0.95055697 0.29700628
vn 0.07291786 0.99733758 -0.00085315
vn 0.14791826 0.48760012 -0.86044541
vn 0.05806891 0.38514941 -0.92102548
vn 0.16220310 0.43088600 -0.88770908
vn 0.14972774 0.29440066 -0.94388021
vn 0.39826544 0.63768268 -0.65935229
vn 0.22848666 0.14506495 -0.96267856
vn 0.21889265 0.21272297 -0.95227882
vn 0.23178917 0.09622972 -0.96799464
vn 0.01820644 -0.66663172 -0.74516486
vn 0.04992522 -0.67834819 -0.73304243
vn 0.09791507 -0.76281694 -0.63915800
vn -0.02950852 -0.97687724 -0.21175484
vn -0.01055338 -0.91963677 -0.39262811
vn -0.13289337 -0.96503351 0.22594175
vn -0.30922788 -0.88135039 0.35721088
vn -0.12552341 -0.88532576 0.44770768
vn -0.63884513 -0.43821154 0.63233499
vn -0.72491521 -0.62973605 0.27916026
vn -0.57446385 -0.44667536 0.68590991
vn -0.33460276 -0.62539370 0.70492816
vn -0.91198589 -0.12160028 0.39178451
vn -0.97201463 -0.10333263 0.21097378
vn -0.77620391 -0.59387224 0.21171503
vn -0.21482371 -0.39287894 0.89414591
vn -0.30196677 -0.36467089 0.88081281
vn -0.32942607 -0.49118558 0.80635922
vn -0.21914717 -0.45223636 0.86455584
vn -0.10094023 -0.45302905 0.88576281
vn -0.21675524 -0.09903879 0.97118921
vn -0.24670454 -0.11289717 0.96249213
vn -0.54903439 -0.48333612 0.68187055
vn -0.84831512 -0.46004892 0.26213823
vn -0.98062638 -0.15098435 0.12480234
vn -0.98701045 -0.06356704 -0.14754522
vn -0.97666149 0.21149168 -0.03746471
vn -0.83980776 0.42241342 0.34101295
vn -0.20077075 0.64734715 0.73527734
vn -0.17978442 0.48707676 0.85465419
vn -0.17446738 0.46727793 0.86672514
vn -0.03882605 0.50950818 0.85958941
vn -0.71017326 0.41176507 0.57105470
vn -0.04596129 0.87155763 0.48813406
vn 0.01546034 0.91423041 0.40489967
vn 0.05212525 0.94736893 0.31587193
vn 0.18811336 0.55347631 -0.81134292
vn 0.19724117 0.71592333 -0.66973854
vn 0.14876813 0.75577967 -0.63770302
vn 0.21647981 0.55471550 -0.80338485
vn 0.46495267 0.70442310 -0.53629014
vn 0.35575720 0.84821183 -0.39239458
vn 0.47739699 0.77017582 -0.42299092
vn 0.20259952 0.34665631 -0.91585088
vn 0.43539303 0.35218872 -0.82849020
vn 0.44766763 0.50141854 -0.74038716
vn 0.46546191 0.14566019 -0.87299961
vn 0.20627547 -0.48968539 -0.84714736
vn 0.10411505 -0.56484397 -0.81860329
vn -0.61719302 -0.56860750 -0.54383664
vn 0.06693155 -0.87783338 -0.47426651
vn -0.02627922 -0.96941527 -0.24401523
vn -0.07703295 -0.98170958 0.17410406
vn -0.11344500 -0.91333240 0.39109355
vn -0.13086445 -0.82583345 0.54851948
vn -0.21849396 -0.72004289 0.65863391
vn -0.15945349 -0.51588324 0.84168823
vn -0.18090942 -0.65246977 0.73590419
vn -0.15809702 -0.66959205 0.72570780
vn -0.17198261 -0.39209416 0.90370579
vn -0.05321269 -0.41472533 0.90838941
vn -0.10447410 -0.34385375 0.93319331
vn -0.18976771 -0.60430266 0.77382590
vn -0.35135123 -0.09391327 0.93152166
vn -0.21650036 0.18445737 0.95869863
vn -0.25985634 0.20550718 0.94352609
vn -0.24661862 -0.08705676 0.96519447
vn -0.89350687 -0.34972829 0.28166575
vn -0.73005654 -0.01369052 0.68324961
vn -0.95303183 0.16196717 0.25592377
vn -0.86350734 0.19639778 0.46452447
vn -0.52646700 0.42740481 0.73495416
vn -0.26795313 0.63284946 0.72643147
vn -0.26068319 0.35430333 0.89806093
vn 0.11720945 0.18179808 0.97632546
vn 0.01953788 0.22478960 0.97421143
vn 0.00273683 -0.01900292 0.99981568
vn 0.08237591 0.98969542 0.11712035
vn 0.11391069 0.98920631 -0.09216954
vn 0.09364992 0.99549277 -0.01496127
vn 0.43414532 0.90014177 -0.03553361
vn 0.30366373 0.92740225 -0.21843399
vn 0.34844116 0.93095078 0.10917603
vn 0.14095756 0.93063598 -0.33770940
vn 0.15802387 0.85552627 -0.49305503
vn 0.13876224 0.87815074 -0.45781691
vn 0.47326049 0.33591497 -0.81436210
vn 0.30416133 0.13709872 -0.94270347
vn -0.61577369 -0.65790447 -0.43357177
vn 0.13139813 -0.93318527 -0.33451425
vn -0.05593427 -0.99424050 -0.09141765
vn -0.10786235 -0.94262944 0.31593584
vn -0.22582173 -0.92431976 0.30763214
vn -0.43205034 -0.84975716 0.30206833
vn -0.22567811 -0.69206881 0.68564579
vn 0.02177143 -0.92090938 0.38916824
vn 0.07297374 -0.99356491 0.08662337
vn -0.96446641 -0.26026069 -0.04548528
vn -0.81445451 -0.57143413 -0.10063240
vn -0.77333645 -0.62593440 -0.10078129
vn -0.94334955 -0.32184535 -0.08066727
vn -0.99244270 0.09342150 -0.07956076
vn -0.56530922 -0.82017081 -0.08800753
vn -0.53189068 -0.83794869 -0.12220600
vn -0.21132939 -0.97594903 0.05351061
vn -0.94265363 -0.32918662 0.05513899
vn -0.82044012 -0.28444722 0.49595139
vn -0.60943010 -0.69664367 0.37852681
vn -0.33281574 0.15728452 0.92978237
vn -0.32999915 0.03902750 0.94317412
vn -0.37869587 -0.13984435 0.91489507
vn -0.40753976 0.32557911 0.85317618
vn 0.01115430 0.71836662 0.69557528
vn 0.16510724 0.13837931 0.97651972
vn 0.02931242 0.17971126 0.98328259
vn -0.70811427 0.57553930 0.40905830
vn 0.04040828 0.82313177 0.56641086
vn 0.08602370 0.98235291 0.16608037
vn 0.14214924 0.97241792 0.18492423
vn 0.22739119 0.96540770 0.12759788
vn 0.27084089 0.95103381 0.14892918
vn 0.27482789 0.93894036 -0.20702809
vn 0.10203122 -0.97791547 -0.18240328
vn -0.55127789 -0.73258587 -0.39926262
vn -0.61769326 -0.70885623 -0.34055526
vn -0.19111598 -0.88559558 0.42331448
vn -0.09231098 -0.84444477 0.52762839
vn 0.01073241 -0.63700572 0.77078436
vn -0.24175306 -0.96616986 -0.08984023
vn -0.84468072 -0.51868163 -0.13222648
vn -0.52967187 -0.83985996 -0.11867164
vn -0.97553937 -0.17907373 -0.12749720
vn -0.93538656 -0.33361871 -0.11726267
vn -0.89691337 0.41808770 0.14404543
vn -0.62966753 0.26881806 0.72887287
vn -0.09067717 0.26151374 0.96093091
vn -0.24742762 0.43666599 0.86492912
vn -0.18593203 0.45768360 0.86945673
vn -0.09504570 0.73548463 0.67084177
vn -0.00586821 0.38722776 0.92196542
vn -0.59154153 0.80451406 0.05325167
vn 0.08281111 0.98074165 0.17688451
vn -0.16582009 0.93604684 0.31035465
vn -0.64242828 0.54273933 0.54103598
vn -0.66106189 0.14550653 0.73608765
vn -0.12869282 0.92248509 0.36394976
vn 0.15672588 0.96787076 0.19662957
vn 0.30317926 0.95221780 0.03692690
vn 0.92496957 0.31999245 -0.20502715
vn 0.75466269 0.63425581 0.16793985
vn 0.02864694 0.99407450 -0.10485817
vn 0.96286730 -0.23167093 0.13861868
vn 0.05636670 0.98999126 -0.12938353
vn 0.91708068 -0.27572925 0.28798681
vn 0.72463901 -0.64284392 0.24829417
vn -0.09217167 -0.99279863 0.07651970
vn -0.04530828 -0.33610080 0.94073557
vn 0.16793978 -0.59062640 0.78927605
vn -0.06215539 -0.57358438 0.81678496
vn -0.72859047 -0.56675288 0.38463893
vn 0.85162531 -0.00149343 0.52414894
vn 0.69479895 -0.25940721 0.67079231
vn 0.06460375 -0.59914795 0.79802762
vn -0.16006560 0.61316982 0.77356433
vn -0.94783883 -0.24685545 0.20165303
vn 0.68096666 -0.52035030 0.51528630
vn -0.96995714 -0.20396396 0.13259660
vn -0.88267103 0.33916018 0.32536476
vn -0.90839394 0.40392770 -0.10799477
vn -0.99204591 0.06111081 -0.11004722
vn -0.92598129 0.36453257 -0.09835982
vn -0.99086350 0.06180787 -0.11987210
vn -0.87924580 0.47133576 -0.06906097
vn -0.94986153 0.30710082 -0.05875517
vn -0.79728401 0.59932135 -0.07177827
vn -0.63772280 0.76743147 -0.06601941
vn -0.22371307 0.28086263 0.93331058
vn -0.55372852 0.76153017 0.33683309
vn 0.31816572 0.94716341 0.04064529
vn 0.27598555 0.63230799 0.72389128
vn 0.26797383 0.75897047 0.59342552
vn 0.00797299 -0.99593615 0.08970850
vn 0.03820757 -0.97240477 0.23015025
vn 0.05796336 -0.93390403 0.35279386
vn 0.11675096 -0.87217713 0.47505395
vn -0.02612123 -0.93691603 0.34857715
vn -0.10686661 -0.87811847 0.46635552
vn -0.05705589 -0.79585295 0.60279574
vn -0.62521825 -0.77293874 0.10801785
vn -0.18240085 -0.75686361 0.62760450
vn -0.67379273 -0.72926474 -0.11906422
vn -0.90974099 0.40486744 -0.09194390
vn -0.84344232 0.53152410 -0.07802034
vn -0.69625333 0.71475505 -0.06600389
vn -0.81090822 0.57985977 -0.07867979
vn -0.82294746 0.56191354 -0.08372963
vn -0.65758018 0.75097672 -0.06018527
vn -0.36227285 0.93196175 -0.01434140
vn -0.28662747 0.95771249 -0.02512937
vn 0.65495416 0.75236466 0.07058655
vn 0.37085131 0.92762769 0.04445427
vn 0.74282943 0.66471984 0.07969926
vn 0.96911089 0.20422887 0.13825573
vn 0.67796980 0.70918401 0.19342952
vn 0.93976733 0.33294515 0.07736213
vn 0.98282531 -0.15333127 0.10268362
vn 0.86669228 -0.47749785 0.14436165
vn 0.97097263 0.07994586 0.22543472
vn 0.47305922 0.04522869 0.87986894
vn 0.30816378 0.43652314 0.84527075
vn 0.03735157 -0.87587694 0.48108673
vn -0.10956863 -0.89660912 0.42905338
vn 0.06875154 -0.99586300 -0.05941475
vn 0.13670376 -0.98930762 -0.05081836
vn -0.15491490 -0.98459843 -0.08103895
vn -0.89012694 -0.43554244 -0.13407765
vn -0.96631904 -0.22431524 -0.12613557
vn -0.98805533 0.10753390 -0.11037716
vn -0.11392210 0.99347876 0.00465832
vn 0.56311753 -0.82617994 -0.01803750
vn 0.57038849 -0.81963168 0.05348726
vn 0.34744927 -0.93692509 -0.03808394
vn 0.29931711 -0.95414919 -0.00293174
vn 0.82695244 -0.49631671 0.26423358
vn 0.39688968 -0.90281953 0.16551580
vn 0.17406479 -0.81906668 0.54665458
vn 0.13365578 -0.83991759 0.52599865
vn 0.21542060 -0.97556349 -0.04324175
vn -0.98524841 0.14245511 -0.09482675
vn -0.91895475 0.38856458 -0.06737759
vn -0.50449966 0.86309269 -0.02347563
vn -0.39405695 0.91894096 0.01632920
vn -0.22259327 0.97466019 0.02213029
vn -0.63146533 0.77511360 -0.02122356
vn -0.79529884 0.60369059 -0.05529393
vn -0.39422543 0.91861909 -0.02693075
vn 0.13931343 0.99005836 0.01939600
vn 0.47925878 0.87460843 0.07328792
vn 0.47363946 0.87821540 0.06635788
vn 0.67070330 0.73362935 0.10929349
vn 0.69894328 0.71148653 0.07256173
vn 0.50768305 0.86067038 -0.03878673
vn 0.55646171 0.82807618 0.06811910
vn 0.39712454 0.91713176 0.03407988
vn 0.91381349 0.39718159 0.08480385
vn 0.99764517 0.01426573 0.06708648
vn 0.66103406 0.74856405 0.05182509
vn 0.58731532 -0.80935538 -0.00213933
vn 0.74728456 -0.66450067 0.00215613
vn 0.89662166 -0.44054054 0.04465021
vn -0.42122168 -0.90104324 -0.10340873
vn -0.17212038 -0.98157801 -0.08294083
vn -0.66233286 -0.74036103 -0.11480735
vn -0.65599109 -0.74458297 -0.12357951
vn -0.81928767 -0.56088604 -0.11905694
vn -0.54642494 -0.83173294 -0.09818407
vn -0.98154284 -0.15021218 -0.11836368
vn -0.09374158 0.99483311 0.03898207
vn -0.18334001 0.98296910 0.01257733
vn 0.13646581 0.98856638 0.06413731
vn 0.38866220 0.91951320 0.05862739
vn 0.40193683 0.91064458 0.09577695
vn 0.58012997 0.80315546 0.13561167
vn 0.98400311 0.11355088 0.13727370
vn 0.97408540 0.17861411 0.13876109
vn 0.86616270 0.48277177 0.12920370
vn 0.95708995 -0.26293274 0.12184085
vn 0.98267249 -0.11816867 0.14279689
vn 0.98099582 -0.17360821 0.08664519
vn 0.85539904 -0.51553411 0.05017030
vn 0.90858882 0.40511613 0.10172157
vn 0.99451742 0.07229402 0.07555581
vn 0.60084333 -0.79847706 0.03770511
vn 0.80589099 -0.58731421 0.07484463
vn 0.52857093 -0.84871221 -0.01733087
vn 0.88819246 -0.44329982 0.12082807
vn 0.59133987 0.79949311 0.10548895
vn 0.08730172 0.99508208 0.04679808
vn -0.35823277 0.93346773 -0.01752935
vn -0.02185087 0.99963510 0.01588083
vn -0.06776886 0.99765495 0.00959040
vn 0.99307645 -0.07735326 0.08840614
vn 0.97683832 0.18004931 0.11562505
vn 0.96493431 -0.25201040 0.07343384
vn 0.91200007 -0.39758813 0.10089374
vn 0.68912750 -0.72259755 0.05436970
vn 0.74725368 -0.66278640 0.04822995
vn 0.49225207 -0.87045261 0.00040122
vn 0.33149044 -0.94332136 -0.01609017
vn 0.07544258 -0.99558485 -0.05585010
vn 0.43920818 -0.89807407 -0.02364611
vn -0.34155949 -0.93478262 -0.09756321
vn -0.53359384 -0.84018222 -0.09680624
vn -0.84761789 -0.51465037 -0.12914683
vn -0.28903340 0.95726138 0.01050444
vn 0.20960991 0.97643448 0.05137501
vn 0.00935757 0.99958910 0.02709357
vn 0.18963240 0.98113071 0.03771062
vn 0.61152726 0.78530120 0.09662521
vn 0.74095472 0.66306680 0.10643559
vn 0.63560609 0.76738326 0.08442649
vn 0.52892949 0.84780789 0.03814923
vn 0.43340790 0.89823228 0.07305040
vn 0.64428827 0.76021739 0.08343948
vn 0.82428591 0.55268592 0.12284546
vn 0.41723771 0.90610717 0.06987479
vn 0.77020494 0.63269256 0.08052629
vn 0.94852824 0.28277778 0.14258651
vn 0.97495243 -0.21849994 0.04153960
vn 0.11717594 -0.99206983 -0.04546698
vn 0.47248339 -0.86094697 0.18849342
vn -0.11983932 -0.73975181 0.66212220
vn -0.30104613 -0.90695611 0.29462153
vn 0.04232703 -0.98355268 0.17559197
vn -0.20069331 -0.97691465 -0.07321181
vn 0.64731727 -0.75793444 0.08072010
vn 0.86352804 0.49275301 0.10730235
vn 0.62777492 0.77151368 0.10327292
vn 0.81002328 0.57889236 0.09351958
vn 0.55459630 0.82916484 0.07006146
vn 0.35763783 0.92952294 0.08990155
vn 0.25338101 0.96644441 0.04222877
vn 0.48729515 0.87125820 0.05875872
vn 0.84447205 0.52847867 0.08704743
vn 0.64851318 0.75741943 0.07580539
vn 0.99853355 -0.02824431 0.04618458
vn 0.85127193 -0.52333267 0.03819704
vn 0.44224514 -0.89686151 0.00765952
vn -0.98152990 0.17517619 -0.07689190
vn -0.47583242 0.87950898 -0.00688974
vn -0.45723979 0.88911692 -0.02007193
vn -0.08860745 0.99603979 0.00731152
vn -0.31647119 0.65420836 0.68691878
vn -0.06711337 0.37618326 0.92411144
vn -0.05328975 0.89066636 0.45152369
vn 0.20212497 -0.42057722 0.88445480
vn 0.38851410 0.09155128 0.91688339
vn -0.10249808 -0.03736132 0.99403132
vn 0.04424877 -0.38358113 0.92244651
vn 0.94848754 -0.06626052 0.30980789
vn 0.37611464 -0.10868414 0.92017691
vn 0.69577372 -0.40509370 0.59312564
vn 0.70729787 0.52005341 0.47882582
vn 0.80976040 0.26866875 0.52163703
vn 0.85051477 -0.51056448 0.12628749
vn 0.13447797 -0.82129216 0.55443203
vn 0.56683202 -0.69986468 0.43461580
vn 0.02854847 -0.99824572 -0.05186963
vn 0.34933356 -0.93674210 -0.02191575
vn 0.68226562 -0.72802371 0.06704551
vn 0.99195208 0.05742985 0.11284011
vn 0.89137846 -0.44910147 0.06125614
vn 0.97184574 -0.23380270 0.02919179
vn 0.99614752 -0.05954671 0.06437626
vn 0.43262818 0.89804310 0.07969603
vn 0.59288914 0.80272109 0.06419742
vn 0.61143484 0.78910401 0.05884132
vn 0.90057212 0.43072992 0.05866503
vn 0.72375258 0.68562372 0.07811727
vn -0.73345380 -0.67096103 -0.10888899
vn -0.98973123 -0.09911521 -0.10299648
vn -0.92796769 -0.35678682 -0.10760637
vn -0.69244169 0.72026449 -0.04175598
vn 0.14490746 0.98100178 0.12898581
vn 0.20365989 0.89788424 0.39029033
vn 0.12182258 0.54365082 0.83042341
vn 0.38927952 0.76284915 0.51625829
vn 0.23267423 0.30147766 0.92464800
vn -0.26534168 0.21703773 0.93940855
vn -0.11336812 -0.30211311 0.94650691
vn -0.27651225 -0.39576572 0.87573425
vn -0.58655424 -0.74893949 0.30829168
vn -0.53450263 -0.38662429 0.75155080
vn -0.47875398 -0.87189944 -0.10288829
vn -0.51185199 -0.85238171 -0.10701851
vn -0.30369472 -0.94992529 -0.07356270
vn -0.91158806 -0.38415450 -0.14639854
vn -0.98286942 -0.13385570 -0.12669002
vn -0.82788411 -0.54155531 -0.14603337
vn -0.64267689 -0.75725168 -0.11634565
vn -0.86985708 -0.47893716 -0.11818568
vn -0.95341643 -0.27723803 -0.11889572
vn -0.21195148 -0.97419208 -0.07762970
vn -0.47337454 -0.87501551 -0.10131343
vn -0.47838116 -0.87380052 -0.08731620
vn -0.72678521 -0.67731736 -0.11412476
vn -0.17778041 -0.98159300 -0.06978042
vn 0.30128686 -0.95351831 -0.00539099
vn 0.43182086 -0.90193641 0.00643933
vn 0.44407911 -0.89591219 0.01162274
vn 0.97211822 0.22456907 0.06748996
vn 0.56140812 -0.82748004 0.00988449
vn 0.79122653 -0.61142425 0.01099859
vn 0.99517743 0.08911924 0.04098353
vn 0.49457488 -0.86843611 -0.03484828
vn 0.66648459 -0.74551025 0.00357254
vn -0.19312554 -0.97844750 -0.07309596
vn 0.05523903 -0.99693886 -0.05533143
vn 0.12945994 -0.99045734 -0.04726925
vn -0.14136916 -0.98849974 -0.05369372
vn -0.73441047 -0.67303865 -0.08752277
vn -0.46532078 -0.88226056 -0.07136437
vn -0.98321859 -0.14868234 -0.10571077
vn -0.69434047 0.71745544 -0.05611590
vn 0.49827966 0.86584000 0.04514950
vn 0.49653683 0.85970065 0.11985813
vn 0.49211076 0.86780567 0.06884992
vn 0.70120713 0.66897277 0.24654411
vn -0.51088162 -0.12376991 0.85069441
vn -0.53615557 0.17159500 0.82649402
vn -0.83398726 -0.40170102 0.37828763
vn -0.92380468 0.01549862 0.38255027
vn -0.94701109 -0.32095686 0.01251736
vn -0.77010370 -0.63707633 -0.03277266
vn -0.69165515 -0.70959397 -0.13449740
vn 0.05458027 -0.99803353 -0.03082315
vn 0.37788443 -0.92584337 -0.00417391
vn 0.44578716 -0.89488242 0.02143059
vn 0.02213260 -0.99927399 -0.03101032
vn 0.27938692 -0.96013041 -0.00962030
vn 0.22666711 -0.97386019 -0.01477686
vn 0.24186514 -0.97030250 0.00378460
vn 0.40815296 -0.91285035 0.01074234
vn 0.35239272 -0.93544011 -0.02776985
vn 0.19337379 -0.98079125 -0.02559497
vn 0.41644418 -0.90914658 -0.00517159
vn -0.78431391 0.61422505 -0.08705906
vn -0.87250446 0.48222251 -0.07872368
vn -0.10792956 0.98889105 0.10220417
vn -0.37659328 0.90192973 0.21142435
vn -0.61729532 0.57770434 0.53404511
vn -0.82232572 0.51694828 0.23779170
vn -0.97155730 0.16847694 -0.16640895
vn -0.99107275 0.00659996 -0.13315874
vn -0.92716149 0.33856568 -0.16045205
vn -0.62171349 0.78302201 0.01867806
vn -0.92566469 0.36109772 -0.11293060
vn -0.99051125 0.07795858 -0.11318089
vn -0.74627138 -0.65912117 -0.09294251
vn -0.84694630 -0.52326042 -0.09423637
vn -0.60392335 -0.79415077 -0.06783175
vn -0.33199390 -0.94113963 -0.06353143
vn -0.88033259 -0.46587950 -0.08927952
vn -0.97611634 0.18110057 -0.11999780
vn -0.95077862 0.29651889 -0.08998090
vn -0.92261294 0.33496643 0.19126646
vn -0.88700779 0.45774252 -0.06073687
vn -0.98429630 0.13928569 -0.10844491
vn 0.32324736 -0.46892860 0.82195932
vn 0.12950624 -0.68958404 0.71253209
vn 0.10892227 0.99396641 0.01291159
vn 0.01642556 0.99955895 0.02474091
vn 0.27803518 -0.44643504 0.85052466
vn 0.34135994 0.84940843 -0.40246578
vn -0.51226152 0.24904706 0.82192682
vn 0.48692338 0.50017874 -0.71604947
vn 0.48054966 0.63283022 -0.60712267
vn 0.15262166 -0.49033420 -0.85806701
vn 0.14730612 -0.43807696 -0.88678604
vn 0.41644029 0.47354623 -0.77610016
vn 0.17864394 0.22273544 -0.95837115
vn 0.05520274 0.99562351 -0.07540882
vn 0.03315544 0.98086734 -0.19183319
vn 0.11100557 0.94865514 -0.29619451
vn -0.60149761 0.73515049 -0.31265697
vn -0.53685663 0.68677817 -0.49002113
vn 0.22124172 0.82613684 -0.51821813
vn 0.35178607 0.17263643 -0.92002349
vn 0.39579389 0.40981952 -0.82182429
vn 0.34914450 0.18019938 -0.91957942
vn -0.42469111 -0.63477164 -0.64552492
vn 0.35035584 -0.64985275 -0.67449403
vn 0.66649552 -0.58842327 -0.45775734
vn 0.10784492 0.20107083 0.97362210
vn 0.18608328 -0.42753741 -0.88463822
vn 0.62130575 -0.76911654 -0.14979626
vn 0.30379034 -0.26170055 -0.91609184
vn 0.34105286 -0.21522956 -0.91507332
vn 0.22401106 -0.40542704 -0.88625502
vn -0.47344666 0.44041996 -0.76280962
vn -0.50929786 0.56957340 -0.64513707
vn 0.22330933 -0.13195015 -0.96577539
vn -0.01138663 0.88955031 0.45669529
vn 0.08873796 0.97458695 -0.20568386
vn 0.23787208 -0.09868603 -0.96627012
vn 0.15081779 -0.55319839 -0.81928355
vn 0.27061560 -0.60504041 -0.74879457
vn 0.18254426 -0.54818206 -0.81619484
vn 0.12594951 0.95783122 0.25825584
vn 0.48715675 0.78140866 -0.38997281
vn 0.49560392 0.48517983 -0.72040078
vn 0.31435082 0.05526830 -0.94769667
vn 0.48518648 0.27919837 -0.82863885
vn 0.24332777 -0.09717897 -0.96506365
vn 0.17799038 -0.79480904 -0.58017068
vn 0.13514926 -0.77311207 -0.61970348
vn -0.46506607 -0.39020987 -0.79463816
vn -0.50489975 -0.68657128 -0.52315975
vn -0.79885313 0.41813698 0.43242936
vn -0.08930697 0.58436410 0.80656237
vn -0.74310113 0.57808981 0.33706509
vn -0.02507142 0.76885568 0.63893064
vn 0.07130935 0.84475122 0.53038699
vn 0.14321631 0.85320135 -0.50153419
vn 0.63226755 0.01638941 -0.77457674
vn 0.84339149 0.21430928 -0.49270918
vn 0.89932277 -0.11360318 -0.42227108
vn 0.57985988 -0.49261462 -0.64891706
vn 0.30233305 -0.21965997 -0.92754742
vn 0.58764137 -0.49314147 -0.64147418
vn 0.11323731 -0.71949458 -0.68520425
vn -0.60887210 -0.68474730 -0.40049458
vn 0.20770807 -0.91170736 -0.35446726
vn -0.57142234 -0.71907340 -0.39548699
vn 0.11220608 -0.94373770 -0.31107708
vn 0.10402494 -0.98768040 -0.11690273
vn -0.59580599 -0.75926968 -0.26177237
vn 0.24256780 0.81880526 0.52030646
vn 0.32142848 0.91710217 -0.23581211
vn 0.46844530 0.88143927 -0.06019804
vn 0.72775690 0.52806600 -0.43762563
vn 0.93214364 0.20977126 -0.29513431
vn 0.93676969 -0.27359824 -0.21818927
vn 0.40208494 -0.12694314 -0.90675969
vn 0.50390580 -0.34309217 -0.79269585
vn 0.33011305 -0.56506418 -0.75612687
vn 0.05621040 -0.99443021 0.08915684
vn 0.06912942 -0.99754570 -0.01112212
vn 0.30407739 -0.88799729 -0.34496051
vn 0.12324779 -0.98125076 -0.14817872
vn 0.15229976 -0.90525447 -0.39663477
vn 0.08278353 -0.96550258 -0.24688389
vn -0.79198847 0.31269850 0.52437955
vn -0.03035798 0.32024001 0.94684990
vn 0.29707861 0.92333179 0.24331606
vn 0.24693795 0.96651868 0.06973726
vn 0.80587444 0.58135094 -0.11223845
vn 0.95139120 0.29567417 -0.08620657
vn 0.98913077 0.11606807 0.09026918
vn 0.99359439 -0.01326952 -0.11222346
vn 0.93057975 -0.28919099 -0.22447695
vn 0.98359899 -0.17894416 0.02262778
vn 0.90969345 0.00555796 -0.41524322
vn 0.11441141 -0.90485546 -0.41005686
vn 0.50907496 -0.85460977 -0.10239542
vn 0.03665323 -0.97454180 0.22118958
vn 0.04814816 -0.95689296 0.28642210
vn 0.09312566 0.22392288 0.97014749
vn 0.00775851 0.39409354 0.91903759
vn 0.59269960 0.72140758 0.35815957
vn 0.80975408 0.58297563 -0.06661637
vn 0.98467579 -0.08443572 0.15259160
vn 0.80441311 -0.24373222 -0.54176947
vn 0.40990681 -0.68989183 -0.59667887
vn 0.15702447 -0.81790723 -0.55350797
vn 0.14489482 -0.83672483 -0.52810705
vn 0.67310494 -0.69889236 -0.24182474
vn 0.92102454 -0.38817963 0.03209941
vn 0.30449037 -0.94831232 0.08938317
vn -0.07909669 -0.85101544 0.51914972
vn 0.01172487 -0.91912145 0.39379981
vn -0.11161307 -0.44894982 0.88655884
vn 0.63529085 0.76184454 0.12648488
vn 0.99728351 -0.05412290 0.04996311
vn 0.83536293 -0.50170670 -0.22463117
vn 0.95197018 -0.29176003 0.09289165
vn 0.61878219 -0.75988502 0.19920680
vn 0.12934588 -0.95945601 0.25042726
vn -0.09458644 -0.71758358 0.69001972
vn -0.02299931 -0.63490031 0.77225166
vn -0.07925425 -0.59734282 0.79806035
vn -0.78375436 -0.45461480 0.42314830
vn -0.80838907 -0.36887465 0.45873587
vn -0.00019661 -0.45587907 0.89004170
vn 0.19221734 0.66215190 0.72429784
vn 0.93761828 0.24482317 0.24684727
vn 0.62538645 0.56110925 0.54226211
vn 0.92997805 0.16063512 0.33066173
vn 0.99178039 -0.01516488 0.12704992
vn 0.93058013 0.34472614 0.12322546
vn 0.98355072 -0.07789521 0.16297334
vn 0.99202887 -0.04045959 0.11933875
vn 0.98640025 -0.04832473 0.15709637
vn 0.09952862 -0.88190666 0.46079790
vn 0.00822673 -0.76836115 0.63996365
vn 0.49680853 -0.78382629 0.37255554
vn -0.02588596 -0.24878595 0.96821251
vn 0.67709775 0.36582868 0.63852017
vn 0.30753785 0.48308343 0.81978709
vn 0.04314792 0.47855587 0.87699631
vn 0.27953904 0.31359415 0.90747817
vn -0.00621213 0.27206259 0.96225951
vn 0.02295767 0.57290969 0.81929691
vn 0.02832766 0.24066432 0.97019494
vn 0.94191400 -0.17152955 0.28874838
vn 0.27105996 -0.76771013 0.58064417
vn 0.40599302 0.06180900 0.91178359
vn 0.68465082 0.15712081 0.71173471
vn 0.92174269 -0.00798666 0.38771977
vn 0.67222764 -0.30181950 0.67602884
vn 0.92070763 -0.34319818 0.18577534
vn 0.76660226 -0.50344418 0.39857864
vn 0.61411026 -0.53103920 0.58383727
vn 0.03740831 -0.66323156 0.74747877
vn 0.15439232 -0.35112058 0.92351359
vn 0.00413910 -0.03690414 0.99931024
vn 0.48746373 -0.11647578 0.86533953
vn 0.00945005 -0.49199815 0.87054496
vn 0.26875911 -0.59451407 0.75784006
vn 0.38865669 0.73892848 -0.55039138
vn 0.08107439 0.98892659 -0.12430258
vn 0.26187059 0.69864703 -0.66581989
f 1//1 2//2 3//3
f 4//4 1//1 3//3
f 5//5 6//6 1//1
f 2//2 1//1 6//6
f 7//7 4//4 8//8
f 9//9 1//1 4//4
f 10//10 9//9 11//11
f 5//5 12//12 13//13
f 12//12 5//5 9//9
f 14//14 6//6 5//5
f 15//15 2//2 6//6
f 2//2 15//15 16//16
f 16//16 3//3 2//2
f 17//17 18//18 19//19
f 18//18 17//17 8//8
f 8//8 17//17 20//20
f 8//8 21//21 7//7
f 20//20 22//22 8//8
f 17//17 19//19 23//23
f 17//17 23//23 20//20
f 24//24 20//20 25//25
f 21//21 8//8 22//22
f 26//26 27//27 28//28
f 26//26 28//28 29//29
f 30//30 31//31 7//7
f 8//8 4//4 3//3
f 32//32 33//33 34//34
f 34//34 10//10 32//32
f 13//13 12//12 10//10
f 34//34 35//35 13//13
f 35//35 36//36 5//5
f 36//36 14//14 5//5
f 36//36 37//37 14//14
f 6//6 14//14 15//15
f 38//38 25//25 39//39
f 40//40 24//24 41//41
f 42//42 21//21 43//43
f 42//42 43//43 44//44
f 45//45 44//44 46//46
f 42//42 44//44 47//47
f 48//48 49//49 50//50
f 51//51 52//52 50//50
f 53//53 54//54 55//55
f 55//55 56//56 57//57
f 57//57 53//53 55//55
f 58//58 26//26 29//29
f 26//26 59//59 27//27
f 59//59 60//60 61//61
f 30//30 60//60 31//31
f 60//60 62//62 63//63
f 7//7 31//31 4//4
f 4//4 31//31 64//64
f 11//11 4//4 64//64
f 65//65 53//53 58//58
f 66//66 26//26 58//58
f 53//53 66//66 58//58
f 63//63 64//64 31//31
f 11//11 64//64 67//67
f 10//10 11//11 67//67
f 68//68 69//69 70//70
f 67//67 62//62 71//71
f 70//70 32//32 71//71
f 72//72 10//10 67//67
f 32//32 72//72 71//71
f 67//67 71//71 72//72
f 56//56 73//73 68//68
f 57//57 74//74 53//53
f 75//75 62//62 60//60
f 59//59 66//66 75//75
f 68//68 66//66 74//74
f 68//68 74//74 57//57
f 70//70 71//71 66//66
f 68//68 70//70 66//66
f 75//75 66//66 71//71
f 71//71 62//62 75//75
f 66//66 59//59 26//26
f 74//74 66//66 53//53
f 56//56 68//68 57//57
f 62//62 67//67 63//63
f 67//67 64//64 63//63
f 75//75 60//60 59//59
f 76//76 69//69 73//73
f 73//73 69//69 68//68
f 69//69 33//33 70//70
f 33//33 32//32 70//70
f 77//77 78//78 79//79
f 77//77 80//80 81//81
f 77//77 81//81 78//78
f 82//82 81//81 80//80
f 82//82 83//83 81//81
f 35//35 78//78 81//81
f 13//13 35//35 5//5
f 37//37 84//84 85//85
f 83//83 82//82 86//86
f 85//85 83//83 86//86
f 87//87 85//85 86//86
f 81//81 36//36 35//35
f 83//83 85//85 81//81
f 88//88 89//89 90//90
f 91//91 88//88 90//90
f 88//88 92//92 89//89
f 19//19 16//16 93//93
f 39//39 94//94 38//38
f 38//38 41//41 24//24
f 95//95 41//41 38//38
f 96//96 22//22 97//97
f 43//43 21//21 96//96
f 98//98 99//99 46//46
f 45//45 47//47 44//44
f 100//100 47//47 45//45
f 101//101 42//42 47//47
f 28//28 100//100 102//102
f 52//52 103//103 50//50
f 49//49 48//48 104//104
f 105//105 49//49 104//104
f 51//51 106//106 52//52
f 106//106 58//58 52//52
f 107//107 65//65 108//108
f 109//109 107//107 110//110
f 111//111 110//110 112//112
f 111//111 113//113 110//110
f 65//65 107//107 109//109
f 53//53 65//65 109//109
f 110//110 113//113 109//109
f 114//114 115//115 69//69
f 114//114 69//69 76//76
f 116//116 115//115 114//114
f 79//79 117//117 118//118
f 119//119 120//120 121//121
f 122//122 123//123 124//124
f 122//122 37//37 123//123
f 14//14 93//93 15//15
f 125//125 39//39 126//126
f 38//38 127//127 95//95
f 128//128 127//127 129//129
f 128//128 130//130 131//131
f 132//132 130//130 133//133
f 132//132 134//134 130//130
f 134//134 22//22 135//135
f 135//135 136//136 131//131
f 136//136 40//40 41//41
f 40//40 136//136 135//135
f 40//40 135//135 22//22
f 130//130 134//134 135//135
f 137//137 138//138 139//139
f 140//140 137//137 141//141
f 137//137 140//140 142//142
f 143//143 137//137 142//142
f 138//138 144//144 132//132
f 132//132 144//144 145//145
f 97//97 134//134 145//145
f 146//146 97//97 145//145
f 97//97 22//22 134//134
f 96//96 147//147 43//43
f 44//44 43//43 148//148
f 46//46 148//148 149//149
f 104//104 48//48 150//150
f 104//104 151//151 152//152
f 105//105 153//153 154//154
f 153//153 105//105 104//104
f 49//49 155//155 51//51
f 156//156 107//107 155//155
f 156//156 157//157 107//107
f 158//158 159//159 160//160
f 159//159 158//158 161//161
f 162//162 163//163 164//164
f 117//117 116//116 165//165
f 120//120 119//119 165//165
f 166//166 165//165 158//158
f 120//120 165//165 166//166
f 158//158 162//162 167//167
f 166//166 168//168 120//120
f 169//169 170//170 92//92
f 124//124 170//170 171//171
f 124//124 123//123 37//37
f 126//126 172//172 173//173
f 172//172 93//93 124//124
f 19//19 93//93 126//126
f 93//93 172//172 126//126
f 19//19 126//126 39//39
f 38//38 94//94 127//127
f 127//127 94//94 174//174
f 127//127 174//174 175//175
f 127//127 175//175 176//176
f 128//128 129//129 177//177
f 139//139 178//178 137//137
f 179//179 178//178 180//180
f 181//181 182//182 183//183
f 181//181 183//183 184//184
f 181//181 178//178 179//179
f 178//178 181//181 141//141
f 184//184 141//141 181//181
f 140//140 141//141 184//184
f 142//142 140//140 185//185
f 186//186 187//187 188//188
f 145//145 134//134 132//132
f 189//189 146//146 145//145
f 189//189 145//145 144//144
f 190//190 189//189 144//144
f 191//191 146//146 192//192
f 191//191 148//148 147//147
f 98//98 149//149 191//191
f 193//193 191//191 192//192
f 191//191 193//193 98//98
f 194//194 193//193 195//195
f 150//150 151//151 104//104
f 153//153 152//152 196//196
f 152//152 197//197 198//198
f 196//196 154//154 153//153
f 199//199 200//200 201//201
f 201//201 113//113 111//111
f 202//202 203//203 204//204
f 205//205 203//203 163//163
f 206//206 205//205 163//163
f 160//160 207//207 206//206
f 163//163 162//162 206//206
f 208//208 209//209 168//168
f 172//172 124//124 171//171
f 210//210 172//172 171//171
f 210//210 211//211 172//172
f 94//94 212//212 174//174
f 126//126 173//173 212//212
f 172//172 211//211 173//173
f 126//126 212//212 125//125
f 125//125 212//212 94//94
f 174//174 213//213 175//175
f 176//176 129//129 127//127
f 182//182 181//181 179//179
f 214//214 215//215 216//216
f 217//217 218//218 214//214
f 219//219 220//220 221//221
f 219//219 222//222 223//223
f 220//220 224//224 225//225
f 226//226 215//215 214//214
f 216//216 215//215 184//184
f 227//227 228//228 229//229
f 229//229 185//185 140//140
f 186//186 185//185 230//230
f 143//143 142//142 186//186
f 195//195 187//187 186//186
f 188//188 137//137 143//143
f 231//231 232//232 138//138
f 190//190 144//144 232//232
f 192//192 146//146 190//190
f 190//190 146//146 189//189
f 195//195 193//193 233//233
f 234//234 235//235 236//236
f 198//198 235//235 196//196
f 237//237 238//238 155//155
f 200//200 239//239 240//240
f 204//204 241//241 242//242
f 241//241 204//204 200//200
f 202//202 243//243 203//203
f 244//244 211//211 245//245
f 245//245 211//211 210//210
f 246//246 244//244 245//245
f 176//176 247//247 179//179
f 180//180 176//176 179//179
f 179//179 248//248 182//182
f 217//217 216//216 249//249
f 217//217 214//214 216//216
f 214//214 218//218 226//226
f 224//224 226//226 250//250
f 251//251 221//221 252//252
f 253//253 254//254 251//251
f 254//254 221//221 251//251
f 225//225 221//221 220//220
f 221//221 222//222 219//219
f 219//219 223//223 227//227
f 255//255 227//227 223//223
f 228//228 227//227 255//255
f 220//220 227//227 224//224
f 215//215 229//229 184//184
f 184//184 229//229 140//140
f 224//224 227//227 229//229
f 229//229 215//215 224//224
f 228//228 255//255 256//256
f 228//228 256//256 185//185
f 230//230 257//257 186//186
f 186//186 257//257 258//258
f 151//151 258//258 257//257
f 152//152 151//151 257//257
f 152//152 257//257 197//197
f 257//257 259//259 197//197
f 197//197 260//260 236//236
f 261//261 260//260 197//197
f 262//262 263//263 264//264
f 265//265 266//266 235//235
f 234//234 265//265 235//235
f 234//234 262//262 265//265
f 262//262 234//234 263//263
f 234//234 267//267 263//263
f 241//241 268//268 242//242
f 204//204 242//242 269//269
f 270//270 271//271 269//269
f 272//272 271//271 273//273
f 269//269 274//274 202//202
f 271//271 275//275 269//269
f 276//276 273//273 271//271
f 273//273 202//202 274//274
f 202//202 273//273 243//243
f 244//244 246//246 277//277
f 278//278 182//182 279//279
f 280//280 278//278 279//279
f 281//281 282//282 283//283
f 279//279 284//284 280//280
f 281//281 285//285 282//282
f 278//278 280//280 286//286
f 217//217 249//249 287//287
f 288//288 249//249 289//289
f 289//289 249//249 278//278
f 216//216 278//278 249//249
f 290//290 291//291 292//292
f 253//253 293//293 254//254
f 293//293 223//223 222//222
f 294//294 295//295 296//296
f 297//297 255//255 294//294
f 298//298 230//230 256//256
f 230//230 298//298 257//257
f 257//257 298//298 259//259
f 259//259 261//261 197//197
f 299//299 261//261 259//259
f 300//300 301//301 302//302
f 303//303 244//244 304//304
f 305//305 303//303 304//304
f 306//306 247//247 307//307
f 308//308 309//309 279//279
f 310//310 287//287 311//311
f 311//311 287//287 281//281
f 285//285 281//281 287//287
f 217//217 287//287 310//310
f 251//251 252//252 312//312
f 313//313 314//314 315//315
f 313//313 315//315 316//316
f 316//316 292//292 313//313
f 316//316 317//317 292//292
f 316//316 318//318 317//317
f 317//317 290//290 292//292
f 290//290 295//295 293//293
f 295//295 223//223 293//293
f 296//296 290//290 317//317
f 297//297 319//319 320//320
f 320//320 260//260 297//297
f 299//299 297//297 260//260
f 299//299 259//259 298//298
f 299//299 255//255 297//297
f 321//321 322//322 323//323
f 324//324 325//325 321//321
f 324//324 321//321 326//326
f 300//300 322//322 321//321
f 327//327 324//324 326//326
f 327//327 328//328 324//324
f 324//324 328//328 329//329
f 329//329 330//330 325//325
f 331//331 301//301 325//325
f 330//330 331//331 325//325
f 279//279 248//248 306//306
f 306//306 248//248 247//247
f 307//307 303//303 305//305
f 332//332 279//279 306//306
f 308//308 279//279 332//332
f 218//218 217//217 310//310
f 333//333 218//218 310//310
f 334//334 335//335 336//336
f 252//252 250//250 336//336
f 251//251 312//312 337//337
f 291//291 337//337 338//338
f 253//253 251//251 337//337
f 337//337 291//291 253//253
f 313//313 292//292 339//339
f 315//315 318//318 316//316
f 340//340 320//320 319//319
f 323//323 326//326 321//321
f 341//341 342//342 328//328
f 343//343 344//344 342//342
f 345//345 328//328 346//346
f 329//329 345//345 330//330
f 347//347 344//344 348//348
f 334//334 344//344 343//343
f 335//335 349//349 336//336
f 350//350 351//351 313//313
f 352//352 353//353 354//354
f 352//352 315//315 355//355
f 351//351 356//356 314//314
f 357//357 318//318 315//315
f 340//340 319//319 358//358
f 359//359 358//358 360//360
f 361//361 359//359 362//362
f 363//363 364//364 365//365
f 366//366 367//367 326//326
f 368//368 366//366 326//326
f 326//326 363//363 368//368
f 322//322 365//365 364//364
f 369//369 370//370 371//371
f 372//372 336//336 373//373
f 252//252 336//336 372//372
f 337//337 374//374 375//375
f 376//376 375//375 377//377
f 338//338 378//378 339//339
f 379//379 380//380 381//381
f 381//381 382//382 383//383
f 383//383 382//382 384//384
f 385//385 386//386 387//387
f 388//388 389//389 385//385
f 390//390 391//391 388//388
f 385//385 390//390 388//388
f 385//385 392//392 393//393
f 390//390 385//385 393//393
f 394//394 395//395 396//396
f 389//389 388//388 397//397
f 385//385 389//389 386//386
f 384//384 398//398 383//383
f 381//381 399//399 354//354
f 381//381 354//354 379//379
f 355//355 353//353 352//352
f 315//315 352//352 400//400
f 400//400 401//401 402//402
f 358//358 319//319 402//402
f 362//362 359//359 360//360
f 403//403 404//404 405//405
f 406//406 403//403 405//405
f 407//407 408//408 406//406
f 361//361 368//368 359//359
f 366//366 368//368 361//361
f 371//371 367//367 403//403
f 349//349 409//409 410//410
f 411//411 349//349 410//410
f 412//412 369//369 349//349
f 373//373 413//413 372//372
f 375//375 413//413 377//377
f 414//414 415//415 376//376
f 379//379 416//416 380//380
f 417//417 418//418 419//419
f 381//381 418//418 417//417
f 381//381 380//380 418//418
f 420//420 421//421 422//422
f 423//423 382//382 424//424
f 387//387 422//422 421//421
f 387//387 425//425 422//422
f 425//425 387//387 426//426
f 425//425 424//424 422//422
f 425//425 423//423 424//424
f 422//422 424//424 427//427
f 422//422 427//427 420//420
f 421//421 392//392 387//387
f 421//421 428//428 392//392
f 393//393 392//392 429//429
f 393//393 429//429 430//430
f 390//390 393//393 430//430
f 391//391 390//390 430//430
f 431//431 396//396 432//432
f 433//433 434//434 435//435
f 434//434 436//436 435//435
f 436//436 431//431 435//435
f 437//437 388//388 395//395
f 388//388 437//437 397//397
f 426//426 398//398 384//384
f 398//398 426//426 438//438
f 438//438 439//439 398//398
f 383//383 398//398 439//439
f 438//438 440//440 441//441
f 442//442 399//399 381//381
f 399//399 401//401 354//354
f 401//401 400//400 354//354
f 358//358 402//402 443//443
f 358//358 443//443 444//444
f 444//444 360//360 358//358
f 445//445 360//360 446//446
f 445//445 362//362 360//360
f 366//366 445//445 404//404
f 447//447 405//405 404//404
f 448//448 449//449 407//407
f 409//409 407//407 410//410
f 403//403 366//366 404//404
f 406//406 371//371 403//403
f 338//338 415//415 378//378
f 350//350 450//450 351//351
f 416//416 451//451 452//452
f 380//380 453//453 418//418
f 418//418 453//453 419//419
f 454//454 455//455 456//456
f 457//457 458//458 459//459
f 459//459 460//460 457//457
f 461//461 462//462 463//463
f 429//429 464//464 465//465
f 429//429 465//465 461//461
f 461//461 430//430 429//429
f 466//466 430//430 461//461
f 467//467 432//432 468//468
f 431//431 432//432 435//435
f 466//466 391//391 430//430
f 432//432 391//391 466//466
f 436//436 469//469 431//431
f 470//470 396//396 431//431
f 394//394 437//437 395//395
f 437//437 471//471 397//397
f 472//472 438//438 386//386
f 386//386 389//389 472//472
f 472//472 389//389 473//473
f 383//383 439//439 442//442
f 474//474 475//475 473//473
f 476//476 442//442 441//441
f 476//476 443//443 399//399
f 443//443 401//401 399//399
f 477//477 443//443 476//476
f 443//443 402//402 401//401
f 444//444 443//443 478//478
f 478//478 479//479 480//480
f 447//447 404//404 445//445
f 448//448 405//405 447//447
f 415//415 414//414 481//481
f 482//482 378//378 483//483
f 483//483 415//415 481//481
f 484//484 452//452 451//451
f 485//485 456//456 486//486
f 487//487 488//488 486//486
f 489//489 487//487 455//455
f 455//455 487//487 456//456
f 459//459 489//489 490//490
f 490//490 489//489 455//455
f 487//487 486//486 456//456
f 491//491 459//459 490//490
f 491//491 460//460 459//459
f 433//433 467//467 460//460
f 433//433 460//460 491//491
f 492//492 433//433 491//491
f 493//493 434//434 492//492
f 494//494 493//493 492//492
f 495//495 434//434 493//493
f 434//434 495//495 436//436
f 436//436 495//495 496//496
f 469//469 436//436 497//497
f 498//498 499//499 500//500
f 501//501 500//500 502//502
f 502//502 499//499 503//503
f 501//501 497//497 496//496
f 497//497 504//504 469//469
f 505//505 506//506 504//504
f 506//506 505//505 507//507
f 508//508 504//504 506//506
f 469//469 509//509 470//470
f 437//437 394//394 510//510
f 511//511 471//471 437//437
f 389//389 397//397 473//473
f 472//472 473//473 475//475
f 472//472 512//512 438//438
f 512//512 440//440 438//438
f 473//473 513//513 514//514
f 514//514 474//474 473//473
f 441//441 440//440 476//476
f 474//474 515//515 475//475
f 515//515 512//512 475//475
f 515//515 479//479 512//512
f 478//478 443//443 477//477
f 477//477 479//479 478//478
f 445//445 480//480 479//479
f 480//480 446//446 444//444
f 444//444 478//478 480//480
f 516//516 448//448 517//517
f 448//448 516//516 449//449
f 518//518 519//519 520//520
f 414//414 518//518 521//521
f 522//522 481//481 523//523
f 450//450 350//350 524//524
f 482//482 483//483 524//524
f 482//482 524//524 350//350
f 452//452 484//484 525//525
f 428//428 526//526 527//527
f 419//419 526//526 528//528
f 488//488 487//487 489//489
f 488//488 527//527 486//486
f 488//488 529//529 527//527
f 527//527 485//485 486//486
f 530//530 490//490 531//531
f 530//530 491//491 490//490
f 532//532 530//530 533//533
f 532//532 534//534 535//535
f 536//536 496//496 495//495
f 536//536 495//495 535//535
f 507//507 505//505 501//501
f 505//505 504//504 497//497
f 504//504 537//537 469//469
f 510//510 509//509 437//437
f 471//471 538//538 539//539
f 540//540 541//541 542//542
f 543//543 541//541 540//540
f 544//544 545//545 513//513
f 447//447 479//479 515//515
f 517//517 448//448 514//514
f 521//521 546//546 540//540
f 518//518 520//520 521//521
f 520//520 546//546 521//521
f 520//520 516//516 547//547
f 481//481 414//414 523//523
f 548//548 525//525 549//549
f 419//419 453//453 485//485
f 527//527 529//529 428//428
f 527//527 419//419 485//485
f 489//489 464//464 488//488
f 464//464 529//529 488//488
f 485//485 453//453 550//550
f 551//551 550//550 453//453
f 552//552 454//454 551//551
f 531//531 552//552 553//553
f 531//531 533//533 530//530
f 554//554 555//555 533//533
f 556//556 555//555 554//554
f 551//551 557//557 552//552
f 558//558 555//555 556//556
f 548//548 558//558 553//553
f 559//559 503//503 499//499
f 507//507 502//502 560//560
f 507//507 560//560 506//506
f 560//560 502//502 503//503
f 561//561 560//560 503//503
f 562//562 560//560 561//561
f 540//540 546//546 543//543
f 543//543 539//539 541//541
f 546//546 545//545 543//543
f 513//513 545//545 546//546
f 546//546 547//547 513//513
f 513//513 547//547 514//514
f 514//514 547//547 517//517
f 547//547 546//546 520//520
f 545//545 544//544 543//543
f 539//539 543//543 544//544
f 540//540 508//508 563//563
f 537//537 504//504 508//508
f 508//508 540//540 537//537
f 537//537 542//542 509//509
f 537//537 540//540 542//542
f 509//509 542//542 511//511
f 511//511 541//541 538//538
f 541//541 511//511 542//542
f 563//563 562//562 523//523
f 563//563 523//523 521//521
f 524//524 564//564 561//561
f 522//522 561//561 564//564
f 561//561 522//522 562//562
f 522//522 523//523 562//562
f 503//503 559//559 524//524
f 559//559 565//565 566//566
f 450//450 559//559 566//566
f 452//452 525//525 548//548
f 453//453 452//452 551//551
f 548//548 553//553 557//557
f 557//557 452//452 548//548
f 566//566 558//558 548//548
f 551//551 452//452 557//557
f 558//558 566//566 565//565
f 559//559 499//499 565//565
f 524//524 561//561 503//503
f 506//506 560//560 562//562
f 506//506 562//562 563//563
f 565//565 555//555 558//558
f 558//558 556//556 553//553
f 553//553 556//556 567//567
f 553//553 567//567 531//531
f 533//533 531//531 567//567
f 557//557 553//553 552//552
f 567//567 556//556 554//554
f 495//495 493//493 535//535
f 555//555 534//534 533//533
f 533//533 534//534 532//532
f 550//550 551//551 456//456
f 452//452 453//453 380//380
f 549//549 566//566 548//548
f 450//450 524//524 559//559
f 524//524 483//483 564//564
f 521//521 523//523 414//414
f 563//563 521//521 540//540
f 448//448 474//474 514//514
f 515//515 474//474 447//447
f 397//397 471//471 473//473
f 539//539 544//544 471//471
f 539//539 538//538 541//541
f 509//509 511//511 437//437
f 537//537 509//509 469//469
f 508//508 506//506 563//563
f 565//565 499//499 555//555
f 554//554 533//533 567//567
f 534//534 498//498 535//535
f 535//535 498//498 536//536
f 500//500 536//536 498//498
f 500//500 496//496 536//536
f 532//532 535//535 493//493
f 530//530 532//532 494//494
f 530//530 492//492 491//491
f 552//552 531//531 490//490
f 456//456 551//551 454//454
f 526//526 419//419 527//527
f 549//549 450//450 566//566
f 450//450 549//549 568//568
f 483//483 481//481 564//564
f 564//564 481//481 522//522
f 519//519 449//449 516//516
f 407//407 449//449 410//410
f 516//516 517//517 547//547
f 448//448 447//447 474//474
f 447//447 445//445 479//479
f 479//479 477//477 440//440
f 479//479 440//440 512//512
f 440//440 477//477 476//476
f 471//471 544//544 513//513
f 471//471 513//513 473//473
f 538//538 471//471 511//511
f 497//497 436//436 496//496
f 497//497 501//501 505//505
f 501//501 502//502 507//507
f 555//555 499//499 498//498
f 499//499 502//502 500//500
f 555//555 498//498 534//534
f 500//500 501//501 496//496
f 494//494 532//532 493//493
f 530//530 494//494 492//492
f 552//552 490//490 454//454
f 485//485 550//550 456//456
f 458//458 464//464 489//489
f 458//458 465//465 464//464
f 464//464 429//429 529//529
f 392//392 428//428 429//429
f 429//429 428//428 529//529
f 526//526 428//428 528//528
f 549//549 525//525 484//484
f 351//351 450//450 568//568
f 483//483 378//378 415//415
f 414//414 377//377 518//518
f 519//519 518//518 413//413
f 408//408 409//409 369//369
f 371//371 408//408 369//369
f 410//410 449//449 519//519
f 518//518 377//377 413//413
f 519//519 516//516 520//520
f 480//480 445//445 446//446
f 399//399 442//442 476//476
f 439//439 441//441 442//442
f 438//438 441//441 439//439
f 383//383 442//442 381//381
f 475//475 512//512 472//472
f 386//386 438//438 426//426
f 470//470 509//509 510//510
f 510//510 394//394 470//470
f 469//469 470//470 431//431
f 492//492 434//434 433//433
f 433//433 435//435 467//467
f 432//432 467//467 435//435
f 467//467 468//468 457//457
f 467//467 457//457 460//460
f 463//463 462//462 457//457
f 466//466 461//461 463//463
f 466//466 463//463 468//468
f 466//466 468//468 432//432
f 463//463 457//457 468//468
f 461//461 465//465 458//458
f 458//458 457//457 462//462
f 455//455 454//454 490//490
f 458//458 489//489 459//459
f 461//461 458//458 462//462
f 528//528 428//428 421//421
f 419//419 427//427 417//417
f 424//424 417//417 427//427
f 427//427 528//528 420//420
f 421//421 420//420 528//528
f 419//419 528//528 427//427
f 452//452 380//380 416//416
f 484//484 568//568 549//549
f 482//482 350//350 378//378
f 413//413 373//373 519//519
f 519//519 411//411 410//410
f 408//408 371//371 406//406
f 409//409 408//408 407//407
f 405//405 448//448 407//407
f 366//366 362//362 445//445
f 446//446 360//360 444//444
f 394//394 396//396 470//470
f 396//396 391//391 432//432
f 484//484 351//351 568//568
f 569//569 339//339 378//378
f 376//376 338//338 337//337
f 415//415 338//338 376//376
f 414//414 376//376 377//377
f 519//519 373//373 411//411
f 369//369 409//409 349//349
f 366//366 403//403 367//367
f 365//365 368//368 363//363
f 361//361 362//362 366//366
f 407//407 406//406 405//405
f 357//357 315//315 400//400
f 402//402 357//357 400//400
f 354//354 353//353 379//379
f 416//416 379//379 353//353
f 484//484 355//355 356//356
f 353//353 355//355 451//451
f 416//416 353//353 451//451
f 426//426 384//384 425//425
f 386//386 426//426 387//387
f 396//396 395//395 391//391
f 385//385 387//387 392//392
f 388//388 391//391 395//395
f 425//425 384//384 382//382
f 425//425 382//382 423//423
f 424//424 382//382 417//417
f 382//382 381//381 417//417
f 355//355 484//484 451//451
f 356//356 351//351 484//484
f 569//569 350//350 313//313
f 376//376 337//337 375//375
f 375//375 374//374 413//413
f 413//413 374//374 372//372
f 373//373 336//336 411//411
f 349//349 411//411 336//336
f 349//349 335//335 412//412
f 412//412 335//335 343//343
f 412//412 343//343 341//341
f 342//342 344//344 346//346
f 570//570 346//346 571//571
f 346//346 344//344 347//347
f 347//347 571//571 346//346
f 345//345 570//570 330//330
f 345//345 346//346 570//570
f 412//412 370//370 369//369
f 327//327 326//326 367//367
f 326//326 323//323 363//363
f 322//322 364//364 323//323
f 367//367 371//371 327//327
f 363//363 323//323 364//364
f 320//320 340//340 572//572
f 368//368 365//365 359//359
f 322//322 572//572 365//365
f 365//365 572//572 358//358
f 365//365 358//358 359//359
f 572//572 340//340 358//358
f 319//319 357//357 402//402
f 318//318 357//357 319//319
f 352//352 354//354 400//400
f 315//315 314//314 356//356
f 355//355 315//315 356//356
f 313//313 351//351 314//314
f 312//312 374//374 337//337
f 312//312 372//372 374//374
f 312//312 252//252 372//372
f 335//335 334//334 343//343
f 334//334 218//218 344//344
f 218//218 348//348 344//344
f 342//342 346//346 328//328
f 343//343 342//342 341//341
f 370//370 412//412 341//341
f 327//327 371//371 370//370
f 322//322 300//300 573//573
f 573//573 572//572 322//322
f 320//320 572//572 573//573
f 260//260 320//320 573//573
f 339//339 291//291 338//338
f 348//348 218//218 333//333
f 306//306 307//307 332//332
f 307//307 305//305 332//332
f 341//341 328//328 370//370
f 370//370 328//328 327//327
f 264//264 263//263 300//300
f 267//267 260//260 573//573
f 319//319 297//297 318//318
f 297//297 317//317 318//318
f 292//292 291//291 339//339
f 250//250 334//334 336//336
f 311//311 281//281 309//309
f 283//283 574//574 281//281
f 309//309 281//281 574//574
f 279//279 574//574 284//284
f 279//279 309//309 574//574
f 213//213 307//307 247//247
f 247//247 176//176 213//213
f 325//325 301//301 300//300
f 328//328 345//345 329//329
f 324//324 329//329 325//325
f 321//321 325//325 300//300
f 302//302 264//264 300//300
f 263//263 573//573 300//300
f 267//267 573//573 263//263
f 261//261 299//299 260//260
f 299//299 298//298 256//256
f 299//299 256//256 255//255
f 297//297 294//294 296//296
f 294//294 223//223 295//295
f 296//296 317//317 297//297
f 290//290 296//296 295//295
f 222//222 254//254 293//293
f 291//291 293//293 253//253
f 291//291 290//290 293//293
f 250//250 252//252 225//225
f 334//334 250//250 218//218
f 218//218 250//250 226//226
f 289//289 278//278 288//288
f 280//280 249//249 286//286
f 287//287 249//249 280//280
f 574//574 287//287 284//284
f 280//280 284//284 287//287
f 249//249 288//288 286//286
f 278//278 286//286 288//288
f 287//287 283//283 282//282
f 287//287 574//574 283//283
f 285//285 287//287 282//282
f 248//248 279//279 182//182
f 248//248 179//179 247//247
f 213//213 174//174 303//303
f 212//212 303//303 174//174
f 307//307 213//213 303//303
f 304//304 244//244 277//277
f 203//203 243//243 575//575
f 268//268 241//241 240//240
f 198//198 197//197 236//236
f 186//186 258//258 195//195
f 576//576 231//231 187//187
f 186//186 188//188 143//143
f 137//137 188//188 138//138
f 138//138 188//188 231//231
f 190//190 231//231 576//576
f 233//233 192//192 576//576
f 195//195 233//233 187//187
f 192//192 233//233 193//193
f 576//576 187//187 233//233
f 256//256 230//230 185//185
f 294//294 255//255 223//223
f 227//227 220//220 219//219
f 254//254 222//222 221//221
f 221//221 225//225 252//252
f 250//250 225//225 224//224
f 224//224 215//215 226//226
f 175//175 213//213 176//176
f 244//244 303//303 173//173
f 303//303 212//212 173//173
f 166//166 208//208 168//168
f 204//204 269//269 202//202
f 204//204 203//203 200//200
f 241//241 200//200 240//240
f 240//240 239//239 268//268
f 268//268 239//239 199//199
f 266//266 154//154 196//196
f 235//235 266//266 196//196
f 236//236 267//267 234//234
f 236//236 260//260 267//267
f 236//236 235//235 198//198
f 258//258 151//151 150//150
f 148//148 191//191 149//149
f 192//192 190//190 576//576
f 231//231 190//190 232//232
f 138//138 232//232 144//144
f 185//185 186//186 142//142
f 228//228 185//185 229//229
f 216//216 184//184 183//183
f 183//183 278//278 216//216
f 178//178 139//139 180//180
f 177//177 129//129 180//180
f 244//244 173//173 211//211
f 577//577 208//208 167//167
f 162//162 164//164 578//578
f 203//203 575//575 163//163
f 203//203 205//205 200//200
f 199//199 239//239 200//200
f 238//238 156//156 155//155
f 105//105 237//237 155//155
f 196//196 152//152 198//198
f 153//153 104//104 152//152
f 194//194 195//195 258//258
f 147//147 148//148 43//43
f 191//191 147//147 146//146
f 231//231 188//188 187//187
f 278//278 183//183 182//182
f 141//141 137//137 178//178
f 128//128 177//177 133//133
f 139//139 133//133 177//177
f 133//133 130//130 128//128
f 132//132 133//133 139//139
f 132//132 139//139 138//138
f 177//177 180//180 139//139
f 180//180 129//129 176//176
f 128//128 95//95 127//127
f 94//94 39//39 125//125
f 124//124 37//37 170//170
f 579//579 169//169 92//92
f 120//120 168//168 209//209
f 166//166 167//167 208//208
f 167//167 578//578 577//577
f 578//578 167//167 162//162
f 162//162 158//158 160//160
f 116//116 158//158 165//165
f 158//158 167//167 166//166
f 206//206 162//162 160//160
f 164//164 163//163 575//575
f 207//207 160//160 159//159
f 157//157 110//110 107//107
f 108//108 106//106 51//51
f 108//108 65//65 106//106
f 107//107 108//108 51//51
f 105//105 155//155 49//49
f 105//105 154//154 237//237
f 150//150 48//48 194//194
f 48//48 99//99 98//98
f 102//102 45//45 46//46
f 102//102 100//100 45//45
f 99//99 28//28 102//102
f 46//46 99//99 102//102
f 50//50 28//28 99//99
f 50//50 99//99 48//48
f 50//50 103//103 28//28
f 194//194 258//258 150//150
f 149//149 98//98 46//46
f 147//147 97//97 146//146
f 135//135 131//131 130//130
f 136//136 128//128 131//131
f 41//41 128//128 136//136
f 41//41 95//95 128//128
f 14//14 122//122 93//93
f 37//37 122//122 14//14
f 124//124 93//93 122//122
f 170//170 37//37 92//92
f 92//92 580//580 579//579
f 120//120 209//209 121//121
f 581//581 117//117 582//582
f 118//118 117//117 581//581
f 116//116 117//117 79//79
f 79//79 78//78 115//115
f 115//115 116//116 79//79
f 116//116 114//114 161//161
f 158//158 116//116 161//161
f 110//110 157//157 112//112
f 107//107 51//51 155//155
f 29//29 103//103 52//52
f 103//103 29//29 28//28
f 100//100 101//101 47//47
f 194//194 48//48 98//98
f 194//194 98//98 193//193
f 46//46 44//44 148//148
f 147//147 96//96 97//97
f 15//15 93//93 16//16
f 89//89 92//92 87//87
f 580//580 92//92 88//88
f 92//92 85//85 87//87
f 92//92 37//37 85//85
f 37//37 36//36 84//84
f 84//84 36//36 81//81
f 78//78 35//35 34//34
f 81//81 85//85 84//84
f 80//80 77//77 79//79
f 34//34 115//115 78//78
f 34//34 13//13 10//10
f 34//34 33//33 115//115
f 33//33 69//69 115//115
f 32//32 10//10 72//72
f 60//60 63//63 31//31
f 53//53 109//109 54//54
f 65//65 58//58 106//106
f 51//51 50//50 49//49
f 58//58 29//29 52//52
f 100//100 28//28 27//27
f 27//27 101//101 100//100
f 7//7 21//21 30//30
f 21//21 42//42 30//30
f 42//42 61//61 60//60
f 60//60 30//30 42//42
f 61//61 42//42 101//101
f 24//24 40//40 22//22
f 25//25 38//38 24//24
f 19//19 18//18 16//16
f 12//12 9//9 10//10
f 9//9 4//4 11//11
f 27//27 59//59 101//101
f 101//101 59//59 61//61
f 23//23 25//25 20//20
f 21//21 22//22 96//96
f 22//22 20//20 24//24
f 23//23 19//19 39//39
f 23//23 39//39 25//25
f 5//5 1//1 9//9
f 3//3 18//18 8//8
f 18//18 3//3 16//16
f 54//54 583//583 55//55
f 55//55 583//583 584//584
f 55//55 585//585 586//586
f 587//587 585//585 588//588
f 581//581 589//589 590//590
f 589//589 581//581 591//591
f 89//89 87//87 592//592
f 90//90 593//593 594//594
f 595//595 596//596 90//90
f 276//276 274//274 243//243
f 596//596 595//595 597//597
f 274//274 275//275 270//270
f 598//598 597//597 594//594
f 274//274 276//276 271//271
f 270//270 272//272 274//274
f 596//596 597//597 90//90
f 599//599 600//600 88//88
f 580//580 88//88 600//600
f 109//109 113//113 583//583
f 55//55 584//584 585//585
f 601//601 602//602 161//161
f 161//161 114//114 601//601
f 591//591 581//581 582//582
f 119//119 582//582 165//165
f 589//589 591//591 599//599
f 91//91 597//597 598//598
f 91//91 598//598 88//88
f 599//599 88//88 598//598
f 600//600 599//599 603//603
f 580//580 600//600 579//579
f 156//156 604//604 157//157
f 199//199 111//111 112//112
f 205//205 207//207 605//605
f 605//605 207//207 585//585
f 207//207 588//588 585//585
f 161//161 602//602 159//159
f 606//606 603//603 121//121
f 591//591 603//603 599//599
f 607//607 600//600 608//608
f 607//607 609//609 579//579
f 579//579 609//609 169//169
f 600//600 607//607 579//579
f 112//112 610//610 199//199
f 605//605 201//201 200//200
f 605//605 200//200 205//205
f 207//207 205//205 206//206
f 164//164 575//575 611//611
f 577//577 578//578 612//612
f 613//613 209//209 614//614
f 613//613 615//615 209//209
f 609//609 607//607 616//616
f 607//607 617//617 616//616
f 616//616 618//618 609//609
f 618//618 616//616 619//619
f 620//620 621//621 622//622
f 623//623 622//622 621//621
f 604//604 622//622 623//623
f 238//238 604//604 156//156
f 604//604 624//624 112//112
f 611//611 575//575 625//625
f 208//208 612//612 614//614
f 626//626 614//614 627//627
f 626//626 628//628 629//629
f 606//606 615//615 600//600
f 629//629 600//600 630//630
f 629//629 631//631 600//600
f 608//608 632//632 607//607
f 607//607 632//632 617//617
f 633//633 634//634 635//635
f 634//634 616//616 636//636
f 635//635 634//634 636//636
f 637//637 638//638 635//635
f 624//624 639//639 610//610
f 640//640 269//269 641//641
f 269//269 242//242 641//641
f 272//272 269//269 640//640
f 272//272 273//273 274//274
f 273//273 276//276 243//243
f 243//243 640//640 625//625
f 612//612 642//642 643//643
f 628//628 644//644 629//629
f 645//645 626//626 629//629
f 600//600 615//615 630//630
f 630//630 645//645 629//629
f 646//646 647//647 608//608
f 634//634 619//619 616//616
f 633//633 619//619 634//634
f 648//648 277//277 637//637
f 637//637 277//277 638//638
f 649//649 648//648 637//637
f 650//650 651//651 652//652
f 651//651 649//649 653//653
f 304//304 277//277 648//648
f 654//654 655//655 621//621
f 621//621 620//620 654//654
f 656//656 610//610 639//639
f 610//610 656//656 657//657
f 640//640 658//658 611//611
f 659//659 643//643 642//642
f 659//659 660//660 643//643
f 627//627 643//643 661//661
f 662//662 644//644 663//663
f 662//662 664//664 631//631
f 665//665 636//636 616//616
f 666//666 651//651 650//650
f 648//648 649//649 667//667
f 648//648 668//668 304//304
f 655//655 669//669 670//670
f 301//301 669//669 302//302
f 669//669 655//655 302//302
f 671//671 656//656 639//639
f 640//640 641//641 672//672
f 658//658 640//640 672//672
f 660//660 661//661 643//643
f 661//661 660//660 673//673
f 673//673 663//663 644//644
f 661//661 673//673 644//644
f 674//674 675//675 647//647
f 646//646 664//664 674//674
f 647//647 675//675 676//676
f 652//652 665//665 677//677
f 676//676 675//675 650//650
f 678//678 679//679 666//666
f 649//649 651//651 680//680
f 681//681 332//332 305//305
f 305//305 668//668 681//681
f 682//682 681//681 668//668
f 332//332 681//681 308//308
f 308//308 681//681 309//309
f 348//348 333//333 683//683
f 621//621 655//655 670//670
f 656//656 671//671 684//684
f 657//657 684//684 641//641
f 664//664 685//685 674//674
f 674//674 686//686 675//675
f 686//686 650//650 675//675
f 686//686 678//678 650//650
f 685//685 679//679 686//686
f 686//686 679//679 678//678
f 666//666 679//679 687//687
f 680//680 666//666 688//688
f 689//689 649//649 680//680
f 689//689 667//667 649//649
f 682//682 668//668 648//648
f 681//681 690//690 309//309
f 691//691 690//690 681//681
f 692//692 693//693 690//690
f 692//692 683//683 694//694
f 683//683 695//695 348//348
f 348//348 695//695 347//347
f 696//696 639//639 624//624
f 697//697 671//671 698//698
f 641//641 684//684 672//672
f 699//699 697//697 698//698
f 699//699 700//700 697//697
f 700//700 701//701 697//697
f 660//660 672//672 701//701
f 672//672 660//660 658//658
f 702//702 673//673 660//660
f 703//703 687//687 685//685
f 700//700 702//702 660//660
f 700//700 660//660 701//701
f 673//673 704//704 663//663
f 685//685 704//704 703//703
f 703//703 704//704 700//700
f 704//704 702//702 700//700
f 704//704 673//673 702//702
f 663//663 704//704 685//685
f 705//705 682//682 667//667
f 706//706 682//682 705//705
f 681//681 682//682 706//706
f 688//688 707//707 680//680
f 708//708 570//570 695//695
f 709//709 698//698 710//710
f 698//698 696//696 710//710
f 710//710 711//711 712//712
f 670//670 713//713 714//714
f 696//696 711//711 710//710
f 715//715 711//711 714//714
f 713//713 715//715 714//714
f 711//711 715//715 712//712
f 714//714 711//711 696//696
f 696//696 698//698 639//639
f 716//716 703//703 700//700
f 717//717 705//705 707//707
f 717//717 706//706 705//705
f 692//692 691//691 695//695
f 712//712 715//715 718//718
f 719//719 699//699 709//709
f 710//710 712//712 709//709
f 720//720 721//721 716//716
f 699//699 720//720 700//700
f 722//722 723//723 707//707
f 707//707 723//723 717//717
f 723//723 716//716 724//724
f 717//717 725//725 706//706
f 708//708 726//726 727//727
f 728//728 721//721 720//720
f 719//719 720//720 699//699
f 726//726 728//728 727//727
f 719//719 718//718 720//720
f 718//718 728//728 720//720
f 691//691 725//725 729//729
f 729//729 695//695 691//691
f 721//721 730//730 724//724
f 725//725 730//730 729//729
f 726//726 729//729 730//730
f 721//721 726//726 730//730
f 716//716 721//721 724//724
f 721//721 728//728 726//726
f 712//712 718//718 719//719
f 715//715 727//727 718//718
f 718//718 727//727 728//728
f 708//708 729//729 726//726
f 717//717 730//730 725//725
f 717//717 724//724 730//730
f 724//724 717//717 723//723
f 723//723 722//722 716//716
f 700//700 720//720 716//716
f 708//708 695//695 729//729
f 725//725 691//691 706//706
f 703//703 716//716 722//722
f 709//709 712//712 719//719
f 713//713 727//727 715//715
f 689//689 707//707 705//705
f 722//722 707//707 688//688
f 680//680 707//707 689//689
f 689//689 705//705 667//667
f 703//703 722//722 687//687
f 699//699 698//698 709//709
f 713//713 670//670 669//669
f 571//571 695//695 570//570
f 695//695 571//571 347//347
f 695//695 683//683 692//692
f 691//691 692//692 690//690
f 688//688 687//687 722//722
f 679//679 685//685 687//687
f 671//671 697//697 701//701
f 671//671 701//701 684//684
f 670//670 714//714 621//621
f 331//331 727//727 713//713
f 708//708 330//330 570//570
f 681//681 706//706 691//691
f 667//667 682//682 648//648
f 688//688 666//666 687//687
f 685//685 686//686 674//674
f 678//678 666//666 650//650
f 684//684 701//701 672//672
f 639//639 698//698 671//671
f 623//623 624//624 604//604
f 714//714 696//696 624//624
f 669//669 331//331 713//713
f 330//330 708//708 727//727
f 694//694 683//683 333//333
f 692//692 694//694 693//693
f 690//690 693//693 309//309
f 650//650 677//677 676//676
f 632//632 676//676 677//677
f 646//646 674//674 647//647
f 664//664 662//662 685//685
f 685//685 662//662 663//663
f 658//658 660//660 659//659
f 656//656 684//684 657//657
f 330//330 727//727 331//331
f 668//668 305//305 304//304
f 651//651 666//666 680//680
f 677//677 650//650 652//652
f 652//652 653//653 665//665
f 653//653 637//637 636//636
f 636//636 665//665 653//653
f 617//617 665//665 616//616
f 676//676 632//632 608//608
f 608//608 647//647 676//676
f 658//658 659//659 642//642
f 611//611 658//658 642//642
f 640//640 611//611 625//625
f 268//268 657//657 242//242
f 610//610 657//657 268//268
f 714//714 624//624 623//623
f 623//623 621//621 714//714
f 655//655 654//654 264//264
f 302//302 655//655 264//264
f 669//669 301//301 331//331
f 652//652 651//651 653//653
f 653//653 649//649 637//637
f 636//636 637//637 635//635
f 632//632 677//677 617//617
f 677//677 665//665 617//617
f 664//664 646//646 631//631
f 629//629 662//662 631//631
f 644//644 662//662 629//629
f 627//627 661//661 628//628
f 661//661 644//644 628//628
f 627//627 612//612 643//643
f 731//731 611//611 642//642
f 625//625 575//575 243//243
f 732//732 640//640 243//243
f 272//272 640//640 732//732
f 243//243 271//271 732//732
f 243//243 274//274 271//271
f 272//272 732//732 271//271
f 275//275 271//271 270//270
f 641//641 242//242 657//657
f 646//646 608//608 600//600
f 631//631 646//646 600//600
f 613//613 645//645 630//630
f 626//626 645//645 613//613
f 630//630 615//615 613//613
f 628//628 626//626 627//627
f 209//209 208//208 614//614
f 731//731 642//642 612//612
f 199//199 610//610 268//268
f 604//604 238//238 622//622
f 626//626 613//613 614//614
f 627//627 614//614 612//612
f 208//208 577//577 612//612
f 612//612 578//578 731//731
f 164//164 731//731 578//578
f 111//111 199//199 201//201
f 624//624 610//610 112//112
f 157//157 604//604 112//112
f 609//609 618//618 169//169
f 169//169 618//618 170//170
f 600//600 603//603 606//606
f 615//615 606//606 121//121
f 121//121 209//209 615//615
f 731//731 164//164 611//611
f 207//207 159//159 588//588
f 605//605 585//585 584//584
f 584//584 583//583 605//605
f 582//582 119//119 591//591
f 591//591 119//119 603//603
f 603//603 119//119 121//121
f 733//733 118//118 581//581
f 79//79 118//118 733//733
f 165//165 582//582 117//117
f 602//602 588//588 159//159
f 201//201 583//583 113//113
f 583//583 201//201 605//605
f 90//90 89//89 593//593
f 597//597 91//91 90//90
f 89//89 592//592 593//593
f 589//589 599//599 598//598
f 733//733 581//581 590//590
f 587//587 588//588 602//602
f 585//585 587//587 586//586
f 109//109 583//583 54//54
f 272//272 270//270 269//269
f 275//275 274//274 269//269
f 569//569 378//378 350//350
f 569//569 313//313 339//339
f 594//594 595//595 90//90
f 595//595 594//594 597//597
f 594//594 593//593 592//592
f 80//80 590//590 589//589
f 80//80 733//733 590//590
f 79//79 733//733 80//80
f 82//82 80//80 589//589
f 82//82 589//589 598//598
f 82//82 596//596 594//594
f 598//598 594//594 596//596
f 598//598 596//596 82//82
f 594//594 592//592 86//86
f 82//82 594//594 86//86
f 586//586 587//587 56//56
f 586//586 56//56 55//55
f 587//587 602//602 73//73
f 587//587 73//73 56//56
f 87//87 86//86 592//592
f 602//602 76//76 73//73
f 602//602 601//601 76//76
f 76//76 601//601 114//114
f 154//154 622//622 237//237
f 618//618 619//619 171//171
f 619//619 210//210 171//171
f 210//210 619//619 633//633
f 620//620 622//622 154//154
f 633//633 635//635 245//245
f 210//210 633//633 245//245
f 245//245 635//635 246//246
f 635//635 638//638 246//246
f 262//262 654//654 265//265
f 266//266 620//620 154//154
f 246//246 638//638 277//277
f 265//265 654//654 620//620
f 265//265 620//620 266//266
f 311//311 309//309 310//310
f 693//693 694//694 309//309
f 694//694 333//333 309//309
f 309//309 333//333 310//310
f 264//264 654//654 262//262
f 622//622 238//238 237//237
f 618//618 171//171 170//170