# https://github.com/mikedh/trimesh
v 0.09712284 0.05576989 0.00065813
v 0.09713026 0.05576248 -0.01023877
v 0.09002667 0.03301780 0.00147297
v 0.10843533 0.04445741 -0.00064088
v 0.09002441 0.03301630 -0.00942273
v 0.08832292 0.05579260 -0.00327439
v 0.08105947 0.03302471 -0.00724131
v 0.08356839 0.03302036 -0.00185134
v 0.08352123 0.03302091 -0.00239588
v 0.08268178 0.04633949 -0.00857952
v 0.07797562 0.03391799 -0.00803832
v 0.08357517 0.03302027 -0.00176026
v 0.09013932 0.05576615 -0.00723929
v 0.08726608 0.05576501 -0.00910652
v 0.08104902 0.03303992 0.00303827
v 0.08180872 0.04091591 -0.00852801
v 0.07986720 0.04299324 -0.00843189
v 0.08639632 0.04991431 -0.00903414
v 0.08339369 0.03301781 -0.00055914
v 0.08308231 0.03298360 -0.00353720
v 0.08875858 0.05576618 -0.00859431
v 0.08572010 0.04080834 0.00195347
v 0.07842422 0.05576948 0.00066449
v 0.08337207 0.04896285 0.00230498
v 0.07852405 0.05227713 0.00295426
v 0.10826093 0.04445138 -0.01150961
v 0.07862491 0.05576991 0.00278224
v 0.08626347 0.05658789 -0.00936660
v 0.04929222 0.04290563 -0.00244190
v 0.05162084 0.04171719 -0.00751355
v 0.03379536 0.02074715 -0.00491839
v 0.03555288 0.01909810 -0.00570711
v 0.04837787 0.03993835 -0.00537330
v -0.00987617 0.00210395 -0.00808305
v 0.02928225 0.01367275 -0.00778065
v 0.04083643 0.02969808 -0.00490758
v 0.02984111 0.02404214 -0.00275602
v 0.02774363 0.01637275 -0.00803094
v 0.02746407 0.02061473 -0.00675739
v 0.02951264 0.02091401 -0.00067503
v 0.01931609 0.01524759 -0.00718938
v 0.02949921 0.00646492 -0.00601460
v 0.02416171 0.02279505 -0.00314033
v -0.02084717 -0.00389461 -0.00818607
v -0.00942446 -0.01674948 -0.00620129
v 0.02650314 0.02371868 -0.00272398
v 0.00128015 0.01132728 -0.00569429
v 0.01450950 0.01787711 -0.00332563
v 0.02373552 0.02234114 0.00209258
v 0.01513051 0.01786122 -0.00134870
v 0.00425119 0.01380818 -0.00395119
v 0.01500368 0.01593836 0.00114871
v -0.00052628 0.00776248 -0.00741410
v 0.00460291 0.01431669 -0.00182522
v -0.01668907 0.00304276 -0.00699305
v 0.00856113 0.01284103 0.00436051
v 0.00931163 0.01491211 0.00164496
v -0.00225830 0.01068421 0.00078415
v -0.00558701 0.00818355 0.00183918
v 0.00049947 0.01277368 -0.00326055
v -0.01645144 0.00623006 -0.00427541
v -0.01692821 0.00669972 -0.00187812
v -0.02754539 0.00317889 0.00125194
v -0.02448712 -0.02435172 -0.00588625
v -0.00959401 0.00895568 -0.00388702
v -0.03270881 -0.00207271 -0.00661509
v -0.04294968 -0.01236233 -0.00813291
v -0.00597836 0.01028255 -0.00216221
v -0.03812041 -0.01855172 -0.00695658
v -0.02488343 0.00342021 -0.00380590
v -0.01188862 -0.00808148 -0.00710963
v -0.06058698 -0.00897700 -0.00320397
v -0.03559904 0.00037166 0.00054069
v -0.04280239 -0.00231407 -0.00297102
v -0.03305206 0.00086638 -0.00347502
v -0.05428892 -0.00706812 -0.00422742
v -0.05402983 -0.00957629 0.00716096
v -0.02955929 0.00263312 -0.00219473
v -0.07767646 -0.01965378 -0.00758136
v -0.07007168 -0.01976055 -0.00838475
v -0.04050422 -0.00773250 -0.00800740
v -0.06240660 -0.02740181 -0.00721353
v -0.06501834 -0.02012806 -0.00839586
v -0.08178148 -0.01695461 -0.00393269
v -0.04982017 -0.00906726 -0.00717650
v -0.04795882 -0.00364958 0.00063247
v -0.02775957 -0.02962464 -0.00396922
v -0.06306125 -0.00938569 -0.00003810
v -0.07044937 -0.01239951 0.00222645
v -0.10114412 -0.02818837 -0.00752872
v -0.09219356 -0.02131871 -0.00437533
v -0.03199829 -0.02561435 -0.00633378
v -0.10620900 -0.02515657 -0.00313068
v -0.06950746 -0.01248708 -0.00378441
v -0.07212495 -0.01250082 -0.00092912
v -0.08936676 -0.01911311 0.00316521
v -0.08776910 -0.01792664 0.00021351
v -0.09710559 -0.03110044 -0.00857955
v -0.06206961 -0.03811960 0.01333990
v -0.07561338 -0.04091148 0.01338770
v -0.07806806 -0.01466997 -0.00040797
v -0.09340909 -0.03992466 -0.00698430
v -0.09251408 -0.04989046 -0.00605312
v -0.11565158 -0.05823126 0.01425137
v -0.11409799 -0.03994501 0.01216023
v -0.03634287 -0.00343423 0.00684114
v -0.12277840 -0.06296653 0.01260063
v -0.12044350 -0.04323117 -0.00679895
v -0.05393531 -0.01380671 0.00985658
v -0.00225622 -0.00302286 0.00910954
v -0.11871147 -0.05132159 0.01093915
v -0.10719333 -0.04382943 -0.00742261
v -0.11624576 -0.02806290 0.00224931
v 0.08076455 0.04921690 -0.01002865
v -0.07771106 -0.05390208 0.00117097
v -0.12288188 -0.03305692 -0.00443755
v -0.11129832 -0.04739356 -0.00523474
v -0.11121349 -0.03711874 -0.00868820
v -0.11558277 -0.04260330 -0.00680549
v -0.12645602 -0.03502478 -0.00360423
v -0.08334307 -0.05633230 0.00534815
v 0.08258765 0.05958558 -0.00545841
v 0.07955929 0.05998275 -0.00776995
v 0.08488334 0.05767050 -0.00305729
v 0.07920076 0.03729335 -0.00822104
v -0.12394581 -0.03167488 -0.00147646
v -0.11571906 -0.03030552 -0.00501727
v -0.12085327 -0.05063736 -0.00506612
v -0.11572749 -0.04862632 -0.00225483
v -0.12943798 -0.05616479 -0.00327781
v 0.07572566 0.03424137 -0.00877503
v 0.07229944 0.02629392 -0.00807946
v -0.03405609 -0.03274925 -0.00426162
v 0.06566620 0.02911382 -0.00930973
v -0.03305375 -0.03438416 -0.00246702
v 0.06389178 0.02392843 -0.00656774
v 0.05822949 0.02497741 -0.00667260
v -0.11604893 -0.06069546 -0.00482758
v 0.06393627 0.01947967 -0.00410409
v -0.04709195 -0.03624974 -0.00474734
v 0.06760951 0.00307823 0.00146519
v -0.13145914 -0.03620191 0.00488396
v -0.09575561 -0.06004681 -0.00092126
v 0.05114817 0.00794499 -0.00380937
v -0.12418484 -0.06117020 -0.00281683
v 0.06867873 0.00729394 -0.00536835
v -0.12834158 -0.03964110 -0.00536367
v -0.03566710 -0.03655504 0.00755379
v -0.13131103 -0.03871036 0.00926157
v -0.12672405 -0.05636799 -0.00489683
v -0.03785093 -0.02659777 0.01254383
v -0.12430880 -0.03466210 0.00928555
v 0.05924345 0.00610421 -0.00423050
v -0.09698247 -0.06136780 0.00763906
v -0.12666219 -0.03280848 0.00458412
v -0.07862100 -0.02216635 0.01026491
v -0.13469848 -0.05823742 0.00523186
v -0.13263964 -0.03727670 0.00212040
v 0.07019264 0.01653369 0.00408379
v 0.06885261 0.01201889 0.00273547
v -0.07687859 -0.04886687 -0.00472557
v -0.13593143 -0.05531844 0.00744767
v 0.03760552 0.00288723 -0.00357656
v 0.04929268 -0.00178026 0.00131912
v 0.05945760 -0.00158151 0.00328768
v -0.13746179 -0.04544444 0.00553509
v -0.04115697 -0.00784027 0.00897792
v 0.05458427 0.00278251 0.00763184
v -0.12813854 -0.06291216 0.00465898
v 0.06499865 0.05256302 -0.01132696
v 0.04351460 0.01401388 0.00435921
v -0.12144066 -0.06531741 0.00737941
v 0.02959291 -0.00220452 -0.00535907
v -0.12949620 -0.06070126 0.00161862
v 0.06548533 0.03388419 -0.01014276
v -0.13117591 -0.05080624 -0.00389292
v 0.04724838 0.00501061 0.00644322
v 0.08179394 0.05845989 -0.00945610
v -0.12972089 -0.04456944 -0.00560492
v -0.12622596 -0.03921789 0.01127594
v 0.00215743 0.01090093 0.00095127
v 0.06836722 0.05131762 -0.01173028
v 0.04120714 0.00810117 0.00842204
v -0.13422841 -0.04527792 0.01018983
v -0.12943363 -0.05682424 0.01280924
v -0.11436703 -0.03547000 0.01153525
v -0.10797751 -0.05169084 0.01404946
v 0.06713931 0.05946647 -0.00452774
v -0.04226098 -0.00295233 0.00377507
v 0.00904614 0.00876715 0.00750439
v 0.02360874 -0.01189511 0.00226670
v -0.13646257 -0.05320098 0.00202232
v -0.12403086 -0.03703686 -0.00702295
v -0.12580464 -0.04176346 -0.00738536
v 0.05820543 0.04943248 0.00252100
v -0.05332186 -0.04307890 0.01003849
v 0.05595298 0.01813778 -0.00746542
v -0.11917837 -0.04254158 0.01088791
v 0.06052290 0.02285213 0.01107067
v 0.04440137 0.03538781 -0.00488658
v 0.05017684 0.02354997 -0.00550406
v -0.12681512 -0.04974921 -0.00663244
v -0.11640058 -0.04712680 0.01045282
v -0.04920851 -0.04190751 0.00105297
v 0.05599333 0.04017387 -0.00885879
v 0.03456514 -0.00147014 -0.00064608
v 0.05589628 0.04959246 -0.00828935
v 0.04461529 0.03654897 0.00057504
v 0.03683707 0.02666426 -0.00375847
v 0.04568779 0.03371981 0.00500269
v -0.04083840 -0.03915981 0.00153402
v 0.07161268 0.05394284 0.00287707
v -0.11950027 -0.06404903 -0.00208615
v 0.06297740 0.00715623 0.00770680
v 0.02942064 0.01888445 -0.00736993
v 0.04402478 0.02649127 -0.00606820
v 0.03422758 0.01562966 -0.00559183
v 0.05199682 0.03353786 0.00875247
v -0.11345881 -0.04920247 0.01263351
v 0.03369682 0.02251293 -0.00319336
v -0.06222457 -0.04690940 -0.00152524
v 0.03634053 0.02378909 -0.00518887
v 0.03243776 0.01981598 -0.00561500
v -0.13291076 -0.05723333 0.00097585
v 0.04475458 0.02357935 0.00715076
v -0.09875098 -0.02189421 -0.00128340
v 0.07318132 0.02460299 -0.00712933
v -0.11734301 -0.05442274 0.01321182
v -0.13461337 -0.04074400 0.00706251
v -0.10474429 -0.02396865 0.00205334
v -0.01204010 0.00398695 0.00691144
v -0.13527695 -0.04064255 0.00275803
v 0.07530288 0.05972097 -0.00731810
v -0.13765488 -0.04713158 0.00211954
v 0.01724907 0.01812229 -0.00457877
v 0.01305857 -0.01136169 -0.00448115
v 0.07022766 0.01989058 -0.00775105
v 0.07799384 0.05946142 -0.00340249
v 0.08467381 0.05871390 -0.00891831
v 0.03557642 -0.00208209 0.00231100
v -0.11004410 -0.05218287 -0.00547141
v -0.01618694 -0.00143595 0.00890793
v 0.05059498 -0.00019060 -0.00228101
v -0.06128535 -0.04818535 0.00300223
v -0.05564632 -0.04526021 0.00769089
v 0.04669835 0.01767248 0.00341999
v 0.06916537 0.02319993 -0.00722347
v -0.13815632 -0.05030911 0.00408605
v -0.06670702 -0.04559583 -0.00421466
v 0.01906214 0.01662172 0.00433271
v 0.06682446 0.05893304 -0.00751904
v 0.02087341 -0.01233354 0.00578880
v -0.13176398 -0.04972751 0.01243102
v 0.06622695 0.02225240 -0.00581359
v 0.06355516 0.05615068 -0.00859098
v -0.02405238 -0.00038349 0.00775179
v 0.03459954 0.00121682 0.00560735
v 0.07331735 0.05803485 -0.01006956
v 0.06006207 0.05375219 -0.00990229
v -0.06440349 -0.01423747 0.00842292
v 0.01284243 -0.01651184 0.00281517
v -0.07352126 -0.04965857 0.01036655
v 0.05897436 0.05124715 -0.01012762
v 0.06237482 0.04811066 -0.01094747
v -0.07993413 -0.04698219 -0.00569735
v 0.04622310 0.00882164 0.00313651
v 0.00165339 -0.01642667 -0.00409668
v -0.08219706 -0.05149259 -0.00369295
v 0.02772448 -0.00362834 0.00919401
v -0.02309761 -0.03181917 0.00386159
v -0.02483270 -0.03061621 0.00846553
v -0.09240144 -0.05363505 -0.00463131
v -0.03650291 -0.03777472 0.00472867
v -0.07372444 -0.04997413 -0.00279741
v -0.10461392 -0.05563204 -0.00577991
v 0.04183479 0.03347883 -0.00242421
v 0.02606249 -0.00431719 0.01003678
v -0.07848287 -0.01843144 0.00801333
v -0.00300540 -0.01957628 -0.00358062
v 0.04635224 0.03538469 -0.00615398
v 0.06782421 0.03038612 -0.00979072
v 0.03987173 -0.00190241 -0.00087996
v -0.13736124 -0.04910242 0.00735146
v -0.13336382 -0.05396310 0.01126366
v -0.11587746 -0.05444734 -0.00474272
v 0.02655188 -0.00878013 0.00756774
v -0.07534736 -0.04406472 0.01330884
v 0.07717869 0.05785473 -0.00996667
v 0.08088460 0.05554090 -0.01004074
v -0.08931120 -0.05865441 0.00253204
v 0.02650278 -0.00584125 0.00980637
v -0.06814269 -0.01370582 0.00626611
v 0.06034238 0.01296125 -0.00585519
v 0.04365867 0.00703948 0.00750052
v -0.10157801 -0.02841861 0.01005796
v 0.06439535 0.01045417 -0.00388366
v 0.06587083 0.01423257 -0.00323416
v 0.04093639 -0.00189384 0.00331659
v -0.08274513 -0.04746334 0.01359009
v 0.06710715 0.00205661 -0.00389847
v -0.06742556 -0.04941811 0.00798737
v -0.08099820 -0.05055336 0.01269995
v 0.05809602 0.05378696 -0.00523978
v 0.01660272 -0.00810880 0.01024530
v 0.00352765 -0.02012114 0.00371281
v 0.05683986 0.00835700 -0.00551779
v -0.08990103 -0.05669260 -0.00141308
v -0.09088293 -0.04737888 0.01371075
v -0.09679722 -0.05760752 -0.00398957
v 0.02918663 0.02248010 -0.00520133
v 0.01970267 0.01167912 -0.00776824
v 0.04324324 0.00396420 0.00799019
v -0.10991359 -0.06275560 -0.00310915
v 0.06939716 0.00557124 -0.00212606
v 0.00190725 -0.02045589 0.00076844
v 0.02983401 -0.00699399 -0.00287101
v 0.05963268 0.00213970 -0.00452924
v -0.00116399 -0.02041452 0.00790334
v -0.12957775 -0.04494430 0.01214138
v -0.10875139 -0.06517549 0.00204817
v 0.03145579 -0.00687548 0.00109438
v -0.12772977 -0.06154919 0.01171767
v 0.02485912 -0.00760474 -0.00434770
v 0.04924758 0.00437651 -0.00316147
v -0.10053260 -0.02566676 0.00795988
v 0.08715757 0.05791723 -0.00600215
v -0.11684368 -0.06568136 0.00263905
v -0.11019192 -0.02684599 0.00519311
v 0.06313602 0.04599077 0.00654195
v -0.00704628 -0.02467227 0.00519237
v 0.00727809 -0.01194550 0.01085907
v -0.11377780 -0.06540412 0.00732801
v 0.02706214 0.00926466 0.00727270
v 0.03112952 -0.00061558 0.00615447
v -0.10778933 -0.05721899 0.01440610
v 0.06141599 0.02235566 -0.00641238
v -0.00540413 -0.01292083 0.01088573
v -0.12574942 -0.05423024 0.01318327
v 0.06443917 -0.00006706 0.00289779
v -0.00326080 -0.01687665 0.01055755
v 0.03789544 0.01163426 -0.00479336
v -0.11683230 -0.06171865 0.01383539
v -0.13006745 -0.06128123 0.01040366
v 0.03934821 0.02996091 0.00049764
v 0.03386779 0.00311976 -0.00303273
v -0.04266083 -0.03147870 -0.00603313
v 0.05263412 0.02698324 0.01003071
v 0.03799278 0.02233891 0.00450404
v -0.00979046 -0.01993334 0.01158657
v -0.12224678 -0.06071587 0.01416860
v 0.02046870 -0.01127701 -0.00216513
v -0.11872529 -0.04859943 0.00869630
v 0.05355687 0.01738220 0.00964770
v 0.02585813 0.02120349 0.00429186
v 0.01164085 -0.01502694 -0.00170279
v 0.04728007 0.00082995 0.00627919
v 0.00031346 -0.01432215 -0.00560277
v 0.01994395 -0.00527011 -0.00562810
v 0.04070399 0.01595466 0.00452522
v -0.01359755 -0.02337085 0.01059947
v -0.05234991 -0.03540123 -0.00604234
v 0.03835460 0.00075376 0.00586993
v 0.03167947 0.02240116 -0.00278653
v 0.04892562 0.03055159 -0.00679761
v 0.03474778 0.02284353 -0.00127348
v -0.02654872 -0.02602926 0.01203591
v -0.00128174 0.00895672 0.00578396
v 0.02987780 0.01035663 0.00520643
v 0.02664228 0.01424018 0.00739458
v 0.08007546 0.02836200 -0.00296048
v 0.02505379 0.00677937 0.00770738
v -0.06066839 -0.03562879 -0.00661984
v 0.07632457 0.02483101 -0.00494075
v -0.03581718 -0.03182277 0.01178398
v 0.08104649 0.03060117 -0.00687179
v 0.02713451 0.00426404 0.00800820
v -0.00678099 0.00445076 0.00779879
v 0.07667199 0.02342048 -0.00302977
v 0.07074077 0.01790589 -0.00600997
v 0.07891640 0.03808782 0.00601530
v -0.05591788 -0.03981372 -0.00466560
v 0.03003310 -0.00669915 0.00446200
v 0.07060441 0.04074310 0.00866311
v 0.07541434 0.01847691 -0.00446641
v -0.04770461 -0.04203548 0.00726032
v 0.01846337 0.00424040 0.00787123
v 0.06749496 0.01815305 -0.00359882
v -0.05649132 -0.04110835 0.01326890
v 0.07194314 0.01676738 -0.00127330
v -0.03111594 -0.03529576 0.00079407
v 0.05574087 0.01038827 -0.00628762
v -0.01721875 -0.02552395 -0.00359616
v -0.01827243 0.00331918 0.00515784
v 0.02165463 -0.00914565 0.00902740
v 0.07575311 0.01946464 -0.00637651
v 0.06974256 0.01654995 -0.00275220
v 0.06068124 0.03386428 0.01041805
v -0.04154859 -0.03747783 -0.00160290
v 0.07631256 0.02637987 0.00378684
v 0.06780110 0.01308981 -0.00196072
v 0.07056077 0.01516395 0.00081695
v 0.06551266 0.00436059 -0.00566217
v -0.01907736 -0.02949220 0.00036082
v 0.04846972 0.01818548 -0.00396496
v -0.06336910 -0.04432497 0.01195301
v 0.04685721 0.01106144 -0.00348748
v 0.06622396 0.00964790 -0.00456702
v 0.06112940 -0.00252801 -0.00188782
v 0.06299650 -0.00138630 -0.00379522
v 0.06599384 -0.00092029 -0.00102189
v 0.01182993 -0.01488506 0.00805751
v 0.04275785 0.02205799 0.00643184
v -0.01038953 -0.02500923 -0.00012116
v 0.03993971 0.02022756 0.00599862
v 0.06317835 -0.00222865 0.00056428
v 0.06884789 0.01232755 -0.00050028
v 0.05201036 -0.00148053 0.00344116
v 0.06461645 -0.00176045 -0.00331237
v -0.03682140 -0.01559983 0.01038623
v 0.03361339 0.01907701 0.00557959
v 0.03822796 0.01862102 0.00638450
v 0.06100230 0.01311873 0.00981086
v 0.02955939 0.01870098 0.00397647
v -0.04185099 -0.03442043 -0.00434309
v 0.02927492 0.01720143 0.00520418
v 0.03038205 0.01590298 0.00547600
v 0.03654167 0.01436909 0.00693379
v 0.04410934 -0.00054187 -0.00148713
v 0.02665222 0.01657729 0.00679955
v 0.04827895 0.00883140 0.00338930
v 0.05039173 0.00747252 0.00636888
v -0.01723749 -0.01754377 0.01140020
v 0.01976578 0.01415474 0.00657805
v -0.07430884 -0.02935503 0.01132450
v 0.01842060 0.01111900 0.00740261
v -0.08440917 -0.05477689 0.00887332
v -0.00501004 0.00811865 0.00455857
v -0.01621332 0.00485960 0.00173689
v -0.08685343 -0.05058186 0.01281224
v -0.09633207 -0.05538544 0.01382267
v -0.09555728 -0.05780165 0.01222496
v -0.04294664 -0.03749725 0.01120655
v -0.10992388 -0.06220217 0.01244924
v -0.04770207 -0.03623156 0.01286478
v -0.11631582 -0.06398999 0.01147843
vn 0.34747775 0.71267247 0.60939081
vn 0.25154509 0.72105390 -0.64560541
vn 0.27881376 -0.72596920 0.62867449
vn 0.85629663 -0.09580316 0.50752127
vn 0.12963085 -0.73925459 -0.66083167
vn 0.21590927 0.95574148 0.19985348
vn 0.28284742 -0.35955884 -0.88922145
vn -0.00000000 0.00000000 0.00000000
vn 0.04078690 -0.99909731 0.01187368
vn 0.08001303 -0.15699779 -0.98435238
vn 0.29543320 0.11465273 -0.94845874
vn 0.02639004 -0.99965056 0.00152698
vn 0.95430069 -0.25097728 -0.16223627
vn 0.17035726 0.09571337 -0.98072287
vn 0.53708378 -0.41182760 0.73616509
vn -0.09172257 -0.03869254 -0.99503259
vn 0.31858610 -0.16722443 -0.93302673
vn 0.00742130 -0.05132105 -0.99865463
vn 0.36944518 -0.92538493 0.08469345
vn 0.46295127 -0.88130881 -0.09471484
vn 0.57146761 -0.40136712 -0.71577176
vn 0.27712141 0.00480414 0.96082290
vn -0.09069271 0.82501687 0.55778311
vn 0.22036526 0.07827328 0.97227180
vn 0.09117725 0.28274227 0.95485262
vn 0.77771498 -0.09346250 -0.62163025
vn -0.50357465 0.59221348 0.62904354
vn 0.26924593 0.22552613 -0.93629301
vn -0.76869247 0.63889037 0.03051194
vn -0.47521469 0.14570647 -0.86772151
vn -0.20464415 0.51484752 -0.83249793
vn -0.03203141 0.04034624 -0.99867220
vn -0.70318076 0.48647156 -0.51853855
vn -0.03040028 0.10087084 -0.99443496
vn 0.25026638 -0.11117390 -0.96177290
vn -0.46129290 0.34737639 -0.81641809
vn 0.29690645 0.87027211 0.39303055
vn 0.04744312 0.11432355 -0.99231007
vn -0.09176901 0.54021829 -0.83650621
vn 0.13503844 0.86606820 0.48134238
vn -0.16793851 0.35258932 -0.92058537
vn 0.27561407 -0.16048185 -0.94777764
vn -0.37180697 0.86388594 -0.33979502
vn 0.02059742 -0.04469684 -0.99878824
vn 0.11257823 -0.25833454 -0.95947350
vn -0.04497032 0.99660437 -0.06897391
vn -0.23486598 0.64971207 -0.72298838
vn -0.27475014 0.94528669 -0.17591315
vn -0.28405768 0.87256108 0.39742723
vn -0.38834574 0.89128265 0.23410004
vn -0.30125556 0.85739834 -0.41726871
vn -0.31272600 0.82940640 0.46291195
vn -0.12886133 0.37783564 -0.91686149
vn -0.37189386 0.91006767 0.18295299
vn -0.17742317 0.49586710 -0.85008049
vn -0.27886370 0.74481449 0.60620657
vn -0.27837286 0.84917299 0.44879147
vn -0.29437116 0.88594373 0.35839828
vn -0.40572207 0.86921298 0.28259227
vn -0.35292854 0.91533787 -0.19390213
vn -0.29163809 0.80383929 -0.51844924
vn -0.28360272 0.95414161 0.09582949
vn -0.28629837 0.90760605 0.30705781
vn 0.14459574 -0.34458243 -0.92755324
vn -0.30583435 0.86146931 -0.40538374
vn -0.21006963 0.57649512 -0.78963544
vn 0.02855987 -0.05815885 -0.99789873
vn -0.34594134 0.91081151 0.22527090
vn 0.04214992 -0.10336916 -0.99374957
vn -0.26578782 0.80037485 -0.53736109
vn 0.05281890 -0.10402061 -0.99317163
vn -0.31065747 0.85247325 -0.42045367
vn -0.32050153 0.92839469 0.18804806
vn -0.30234761 0.86418902 -0.40219803
vn -0.32147614 0.84027062 -0.43657575
vn -0.30737379 0.77256974 -0.55556939
vn -0.25984861 0.74715864 0.61174559
vn -0.32323070 0.92777356 -0.18643532
vn -0.16834306 0.46063071 -0.87148147
vn -0.05002156 0.15614100 -0.98646735
vn -0.07879216 0.23003424 -0.96998765
vn 0.04242315 -0.10413639 -0.99365783
vn 0.02887541 -0.05580449 -0.99802408
vn -0.29370868 0.80574142 -0.51431117
vn -0.18087402 0.51192071 -0.83977483
vn -0.35423131 0.92494483 0.13783047
vn 0.26248654 -0.51883606 -0.81357849
vn -0.32982547 0.93745769 0.11130246
vn -0.33788499 0.87944580 0.33527426
vn -0.16814306 0.45071511 -0.87668911
vn -0.26623879 0.77173313 -0.57753345
vn 0.09159269 -0.20532717 -0.97439804
vn -0.30740774 0.83104778 -0.46353001
vn -0.28456388 0.81316692 -0.50772331
vn -0.34010985 0.93588893 -0.09185427
vn -0.28656638 0.88987485 0.35496824
vn -0.32802930 0.94347471 -0.04745785
vn -0.01327295 0.04269262 -0.99900008
vn -0.01814051 0.00268390 0.99983185
vn -0.01535406 0.08775496 0.99602375
vn -0.33128640 0.94205976 0.05265673
vn 0.04959018 -0.11846674 -0.99171893
vn 0.08098020 -0.21856014 -0.97245754
vn -0.03498694 0.03962562 0.99860188
vn -0.12133194 0.04417338 0.99162860
vn -0.22707671 0.72246929 0.65305000
vn -0.19750061 -0.75733977 0.62243873
vn 0.12906206 -0.32046189 -0.93842803
vn -0.07950333 0.27879416 0.95705435
vn -0.00622555 0.15588535 0.98775554
vn -0.23689749 0.54059436 0.80724056
vn -0.05058703 -0.18634690 -0.98118081
vn -0.36601765 0.92344699 0.11522475
vn 0.18766934 -0.13314815 -0.97316586
vn 0.32435748 -0.89460734 -0.30735962
vn -0.38657428 0.67612852 -0.62722448
vn -0.37961665 -0.26698313 -0.88578282
vn -0.06057757 0.00564794 -0.99814751
vn -0.04257988 -0.43440298 -0.89971163
vn -0.58309441 0.60017314 -0.54753366
vn 0.35978354 -0.90943999 0.20850591
vn 0.22319617 0.95535723 0.19358729
vn 0.02419007 0.95430824 -0.29784329
vn 0.32788174 0.72514537 0.60552271
vn 0.05899524 -0.04935879 -0.99703725
vn -0.47153888 0.83410953 -0.28620339
vn -0.28611304 0.68099231 -0.67408367
vn 0.31795924 -0.00066485 -0.94810415
vn -0.00740474 -0.11126742 -0.99376291
vn -0.56789483 -0.42061452 -0.70751600
vn 0.21154425 -0.13465386 -0.96804823
vn 0.19641950 -0.33076988 -0.92304424
vn 0.20648720 -0.50861964 -0.83586428
vn -0.09604452 -0.30755105 -0.94667196
vn 0.29757005 -0.74213707 -0.60057026
vn 0.00149144 -0.42358369 -0.90585575
vn -0.07979991 -0.14253220 -0.98656807
vn -0.02625420 -0.36609809 -0.93020584
vn 0.33172713 -0.23665897 -0.91320843
vn 0.21311084 -0.56608369 -0.79632470
vn 0.82132444 -0.37007978 0.43412800
vn -0.63657490 0.74599358 0.19561691
vn 0.31672353 -0.82853946 -0.46174514
vn -0.19303036 -0.16690325 -0.96689326
vn -0.35941280 -0.64882544 -0.67070708
vn 0.61490239 0.09066688 -0.78337383
vn -0.61627708 0.34132596 -0.70971765
vn 0.38926082 -0.82795879 0.40368335
vn -0.50362530 0.53731981 0.67649758
vn -0.33466954 -0.37145590 -0.86603511
vn 0.01681199 0.05669874 0.99824977
vn -0.28497221 0.66078309 0.69437493
vn -0.04417155 -0.07803244 -0.99597179
vn 0.31194957 -0.90839784 0.27838971
vn -0.46663451 0.85589861 0.22291210
vn -0.09065905 0.33069855 0.93937181
vn -0.76800984 -0.63667085 -0.06936217
vn -0.73211663 0.63942409 -0.23482347
vn 0.74350162 -0.37952197 0.55060732
vn 0.93791053 -0.14080227 -0.31701507
vn 0.15403309 -0.48989076 -0.85806809
vn -0.85861097 -0.37097097 0.35379054
vn -0.05284664 -0.31700897 -0.94694907
vn -0.00995904 -0.98976179 -0.14238127
vn 0.11661030 -0.82136731 0.55835274
vn -0.93104230 0.29125815 0.21983840
vn -0.13454569 0.45039408 0.88263391
vn -0.01014331 -0.39103675 0.92031917
vn -0.45038100 -0.88204066 -0.13842406
vn -0.14881471 0.26202609 -0.95351797
vn 0.36568857 0.17828945 0.91350136
vn -0.19436831 -0.97294304 0.12491116
vn 0.38871953 -0.22376920 -0.89376981
vn -0.52335517 -0.72749658 -0.44367566
vn -0.07627587 -0.12290159 -0.98948329
vn -0.60971725 -0.18312302 -0.77117497
vn 0.10035632 0.28585357 0.95300386
vn 0.06716949 0.50435397 -0.86088056
vn -0.58807839 0.06655234 -0.80606116
vn -0.13048562 0.26161920 0.95631004
vn -0.23854388 0.84758911 0.47401426
vn 0.00970026 0.05326634 -0.99853323
vn 0.12701197 0.14030825 0.98192747
vn -0.62534551 0.22720691 0.74653868
vn -0.35489340 -0.17286672 0.91878603
vn -0.09907496 0.30353264 0.94765610
vn -0.05305520 0.10592858 0.99295734
vn -0.29198812 0.92580350 0.24006420
vn -0.26894897 0.83978823 0.47161656
vn -0.07880167 0.35269325 0.93241502
vn 0.44555543 -0.89308324 -0.06231114
vn -0.80784312 -0.34256563 -0.47962307
vn -0.33533153 0.36842563 -0.86707285
vn -0.25672929 0.04432888 -0.96546622
vn -0.46681273 0.63012009 0.62051152
vn 0.32450295 -0.74205523 0.58655935
vn -0.09248609 -0.04829674 -0.99454198
vn -0.13926379 -0.29020290 0.94677762
vn 0.12481296 -0.06601298 0.98998182
vn -0.66101704 0.47434469 -0.58142377
vn -0.14437118 -0.14967911 -0.97813758
vn -0.19627565 -0.15232143 -0.96864547
vn -0.49508004 0.02075758 0.86859937
vn 0.35516711 -0.85126855 -0.38626180
vn -0.24000897 -0.05906456 -0.96897217
vn 0.42928810 -0.63662673 -0.64063885
vn -0.72231749 0.44602733 -0.52850456
vn -0.72547056 0.60872472 0.32116457
vn -0.78908228 0.50952651 -0.34312080
vn -0.57082235 0.42977878 0.69960850
vn 0.31971473 -0.90501297 -0.28059582
vn -0.05039475 0.60679076 0.79326247
vn -0.17940355 -0.81206003 -0.55531330
vn 0.42743269 -0.31085068 0.84892470
vn 0.23016586 0.29304006 -0.92798233
vn -0.08293246 -0.03253245 -0.99602402
vn 0.23369464 -0.06465273 -0.97015815
vn -0.34949502 0.30344206 0.88644016
vn -0.31891566 0.16168217 0.93389061
vn -0.39827118 0.87903511 -0.26206361
vn 0.33769960 -0.76015680 -0.55508613
vn -0.51585067 0.36032836 -0.77721397
vn 0.23719338 0.44088578 -0.86565526
vn -0.63991099 -0.53634992 -0.55031145
vn -0.36221264 -0.09706213 0.92702802
vn -0.31328085 0.92245809 -0.22566830
vn 0.38173261 -0.10743430 -0.91800767
vn -0.11611527 0.34054221 0.93303175
vn -0.77585525 0.49588153 0.39006429
vn -0.30798166 0.93016667 0.19984311
vn -0.21501749 0.62988250 0.74633472
vn -0.84146481 0.49148938 -0.22444414
vn -0.06249070 0.97678749 -0.20489292
vn -0.89960468 0.12054049 -0.41973969
vn -0.33420685 0.75338584 -0.56631754
vn 0.21545971 -0.50309577 -0.83694191
vn -0.21313986 -0.35934091 -0.90854032
vn 0.03962792 0.90622406 0.42093656
vn 0.29951654 0.75747195 -0.58010868
vn 0.36824684 -0.88713247 0.27819103
vn -0.23282431 -0.01552904 -0.97239482
vn -0.04819010 0.25230635 0.96644670
vn -0.13470576 -0.60722193 -0.78302994
vn 0.37310258 -0.92412356 -0.08240211
vn 0.34879466 -0.88842186 0.29841059
vn -0.23106603 -0.30902366 0.92255779
vn -0.32184347 0.11982510 -0.93917982
vn -0.98592268 -0.14811932 -0.07757024
vn 0.20751500 -0.50689483 -0.83665713
vn -0.39729316 0.66501748 0.63238429
vn -0.35187708 0.83859460 -0.41586250
vn 0.37927799 -0.83189739 0.40508634
vn -0.38037702 0.06504529 0.92254129
vn -0.21561381 -0.42159553 -0.88077687
vn -0.37569985 0.74696265 -0.54854027
vn -0.17322357 0.59776573 0.78273222
vn 0.05171423 -0.29321010 0.95464835
vn -0.04978976 0.59155699 -0.80472437
vn -0.45298958 0.58667932 -0.67127328
vn -0.19976643 0.60834490 0.76812099
vn 0.38112510 -0.92428980 -0.02078540
vn 0.25802606 -0.57300528 0.77787370
vn -0.41917710 0.17214725 -0.89143473
vn -0.17865019 -0.03945189 -0.98312139
vn 0.08812279 -0.30568648 -0.94804544
vn 0.26159102 0.34950072 0.89967738
vn 0.26072635 -0.59824427 -0.75771074
vn 0.17255954 -0.55604715 -0.81304045
vn 0.62271646 -0.04938396 0.78088759
vn 0.43201660 -0.89015491 0.14486509
vn 0.36589959 -0.71295887 0.59816983
vn 0.21396856 -0.45055036 -0.86673054
vn 0.38646937 -0.91804558 0.08850839
vn 0.25320974 -0.72196925 -0.64392952
vn 0.03200379 -0.25585316 -0.96618576
vn -0.78829582 0.59005179 -0.17443790
vn 0.18120247 0.04203996 0.98254685
vn -0.23248895 0.72353205 0.64996174
vn 0.27933469 -0.62728551 -0.72696975
vn -0.39251532 0.18976041 -0.89995706
vn 0.05260828 -0.19016085 -0.98034240
vn 0.00630711 -0.85395707 -0.52030524
vn -0.87401859 0.00852903 0.48581761
vn -0.63068608 -0.17573801 0.75587778
vn -0.01274164 0.14745753 -0.98898631
vn 0.52262041 -0.67600281 0.51950757
vn 0.10580232 -0.19162412 0.97574898
vn 0.05635561 0.44011073 -0.89617330
vn 0.10699528 0.08487239 -0.99063045
vn 0.35431275 -0.91306865 -0.20191117
vn 0.41062893 -0.30117418 0.86062651
vn -0.27600557 0.81804022 0.50460988
vn 0.28425188 -0.16616636 -0.94424023
vn 0.46606736 0.40979564 0.78412292
vn -0.16338306 0.52777854 0.83352012
vn 0.14773861 0.13779818 -0.97937989
vn 0.40778864 -0.10131662 -0.90743780
vn -0.01219540 -0.92163399 0.38786861
vn 0.04521014 -0.13272747 0.99012093
vn 0.69249815 -0.46168496 -0.55434043
vn 0.31597163 -0.84108499 0.43901932
vn 0.17020426 -0.51918828 0.83754047
vn -0.65810996 0.75135215 0.04859245
vn 0.07084635 -0.10479548 0.99196709
vn 0.37882634 -0.91591499 0.13262853
vn 0.00711452 -0.43742836 -0.89922512
vn 0.31281329 -0.72131769 -0.61793902
vn 0.02950119 0.02497881 0.99925259
vn 0.22817526 -0.53618410 -0.81267623
vn 0.15409613 0.72515541 -0.67112146
vn 0.00336515 -0.02043719 -0.99978548
vn 0.07741807 -0.19873706 0.97699029
vn 0.12896520 -0.70670558 -0.69565451
vn 0.97553908 -0.21517378 -0.04498599
vn 0.35999385 -0.86284157 -0.35483638
vn 0.54366367 -0.62904549 -0.55563619
vn -0.15674182 -0.22473070 -0.96173183
vn 0.32430840 -0.70068727 0.63550091
vn -0.18880787 0.20521731 0.96033194
vn 0.18725073 -0.96855929 -0.16379883
vn 0.69222718 -0.72137234 -0.02105886
vn -0.38126438 -0.62691091 0.67942637
vn 0.18081871 -0.52172170 -0.83373321
vn -0.05790769 -0.16717772 -0.98422472
vn -0.24568320 0.75475617 0.60826219
vn 0.49910423 0.85849795 0.11779743
vn -0.05917201 -0.98718571 -0.14819938
vn -0.29094427 0.85257052 0.43413700
vn -0.16530941 0.44884743 0.87818493
vn 0.37578167 -0.89242412 0.24973453
vn 0.10844580 -0.16659142 0.98004429
vn 0.10589185 -0.96815864 0.22683864
vn 0.38772105 0.06242807 0.91966033
vn 0.45493628 -0.08683018 0.88628071
vn 0.05809516 -0.16269222 0.98496507
vn 0.20647240 -0.14200749 -0.96809246
vn 0.01551341 0.09689381 0.99517382
vn 0.00288977 0.16393116 0.98646755
vn 0.50034996 -0.59092575 0.63281646
vn 0.18564915 -0.26461003 0.94631703
vn 0.05022226 -0.13954793 -0.98894090
vn 0.04131714 -0.46095110 0.88646319
vn -0.56021091 -0.68835771 0.46078996
vn -0.78455180 0.52928000 0.32301882
vn 0.25753506 -0.24684749 -0.93420662
vn 0.11959389 -0.30945579 -0.94336335
vn -0.25486189 0.05644175 0.96532883
vn -0.45893024 0.49729826 0.73625911
vn 0.16501968 -0.30842176 0.93682684
vn -0.13437680 -0.25138987 0.95851240
vn 0.28436990 -0.73275051 -0.61823171
vn -0.21226296 0.19773519 0.95699803
vn -0.34405835 -0.15932245 0.92533249
vn 0.11547790 0.73865576 0.66411785
vn 0.30978735 -0.76675918 -0.56223852
vn 0.02448155 -0.50519632 0.86265713
vn 0.16307602 -0.38022769 -0.91040272
vn 0.09148708 -0.24902778 -0.96416559
vn 0.33519838 0.04608704 0.94101967
vn 0.22437212 -0.51494657 0.82733740
vn 0.11691413 -0.29406874 -0.94860670
vn -0.10667627 -0.54694292 0.83034548
vn 0.25853045 0.95662274 0.13429422
vn -0.15029330 -0.08569080 -0.98492081
vn -0.60157427 0.77537313 0.19210649
vn 0.14964899 -0.25204440 0.95607468
vn -0.21197507 0.76894452 0.60315081
vn 0.21164139 0.02009648 0.97714075
vn 0.31047496 0.16860953 0.93550849
vn 0.78590351 -0.61834847 -0.00091321
vn 0.02329323 0.12199455 0.99225740
vn 0.04916725 -0.13360826 -0.98981383
vn 0.71375385 -0.33481193 -0.61518811
vn 0.20394448 -0.30588488 0.92996833
vn 0.66349057 -0.39253713 -0.63694181
vn 0.34046049 0.17288021 0.92422891
vn -0.12431899 0.43282718 0.89286361
vn 0.94051002 -0.33908822 -0.02144948
vn -0.11914505 -0.80241833 -0.58474720
vn 0.44203141 -0.05647849 0.89521976
vn 0.26504619 -0.54902114 -0.79267037
vn 0.70007734 -0.53822844 0.46925671
vn 0.16366108 0.19600237 0.96684958
vn 0.69332647 -0.71808451 -0.06044036
vn 0.38774350 -0.89834898 0.20645602
vn -0.01894249 0.13867683 0.99015651
vn -0.14371262 -0.46398791 -0.87410634
vn 0.14384567 -0.38156814 0.91307950
vn 0.47236231 -0.87703853 -0.08762000
vn 0.38239888 -0.89034857 -0.24708404
vn -0.11501160 -0.24657785 -0.96227423
vn 0.27414234 -0.61051455 -0.74304641
vn -0.22694839 0.84655433 0.48149787
vn 0.21885679 -0.53339106 0.81706528
vn 0.67967727 -0.41174094 -0.60704878
vn 0.22950230 -0.77157433 -0.59329736
vn -0.04662643 0.18149207 0.98228642
vn 0.23740923 -0.74890276 -0.61869339
vn 0.67332675 -0.40015546 0.62169663
vn 0.64435374 -0.00081779 -0.76472714
vn 0.86832922 -0.49566673 -0.01785638
vn 0.08614264 -0.11431211 -0.98970308
vn 0.38872267 -0.84185002 -0.37441051
vn -0.09719026 -0.13930444 -0.98546858
vn 0.13084234 -0.49843228 0.85699798
vn 0.04206535 -0.05949659 -0.99734180
vn -0.02712847 0.42091897 -0.90669249
vn -0.07800874 -0.93360847 -0.34969968
vn -0.08967899 -0.58331853 -0.80727763
vn 0.72532652 -0.68311756 0.08515771
vn 0.30210979 -0.70243698 0.64444703
vn -0.11828559 -0.18230605 0.97610093
vn 0.37608412 -0.84283884 -0.38494600
vn -0.06346029 0.06631842 0.99577842
vn 0.28628634 -0.91963817 0.26889731
vn 0.95405890 -0.04138051 -0.29674781
vn -0.00015819 -0.91060934 0.41326821
vn 0.39971074 -0.76936652 -0.49830360
vn -0.02676931 0.16007295 0.98674214
vn -0.25783375 0.43164738 0.86440864
vn 0.12952733 0.13191574 0.98276188
vn 0.22427337 -0.16653925 0.96019068
vn 0.10115055 0.72345659 0.68291957
vn 0.18717338 -0.55092813 -0.81329227
vn 0.39749116 0.50456226 0.76643180
vn 0.01688451 0.17649041 0.98415753
vn -0.00538449 0.11966422 0.99279982
vn 0.07595705 -0.60463130 -0.79287548
vn 0.15738320 0.33769356 0.92800517
vn -0.44096467 0.27329485 0.85490355
vn -0.49632443 0.15133355 0.85484514
vn 0.00438801 0.07358632 0.99727920
vn -0.18990265 0.44771552 0.87377789
vn -0.02942518 0.15242642 0.98787668
vn -0.04106425 0.17422798 0.98384874
vn 0.29428432 -0.74757287 0.59542551
vn -0.36823509 0.87229430 0.32172282
vn -0.14709999 0.90903396 0.38989596
vn 0.13467390 -0.38243715 0.91411420
vn 0.15497356 -0.26694548 0.95116944
vn 0.29373490 -0.64697639 0.70366281
vn 0.29284541 -0.61040280 0.73596874
vn 0.17923105 -0.70133520 0.68993128
vn 0.12917380 -0.24388560 0.96116281
vn 0.04854689 -0.85177585 0.52165228
f 27//27 23//23 25//25
f 27//27 25//25 24//24
f 1//1 24//24 22//22
f 1//1 22//22 3//3
f 1//1 3//3 4//4
f 2//2 6//6 1//1
f 2//2 26//26 14//14
f 2//2 14//14 6//6
f 19//19 12//12 3//3
f 9//9 20//20 3//3
f 20//20 7//7 3//3
f 7//7 5//5 3//3
f 16//16 5//5 7//7
f 11//11 16//16 7//7
f 10//10 26//26 16//16
f 26//26 5//5 16//16
f 17//17 10//10 16//16
f 8//8 9//9 12//12
f 12//12 9//9 3//3
f 3//3 15//15 19//19
f 3//3 22//22 15//15
f 18//18 26//26 10//10
f 14//14 21//21 13//13
f 13//13 6//6 14//14
f 14//14 26//26 18//18
f 23//23 27//27 6//6
f 1//1 6//6 27//27
f 24//24 1//1 27//27
f 3//3 26//26 4//4
f 3//3 5//5 26//26
f 1//1 26//26 2//2
f 4//4 26//26 1//1
f 182//182 170//170 258//258
f 258//258 170//170 255//255
f 258//258 255//255 251//251
f 255//255 170//170 259//259
f 258//258 288//288 182//182
f 170//170 264//264 263//263
f 259//259 170//170 263//263
f 255//255 259//259 303//303
f 303//303 188//188 255//255
f 251//251 255//255 188//188
f 288//288 289//289 182//182
f 182//182 289//289 114//114
f 188//188 238//238 233//233
f 238//238 123//123 233//233
f 238//238 23//23 124//124
f 238//238 124//124 122//122
f 123//123 258//258 233//233
f 182//182 175//175 264//264
f 205//205 263//263 264//264
f 263//263 205//205 30//30
f 209//209 36//36 222//222
f 36//36 200//200 280//280
f 280//280 33//33 30//30
f 210//210 195//195 208//208
f 218//218 195//195 210//210
f 329//329 195//195 218//218
f 212//212 188//188 195//195
f 329//329 212//212 195//195
f 329//329 397//397 383//383
f 383//383 212//212 329//329
f 25//25 212//212 383//383
f 380//380 24//24 383//383
f 380//380 22//22 24//24
f 380//380 15//15 22//22
f 399//399 15//15 380//380
f 199//199 380//380 383//383
f 383//383 397//397 199//199
f 399//399 378//378 370//370
f 370//370 19//19 399//399
f 20//20 9//9 12//12
f 12//12 19//19 20//20
f 7//7 131//131 11//11
f 375//375 132//132 131//131
f 11//11 131//131 125//125
f 131//131 175//175 114//114
f 182//182 114//114 175//175
f 205//205 134//134 364//364
f 205//205 264//264 175//175
f 36//36 280//280 216//216
f 365//365 344//344 209//209
f 344//344 208//208 276//276
f 276//276 29//29 200//200
f 276//276 208//208 29//29
f 344//344 210//210 208//208
f 225//225 347//347 218//218
f 199//199 347//347 353//353
f 218//218 347//347 397//397
f 199//199 397//397 347//347
f 422//422 214//214 159//159
f 160//160 416//416 401//401
f 389//389 159//159 401//401
f 396//396 400//400 387//387
f 401//401 396//396 389//389
f 396//396 384//384 389//389
f 384//384 396//396 379//379
f 396//396 387//387 379//379
f 254//254 379//379 387//387
f 379//379 237//237 395//395
f 384//384 379//379 395//395
f 384//384 399//399 159//159
f 20//20 370//370 375//375
f 227//227 247//247 132//132
f 378//378 395//395 373//373
f 237//237 227//227 395//395
f 237//237 247//247 227//227
f 134//134 281//281 132//132
f 254//254 134//134 132//132
f 247//247 254//254 132//132
f 136//136 134//134 254//254
f 336//336 136//136 139//139
f 363//363 223//223 310//310
f 220//220 363//363 40//40
f 46//46 363//363 37//37
f 43//43 39//39 235//235
f 48//48 235//235 47//47
f 48//48 50//50 235//235
f 46//46 43//43 49//49
f 369//369 429//429 433//433
f 369//369 371//371 333//333
f 220//220 40//40 365//365
f 40//40 423//423 365//365
f 420//420 421//421 348//348
f 421//421 414//414 348//348
f 412//412 348//348 414//414
f 209//209 344//344 276//276
f 209//209 276//276 36//36
f 210//210 344//344 348//348
f 225//225 348//348 412//412
f 225//225 353//353 347//347
f 353//353 168//168 422//422
f 168//168 214//214 422//422
f 141//141 314//314 160//160
f 201//201 364//364 137//137
f 201//201 404//404 216//216
f 216//216 364//364 201//201
f 406//406 341//341 216//216
f 32//32 223//223 31//31
f 220//220 31//31 223//223
f 37//37 363//363 310//310
f 310//310 46//46 37//37
f 43//43 46//46 39//39
f 47//47 235//235 41//41
f 57//57 50//50 48//48
f 43//43 235//235 50//50
f 429//429 425//425 354//354
f 354//354 423//423 46//46
f 425//425 423//423 354//354
f 429//429 354//354 433//433
f 435//435 433//433 190//190
f 277//277 386//386 304//304
f 277//277 304//304 394//394
f 394//394 291//291 277//277
f 371//371 435//435 386//386
f 369//369 433//433 435//435
f 423//423 420//420 348//348
f 348//348 365//365 423//423
f 427//427 257//257 183//183
f 359//359 246//246 412//412
f 168//168 353//353 431//431
f 418//418 410//410 415//415
f 339//339 415//415 410//410
f 401//401 416//416 400//400
f 324//324 153//153 317//317
f 324//324 406//406 144//144
f 197//197 137//137 336//336
f 144//144 306//306 153//153
f 306//306 293//293 296//296
f 293//293 306//306 391//391
f 404//404 201//201 197//197
f 293//293 391//391 197//197
f 197//197 391//391 144//144
f 144//144 391//391 306//306
f 404//404 197//197 144//144
f 293//293 197//197 336//336
f 296//296 153//153 306//306
f 406//406 324//324 341//341
f 223//223 32//32 217//217
f 35//35 215//215 217//217
f 215//215 310//310 223//223
f 235//235 39//39 41//41
f 367//367 56//56 181//181
f 367//367 437//437 231//231
f 231//231 437//437 393//393
f 110//110 432//432 337//337
f 377//377 367//367 231//231
f 190//190 56//56 367//367
f 190//190 367//367 377//377
f 433//433 56//56 190//190
f 110//110 190//190 242//242
f 377//377 242//242 190//190
f 386//386 190//190 110//110
f 386//386 110//110 331//331
f 304//304 386//386 331//331
f 394//394 286//286 291//291
f 291//291 269//269 277//277
f 333//333 368//368 369//369
f 427//427 368//368 257//257
f 368//368 427//427 426//426
f 183//183 359//359 427//427
f 421//421 359//359 414//414
f 412//412 414//414 359//359
f 246//246 430//430 353//353
f 430//430 431//431 353//353
f 177//177 356//356 168//168
f 240//240 362//362 257//257
f 362//362 240//240 298//298
f 298//298 356//356 362//362
f 356//356 165//165 168//168
f 168//168 165//165 339//339
f 339//339 165//165 415//415
f 317//317 408//408 243//243
f 408//408 418//418 415//415
f 410//410 300//300 314//314
f 160//160 314//314 416//416
f 418//418 408//408 409//409
f 418//418 300//300 410//410
f 402//402 418//418 409//409
f 146//146 407//407 400//400
f 153//153 402//402 317//317
f 146//146 300//300 402//402
f 418//418 402//402 300//300
f 300//300 146//146 314//314
f 402//402 407//407 146//146
f 409//409 317//317 402//402
f 409//409 408//408 317//317
f 428//428 243//243 164//164
f 282//282 206//206 163//163
f 163//163 341//341 324//324
f 217//217 345//345 35//35
f 34//34 53//53 41//41
f 55//55 65//65 47//47
f 68//68 60//60 65//65
f 54//54 48//48 51//51
f 181//181 56//56 57//57
f 242//242 231//231 256//256
f 110//110 419//419 432//432
f 337//337 432//432 349//349
f 337//337 340//340 331//331
f 331//331 411//411 304//304
f 304//304 411//411 394//394
f 333//333 334//334 368//368
f 382//382 257//257 334//334
f 334//334 269//269 382//382
f 356//356 417//417 165//165
f 417//417 408//408 415//415
f 240//240 282//282 298//298
f 164//164 417//417 298//298
f 164//164 298//298 282//282
f 282//282 428//428 164//164
f 324//324 428//428 163//163
f 163//163 345//345 341//341
f 38//38 215//215 35//35
f 39//39 215//215 38//38
f 39//39 38//38 41//41
f 55//55 53//53 34//34
f 81//81 85//85 66//66
f 66//66 85//85 74//74
f 62//62 59//59 68//68
f 65//65 62//62 68//68
f 54//54 60//60 58//58
f 181//181 58//58 367//367
f 438//438 393//393 59//59
f 366//366 360//360 432//432
f 360//360 349//349 432//432
f 394//394 252//252 286//286
f 382//382 269//269 291//291
f 286//286 382//382 291//291
f 382//382 240//240 257//257
f 382//382 321//321 240//240
f 321//321 206//206 240//240
f 206//206 345//345 163//163
f 345//345 206//206 173//173
f 71//71 311//311 42//42
f 45//45 71//71 358//358
f 66//66 55//55 81//81
f 85//85 81//81 80//80
f 75//75 70//70 66//66
f 61//61 70//70 62//62
f 59//59 62//62 438//438
f 109//109 167//167 260//260
f 167//167 256//256 106//106
f 256//256 167//167 242//242
f 366//366 151//151 374//374
f 411//411 252//252 394//394
f 411//411 261//261 252//252
f 261//261 191//191 252//252
f 191//191 321//321 286//286
f 316//316 321//321 191//191
f 316//316 173//173 206//206
f 321//321 316//316 206//206
f 358//358 173//173 323//323
f 42//42 173//173 358//358
f 358//358 71//71 42//42
f 42//42 311//311 35//35
f 311//311 38//38 35//35
f 358//358 357//357 45//45
f 44//44 34//34 71//71
f 81//81 34//34 44//44
f 82//82 67//67 69//69
f 67//67 82//82 83//83
f 83//83 81//81 67//67
f 82//82 102//102 98//98
f 98//98 83//83 82//82
f 98//98 80//80 83//83
f 79//79 85//85 80//80
f 106//106 73//73 189//189
f 156//156 260//260 278//278
f 388//388 444//444 99//99
f 374//374 271//271 366//366
f 318//318 340//340 349//349
f 261//261 355//355 351//351
f 267//267 357//357 236//236
f 357//357 358//358 236//236
f 330//330 403//403 413//413
f 413//413 279//279 315//315
f 279//279 357//357 267//267
f 279//279 267//267 315//315
f 413//413 392//392 279//279
f 279//279 45//45 357//357
f 403//403 392//392 413//413
f 392//392 64//64 45//45
f 64//64 92//92 45//45
f 82//82 69//69 92//92
f 92//92 372//372 82//82
f 81//81 44//44 67//67
f 69//69 67//67 71//71
f 82//82 372//372 102//102
f 265//265 103//103 372//372
f 90//90 79//79 98//98
f 85//85 72//72 76//76
f 85//85 76//76 74//74
f 86//86 74//74 76//76
f 76//76 72//72 86//86
f 106//106 189//189 77//77
f 77//77 189//189 86//86
f 73//73 86//86 189//189
f 73//73 74//74 86//86
f 260//260 292//292 278//278
f 278//278 295//295 156//156
f 99//99 434//434 100//100
f 374//374 442//442 271//271
f 360//360 330//330 349//349
f 330//330 305//305 318//318
f 318//318 305//305 411//411
f 305//305 261//261 411//411
f 305//305 315//315 261//261
f 305//305 330//330 315//315
f 330//330 360//360 270//270
f 270//270 360//360 271//271
f 390//390 135//135 403//403
f 87//87 403//403 135//135
f 71//71 45//45 92//92
f 92//92 69//69 71//71
f 346//346 361//361 372//372
f 265//265 372//372 361//361
f 274//274 249//249 221//221
f 274//274 161//161 249//249
f 121//121 290//290 115//115
f 307//307 268//268 274//274
f 103//103 112//112 102//102
f 118//118 102//102 112//112
f 112//112 241//241 117//117
f 117//117 119//119 112//112
f 118//118 112//112 119//119
f 193//193 127//127 90//90
f 179//179 194//194 202//202
f 179//179 147//147 194//194
f 193//193 194//194 147//147
f 158//158 155//155 126//126
f 126//126 120//120 158//158
f 90//90 98//98 118//118
f 84//84 94//94 79//79
f 94//94 84//84 101//101
f 89//89 95//95 101//101
f 292//292 77//77 88//88
f 88//88 77//77 86//86
f 86//86 72//72 88//88
f 89//89 292//292 88//88
f 295//295 186//186 156//156
f 299//299 287//287 100//100
f 388//388 99//99 405//405
f 442//442 196//196 385//385
f 444//444 374//374 151//151
f 442//442 148//148 271//271
f 148//148 385//385 273//273
f 385//385 196//196 245//245
f 196//196 301//301 245//245
f 244//244 245//245 301//301
f 244//244 385//385 245//245
f 211//211 273//273 385//385
f 273//273 211//211 390//390
f 390//390 211//211 135//135
f 211//211 398//398 135//135
f 135//135 398//398 133//133
f 390//390 270//270 273//273
f 270//270 148//148 273//273
f 148//148 270//270 271//271
f 390//390 403//403 270//270
f 87//87 64//64 392//392
f 87//87 92//92 64//64
f 385//385 244//244 204//204
f 211//211 385//385 204//204
f 211//211 204//204 398//398
f 133//133 87//87 135//135
f 133//133 398//398 424//424
f 140//140 424//424 398//398
f 249//249 381//381 221//221
f 221//221 381//381 204//204
f 381//381 249//249 361//361
f 140//140 381//381 361//361
f 204//204 140//140 398//398
f 140//140 346//346 424//424
f 140//140 361//361 346//346
f 381//381 140//140 204//204
f 424//424 346//346 133//133
f 133//133 346//346 92//92
f 133//133 92//92 87//87
f 301//301 262//262 302//302
f 274//274 221//221 115//115
f 221//221 244//244 115//115
f 121//121 115//115 244//244
f 154//154 121//121 436//436
f 154//154 320//320 290//290
f 290//290 143//143 307//307
f 272//272 265//265 268//268
f 272//272 268//268 307//307
f 275//275 313//313 138//138
f 112//112 103//103 275//275
f 241//241 129//129 117//117
f 119//119 117//117 129//129
f 118//118 108//108 194//194
f 108//108 118//118 119//119
f 232//232 147//147 234//234
f 229//229 232//232 166//166
f 184//184 253//253 319//319
f 229//229 184//184 149//149
f 155//155 142//142 149//149
f 155//155 158//158 142//142
f 149//149 142//142 229//229
f 126//126 127//127 116//116
f 127//127 193//193 116//116
f 127//127 93//93 90//90
f 113//113 226//226 93//93
f 328//328 230//230 113//113
f 113//113 230//230 226//226
f 96//96 278//278 101//101
f 100//100 434//434 308//308
f 308//308 434//434 187//187
f 299//299 308//308 439//439
f 287//287 99//99 100//100
f 405//405 301//301 388//388
f 196//196 388//388 301//301
f 405//405 262//262 301//301
f 302//302 262//262 287//287
f 302//302 299//299 439//439
f 302//302 439//439 436//436
f 287//287 262//262 405//405
f 302//302 287//287 299//299
f 436//436 121//121 301//301
f 436//436 441//441 154//154
f 154//154 441//441 443//443
f 443//443 332//332 154//154
f 143//143 290//290 320//320
f 309//309 272//272 307//307
f 309//309 103//103 272//272
f 143//143 313//313 309//309
f 128//128 129//129 285//285
f 129//129 241//241 285//285
f 129//129 128//128 108//108
f 194//194 108//108 202//202
f 176//176 202//202 130//130
f 234//234 179//179 176//176
f 284//284 283//283 162//162
f 253//253 283//283 284//284
f 283//283 248//248 162//162
f 283//283 253//253 184//184
f 229//229 166//166 184//184
f 166//166 283//283 184//184
f 319//319 253//253 338//338
f 319//319 149//149 184//184
f 180//180 149//149 319//319
f 186//186 152//152 180//180
f 155//155 113//113 126//126
f 127//127 126//126 93//93
f 113//113 93//93 126//126
f 155//155 152//152 113//113
f 328//328 113//113 152//152
f 97//97 226//226 230//230
f 96//96 97//97 230//230
f 325//325 278//278 96//96
f 230//230 325//325 96//96
f 328//328 325//325 230//230
f 440//440 308//308 187//187
f 308//308 440//440 439//439
f 436//436 439//439 441//441
f 441//441 439//439 440//440
f 335//335 443//443 440//440
f 443//443 441//441 440//440
f 445//445 443//443 342//342
f 332//332 327//327 320//320
f 320//320 213//213 313//313
f 224//224 174//174 157//157
f 213//213 138//138 313//313
f 176//176 224//224 192//192
f 176//176 130//130 224//224
f 130//130 202//202 150//150
f 192//192 234//234 176//176
f 104//104 338//338 350//350
f 187//187 335//335 440//440
f 342//342 107//107 445//445
f 332//332 443//443 445//445
f 172//172 213//213 327//327
f 332//332 172//172 327//327
f 350//350 107//107 342//342
f 322//322 343//343 107//107
f 107//107 343//343 172//172
f 343//343 169//169 172//172
f 172//172 332//332 445//445
f 107//107 350//350 322//322
f 338//338 185//185 350//350
f 350//350 185//185 322//322
f 185//185 343//343 322//322
f 284//284 162//162 343//343
f 343//343 162//162 157//157
f 174//174 145//145 169//169
f 145//145 150//150 138//138
f 130//130 174//174 224//224
f 192//192 224//224 157//157
f 192//192 157//157 248//248
f 248//248 157//157 162//162
f 130//130 145//145 174//174
f 150//150 145//145 130//130
f 138//138 213//213 145//145
f 138//138 128//128 285//285
f 202//202 108//108 128//128
f 138//138 202//202 128//128
f 343//343 185//185 284//284
f 172//172 445//445 107//107
f 342//342 104//104 350//350
f 342//342 335//335 104//104
f 338//338 111//111 352//352
f 180//180 198//198 105//105
f 105//105 203//203 219//219
f 187//187 105//105 219//219
f 228//228 104//104 219//219
f 203//203 198//198 352//352
f 111//111 203//203 352//352
f 228//228 219//219 111//111
f 111//111 219//219 203//203
f 338//338 228//228 111//111
f 104//104 187//187 219//219
f 352//352 198//198 180//180
f 335//335 187//187 104//104
f 105//105 187//187 186//186
f 198//198 203//203 105//105
f 352//352 180//180 338//338
f 104//104 228//228 338//338
f 105//105 186//186 180//180
f 319//319 338//338 180//180
f 185//185 253//253 284//284
f 192//192 248//248 234//234
f 166//166 248//248 283//283
f 166//166 234//234 248//248
f 234//234 166//166 232//232
f 202//202 138//138 150//150
f 174//174 169//169 157//157
f 343//343 157//157 169//169
f 169//169 145//145 213//213
f 172//172 169//169 213//213
f 213//213 320//320 327//327
f 443//443 335//335 342//342
f 186//186 295//295 152//152
f 328//328 152//152 325//325
f 226//226 97//97 91//91
f 97//97 84//84 91//91
f 226//226 91//91 93//93
f 285//285 241//241 138//138
f 275//275 138//138 241//241
f 320//320 313//313 143//143
f 309//309 307//307 143//143
f 405//405 99//99 287//287
f 434//434 156//156 187//187
f 156//156 186//186 187//187
f 325//325 295//295 278//278
f 295//295 325//325 152//152
f 292//292 101//101 278//278
f 292//292 89//89 101//101
f 101//101 97//97 96//96
f 101//101 84//84 97//97
f 90//90 93//93 91//91
f 180//180 152//152 149//149
f 149//149 152//152 155//155
f 253//253 185//185 338//338
f 158//158 232//232 229//229
f 142//142 158//158 229//229
f 147//147 179//179 234//234
f 179//179 202//202 176//176
f 194//194 193//193 118//118
f 119//119 129//129 108//108
f 112//112 275//275 241//241
f 313//313 275//275 309//309
f 275//275 103//103 309//309
f 103//103 265//265 272//272
f 265//265 161//161 268//268
f 290//290 121//121 154//154
f 332//332 320//320 154//154
f 302//302 436//436 301//301
f 301//301 121//121 244//244
f 204//204 244//244 221//221
f 361//361 249//249 265//265
f 385//385 148//148 442//442
f 374//374 444//444 442//442
f 100//100 308//308 299//299
f 79//79 91//91 84//84
f 120//120 147//147 158//158
f 193//193 120//120 116//116
f 116//116 120//120 126//126
f 147//147 120//120 193//193
f 158//158 147//147 232//232
f 193//193 90//90 118//118
f 102//102 118//118 98//98
f 115//115 290//290 307//307
f 307//307 274//274 115//115
f 274//274 268//268 161//161
f 92//92 346//346 372//372
f 330//330 318//318 349//349
f 360//360 366//366 271//271
f 444//444 196//196 442//442
f 444//444 388//388 196//196
f 151//151 434//434 99//99
f 260//260 77//77 292//292
f 88//88 94//94 95//95
f 94//94 88//88 72//72
f 89//89 88//88 95//95
f 94//94 101//101 95//95
f 94//94 85//85 79//79
f 72//72 85//85 94//94
f 91//91 79//79 90//90
f 79//79 80//80 98//98
f 103//103 102//102 372//372
f 249//249 161//161 265//265
f 71//71 67//67 44//44
f 87//87 392//392 403//403
f 403//403 330//330 270//270
f 392//392 45//45 279//279
f 330//330 413//413 315//315
f 355//355 236//236 351//351
f 315//315 355//355 261//261
f 315//315 267//267 355//355
f 236//236 355//355 267//267
f 351//351 236//236 358//358
f 351//351 191//191 261//261
f 99//99 444//444 151//151
f 419//419 109//109 434//434
f 151//151 419//419 434//434
f 109//109 156//156 434//434
f 109//109 260//260 156//156
f 256//256 63//63 106//106
f 106//106 63//63 73//73
f 73//73 78//78 75//75
f 393//393 62//62 63//63
f 62//62 393//393 438//438
f 63//63 78//78 73//73
f 62//62 70//70 78//78
f 78//78 63//63 62//62
f 75//75 78//78 70//70
f 74//74 73//73 75//75
f 80//80 81//81 83//83
f 351//351 358//358 323//323
f 351//351 323//323 316//316
f 191//191 351//351 316//316
f 191//191 286//286 252//252
f 331//331 318//318 411//411
f 337//337 349//349 340//340
f 432//432 419//419 151//151
f 432//432 151//151 366//366
f 167//167 109//109 242//242
f 167//167 77//77 260//260
f 77//77 167//167 106//106
f 63//63 256//256 393//393
f 59//59 58//58 68//68
f 437//437 58//58 59//59
f 55//55 34//34 81//81
f 321//321 382//382 286//286
f 331//331 340//340 318//318
f 419//419 242//242 109//109
f 437//437 59//59 393//393
f 58//58 437//437 367//367
f 58//58 181//181 54//54
f 58//58 60//60 68//68
f 74//74 75//75 66//66
f 70//70 55//55 66//66
f 41//41 311//311 34//34
f 71//71 34//34 311//311
f 41//41 38//38 311//311
f 173//173 42//42 345//345
f 323//323 173//173 316//316
f 42//42 35//35 345//345
f 206//206 282//282 240//240
f 282//282 163//163 428//428
f 428//428 324//324 243//243
f 417//417 164//164 408//408
f 376//376 269//269 334//334
f 257//257 368//368 334//334
f 277//277 269//269 376//376
f 110//110 337//337 331//331
f 242//242 419//419 110//110
f 256//256 231//231 393//393
f 54//54 51//51 60//60
f 51//51 47//47 60//60
f 65//65 60//60 47//47
f 65//65 61//61 62//62
f 55//55 61//61 65//65
f 55//55 70//70 61//61
f 55//55 47//47 53//53
f 310//310 215//215 39//39
f 324//324 317//317 243//243
f 164//164 243//243 408//408
f 296//296 402//402 153//153
f 296//296 407//407 402//402
f 400//400 407//407 296//296
f 400//400 416//416 146//146
f 416//416 314//314 146//146
f 141//141 410//410 314//314
f 165//165 417//417 415//415
f 356//356 298//298 417//417
f 312//312 356//356 177//177
f 312//312 177//177 294//294
f 294//294 183//183 312//312
f 183//183 171//171 359//359
f 359//359 171//171 246//246
f 430//430 177//177 431//431
f 294//294 177//177 266//266
f 430//430 246//246 266//266
f 266//266 177//177 430//430
f 246//246 171//171 266//266
f 171//171 183//183 266//266
f 294//294 266//266 183//183
f 362//362 356//356 312//312
f 312//312 183//183 362//362
f 168//168 431//431 177//177
f 257//257 362//362 183//183
f 429//429 369//369 368//368
f 376//376 334//334 333//333
f 376//376 333//333 371//371
f 376//376 371//371 277//277
f 242//242 377//377 231//231
f 57//57 54//54 181//181
f 47//47 41//41 53//53
f 39//39 46//46 310//310
f 217//217 215//215 223//223
f 345//345 217//217 341//341
f 341//341 217//217 32//32
f 406//406 404//404 144//144
f 201//201 137//137 197//197
f 336//336 296//296 293//293
f 324//324 144//144 153//153
f 400//400 296//296 297//297
f 339//339 141//141 214//214
f 410//410 141//141 339//339
f 168//168 339//339 214//214
f 353//353 225//225 246//246
f 246//246 225//225 412//412
f 421//421 427//427 359//359
f 423//423 426//426 420//420
f 426//426 427//427 420//420
f 426//426 429//429 368//368
f 426//426 425//425 429//429
f 371//371 386//386 277//277
f 435//435 190//190 386//386
f 250//250 50//50 52//52
f 250//250 49//49 50//50
f 433//433 354//354 250//250
f 250//250 354//354 49//49
f 250//250 52//52 56//56
f 50//50 49//49 43//43
f 56//56 52//52 57//57
f 56//56 433//433 250//250
f 50//50 57//57 52//52
f 48//48 54//54 57//57
f 220//220 223//223 363//363
f 341//341 32//32 216//216
f 406//406 216//216 404//404
f 297//297 296//296 139//139
f 254//254 237//237 379//379
f 384//384 378//378 399//399
f 378//378 384//384 395//395
f 247//247 237//237 254//254
f 139//139 136//136 254//254
f 297//297 139//139 387//387
f 387//387 139//139 254//254
f 400//400 396//396 401//401
f 141//141 160//160 159//159
f 348//348 225//225 210//210
f 365//365 348//348 344//344
f 427//427 421//421 420//420
f 426//426 423//423 425//425
f 435//435 371//371 369//369
f 46//46 40//40 363//363
f 423//423 40//40 46//46
f 354//354 46//46 49//49
f 51//51 48//48 47//47
f 222//222 31//31 220//220
f 32//32 222//222 216//216
f 30//30 205//205 364//364
f 364//364 280//280 30//30
f 216//216 280//280 364//364
f 137//137 364//364 134//134
f 136//136 137//137 134//134
f 336//336 137//137 136//136
f 139//139 296//296 336//336
f 395//395 227//227 373//373
f 373//373 227//227 132//132
f 131//131 132//132 281//281
f 373//373 132//132 375//375
f 373//373 375//375 370//370
f 378//378 373//373 370//370
f 297//297 387//387 400//400
f 384//384 159//159 389//389
f 159//159 160//160 401//401
f 141//141 159//159 214//214
f 199//199 353//353 422//422
f 218//218 397//397 329//329
f 218//218 210//210 225//225
f 200//200 29//29 33//33
f 36//36 276//276 200//200
f 31//31 222//222 32//32
f 134//134 205//205 175//175
f 134//134 175//175 281//281
f 281//281 175//175 131//131
f 16//16 11//11 125//125
f 125//125 17//17 16//16
f 375//375 131//131 7//7
f 7//7 20//20 375//375
f 19//19 370//370 20//20
f 8//8 12//12 9//9
f 159//159 399//399 422//422
f 422//422 399//399 199//199
f 199//199 399//399 380//380
f 19//19 15//15 399//399
f 25//25 383//383 24//24
f 212//212 238//238 188//188
f 258//258 251//251 233//233
f 233//233 251//251 188//188
f 188//188 303//303 195//195
f 195//195 303//303 29//29
f 208//208 195//195 29//29
f 33//33 207//207 30//30
f 33//33 29//29 207//207
f 200//200 33//33 280//280
f 365//365 209//209 222//222
f 365//365 222//222 220//220
f 36//36 216//216 222//222
f 131//131 17//17 125//125
f 114//114 17//17 131//131
f 10//10 17//17 114//114
f 14//14 18//18 28//28
f 122//122 124//124 326//326
f 122//122 239//239 123//123
f 123//123 288//288 258//258
f 28//28 239//239 21//21
f 239//239 13//13 21//21
f 13//13 239//239 326//326
f 178//178 289//289 288//288
f 178//178 28//28 289//289
f 28//28 178//178 239//239
f 123//123 239//239 178//178
f 288//288 123//123 178//178
f 28//28 18//18 114//114
f 289//289 28//28 114//114
f 326//326 239//239 122//122
f 6//6 13//13 326//326
f 21//21 14//14 28//28
f 114//114 18//18 10//10
f 6//6 124//124 23//23
f 124//124 6//6 326//326
f 212//212 25//25 23//23
f 23//23 238//238 212//212
f 122//122 123//123 238//238
f 29//29 303//303 207//207
f 263//263 30//30 207//207
f 264//264 170//170 182//182
f 259//259 207//207 303//303
f 259//259 263//263 207//207