# https://github.com/mikedh/trimesh
v 0.07295445 0.14740770 0.03948717
v 0.08261417 0.14679912 0.05000000
v 0.07549731 0.14974724 0.04172025
v 0.06947056 0.14412506 0.03644425
v 0.06845533 0.15266377 0.03352773
v 0.06991499 0.13906818 0.03800349
v 0.06596606 0.12799966 0.03612554
v 0.07887476 0.12799966 0.05000000
v 0.06536571 0.12631678 0.03512062
v 0.06553126 0.12221537 0.03442068
v 0.06866277 0.11629919 0.03652187
v 0.07194748 0.11256458 0.03925431
v 0.08261417 0.10920089 0.05000000
v 0.07387557 0.10660033 0.04005111
v 0.07419498 0.10571287 0.04020497
v 0.08422150 0.16695448 0.03919318
v 0.09326369 0.16273631 0.05000000
v 0.08666750 0.16933249 0.03997349
v 0.08122872 0.16345067 0.03859971
v 0.07858352 0.15730164 0.03993227
v 0.07685187 0.15239864 0.04134040
v 0.07597677 0.15018822 0.04188853
v 0.10130854 0.12799966 0.04828827
v 0.10334036 0.13821439 0.04828827
v 0.09326369 0.09326301 0.05000000
v 0.08408961 0.08646899 0.03750412
v 0.08535899 0.08535899 0.03798494
v 0.08242666 0.08242666 0.03352773
v 0.08123765 0.09142902 0.03792518
v 0.07908838 0.09690077 0.03929896
v 0.07550488 0.10207373 0.03918219
v 0.10334036 0.11778562 0.04828827
v 0.10271254 0.18075064 0.03933880
v 0.10920089 0.17338583 0.05000000
v 0.10562083 0.18202895 0.03994464
v 0.09427068 0.17485165 0.03957372
v 0.08862994 0.17124068 0.03943016
v 0.10912601 0.14687398 0.04828827
v 0.11502639 0.13337387 0.02968183
v 0.11395760 0.12799966 0.02968183
v 0.10920089 0.08261417 0.05000000
v 0.10416050 0.07301765 0.03818689
v 0.10515305 0.07284319 0.03863268
v 0.09802589 0.07567110 0.03686944
v 0.09333582 0.07838226 0.03648478
v 0.10912601 0.10912601 0.04828827
v 0.11502639 0.12262613 0.02968183
v 0.12800035 0.17712524 0.05000000
v 0.11252268 0.18259631 0.04081081
v 0.11561299 0.18368709 0.04029839
v 0.12800035 0.18643533 0.03999341
v 0.11724985 0.18496196 0.03927835
v 0.12129288 0.18633299 0.03866909
v 0.12104285 0.18656447 0.03836686
v 0.10816093 0.18314514 0.03928728
v 0.11778562 0.15265965 0.04828827
v 0.11807068 0.13792932 0.02968183
v 0.11062756 0.12799966 0.01893683
v 0.10887324 0.13592291 0.00819183
v 0.12800035 0.07124617 0.04180061
v 0.12800035 0.07887476 0.05000000
v 0.12713418 0.07128532 0.04165705
v 0.12115550 0.07007777 0.03908122
v 0.11532999 0.07105109 0.03888202
v 0.11778562 0.10334036 0.04828827
v 0.11807068 0.11807068 0.02968183
v 0.11042217 0.12071864 0.01360177
v 0.14951233 0.17993463 0.04238103
v 0.14679912 0.17338583 0.05000000
v 0.14118655 0.18326810 0.04057864
v 0.13093062 0.18647998 0.03931888
v 0.12800035 0.15469147 0.04828827
v 0.12262613 0.14097362 0.02968183
v 0.11336069 0.14263931 0.00819183
v 0.14679912 0.08261417 0.05000000
v 0.14972595 0.07554953 0.04178138
v 0.14915308 0.07531461 0.04165087
v 0.14253011 0.07214737 0.03966233
v 0.13848639 0.07077565 0.03905305
v 0.12800035 0.10130854 0.04828827
v 0.12262613 0.11502639 0.02968183
v 0.11571534 0.11571534 0.01893683
v 0.16458815 0.17091783 0.04141733
v 0.16273700 0.16273631 0.05000000
v 0.16733708 0.16733708 0.04300679
v 0.16032120 0.17509618 0.04020840
v 0.15270361 0.17865633 0.04160210
v 0.13821439 0.15265965 0.04828827
v 0.12800035 0.14204240 0.02968183
v 0.12007708 0.14712675 0.00819183
v 0.16273700 0.09326301 0.05000000
v 0.15832648 0.08100137 0.04151212
v 0.16775471 0.08824528 0.04237279
v 0.15437068 0.07745838 0.04069197
v 0.13821439 0.10334036 0.04828827
v 0.12800035 0.11395760 0.02968183
v 0.12007708 0.10887256 0.00819183
v 0.17668907 0.15182919 0.04392722
v 0.17338583 0.14679912 0.05000000
v 0.17866045 0.14898410 0.04386334
v 0.17196741 0.16130620 0.04246002
v 0.17357335 0.17357335 0.03352773
v 0.14687398 0.14687398 0.04828827
v 0.13337387 0.14097362 0.02968183
v 0.12800035 0.14870317 0.00819183
v 0.17949158 0.10667177 0.04289688
v 0.17807658 0.09943951 0.03978253
v 0.17892284 0.10237390 0.04079844
v 0.17623848 0.09719064 0.04008820
v 0.17338583 0.10920089 0.05000000
v 0.17234106 0.09219971 0.04060130
v 0.16861607 0.08890813 0.04199088
v 0.14687398 0.10912601 0.04828827
v 0.13337387 0.11502639 0.02968183
v 0.12800035 0.10729683 0.00819183
v 0.18027257 0.14665692 0.04262831
v 0.18044772 0.14231374 0.04336809
v 0.18334090 0.13034607 0.04281721
v 0.17712524 0.12799966 0.05000000
v 0.18309020 0.12799966 0.04358858
v 0.19245042 0.12799966 0.03352773
v 0.15265965 0.13821439 0.04828827
v 0.13792932 0.13792932 0.02968183
v 0.13592291 0.14712675 0.00819183
v 0.18264096 0.12379247 0.04317233
v 0.18338486 0.11729655 0.04098390
v 0.18302974 0.11414030 0.04069060
v 0.18165321 0.11239355 0.04179580
v 0.17966193 0.10796243 0.04298962
v 0.15265965 0.11778562 0.04828827
v 0.13792932 0.11807068 0.02968183
v 0.13592291 0.10887256 0.00819183
v 0.12800035 0.10205793 0.00614353
v 0.15469147 0.12799966 0.04828827
v 0.14097362 0.13337387 0.02968183
v 0.14263931 0.14263931 0.00819183
v 0.14097362 0.12262613 0.02968183
v 0.14263931 0.11336069 0.00819183
v 0.13993228 0.09919292 0.00409592
v 0.14204240 0.12799966 0.02968183
v 0.14712744 0.13592291 0.00819183
v 0.14712744 0.12007709 0.00819183
v 0.14513478 0.11086522 0.00681188
v 0.14870317 0.12799966 0.00819183
v 0.15038811 0.13727335 0.00681188
v 0.15328334 0.11752735 0.00558647
v 0.15536667 0.12799966 0.00558647
v 0.10729683 0.12799966 0.00819183
v 0.06354958 0.12799966 0.03352773
v 0.10887324 0.12007709 0.00819183
v 0.06845533 0.10333623 0.03352773
v 0.08242666 0.17357335 0.03352773
v 0.08951328 0.14394165 0.00000000
v 0.08634261 0.12799966 0.00000000
v 0.06687275 0.12799966 0.01127597
v 0.07152573 0.15139233 0.01127597
v 0.11336069 0.11336069 0.00819183
v 0.08951328 0.11205834 0.00000000
v 0.07152573 0.10460767 0.01127597
v 0.10333623 0.18754398 0.03352773
v 0.09854381 0.15745619 0.00000000
v 0.08477650 0.17122350 0.01127597
v 0.09854381 0.09854382 0.00000000
v 0.08477650 0.08477650 0.01127597
v 0.10333623 0.06845533 0.03352773
v 0.12800035 0.19245042 0.03352773
v 0.11205834 0.16648673 0.00000000
v 0.10460767 0.18447427 0.01127597
v 0.11205834 0.08951328 0.00000000
v 0.10460767 0.07152573 0.01127597
v 0.12800035 0.06354958 0.03352773
v 0.15266377 0.18754398 0.03352773
v 0.12800035 0.16965739 0.00000000
v 0.12800035 0.18912726 0.01127597
v 0.12800035 0.08634192 0.00000000
v 0.12800035 0.06687275 0.01127597
v 0.15266377 0.06845533 0.03352773
v 0.14394165 0.16648673 0.00000000
v 0.15139233 0.18447427 0.01127597
v 0.14394165 0.08951328 0.00000000
v 0.15139233 0.07152573 0.01127597
v 0.17357335 0.08242666 0.03352773
v 0.18754466 0.15266377 0.03352773
v 0.15745619 0.15745619 0.00000000
v 0.17122350 0.17122350 0.01127597
v 0.15745619 0.09854382 0.00000000
v 0.17122350 0.08477650 0.01127597
v 0.18754466 0.10333623 0.03352773
v 0.16648673 0.14394165 0.00000000
v 0.18447427 0.15139233 0.01127597
v 0.16648673 0.11205834 0.00000000
v 0.18447427 0.10460767 0.01127597
v 0.16965808 0.12799966 0.00000000
v 0.18912724 0.12799966 0.01127597
vn -0.72449861 0.14408968 0.67404742
vn -0.37807226 0.15660585 0.91243409
vn -0.67638534 0.28018852 0.68117344
vn -0.72393176 0.14436206 0.67459796
vn -0.88643029 0.36716511 0.28183528
vn -0.72448863 0.14412673 0.67405023
vn -0.73215763 0.00003966 0.68113523
vn -0.40922216 -0.00000432 0.91243478
vn -0.72455911 -0.14416349 0.67396660
vn -0.72443567 -0.14413375 0.67410565
vn -0.72477934 -0.14436423 0.67368678
vn -0.72453418 -0.14415114 0.67399604
vn -0.37807256 -0.15660511 0.91243409
vn -0.72426558 -0.14384203 0.67435068
vn -0.67638346 -0.28014570 0.68119293
vn -0.61414138 0.41043684 0.67407118
vn -0.28935022 0.28935918 0.91244053
vn -0.51768562 0.51771404 0.68115620
vn -0.61429310 0.41037461 0.67397082
vn -0.61391999 0.41039965 0.67429547
vn -0.61435146 0.41040301 0.67390033
vn -0.61415094 0.41040913 0.67407935
vn 0.45842424 0.00000308 0.88873349
vn 0.42353373 -0.17542784 0.88873182
vn -0.28936183 -0.28936331 0.91243553
vn -0.61419620 -0.41038961 0.67404999
vn -0.51770137 -0.51769495 0.68115874
vn -0.67844089 -0.67844242 0.28184012
vn -0.61408884 -0.41041556 0.67413200
vn -0.61423427 -0.41040543 0.67400567
vn -0.60917014 -0.40998785 0.67883850
vn 0.42353416 0.17543058 0.88873108
vn -0.41041397 0.61420844 0.67402401
vn -0.15661190 0.37806780 0.91243490
vn -0.28017253 0.67642902 0.68113664
vn -0.41037004 0.61419039 0.67406721
vn -0.41094608 0.61446989 0.67346127
vn 0.32414289 -0.32414148 0.88874276
vn 0.91252461 -0.37799823 0.15625676
vn 0.98771632 0.00001264 0.15625770
vn -0.15660027 -0.37807144 0.91243539
vn -0.41052589 -0.61413357 0.67402408
vn -0.28031391 -0.67635259 0.68115438
vn -0.41035394 -0.61419329 0.67407436
vn -0.41050398 -0.61428370 0.67390060
vn 0.32414682 0.32414159 0.88874128
vn 0.91252134 0.37800767 0.15625301
vn -0.00000048 0.40921904 0.91243618
vn -0.14410755 0.72463936 0.67389228
vn -0.14409560 0.72451587 0.67402760
vn -0.00000876 0.73214509 0.68114871
vn -0.14414958 0.72450181 0.67403118
vn -0.14412841 0.72448486 0.67405392
vn -0.14413534 0.72450021 0.67403594
vn -0.14291649 0.72315597 0.67573688
vn 0.17542689 -0.42353343 0.88873215
vn 0.69842761 -0.69841827 0.15623956
vn 0.95517514 0.00000276 -0.29604130
vn 0.65132032 -0.26979227 -0.70922068
vn -0.00005770 -0.73213688 0.68115753
vn 0.00000160 -0.40922071 0.91243543
vn -0.14442095 -0.72424147 0.67425283
vn -0.14410201 -0.72449056 0.67405344
vn -0.14409673 -0.72450132 0.67404301
vn 0.17542386 0.42353762 0.88873076
vn 0.69843724 0.69841019 0.15623262
vn 0.88246849 0.36552954 -0.29603635
vn 0.28024162 0.67640066 0.68113638
vn 0.15660118 0.37806948 0.91243605
vn 0.14412810 0.72450346 0.67403400
vn 0.14408422 0.72464815 0.67388783
vn -0.00000391 -0.45842338 0.88873393
vn 0.37799294 -0.91252794 0.15625012
vn 0.49850009 -0.49849134 -0.70922778
vn 0.15658700 -0.37805931 0.91244270
vn 0.28018447 -0.67641648 0.68114419
vn 0.14276728 -0.72336685 0.67554267
vn 0.14397875 -0.72437907 0.67419959
vn 0.14419618 -0.72450493 0.67401786
vn -0.00000208 0.45842297 0.88873415
vn 0.37798272 0.91253397 0.15623965
vn 0.67543040 0.67538059 -0.29606560
vn 0.41040251 0.61418727 0.67405028
vn 0.28937734 0.28936907 0.91242879
vn 0.51766585 0.51772638 0.68116185
vn 0.41039093 0.61419437 0.67405086
vn 0.41046563 0.61420607 0.67399471
vn -0.17542783 -0.42353765 0.88872996
vn -0.00000968 -0.98771803 0.15624692
vn 0.26978917 -0.65132886 -0.70921401
vn 0.28937028 -0.28936704 0.91243167
vn 0.41037600 -0.61421742 0.67403895
vn 0.51780221 -0.51765612 0.68111159
vn 0.41044761 -0.61420437 0.67400723
vn -0.17542998 0.42353377 0.88873138
vn -0.00000996 0.98771922 0.15623937
vn 0.26977984 0.65131887 -0.70922674
vn 0.61420186 0.41040052 0.67403820
vn 0.37808104 0.15660351 0.91243086
vn 0.67638861 0.28022124 0.68115674
vn 0.61418646 0.41039329 0.67405663
vn 0.67843329 0.67844919 0.28184211
vn -0.32414713 -0.32414225 0.88874093
vn -0.37800489 -0.91252190 0.15625650
vn 0.00000080 -0.70497671 -0.70923046
vn 0.67639708 -0.28016634 0.68117091
vn 0.61419647 -0.41041776 0.67403261
vn 0.61400754 -0.41045316 0.67418317
vn 0.61421461 -0.41038562 0.67403565
vn 0.37807878 -0.15659386 0.91243345
vn 0.61418672 -0.41039853 0.67405320
vn 0.61435702 -0.41031642 0.67394798
vn -0.32414141 0.32414127 0.88874337
vn -0.37800958 0.91252285 0.15623960
vn -0.00000033 0.70499962 -0.70920768
vn 0.72450232 0.14408065 0.67404536
vn 0.72450143 0.14409129 0.67404405
vn 0.72449326 0.14414015 0.67404239
vn 0.40922623 0.00000182 0.91243295
vn 0.73213910 0.00006481 0.68115514
vn 0.95946344 0.00000121 0.28183314
vn -0.42353251 -0.17542612 0.88873274
vn -0.69842417 -0.69841939 0.15624990
vn -0.26980356 -0.65132134 -0.70921545
vn 0.72449246 -0.14409233 0.67405346
vn 0.72449307 -0.14414141 0.67404232
vn 0.72445414 -0.14416121 0.67407993
vn 0.72420384 -0.14385255 0.67441473
vn 0.72447510 -0.14402600 0.67408630
vn -0.42353376 0.17543035 0.88873131
vn -0.69842423 0.69842274 0.15623468
vn -0.26979033 0.65131265 -0.70922846
vn -0.00001296 0.36410652 -0.93135731
vn -0.45842291 0.00000203 0.88873418
vn -0.91252769 -0.37799747 0.15624057
vn -0.49848782 -0.49851029 -0.70922309
vn -0.91252200 0.37801049 0.15624234
vn -0.49852592 0.49850894 -0.70919725
vn -0.13934403 0.33638783 -0.93135733
vn -0.98771911 0.00000982 0.15624006
vn -0.65133283 -0.26979426 -0.70920844
vn -0.65133622 0.26980057 -0.70920292
vn -0.25750269 0.25746652 -0.93134492
vn -0.70500876 0.00000831 -0.70919859
vn -0.33640815 -0.13933463 -0.93135139
vn -0.33639497 0.13934267 -0.93135495
vn -0.36410548 0.00000935 -0.93135772
vn 0.70496684 -0.00000143 -0.70924026
vn -0.95947713 -0.00000122 0.28178651
vn 0.65133224 0.26980695 -0.70920415
vn -0.88643201 -0.36716168 0.28183435
vn -0.67842941 0.67845050 0.28184829
vn -0.11956867 0.04952366 -0.99159001
vn -0.12940498 -0.00000051 -0.99159183
vn -0.84266831 -0.00000311 -0.53843302
vn -0.77852537 0.32247408 -0.53843172
vn 0.49852592 0.49849136 -0.70920961
vn -0.11956737 -0.04952380 -0.99159016
vn -0.77852501 -0.32247561 -0.53843132
vn -0.36717110 0.88643047 0.28182690
vn -0.09150054 0.09150456 -0.99159194
vn -0.59585629 0.59585746 -0.53843214
vn -0.09150035 -0.09150445 -0.99159196
vn -0.59585625 -0.59585759 -0.53843204
vn -0.36716843 -0.88643110 0.28182841
vn -0.00000090 0.95946625 0.28182355
vn -0.04952952 0.11956722 -0.99158989
vn -0.32247391 0.77853197 -0.53842227
vn -0.04952586 -0.11956249 -0.99159064
vn -0.32247506 -0.77852530 -0.53843124
vn 0.00000002 -0.95946459 0.28182920
vn 0.36718026 0.88642495 0.28183233
vn 0.00000364 0.12940504 -0.99159182
vn -0.00000017 0.84267075 -0.53842920
vn -0.00000447 -0.12942801 -0.99158882
vn 0.00000052 -0.84267142 -0.53842815
vn 0.36717342 -0.88642909 0.28182821
vn 0.04952657 0.11956667 -0.99159010
vn 0.32248176 0.77852815 -0.53842310
vn 0.04953021 -0.11956309 -0.99159035
vn 0.32247902 -0.77852375 -0.53843111
vn 0.67844357 -0.67844347 0.28183112
vn 0.88642838 0.36716556 0.28184068
vn 0.09150048 0.09150497 -0.99159190
vn 0.59585479 0.59586120 -0.53842965
vn 0.09150453 -0.09151001 -0.99159106
vn 0.59585628 -0.59585751 -0.53843210
vn 0.88643033 -0.36716969 0.28182919
vn 0.11956571 0.04953014 -0.99159004
vn 0.77852591 0.32247610 -0.53842973
vn 0.11957092 -0.04953054 -0.99158939
vn 0.77852544 -0.32247773 -0.53842943
vn 0.12943477 -0.00000051 -0.99158794
vn 0.84267200 -0.00000298 -0.53842725
f 1//1 2//2 3//3
f 4//4 2//2 1//1
f 5//5 1//1 3//3
f 5//5 4//4 1//1
f 6//6 2//2 4//4
f 7//7 2//2 6//6
f 2//2 7//7 8//8
f 9//9 8//8 7//7
f 10//10 8//8 9//9
f 11//11 8//8 10//10
f 12//12 8//8 11//11
f 12//12 13//13 8//8
f 14//14 13//13 12//12
f 13//13 14//14 15//15
f 16//16 17//17 18//18
f 16//16 2//2 17//17
f 19//19 2//2 16//16
f 20//20 2//2 19//19
f 21//21 2//2 20//20
f 22//22 2//2 21//21
f 2//2 22//22 3//3
f 2//2 23//23 24//24
f 23//23 2//2 8//8
f 25//25 26//26 27//27
f 13//13 26//26 25//25
f 26//26 28//28 27//27
f 13//13 29//29 26//26
f 13//13 30//30 29//29
f 13//13 31//31 30//30
f 31//31 13//13 15//15
f 23//23 13//13 32//32
f 13//13 23//23 8//8
f 33//33 34//34 35//35
f 36//36 34//34 33//33
f 36//36 17//17 34//34
f 37//37 17//17 36//36
f 17//17 37//37 18//18
f 17//17 24//24 38//38
f 24//24 17//17 2//2
f 23//23 39//39 24//24
f 39//39 23//23 40//40
f 41//41 42//42 43//43
f 41//41 44//44 42//42
f 41//41 45//45 44//44
f 25//25 45//45 41//41
f 45//45 25//25 27//27
f 32//32 25//25 46//46
f 25//25 32//32 13//13
f 23//23 47//47 40//40
f 47//47 23//23 32//32
f 48//48 49//49 34//34
f 48//48 50//50 49//49
f 51//51 50//50 48//48
f 51//51 52//52 50//50
f 53//53 52//52 51//51
f 52//52 53//53 54//54
f 49//49 35//35 34//34
f 35//35 49//49 55//55
f 34//34 38//38 56//56
f 38//38 34//34 17//17
f 24//24 57//57 38//38
f 57//57 24//24 39//39
f 39//39 58//58 59//59
f 58//58 39//39 40//40
f 41//41 60//60 61//61
f 41//41 62//62 60//60
f 41//41 63//63 62//62
f 41//41 64//64 63//63
f 64//64 41//41 43//43
f 46//46 41//41 65//65
f 41//41 46//46 25//25
f 32//32 66//66 47//47
f 66//66 32//32 46//46
f 47//47 58//58 40//40
f 58//58 47//47 67//67
f 68//68 48//48 69//69
f 70//70 48//48 68//68
f 70//70 51//51 48//48
f 51//51 70//70 71//71
f 48//48 56//56 72//72
f 56//56 48//48 34//34
f 57//57 56//56 38//38
f 56//56 57//57 73//73
f 57//57 59//59 74//74
f 59//59 57//57 39//39
f 60//60 75//75 61//61
f 60//60 76//76 75//75
f 60//60 77//77 76//76
f 60//60 78//78 77//77
f 78//78 60//60 79//79
f 65//65 61//61 80//80
f 61//61 65//65 41//41
f 81//81 46//46 65//65
f 46//46 81//81 66//66
f 66//66 67//67 47//47
f 67//67 66//66 82//82
f 83//83 84//84 85//85
f 86//86 84//84 83//83
f 87//87 84//84 86//86
f 68//68 84//84 87//87
f 84//84 68//68 69//69
f 48//48 88//88 69//69
f 88//88 48//48 72//72
f 73//73 72//72 56//56
f 72//72 73//73 89//89
f 74//74 73//73 57//57
f 73//73 74//74 90//90
f 91//91 92//92 93//93
f 91//91 94//94 92//92
f 91//91 76//76 94//94
f 76//76 91//91 75//75
f 80//80 75//75 95//95
f 75//75 80//80 61//61
f 96//96 65//65 80//80
f 65//65 96//96 81//81
f 81//81 82//82 66//66
f 82//82 81//81 97//97
f 98//98 99//99 100//100
f 101//101 99//99 98//98
f 102//102 101//101 98//98
f 85//85 99//99 101//101
f 99//99 85//85 84//84
f 69//69 103//103 84//84
f 103//103 69//69 88//88
f 89//89 88//88 72//72
f 88//88 89//89 104//104
f 90//90 89//89 73//73
f 89//89 90//90 105//105
f 106//106 107//107 108//108
f 106//106 109//109 107//107
f 110//110 109//109 106//106
f 110//110 111//111 109//109
f 110//110 112//112 111//111
f 110//110 93//93 112//112
f 93//93 110//110 91//91
f 113//113 75//75 91//91
f 75//75 113//113 95//95
f 114//114 80//80 95//95
f 80//80 114//114 96//96
f 115//115 81//81 96//96
f 81//81 115//115 97//97
f 99//99 116//116 100//100
f 99//99 117//117 116//116
f 99//99 118//118 117//117
f 119//119 118//118 99//99
f 118//118 119//119 120//120
f 121//121 118//118 120//120
f 84//84 122//122 99//99
f 122//122 84//84 103//103
f 104//104 103//103 88//88
f 103//103 104//104 123//123
f 105//105 104//104 89//89
f 104//104 105//105 124//124
f 119//119 125//125 120//120
f 125//125 121//121 120//120
f 119//119 126//126 125//125
f 119//119 127//127 126//126
f 119//119 128//128 127//127
f 110//110 128//128 119//119
f 110//110 129//129 128//128
f 129//129 110//110 106//106
f 130//130 91//91 110//110
f 91//91 130//130 113//113
f 131//131 95//95 113//113
f 95//95 131//131 114//114
f 132//132 96//96 114//114
f 96//96 132//132 115//115
f 115//115 133//133 97//97
f 99//99 134//134 119//119
f 134//134 99//99 122//122
f 123//123 122//122 103//103
f 122//122 123//123 135//135
f 124//124 123//123 104//104
f 123//123 124//124 136//136
f 134//134 110//110 119//119
f 110//110 134//134 130//130
f 131//131 130//130 137//137
f 130//130 131//131 113//113
f 138//138 114//114 131//131
f 114//114 138//138 132//132
f 139//139 115//115 132//132
f 115//115 139//139 133//133
f 140//140 122//122 135//135
f 122//122 140//140 134//134
f 141//141 123//123 136//136
f 123//123 141//141 135//135
f 137//137 134//134 140//140
f 134//134 137//137 130//130
f 142//142 131//131 137//137
f 131//131 142//142 138//138
f 139//139 138//138 143//143
f 138//138 139//139 132//132
f 141//141 140//140 135//135
f 140//140 141//141 144//144
f 145//145 141//141 136//136
f 144//144 137//137 140//140
f 137//137 144//144 142//142
f 143//143 142//142 146//146
f 142//142 143//143 138//138
f 144//144 145//145 147//147
f 145//145 144//144 141//141
f 146//146 144//144 147//147
f 144//144 146//146 142//142
f 59//59 58//58 148//148
f 5//5 6//6 4//4
f 5//5 7//7 6//6
f 7//7 5//5 149//149
f 67//67 148//148 58//58
f 148//148 67//67 150//150
f 149//149 9//9 7//7
f 149//149 10//10 9//9
f 11//11 14//14 12//12
f 11//11 15//15 14//14
f 10//10 15//15 11//11
f 10//10 151//151 15//15
f 151//151 10//10 149//149
f 152//152 16//16 18//18
f 152//152 19//19 16//16
f 152//152 20//20 19//19
f 152//152 21//21 20//20
f 152//152 22//22 21//21
f 152//152 3//3 22//22
f 3//3 152//152 5//5
f 148//148 153//153 59//59
f 153//153 148//148 154//154
f 155//155 5//5 156//156
f 5//5 155//155 149//149
f 82//82 150//150 67//67
f 150//150 82//82 157//157
f 158//158 148//148 150//150
f 148//148 158//158 154//154
f 159//159 149//149 155//155
f 149//149 159//159 151//151
f 29//29 28//28 26//26
f 30//30 28//28 29//29
f 31//31 28//28 30//30
f 15//15 28//28 31//31
f 28//28 15//15 151//151
f 160//160 33//33 35//35
f 160//160 36//36 33//33
f 160//160 37//37 36//36
f 160//160 18//18 37//37
f 18//18 160//160 152//152
f 59//59 161//161 74//74
f 161//161 59//59 153//153
f 162//162 5//5 152//152
f 5//5 162//162 156//156
f 154//154 156//156 153//153
f 156//156 154//154 155//155
f 82//82 97//97 157//157
f 163//163 150//150 157//157
f 150//150 163//163 158//158
f 159//159 154//154 158//158
f 154//154 159//159 155//155
f 164//164 151//151 159//159
f 151//151 164//164 28//28
f 42//42 165//165 43//43
f 44//44 165//165 42//42
f 45//45 165//165 44//44
f 27//27 165//165 45//45
f 165//165 27//27 28//28
f 51//51 54//54 53//53
f 54//54 51//51 166//166
f 50//50 55//55 49//49
f 55//55 50//50 52//52
f 54//54 55//55 52//52
f 166//166 55//55 54//54
f 166//166 35//35 55//55
f 35//35 166//166 160//160
f 74//74 167//167 90//90
f 167//167 74//74 161//161
f 168//168 152//152 160//160
f 152//152 168//168 162//162
f 153//153 162//162 161//161
f 162//162 153//153 156//156
f 169//169 157//157 97//97
f 157//157 169//169 163//163
f 164//164 158//158 163//163
f 158//158 164//164 159//159
f 164//164 165//165 28//28
f 165//165 164//164 170//170
f 63//63 60//60 62//62
f 165//165 64//64 43//43
f 165//165 63//63 64//64
f 63//63 171//171 60//60
f 171//171 63//63 165//165
f 70//70 172//172 71//71
f 172//172 70//70 68//68
f 172//172 51//51 71//71
f 51//51 172//172 166//166
f 90//90 173//173 105//105
f 173//173 90//90 167//167
f 174//174 160//160 166//166
f 160//160 174//174 168//168
f 161//161 168//168 167//167
f 168//168 161//161 162//162
f 175//175 97//97 133//133
f 97//97 175//175 169//169
f 170//170 163//163 169//169
f 163//163 170//170 164//164
f 170//170 171//171 165//165
f 171//171 170//170 176//176
f 60//60 171//171 79//79
f 78//78 76//76 77//77
f 171//171 78//78 79//79
f 171//171 76//76 78//78
f 76//76 171//171 177//177
f 102//102 83//83 85//85
f 102//102 86//86 83//83
f 102//102 87//87 86//86
f 172//172 87//87 102//102
f 87//87 172//172 68//68
f 105//105 178//178 124//124
f 178//178 105//105 173//173
f 179//179 166//166 172//172
f 166//166 179//179 174//174
f 167//167 174//174 173//173
f 174//174 167//167 168//168
f 180//180 133//133 139//139
f 133//133 180//180 175//175
f 176//176 169//169 175//175
f 169//169 176//176 170//170
f 176//176 177//177 171//171
f 177//177 176//176 181//181
f 92//92 182//182 93//93
f 94//94 182//182 92//92
f 94//94 177//177 182//182
f 177//177 94//94 76//76
f 183//183 98//98 100//100
f 102//102 98//98 183//183
f 101//101 102//102 85//85
f 136//136 178//178 184//184
f 178//178 136//136 124//124
f 185//185 172//172 102//102
f 172//172 185//185 179//179
f 173//173 179//179 178//178
f 179//179 173//173 174//174
f 180//180 143//143 186//186
f 143//143 180//180 139//139
f 181//181 175//175 180//180
f 175//175 181//181 176//176
f 181//181 182//182 177//177
f 182//182 181//181 187//187
f 108//108 188//188 106//106
f 107//107 188//188 108//108
f 109//109 188//188 107//107
f 109//109 182//182 188//188
f 111//111 182//182 109//109
f 112//112 182//182 111//111
f 182//182 112//112 93//93
f 116//116 183//183 100//100
f 117//117 183//183 116//116
f 118//118 183//183 117//117
f 118//118 121//121 183//183
f 145//145 184//184 189//189
f 184//184 145//145 136//136
f 183//183 185//185 102//102
f 185//185 183//183 190//190
f 184//184 179//179 185//185
f 179//179 184//184 178//178
f 186//186 146//146 191//191
f 146//146 186//186 143//143
f 181//181 186//186 187//187
f 186//186 181//181 180//180
f 188//188 187//187 192//192
f 187//187 188//188 182//182
f 126//126 121//121 125//125
f 121//121 106//106 188//188
f 127//127 121//121 126//126
f 129//129 127//127 128//128
f 129//129 121//121 127//127
f 106//106 121//121 129//129
f 147//147 189//189 193//193
f 189//189 147//147 145//145
f 183//183 194//194 190//190
f 194//194 183//183 121//121
f 189//189 185//185 190//190
f 185//185 189//189 184//184
f 191//191 147//147 193//193
f 147//147 191//191 146//146
f 187//187 191//191 192//192
f 191//191 187//187 186//186
f 121//121 192//192 194//194
f 192//192 121//121 188//188
f 193//193 190//190 194//194
f 190//190 193//193 189//189
f 192//192 193//193 194//194
f 193//193 192//192 191//191