# https://github.com/mikedh/trimesh
v 0.00223100 -0.04821600 -0.08892900
v -0.00302900 -0.04602300 -0.09148100
v 0.01698200 -0.02484700 -0.09161400
v -0.01727400 -0.04289900 -0.09167600
v -0.01707500 -0.02408100 -0.09128700
v -0.01571000 -0.03467100 -0.09222700
v -0.01827000 -0.03218500 -0.08501300
v -0.01608300 -0.04685400 -0.08985500
v 0.01811900 -0.04827400 -0.09014700
v 0.00243300 -0.04823100 -0.07408900
v -0.01118300 -0.03384100 -0.09226000
v -0.01692800 -0.04657700 -0.06866700
v -0.01766000 -0.04172900 -0.07494000
v -0.01853800 -0.04587700 -0.04136800
v -0.01487000 -0.04681200 -0.05213500
v 0.00006100 -0.04750600 -0.03332200
v -0.01982400 -0.00468200 -0.06333900
v -0.02073800 -0.00664400 -0.03274400
v -0.01793700 -0.04484300 -0.05717600
v -0.01827300 -0.04598800 -0.01630800
v -0.00715700 -0.04647300 -0.00104200
v -0.01977400 -0.04539200 -0.00712800
v -0.02022300 -0.04159000 -0.00904000
v -0.02095200 -0.01655700 -0.02455600
v -0.02087200 -0.03487900 0.00228300
v 0.02103800 -0.04600700 -0.09039400
v 0.02111600 -0.04679200 -0.08726400
v 0.01311400 -0.04800600 -0.05402700
v 0.01913600 -0.04756800 -0.06321900
v 0.01867200 -0.04685900 -0.03750700
v 0.02137800 -0.04349500 -0.07806100
v 0.01459200 -0.04735600 -0.02412400
v 0.01840100 -0.04514400 -0.02006000
v 0.02255000 -0.02734800 -0.03874000
v 0.01725600 -0.04619600 -0.00437100
v -0.00179600 -0.04623700 0.02217700
v 0.01749400 -0.04427500 0.00664700
v 0.01532300 -0.04668800 0.00731700
v 0.02090500 -0.02376200 0.00063800
v -0.01491900 -0.00909300 -0.09226200
v -0.01805700 -0.01272200 -0.08584400
v -0.01919800 -0.01983900 -0.07826400
v -0.01198800 0.01607800 -0.09177600
v 0.01263600 -0.01130900 -0.09221400
v 0.01479400 0.01283900 -0.09217500
v 0.02230100 -0.00796500 -0.09119300
v 0.02507200 0.01191800 -0.08236300
v -0.01664000 0.02012100 -0.08987700
v -0.00270600 0.04034900 -0.09139300
v 0.02431200 0.01651100 -0.09081800
v 0.00779300 0.04321200 -0.08857300
v 0.02516000 0.03900600 -0.09136100
v 0.02439800 0.04102000 -0.08845600
v -0.01856400 0.01209200 -0.07550000
v -0.01821700 0.02338800 -0.04599200
v -0.01491400 0.03335100 -0.09070400
v -0.00994800 0.04337000 -0.09008200
v -0.01304900 0.04188300 -0.07262600
v -0.01498700 0.04046300 -0.05068000
v 0.00087800 0.04279200 -0.06859800
v -0.01281900 0.04237700 -0.05040700
v 0.02550200 0.02287300 -0.07298400
v 0.02424200 0.03624500 -0.06367800
v 0.02343200 0.04100600 -0.06048500
v 0.01993100 0.04150900 -0.05573200
v -0.01790100 0.03304700 -0.01173800
v -0.00347200 0.04221700 -0.04655100
v 0.02202000 0.04140900 -0.03781900
v 0.02200700 -0.03150600 -0.08997800
v 0.02377700 -0.02323600 -0.07508500
v 0.02423500 -0.01906200 -0.06704700
v 0.02546700 0.00746500 -0.05728100
v 0.02368700 -0.01155200 -0.03080400
v 0.02375900 0.00615400 -0.02095400
v 0.02278900 0.03698400 -0.03444200
v 0.02363900 0.02058800 -0.02506700
v 0.02176100 0.04204500 -0.02449700
v -0.02119000 -0.04496600 0.02355000
v -0.02150100 -0.02511000 0.02212400
v -0.02121900 -0.01301300 -0.00003200
v -0.02137000 -0.01284100 0.01605100
v -0.02075900 0.00642700 0.01587900
v -0.02023700 0.00987700 0.03335100
v -0.02126000 -0.02209400 0.04386300
v -0.02197300 0.01281400 0.07838200
v 0.01127100 -0.04713300 -0.00710500
v -0.02165300 -0.04514000 0.03852300
v 0.01629000 -0.04471700 0.03060700
v 0.01846200 -0.03283400 0.02260800
v -0.00382000 -0.04592600 0.03915600
v -0.02210400 -0.04486300 0.05547600
v -0.02253900 -0.04345400 0.06177400
v -0.01875600 -0.04542500 0.06129300
v 0.01349400 -0.04610800 0.04627300
v 0.01539900 -0.04457200 0.05308600
v 0.01696900 -0.02525900 0.05178700
v 0.01465000 -0.04584700 0.06364100
v 0.01767100 -0.00914800 0.04892300
v 0.00178000 -0.04592800 0.07984600
v -0.01936600 -0.04312600 0.08238000
v -0.02344300 -0.03087500 0.08097500
v -0.02255400 -0.00258100 0.08037200
v -0.02105800 -0.02539400 0.08221600
v -0.01341100 -0.01690100 0.08297800
v 0.01279300 -0.04601600 0.07699300
v 0.00414800 -0.04457100 0.08267300
v 0.01482900 -0.03477700 0.08324600
v 0.01549200 -0.03359400 0.06973000
v 0.01575600 -0.02265900 0.08354700
v -0.02055000 0.00272700 0.05809500
v -0.01723900 0.00899500 0.08239400
v -0.02105900 0.01339500 0.08122300
v -0.00425600 0.01992100 0.08269100
v 0.01649200 -0.00145200 0.08294500
v 0.01633800 -0.00833400 0.07001300
v 0.01708600 0.00795800 0.08217300
v 0.00346400 0.01011500 0.08338900
v -0.02377600 -0.04389300 0.08146800
v -0.01995400 0.01145700 -0.02258600
v -0.01633900 0.04090700 -0.02097400
v -0.01606400 0.04215600 -0.01517200
v -0.01356900 0.04324000 -0.01885900
v 0.00613300 0.04302600 -0.01781100
v -0.01447400 0.04371200 -0.00087600
v -0.01718900 0.04201500 0.00454200
v -0.01925700 0.03215300 0.02826600
v -0.01828000 0.04017000 0.02304100
v -0.01697800 0.04372000 0.02905500
v -0.01875800 0.04330200 0.03970700
v -0.01447100 0.04467900 0.04453000
v -0.00398400 0.04391600 0.03033000
v -0.01624800 0.04388600 0.01746900
v -0.01836900 0.04455800 0.05656200
v -0.02117300 0.03585200 0.08102100
v -0.02050400 0.04456000 0.07874200
v 0.01915500 0.03295200 0.04177000
v 0.02137100 -0.00243900 0.01125200
v 0.02061900 0.04231400 0.00552500
v 0.01945800 0.04274400 0.03216400
v 0.01980000 -0.01179700 0.02652400
v 0.01667400 0.02253400 0.06717300
v 0.01770800 0.04341200 0.06801500
v 0.00992200 0.03059700 0.08291300
v -0.01464900 0.04541100 0.06049900
v 0.01364200 0.04343800 0.05888300
v 0.00373400 0.04468500 0.07894100
v 0.01731300 0.04181300 0.08126200
v 0.01768700 0.02833100 0.08153400
v 0.01687900 0.04387600 0.07727400
v 0.01891500 0.04298500 0.04936100
v -0.01466200 0.04504700 0.08150600
v 0.00199200 0.04307200 0.08218300
vn -0.01252849 -0.93235922 -0.36131609
vn 0.00178327 -0.45320126 -0.89140644
vn 0.13800916 -0.03794546 -0.98970380
vn -0.68598041 -0.22342135 -0.69246934
vn -0.72182794 -0.01026557 -0.69199642
vn -0.52006997 0.03044597 -0.85358085
vn -0.98821790 -0.04076713 -0.14752434
vn -0.52928042 -0.74059189 -0.41398779
vn 0.16466442 -0.73402990 -0.65885183
vn -0.03013963 -0.99951179 0.00823349
vn -0.00695723 -0.01549008 -0.99985582
vn -0.65935606 -0.75143208 -0.02448287
vn -0.98864341 -0.14676916 -0.03229596
vn -0.75795970 -0.65171782 -0.02758594
vn -0.25891717 -0.96577242 -0.01566934
vn -0.03580585 -0.99919074 0.01832522
vn -0.99895661 0.02319481 -0.03934079
vn -0.99937252 0.02612753 -0.02391488
vn -0.86982713 -0.49328941 -0.00814412
vn -0.56522924 -0.82491745 0.00520706
vn -0.05901408 -0.99805620 0.02002887
vn -0.71271577 -0.70113516 -0.02111199
vn -0.99094799 -0.12658918 -0.04469063
vn -0.99960639 -0.01769649 -0.02176900
vn -0.99878471 -0.04119924 -0.02705033
vn 0.67012672 -0.34335730 -0.65805467
vn 0.82417264 -0.56446987 -0.04596989
vn 0.05339394 -0.99843966 0.01635042
vn 0.56770211 -0.82296306 0.02112159
vn 0.69420668 -0.71874435 0.03851813
vn 0.97965623 -0.19654741 0.04053125
vn 0.21422897 -0.97596445 0.03999172
vn 0.82326088 -0.56699108 0.02761590
vn 0.98970810 -0.13734551 0.04017560
vn 0.63125508 -0.77501788 0.02939896
vn -0.03505085 -0.99926690 0.01539806
vn 0.90990002 -0.41069323 0.05842111
vn 0.40186877 -0.91480009 0.04052512
vn 0.99300529 -0.10094336 0.06124493
vn -0.51660554 0.01720902 -0.85605056
vn -0.96737955 0.03655908 -0.25067957
vn -0.99661529 -0.01166088 -0.08137561
vn -0.17300124 0.03262358 -0.98438116
vn 0.05391022 -0.00944190 -0.99850115
vn 0.06045986 0.00658236 -0.99814893
vn 0.65387954 -0.02588494 -0.75615575
vn 0.99643786 -0.02890633 -0.07922128
vn -0.81670071 0.06081230 -0.57384825
vn 0.00159211 0.28892868 -0.95734930
vn 0.73598666 -0.03415201 -0.67613406
vn 0.05739890 0.91581056 -0.39748760
vn 0.65527730 0.36729139 -0.66008234
vn 0.59409252 0.78390783 -0.18039564
vn -0.99487553 0.07604130 -0.06663637
vn -0.99038366 0.13476777 -0.03127070
vn -0.71452220 0.21628674 -0.66534057
vn -0.40228904 0.73060565 -0.55170546
vn -0.61729763 0.78626993 -0.02689295
vn -0.87237765 0.48764564 -0.03404359
vn -0.00048712 0.99963809 0.02689722
vn -0.34898603 0.93697071 -0.01716519
vn 0.99978784 0.02058434 0.00074665
vn 0.99359436 0.10555499 0.04035343
vn 0.71150705 0.70209526 0.02863495
vn 0.08900965 0.99601040 0.00636895
vn -0.98936894 0.14117405 -0.03491397
vn 0.03068447 0.99948912 -0.00894187
vn 0.64649605 0.76284858 0.01024198
vn 0.78832410 -0.04308271 -0.61374994
vn 0.99607749 -0.07985949 -0.03810650
vn 0.99688456 -0.07885157 0.00189864
vn 0.99975733 -0.01116973 0.01898738
vn 0.99689958 -0.06304522 0.04707996
vn 0.99829516 -0.00631201 0.05802519
vn 0.99108189 0.12667347 0.04135830
vn 0.99747895 0.05004749 0.05030900
vn 0.68706534 0.72657366 0.00565135
vn -0.72678038 -0.68659454 -0.01944787
vn -0.99997096 -0.00022412 -0.00761718
vn -0.99989935 0.00870282 -0.01120517
vn -0.99974655 0.02247131 0.00136693
vn -0.99897536 0.04515771 0.00300054
vn -0.99904924 0.04206798 0.01144101
vn -0.99955040 0.02890791 -0.00795836
vn -0.99500691 0.04119158 0.09090935
vn 0.05163443 -0.99841332 0.02246639
vn -0.72523496 -0.68846184 -0.00738581
vn 0.86243868 -0.50426265 0.04380289
vn 0.99167633 -0.11397397 0.05989977
vn -0.03021681 -0.99949200 0.01013361
vn -0.73805014 -0.67435201 -0.02305132
vn -0.87744719 -0.47948474 -0.01344652
vn -0.21402750 -0.97648247 0.02596550
vn 0.28739687 -0.95760139 0.02006541
vn 0.90554645 -0.42391255 0.01684597
vn 0.99616950 -0.05433894 0.06850988
vn 0.67281788 -0.73855406 0.04305807
vn 0.99628409 -0.02156584 0.08338424
vn -0.01728745 -0.96930175 0.24526569
vn -0.08716514 -0.36691677 0.92616107
vn -0.85613016 0.00904229 0.51668113
vn -0.86777842 0.04244147 0.49513567
vn -0.31941860 0.01392262 0.94751144
vn -0.06067207 -0.00175047 0.99815622
vn 0.56009921 -0.76989740 0.30585433
vn 0.09270715 -0.56956059 0.81670442
vn 0.66889283 -0.17421005 0.72265707
vn 0.99670472 -0.06859802 0.04328986
vn 0.69454823 -0.03964176 0.71835317
vn -0.99818623 0.03999738 -0.04499392
vn -0.17707971 0.00961169 0.98414958
vn -0.69207870 0.01643939 0.72163483
vn -0.05229539 0.03099266 0.99815061
vn 0.71869925 -0.01667766 0.69512103
vn 0.99919854 -0.02654405 0.02996134
vn 0.81627189 0.02069105 0.57729723
vn -0.01023989 0.01711321 0.99980112
vn -0.66356815 -0.53508422 0.52284050
vn -0.99684548 0.07673306 -0.02027614
vn -0.87229680 0.48600627 -0.05381624
vn -0.79153917 0.60898777 -0.05098667
vn -0.28985911 0.95509500 -0.06144294
vn 0.03820700 0.99900740 -0.02290046
vn -0.28546824 0.95803103 -0.02616158
vn -0.86353512 0.50137522 -0.05412933
vn -0.99554212 0.09331519 -0.01371689
vn -0.96613425 0.25802387 -0.00287868
vn -0.61676065 0.78576814 -0.04663407
vn -0.79693519 0.60320998 -0.03212509
vn -0.09279896 0.99466542 -0.04504513
vn 0.02904040 0.99942156 -0.01769746
vn -0.50811663 0.86120219 -0.01217686
vn -0.73740815 0.67336215 -0.05303437
vn -0.76634678 0.07666870 0.63783581
vn -0.70688565 0.62977814 0.32201270
vn 0.99772234 -0.00766145 0.06701818
vn 0.99680369 -0.02813911 0.07477026
vn 0.70638993 0.70723291 0.02889427
vn 0.72006656 0.69365566 0.01860039
vn 0.99548086 -0.04543727 0.08338647
vn 0.99924711 -0.01850528 0.03409924
vn 0.75079760 0.65962619 0.03458679
vn 0.07284961 0.04216096 0.99645140
vn -0.06561794 0.99755605 -0.02400462
vn 0.05821704 0.99802519 -0.02359002
vn 0.07691369 0.96836092 0.23740560
vn 0.67720911 0.42060881 0.60371852
vn 0.86188925 -0.00620632 0.50705859
vn 0.66874997 0.73080850 0.13672020
vn 0.73948062 0.67236619 0.03304727
vn -0.13531844 0.70199015 0.69921295
vn 0.04612185 0.51821629 0.85400506
f 8//8 2//2 1//1
f 2//2 26//26 1//1
f 9//9 1//1 26//26
f 26//26 2//2 3//3
f 69//69 26//26 3//3
f 12//12 10//10 15//15
f 8//8 13//13 4//4
f 5//5 11//11 6//6
f 7//7 6//6 4//4
f 5//5 6//6 7//7
f 41//41 5//5 7//7
f 42//42 41//41 7//7
f 8//8 1//1 10//10
f 6//6 2//2 4//4
f 8//8 4//4 2//2
f 12//12 8//8 10//10
f 8//8 12//12 13//13
f 1//1 9//9 10//10
f 6//6 11//11 2//2
f 2//2 11//11 3//3
f 19//19 13//13 12//12
f 7//7 4//4 13//13
f 15//15 19//19 12//12
f 14//14 19//19 15//15
f 19//19 14//14 7//7
f 15//15 10//10 16//16
f 28//28 16//16 10//10
f 23//23 7//7 14//14
f 20//20 14//14 15//15
f 20//20 15//15 16//16
f 20//20 16//16 21//21
f 17//17 42//42 18//18
f 24//24 18//18 42//42
f 7//7 13//13 19//19
f 23//23 42//42 7//7
f 23//23 24//24 42//42
f 23//23 14//14 20//20
f 22//22 23//23 20//20
f 22//22 20//20 21//21
f 22//22 78//78 25//25
f 78//78 22//22 21//21
f 23//23 22//22 25//25
f 25//25 24//24 23//23
f 24//24 25//25 80//80
f 18//18 24//24 80//80
f 80//80 82//82 18//18
f 119//119 18//18 82//82
f 27//27 9//9 26//26
f 29//29 9//9 27//27
f 31//31 29//29 27//27
f 26//26 69//69 27//27
f 27//27 69//69 70//70
f 31//31 27//27 70//70
f 28//28 10//10 29//29
f 9//9 29//29 10//10
f 30//30 28//28 29//29
f 31//31 30//30 29//29
f 31//31 71//71 34//34
f 31//31 70//70 71//71
f 32//32 16//16 28//28
f 30//30 33//33 32//32
f 32//32 28//28 30//30
f 34//34 30//30 31//31
f 30//30 34//34 33//33
f 37//37 33//33 34//34
f 16//16 86//86 21//21
f 32//32 86//86 16//16
f 33//33 35//35 32//32
f 86//86 32//32 35//35
f 36//36 21//21 86//86
f 35//35 38//38 86//86
f 37//37 38//38 35//35
f 37//37 35//35 33//33
f 39//39 37//37 34//34
f 73//73 39//39 34//34
f 37//37 39//39 89//89
f 137//137 39//39 73//73
f 5//5 40//40 11//11
f 44//44 11//11 40//40
f 40//40 45//45 44//44
f 41//41 40//40 5//5
f 41//41 48//48 40//40
f 40//40 48//48 43//43
f 41//41 42//42 48//48
f 45//45 40//40 43//43
f 42//42 54//54 48//48
f 3//3 11//11 44//44
f 3//3 46//46 69//69
f 3//3 44//44 46//46
f 45//45 46//46 44//44
f 69//69 46//46 47//47
f 50//50 47//47 46//46
f 43//43 48//48 56//56
f 49//49 45//45 43//43
f 56//56 49//49 43//43
f 56//56 57//57 49//49
f 49//49 57//57 51//51
f 51//51 57//57 60//60
f 50//50 46//46 45//45
f 72//72 47//47 62//62
f 45//45 49//49 52//52
f 50//50 62//62 47//47
f 50//50 45//45 52//52
f 62//62 50//50 52//52
f 63//63 62//62 52//52
f 51//51 52//52 49//49
f 65//65 53//53 51//51
f 53//53 52//52 51//51
f 65//65 64//64 53//53
f 63//63 52//52 53//53
f 17//17 54//54 42//42
f 17//17 18//18 54//54
f 18//18 119//119 54//54
f 119//119 55//55 54//54
f 48//48 54//54 56//56
f 54//54 55//55 56//56
f 56//56 58//58 57//57
f 59//59 58//58 56//56
f 57//57 58//58 60//60
f 59//59 56//56 55//55
f 60//60 58//58 61//61
f 53//53 64//64 63//63
f 64//64 75//75 63//63
f 65//65 68//68 64//64
f 66//66 59//59 55//55
f 61//61 58//58 59//59
f 67//67 60//60 61//61
f 120//120 61//61 59//59
f 59//59 66//66 120//120
f 60//60 67//67 65//65
f 123//123 67//67 61//61
f 123//123 68//68 67//67
f 68//68 65//65 67//67
f 68//68 123//123 77//77
f 122//122 61//61 120//120
f 123//123 61//61 122//122
f 60//60 65//65 51//51
f 47//47 70//70 69//69
f 47//47 71//71 70//70
f 72//72 71//71 47//47
f 72//72 73//73 71//71
f 73//73 34//34 71//71
f 73//73 72//72 74//74
f 72//72 62//62 76//76
f 76//76 62//62 63//63
f 137//137 73//73 74//74
f 136//136 74//74 76//76
f 72//72 76//76 74//74
f 76//76 63//63 75//75
f 68//68 75//75 64//64
f 77//77 138//138 76//76
f 75//75 77//77 76//76
f 77//77 75//75 68//68
f 78//78 79//79 25//25
f 79//79 78//78 87//87
f 79//79 80//80 25//25
f 79//79 81//81 80//80
f 80//80 81//81 82//82
f 83//83 82//82 81//81
f 79//79 84//84 81//81
f 83//83 81//81 84//84
f 83//83 126//126 82//82
f 83//83 84//84 110//110
f 83//83 110//110 133//133
f 85//85 133//133 110//110
f 78//78 21//21 36//36
f 36//36 86//86 38//38
f 78//78 36//36 87//87
f 90//90 87//87 36//36
f 88//88 38//38 37//37
f 89//89 88//88 37//37
f 90//90 36//36 94//94
f 95//95 94//94 88//88
f 38//38 94//94 36//36
f 88//88 94//94 38//38
f 95//95 88//88 89//89
f 89//89 96//96 95//95
f 140//140 39//39 137//137
f 140//140 89//89 39//39
f 87//87 84//84 79//79
f 84//84 87//87 91//91
f 91//91 87//87 90//90
f 93//93 91//91 90//90
f 91//91 92//92 84//84
f 92//92 91//91 93//93
f 93//93 90//90 99//99
f 110//110 84//84 92//92
f 90//90 94//94 97//97
f 97//97 94//94 95//95
f 97//97 95//95 108//108
f 108//108 95//95 96//96
f 99//99 90//90 97//97
f 99//99 97//97 105//105
f 107//107 97//97 108//108
f 105//105 97//97 107//107
f 96//96 89//89 140//140
f 96//96 140//140 98//98
f 115//115 108//108 96//96
f 115//115 96//96 98//98
f 115//115 98//98 141//141
f 101//101 92//92 118//118
f 93//93 118//118 92//92
f 99//99 118//118 93//93
f 100//100 118//118 99//99
f 100//100 99//99 106//106
f 101//101 118//118 100//100
f 103//103 101//101 100//100
f 100//100 104//104 103//103
f 100//100 106//106 104//104
f 102//102 110//110 92//92
f 101//101 103//103 102//102
f 102//102 103//103 111//111
f 111//111 103//103 104//104
f 99//99 105//105 106//106
f 104//104 106//106 107//107
f 109//109 104//104 107//107
f 106//106 105//105 107//107
f 107//107 108//108 109//109
f 112//112 102//102 111//111
f 102//102 85//85 110//110
f 112//112 85//85 102//102
f 113//113 111//111 104//104
f 104//104 117//117 113//113
f 112//112 111//111 134//134
f 134//134 85//85 112//112
f 109//109 108//108 115//115
f 114//114 109//109 115//115
f 115//115 116//116 114//114
f 115//115 141//141 116//116
f 104//104 109//109 117//117
f 114//114 117//117 109//109
f 117//117 114//114 143//143
f 143//143 114//114 116//116
f 143//143 116//116 148//148
f 101//101 102//102 92//92
f 119//119 66//66 55//55
f 119//119 82//82 126//126
f 126//126 66//66 119//119
f 122//122 120//120 121//121
f 121//121 120//120 66//66
f 124//124 122//122 121//121
f 121//121 66//66 125//125
f 122//122 124//124 123//123
f 124//124 121//121 125//125
f 132//132 124//124 125//125
f 124//124 132//132 131//131
f 124//124 131//131 123//123
f 129//129 126//126 83//83
f 127//127 125//125 66//66
f 66//66 126//126 127//127
f 132//132 125//125 127//127
f 132//132 127//127 128//128
f 128//128 131//131 132//132
f 133//133 129//129 83//83
f 127//127 126//126 128//128
f 128//128 126//126 129//129
f 130//130 131//131 128//128
f 129//129 130//130 128//128
f 134//134 133//133 85//85
f 145//145 131//131 130//130
f 144//144 145//145 130//130
f 133//133 130//130 129//129
f 130//130 133//133 144//144
f 135//135 144//144 133//133
f 134//134 135//135 133//133
f 135//135 134//134 151//151
f 151//151 144//144 135//135
f 137//137 74//74 136//136
f 140//140 137//137 136//136
f 138//138 136//136 76//76
f 138//138 77//77 123//123
f 139//139 136//136 138//138
f 131//131 138//138 123//123
f 98//98 140//140 136//136
f 139//139 150//150 136//136
f 141//141 98//98 136//136
f 138//138 131//131 139//139
f 150//150 139//139 131//131
f 145//145 150//150 131//131
f 150//150 141//141 136//136
f 142//142 141//141 150//150
f 143//143 152//152 117//117
f 146//146 144//144 151//151
f 146//146 145//145 144//144
f 145//145 146//146 142//142
f 149//149 142//142 146//146
f 147//147 152//152 143//143
f 146//146 152//152 147//147
f 149//149 146//146 147//147
f 149//149 116//116 141//141
f 149//149 148//148 116//116
f 149//149 141//141 142//142
f 148//148 149//149 147//147
f 143//143 148//148 147//147
f 142//142 150//150 145//145
f 113//113 134//134 111//111
f 113//113 151//151 134//134
f 151//151 113//113 152//152
f 117//117 152//152 113//113
f 152//152 146//146 151//151

