# https://github.com/mikedh/trimesh
v 0.01090400 -0.02435900 -0.03141400
v 0.00250400 -0.02514700 -0.04974400
v -0.04941100 -0.01112500 -0.04925600
v -0.04259600 0.00545800 -0.04766600
v -0.02901300 -0.02731000 -0.04917700
v -0.03254700 -0.02754700 -0.02143700
v -0.04024200 -0.02168700 -0.04754600
v -0.04401100 -0.02338000 -0.04799500
v -0.04916900 -0.01480000 -0.01564800
v 0.03310000 -0.02336000 -0.01844600
v 0.00359800 -0.02574500 0.02405300
v 0.02474900 -0.02480800 0.02635100
v 0.04079400 -0.01936900 -0.02229500
v 0.03826300 -0.02205300 0.01759900
v -0.01405100 0.02032800 -0.04789600
v 0.01084500 0.02577800 -0.04055200
v -0.00831800 0.02429600 -0.02794500
v -0.03875000 0.02211300 -0.04803500
v 0.03151100 0.02225000 -0.04804900
v -0.00360600 -0.00051600 -0.04608500
v -0.05066600 0.00541700 -0.04612200
v -0.04646700 0.01720000 -0.04770600
v 0.00233400 0.02467300 -0.04914400
v -0.02545600 0.02345700 -0.04876600
v 0.02724500 0.02714900 -0.04905800
v -0.00038000 -0.01997700 -0.04739100
v 0.01421000 -0.01067600 -0.04679700
v 0.04342400 -0.01633400 0.00765100
v 0.03909900 0.00403000 -0.04749700
v 0.02888500 -0.02360400 -0.04870000
v 0.04092200 -0.01786800 -0.04806600
v 0.04025900 0.02096000 -0.02559800
v 0.04423700 0.01345400 -0.00764100
v 0.04476200 -0.01275000 -0.04302100
v 0.04587700 -0.00625500 0.00168300
v 0.04542900 -0.01107400 -0.01265200
v 0.04430100 0.00971800 -0.04981500
v 0.03412600 0.02569200 -0.03510800
v 0.04575000 -0.00474100 -0.04808100
v 0.04066700 0.02074700 -0.04851900
v -0.03905400 -0.02894500 0.03059200
v -0.04516900 -0.00831700 0.02977400
v -0.05199400 0.00428000 0.03018000
v -0.04913000 0.01785200 0.03062900
v -0.03920300 -0.02629400 -0.04738800
v -0.03421700 -0.02778300 0.01115200
v -0.04859600 -0.01785600 0.02661400
v -0.03696700 -0.02765800 0.02571600
v -0.01514500 -0.02852000 0.02957700
v -0.05059500 0.00610300 0.02598300
v -0.05000200 0.01018700 0.00569200
v -0.05014900 -0.00296200 -0.00093100
v -0.04911400 0.01321400 0.02642000
v -0.04722100 -0.02384900 0.03077900
v -0.04474900 0.01911100 0.02641900
v -0.05196600 -0.01192500 0.03217300
v -0.05086700 0.00769900 -0.01917600
v -0.04911200 -0.01467000 0.02464300
v -0.04383800 -0.02341700 0.00322200
v 0.00076600 -0.02669800 0.02964600
v -0.00578900 -0.00801000 0.02836800
v 0.04219000 -0.02119700 0.03046800
v 0.00742700 -0.01511500 0.02877400
v 0.00715100 -0.00447200 0.02878100
v 0.02346500 -0.01850100 0.03138700
v 0.02211000 -0.02416900 0.02933900
v 0.03030100 -0.00689100 0.02929500
v -0.01028900 -0.02655500 0.02250600
v 0.03786900 -0.02389000 0.02992400
v 0.00774100 -0.02796100 0.03142500
v -0.03618200 0.02304500 -0.02342400
v -0.04135000 0.02372100 0.03052400
v -0.04286900 0.02055000 -0.01226200
v -0.04750900 0.01568700 -0.01208300
v -0.02206200 -0.00188600 0.02866600
v -0.03071400 0.02331600 0.01775800
v -0.03772000 0.02268300 0.02488000
v -0.03984900 0.02207100 0.00677100
v -0.03471300 0.02617200 0.03181200
v -0.02405500 0.02409600 0.02653800
v -0.01022000 0.02504400 0.02958700
v 0.02973700 0.02634000 0.02438000
v 0.03603700 0.02417700 0.02497900
v 0.04042900 0.00220800 0.03079500
v 0.04526400 -0.01319700 0.02526600
v 0.04450500 0.01458200 0.03003800
v 0.04307800 0.02241100 0.03109300
v 0.03396200 0.01345400 0.02943300
v 0.04381800 -0.01506300 0.03031400
v 0.03383300 0.02825500 0.03168000
v 0.01166800 0.02682400 0.02902100
v 0.02596300 0.02610000 0.02976000
v 0.02094700 0.02634800 0.02457500
v 0.02389300 0.02770700 0.03272600
v 0.01705000 0.00783900 0.02848400
v 0.04775000 0.01162600 0.03215400
v 0.00698300 0.02514900 0.01442800
v 0.04843600 -0.00740200 0.03252800
v 0.04197800 0.01891800 0.02123900
v 0.04511400 0.00942400 0.02538300
v 0.00480200 0.02736700 0.03096600
v 0.00350900 0.02499700 0.02946800
vn 0.06020160 -0.99818611 -0.00049904
vn 0.05382290 -0.53599384 -0.84250442
vn -0.64263928 -0.16683832 -0.74778321
vn 0.08088733 0.00792108 -0.99669178
vn -0.02868733 -0.62175227 -0.78268841
vn -0.03306023 -0.99940186 -0.01014655
vn 0.05550155 0.00787295 -0.99842756
vn -0.50853337 -0.53546819 -0.67429046
vn -0.95132937 -0.30816801 -0.00221568
vn 0.25940822 -0.96543358 -0.02540432
vn 0.04149382 -0.99137094 -0.12434597
vn 0.09193817 -0.99337613 0.06892924
vn 0.65852794 -0.75191130 -0.03115032
vn 0.51984181 -0.85390038 -0.02487239
vn -0.00091819 -0.18016130 -0.98363665
vn -0.08600891 0.99623737 -0.01065681
vn -0.05815735 0.99830280 -0.00303980
vn -0.24424489 0.68815410 -0.68321912
vn -0.06196672 -0.15432356 -0.98607523
vn 0.00116153 -0.00937749 -0.99995536
vn -0.90977748 0.12448212 -0.39599134
vn -0.60679327 0.47022414 -0.64085192
vn -0.05719643 0.56857628 -0.82063974
vn -0.06959813 0.57898128 -0.81236493
vn 0.11619389 0.67432371 -0.72923694
vn -0.01458882 0.22918458 -0.97327365
vn -0.02721503 0.06032483 -0.99780773
vn 0.87432587 -0.48529826 -0.00631460
vn -0.14582195 -0.06492127 -0.98717840
vn 0.16897382 -0.67116303 -0.72179501
vn 0.50639575 -0.52612975 -0.68319165
vn 0.75663046 0.65382548 0.00475352
vn 0.96323931 0.26850153 -0.00877255
vn 0.92524492 -0.36026038 -0.11888776
vn 0.99786575 -0.06512200 0.00480386
vn 0.97538612 -0.22050171 0.00095265
vn 0.60778806 0.08278215 -0.78977262
vn 0.41433184 0.90998132 -0.01622113
vn 0.71269592 -0.04433001 -0.70007098
vn 0.57525029 0.52560312 -0.62676029
vn -0.25896073 -0.80699468 0.53075316
vn 0.14613296 0.04626456 0.98818255
vn -0.81735405 0.04032554 0.57472273
vn -0.72386183 0.48934913 0.48637586
vn -0.29456581 -0.74344035 -0.60043936
vn -0.15720668 -0.98742010 -0.01695890
vn -0.86771620 -0.44678529 -0.21783367
vn -0.27179032 -0.94305384 -0.19177974
vn 0.04536163 -0.78504901 0.61777049
vn -0.98633927 0.09131037 -0.13710311
vn -0.97862239 0.20552198 -0.00767709
vn -0.99876487 -0.04933084 0.00593373
vn -0.91676427 0.35998694 -0.17306843
vn -0.64242583 -0.62129997 0.44863727
vn -0.63215088 0.73557267 -0.24355310
vn -0.71296214 -0.10100122 0.69389029
vn -0.98631987 0.16479564 -0.00393728
vn -0.96798833 -0.19853456 -0.15356633
vn -0.66776639 -0.74436891 0.00172698
vn -0.04927082 -0.71852257 0.69375623
vn 0.00492850 0.01717888 0.99984029
vn 0.61560470 -0.67731758 0.40282968
vn -0.03468999 0.07140074 0.99684429
vn -0.03437322 0.03101593 0.99892767
vn -0.08162631 -0.06692961 0.99441318
vn 0.08304241 -0.61300436 0.78570326
vn -0.05719942 0.06520489 0.99623117
vn 0.05932731 -0.99201521 -0.11129282
vn 0.32518763 -0.78565781 0.52630296
vn -0.02715419 -0.73150365 0.68129660
vn -0.19818690 0.98015926 -0.00312774
vn -0.39841811 0.74881529 0.52965902
vn -0.55828712 0.82961878 -0.00694035
vn -0.83642334 0.54806481 -0.00457755
vn 0.02954841 -0.00448670 0.99955328
vn -0.08673765 0.99611689 -0.01509016
vn -0.27510848 0.94117500 -0.19622678
vn -0.32772852 0.94474157 0.00757477
vn -0.12117530 0.65072881 0.74957893
vn -0.05338127 0.96790176 -0.24559442
vn 0.02761013 -0.37658951 0.92596869
vn 0.13213080 0.97855771 -0.15800717
vn 0.46634861 0.85851777 -0.21322809
vn -0.00317213 0.01207964 0.99992201
vn 0.93482862 -0.33419412 -0.12004056
vn -0.36937763 -0.10222087 0.92364011
vn 0.66910178 0.49173130 0.55722808
vn -0.06548007 -0.01106731 0.99779250
vn -0.35759550 0.11029771 0.92734022
vn 0.17983526 0.75335962 0.63254136
vn -0.01689891 0.98206192 -0.18779993
vn 0.00126463 -0.50030904 0.86584598
vn -0.01506865 0.99019226 -0.13889646
vn 0.00945766 0.31685550 0.94842667
vn -0.01821116 -0.01528781 0.99971728
vn 0.63841821 0.28140724 0.71640223
vn -0.05149301 0.99797105 -0.03744672
vn 0.68903865 -0.09216673 0.71884006
vn 0.83693967 0.53882390 -0.09592071
vn 0.96779510 0.15113854 -0.20132009
vn -0.12670303 0.66465273 0.73633083
vn -0.00465759 -0.30364447 0.95277403
f 7//7 5//5 45//45
f 26//26 5//5 7//7
f 7//7 20//20 26//26
f 2//2 5//5 26//26
f 21//21 22//22 3//3
f 45//45 6//6 46//46
f 3//3 4//4 7//7
f 6//6 2//2 1//1
f 5//5 2//2 6//6
f 7//7 8//8 3//3
f 68//68 6//6 1//1
f 9//9 3//3 8//8
f 3//3 9//9 21//21
f 57//57 21//21 9//9
f 45//45 5//5 6//6
f 8//8 45//45 59//59
f 8//8 7//7 45//45
f 26//26 30//30 2//2
f 1//1 10//10 11//11
f 10//10 1//1 30//30
f 11//11 68//68 1//1
f 12//12 11//11 10//10
f 14//14 10//10 13//13
f 10//10 14//14 12//12
f 30//30 1//1 2//2
f 28//28 14//14 13//13
f 27//27 26//26 20//20
f 24//24 15//15 18//18
f 29//29 27//27 20//20
f 15//15 20//20 18//18
f 17//17 23//23 71//71
f 23//23 17//17 16//16
f 74//74 22//22 57//57
f 22//22 4//4 3//3
f 19//19 15//15 23//23
f 19//19 23//23 25//25
f 18//18 4//4 22//22
f 7//7 4//4 20//20
f 20//20 15//15 19//19
f 18//18 20//20 4//4
f 22//22 73//73 18//18
f 23//23 15//15 24//24
f 23//23 24//24 71//71
f 57//57 22//22 21//21
f 73//73 71//71 18//18
f 74//74 57//57 51//51
f 71//71 76//76 17//17
f 71//71 24//24 18//18
f 16//16 25//25 23//23
f 27//27 30//30 26//26
f 30//30 27//27 31//31
f 28//28 36//36 35//35
f 29//29 20//20 19//19
f 37//37 39//39 29//29
f 35//35 39//39 33//33
f 39//39 27//27 29//29
f 39//39 31//31 27//27
f 33//33 100//100 35//35
f 19//19 37//37 29//29
f 35//35 36//36 39//39
f 40//40 19//19 25//25
f 19//19 40//40 37//37
f 83//83 32//32 38//38
f 16//16 82//82 25//25
f 38//38 25//25 82//82
f 33//33 37//37 40//40
f 32//32 33//33 40//40
f 38//38 82//82 83//83
f 33//33 39//39 37//37
f 10//10 30//30 31//31
f 34//34 13//13 31//31
f 34//34 31//31 39//39
f 13//13 10//10 31//31
f 39//39 36//36 34//34
f 40//40 38//38 32//32
f 38//38 40//40 25//25
f 34//34 28//28 13//13
f 34//34 36//36 28//28
f 54//54 47//47 48//48
f 42//42 41//41 49//49
f 6//6 68//68 46//46
f 54//54 41//41 42//42
f 55//55 74//74 53//53
f 56//56 54//54 42//42
f 43//43 56//56 42//42
f 56//56 58//58 47//47
f 52//52 9//9 58//58
f 44//44 55//55 53//53
f 56//56 43//43 58//58
f 43//43 50//50 58//58
f 43//43 42//42 75//75
f 48//48 68//68 49//49
f 49//49 75//75 42//42
f 44//44 43//43 72//72
f 75//75 49//49 61//61
f 75//75 72//72 43//43
f 59//59 48//48 47//47
f 59//59 46//46 48//48
f 58//58 50//50 52//52
f 54//54 48//48 41//41
f 51//51 57//57 52//52
f 48//48 46//46 68//68
f 49//49 41//41 48//48
f 52//52 50//50 51//51
f 52//52 57//57 9//9
f 51//51 50//50 53//53
f 74//74 51//51 53//53
f 56//56 47//47 54//54
f 44//44 53//53 50//50
f 44//44 50//50 43//43
f 9//9 8//8 59//59
f 58//58 9//9 59//59
f 55//55 44//44 72//72
f 58//58 59//59 47//47
f 46//46 59//59 45//45
f 102//102 75//75 61//61
f 95//95 61//61 64//64
f 60//60 63//63 61//61
f 65//65 66//66 62//62
f 69//69 62//62 66//66
f 65//65 67//67 63//63
f 70//70 11//11 12//12
f 98//98 85//85 100//100
f 64//64 67//67 95//95
f 64//64 63//63 67//67
f 70//70 63//63 60//60
f 63//63 70//70 66//66
f 49//49 60//60 61//61
f 68//68 11//11 49//49
f 49//49 11//11 60//60
f 65//65 62//62 89//89
f 67//67 65//65 89//89
f 65//65 63//63 66//66
f 63//63 64//64 61//61
f 89//89 84//84 67//67
f 98//98 89//89 62//62
f 14//14 28//28 85//85
f 69//69 12//12 14//14
f 85//85 69//69 14//14
f 62//62 69//69 85//85
f 60//60 11//11 70//70
f 62//62 85//85 98//98
f 12//12 66//66 70//70
f 12//12 69//69 66//66
f 74//74 73//73 22//22
f 97//97 17//17 76//76
f 72//72 77//77 55//55
f 72//72 79//79 77//77
f 77//77 80//80 76//76
f 79//79 80//80 77//77
f 72//72 75//75 81//81
f 75//75 102//102 81//81
f 17//17 97//97 16//16
f 80//80 97//97 76//76
f 73//73 78//78 71//71
f 73//73 74//74 55//55
f 55//55 78//78 73//73
f 101//101 80//80 79//79
f 76//76 71//71 78//78
f 77//77 78//78 55//55
f 76//76 78//78 77//77
f 97//97 80//80 91//91
f 79//79 72//72 81//81
f 81//81 101//101 79//79
f 102//102 92//92 94//94
f 98//98 96//96 86//86
f 86//86 92//92 88//88
f 95//95 67//67 88//88
f 97//97 82//82 16//16
f 90//90 94//94 92//92
f 82//82 93//93 90//90
f 90//90 83//83 82//82
f 35//35 85//85 28//28
f 86//86 84//84 89//89
f 32//32 83//83 99//99
f 84//84 86//86 88//88
f 92//92 95//95 88//88
f 98//98 86//86 89//89
f 102//102 61//61 95//95
f 99//99 87//87 100//100
f 67//67 84//84 88//88
f 87//87 96//96 100//100
f 96//96 98//98 100//100
f 102//102 95//95 92//92
f 92//92 86//86 90//90
f 87//87 86//86 96//96
f 101//101 91//91 80//80
f 102//102 101//101 81//81
f 101//101 102//102 94//94
f 93//93 94//94 90//90
f 100//100 85//85 35//35
f 99//99 33//33 32//32
f 87//87 99//99 83//83
f 99//99 100//100 33//33
f 86//86 87//87 90//90
f 87//87 83//83 90//90
f 91//91 93//93 97//97
f 82//82 97//97 93//93
f 94//94 91//91 101//101
f 91//91 94//94 93//93

