# https://github.com/mikedh/trimesh
v -0.04081547 0.00936142 0.02294712
v 0.00712004 -0.03867091 0.02294712
v -0.02560677 0.02334909 0.02294737
v -0.04419324 0.00147442 0.02294712
v -0.04552045 -0.00677574 0.02294712
v -0.03573730 -0.03288342 0.02294712
v -0.02216256 -0.04179298 0.02294712
v -0.04395825 -0.01982307 0.02294712
v -0.00411489 -0.04301224 0.02294712
v -0.03270415 0.01911464 0.02294712
v -0.00934961 0.02667982 -0.02013446
v 0.02443109 -0.01043062 -0.01528829
v -0.02243135 0.02463108 0.02144676
v 0.00185291 -0.04119189 -0.02097879
v -0.01282468 0.02662701 0.02193542
v -0.02136985 -0.04163933 -0.02061527
v -0.03846985 0.01301150 -0.02097879
v -0.04439543 0.00134783 -0.02097855
v -0.02722383 0.02277924 -0.02097922
v 0.02442990 -0.01044575 -0.01423585
v -0.01829167 0.02581158 0.02070881
v -0.00029744 0.02523770 -0.01642607
v 0.02421410 -0.01304256 -0.01749194
v 0.02256648 -0.01984260 0.00054211
v 0.02443117 -0.01042968 -0.01523642
v 0.01902139 -0.02717478 0.01981552
v 0.02114491 -0.02328537 0.00719446
v -0.01054704 0.02668809 0.02045132
v 0.02452878 -0.00956505 -0.01433308
v -0.00767252 0.02656720 0.00296839
v -0.00990931 0.02667545 0.01611695
v -0.00574247 0.02636263 -0.00492505
v -0.04259910 -0.02255186 -0.02097981
v -0.02834430 -0.03847950 -0.02059758
v 0.02174606 -0.02205877 -0.01997936
v -0.01409304 0.02658889 -0.02098886
v -0.01047028 -0.04352945 -0.02099727
v -0.04539941 -0.01243006 -0.02101478
v 0.01204426 -0.03531052 -0.02101628
v 0.01764335 -0.02936619 -0.02078592
v -0.03859223 -0.02926834 -0.02107807
v -0.03411473 -0.03421435 -0.02084492
v 0.02342671 -0.01707357 -0.00370726
v 0.02414458 -0.01355263 -0.00862001
v 0.01394206 -0.03348956 0.02292374
v -0.00212504 0.02574648 -0.01177779
v -0.00430159 0.02617912 -0.01896764
v -0.02400225 -0.05825973 -0.02097881
v -0.02349573 -0.05776680 -0.02097819
v -0.02338875 -0.05787662 -0.02096359
v -0.02394592 -0.05781131 -0.02097015
v 0.03904924 -0.01396508 0.02294712
v -0.05657737 -0.01905555 0.02295065
v -0.05668062 0.00138476 0.02294661
v -0.05714518 -0.00852291 0.02293731
v 0.02181172 -0.04718590 0.02295538
v -0.05532057 -0.02241229 0.02294714
v -0.05255736 0.01640344 0.02294795
v 0.02796291 0.00106182 0.02294712
v -0.04935831 -0.03513104 0.02294636
v 0.02938142 -0.04243199 0.02294713
v 0.02812547 -0.04359701 0.02294680
v -0.03701959 -0.04710035 0.02294360
v 0.02841255 -0.00088865 0.02294718
v -0.00974877 0.03767117 0.02291855
v 0.02800605 0.02747798 0.02296861
v 0.02884794 -0.00461770 0.02294157
v 0.01044097 -0.05404208 0.02296462
v 0.03692905 0.00993874 0.02294784
v 0.02805508 0.00069559 0.02294712
v 0.00135081 -0.05692009 0.02296239
v -0.01246032 -0.05617288 0.02294240
v 0.02330805 -0.02621373 0.02295071
v 0.03344019 0.01751383 0.02294731
v 0.03312633 0.02279738 0.02294714
v -0.03031769 0.03283036 0.02292283
v 0.02680949 -0.02028571 0.02294242
v 0.03241452 -0.04022750 0.02294234
v 0.03318257 -0.02680437 0.02294845
v 0.03878643 -0.02137472 0.02295013
v 0.03918409 0.00123784 0.02294602
v 0.03873073 0.00631818 0.02294924
v 0.02928908 -0.00931570 0.02294734
v 0.01362165 -0.05164065 0.02291863
v 0.03418170 0.01648037 0.02293845
v 0.04266590 -0.00431223 0.02296206
v 0.02804079 0.00074756 0.02294712
v -0.05526829 0.00922110 0.02294830
v 0.02977625 0.02679367 0.02294691
v 0.02373119 0.03189824 0.02295413
v 0.02028108 0.03476505 0.02299308
v 0.01327300 0.02238947 0.02290307
v -0.05485795 -0.02484104 0.02294964
v -0.00546592 0.03078325 0.02294266
v -0.04666733 -0.03803240 0.02294729
v -0.03888182 0.03251219 0.02296502
v -0.03758512 0.03556403 0.02292842
v -0.04402509 0.02652096 0.02294618
v -0.04642304 0.02404551 0.02294774
v -0.04874154 0.02028563 0.02294818
v -0.04166255 0.03183125 0.02295450
v 0.03171699 0.02496369 0.02294696
v 0.03504228 0.02009717 0.02288045
v 0.02573382 -0.02492494 0.02292724
v -0.01791940 -0.05630799 0.02294893
v -0.05142006 -0.03041425 0.02294656
v 0.03465513 -0.02623575 -0.02097708
v 0.02709279 -0.03793678 -0.02097928
v -0.03975488 0.02523805 -0.02098261
v -0.00481130 0.04026453 -0.02068864
v 0.02787813 -0.00024804 -0.02097302
v -0.00819304 0.04121868 -0.02097284
v 0.02188794 -0.02545979 -0.02096858
v 0.03056795 -0.03420789 -0.02097199
v -0.02108095 -0.04815345 -0.02091280
v -0.01021919 0.02768070 -0.02096064
v 0.02140263 -0.04555909 -0.02097452
v -0.01558370 -0.05281102 -0.02025325
v -0.02637469 0.03411076 -0.02098005
v 0.03779093 0.00156977 -0.02095430
v 0.00682300 0.02616452 -0.02097871
v 0.00884855 -0.05140687 -0.02092155
v 0.01991795 0.03587101 -0.02089876
v 0.02392876 0.02580350 -0.02098638
v 0.02028134 0.03004062 -0.02097700
v 0.03469440 0.00950771 -0.02098000
v 0.02429671 0.01011122 -0.02098434
v 0.03921630 -0.00607931 -0.02098700
v 0.03742117 -0.01016206 -0.02097446
v 0.03754662 -0.02164936 -0.02098216
v 0.03691663 -0.02367634 -0.02097894
v 0.03261537 -0.03123072 -0.02095706
v -0.00812934 -0.05623132 -0.02099803
v 0.02044094 -0.05082205 -0.02105518
v -0.04912878 0.01855444 -0.02097646
v 0.03257568 0.01412071 -0.02097657
v 0.02985098 0.01809719 -0.02098027
v -0.00315950 0.03974969 -0.02097752
v 0.01499076 0.02140235 -0.02097158
v 0.00031402 0.03799689 -0.02097179
v -0.05204348 -0.00032430 -0.02102481
v -0.04882627 0.01410385 -0.02097919
v 0.02815491 -0.01683940 0.02294347
v 0.02027045 0.01569331 0.02294418
v -0.02936979 -0.05196070 0.02288017
v -0.02594070 -0.05280739 0.02293691
v -0.04270597 -0.04275878 0.02294537
v -0.03243010 -0.04963774 0.02294627
v -0.05754017 -0.01467323 0.02294660
v 0.03726214 0.01350367 0.02290454
v -0.01701475 0.03459483 0.02299795
v -0.00963326 -0.05720832 0.02266480
v 0.00711039 0.04133298 0.02291480
v 0.00199834 0.02802138 0.02294430
v 0.03615838 0.00597563 -0.02096564
v -0.03488123 0.03591802 0.02282620
v 0.02010930 -0.03044941 0.02294838
v 0.02269744 0.01242929 0.02290826
v -0.02555803 0.02797718 0.02276617
v 0.03966356 -0.01801121 0.02289474
v -0.00019610 0.04301014 0.02288542
v -0.00299207 0.04161496 0.02292878
v 0.00713898 0.02601221 0.02293758
v -0.00264168 -0.05586557 0.02273310
v 0.03537775 -0.03672320 0.02291854
v 0.02626627 0.00570531 0.02286544
v -0.01701379 0.02916003 0.02294503
v -0.01421628 0.02746086 0.02294654
v 0.01738666 0.01879070 0.02294122
v -0.05545190 0.00570440 0.02294728
v -0.00986388 0.02748882 0.02288657
v 0.01688099 -0.05065514 -0.02088870
v 0.00372595 0.04221844 0.02293821
v 0.01978443 -0.02794436 -0.02097670
v 0.02527596 -0.01932725 -0.02096748
v -0.04653248 0.02159623 -0.02097944
v -0.01404575 0.03817621 -0.02100118
v 0.01519196 0.03944210 0.02289299
v 0.02843782 -0.01006635 -0.02097294
v 0.04006452 -0.00809285 0.02294595
v -0.05763099 -0.00299487 0.02294974
v -0.00746214 0.02799402 -0.02097168
v 0.00804879 0.04129019 -0.02098714
v -0.00360822 0.02786713 -0.02095390
v -0.00254077 0.02776829 -0.02095364
v 0.01583626 0.03849732 -0.02087712
v 0.00044360 0.02750696 -0.02098139
v 0.00302662 0.02703477 -0.02086062
v 0.00494483 0.03703458 -0.02097653
v 0.01971011 0.01676004 -0.02097878
v 0.02126506 0.03406539 -0.02092556
v 0.00651821 0.03775607 -0.02091632
v -0.02058010 -0.05550025 0.02294643
v -0.05416538 -0.00193037 -0.02099685
v 0.03739092 -0.01489791 -0.02097922
v -0.05737715 -0.01661926 0.02141801
v -0.05174545 -0.03030490 0.01981555
v 0.03701127 -0.02817462 -0.01199834
v -0.00383212 -0.05648627 -0.01978651
v 0.02658229 -0.02028958 0.02198472
v 0.03944970 -0.01489305 -0.01893611
v 0.02551804 -0.02324000 0.01649701
v 0.02616922 -0.02266386 0.01435339
v 0.03132376 -0.03912803 0.01456367
v -0.04948116 -0.03472808 0.01985843
v 0.02708746 -0.02057611 0.01795882
v 0.03294443 -0.03381461 -0.01277023
v 0.03769633 -0.01890137 -0.02016322
v 0.03764986 -0.02531955 0.01999002
v 0.03676743 -0.02968465 0.00763477
v 0.00810415 -0.05620381 -0.01731222
v 0.01100958 -0.05346314 -0.01923170
v 0.01780699 -0.05223008 -0.00786414
v 0.03909308 -0.02077762 0.00355264
v 0.02245583 -0.02489912 0.01517719
v 0.04001817 -0.01769279 0.01489130
v 0.03879633 -0.00979367 -0.01972252
v 0.04038930 -0.01645674 -0.01094528
v -0.01016505 -0.05843732 0.01006597
v -0.01380508 -0.05899994 0.00450183
v 0.02893867 -0.01187941 0.02227641
v -0.00656575 -0.05915364 0.00179240
v -0.03225663 -0.05302005 -0.00230953
v -0.04471933 -0.04030032 0.02159139
v 0.02803560 -0.01757274 0.02003562
v -0.00405701 0.02961807 0.02092349
v 0.02577322 -0.02266181 0.00921570
v 0.02371785 -0.02150860 0.00508145
v 0.02704081 -0.01996327 0.00771706
v 0.04098938 -0.01405258 -0.00513940
v 0.02747771 0.00218862 0.02241120
v -0.05577058 -0.02295056 0.02096338
v 0.02454965 -0.02114090 0.00520494
v 0.02687898 -0.02080175 0.01110163
v -0.05440293 -0.02546555 0.01373445
v 0.02782981 -0.01842826 0.01411943
v -0.05792706 -0.00852315 0.01933413
v -0.03539857 -0.05025579 0.00971391
v -0.04745581 0.02343207 0.02190113
v -0.03364220 -0.04973243 0.02126384
v -0.05745424 -0.00777815 0.02201677
v 0.02470111 -0.02325244 0.00836789
v 0.02437427 -0.02053469 0.00370232
v 0.02510352 -0.01854167 -0.00011550
v 0.02866455 -0.01036315 0.00101291
v 0.02289441 -0.04697603 -0.01151746
v 0.02867100 -0.01299623 0.00935344
v -0.03613036 0.03486604 0.01878593
v 0.02758465 -0.01170264 -0.00610884
v -0.03591301 -0.04824162 0.02212920
v 0.03686385 0.01106433 0.02166006
v -0.05190836 -0.03303484 0.01271616
v -0.03545560 0.03408627 0.01330978
v 0.02660301 -0.01907735 0.00394809
v 0.02647397 -0.01747543 -0.00015071
v -0.03121218 0.03701322 0.01402547
v 0.02713549 -0.04375133 -0.01296245
v -0.02924723 0.03436660 0.02010836
v 0.02616992 -0.01631257 -0.00228532
v -0.02602456 0.03836330 0.01430972
v 0.02555143 -0.01411896 -0.00573677
v -0.04724236 -0.03939722 0.00942028
v -0.05731308 -0.01922711 0.00649978
v -0.04060688 -0.04674096 0.00304752
v -0.01894595 0.02720032 0.02130754
v -0.02003165 0.03366991 0.02098392
v -0.01720411 -0.05799231 0.00994855
v -0.01422160 -0.05770047 0.01937977
v -0.05449195 -0.02780535 0.00012767
v -0.05198254 -0.03272312 0.00684981
v -0.00609116 0.02947042 0.02096143
v -0.05845367 -0.00369185 0.01985198
v -0.02822760 -0.05314970 0.01661588
v -0.00003949 -0.05625050 -0.01941140
v -0.00986163 0.04103060 0.02041184
v -0.05797983 -0.01410651 0.01556267
v -0.02008534 -0.05667613 0.02136380
v -0.00680197 0.02824371 0.01052278
v -0.03958044 -0.04610089 0.01485964
v -0.00383502 -0.05801050 0.01603682
v -0.01791016 -0.05816765 0.00053171
v -0.02852879 -0.05421026 0.00596784
v -0.01800813 -0.05656379 0.02255150
v 0.00901617 -0.05519766 0.02127618
v 0.04045583 -0.00697502 -0.01702869
v -0.00034072 0.02843331 -0.00003544
v 0.00125992 0.02794445 0.00215102
v -0.05736139 0.00146448 0.01149321
v 0.00931206 0.04166852 0.02174456
v -0.01573250 0.04176101 0.01655885
v 0.00163674 0.02784794 -0.00029217
v -0.02322395 0.03995660 0.01110177
v 0.02585691 0.02823930 -0.00284609
v 0.01998653 0.03650748 0.02171364
v 0.03340379 0.01400781 -0.01993757
v -0.03884594 0.03279165 0.02191417
v 0.00332738 -0.05717270 0.01451117
v -0.01018967 -0.06009021 -0.00648251
v -0.03670677 0.03532705 0.02150416
v 0.00234439 -0.05753155 0.02138848
v -0.02677437 -0.05569130 -0.01213462
v 0.02070151 0.03348797 0.01129413
v 0.03804558 0.00201237 -0.01969916
v 0.04062311 -0.00602560 -0.02004854
v 0.02096313 0.03352029 0.02172985
v 0.00278423 -0.05782795 -0.00159154
v -0.05294200 0.01593821 0.01905666
v -0.05611738 0.00645902 0.00661089
v 0.02726238 -0.01637527 0.00004381
v 0.00753692 -0.05683465 -0.00144623
v 0.02770740 -0.01373893 -0.00103398
v 0.02792459 -0.01263223 -0.00334872
v 0.02553146 -0.01347866 -0.00684195
v 0.02604495 -0.01029333 -0.00935640
v 0.02019999 -0.04969088 0.01309238
v 0.01982373 -0.04891824 0.02128678
v -0.05689698 -0.01859185 -0.01650751
v 0.02820883 -0.00876219 -0.00462495
v -0.02207650 -0.05638881 0.01175321
v 0.02645163 -0.01095645 -0.00844619
v 0.01951988 -0.05072881 0.00823369
v -0.05415336 -0.02553382 -0.01628193
v 0.02821782 -0.00851251 -0.00623809
v -0.04399437 0.02792220 0.02129601
v -0.05072696 -0.03578894 -0.00189997
v 0.02798849 -0.00569465 -0.00886323
v 0.02883353 -0.00955373 -0.00626882
v 0.02764944 -0.00757568 -0.00765218
v -0.04181875 0.03069140 0.02045617
v -0.05703102 0.00446356 -0.00998759
v -0.02247409 -0.05776439 -0.00495202
v -0.05169217 -0.03213794 -0.01742055
v 0.01227792 -0.05505906 -0.00803318
v 0.04044212 -0.00948140 0.02171540
v -0.05220804 -0.03317484 -0.00899872
v -0.02251652 0.03555889 0.01859311
v 0.03468601 0.01351994 -0.01329487
v 0.04158340 -0.00820626 0.01303212
v -0.04977629 -0.03679477 -0.01274938
v -0.02196652 0.03754959 0.01580568
v 0.02483617 -0.04580299 0.02045953
v 0.02666445 -0.04458408 0.00634810
v 0.02181646 -0.02627498 0.02151012
v -0.04855099 -0.03919372 -0.01267894
v -0.03224306 0.03545502 0.01719003
v -0.01460979 0.04071542 -0.00306276
v -0.00102310 -0.05882386 0.00451462
v -0.01148930 -0.05814462 -0.00015902
v 0.03868604 -0.00192624 -0.01961599
v -0.05340754 -0.01094249 -0.01966797
v -0.01463605 0.04022157 -0.01508840
v 0.03305916 -0.03625390 -0.00283061
v 0.02522379 -0.02490077 0.01827328
v -0.00222754 0.04183203 0.00332335
v -0.00242645 0.04092520 0.01644229
v 0.02966632 -0.04109291 -0.00395164
v -0.04690573 -0.03445487 -0.01993809
v 0.00809281 -0.05631843 0.00575268
v 0.02536781 -0.02431759 0.02075312
v -0.04182174 -0.04448048 -0.01642592
v -0.02616744 0.03877728 -0.00321923
v 0.03976863 -0.02073254 0.02215597
v 0.00604913 0.04044446 -0.00187263
v -0.05344112 -0.01536387 -0.01992115
v -0.02642287 0.03771403 -0.01474085
v 0.01250302 -0.05379448 0.02128899
v 0.03709852 -0.02850946 -0.00171132
v -0.05770799 -0.02137071 0.00006645
v -0.05887781 -0.00183108 -0.00334781
v -0.02230740 0.03779938 -0.01944521
v 0.03189170 -0.03922395 0.02079428
v -0.01735496 0.04076139 0.01171066
v -0.00819884 0.04288140 0.00091961
v 0.00940389 0.04137325 0.00667084
v -0.03366862 -0.05227471 -0.01066227
v -0.01599045 0.04004295 0.00512883
v -0.00412646 -0.05828606 -0.01513601
v -0.00689965 -0.05940211 -0.01877541
v 0.00375864 0.04152565 0.01267018
v 0.02348407 -0.04723957 -0.00301918
v 0.01639804 0.03869965 0.00464255
v -0.02268171 -0.05419967 -0.02007391
v -0.03831815 -0.04897808 -0.01610879
v -0.00267133 0.04209489 0.02100906
v -0.05621448 -0.02202060 -0.01160660
v -0.02147841 -0.05735071 -0.01662091
v -0.00806739 0.04362014 0.01725423
v -0.05575332 0.01079154 -0.00046860
v 0.01735151 -0.05162807 0.00275554
v -0.01571581 -0.05770928 -0.01296735
v -0.05237877 0.01649697 0.01123753
v 0.02395982 0.00954452 -0.00106493
v -0.04637441 -0.04097254 -0.00803907
v 0.03331202 0.01787264 0.02265611
v -0.04557559 -0.04173020 -0.00414338
v 0.03411436 0.01671559 0.02099221
v -0.04108048 -0.04721169 -0.00626941
v 0.01595068 0.03927370 0.01606587
v 0.02072732 0.03315630 0.00656388
v -0.02883730 -0.05488697 -0.00614060
v 0.03448180 -0.03021187 0.02172168
v 0.03568920 0.01512766 0.01026963
v 0.00234571 0.04221090 0.02150729
v 0.02002379 0.03569205 0.00533207
v -0.05572432 0.01004229 0.01010145
v -0.04464036 -0.04201798 -0.01714451
v -0.04466068 0.02674044 -0.00497846
v -0.03194944 -0.05178220 -0.01628667
v -0.03694318 -0.04082054 -0.02024969
v -0.03345639 0.03629872 0.01029760
v -0.04695033 0.02537941 0.00889565
v -0.00382696 0.02920713 0.00222830
v -0.04765504 0.02409419 -0.01309850
v -0.00074395 0.02851152 0.00201286
v 0.02567986 0.02716932 0.02085248
v 0.00584676 0.02621070 -0.00534050
v 0.02800655 0.02690136 0.02206225
v -0.05079719 0.01951979 0.00145097
v 0.03780583 0.00545177 -0.00828987
v 0.02740192 0.02843439 0.01259532
v 0.04110568 -0.00225460 -0.00200694
v 0.02779298 0.02638970 0.01913281
v -0.04733946 0.02274695 -0.01608014
v 0.01921150 0.01628889 0.00018404
v -0.02924935 -0.04820646 -0.01945292
v -0.05731280 0.00103550 0.02071219
v -0.05239899 0.01742221 -0.00647053
v -0.05573833 0.00570721 0.02176654
v -0.05610540 0.00327487 0.01879438
v -0.04589054 0.02315734 -0.01997968
v -0.02361652 -0.05689530 0.00144544
v 0.03256693 0.02162225 0.02118633
v 0.02868015 -0.00299246 0.02251891
v -0.05189208 0.01863978 -0.01391154
v -0.04390132 0.02799752 0.01357558
v -0.00740504 0.04243730 0.01084945
v 0.00364812 -0.05815953 -0.00794562
v 0.03141876 0.02197772 0.01195116
v -0.05246546 0.01594253 -0.01717593
v 0.03357156 0.01849875 0.00093199
v 0.02009009 0.03574512 0.01349968
v 0.01746256 -0.05275558 -0.01549225
v 0.03453736 -0.03380749 0.01914350
v -0.05761658 -0.00784748 -0.01686035
v -0.05609739 0.01037579 -0.01084513
v 0.03890188 0.00605675 -0.00257794
v -0.05464910 0.01140103 -0.01505241
v -0.01533189 0.03917016 -0.01867905
v -0.05817151 -0.00604341 0.00895133
v -0.05571062 -0.00179673 -0.02025800
v -0.00802547 -0.05993485 -0.01408069
v 0.02057757 -0.05120652 -0.02042459
v -0.05758794 -0.00030672 0.00592255
v -0.01295061 0.04135137 -0.01859792
v -0.00469069 0.02910825 0.00571864
v 0.03918768 0.00595310 0.02187850
v 0.02178377 -0.04747817 -0.01878741
v 0.02604519 -0.01250647 -0.01973390
v 0.02662223 -0.00469543 -0.01845537
v 0.02544367 -0.00904335 -0.01731010
v -0.03483164 0.03346014 -0.01646566
v -0.05673892 0.00619006 -0.00386833
v 0.04179131 -0.00480138 0.02067976
v 0.04027923 -0.00087896 0.02095017
v -0.00822655 0.04171801 -0.02010917
v -0.03694872 0.02977592 -0.01973381
v -0.05913796 -0.00654708 -0.01186378
v -0.00635286 0.04004518 -0.01614005
v -0.05494451 0.01344691 -0.00528066
v 0.03084738 -0.03790324 -0.01898259
v -0.05649507 0.00085006 -0.01643604
v 0.02836281 -0.00549429 -0.02086310
v 0.03820274 0.00678130 0.00221834
v -0.04803334 0.02193956 -0.00373219
v -0.05184652 0.01233962 -0.01932109
v -0.00382062 -0.05930012 -0.00261045
v 0.02470824 -0.04362943 -0.01967033
v -0.05792978 -0.00238402 -0.01554470
v -0.03760476 0.03346078 0.00441056
v -0.00121892 0.03926018 -0.01848206
v -0.05528943 0.00897212 0.01909889
v -0.04993140 0.02005372 -0.01963117
v -0.04148355 0.02846230 -0.01695804
v 0.02807858 -0.04245245 -0.01809193
v -0.05036438 0.01948370 0.01985370
v 0.00122783 0.04005183 -0.00986248
v 0.02377306 0.03069446 0.02040376
v 0.00412238 -0.05735705 -0.01513893
v 0.02774004 -0.00026387 0.00095476
v 0.03137264 -0.03735692 -0.01432048
v -0.03346462 0.03560725 -0.00438237
v -0.03325682 0.03452703 -0.00991683
v 0.04026794 -0.01547803 0.02088245
v -0.05761457 -0.00127780 -0.01009381
v 0.03586588 0.01392087 0.01959717
v -0.02796577 0.03832879 -0.01020152
v 0.03289878 -0.03227728 -0.01941306
v 0.03642874 -0.02973719 0.01399431
v 0.03709683 -0.02425901 -0.01929632
v -0.05610425 0.00796287 -0.01630941
v 0.00961183 0.04111674 -0.00794047
v -0.02838120 0.03620517 -0.01898292
v 0.03879995 -0.01948317 -0.01225093
v 0.03987336 0.00318154 0.01220043
v -0.03908509 0.03136152 -0.00779102
v 0.04251556 -0.00304489 0.02292065
v -0.00739151 0.04218594 -0.00707114
v 0.00761625 0.04030427 -0.01743370
v 0.04170651 -0.00811752 0.00325881
v -0.00947872 0.04061139 -0.01363230
v -0.00702723 0.04182295 -0.00428785
v -0.05797053 -0.01830039 -0.00901753
v 0.00981038 0.04087125 -0.01900141
v -0.05831950 -0.01231673 -0.00208390
v -0.00573415 0.04057501 -0.01148715
v -0.05816336 -0.01683288 -0.01239750
v 0.00397565 0.02548400 -0.01458609
v -0.00143720 0.02869233 -0.00131822
v -0.05570130 -0.02648922 -0.01117345
v -0.02409083 0.04004709 0.00190083
v -0.00030318 0.02853348 -0.00491404
v -0.00236851 0.02773845 -0.00735215
v 0.00983159 0.02401342 -0.01194400
v 0.01157063 0.02272769 -0.01340566
v -0.00123849 0.02849666 -0.00623230
v 0.00886078 0.02406812 -0.01361161
v -0.00051524 0.02664478 -0.01052872
v 0.00109898 0.02794260 -0.00760487
v 0.01150472 0.02282731 -0.01239301
v -0.00099491 0.02540712 -0.01442843
v -0.00017490 0.02855077 -0.00620991
v 0.00387414 0.02689656 -0.01058976
v 0.00071577 0.02707708 -0.01005511
v 0.01443848 0.02065711 -0.01041716
v 0.01281279 0.02181116 -0.01375065
v -0.00605580 0.02807918 0.00232510
v 0.00990520 0.02318046 -0.01871362
v -0.00366261 0.02891060 -0.00325781
v -0.00337353 0.02877453 -0.00104152
v 0.01473473 0.02017489 -0.01590223
v -0.00101077 0.02688043 -0.01996248
v 0.00538977 0.03917899 -0.01195213
v -0.00158397 0.02878144 -0.00334954
v 0.01455478 0.02044638 -0.01868566
v 0.00491709 0.03766998 -0.01849893
v 0.00108416 0.02800031 -0.00186205
v 0.00603055 0.02486501 -0.01846838
v 0.01898188 0.01671718 -0.02009229
v 0.02031314 0.01405679 -0.01596103
v 0.01720771 0.01752482 -0.01743827
v 0.02069221 0.03228210 -0.00101992
v 0.01976800 0.03591652 -0.01530115
v 0.02477452 0.00627498 -0.01522161
v 0.02324364 0.01073802 -0.02015716
v 0.02023268 0.03085500 -0.01907240
v 0.02450601 0.00681270 -0.01589059
v 0.02401945 0.00800360 -0.01665137
v 0.02303499 0.01019968 -0.01485409
v 0.02385566 0.00848018 -0.01725263
v 0.02391427 0.00873366 -0.01900582
v 0.02676606 0.00139210 -0.01281273
v 0.02564537 -0.00831792 -0.01298597
v 0.02734928 -0.00469446 -0.01231997
v 0.02665491 -0.00516456 -0.01386107
v 0.02796146 -0.00386180 -0.00876836
v 0.02795953 -0.00458861 -0.01021392
v 0.02447783 0.00676696 -0.01686404
v 0.02631525 -0.00022618 -0.01662346
v 0.02734231 0.02626595 0.00398793
v 0.02569791 0.00384315 -0.01932013
v 0.03461770 0.01462101 -0.00378461
v 0.02816367 -0.00494841 -0.00966405
v 0.02650654 -0.00004836 -0.01937357
v 0.03320290 0.01883958 -0.00863930
v 0.02713712 -0.00189122 -0.01309635
v 0.02629090 -0.00563833 -0.01499617
v 0.01511152 0.03915076 -0.00609337
v 0.02564924 0.02585679 -0.01890224
v 0.02960510 0.01974283 -0.01998164
v 0.01979491 0.03602375 -0.00681603
v 0.02088344 0.03151314 -0.01236382
v 0.02111475 0.02939206 -0.01954512
vn 0.57596264 -0.35022745 0.73865267
vn -0.32862557 0.58980623 0.73765429
vn 0.35714641 -0.42120470 0.83368642
vn 0.65180004 -0.18912302 0.73443121
vn 0.67526811 -0.01545539 0.73741041
vn 0.46925395 0.45766084 0.75521340
vn 0.20495678 0.61042759 0.76509534
vn 0.61516590 0.21911459 0.75733725
vn -0.10209424 0.64521853 0.75714584
vn 0.42249804 -0.50918390 0.74981809
vn 0.02940005 -0.89009569 -0.45482447
vn 0.18765163 0.65113329 0.73539942
vn 0.42389370 -0.67966538 0.59863937
vn -0.23313062 0.62628891 -0.74391688
vn 0.04882399 -0.92986572 0.36464499
vn 0.19520380 0.67265521 -0.71374397
vn 0.52368547 -0.40649947 -0.74867330
vn 0.64186395 -0.17538687 -0.74649187
vn 0.31206086 -0.57720973 -0.75461709
vn 0.23996195 0.87299164 -0.42462203
vn 0.15742770 -0.84143498 0.51691749
vn -0.09178908 -0.98741134 -0.12881621
vn -0.88727307 0.34985958 -0.30057408
vn -0.70396808 0.67000979 0.23561796
vn 0.00000000 -0.00000000 -0.00000000
vn -0.60949485 0.75717080 0.23496469
vn -0.59335694 0.78397555 0.18250993
vn 0.31856656 -0.94299099 0.09635004
vn -0.22822379 0.29638235 -0.92740035
vn 0.33861244 -0.93853743 0.06700085
vn 0.27888926 -0.95940311 0.04202913
vn 0.26090716 -0.95253625 0.15685069
vn 0.56161307 0.24347002 -0.79076742
vn 0.33629962 0.58758519 -0.73596618
vn -0.76143420 0.36591483 -0.53509279
vn 0.11133048 -0.66770715 -0.73605209
vn -0.01864922 0.65402333 -0.75624446
vn 0.61265178 0.04355755 -0.78915178
vn -0.40168741 0.52835472 -0.74798965
vn -0.57536408 0.40904197 -0.70826608
vn 0.51152879 0.36445669 -0.77814499
vn 0.44454738 0.47068362 -0.76212503
vn -0.78057400 0.56075136 0.27615602
vn -0.87644586 0.41753356 0.23980906
vn -0.45866180 0.50487486 0.73125285
vn 0.08378411 -0.98275935 0.16481592
vn -0.04969451 -0.93961451 -0.33860749
vn -0.59832279 -0.80111492 -0.01499064
vn 0.42670417 0.90059856 -0.08273932
vn 0.99167741 -0.11771730 0.05213970
vn -0.81144770 0.58424257 0.01460312
vn 0.45877274 -0.01827439 0.88836570
vn -0.64654279 -0.17516783 0.74249488
vn -0.60897234 0.15487802 0.77792383
vn -0.61189821 -0.01423432 0.79080842
vn 0.33062264 -0.53620016 0.77664539
vn -0.55691459 -0.16126955 0.81476271
vn -0.62918696 0.36721015 0.68504049
vn -0.55325971 -0.14620592 0.82007775
vn -0.62537035 -0.42196435 0.65639775
vn 0.41950722 -0.55819020 0.71584732
vn 0.51264311 -0.60104811 0.61313800
vn -0.40808836 -0.51700075 0.75244542
vn -0.52446478 -0.11417434 0.84374221
vn -0.13802754 0.29136712 0.94660108
vn 0.48192819 0.65347480 0.58370875
vn -0.61608521 -0.02706699 0.78721433
vn 0.24710263 -0.54029571 0.80437605
vn 0.53626155 0.16185021 0.82838884
vn -0.53341281 -0.12188569 0.83702727
vn -0.05862492 -0.64256521 0.76398500
vn -0.05541351 -0.47235094 0.87966695
vn -0.31174060 0.47835452 0.82097183
vn 0.48613724 0.18297704 0.85451155
vn 0.72362785 0.48875725 0.48731826
vn 0.31642895 0.37839964 0.86987725
vn -0.61309561 0.19096186 0.76658160
vn 0.61602562 -0.59661920 0.51435198
vn 0.12248174 -0.06668310 0.99022805
vn 0.42734201 -0.21961892 0.87700988
vn 0.52150011 0.11007636 0.84612105
vn 0.60680860 0.20461808 0.76805909
vn -0.41063176 -0.02747844 0.91138712
vn 0.26063322 -0.37753809 0.88855800
vn 0.51262061 0.42125194 0.74817572
vn 0.84601244 -0.10371557 0.52297805
vn 0.00000000 0.00000000 0.00000000
vn -0.71277324 0.17725038 0.67862848
vn 0.58589398 0.74522403 0.31838559
vn 0.55601501 0.61266240 0.56168682
vn 0.51901556 0.32929404 0.78878913
vn -0.40163801 -0.54653394 0.73483846
vn -0.66234629 -0.30306369 0.68516406
vn 0.05660681 -0.39747759 0.91586420
vn -0.53448186 -0.46370319 0.70661764
vn -0.29560242 0.39703340 0.86889797
vn -0.52761914 0.71518624 0.45839577
vn -0.38282487 0.29206240 0.87643863
vn -0.44770668 0.35463853 0.82084727
vn -0.46562859 0.31883700 0.82555011
vn -0.51788115 0.66514137 0.53794616
vn 0.66115369 0.66117862 0.35456823
vn 0.97720148 -0.06542708 0.20198159
vn -0.36845609 0.29704733 0.88091032
vn -0.07616421 -0.50237651 0.86128790
vn -0.58821410 -0.32096756 0.74228297
vn 0.35426301 -0.17840306 -0.91797063
vn 0.22685025 -0.19500257 -0.95420803
vn -0.14282466 0.21491589 -0.96613264
vn 0.21527040 0.72902394 -0.64975592
vn -0.40931533 -0.06864287 -0.90980719
vn 0.01911677 0.55179000 -0.83376396
vn -0.15581339 0.12108031 -0.98033757
vn 0.35991055 -0.20848938 -0.90939352
vn -0.04845131 -0.06821777 -0.99649325
vn 0.06445425 -0.28283037 -0.95700190
vn 0.37600719 -0.21095207 -0.90228478
vn -0.07418891 -0.40645149 -0.91065537
vn -0.13668535 0.29673159 -0.94512829
vn 0.61340045 0.15015537 -0.77536653
vn -0.17294328 -0.43309858 -0.88459948
vn 0.06161409 -0.27700866 -0.95888993
vn 0.50886801 0.54912421 -0.66296000
vn 0.36669697 0.35518809 -0.85986903
vn 0.45453780 0.18043776 -0.87226005
vn 0.48420412 0.20144961 -0.85144843
vn -0.41703038 -0.23851929 -0.87703718
vn 0.37866117 -0.01458786 -0.92542040
vn 0.32591418 -0.05600828 -0.94373885
vn 0.74359502 -0.08985991 -0.66256444
vn 0.58517143 -0.30455197 -0.75154674
vn 0.47444827 -0.26733037 -0.83870931
vn -0.10367479 -0.38648250 -0.91645121
vn 0.42658272 -0.44644271 -0.78658508
vn -0.41581450 0.14894857 -0.89716923
vn 0.43189395 0.25054103 -0.86642761
vn 0.37233651 0.26107511 -0.89062074
vn 0.16230706 0.65150384 -0.74107973
vn -0.30918468 -0.40153758 -0.86207448
vn 0.17721726 0.54404275 -0.82012897
vn -0.06662187 0.02514905 -0.99746130
vn -0.97301750 0.03044681 0.22871365
vn -0.65941169 0.18350160 0.72904278
vn -0.52562549 -0.43948224 0.72840456
vn -0.28065972 -0.64270009 0.71285813
vn -0.24194162 -0.54665471 0.80164386
vn -0.51988660 -0.50706419 0.68746188
vn -0.27631533 -0.43525652 0.85685565
vn -0.69710697 -0.05678060 0.71471521
vn 0.82315815 0.26540711 0.50196587
vn -0.38098343 0.36505681 0.84946168
vn 0.01829132 -0.68929776 0.72424721
vn 0.06526067 0.55655807 0.82824161
vn -0.22153532 -0.65295502 0.72427332
vn 0.59446821 0.23296902 -0.76963172
vn 0.03618015 0.79044680 0.61146124
vn -0.11749243 0.18123455 0.97639621
vn -0.57114369 -0.37209347 0.73167024
vn 0.15352891 0.14030617 0.97813243
vn 0.64216793 -0.00827769 0.76651929
vn -0.04372870 0.86073649 0.50716911
vn -0.15488890 0.54271182 0.82551397
vn -0.29680582 -0.61341974 0.73186237
vn -0.05223020 -0.54572719 0.83633357
vn 0.82866589 -0.32948141 0.45249844
vn -0.64226965 -0.26611936 0.71879774
vn -0.31353896 -0.15742145 0.93643569
vn -0.07865997 -0.48727038 0.86970120
vn -0.47905181 -0.49454705 0.72521210
vn -0.58467849 0.09505913 0.80567662
vn 0.27678307 -0.62768987 0.72759643
vn 0.04304307 -0.50771727 -0.86044783
vn 0.18393170 0.76515396 0.61701584
vn -0.12853879 0.11207448 -0.98535125
vn -0.21213928 0.10376381 -0.97171498
vn -0.28073466 0.34620079 -0.89517209
vn -0.16967896 0.38164104 -0.90860287
vn 0.31532141 0.64739702 0.69386563
vn -0.30880602 0.07211667 -0.94838707
vn 0.49955900 -0.13109874 0.85630247
vn -0.64360582 0.04965242 0.76374484
vn 0.00502341 -0.26399333 -0.96451143
vn -0.34185823 0.76145968 -0.55073777
vn -0.01164614 -0.39462688 -0.91876765
vn -0.04171895 -0.41203711 -0.91021149
vn 0.33830538 0.64613259 -0.68415067
vn -0.02129542 -0.48703537 -0.87312259
vn -0.10757625 -0.49692130 -0.86110195
vn -0.04379568 0.51708466 -0.85481308
vn -0.35035659 -0.27943347 -0.89396151
vn 0.82320980 0.13113010 -0.55238620
vn -0.37070542 0.39316482 -0.84142672
vn -0.79150647 0.48497682 0.37190723
vn -0.29379581 0.05811595 -0.95409987
vn -0.54381199 -0.11076357 -0.83186534
vn -0.97688603 -0.20056747 0.07393492
vn -0.88754137 -0.45130702 0.09269460
vn 0.91778872 -0.38318390 -0.10408634
vn 0.21230652 -0.82883344 -0.51764956
vn -0.94343602 0.32753366 0.05147983
vn 0.89185889 -0.15163260 -0.42613997
vn -0.74952690 0.63751930 0.17826545
vn -0.76027424 0.64928557 0.02028157
vn 0.79657001 -0.60403252 -0.02491876
vn -0.83212738 -0.54972836 0.07323083
vn -0.92740291 0.37209096 -0.03836877
vn 0.86358612 -0.49337653 -0.10391637
vn 0.96864066 -0.11543667 -0.22002190
vn 0.90279814 -0.41969583 0.09386651
vn 0.92997547 -0.36701135 0.02117304
vn 0.26083651 -0.88799657 -0.37871678
vn 0.22960869 -0.70611191 -0.66984014
vn 0.57776904 -0.81564781 0.03002659
vn 0.97016866 -0.24243090 -0.00018270
vn -0.36118079 0.90901360 0.20794884
vn 0.97538223 -0.22025879 -0.01075051
vn 0.78265814 -0.14965438 -0.60419352
vn 0.96010117 -0.26363977 -0.09327280
vn -0.02407331 -0.99598402 0.08623406
vn -0.08832117 -0.99603548 -0.01061552
vn -0.99545692 0.09470700 0.00980366
vn -0.02677450 -0.99792691 0.05852359
vn -0.50570622 -0.86049143 0.06177157
vn -0.75601479 -0.65423615 0.02041303
vn -0.96041521 0.27577358 -0.03938990
vn -0.13527105 -0.96872970 0.20800122
vn -0.71706109 0.67095955 0.18877678
vn -0.85514388 0.35482317 0.37792786
vn -0.88977276 0.41594852 0.18785969
vn 0.99075005 -0.13465503 -0.01680347
vn -0.94876850 -0.30207559 0.09267508
vn -0.93932123 -0.33635108 0.06740613
vn -0.52859663 0.74896259 0.39955055
vn -0.92990482 0.36357662 0.05557934
vn -0.93612423 -0.34629433 0.06125085
vn -0.96554715 0.25788098 0.03487278
vn -0.99379995 -0.05174322 0.09840884
vn -0.54621068 -0.83569131 0.05721817
vn -0.79723232 0.55453581 0.23855955
vn -0.48204031 -0.84951582 0.21438285
vn -0.96616736 -0.11466264 0.23102622
vn -0.42311592 0.85052557 0.31237666
vn -0.51894998 0.78703841 0.33355879
vn -0.45715695 0.78056295 0.42629685
vn -0.99653924 0.06092777 0.05654520
vn 0.66857266 -0.73952838 -0.07815613
vn -0.99237242 0.11792010 0.03594210
vn -0.44104265 0.87911675 -0.18065193
vn -0.82240099 0.48008730 0.30524220
vn -0.53365066 -0.79624903 0.28496396
vn 0.97890142 0.19164109 -0.07089214
vn -0.87365840 -0.47998696 0.07958335
vn -0.56327572 0.82579578 0.02796058
vn -0.79537631 0.56645806 0.21564276
vn -0.67693711 0.63701691 0.36873515
vn -0.38974394 0.89819976 0.20331464
vn 0.68595794 -0.72225577 -0.08836459
vn 0.22802153 0.78790084 0.57203012
vn -0.63114984 0.62554381 0.45863365
vn -0.15767121 0.92189140 0.35391529
vn -0.63567993 0.64892844 0.41809438
vn -0.75437718 -0.65320570 0.06509524
vn -0.97228512 -0.22159506 0.07454709
vn -0.65522910 -0.75276420 0.06341054
vn -0.03989776 -0.25415775 0.96633949
vn -0.35836892 0.40552536 0.84090481
vn -0.18326142 -0.98043935 0.07179085
vn -0.06419802 -0.97938339 0.19153795
vn -0.91505617 -0.40128893 0.04048957
vn -0.88303665 -0.46851569 0.02719029
vn 0.34411216 -0.90339900 0.25584579
vn -0.99240418 0.06057782 0.10707129
vn -0.43428333 -0.89368720 0.11278821
vn 0.13327508 -0.78356264 -0.60685035
vn -0.30220024 0.70019262 0.64684257
vn -0.99170911 -0.12773703 0.01401031
vn -0.30639786 -0.89953943 0.31136661
vn 0.50494652 -0.86079394 0.06374014
vn -0.66267828 -0.74351010 0.08972308
vn 0.04271949 -0.99083417 0.12815105
vn -0.14871384 -0.98880610 0.01211139
vn -0.45124659 -0.88851550 0.08316685
vn -0.10632698 -0.89239862 0.43854222
vn 0.34272917 -0.92114004 0.18449321
vn 0.99382688 0.03061555 -0.10663404
vn 0.97125050 -0.23307294 0.04847126
vn 0.46492921 -0.13399025 0.87514995
vn -0.98314543 0.18251036 0.01072577
vn 0.19494613 0.94764643 0.25290759
vn -0.38121716 0.87744361 0.29114632
vn -0.30763817 -0.95145744 0.00935382
vn -0.24541596 0.94872106 0.19924698
vn 0.70890096 0.70486350 -0.02503736
vn 0.75100673 0.60830291 0.25681990
vn 0.83577483 0.43546051 -0.33444666
vn -0.65677728 0.75277750 -0.04438062
vn 0.21805926 -0.97518778 0.03819632
vn -0.11052732 -0.99346741 0.02839403
vn -0.45049180 0.83783949 -0.30835391
vn 0.12858484 -0.96006142 0.24849146
vn -0.42509441 -0.89703744 -0.12090731
vn 0.83472257 0.55043602 -0.01607547
vn 0.94450278 0.26921929 -0.18824312
vn 0.91053831 0.04626380 -0.41082800
vn 0.78701355 0.59792265 -0.15198085
vn 0.21848813 -0.97488643 0.04312071
vn -0.88501887 0.46502435 0.02222512
vn -0.98557192 0.16918307 0.00500839
vn -0.89786554 0.38820889 0.20768084
vn 0.32514640 -0.94455040 0.04587326
vn -0.97837464 0.20273040 0.04102974
vn -0.91830568 0.33027979 0.21824285
vn -0.63750084 0.63355924 0.43840092
vn -0.81685348 0.40002187 0.41561148
vn 0.56724647 -0.82218512 0.04736110
vn 0.51075576 -0.83104659 0.22020470
vn -0.83253634 -0.23126931 -0.50338628
vn -0.99986982 -0.01216473 -0.01059983
vn -0.35326919 -0.93260917 0.07376320
vn -0.71379020 0.39928880 0.57538856
vn 0.31017556 -0.94165790 0.13065805
vn -0.81196811 -0.29263189 -0.50504887
vn -0.82811489 -0.55750796 -0.05840040
vn -0.81759508 0.55847150 0.14017082
vn -0.83129981 -0.55527492 0.02470627
vn 0.16587295 0.65368859 0.73836128
vn -0.99054131 0.09742131 0.09662820
vn -0.93733950 0.13528631 0.32107986
vn -0.67877982 0.71855584 -0.15144460
vn -0.99041252 0.12706325 -0.05420303
vn -0.23942339 -0.97091410 0.00150265
vn -0.75283043 -0.35131959 -0.55661557
vn 0.39300076 -0.91944344 0.01319699
vn 0.84824582 -0.12869655 0.51372777
vn -0.87926813 -0.47378957 -0.04910186
vn -0.19590778 0.67849008 0.70800520
vn 0.91015419 0.39546882 -0.12338462
vn 0.99992068 -0.01004144 0.00760285
vn -0.82523368 -0.53355766 -0.18521771
vn -0.27955640 0.84762050 0.45098527
vn 0.59533428 -0.80310298 0.02455004
vn 0.70449687 -0.70944545 0.01926954
vn -0.47657482 0.77540043 0.41428325
vn -0.81711861 -0.56835629 -0.09637586
vn -0.19378600 0.96977136 0.14829192
vn -0.17761067 0.98336953 -0.03793184
vn 0.14804132 -0.98797687 0.04455857
vn -0.10034496 -0.99288711 0.06407864
vn 0.94339184 0.19711910 -0.26675064
vn -0.40230390 -0.06516649 -0.91318394
vn -0.21669309 0.97571042 -0.03214486
vn 0.84435884 -0.53316913 -0.05280937
vn -0.64863193 0.74575290 0.15208298
vn 0.12584851 0.99187230 -0.01874837
vn 0.13449545 0.98543066 -0.10410280
vn 0.78807607 -0.61511704 -0.02381446
vn -0.42494322 -0.30231115 -0.85324746
vn 0.35943362 -0.93245361 0.03657513
vn -0.79427397 0.60465816 0.05930745
vn -0.58463379 -0.62916656 -0.51220384
vn -0.31929730 0.94625321 -0.05151800
vn 0.90869100 -0.27182799 0.31684414
vn -0.05744393 0.99603179 -0.06797697
vn -0.45348384 -0.03221935 -0.89068194
vn -0.29619485 0.93368144 -0.20126495
vn 0.46238702 -0.85769734 0.22484110
vn 0.93887226 -0.34359195 -0.02152780
vn -0.95496080 -0.29381394 0.04151179
vn -0.99114967 0.13141108 0.01880032
vn -0.21260096 0.81762094 -0.53506713
vn 0.73130380 -0.60970058 -0.30571219
vn -0.23089042 0.97297955 0.00064377
vn -0.06874838 0.99625286 -0.05247757
vn 0.14228391 0.98898998 -0.04067085
vn -0.49719845 -0.86425652 -0.07651386
vn -0.12021634 0.99232174 -0.02907902
vn 0.29403564 -0.94209467 -0.16124724
vn 0.09701347 -0.87046657 -0.48257262
vn -0.01525419 0.99958282 -0.02452540
vn 0.65914177 -0.75193385 -0.01129635
vn 0.50393317 0.86366768 -0.01137977
vn -0.17488180 -0.51046984 -0.84192452
vn -0.54103625 -0.68037301 -0.49434031
vn 0.02071795 0.99918897 -0.03452782
vn -0.94858138 -0.29857893 -0.10509038
vn -0.10764077 -0.90917110 -0.40227027
vn -0.01078803 0.99325618 0.11543737
vn -0.94489469 0.32349565 0.05024534
vn 0.49595039 -0.86811268 0.02033673
vn -0.16346211 -0.95599389 -0.24363051
vn -0.86766008 0.49715506 -0.00168458
vn -0.88135684 -0.47170007 0.02663016
vn -0.74405515 -0.66807155 -0.00789565
vn 0.94291528 0.07947611 -0.32341047
vn -0.75403494 -0.65538468 0.04361459
vn 0.86083625 0.50869634 0.01374687
vn -0.67869772 -0.73441773 -0.00005149
vn 0.48039510 0.87689666 -0.01651665
vn 0.85340018 0.51719713 -0.06492512
vn -0.43916572 -0.89836736 0.00834011
vn 0.92397030 -0.08283745 0.37338565
vn 0.90443833 0.42657163 -0.00528637
vn 0.07981907 0.98231641 -0.16936171
vn 0.84633046 0.53249067 -0.01335794
vn -0.95205915 0.30547516 0.01637972
vn -0.57690009 -0.62585565 -0.52487236
vn -0.71782683 0.69599799 -0.01764763
vn -0.41251921 -0.73735809 -0.53491210
vn -0.17877613 -0.23843093 -0.95456261
vn -0.51420067 0.85614242 0.05116477
vn -0.75873353 0.65124446 0.01428603
vn 0.12754707 -0.98684085 0.09938246
vn -0.72310600 0.67835472 -0.13020207
vn -0.22834271 -0.97338409 0.01957085
vn 0.73192700 0.64543922 -0.21838286
vn -0.41464553 -0.90987748 0.01385869
vn 0.53039174 0.70991269 -0.46336656
vn -0.82736140 0.56152705 -0.01266800
vn 0.94098175 0.31513125 -0.12347321
vn 0.74897443 0.66246313 -0.01341258
vn 0.98362806 0.17985373 -0.01133441
vn 0.70785384 0.70526634 0.03927258
vn -0.68579949 0.68835239 -0.23632615
vn -0.76136310 -0.64788534 0.02389181
vn -0.26541138 -0.33550835 -0.90387552
vn -0.96359293 0.26719846 -0.00967711
vn -0.81740170 0.57582099 0.01687146
vn -0.97823085 0.18412295 0.09572435
vn -0.96835114 0.24952192 -0.00590682
vn -0.52732158 0.68809484 -0.49845505
vn -0.33355121 -0.94004712 0.07109858
vn 0.81209189 0.44375351 -0.37893217
vn -0.99254557 -0.12101901 0.01441119
vn -0.84146611 0.53309484 -0.08800388
vn -0.69218971 0.72162835 0.01122185
vn 0.05558221 0.99671877 -0.05884148
vn 0.21230518 -0.97636138 -0.04055810
vn 0.83419888 0.55095384 -0.02370838
vn -0.88761766 0.29577835 -0.35305816
vn 0.86469245 0.49977933 -0.05027518
vn 0.83874521 0.54392515 -0.02553235
vn 0.51334496 -0.85086486 -0.11182999
vn 0.95818662 -0.27467517 -0.08019947
vn -0.85079415 -0.07985629 -0.51939608
vn -0.95468056 0.26582482 -0.13387380
vn 0.93752168 0.34239360 -0.06180394
vn -0.89416953 0.35491773 -0.27293635
vn -0.35319108 0.86039650 -0.36738797
vn -0.99951206 0.02873440 -0.01224621
vn -0.60021203 0.32367752 -0.73142216
vn 0.02086044 -0.99484771 -0.09921130
vn 0.61954313 -0.75562540 -0.21259485
vn -0.98982046 0.13901502 0.03050048
vn -0.33143221 0.91589473 -0.22647194
vn 0.35791919 -0.93269767 0.04437250
vn 0.94988161 0.26569905 0.16470864
vn 0.85039537 -0.50020607 -0.16316126
vn -0.70753823 0.25495371 -0.65908138
vn -0.93559977 0.02088833 -0.35244396
vn -0.94310211 0.16756118 -0.28719621
vn -0.52413975 0.80969214 -0.26396243
vn -0.98096203 0.19385169 0.01161946
vn 0.98587936 0.01823104 -0.16646173
vn 0.94473247 0.32501530 -0.04296065
vn 0.09386225 0.98795040 -0.12306049
vn -0.40161010 0.58500267 -0.70461422
vn -0.99239759 0.04965133 -0.11261335
vn 0.15961524 0.98674958 0.02912450
vn -0.89343793 0.44917755 0.00286048
vn 0.76642746 -0.45290637 -0.45548300
vn -0.90750209 0.23605331 -0.34744611
vn -0.97989971 -0.05648319 0.19132751
vn 0.94642932 0.32290457 -0.00204626
vn -0.78820256 0.61420255 -0.03862582
vn -0.68851058 0.16306291 -0.70665669
vn 0.13377862 -0.99087610 0.01636551
vn 0.58579781 -0.59863706 -0.54632828
vn -0.94887673 0.22187454 -0.22450978
vn -0.57353290 0.81903602 -0.01549213
vn 0.24356901 0.95985374 -0.13912200
vn -0.97001033 0.23849219 0.04691946
vn -0.72667250 0.52210752 -0.44648719
vn -0.58661459 0.75957759 -0.28093631
vn 0.64549400 -0.67592766 -0.35561116
vn -0.79724027 0.59730264 0.08739286
vn 0.12627162 0.98340099 -0.13029956
vn 0.70483105 0.69971774 -0.11665449
vn 0.16941416 -0.96913980 -0.17907233
vn -0.97450368 -0.22239692 0.02970183
vn 0.89154613 -0.45117674 -0.03981281
vn -0.45801318 0.88414947 -0.09221517
vn -0.51936441 0.85262079 -0.05743163
vn 0.97179612 -0.05954522 0.22818123
vn -0.96516838 0.24348537 -0.09573336
vn 0.90059321 0.42635108 -0.08459689
vn -0.38807930 0.91976596 -0.05852372
vn 0.83059799 -0.44467354 -0.33521996
vn 0.92761909 -0.36905446 0.05763350
vn 0.91136539 -0.34623599 -0.22256181
vn -0.88597596 0.22814803 -0.40372648
vn 0.00258106 0.99914205 -0.04133408
vn -0.35418013 0.78093149 -0.51449241
vn 0.94706228 -0.30465991 -0.10126887
vn 0.96980452 0.24341037 -0.01518480
vn -0.59264876 0.80182844 -0.07641077
vn 0.48417814 0.51580999 0.70676133
vn 0.23098088 0.97180635 -0.04733130
vn -0.45648595 0.88939648 0.02438204
vn 0.99997835 0.00045394 -0.00656522
vn 0.01809427 0.99835577 -0.05439076
vn 0.05627451 0.99581102 -0.07206659
vn -0.96904522 -0.24391510 -0.03816778
vn 0.15859222 0.98689625 0.02973715
vn -0.99741409 -0.05373027 0.04773045
vn 0.14208058 0.97526215 -0.16934241
vn -0.97361881 -0.18954869 -0.12703425
vn -0.12875899 -0.97051421 0.20377267
vn -0.12456505 -0.99156371 -0.03584625
vn -0.93848119 -0.31566529 -0.14003030
vn -0.23794809 0.97005861 -0.04865177
vn -0.21402204 -0.97682166 0.00374336
vn 0.37995658 -0.83840201 0.39078774
vn -0.48728678 -0.86715694 0.10290982
vn -0.51516194 -0.83961378 0.17221171
vn 0.10965229 -0.95974260 0.25859335
vn -0.40820941 -0.89912942 0.15789669
vn 0.20646886 -0.91578134 0.34455064
vn -0.71493922 -0.54518811 -0.43775773
vn -0.58329280 -0.81218388 0.01126291
vn -0.96395122 -0.26590960 0.00949319
vn -0.12978472 -0.98364236 0.12491453
vn -0.23079295 -0.95063646 0.20742452
vn 0.98946540 0.11782417 0.08411712
vn -0.64918320 -0.76043160 0.01746286
vn -0.59446854 -0.80164161 0.06307046
vn 0.59503662 -0.79263195 0.13291353
vn -0.47340765 -0.85548814 -0.20982192
vn 0.33571370 -0.92931173 0.15387015
vn 0.05163493 -0.99847011 -0.01978069
vn -0.64660412 -0.76250870 0.02199069
vn 0.05989101 -0.88923861 -0.45350607
vn -0.13939016 0.98418402 -0.10932610
vn -0.13779909 -0.99041109 0.00986367
vn -0.60169855 -0.76408476 -0.23266572
vn -0.18366746 0.94351680 -0.27575769
vn -0.30815424 -0.95133638 0.00022336
vn -0.27853902 -0.92477437 -0.25924578
vn -0.68960258 -0.57859789 -0.43551436
vn -0.78515001 -0.61924169 0.00889955
vn -0.72965832 -0.67696901 -0.09649716
vn 0.85391632 0.52000087 -0.02064002
vn 0.85154261 0.52350108 0.02866708
vn -0.92678398 -0.37284713 0.04534833
vn -0.76594373 -0.50536973 -0.39740614
vn 0.97791438 0.20890160 0.00660268
vn -0.93490243 -0.34431843 0.08603642
vn -0.91213217 -0.40654547 -0.05230386
vn -0.86249455 -0.50333983 0.05246106
vn -0.90210533 -0.42859637 -0.05011105
vn -0.88175293 -0.40095872 -0.24848314
vn -0.96322636 -0.24593088 0.10822658
vn -0.88264104 0.39226026 0.25899166
vn -0.93463595 0.17606675 0.30895977
vn -0.31637927 0.92617236 -0.20520459
vn -0.99328747 -0.11245944 0.02707149
vn -0.96643280 -0.15466273 0.20515138
vn -0.94506112 -0.32688348 -0.00258406
vn -0.99187906 -0.11736137 0.04901273
vn 0.74608014 0.66312327 -0.06026567
vn -0.91703379 -0.27522217 -0.28862048
vn 0.93829253 0.34155111 -0.05431363
vn -0.99297369 0.05836469 0.10294079
vn -0.91136658 -0.13307192 -0.38949046
vn 0.84560534 0.52709555 -0.08439134
vn -0.97622241 -0.04765759 0.21146763
vn -0.97150902 0.22188322 0.08329505
vn 0.44650164 0.89461910 -0.01711585
vn 0.70357122 0.63131195 -0.32624033
vn 0.75345213 0.53179681 -0.38665494
vn 0.82202944 0.56920222 -0.01662656
vn 0.82312376 0.55631985 -0.11391002
vn 0.73447785 0.64808978 -0.20130058
f 18//18 1//1 4//4
f 5//5 18//18 4//4
f 18//18 5//5 38//38
f 19//19 10//10 17//17
f 17//17 10//10 1//1
f 17//17 1//1 18//18
f 34//34 7//7 16//16
f 6//6 34//34 42//42
f 3//3 10//10 13//13
f 13//13 10//10 19//19
f 21//21 19//19 36//36
f 15//15 21//21 36//36
f 11//11 31//31 36//36
f 36//36 31//31 28//28
f 11//11 32//32 30//30
f 11//11 30//30 31//31
f 47//47 46//46 32//32
f 29//29 23//23 44//44
f 12//12 20//20 25//25
f 29//29 20//20 12//12
f 43//43 23//23 35//35
f 24//24 43//43 35//35
f 27//27 40//40 26//26
f 40//40 27//27 35//35
f 35//35 27//27 24//24
f 40//40 45//45 26//26
f 2//2 39//39 14//14
f 39//39 2//2 45//45
f 37//37 9//9 14//14
f 37//37 7//7 9//9
f 2//2 14//14 9//9
f 39//39 45//45 40//40
f 23//23 43//43 44//44
f 47//47 32//32 11//11
f 47//47 22//22 46//46
f 15//15 36//36 28//28
f 21//21 13//13 19//19
f 37//37 16//16 7//7
f 6//6 42//42 41//41
f 33//33 6//6 41//41
f 33//33 8//8 6//6
f 33//33 38//38 8//8
f 34//34 6//6 7//7
f 8//8 38//38 5//5
f 48//48 49//49 50//50
f 51//51 49//49 48//48
f 141//141 135//135 38//38
f 38//38 135//135 176//176
f 135//135 141//141 142//142
f 176//176 109//109 18//18
f 38//38 176//176 18//18
f 109//109 119//119 19//19
f 109//109 17//17 18//18
f 177//177 36//36 19//19
f 119//119 177//177 19//19
f 177//177 112//112 116//116
f 182//182 110//110 184//184
f 116//116 112//112 182//182
f 112//112 110//110 182//182
f 185//185 138//138 187//187
f 187//187 140//140 188//188
f 188//188 140//140 189//189
f 121//121 183//183 139//139
f 121//121 189//189 192//192
f 192//192 183//183 121//121
f 139//139 123//123 190//190
f 191//191 125//125 123//123
f 125//125 124//124 190//190
f 190//190 124//124 127//127
f 127//127 124//124 111//111
f 137//137 111//111 124//124
f 108//108 175//175 179//179
f 114//114 108//108 179//179
f 175//175 108//108 117//117
f 113//113 117//117 174//174
f 174//174 117//117 134//134
f 132//132 136//136 126//126
f 132//132 126//126 107//107
f 107//107 155//155 131//131
f 107//107 126//126 155//155
f 131//131 129//129 130//130
f 129//129 120//120 128//128
f 120//120 129//129 155//155
f 155//155 129//129 131//131
f 174//174 134//134 40//40
f 40//40 134//134 172//172
f 40//40 172//172 39//39
f 172//172 122//122 39//39
f 133//133 37//37 14//14
f 37//37 133//133 118//118
f 133//133 14//14 122//122
f 122//122 14//14 39//39
f 175//175 117//117 113//113
f 136//136 114//114 137//137
f 114//114 136//136 132//132
f 137//137 114//114 179//179
f 137//137 179//179 111//111
f 123//123 125//125 190//190
f 139//139 186//186 123//123
f 139//139 183//183 186//186
f 138//138 140//140 187//187
f 188//188 189//189 121//121
f 184//184 138//138 185//185
f 184//184 110//110 138//138
f 36//36 177//177 116//116
f 37//37 118//118 115//115
f 17//17 109//109 19//19
f 53//53 55//55 149//149
f 181//181 55//55 54//54
f 101//101 1//1 96//96
f 5//5 4//4 99//99
f 95//95 5//5 99//99
f 95//95 8//8 5//5
f 146//146 7//7 145//145
f 145//145 7//7 6//6
f 57//57 54//54 53//53
f 76//76 10//10 159//159
f 10//10 97//97 96//96
f 97//97 10//10 156//156
f 96//96 1//1 10//10
f 99//99 4//4 98//98
f 63//63 6//6 8//8
f 88//88 93//93 58//58
f 156//156 10//10 76//76
f 58//58 106//106 100//100
f 100//100 106//106 60//60
f 146//146 105//105 7//7
f 106//106 58//58 93//93
f 159//159 10//10 3//3
f 168//168 151//151 167//167
f 151//151 168//168 65//65
f 171//171 65//65 168//168
f 154//154 161//161 94//94
f 161//161 154//154 173//173
f 92//92 178//178 163//163
f 144//144 91//91 169//169
f 178//178 169//169 91//91
f 144//144 158//158 89//89
f 144//144 89//89 66//66
f 144//144 66//66 90//90
f 144//144 90//90 91//91
f 158//158 166//166 89//89
f 166//166 59//59 89//89
f 59//59 70//70 89//89
f 70//70 64//64 89//89
f 64//64 67//67 89//89
f 83//83 61//61 89//89
f 89//89 78//78 102//102
f 89//89 67//67 83//83
f 62//62 83//83 143//143
f 143//143 77//77 62//62
f 78//78 89//89 61//61
f 78//78 165//165 79//79
f 78//78 79//79 75//75
f 79//79 74//74 75//75
f 69//69 80//80 82//82
f 80//80 69//69 85//85
f 85//85 74//74 79//79
f 62//62 73//73 56//56
f 73//73 157//157 56//56
f 160//160 52//52 80//80
f 80//80 52//52 82//82
f 82//82 52//52 81//81
f 180//180 81//81 52//52
f 180//180 86//86 81//81
f 56//56 157//157 84//84
f 68//68 84//84 45//45
f 71//71 68//68 2//2
f 72//72 7//7 105//105
f 7//7 72//72 9//9
f 152//152 9//9 72//72
f 164//164 9//9 152//152
f 71//71 9//9 164//164
f 71//71 2//2 9//9
f 68//68 45//45 2//2
f 45//45 84//84 157//157
f 80//80 85//85 79//79
f 69//69 150//150 85//85
f 104//104 73//73 62//62
f 62//62 77//77 104//104
f 102//102 78//78 75//75
f 74//74 103//103 75//75
f 61//61 83//83 62//62
f 87//87 70//70 59//59
f 169//169 178//178 92//92
f 153//153 163//163 178//178
f 173//173 163//163 153//153
f 163//163 173//173 154//154
f 162//162 65//65 94//94
f 94//94 65//65 171//171
f 162//162 94//94 161//161
f 95//95 99//99 100//100
f 95//95 100//100 60//60
f 148//148 6//6 63//63
f 63//63 8//8 147//147
f 145//145 6//6 148//148
f 93//93 88//88 57//57
f 57//57 88//88 170//170
f 54//54 57//57 170//170
f 147//147 8//8 95//95
f 1//1 101//101 4//4
f 98//98 4//4 101//101
f 53//53 54//54 55//55
f 50//50 51//51 48//48
f 51//51 50//50 49//49
f 149//149 196//196 53//53
f 237//237 276//276 149//149
f 276//276 196//196 149//149
f 241//241 181//181 272//272
f 449//449 263//263 276//276
f 196//196 232//232 53//53
f 241//241 55//55 181//181
f 429//429 272//272 426//426
f 449//449 272//272 288//288
f 449//449 288//288 453//453
f 449//449 237//237 272//272
f 237//237 449//449 276//276
f 369//369 462//462 494//494
f 330//330 462//462 445//445
f 423//423 434//434 413//413
f 483//483 430//430 423//423
f 423//423 430//430 482//482
f 482//482 434//434 423//423
f 330//330 445//445 447//447
f 467//467 494//494 478//478
f 494//494 330//330 471//471
f 350//350 450//450 194//194
f 350//350 194//194 141//141
f 38//38 350//350 141//141
f 176//176 482//482 430//430
f 135//135 482//482 176//176
f 475//475 482//482 135//135
f 475//475 447//447 439//439
f 194//194 450//450 471//471
f 475//475 194//194 471//471
f 500//500 475//475 471//471
f 475//475 500//500 447//447
f 500//500 330//330 447//447
f 450//450 478//478 471//471
f 141//141 475//475 142//142
f 482//482 475//475 439//439
f 475//475 135//135 142//142
f 444//444 450//450 350//350
f 478//478 444//444 467//467
f 467//467 514//514 369//369
f 263//263 449//449 514//514
f 481//481 288//288 429//429
f 308//308 288//288 405//405
f 272//272 429//429 288//288
f 388//388 445//445 462//462
f 427//427 445//445 469//469
f 413//413 505//505 461//461
f 483//483 423//423 413//413
f 466//466 109//109 430//430
f 324//324 98//98 101//101
f 224//224 147//147 95//95
f 238//238 240//240 250//250
f 33//33 364//364 38//38
f 317//317 516//516 444//444
f 317//317 444//444 350//350
f 368//368 263//263 514//514
f 263//263 235//235 276//276
f 263//263 252//252 235//235
f 235//235 252//252 197//197
f 197//197 232//232 235//235
f 53//53 232//232 57//57
f 428//428 426//426 54//54
f 428//428 429//429 426//426
f 170//170 428//428 54//54
f 481//481 428//428 88//88
f 232//232 93//93 57//57
f 445//445 388//388 469//469
f 407//407 413//413 474//474
f 413//413 407//407 505//505
f 505//505 492//492 461//461
f 461//461 492//492 496//496
f 119//119 109//109 466//466
f 502//502 119//119 466//466
f 466//466 483//483 461//461
f 461//461 502//502 466//466
f 299//299 296//296 97//97
f 156//156 299//299 97//97
f 296//296 329//329 101//101
f 98//98 324//324 99//99
f 239//239 99//99 324//324
f 279//279 224//224 262//262
f 273//273 145//145 240//240
f 146//146 145//145 273//273
f 115//115 34//34 16//16
f 148//148 250//250 240//240
f 279//279 147//147 224//224
f 42//42 357//357 41//41
f 406//406 357//357 409//409
f 357//357 339//339 332//332
f 332//332 322//322 357//357
f 322//322 364//364 357//357
f 364//364 322//322 317//317
f 322//322 385//385 317//317
f 467//467 516//516 512//512
f 232//232 276//276 235//235
f 58//58 481//481 88//88
f 391//391 411//411 418//418
f 469//469 418//418 427//427
f 418//418 405//405 391//391
f 469//469 388//388 418//418
f 388//388 405//405 418//418
f 405//405 388//388 308//308
f 418//418 411//411 407//407
f 492//492 505//505 491//491
f 461//461 496//496 365//365
f 156//156 76//76 258//258
f 248//248 296//296 299//299
f 345//345 253//253 248//248
f 345//345 156//156 258//258
f 345//345 258//258 260//260
f 376//376 346//346 520//520
f 520//520 372//372 376//376
f 496//496 361//361 346//346
f 496//496 346//346 351//351
f 292//292 260//260 340//340
f 345//345 260//260 256//256
f 345//345 256//256 253//253
f 239//239 485//485 100//100
f 485//485 58//58 100//100
f 106//106 205//205 60//60
f 197//197 252//252 205//205
f 205//205 252//252 262//262
f 60//60 205//205 95//95
f 264//264 262//262 325//325
f 238//238 279//279 264//264
f 238//238 264//264 282//282
f 277//277 105//105 146//146
f 37//37 115//115 16//16
f 409//409 42//42 34//34
f 42//42 409//409 357//357
f 409//409 383//383 360//360
f 360//360 383//383 397//397
f 393//393 360//360 397//397
f 516//516 385//385 512//512
f 263//263 368//368 269//269
f 263//263 270//270 252//252
f 368//368 512//512 269//269
f 269//269 385//385 519//519
f 322//322 519//519 385//385
f 93//93 197//197 106//106
f 307//307 485//485 391//391
f 411//411 391//391 485//485
f 411//411 479//479 407//407
f 365//365 496//496 351//351
f 365//365 351//351 370//370
f 13//13 159//159 3//3
f 119//119 502//502 370//370
f 370//370 502//502 365//365
f 119//119 370//370 177//177
f 167//167 266//266 265//265
f 168//168 167//167 265//265
f 290//290 336//336 266//266
f 290//290 266//266 275//275
f 266//266 336//336 159//159
f 258//258 159//159 336//336
f 112//112 454//454 465//465
f 171//171 15//15 28//28
f 278//278 271//271 31//31
f 171//171 168//168 15//15
f 448//448 454//454 177//177
f 112//112 177//177 454//454
f 351//351 346//346 510//510
f 448//448 370//370 351//351
f 177//177 370//370 448//448
f 351//351 454//454 448//448
f 510//510 454//454 351//351
f 265//265 15//15 168//168
f 275//275 151//151 65//65
f 384//384 161//161 403//403
f 355//355 403//403 379//379
f 162//162 384//384 387//387
f 340//340 290//290 372//372
f 346//346 436//436 373//373
f 346//346 373//373 511//511
f 507//507 346//346 511//511
f 515//515 510//510 507//507
f 465//465 454//454 468//468
f 454//454 510//510 468//468
f 110//110 112//112 465//465
f 182//182 11//11 116//116
f 271//271 278//278 226//226
f 403//403 161//161 173//173
f 354//354 373//373 355//355
f 354//354 511//511 373//373
f 436//436 355//355 373//373
f 110//110 468//468 480//480
f 465//465 468//468 110//110
f 22//22 541//541 187//187
f 547//547 188//188 121//121
f 139//139 537//537 121//121
f 139//139 544//544 537//537
f 537//537 526//526 547//547
f 22//22 188//188 547//547
f 547//547 517//517 22//22
f 47//47 541//541 22//22
f 47//47 184//184 185//185
f 185//185 187//187 47//47
f 47//47 187//187 541//541
f 182//182 184//184 11//11
f 278//278 31//31 30//30
f 278//278 30//30 536//536
f 455//455 278//278 536//536
f 226//226 291//291 154//154
f 226//226 414//414 291//291
f 163//163 291//291 416//416
f 153//153 403//403 173//173
f 363//363 511//511 354//354
f 436//436 387//387 355//355
f 468//468 515//515 480//480
f 545//545 140//140 480//480
f 545//545 189//189 140//140
f 183//183 192//192 508//508
f 508//508 513//513 183//183
f 530//530 22//22 517//517
f 530//530 533//533 527//527
f 46//46 22//22 527//527
f 522//522 46//46 527//527
f 539//539 536//536 538//538
f 536//536 30//30 538//538
f 536//536 412//412 455//455
f 226//226 455//455 412//412
f 414//414 226//226 412//412
f 414//414 287//287 291//291
f 416//416 523//523 92//92
f 92//92 163//163 416//416
f 289//289 153//153 178//178
f 398//398 289//289 178//178
f 548//548 544//544 139//139
f 550//550 544//544 548//548
f 550//550 540//540 544//544
f 540//540 535//535 524//524
f 540//540 524//524 526//526
f 540//540 526//526 537//537
f 544//544 540//540 537//537
f 526//526 524//524 523//523
f 532//532 526//526 523//523
f 526//526 532//532 517//517
f 530//530 525//525 533//533
f 525//525 522//522 527//527
f 533//533 525//525 527//527
f 522//522 525//525 538//538
f 539//539 538//538 518//518
f 286//286 518//518 543//543
f 543//543 521//521 546//546
f 291//291 287//287 546//546
f 416//416 528//528 532//532
f 416//416 531//531 528//528
f 543//543 525//525 521//521
f 525//525 543//543 538//538
f 521//521 525//525 531//531
f 531//531 416//416 521//521
f 546//546 521//521 416//416
f 416//416 291//291 546//546
f 546//546 414//414 543//543
f 287//287 414//414 546//546
f 286//286 543//543 414//414
f 543//543 518//518 538//538
f 531//531 532//532 528//528
f 530//530 532//532 531//531
f 530//530 531//531 525//525
f 416//416 532//532 523//523
f 513//513 577//577 186//186
f 580//580 581//581 555//555
f 555//555 552//552 580//580
f 123//123 552//552 191//191
f 554//554 550//550 548//548
f 535//535 540//540 534//534
f 534//534 529//529 535//535
f 529//529 524//524 535//535
f 534//534 523//523 529//529
f 424//424 534//534 540//540
f 534//534 424//424 169//169
f 294//294 178//178 91//91
f 580//580 381//381 404//404
f 555//555 191//191 552//552
f 555//555 125//125 191//191
f 554//554 560//560 549//549
f 127//127 554//554 548//548
f 127//127 548//548 190//190
f 559//559 558//558 549//549
f 540//540 550//550 424//424
f 549//549 424//424 550//550
f 424//424 144//144 169//169
f 305//305 294//294 91//91
f 398//398 294//294 441//441
f 305//305 302//302 441//441
f 302//302 399//399 404//404
f 404//404 441//441 302//302
f 420//420 399//399 302//302
f 404//404 399//399 551//551
f 580//580 404//404 551//551
f 570//570 560//560 127//127
f 570//570 127//127 111//111
f 111//111 573//573 570//570
f 573//573 568//568 570//570
f 459//459 568//568 573//573
f 570//570 567//567 560//560
f 560//560 567//567 559//559
f 554//554 127//127 560//560
f 556//556 557//557 559//559
f 392//392 424//424 549//549
f 144//144 392//392 158//158
f 392//392 166//166 158//158
f 417//417 89//89 102//102
f 432//432 417//417 102//102
f 417//417 66//66 89//89
f 90//90 487//487 305//305
f 302//302 305//305 487//487
f 580//580 551//551 581//581
f 124//124 578//578 579//579
f 111//111 472//472 573//573
f 573//573 472//472 459//459
f 568//568 567//567 570//570
f 567//567 553//553 556//556
f 553//553 392//392 558//558
f 553//553 561//561 392//392
f 561//561 489//489 392//392
f 166//166 231//231 59//59
f 231//231 70//70 59//59
f 70//70 87//87 59//59
f 231//231 433//433 64//64
f 489//489 245//245 433//433
f 64//64 433//433 67//67
f 433//433 221//221 67//67
f 221//221 83//83 67//67
f 221//221 143//143 83//83
f 200//200 77//77 143//143
f 143//143 225//225 200//200
f 341//341 315//315 204//204
f 78//78 341//341 371//371
f 103//103 432//432 75//75
f 487//487 415//415 422//422
f 420//420 487//487 422//422
f 440//440 293//293 569//569
f 293//293 551//551 569//569
f 458//458 179//179 175//175
f 459//459 179//179 458//458
f 472//472 179//179 459//459
f 568//568 459//459 576//576
f 568//568 575//575 561//561
f 556//556 553//553 557//557
f 557//557 553//553 558//558
f 565//565 318//318 489//489
f 318//318 245//245 489//489
f 575//575 566//566 565//565
f 561//561 575//575 565//565
f 247//247 433//433 245//245
f 204//204 315//315 342//342
f 443//443 165//165 371//371
f 498//498 209//209 401//401
f 209//209 362//362 401//401
f 362//362 80//80 401//401
f 103//103 74//74 394//394
f 551//551 293//293 581//581
f 581//581 293//293 578//578
f 579//579 295//295 136//136
f 132//132 497//497 114//114
f 579//579 136//136 137//137
f 114//114 470//470 108//108
f 470//470 484//484 477//477
f 477//477 117//117 108//108
f 470//470 477//477 108//108
f 249//249 313//313 261//261
f 261//261 312//312 249//249
f 320//320 313//313 249//249
f 327//327 249//249 318//318
f 327//327 318//318 323//323
f 314//314 328//328 326//326
f 249//249 327//327 320//320
f 29//29 44//44 314//314
f 44//44 261//261 313//313
f 320//320 44//44 313//313
f 320//320 314//314 44//44
f 459//459 458//458 460//460
f 576//576 459//459 460//460
f 564//564 576//576 562//562
f 564//564 562//562 563//563
f 563//563 314//314 572//572
f 564//564 563//563 576//576
f 575//575 576//576 563//563
f 576//576 575//575 568//568
f 566//566 575//575 563//563
f 326//326 572//572 314//314
f 572//572 566//566 563//563
f 563//563 562//562 314//314
f 29//29 314//314 562//562
f 576//576 20//20 562//562
f 562//562 20//20 29//29
f 576//576 29//29 12//12
f 460//460 29//29 576//576
f 25//25 20//20 12//12
f 20//20 576//576 12//12
f 460//460 458//458 29//29
f 29//29 458//458 23//23
f 328//328 565//565 572//572
f 327//327 323//323 328//328
f 225//225 221//221 247//247
f 225//225 206//206 200//200
f 206//206 359//359 200//200
f 353//353 343//343 359//359
f 359//359 73//73 104//104
f 380//380 315//315 321//321
f 204//204 342//342 352//352
f 503//503 218//218 214//214
f 443//443 204//204 498//498
f 443//443 371//371 204//204
f 165//165 443//443 401//401
f 216//216 362//362 209//209
f 456//456 69//69 82//82
f 456//456 251//251 69//69
f 150//150 396//396 85//85
f 79//79 401//401 80//80
f 438//438 396//396 402//402
f 402//402 396//396 495//495
f 103//103 394//394 432//432
f 394//394 396//396 432//432
f 207//207 490//490 497//497
f 175//175 113//113 35//35
f 175//175 35//35 458//458
f 458//458 35//35 23//23
f 259//259 255//255 309//309
f 309//309 312//312 259//259
f 261//261 259//259 312//312
f 259//259 43//43 255//255
f 244//244 255//255 43//43
f 43//43 261//261 44//44
f 261//261 43//43 259//259
f 247//247 309//309 254//254
f 206//206 203//203 202//202
f 215//215 343//343 353//353
f 56//56 341//341 62//62
f 174//174 40//40 35//35
f 113//113 174//174 35//35
f 244//244 243//243 254//254
f 255//255 244//244 254//254
f 236//236 206//206 225//225
f 353//353 202//202 215//215
f 27//27 215//215 242//242
f 228//228 244//244 24//24
f 242//242 24//24 27//27
f 244//244 228//228 243//243
f 229//229 233//233 242//242
f 247//247 254//254 229//229
f 206//206 234//234 203//203
f 234//234 227//227 203//203
f 228//228 242//242 233//233
f 227//227 215//215 203//203
f 215//215 202//202 203//203
f 242//242 215//215 227//227
f 229//229 227//227 234//234
f 242//242 227//227 229//229
f 233//233 243//243 228//228
f 228//228 24//24 242//242
f 234//234 206//206 236//236
f 229//229 234//234 247//247
f 254//254 233//233 229//229
f 254//254 243//243 233//233
f 204//204 352//352 210//210
f 210//210 352//352 367//367
f 352//352 198//198 367//367
f 503//503 208//208 201//201
f 214//214 367//367 503//503
f 230//230 421//421 509//509
f 214//214 209//209 498//498
f 338//338 493//493 216//216
f 362//362 160//160 80//80
f 495//495 504//504 402//402
f 571//571 574//574 440//440
f 337//337 578//578 574//574
f 499//499 198//198 497//497
f 198//198 499//499 503//503
f 503//503 499//499 208//208
f 218//218 503//503 201//201
f 421//421 230//230 285//285
f 473//473 509//509 421//421
f 216//216 509//509 338//338
f 509//509 216//216 214//214
f 160//160 362//362 493//493
f 362//362 216//216 493//493
f 160//160 493//493 52//52
f 81//81 456//456 82//82
f 456//456 504//504 251//251
f 495//495 251//251 504//504
f 473//473 440//440 402//402
f 473//473 571//571 440//440
f 574//574 571//571 337//337
f 295//295 337//337 155//155
f 136//136 295//295 126//126
f 499//499 132//132 107//107
f 208//208 499//499 130//130
f 218//218 201//201 285//285
f 571//571 473//473 446//446
f 421//421 446//446 473//473
f 509//509 473//473 504//504
f 506//506 463//463 464//464
f 463//463 506//506 86//86
f 464//464 81//81 86//86
f 456//456 464//464 504//504
f 456//456 81//81 464//464
f 334//334 180//180 52//52
f 334//334 463//463 180//180
f 506//506 464//464 86//86
f 463//463 338//338 464//464
f 464//464 338//338 504//504
f 217//217 285//285 201//201
f 304//304 128//128 349//349
f 349//349 128//128 120//120
f 131//131 499//499 107//107
f 155//155 126//126 295//295
f 337//337 303//303 155//155
f 419//419 421//421 285//285
f 571//571 446//446 419//419
f 337//337 419//419 303//303
f 419//419 285//285 303//303
f 446//446 421//421 419//419
f 285//285 349//349 303//303
f 571//571 419//419 337//337
f 130//130 499//499 131//131
f 208//208 130//130 129//129
f 195//195 208//208 129//129
f 201//201 208//208 195//195
f 304//304 285//285 217//217
f 285//285 304//304 349//349
f 304//304 217//217 128//128
f 128//128 217//217 129//129
f 155//155 303//303 120//120
f 195//195 217//217 201//201
f 195//195 129//129 217//217
f 349//349 120//120 303//303
f 509//509 504//504 338//338
f 132//132 499//499 497//497
f 473//473 402//402 504//504
f 493//493 334//334 52//52
f 463//463 493//493 338//338
f 334//334 493//493 463//463
f 463//463 86//86 180//180
f 230//230 218//218 285//285
f 337//337 295//295 579//579
f 69//69 251//251 150//150
f 396//396 150//150 495//495
f 495//495 150//150 251//251
f 214//214 216//216 209//209
f 214//214 498//498 210//210
f 367//367 198//198 503//503
f 477//477 457//457 117//117
f 477//477 246//246 457//457
f 452//452 134//134 457//457
f 117//117 457//457 134//134
f 316//316 56//56 84//84
f 321//321 389//389 380//380
f 352//352 342//342 356//356
f 257//257 490//490 356//356
f 490//490 484//484 470//470
f 246//246 477//477 257//257
f 457//457 442//442 452//452
f 316//316 84//84 366//366
f 315//315 316//316 366//366
f 257//257 356//356 380//380
f 356//356 342//342 380//380
f 442//442 457//457 246//246
f 452//452 442//442 172//172
f 134//134 452//452 172//172
f 380//380 389//389 213//213
f 172//172 442//442 212//212
f 358//358 315//315 284//284
f 321//321 315//315 389//389
f 358//358 389//389 315//315
f 380//380 246//246 257//257
f 284//284 68//68 71//71
f 68//68 284//284 366//366
f 284//284 315//315 366//366
f 389//389 358//358 310//310
f 389//389 333//333 213//213
f 284//284 71//71 300//300
f 213//213 333//333 442//442
f 300//300 297//297 284//284
f 297//297 347//347 358//358
f 122//122 274//274 133//133
f 358//358 306//306 310//310
f 212//212 211//211 274//274
f 211//211 488//488 274//274
f 333//333 437//437 488//488
f 164//164 152//152 280//280
f 310//310 437//437 333//333
f 274//274 488//488 199//199
f 274//274 199//199 133//133
f 152//152 268//268 280//280
f 267//267 220//220 219//219
f 306//306 347//347 476//476
f 306//306 476//476 437//437
f 488//488 437//437 476//476
f 377//377 476//476 451//451
f 488//488 476//476 377//377
f 222//222 348//348 298//298
f 377//377 378//378 199//199
f 133//133 199//199 378//378
f 283//283 268//268 72//72
f 105//105 283//283 72//72
f 378//378 390//390 118//118
f 115//115 382//382 425//425
f 382//382 408//408 425//425
f 386//386 408//408 382//382
f 408//408 386//386 301//301
f 425//425 383//383 409//409
f 425//425 408//408 383//383
f 267//267 277//277 319//319
f 193//193 283//283 105//105
f 193//193 277//277 283//283
f 283//283 277//277 268//268
f 431//431 220//220 267//267
f 386//386 331//331 301//301
f 400//400 375//375 301//301
f 375//375 383//383 408//408
f 223//223 397//397 375//375
f 223//223 375//375 400//400
f 223//223 282//282 264//264
f 267//267 319//319 431//431
f 298//298 281//281 390//390
f 281//281 298//298 348//348
f 390//390 378//378 451//451
f 386//386 390//390 331//331
f 301//301 375//375 408//408
f 319//319 282//282 431//431
f 331//331 400//400 301//301
f 281//281 331//331 390//390
f 298//298 390//390 451//451
f 431//431 400//400 331//331
f 331//331 281//281 431//431
f 390//390 386//386 118//118
f 220//220 281//281 348//348
f 431//431 281//281 220//220
f 223//223 431//431 282//282
f 431//431 223//223 400//400
f 397//397 383//383 375//375
f 386//386 382//382 118//118
f 378//378 377//377 451//451
f 267//267 268//268 277//277
f 277//277 273//273 319//319
f 223//223 264//264 397//397
f 395//395 393//393 397//397
f 118//118 382//382 115//115
f 378//378 118//118 133//133
f 72//72 268//268 152//152
f 476//476 222//222 298//298
f 268//268 267//267 219//219
f 298//298 451//451 476//476
f 222//222 220//220 348//348
f 219//219 220//220 222//222
f 268//268 219//219 280//280
f 377//377 199//199 488//488
f 219//219 222//222 280//280
f 310//310 306//306 437//437
f 222//222 476//476 347//347
f 222//222 347//347 280//280
f 300//300 71//71 164//164
f 280//280 300//300 164//164
f 347//347 306//306 358//358
f 333//333 488//488 211//211
f 297//297 300//300 280//280
f 442//442 333//333 211//211
f 297//297 280//280 347//347
f 212//212 274//274 122//122
f 212//212 442//442 211//211
f 389//389 310//310 333//333
f 284//284 297//297 358//358
f 442//442 246//246 213//213
f 246//246 380//380 213//213
f 84//84 68//68 366//366
f 172//172 212//212 122//122
f 257//257 477//477 484//484
f 356//356 207//207 352//352
f 207//207 198//198 352//352
f 356//356 490//490 207//207
f 484//484 490//490 257//257
f 343//343 45//45 157//157
f 45//45 343//343 26//26
f 342//342 315//315 380//380
f 215//215 27//27 26//26
f 215//215 26//26 343//343
f 73//73 343//343 157//157
f 56//56 316//316 341//341
f 359//359 343//343 73//73
f 206//206 202//202 353//353
f 247//247 234//234 236//236
f 254//254 309//309 255//255
f 312//312 309//309 311//311
f 312//312 318//318 249//249
f 245//245 311//311 309//309
f 244//244 43//43 24//24
f 470//470 497//497 490//490
f 198//198 207//207 497//497
f 579//579 578//578 337//337
f 574//574 578//578 440//440
f 569//569 438//438 440//440
f 578//578 293//293 440//440
f 440//440 438//438 402//402
f 438//438 432//432 396//396
f 85//85 396//396 394//394
f 394//394 74//74 85//85
f 214//214 210//210 367//367
f 509//509 214//214 230//230
f 218//218 230//230 214//214
f 315//315 341//341 316//316
f 206//206 353//353 359//359
f 359//359 104//104 77//77
f 200//200 359//359 77//77
f 236//236 225//225 247//247
f 245//245 309//309 247//247
f 312//312 311//311 245//245
f 326//326 328//328 572//572
f 328//328 314//314 320//320
f 320//320 327//327 328//328
f 497//497 470//470 114//114
f 420//420 422//422 438//438
f 415//415 417//417 422//422
f 417//417 415//415 487//487
f 422//422 417//417 432//432
f 422//422 432//432 438//438
f 443//443 498//498 401//401
f 204//204 371//371 341//341
f 75//75 432//432 102//102
f 78//78 371//371 165//165
f 498//498 204//204 210//210
f 225//225 143//143 221//221
f 221//221 433//433 247//247
f 312//312 245//245 318//318
f 328//328 323//323 318//318
f 328//328 318//318 565//565
f 566//566 572//572 565//565
f 565//565 489//489 561//561
f 567//567 561//561 553//553
f 420//420 438//438 569//569
f 79//79 165//165 401//401
f 61//61 341//341 78//78
f 62//62 341//341 61//61
f 166//166 392//392 489//489
f 231//231 166//166 489//489
f 433//433 231//231 489//489
f 231//231 64//64 70//70
f 561//561 567//567 568//568
f 111//111 179//179 472//472
f 579//579 137//137 124//124
f 582//582 581//581 578//578
f 581//581 582//582 555//555
f 399//399 569//569 551//551
f 399//399 420//420 569//569
f 302//302 487//487 420//420
f 417//417 487//487 90//90
f 558//558 392//392 549//549
f 549//549 560//560 559//559
f 557//557 558//558 559//559
f 556//556 559//559 567//567
f 124//124 125//125 582//582
f 582//582 125//125 555//555
f 294//294 305//305 441//441
f 305//305 91//91 90//90
f 66//66 417//417 90//90
f 392//392 144//144 424//424
f 554//554 549//549 550//550
f 578//578 124//124 582//582
f 441//441 404//404 398//398
f 294//294 398//398 178//178
f 524//524 529//529 523//523
f 190//190 548//548 139//139
f 580//580 552//552 577//577
f 552//552 186//186 577//577
f 186//186 552//552 123//123
f 501//501 577//577 513//513
f 381//381 580//580 577//577
f 92//92 523//523 169//169
f 534//534 169//169 523//523
f 289//289 374//374 379//379
f 379//379 374//374 363//363
f 398//398 374//374 289//289
f 363//363 374//374 501//501
f 363//363 501//501 542//542
f 545//545 542//542 508//508
f 486//486 363//363 542//542
f 363//363 486//486 511//511
f 192//192 189//189 545//545
f 542//542 501//501 513//513
f 508//508 542//542 513//513
f 508//508 192//192 545//545
f 501//501 374//374 577//577
f 577//577 374//374 381//381
f 381//381 374//374 398//398
f 398//398 404//404 381//381
f 286//286 414//414 518//518
f 539//539 414//414 412//412
f 539//539 518//518 414//414
f 539//539 412//412 536//536
f 32//32 522//522 538//538
f 32//32 46//46 522//522
f 527//527 22//22 530//530
f 517//517 532//532 530//530
f 186//186 183//183 513//513
f 138//138 480//480 140//140
f 110//110 480//480 138//138
f 545//545 480//480 542//542
f 486//486 542//542 480//480
f 486//486 480//480 515//515
f 515//515 511//511 486//486
f 511//511 515//515 507//507
f 354//354 379//379 363//363
f 379//379 403//403 289//289
f 153//153 289//289 403//403
f 30//30 32//32 538//538
f 47//47 11//11 184//184
f 517//517 547//547 526//526
f 121//121 537//537 547//547
f 188//188 22//22 187//187
f 290//290 387//387 436//436
f 372//372 290//290 436//436
f 387//387 290//290 275//275
f 355//355 387//387 384//384
f 354//354 355//355 379//379
f 154//154 291//291 163//163
f 171//171 271//271 94//94
f 455//455 226//226 278//278
f 468//468 510//510 515//515
f 510//510 346//346 507//507
f 376//376 436//436 346//346
f 376//376 372//372 436//436
f 403//403 355//355 384//384
f 94//94 226//226 154//154
f 384//384 162//162 161//161
f 387//387 275//275 162//162
f 162//162 275//275 65//65
f 271//271 226//226 94//94
f 31//31 271//271 171//171
f 31//31 171//171 28//28
f 36//36 116//116 11//11
f 260//260 258//258 336//336
f 340//340 336//336 290//290
f 275//275 266//266 151//151
f 151//151 266//266 167//167
f 265//265 21//21 15//15
f 265//265 159//159 13//13
f 265//265 13//13 21//21
f 492//492 361//361 496//496
f 520//520 260//260 292//292
f 520//520 256//256 260//260
f 410//410 256//256 520//520
f 361//361 479//479 520//520
f 479//479 410//410 520//520
f 492//492 491//491 361//361
f 491//491 479//479 361//361
f 479//479 435//435 253//253
f 329//329 253//253 435//435
f 411//411 435//435 479//479
f 435//435 239//239 324//324
f 99//99 239//239 100//100
f 197//197 205//205 106//106
f 485//485 307//307 58//58
f 485//485 239//239 435//435
f 485//485 435//435 411//411
f 407//407 479//479 505//505
f 505//505 479//479 491//491
f 329//329 435//435 324//324
f 253//253 410//410 479//479
f 410//410 253//253 256//256
f 481//481 58//58 307//307
f 232//232 197//197 93//93
f 270//270 262//262 252//252
f 339//339 335//335 332//332
f 335//335 519//519 322//322
f 344//344 339//339 357//357
f 339//339 325//325 335//335
f 339//339 393//393 325//325
f 395//395 325//325 393//393
f 393//393 339//339 344//344
f 335//335 269//269 519//519
f 332//332 335//335 322//322
f 270//270 325//325 262//262
f 395//395 264//264 325//325
f 325//325 270//270 269//269
f 269//269 335//335 325//325
f 269//269 512//512 385//385
f 269//269 270//270 263//263
f 406//406 344//344 357//357
f 360//360 393//393 406//406
f 393//393 344//344 406//406
f 115//115 425//425 409//409
f 277//277 193//193 105//105
f 146//146 273//273 277//277
f 273//273 282//282 319//319
f 397//397 264//264 395//395
f 205//205 224//224 95//95
f 248//248 253//253 329//329
f 520//520 292//292 372//372
f 361//361 520//520 346//346
f 340//340 372//372 292//292
f 260//260 336//336 340//340
f 248//248 156//156 345//345
f 248//248 299//299 156//156
f 159//159 265//265 266//266
f 474//474 418//418 407//407
f 405//405 481//481 307//307
f 368//368 514//514 512//512
f 444//444 516//516 467//467
f 514//514 467//467 512//512
f 516//516 317//317 385//385
f 360//360 406//406 409//409
f 148//148 63//63 250//250
f 250//250 63//63 279//279
f 364//364 41//41 357//357
f 41//41 364//364 33//33
f 63//63 147//147 279//279
f 250//250 279//279 238//238
f 148//148 240//240 145//145
f 115//115 409//409 34//34
f 273//273 240//240 238//238
f 273//273 238//238 282//282
f 279//279 262//262 264//264
f 329//329 296//296 248//248
f 97//97 296//296 96//96
f 159//159 258//258 76//76
f 502//502 461//461 365//365
f 453//453 462//462 369//369
f 453//453 388//388 462//462
f 388//388 453//453 308//308
f 405//405 288//288 481//481
f 307//307 391//391 405//405
f 88//88 428//428 170//170
f 224//224 205//205 262//262
f 430//430 109//109 176//176
f 101//101 329//329 324//324
f 96//96 296//296 101//101
f 483//483 413//413 461//461
f 474//474 413//413 427//427
f 427//427 418//418 474//474
f 427//427 434//434 445//445
f 447//447 445//445 434//434
f 308//308 453//453 288//288
f 428//428 481//481 429//429
f 232//232 196//196 276//276
f 350//350 364//364 317//317
f 194//194 475//475 141//141
f 450//450 444//444 478//478
f 494//494 471//471 478//478
f 514//514 453//453 369//369
f 467//467 369//369 494//494
f 500//500 471//471 330//330
f 482//482 439//439 434//434
f 38//38 364//364 350//350
f 466//466 430//430 483//483
f 427//427 413//413 434//434
f 434//434 439//439 447//447
f 330//330 494//494 462//462
f 237//237 241//241 272//272
f 426//426 272//272 181//181
f 54//54 426//426 181//181
f 514//514 449//449 453//453
f 241//241 237//237 55//55
f 55//55 237//237 149//149