# https://github.com/mikedh/trimesh
v -0.00112000 -0.01037600 -0.00923200
v -0.00514200 -0.00782000 -0.00742500
v -0.00800100 -0.02974000 -0.00371200
v -0.00804300 -0.01712100 0.00160100
v -0.00886000 -0.01078500 -0.00133900
v 0.00325100 -0.05584300 0.00863300
v 0.01027300 -0.05702800 -0.00196600
v -0.00128400 -0.05182100 0.00841700
v -0.00294500 -0.05143500 -0.00882400
v 0.00221500 -0.05551100 -0.00934400
v 0.00878500 -0.05524400 0.00497400
v 0.00840100 -0.05498300 -0.00614800
v 0.00584900 -0.02092800 0.00641100
v -0.00786700 -0.04272000 0.00255800
v 0.00385200 -0.01169900 -0.00842000
v 0.00870400 -0.04418200 -0.00510000
v -0.00785600 -0.03075200 0.00270800
v -0.00674300 -0.05489700 -0.00545100
v 0.00709800 -0.03945900 0.00585500
v 0.00304700 -0.02552700 0.00802300
v -0.00614100 -0.05815900 0.00212300
v -0.00281500 -0.05801600 -0.00755700
v -0.00835800 -0.05642100 -0.00021400
v 0.00216100 -0.05217500 0.00492700
v -0.00189000 -0.05743900 0.00706100
v 0.00838100 -0.02466800 0.00335600
v -0.00635400 -0.04131400 -0.00617900
v 0.00691000 -0.02160700 -0.00654700
v -0.00833100 -0.03786400 -0.00198600
v -0.00244000 -0.02554500 -0.00903500
v 0.00073700 -0.03435200 -0.00939000
v -0.00450700 -0.03848100 0.00685500
v 0.00893100 -0.01490300 0.00025000
v -0.00554600 -0.05569500 0.00586800
v 0.00257500 -0.03638800 0.00828600
v 0.00781300 -0.00423700 0.00346300
v 0.00933700 -0.03263500 -0.00035500
v 0.00849300 -0.02127900 -0.00388800
v 0.00970000 -0.04648200 0.00169500
v -0.00218800 -0.05321700 0.00180800
v 0.00100100 -0.05260100 -0.00601600
v 0.00485700 -0.05308400 0.00014800
v 0.00614800 -0.04376600 -0.00831300
v 0.00521400 -0.03255400 -0.00815900
v 0.00638200 -0.05720100 -0.00516200
v 0.00791400 -0.05742200 0.00301400
v 0.00158100 0.00913300 -0.00889800
v -0.00278700 0.00598600 -0.00908800
v 0.00399200 0.02544400 -0.00741900
v 0.00550200 0.00783500 -0.00692200
v 0.00784100 0.00883000 -0.00324900
v -0.00432800 -0.00041900 0.00709500
v -0.00829500 0.00494700 0.00209900
v -0.00629400 -0.00556700 0.00541600
v -0.00253200 -0.02192200 0.00788600
v -0.00060600 -0.01377300 0.00822500
v -0.00512500 -0.02201700 0.00644800
v 0.00088400 0.00233300 0.00801500
v 0.00477200 -0.00869000 0.00718900
v -0.00317300 0.02665100 0.00746100
v -0.00234700 0.01330600 0.00775500
v -0.00234500 0.04176800 0.00750800
v -0.00178300 0.04373200 -0.00916300
v 0.00010300 0.03203700 0.00763300
v -0.00100400 0.02948900 -0.00885500
v 0.00449700 0.05658300 -0.00795300
v 0.00300200 0.04795300 0.00737500
v -0.00716200 0.02683200 -0.00599100
v 0.00642700 0.02393600 -0.00499500
v 0.00656500 0.05373000 0.00358800
v -0.00096600 0.03437800 -0.00810600
v -0.00757500 0.04382700 0.00522600
v 0.00471200 0.03618800 -0.00621000
v 0.00711400 0.03454300 -0.00088900
v -0.00696800 0.00270500 -0.00591300
v -0.00540000 0.03605600 -0.00644400
v 0.00166700 0.06150500 -0.00202600
v -0.00931700 0.05314200 -0.00495700
v -0.01054800 0.05603400 -0.00010900
v -0.00607600 0.05699900 -0.00378900
v -0.00643200 0.00658300 0.00562000
v -0.00658400 0.05641000 0.00136900
v -0.00773200 0.03458200 0.00297200
v -0.00547600 0.03242300 0.00541100
v -0.00313900 0.06206000 -0.00477600
v -0.00847300 0.03575200 -0.00173000
v -0.00901000 0.02075200 -0.00006600
v -0.00724500 0.01740500 0.00522000
v 0.00296400 0.05652700 0.00477600
v -0.00735100 0.05594000 0.00657700
v 0.00140200 0.03550600 0.00673100
v 0.00524000 0.05594400 -0.00468600
v -0.00077200 0.06202500 0.00343300
v 0.00764200 0.05583600 0.00001500
v -0.00011200 0.05540300 0.00800500
v 0.00668900 0.05284900 -0.00502600
v -0.00865500 -0.00169000 -0.00172500
v -0.00575300 0.05527600 -0.00813500
v 0.00611400 0.03313700 0.00359500
v 0.00539500 0.02476900 0.00564900
v 0.00805800 0.01369800 0.00048700
v 0.00364900 0.01202200 0.00727500
vn -0.12286772 0.00487258 -0.99241109
vn -0.66696486 -0.01323645 -0.74497159
vn -0.95321958 0.00532630 -0.30223181
vn -0.94721723 -0.02559039 0.31956948
vn -0.99523921 0.01754878 -0.09586952
vn 0.22133904 -0.46166065 0.85899853
vn 0.77663707 -0.61644829 -0.12971649
vn -0.27287595 -0.05411376 0.96052611
vn -0.39730880 -0.06290800 -0.91552624
vn 0.16260638 -0.40754436 -0.89859154
vn 0.76628488 -0.29697149 0.56975031
vn 0.68189943 -0.30034157 -0.66693936
vn 0.65613404 0.00879187 0.75459315
vn -0.96032430 -0.01747914 0.27833741
vn 0.37380299 0.01390381 -0.92740391
vn 0.89232004 0.04329510 -0.44932225
vn -0.93903402 0.00355862 0.34380582
vn -0.80299301 -0.25267122 -0.53977724
vn 0.73209057 0.04112295 0.67996492
vn 0.30893209 0.01119358 0.95101823
vn -0.18043876 -0.96348152 0.19785152
vn -0.11130960 -0.88553169 -0.45104744
vn -0.90166511 -0.43233348 -0.00936984
vn -0.38706577 -0.60741632 -0.69370419
vn -0.14104097 -0.89616319 0.42071246
vn 0.90496145 0.01857998 0.42508771
vn -0.82259156 -0.03250089 -0.56770310
vn 0.74878276 0.00304830 -0.66280849
vn -0.98461336 -0.08521305 -0.15256232
vn -0.34978671 -0.00486511 -0.93681673
vn 0.06190367 0.00746659 -0.99805420
vn -0.62903813 -0.00362500 0.77736600
vn 0.99832912 0.02821051 0.05042959
vn -0.67212418 -0.30874019 0.67299969
vn 0.22711818 0.01347632 0.97377396
vn 0.88457351 0.03101663 0.46536833
vn 0.99773863 0.01361699 0.06581941
vn 0.93736146 0.01718405 -0.34793419
vn 0.96603168 0.04769110 0.25398495
vn 0.59791810 -0.79223958 -0.12186221
vn 0.04149936 -0.77037801 0.63623543
vn -0.61634992 -0.78088939 -0.10160974
vn 0.53158632 0.02051721 -0.84675559
vn 0.49730531 0.03725332 -0.86677541
vn -0.03376008 -0.98097847 -0.19115830
vn 0.21097245 -0.96607788 0.14894346
vn 0.25063509 0.01510510 -0.96796378
vn -0.30000659 0.00457635 -0.95392615
vn 0.52177273 0.04911674 -0.85166940
vn 0.67135671 0.02497336 -0.74071351
vn 0.94655359 0.03006174 -0.32114263
vn -0.49068273 0.01357296 0.87123259
vn -0.94087997 -0.05176268 0.33476186
vn -0.80700318 -0.00422098 0.59053200
vn -0.30933808 0.00036318 0.95095206
vn -0.08281611 0.01087233 0.99650554
vn -0.68098420 0.01067235 0.73222033
vn 0.03888560 0.00394076 0.99923590
vn 0.53552325 0.02417923 0.84417428
vn -0.36445545 0.06218222 0.92914240
vn -0.25568900 0.00454654 0.96674840
vn -0.16259931 -0.08035898 0.98341441
vn -0.07575338 -0.06939467 -0.99470890
vn 0.02306170 0.17714158 0.98391515
vn -0.02983063 0.09070288 -0.99543112
vn 0.39559898 0.72522777 -0.56351232
vn 0.44543440 -0.00487792 0.89530129
vn -0.75879588 0.03333008 -0.65047515
vn 0.87532489 0.04138359 -0.48176108
vn 0.79570088 0.23353103 0.55885899
vn 0.00419738 0.03518110 -0.99937214
vn -0.73447394 -0.08093554 0.67379334
vn 0.67031483 -0.01104982 -0.74199456
vn 0.99613270 0.01178813 -0.08706711
vn -0.79578385 -0.01666126 -0.60535152
vn -0.62745456 -0.02563023 -0.77823124
vn 0.58606401 0.79351172 -0.16391503
vn -0.83754420 0.18254043 -0.51497447
vn -0.81706884 0.57605961 0.02353381
vn -0.53372577 0.72854895 -0.42936375
vn -0.71864226 -0.04004281 0.69422610
vn -0.33814542 0.91711659 0.21108017
vn -0.91030700 -0.05023551 0.41087414
vn -0.58554022 -0.02201256 0.81034443
vn -0.33451760 0.69928948 -0.63173745
vn -0.97971207 -0.03158986 -0.19790490
vn -0.99977147 0.00971037 0.01904505
vn -0.76226716 0.00503859 0.64724291
vn 0.46005069 0.66777064 0.58518009
vn -0.50016540 0.57210289 0.65002528
vn 0.23657237 -0.00614926 0.97159441
vn 0.64579637 0.72243424 -0.24705427
vn -0.03207757 0.75518110 0.65473088
vn 0.78438606 0.61818915 0.05080044
vn 0.13790676 0.51353013 0.84691708
vn 0.90722833 0.10153979 -0.40819901
vn -0.99300229 -0.04582356 -0.10884237
vn -0.36552561 0.52663620 -0.76749289
vn 0.84185024 0.03703134 0.53843927
vn 0.70703452 0.05278183 0.70520654
vn 0.99220569 0.05367249 0.11245945
vn 0.45502933 0.01395556 0.89036709
f 47//47 15//15 1//1
f 1//1 30//30 2//2
f 3//3 29//29 17//17
f 1//1 2//2 48//48
f 2//2 75//75 48//48
f 47//47 1//1 48//48
f 5//5 2//2 3//3
f 97//97 2//2 5//5
f 17//17 4//4 3//3
f 2//2 27//27 3//3
f 17//17 57//57 4//4
f 97//97 75//75 2//2
f 5//5 3//3 4//4
f 8//8 6//6 35//35
f 22//22 18//18 9//9
f 10//10 9//9 31//31
f 10//10 22//22 9//9
f 6//6 8//8 25//25
f 55//55 32//32 8//8
f 8//8 34//34 25//25
f 11//11 6//6 46//46
f 10//10 31//31 43//43
f 43//43 12//12 10//10
f 23//23 34//34 14//14
f 55//55 8//8 35//35
f 18//18 27//27 9//9
f 27//27 18//18 23//23
f 32//32 14//14 34//34
f 34//34 8//8 32//32
f 43//43 16//16 12//12
f 31//31 30//30 1//1
f 11//11 19//19 6//6
f 31//31 1//1 15//15
f 37//37 38//38 33//33
f 31//31 44//44 43//43
f 12//12 16//16 7//7
f 11//11 46//46 7//7
f 23//23 18//18 22//22
f 21//21 25//25 34//34
f 11//11 7//7 39//39
f 42//42 25//25 24//24
f 6//6 25//25 46//46
f 32//32 57//57 17//17
f 32//32 55//55 57//57
f 19//19 26//26 13//13
f 26//26 19//19 37//37
f 19//19 11//11 39//39
f 19//19 13//13 20//20
f 22//22 10//10 45//45
f 12//12 45//45 10//10
f 41//41 22//22 45//45
f 21//21 40//40 25//25
f 41//41 45//45 42//42
f 25//25 40//40 24//24
f 13//13 26//26 36//36
f 27//27 30//30 9//9
f 31//31 9//9 30//30
f 29//29 3//3 27//27
f 19//19 39//39 37//37
f 14//14 27//27 23//23
f 15//15 44//44 31//31
f 38//38 16//16 43//43
f 38//38 43//43 44//44
f 50//50 28//28 15//15
f 37//37 16//16 38//38
f 7//7 45//45 12//12
f 46//46 45//45 7//7
f 30//30 27//27 2//2
f 50//50 38//38 28//28
f 46//46 42//42 45//45
f 17//17 14//14 32//32
f 21//21 23//23 22//22
f 26//26 37//37 33//33
f 28//28 38//38 44//44
f 23//23 21//21 34//34
f 6//6 19//19 35//35
f 35//35 19//19 20//20
f 26//26 33//33 36//36
f 42//42 46//46 25//25
f 101//101 38//38 51//51
f 101//101 33//33 38//38
f 22//22 40//40 21//21
f 24//24 40//40 41//41
f 39//39 7//7 37//37
f 41//41 42//42 24//24
f 44//44 15//15 28//28
f 41//41 40//40 22//22
f 29//29 27//27 14//14
f 37//37 7//7 16//16
f 17//17 29//29 14//14
f 13//13 36//36 59//59
f 36//36 33//33 101//101
f 47//47 65//65 49//49
f 49//49 50//50 47//47
f 65//65 47//47 48//48
f 49//49 69//69 50//50
f 50//50 15//15 47//47
f 51//51 38//38 50//50
f 69//69 51//51 50//50
f 52//52 61//61 81//81
f 52//52 53//53 54//54
f 81//81 53//53 52//52
f 54//54 97//97 5//5
f 54//54 53//53 97//97
f 4//4 54//54 5//5
f 55//55 56//56 52//52
f 20//20 56//56 35//35
f 54//54 55//55 52//52
f 58//58 52//52 56//56
f 56//56 55//55 35//35
f 54//54 57//57 55//55
f 58//58 61//61 52//52
f 56//56 20//20 58//58
f 54//54 4//4 57//57
f 20//20 13//13 59//59
f 59//59 58//58 20//20
f 73//73 74//74 69//69
f 88//88 81//81 61//61
f 72//72 62//62 90//90
f 78//78 98//98 76//76
f 63//63 76//76 98//98
f 83//83 60//60 84//84
f 60//60 83//83 88//88
f 102//102 100//100 64//64
f 60//60 88//88 61//61
f 64//64 60//60 61//61
f 64//64 61//61 58//58
f 90//90 62//62 95//95
f 73//73 71//71 66//66
f 64//64 84//84 60//60
f 91//91 64//64 100//100
f 63//63 66//66 71//71
f 67//67 99//99 70//70
f 48//48 75//75 68//68
f 99//99 91//91 100//100
f 48//48 68//68 65//65
f 67//67 95//95 62//62
f 62//62 84//84 91//91
f 91//91 84//84 64//64
f 84//84 62//62 72//72
f 67//67 70//70 95//95
f 70//70 99//99 94//94
f 66//66 63//63 98//98
f 68//68 76//76 65//65
f 76//76 63//63 71//71
f 91//91 67//67 62//62
f 91//91 99//99 67//67
f 65//65 71//71 49//49
f 49//49 73//73 69//69
f 72//72 79//79 83//83
f 87//87 86//86 68//68
f 98//98 78//78 80//80
f 79//79 80//80 78//78
f 86//86 87//87 83//83
f 68//68 97//97 87//87
f 53//53 88//88 87//87
f 80//80 79//79 82//82
f 90//90 82//82 79//79
f 85//85 80//80 82//82
f 81//81 88//88 53//53
f 90//90 79//79 72//72
f 93//93 85//85 82//82
f 66//66 96//96 73//73
f 74//74 73//73 96//96
f 83//83 87//87 88//88
f 78//78 76//76 86//86
f 72//72 83//83 84//84
f 93//93 89//89 77//77
f 99//99 74//74 94//94
f 89//89 93//93 82//82
f 79//79 78//78 86//86
f 83//83 79//79 86//86
f 82//82 90//90 89//89
f 80//80 92//92 98//98
f 96//96 66//66 92//92
f 76//76 68//68 86//86
f 85//85 92//92 80//80
f 89//89 70//70 94//94
f 77//77 92//92 85//85
f 95//95 70//70 89//89
f 94//94 74//74 96//96
f 85//85 93//93 77//77
f 65//65 76//76 71//71
f 97//97 53//53 87//87
f 49//49 71//71 73//73
f 97//97 68//68 75//75
f 95//95 89//89 90//90
f 98//98 92//92 66//66
f 96//96 92//92 94//94
f 94//94 92//92 89//89
f 89//89 92//92 77//77
f 101//101 69//69 74//74
f 101//101 99//99 100//100
f 101//101 74//74 99//99
f 58//58 102//102 64//64
f 102//102 58//58 59//59
f 59//59 36//36 102//102
f 51//51 69//69 101//101
f 100//100 102//102 36//36
f 36//36 101//101 100//100

