# https://github.com/mikedh/trimesh
v -0.05228320 -0.03814149 -0.02616092
v -0.05619179 -0.03528109 -0.02322835
v -0.05610070 0.03952374 -0.01316100
v -0.05000722 -0.02046754 -0.05442291
v -0.05073401 0.02583881 -0.05342421
v -0.06059166 -0.02082772 0.00419472
v -0.06171422 0.01425111 0.00962824
v -0.05520946 -0.03577679 -0.02204357
v -0.04932380 0.04094497 -0.03944256
v -0.05554053 0.04030555 -0.01886316
v -0.06274799 -0.00891271 0.00842075
v -0.05042604 0.00250812 -0.06023036
v -0.05074488 0.01676160 -0.05819216
v -0.05355934 0.04027218 -0.03139082
v -0.06061693 -0.02602476 -0.00167006
v -0.05292863 -0.03170278 -0.03897350
v -0.05173591 -0.01917715 -0.05427824
v -0.06098734 0.02646183 0.00304198
v -0.06281678 0.00810444 0.00997026
v -0.05176641 0.03292637 -0.04674884
v 0.05232635 0.01642892 -0.04103624
v 0.04721538 0.04426301 -0.01074704
v 0.04160539 0.02351764 0.02249936
v 0.04105553 -0.01758078 0.02575791
v 0.04737052 -0.03540603 -0.01166660
v 0.05204398 -0.01671380 -0.03936287
v -0.03964559 -0.00587991 0.03069429
v -0.04063597 -0.01257130 -0.06381048
v -0.04623521 -0.01170770 0.03210612
v -0.01844011 -0.01257324 -0.05779923
v -0.05291698 -0.01839408 0.04358217
v 0.02506126 -0.03084197 -0.03165979
v -0.01548488 -0.01574773 -0.05566500
v 0.00343692 -0.03169382 0.00649210
v -0.05534610 0.00128036 0.04015241
v -0.04351312 -0.01832952 -0.06100274
v -0.05158733 -0.01589890 0.03523140
v -0.03262775 -0.01921318 0.05136683
v 0.02175569 -0.03319340 -0.02878226
v -0.04059839 0.03840655 -0.00261672
v -0.01037572 -0.02577082 0.01155335
v -0.00467840 -0.03004357 0.00760749
v -0.05367296 -0.01485573 0.05003599
v -0.00980321 -0.01390989 -0.05519204
v -0.03647717 -0.01692885 0.05515423
v -0.00114769 -0.02282571 0.01616507
v -0.05691096 -0.01568488 0.04114879
v -0.00211359 -0.01054280 -0.05464891
v -0.04167396 -0.01733017 0.05251465
v -0.04052293 0.00258868 0.05145019
v 0.01879931 -0.03528972 -0.02328098
v -0.04948912 -0.01452979 0.05258816
v -0.02015446 -0.01919237 0.05779703
v 0.01330157 -0.03505377 -0.02614416
v -0.00963262 -0.01983655 0.01674569
v -0.00813633 -0.02003997 0.05840151
v -0.00057931 -0.02014950 0.05974497
v -0.02625925 -0.01518523 0.06102900
v -0.05685464 -0.01602414 0.04588841
v 0.00437983 -0.02696718 0.01333431
v 0.00908464 -0.01980105 -0.04734904
v 0.01316865 -0.01603168 0.07619643
v 0.05414056 -0.00889467 0.02326295
v -0.03985493 -0.02639632 -0.05454850
v -0.01370608 -0.00608791 0.06822881
v 0.01470609 -0.03768178 -0.01484686
v -0.04552030 -0.02548836 -0.05523247
v 0.01610345 -0.02370248 0.01898940
v 0.00705807 -0.03762305 -0.01573005
v 0.01918393 -0.01897537 -0.04526142
v -0.00125829 -0.01637153 0.02065013
v 0.00994626 -0.01993342 0.02081326
v 0.00654129 -0.01235237 0.02411339
v -0.03240583 -0.00340824 0.06045246
v -0.05601929 -0.01271820 0.05042578
v 0.00539575 -0.03597039 -0.00257272
v -0.00828709 -0.00004002 -0.05847974
v 0.04048157 -0.02275390 0.02267768
v 0.04740705 -0.01990025 0.02346378
v 0.01623839 -0.01072636 0.02674797
v -0.01482531 -0.01690395 0.06396763
v -0.05572883 0.03307477 0.00273900
v 0.01879391 -0.00571693 -0.05115106
v -0.01281956 -0.03374247 -0.00052561
v 0.02474838 0.00028660 -0.05037464
v 0.01010646 -0.00503959 0.02689635
v -0.00207116 -0.01855607 0.06682296
v 0.03026829 -0.00305834 -0.04922225
v -0.00022788 -0.01351140 0.07256393
v -0.04801077 -0.02537721 0.00563102
v 0.02182260 0.00408917 0.03031678
v 0.02266453 -0.02585144 -0.03875447
v -0.03997851 0.02631298 0.01073646
v -0.00815550 -0.01374775 0.06935944
v -0.04116220 0.00096092 -0.06666552
v -0.03523823 -0.03167244 -0.04598199
v -0.04339316 -0.03174202 -0.04895150
v -0.04417752 -0.00661679 -0.06444790
v 0.01594640 -0.02904655 -0.03712538
v 0.05660361 -0.01948202 -0.03535519
v -0.03039892 -0.01721966 0.05716994
v -0.01834881 -0.02814676 0.00736754
v 0.05164848 -0.02001331 -0.03710702
v -0.00724331 -0.00885555 0.07093522
v -0.03595392 -0.01104659 0.05949279
v -0.04589251 0.00800875 -0.06421936
v -0.04853714 -0.00142927 -0.06206177
v -0.04658851 -0.03170170 -0.04805431
v 0.05051696 -0.02504532 -0.03265368
v 0.01272128 -0.03211795 -0.03210433
v -0.04810695 0.00026825 0.03404007
v -0.03312139 -0.02076281 0.01182408
v -0.05681784 -0.00410330 0.03574385
v -0.03135026 -0.01592314 -0.05954704
v -0.04583799 -0.01040602 -0.06285299
v -0.02776679 -0.01148718 0.06261901
v -0.03015600 -0.01234067 0.03849862
v -0.03628331 -0.00997293 -0.06363138
v -0.03349104 -0.00009315 -0.06496056
v 0.00607657 -0.03325795 -0.03266860
v -0.02270811 -0.01846351 -0.05590668
v -0.02945394 -0.02544047 -0.05236248
v 0.03536712 -0.01447079 0.02848425
v 0.04196078 -0.00909440 0.03015908
v 0.00989020 -0.01265272 0.07705383
v -0.04975653 -0.01289945 -0.05829704
v -0.05148889 0.00310699 0.04582155
v 0.00790939 -0.03539349 -0.02750727
v -0.04520028 0.01787960 0.01467076
v -0.02622387 -0.01344916 0.01711724
v -0.03420941 -0.00237047 0.03645694
v -0.02936946 -0.01834998 0.04403671
v -0.02831166 -0.00313108 0.03808047
v 0.04930302 -0.03311011 0.00569819
v -0.03284954 0.00628357 0.01939941
v -0.01374276 -0.01564019 0.04629189
v -0.04633617 0.00295811 0.04813574
v -0.00728747 -0.01780649 0.05113582
v -0.01586760 -0.01905454 0.05112412
v -0.01097542 -0.01953703 0.05452639
v 0.00140518 -0.01826847 0.05517285
v -0.01166803 -0.03751607 -0.01300829
v -0.05002223 -0.03365667 -0.04158841
v -0.00204529 -0.03701759 -0.00866570
v -0.02101860 -0.00140890 0.04268296
v -0.02932373 0.00088850 0.05806651
v -0.02679286 -0.00314500 0.06251002
v -0.01156100 -0.02678325 -0.04655016
v -0.01406358 -0.02165695 -0.05163943
v -0.04366072 -0.02283323 -0.05818527
v -0.01931895 -0.03447929 -0.00289299
v -0.04661785 0.03216308 0.00492014
v -0.01048400 -0.00961021 0.04482339
v -0.03569770 -0.02048164 -0.05819127
v -0.05211974 0.02503414 0.01023230
v -0.00771755 -0.03334948 0.00146127
v -0.04476935 -0.03514369 -0.04284244
v -0.03853552 -0.03487237 -0.04094915
v 0.01699737 -0.00805680 0.05573458
v -0.00009565 -0.01941676 -0.04962159
v -0.02186281 -0.02750192 -0.04820160
v -0.04837217 -0.02731606 -0.05127781
v -0.00146981 -0.02715341 -0.04362562
v 0.01484402 -0.00627418 0.06002209
v 0.04868739 -0.03168486 -0.02496248
v -0.02871194 0.01303649 0.01892030
v 0.00411357 -0.02403920 -0.04479008
v 0.00143098 0.00194354 0.05625324
v 0.04524876 -0.02804467 -0.03207983
v -0.00767475 -0.03014141 -0.04118686
v 0.01418359 -0.02374831 -0.04318986
v -0.02079236 -0.02036787 0.01421669
v 0.05212662 -0.01479198 0.02379212
v 0.03841803 -0.01898265 0.02582881
v -0.01437673 -0.03369000 -0.03657736
v 0.01265063 0.00187685 0.02835331
v 0.04990793 -0.01224748 0.02639804
v 0.04422616 -0.01347426 0.02794846
v 0.02055150 -0.00433560 0.02933565
v -0.02174966 -0.03504006 -0.03575573
v 0.00801876 -0.02851651 -0.03894703
v 0.01214489 -0.01856814 0.05926688
v 0.00343204 -0.02016449 0.06137799
v -0.02028954 -0.03736869 -0.02750001
v 0.03987850 0.00141086 0.03205942
v 0.00253372 -0.03162525 -0.03666115
v -0.01529075 -0.01136526 0.02010624
v 0.01791922 -0.00815990 0.05934342
v 0.01770322 -0.00822699 0.05853334
v -0.03722426 -0.00904797 0.03444677
v -0.01070619 0.03345175 0.00915425
v 0.00462362 0.00263506 -0.05501633
v -0.00319291 -0.03339629 -0.03458081
v 0.01851495 -0.00758268 0.05934620
v -0.02055373 0.00652468 0.02151721
v -0.00021932 0.03148867 0.01363736
v 0.03469209 0.00689657 -0.04812947
v -0.04593810 -0.00064224 0.05378471
v -0.03709855 -0.01594861 0.03792319
v 0.03927753 0.01241606 -0.04619370
v 0.03801610 0.00824734 -0.04720791
v -0.03839703 -0.00232501 0.05793916
v 0.03249048 0.01472405 -0.04696794
v 0.03532277 0.01842722 -0.04473923
v 0.01295370 -0.00019207 -0.05328090
v 0.04498807 0.00657697 -0.04623284
v 0.00587605 -0.01510772 0.07428383
v -0.01952481 -0.03227694 -0.04055241
v -0.05897397 -0.01162410 0.03970127
v -0.02997576 -0.03416855 -0.04010597
v 0.00528299 -0.02005929 0.06540985
v -0.05838462 0.02761659 0.00602948
v -0.06100869 0.01944206 0.00840803
v 0.05199562 0.00654113 -0.04427181
v 0.01655766 0.00064918 -0.05253839
v 0.04838038 0.01152826 -0.04461413
v 0.05622009 -0.02948370 0.00431805
v 0.04911080 0.01841586 -0.04209897
v -0.02910817 -0.03632750 -0.03423839
v -0.05736420 0.02088356 0.01163873
v -0.01547166 0.02724170 0.01430227
v -0.05804436 -0.00131877 0.04439119
v 0.00083456 0.00257917 0.06594061
v 0.00217379 -0.01792194 0.06950465
v 0.04121188 0.02431825 -0.04074219
v -0.00988819 0.02165469 0.01907650
v 0.03627082 0.02416475 -0.04151851
v -0.04013979 -0.03775441 -0.03288709
v -0.06093526 0.00847731 0.01260532
v -0.00289513 0.00322165 0.05997068
v 0.01011525 -0.01574433 0.05507152
v 0.01561269 -0.01944364 0.07199938
v 0.01985980 -0.01728155 0.07362161
v 0.06208748 0.00751758 0.00977347
v -0.03249107 -0.03815474 -0.02583946
v 0.05397378 0.02759169 -0.03427751
v 0.04939133 0.02491548 -0.03814360
v -0.04796975 -0.03703600 -0.03779657
v 0.05828638 0.02117562 -0.03661374
v -0.01389716 0.00074816 0.06408364
v -0.00906445 0.00225820 0.06314327
v 0.00879385 0.00012460 0.07342630
v -0.05369574 0.00030664 0.05010149
v -0.02595628 -0.03783196 -0.01634923
v 0.01839033 -0.01407057 0.07710964
v 0.00148346 -0.00061905 0.07174405
v -0.03597611 -0.03748940 -0.01497624
v 0.01318236 -0.01189535 0.07824180
v 0.00285167 0.02378935 0.02025225
v 0.00238825 -0.00736223 0.07455733
v -0.03893065 -0.00507659 -0.06581500
v -0.03378457 0.01852710 -0.06209439
v 0.01557225 0.03911152 -0.02836125
v -0.04727156 -0.03846450 -0.01847192
v -0.03977655 0.00970780 -0.06625664
v -0.04417207 -0.03581980 -0.00980305
v -0.03410639 0.01048746 -0.06460388
v -0.02230150 0.02014842 -0.05828680
v -0.04800916 -0.03856702 -0.03187401
v 0.05161221 -0.02802207 0.01333435
v -0.03978626 -0.03474148 -0.00688752
v 0.01162933 0.02590628 0.02091370
v 0.03406733 0.03750116 -0.02681402
v -0.00597289 0.01443047 -0.05631352
v -0.00267998 -0.00429570 -0.05663563
v -0.00232977 0.00803527 -0.05662985
v -0.02241537 0.02899102 -0.05249273
v 0.00201644 0.02567037 -0.04825271
v 0.03588608 0.04194333 -0.01084115
v -0.03575552 -0.03292594 -0.00257582
v 0.02803075 0.01024835 0.03054141
v -0.01872161 -0.00734119 0.02084245
v 0.01151040 0.01940622 0.02433349
v -0.04448768 -0.03155641 -0.00151947
v -0.03845243 -0.02764885 0.00456097
v -0.04718832 0.03843012 -0.04640427
v -0.01343576 0.02353691 -0.05422840
v -0.02743651 -0.02667652 0.00765017
v -0.03354342 0.03671742 -0.04714763
v 0.04184918 0.03571057 -0.02928900
v -0.01109722 0.03554222 -0.04246292
v 0.03746645 0.00131085 -0.04774215
v -0.00001667 0.01934167 -0.05228898
v -0.00927213 -0.01787142 0.06520006
v 0.03164956 -0.01047539 -0.04678747
v -0.00254989 0.03723924 -0.03690378
v 0.02629674 -0.01341762 -0.04714339
v -0.01904985 0.04074474 -0.03478150
v 0.00054096 0.03802627 -0.03424270
v -0.00838388 -0.00885241 0.02257946
v 0.04656410 0.03700837 -0.02549318
v -0.04553933 -0.03899485 -0.02497340
v 0.06658103 0.01096561 -0.03013484
v 0.03961434 -0.00567533 -0.04643250
v 0.01450726 0.01490618 -0.05107294
v 0.03626111 -0.01389593 -0.04457495
v -0.04170941 0.03589198 -0.05081881
v -0.01195847 0.04257816 -0.02693455
v -0.01867463 -0.01376710 0.06522042
v -0.04178465 -0.00544183 0.03261586
v -0.05297070 -0.01318496 0.01319945
v 0.04211005 0.03978275 -0.02060040
v 0.06382459 0.02613916 -0.00613061
v 0.04057275 -0.01031171 -0.04481971
v -0.04329974 -0.01708834 0.01254297
v 0.02360048 0.04237141 -0.00803130
v 0.02821197 0.01375571 -0.04867753
v -0.02317839 0.04352908 -0.02507818
v 0.04817585 -0.01219664 -0.04285762
v -0.06188433 0.00015887 0.01187554
v 0.00929529 0.02439671 -0.04806626
v 0.01503017 0.02246751 -0.04740979
v 0.03468997 0.04187321 -0.00451998
v 0.04493176 0.04058819 -0.01736754
v 0.04452759 -0.03350406 -0.02138993
v -0.05550979 -0.00527016 0.01517076
v 0.04395543 -0.01493336 -0.04192992
v -0.02358530 0.04349260 -0.01581207
v 0.05257159 -0.00690654 -0.04332509
v 0.00731871 0.03283358 -0.04115070
v 0.04976356 0.03912971 -0.01863493
v -0.01196030 0.04270245 -0.01188812
v 0.06726934 0.00213045 -0.00921070
v 0.06799339 0.00112902 -0.01900881
v 0.01791681 0.02703406 -0.04349301
v -0.03298400 0.04230164 -0.01102418
v -0.02043222 0.04048785 -0.00450562
v -0.02597002 0.04184250 -0.00924374
v -0.03133337 0.03868373 -0.00183201
v -0.05022052 0.00436893 -0.06075439
v -0.05248788 -0.03785895 -0.01818443
v -0.03437230 0.03281966 0.00583933
v 0.04797105 -0.03511621 -0.01478228
v -0.03782180 -0.00254425 0.01837475
v 0.02132974 0.01436031 0.02885334
v 0.00676819 -0.00810599 -0.05335713
v 0.01738309 0.00013109 0.07518316
v 0.05644621 0.03511091 0.00478044
v 0.02077560 -0.01442993 -0.04742935
v 0.00886885 -0.01975004 0.06855198
v 0.03085825 0.04065247 0.00184960
v 0.00143774 0.00462868 0.02611876
v 0.02536370 0.03386836 -0.03563647
v 0.03006914 -0.00727308 0.03037955
v -0.05419100 -0.02075740 0.00878192
v -0.05670376 -0.03423290 -0.01379351
v 0.03493819 0.02881469 -0.03812362
v -0.02909212 -0.00920783 0.03706930
v -0.04830004 0.02344942 -0.05765155
v 0.04672314 -0.00736711 0.02930864
v -0.04079229 0.03147291 -0.05570253
v -0.04482866 0.03144048 -0.05506213
v 0.04586136 -0.00036282 -0.04622553
v 0.02695685 0.02918887 -0.04031359
v 0.02547240 -0.01199211 0.06586079
v 0.02212461 -0.00308351 0.07271433
v -0.05719063 -0.02344099 0.00572636
v -0.01984950 -0.00631920 0.02320769
v 0.03357508 0.03400893 -0.03264183
v -0.05007611 -0.03701275 -0.01274543
v 0.05471869 0.00252306 -0.04348758
v -0.00900443 -0.03690987 -0.02663945
v 0.00009942 -0.03734769 -0.02212250
v 0.03953318 0.04083074 0.00113435
v 0.06009638 -0.00357179 -0.04051416
v 0.00537560 0.03753236 0.00552514
v 0.05739100 0.02993078 0.00939890
v 0.06353885 0.01422870 0.00445657
v -0.04763801 0.03387182 -0.05100675
v 0.06355196 -0.00033188 -0.03763579
v -0.01669137 -0.03777802 -0.01947998
v 0.06036640 -0.01110378 -0.03791223
v 0.05153830 0.03609814 0.00931180
v 0.01276551 0.00701718 -0.05345883
v 0.01018791 0.01439944 -0.05255634
v 0.05341503 -0.01461791 -0.03982040
v 0.03383998 0.00232133 0.03220546
v -0.04545355 0.04349980 -0.03673525
v -0.02913584 -0.03418545 -0.00405001
v 0.06707649 -0.00044841 -0.03058652
v 0.04080407 -0.03587294 -0.01500271
v 0.02290655 -0.01089773 0.07353873
v -0.04991433 0.04223444 -0.03608143
v -0.02642696 -0.00563705 0.02054762
v -0.05874892 -0.01086138 0.01241262
v -0.02776762 -0.00058615 0.02073288
v -0.03630463 0.04255541 -0.03496886
v -0.05883866 -0.00223307 0.01465286
v 0.01237416 0.03404927 0.01245718
v 0.05995267 0.02320220 0.01044696
v 0.00686714 0.01860641 -0.05151641
v 0.06071770 -0.01567891 -0.03431048
v 0.06389489 0.00577515 -0.03636446
v 0.06220160 -0.02015160 -0.02881143
v 0.05767529 -0.02397661 -0.03030365
v 0.06539290 -0.00810840 -0.03066685
v -0.02631417 -0.00708555 0.02755015
v -0.05675229 0.01385999 0.01444730
v -0.00493003 -0.00534600 0.04739889
v 0.06325743 -0.01454302 -0.03153749
v -0.02206728 -0.00617025 0.04007641
v -0.05910232 -0.01151985 0.04729018
v 0.03766631 -0.02614108 -0.03490818
v 0.04815495 0.03031944 -0.03416990
v -0.05648515 0.00524680 0.01617973
v 0.03619899 0.03753114 0.01027223
v -0.02916667 0.00261109 0.04429170
v 0.02975010 0.03856028 0.00770161
v -0.04185531 -0.00586784 0.01683531
v -0.01778577 0.00301062 0.05011682
v 0.03385418 -0.03697318 -0.00962203
v -0.01628644 -0.00405609 0.04350114
v 0.04402786 -0.02123082 -0.03838932
v 0.04399107 0.00214573 0.03144044
v -0.04908262 0.00612428 0.01707784
v 0.06601446 -0.01087603 -0.02587476
v 0.03584517 -0.02133231 -0.03986747
v -0.02990246 -0.00211344 0.02780050
v -0.05917089 -0.00413277 0.04786409
v 0.05627458 -0.00304346 0.02122548
v 0.05868564 0.02953957 -0.02845350
v -0.02477587 0.00276135 -0.06262380
v -0.03550437 -0.00212923 0.03041966
v -0.00205321 -0.00782261 0.04784646
v 0.04055511 -0.03638077 -0.00322250
v 0.00118198 -0.00608751 0.04945129
v 0.05047275 -0.02302357 0.01928546
v -0.01031677 -0.00411433 0.04567917
v -0.03232838 -0.00010958 0.01987718
v 0.00717196 0.02975968 0.01676948
v 0.03883394 -0.03090214 -0.02836818
v 0.03133743 -0.03440590 -0.02305458
v 0.02628310 -0.03718339 -0.00569204
v -0.01817550 0.01559162 -0.05887077
v 0.00401943 -0.00431541 0.05128888
v 0.03999577 -0.03375519 -0.02207212
v 0.02962532 -0.03617395 -0.01788199
v 0.03573799 -0.03514366 -0.02093760
v 0.05089833 0.03372127 0.01369789
v -0.03362414 -0.00911985 0.03553391
v 0.06532782 0.02063690 -0.02604068
v -0.05097106 0.04418849 -0.02763915
v -0.01244399 0.01398736 -0.05810304
v -0.00704060 0.00278043 0.05306519
v 0.01903928 0.03391393 0.01484262
v 0.02080220 0.02873233 0.01992729
v -0.05431612 -0.03506308 -0.00910490
v 0.03400285 -0.03628813 -0.00127508
v 0.05886439 -0.02678663 -0.02481904
v 0.05229060 0.02966489 0.01671487
v -0.02807576 0.02336214 -0.05810883
v -0.04406023 -0.00434552 0.05619044
v 0.03164390 -0.03498062 0.00469170
v -0.02289152 0.03799157 -0.04173470
v -0.00683658 0.01997194 -0.05435817
v -0.01865509 0.03231254 -0.04842912
v 0.00471743 -0.01332996 0.05154550
v 0.02744833 -0.03570814 0.00242927
v 0.01419767 -0.03592766 -0.00062064
v 0.04421627 0.02307937 -0.04097962
v 0.02076513 -0.03410211 0.00557072
v 0.03102844 -0.03139187 -0.03038569
v 0.01358244 -0.02995379 0.01160295
v -0.05257924 -0.03416707 -0.00599166
v 0.05734717 0.01723562 -0.03943939
v -0.04653141 -0.00375630 0.01668930
v -0.05754563 -0.03211517 -0.00792639
v 0.03195530 -0.03354956 0.00845774
v 0.02973025 0.00603171 -0.04973284
v -0.00607371 0.03567667 -0.04042768
v -0.05251002 -0.03098470 -0.00117546
v -0.00135427 -0.01436513 0.05009186
v -0.01613648 0.04325061 -0.01783984
v -0.05064849 -0.01840921 0.03912042
v 0.05009494 -0.03355834 -0.01922163
v -0.01949189 -0.01053222 0.04193962
v -0.01676853 0.00309069 0.05853940
v -0.00443727 0.04255265 -0.00939072
v 0.06367682 -0.02248182 -0.01529032
v -0.02378551 0.00204718 0.05839734
v 0.03379613 -0.03065945 0.01395217
v 0.01962753 0.01886797 -0.04816854
v 0.03324142 0.03219711 0.01845240
v -0.01651061 -0.00501958 0.02176502
v -0.05789642 -0.02849457 -0.00075690
v 0.02520237 0.02620850 0.02326832
v 0.02560951 -0.03513471 -0.02306212
v -0.01155176 0.04076824 -0.00411789
v 0.05749076 0.03586323 -0.01687578
v -0.01713144 -0.00119745 0.02267147
v 0.05381042 0.03764003 -0.01867719
v 0.05246659 0.02298044 0.02162911
v -0.02462358 -0.00798180 -0.06109280
v 0.06044212 0.00341493 -0.04055120
v -0.00093075 -0.00611417 0.02444482
v 0.02268920 -0.03710163 -0.01371836
v 0.05186729 -0.03409533 -0.01510340
v 0.05469472 -0.03094560 -0.02203026
v -0.01522114 -0.00685083 -0.05901063
v -0.04405344 0.04066957 -0.04400912
v -0.02058289 -0.00053150 0.02269580
v 0.05330475 0.03934575 -0.01252441
v 0.05665808 -0.01547316 0.01721330
v 0.06590423 0.01988090 -0.01023336
v 0.06448057 0.02544215 -0.01983126
v 0.03408188 -0.02516778 0.02081347
v 0.03156822 0.02533068 -0.04175977
v 0.04244395 -0.02655050 0.01873099
v 0.02843065 -0.02641689 0.01873079
v 0.04550335 0.04165593 -0.00868157
v 0.00248351 -0.00790466 -0.05429075
v 0.05468840 0.03894867 -0.00535105
v -0.00844034 0.03950145 0.00032594
v 0.06757148 0.01039201 -0.01295015
v 0.05564991 0.01448626 0.02160805
v -0.01583385 0.03811331 0.00171316
v 0.05025985 -0.03509261 -0.01146392
v 0.00451989 -0.01421383 -0.05140579
v -0.05317620 -0.00404281 0.03264813
v 0.01070551 -0.01380246 -0.05047087
v 0.01945453 0.02197232 0.02478478
v 0.02249397 -0.02206263 0.02170064
v 0.01814451 -0.01681555 0.02441265
v -0.05489619 -0.01138777 0.03408842
v -0.06140384 -0.00793983 0.01082311
v -0.00644190 0.00013087 0.06781778
v -0.02361089 -0.00072436 0.02209374
v 0.02770468 0.02141059 0.02626107
v 0.05287968 0.03826682 0.00142585
v 0.04894494 0.01334609 0.02862963
v 0.02065364 -0.00776067 0.05766341
v 0.04693157 0.04074084 0.00037924
v -0.04204462 -0.01866345 0.04127371
v 0.01400295 -0.01029357 -0.05072208
v 0.01474805 -0.01492861 -0.04871385
v 0.04946084 0.01885376 0.02622764
v -0.06053069 -0.00611938 0.04232025
v -0.05962400 -0.01600561 0.00942322
v -0.03848424 -0.01931570 0.04676236
v 0.03697713 -0.00701834 0.03103367
v 0.03699882 0.02047316 0.02796816
v -0.02991422 0.04187616 -0.03489975
v 0.02667085 -0.01620369 0.02652695
v 0.04301830 0.01767606 0.02872052
v -0.02145163 -0.00531149 0.02948227
v 0.06296072 0.01315945 -0.03576009
v 0.02005839 -0.00640732 0.06025112
v -0.01940677 -0.00277268 0.02723114
v 0.04186093 0.03429464 0.01551710
v 0.04415023 0.03787583 0.00918881
v 0.03239346 0.01580614 0.02978127
v -0.03260959 0.02062793 0.01532818
v 0.02995613 0.03537513 0.01388349
v 0.04983844 -0.00196089 0.02854733
v -0.02549031 0.02992434 0.01043458
v -0.03745809 -0.01209670 0.01579811
v 0.04294745 -0.03618444 -0.00939284
v -0.02574442 0.04168358 -0.03365440
v 0.05065091 -0.03522180 -0.00699503
v 0.05060842 0.00668423 0.02901946
v -0.05770347 -0.00948630 0.05022916
v 0.02861627 -0.02008272 -0.04292878
v 0.04755386 0.03351212 0.01547906
v 0.02348628 -0.00967582 0.05947730
v -0.03101797 -0.00264190 0.03571572
v -0.02324251 -0.00366418 0.03204018
v 0.06213197 0.02458770 -0.02956200
v 0.03979884 0.01058882 0.03154634
v -0.03034048 -0.00647679 0.01912884
v -0.05514303 -0.00706295 0.05243889
v 0.01530692 -0.00835868 0.05714772
v -0.03462784 -0.00613722 0.01837025
v 0.03680923 0.02812338 0.02269376
v -0.04960754 -0.00769531 0.05461006
v 0.00919433 0.00211353 0.06008203
v -0.04034067 0.04369075 -0.03215687
v 0.02307732 -0.01671527 0.06190116
v -0.05204583 0.00223955 0.03721125
v 0.03006193 -0.02562407 -0.03803678
v -0.04680509 0.01735179 -0.06174928
v 0.04592111 0.02731789 0.02233828
v -0.04414850 0.01431564 -0.06434469
v -0.04650205 0.00390262 0.04096447
v -0.04231170 -0.01066604 0.05709384
v -0.04029446 0.02139600 -0.06268158
v -0.03789140 -0.00284532 0.03468868
v -0.03568410 0.02627563 -0.05854221
v -0.04193139 0.02733282 -0.05914185
v 0.05367989 0.03371501 -0.02739125
v -0.03744093 0.00380147 0.04451439
v -0.04759161 -0.00687399 0.03095527
v -0.02707425 -0.01945952 0.05005988
v 0.05567857 -0.03318096 -0.00886490
v -0.02438424 -0.01982808 0.05209149
v 0.05946484 0.02674032 -0.03080669
v -0.02825824 -0.00206815 0.03123605
v -0.02878098 0.03167378 -0.05186392
v -0.02528461 -0.00667812 0.03578895
v 0.00273281 0.01332435 -0.05395776
v -0.01226891 -0.01971917 0.05903127
v -0.04552266 0.04468332 -0.02050934
v 0.01518788 -0.00020186 0.05864726
v 0.01865721 -0.03226508 -0.03143339
v -0.03366982 -0.00154095 0.02103943
v -0.00460279 -0.01985852 0.06144083
v 0.00391591 0.03924073 -0.03078097
v -0.03556327 0.00298176 0.05204506
v -0.00960400 0.03006218 -0.04829667
v -0.04773603 -0.01887165 0.04025818
v -0.04537168 -0.01653945 0.03611834
v -0.03155820 -0.01007103 -0.06215507
v 0.01319866 -0.02032509 0.06583563
v -0.03084352 0.00355892 0.05180998
v -0.00433895 0.02635298 -0.04970452
v -0.03611120 -0.00405534 0.02148046
v 0.00634173 0.01180897 0.02605048
v -0.04626818 -0.01867659 0.04748326
v -0.05239248 0.04373790 -0.01954959
v 0.01822248 -0.01984611 0.06434716
v -0.03417803 0.04037573 -0.04045495
v 0.05848463 -0.02990462 -0.01684248
v -0.02005789 -0.00312465 0.06526873
v -0.03312794 -0.00587038 0.02065817
v 0.01752000 0.04059123 -0.02399917
v -0.03547843 0.04406445 -0.02568397
v 0.02163983 -0.01881053 0.06972346
v 0.01494694 0.01409439 0.02711335
v -0.02638980 0.00366847 0.04991646
v 0.05964742 0.03216967 -0.02197114
v 0.01508547 -0.00790123 0.07904481
v -0.03386013 -0.00158163 0.02505841
v -0.03443811 -0.00770823 0.02783469
v -0.03172849 0.04366877 -0.01837599
v 0.01754612 -0.00415491 0.07779244
v -0.01450200 0.00388410 -0.06002855
v 0.02241500 -0.00135419 0.06167831
v 0.06093547 0.03329132 -0.01400415
v 0.06644679 -0.01384478 -0.01708350
v 0.06620320 -0.00566730 -0.00525951
v -0.03855781 0.04276485 -0.01271019
v 0.01898957 0.00229343 0.06581222
v 0.02469677 -0.00884539 0.06369547
v 0.02046436 -0.00640619 0.06526935
v -0.03782601 -0.00448832 0.02674618
v -0.05718499 0.03791403 -0.01035849
v -0.04515467 0.04111289 -0.00798207
v 0.02102253 0.00171978 0.06686712
v 0.01255871 0.00284556 0.06490968
v 0.01477234 0.04219823 -0.01440861
v 0.06404392 0.02694269 -0.01453561
v -0.02087038 0.01057432 -0.06082657
v 0.04716351 -0.03494647 -0.00007882
v 0.02146667 -0.01953700 0.06670975
v 0.01682926 0.00209689 0.07134909
v 0.03778224 -0.03470749 0.00492267
v -0.00194114 0.04065878 -0.00200317
v 0.06111572 -0.02277728 0.00207416
v 0.00556947 0.04304247 -0.01249142
v 0.04331287 -0.03503076 0.00250340
v 0.01290200 -0.00374797 0.07782134
v -0.03855532 0.01534798 -0.06459283
v 0.00056965 0.03209616 -0.04264181
v 0.00777122 0.04076722 -0.00059835
v -0.05164972 0.04258416 -0.01218309
v 0.00890702 -0.00776101 0.05241980
v -0.02960417 0.01432934 -0.06233067
v 0.01741307 0.00948455 -0.05162498
v 0.05928824 -0.02073366 0.00932875
v 0.05956558 -0.02906043 -0.01006840
v 0.00266833 0.04057363 -0.00069652
v -0.03963409 0.00123858 0.03807514
v 0.01713380 0.03120570 -0.03975373
v 0.05096153 -0.03030615 0.01046528
v 0.01194220 0.03507189 -0.03691025
v 0.01968876 0.03658688 -0.03222364
v 0.02264808 0.01035479 -0.05028803
v 0.02065747 0.00246085 -0.05138453
v 0.04283371 -0.03046586 0.01346957
v -0.02461728 -0.00685715 0.03805594
v 0.01356997 -0.00390726 0.05524076
v -0.02313893 -0.01641432 0.04342403
v -0.00650869 0.03817890 0.00351526
v 0.06124660 -0.00904398 0.01087415
v 0.06432341 -0.00489376 0.00511313
v 0.02285277 -0.03029147 0.01299557
v 0.02584812 0.02180041 -0.04585881
v -0.00267705 0.04074460 -0.02999723
v 0.00923647 -0.00364721 0.05347724
v -0.05704179 0.03645140 -0.00497534
v 0.00742594 0.04165656 -0.02232860
v -0.05133485 0.04072641 -0.00749777
v 0.04297801 0.01790085 -0.04387686
v -0.00399766 0.04282426 -0.02063386
v 0.05703815 0.01059897 -0.04173239
v 0.05473766 -0.02302697 0.01504710
v 0.04116118 0.03026805 -0.03607500
v 0.06247195 0.01927904 -0.03352303
v 0.01974253 -0.01484980 0.05837059
v 0.01055945 0.03880503 -0.03067181
v -0.05197527 0.03788703 -0.00238361
v 0.02620470 0.03756990 -0.02964280
v -0.02421676 0.03655358 0.00271435
v 0.03103028 0.04047870 -0.02098123
v 0.05735231 0.02588891 -0.03360226
v 0.01836182 0.00056598 0.06123511
v 0.02901597 0.04192411 -0.01505663
v 0.03649096 0.04031103 -0.01924238
v 0.05312764 -0.03363758 -0.00091909
v -0.04099081 0.01047455 0.01780208
v -0.02064046 0.01947519 0.01824506
v -0.01162696 0.00868439 0.02320783
v -0.00417137 0.01494506 0.02317371
v 0.02755072 0.03989436 -0.02389803
v 0.02223884 0.00022961 0.06946672
v 0.02062205 0.04177962 -0.01872740
v 0.06303297 0.02914612 -0.01230217
v 0.05990247 0.03476336 -0.00628578
v -0.02808412 -0.00805519 0.03337376
v 0.01341686 0.04234338 -0.00663490
v 0.01856824 -0.00758901 0.07821125
v 0.02090819 0.04115124 0.00017473
v 0.01126953 0.03826896 0.00648162
v -0.00183722 0.03600872 0.00797663
vn -0.51043924 -0.82911988 -0.22806140
vn -0.96695861 0.12087358 -0.22445629
vn -0.71037340 0.69287358 0.12367632
vn -0.49406836 -0.42519212 -0.75835883
vn -0.80356147 0.32039724 -0.50163191
vn -0.81589026 -0.40359379 0.41404726
vn -0.84759090 0.22083167 0.48251739
vn -0.56740003 -0.82167979 0.05384727
vn -0.54816734 0.73730427 -0.39483539
vn -0.91439780 -0.34450565 -0.21258532
vn -0.89495543 0.06154439 -0.44189034
vn -0.93464831 0.14342626 0.32536354
vn -0.97778379 -0.15993003 0.13550369
vn -0.95397379 -0.29766297 -0.03647973
vn -0.95919929 0.14022525 -0.24550681
vn -0.97154006 0.23026406 0.05557321
vn -0.99456104 0.08677812 -0.05760123
vn -0.92283149 -0.05736406 -0.38090866
vn -0.89824574 -0.02142202 -0.43897117
vn -0.98125619 -0.16834096 0.09379563
vn -0.74448752 -0.29116782 0.60079916
vn -0.60668322 -0.79417932 -0.03485220
vn -0.50831362 -0.41167669 -0.75639908
vn -0.48610732 0.40090502 -0.77651455
vn -0.62157657 0.78196554 -0.04660975
vn -0.73061694 0.38527213 0.56370585
vn -0.82135935 -0.11864297 -0.55793607
vn -0.00587115 -0.35555893 -0.93463542
vn 0.08336823 -0.38527241 -0.91902933
vn 0.22292730 -0.37580398 -0.89948585
vn -0.32455531 -0.94073650 0.09838032
vn 0.11719662 -0.83566791 -0.53658558
vn 0.21847367 -0.44342781 -0.86927616
vn -0.10706490 -0.87177725 0.47806018
vn -0.62746238 0.75522706 -0.18953375
vn -0.24142125 -0.45847370 -0.85528805
vn -0.28614309 -0.67629032 -0.67878828
vn -0.08441557 -0.98270466 0.16481980
vn 0.11994792 -0.90133025 -0.41619259
vn -0.03911479 0.86006856 0.50867683
vn -0.13412065 -0.70221158 0.69922139
vn -0.10413350 -0.81638060 0.56804835
vn -0.32687514 -0.76371422 0.55668054
vn 0.21869620 -0.40643493 -0.88712041
vn -0.24599459 -0.74635232 0.61842128
vn -0.09996294 -0.62910939 0.77086236
vn -0.69967218 -0.67237528 -0.24159951
vn 0.22237209 -0.34565688 -0.91163149
vn -0.21374826 -0.80783895 0.54927945
vn -0.13485594 0.89884053 0.41701268
vn 0.07105510 -0.95892033 -0.27463243
vn -0.33345914 -0.58928194 0.73590202
vn -0.12811940 -0.93917299 0.31865265
vn 0.10395673 -0.94196489 -0.31921018
vn -0.16925275 -0.54932188 0.81829028
vn 0.06611705 -0.99745796 -0.02657358
vn 0.00620915 -0.99553266 -0.09421340
vn -0.31089261 -0.63359575 0.70845057
vn -0.65417863 -0.71378224 0.25013041
vn -0.13646624 -0.72434041 0.67580170
vn 0.17963124 -0.55529034 -0.81202541
vn -0.10668001 -0.65219279 0.75050912
vn 0.76652535 -0.13799898 0.62721222
vn 0.12574225 -0.70569682 -0.69726672
vn -0.34813615 0.12162508 0.92952061
vn 0.02514094 -0.99725241 -0.06968194
vn -0.35452816 -0.61186390 -0.70705894
vn -0.16250310 -0.67486473 0.71982660
vn 0.01593376 -0.99940696 -0.03052602
vn 0.19021382 -0.54293374 -0.81794967
vn -0.17535374 -0.47312327 0.86336866
vn -0.17490030 -0.57925875 0.79615902
vn -0.19469462 -0.36028323 0.91229929
vn -0.32295921 0.32354586 0.88939048
vn -0.54749804 -0.43357600 0.71572184
vn -0.05193311 -0.95936677 0.27734159
vn 0.24141950 -0.05504472 -0.96885845
vn 0.10424847 -0.64733813 0.75504013
vn 0.35652473 -0.54571261 0.75834547
vn -0.18133185 -0.31960775 0.93003744
vn -0.27107085 -0.76024260 0.59038274
vn -0.41509313 0.69683347 0.58491094
vn 0.19842945 -0.21708130 -0.95577270
vn -0.07673444 -0.90850603 0.41076589
vn 0.18401922 -0.02514772 -0.98260090
vn -0.20940432 -0.18743407 0.95969698
vn -0.18572644 -0.86376901 0.46841092
vn 0.21218614 -0.14779807 -0.96598798
vn -0.33325978 -0.41601448 0.84609094
vn -0.08855252 -0.69051812 0.71787407
vn -0.18042248 0.02523921 0.98326533
vn 0.15302846 -0.71341728 -0.68382605
vn -0.11631321 0.57391121 0.81061530
vn -0.45741640 -0.44808897 0.76810580
vn -0.16375554 -0.03487393 -0.98588434
vn 0.19383083 -0.82575449 -0.52967832
vn -0.00848007 -0.80323650 -0.59559988
vn -0.38541226 -0.15603362 -0.90945638
vn 0.12386017 -0.79503049 -0.59378883
vn 0.45989123 -0.55344027 -0.69440904
vn -0.23884552 -0.78437397 0.57245986
vn -0.12369420 -0.77484247 0.61993459
vn 0.27453713 -0.58946807 -0.75970834
vn -0.37683102 0.02361247 0.92598101
vn -0.35364980 -0.26220818 0.89787454
vn -0.53204044 0.05817122 -0.84471834
vn -0.73058423 -0.11625113 -0.67285389
vn -0.40180902 -0.70746099 -0.58141935
vn 0.31015349 -0.70470972 -0.63811364
vn 0.10019427 -0.86992750 -0.48289466
vn 0.02338193 0.65634486 -0.75409860
vn -0.14866263 -0.57817237 0.80225690
vn -0.76814752 0.26625766 -0.58228536
vn 0.24762355 -0.45609965 -0.85478400
vn -0.53744228 -0.23143541 -0.81092136
vn -0.36489795 -0.24307304 0.89875747
vn 0.29448562 -0.52398510 -0.79919825
vn 0.26933892 -0.30471849 -0.91356619
vn 0.25833309 -0.07375278 -0.96323649
vn 0.10523078 -0.88627356 -0.45104951
vn 0.19866141 -0.51897761 -0.83138191
vn 0.20474919 -0.68928846 -0.69495265
vn -0.03224249 -0.43511162 0.89979903
vn 0.15517845 -0.27604670 0.94853459
vn -0.32682037 -0.24861458 0.91180000
vn 0.55735494 -0.81354283 -0.16584193
vn -0.32422087 0.92575930 0.19455218
vn 0.09387315 -0.94008266 -0.32776886
vn -0.13119735 0.37047966 0.91952818
vn -0.15999111 -0.43074039 0.88818104
vn 0.13904668 0.94106720 -0.30831566
vn 0.14579840 -0.89074476 -0.43048413
vn 0.49168518 0.83744072 -0.23861839
vn 0.28561270 -0.89639324 0.33897572
vn -0.18208532 0.08799813 0.97933716
vn 0.27356957 -0.63507689 -0.72238288
vn -0.11524478 0.93619876 0.33203995
vn 0.20229401 -0.80113726 -0.56325503
vn 0.04022238 -0.93877625 -0.34217146
vn 0.06234010 -0.97898880 -0.19415109
vn 0.20527578 -0.84054145 -0.50135011
vn -0.00510150 -0.99159548 0.12927638
vn -0.59403814 -0.68156566 -0.42730193
vn -0.03053712 -0.98499128 0.16988131
vn 0.35006870 0.56031210 -0.75066787
vn -0.24724214 0.76906436 0.58941610
vn -0.32861265 0.38624663 0.86187428
vn 0.16203758 -0.72971349 -0.66427558
vn 0.19062562 -0.58774305 -0.78626966
vn -0.20079219 -0.56702759 -0.79885056
vn -0.06207519 -0.91499255 0.39866691
vn -0.08421097 0.71223199 0.69687452
vn 0.34273446 -0.15511912 -0.92653718
vn 0.22692318 -0.54332616 -0.80827134
vn -0.15445660 0.55553639 0.81702049
vn -0.08039628 -0.89946978 0.42952363
vn -0.05751314 -0.90414783 -0.42333077
vn 0.13155182 -0.91556377 -0.38004882
vn 0.43022675 0.06517518 -0.90036500
vn 0.19641710 -0.54358881 -0.81604628
vn 0.14867291 -0.75016678 -0.64431838
vn -0.72643416 -0.56340442 -0.39353383
vn 0.18040694 -0.72318640 -0.66667441
vn 0.70143598 -0.54634184 -0.45770969
vn 0.22708310 -0.85874672 -0.45933358
vn -0.15394963 0.25828014 0.95372474
vn 0.17924049 -0.66400912 -0.72592337
vn 0.21743159 0.87179800 -0.43896668
vn 0.19112337 -0.75749854 -0.62423378
vn 0.12308465 -0.82596601 -0.55011846
vn 0.17780414 -0.65533332 -0.73411438
vn -0.14419719 -0.57337085 0.80650669
vn 0.63673440 -0.39918784 0.65971083
vn 0.02995198 -0.55110420 0.83389870
vn 0.11103610 -0.89593885 -0.43007506
vn -0.21253862 -0.02599330 0.97680688
vn 0.49442610 -0.29042802 0.81926455
vn 0.21967577 -0.41166174 0.88446434
vn -0.17393349 -0.18199839 0.96779323
vn 0.11775396 -0.91764466 -0.37955537
vn 0.15683667 -0.77746351 -0.60905891
vn 0.13583527 -0.87883014 -0.45739083
vn 0.05128842 -0.99199107 -0.11542622
vn 0.06123609 -0.98296037 -0.17331778
vn 0.09120200 -0.05021741 0.99456544
vn 0.13502737 -0.84957799 -0.50988710
vn -0.17557627 -0.38656492 0.90539524
vn 0.02016692 0.75135428 -0.65959081
vn -0.36259847 0.58419352 0.72611313
vn 0.07927510 -0.68995038 -0.71950256
vn -0.13965805 0.75599848 0.63950131
vn 0.21601905 -0.00136433 -0.97638820
vn 0.12273716 -0.89883228 -0.42075661
vn 0.42012354 -0.80963732 -0.40985805
vn -0.17235427 0.16674244 0.97081974
vn -0.12491574 0.70789824 0.69518066
vn 0.25788432 0.12908703 -0.95751356
vn -0.30813870 0.59420947 0.74294390
vn 0.25074250 -0.70929412 -0.65880957
vn 0.17686371 0.24322120 -0.95370995
vn 0.18974846 0.13117761 -0.97303030
vn -0.29824509 0.45625396 0.83838070
vn 0.25188908 0.30793115 -0.91745861
vn 0.19266176 0.41080895 -0.89113268
vn 0.20172710 -0.10318788 -0.97399098
vn 0.20423852 0.09051161 -0.97472779
vn -0.32541612 -0.56636338 0.75719011
vn 0.06683595 -0.85384165 -0.51622417
vn -0.89805602 -0.28565369 -0.33451061
vn 0.13317592 -0.88339440 -0.44930891
vn -0.02762119 -0.98609608 0.16386455
vn -0.55725427 0.55241791 0.61992108
vn -0.83823854 0.27183941 0.47271501
vn 0.32042429 0.09125763 -0.94286813
vn 0.25907201 -0.04437227 -0.96483822
vn 0.26444973 0.22647364 -0.93743055
vn 0.69830446 -0.64934596 0.30119879
vn 0.28910827 0.39294929 -0.87293028
vn 0.08095668 -0.95557498 -0.28341219
vn -0.43683208 0.40851597 0.80143149
vn -0.14410106 0.60424709 0.78365830
vn -0.75701324 0.65007371 0.06584167
vn -0.05931560 0.96304272 0.26273632
vn -0.16889556 -0.81234269 0.55818782
vn 0.14030511 0.54899227 -0.82396721
vn -0.16479053 0.46484558 0.86992107
vn 0.14227885 0.53259437 -0.83432606
vn 0.08760751 -0.97215388 -0.21735171
vn -0.70338750 0.12665648 0.69943131
vn 0.03461149 0.99853200 0.04166413
vn 0.28303694 -0.58324625 -0.76138945
vn 0.03456560 -0.90979353 0.41361932
vn 0.48405633 -0.62911722 0.60819486
vn 0.92054581 0.04063619 0.38851527
vn 0.05440328 -0.99673175 -0.05971679
vn 0.37247684 0.62346924 -0.68742062
vn 0.28211461 0.55079705 -0.78551509
vn -0.30230702 -0.89276520 -0.33403708
vn 0.51595132 0.46393764 -0.72010839
vn -0.26967628 0.72816476 0.63011966
vn -0.06649462 0.94574462 0.31803392
vn -0.24017233 0.77794474 0.58061969
vn -0.46155932 0.66048429 0.59221913
vn -0.00493292 -0.99197848 0.12631058
vn 0.38007221 -0.40299059 0.83255252
vn -0.23652844 0.64174030 0.72953663
vn 0.00819214 -0.97760062 0.21030911
vn -0.12358788 -0.24100343 0.96262318
vn -0.18003508 0.50623418 0.84339452
vn -0.35364961 0.10412616 0.92956425
vn 0.08686839 -0.19929221 -0.97608222
vn 0.26742569 0.36707269 -0.89092151
vn 0.12250063 0.91345214 -0.38807060
vn -0.03397139 -0.98841498 0.14792488
vn -0.01345881 0.13459533 -0.99080924
vn -0.00048301 -0.93032477 0.36673640
vn 0.27645768 0.16001015 -0.94761169
vn 0.23140887 0.41030727 -0.88209856
vn -0.22173063 -0.95715015 -0.18627698
vn 0.48435218 -0.68653922 0.54227933
vn -0.01824753 -0.91963482 0.39235040
vn -0.15562180 0.58343091 0.79711369
vn 0.11040835 0.88938121 -0.44363393
vn 0.26199896 0.28383509 -0.92238506
vn 0.25860592 -0.15843557 -0.95290144
vn 0.27461253 0.11312200 -0.95487767
vn 0.19796838 0.60801167 -0.76885000
vn 0.17431291 0.57845354 -0.79687296
vn 0.03219810 0.99713119 -0.06850309
vn -0.04708072 -0.86999609 0.49080567
vn -0.12744818 0.19670554 0.97214397
vn -0.02918209 -0.55519611 0.83120737
vn -0.20034527 0.39805425 0.89521762
vn -0.05065005 -0.83330245 0.55049214
vn -0.09918094 -0.74422288 0.66052664
vn -0.41507429 0.73590409 -0.53493785
vn 0.21423500 0.49768801 -0.84048201
vn -0.11032599 -0.74394235 0.65907356
vn 0.18130609 0.80501306 -0.56487351
vn 0.12697673 0.83496632 -0.53545135
vn 0.17806022 0.81023778 -0.55839888
vn 0.21924679 -0.02374563 -0.97538043
vn 0.23084042 0.42305370 -0.87620675
vn -0.25882872 -0.77353336 0.57849273
vn 0.21627116 -0.28426320 -0.93403491
vn 0.12871552 0.85643863 -0.49994519
vn 0.17980852 -0.38517369 -0.90515751
vn 0.09675185 0.92829057 -0.35904832
vn 0.16716359 0.87183073 -0.46039929
vn -0.17160687 -0.27776520 0.94519711
vn 0.20074072 0.86514276 -0.45959892
vn -0.01157653 -0.99992521 0.00394516
vn 0.94910974 0.14395209 -0.28012228
vn 0.20411321 -0.21767560 -0.95443970
vn 0.25024998 0.32047893 -0.91360177
vn 0.21975005 -0.41008135 -0.88517976
vn 0.00926710 0.77819999 -0.62794816
vn 0.07285201 0.98159363 -0.17654047
vn -0.29377809 -0.41998497 0.85866586
vn 0.04396388 0.23781090 -0.97031601
vn -0.17740574 -0.38187609 0.90702693
vn 0.07542178 0.93456144 -0.34771607
vn 0.93581940 0.30253082 0.18087885
vn 0.19019364 -0.32948598 -0.92480558
vn -0.12277067 -0.48930856 0.86342602
vn 0.01894101 0.99871960 0.04690838
vn 0.21902280 0.27841357 -0.93515501
vn 0.05140517 0.99222167 -0.11337404
vn 0.21828406 -0.38637621 -0.89613922
vn -0.82301237 -0.03015876 0.56722226
vn 0.18443836 0.53966061 -0.82143102
vn 0.25061775 0.47697014 -0.84243114
vn 0.01933710 0.99472806 0.10070828
vn 0.13418968 0.96297104 -0.23383736
vn 0.09830174 -0.93507999 -0.34053221
vn -0.22608242 -0.21172288 0.95082078
vn 0.16772627 -0.46533668 -0.86909704
vn 0.00999344 0.99214346 0.12470559
vn 0.32823618 -0.23010593 -0.91613988
vn 0.13655177 0.74831982 -0.64913101
vn 0.26402866 0.91752709 -0.29737670
vn -0.00678837 0.98958090 0.14381783
vn 0.98806538 -0.00388170 0.15398615
vn 0.99952412 -0.02884437 -0.01093352
vn 0.17088915 0.60788088 -0.77542100
vn -0.02123953 0.95646742 0.29106522
vn -0.02573316 0.93637263 0.35006299
vn -0.01523043 0.95512978 0.29579578
vn -0.06980997 0.87884634 0.47196999
vn -0.99121404 0.07687239 0.10763533
vn -0.36740194 -0.92499322 0.09697088
vn -0.10801178 0.74403785 0.65934902
vn 0.15374027 -0.97152474 -0.18028756
vn -0.38396100 -0.06883657 0.92077982
vn -0.17220883 0.28889649 0.94174462
vn 0.20853156 -0.23929627 -0.94828892
vn 0.26296032 0.71062732 0.65258001
vn 0.68860365 0.64423292 0.33284975
vn 0.16733803 -0.41836813 -0.89272957
vn -0.17442298 -0.94673998 0.27066589
vn 0.00073482 0.96439725 0.26445681
vn -0.20381270 0.02427071 0.97870901
vn 0.13382345 0.78255737 -0.60802570
vn -0.14035056 -0.23762266 0.96116450
vn -0.20236864 -0.56012765 0.80330813
vn -0.75659905 -0.64997032 0.07138958
vn 0.15187263 0.66818717 -0.72832727
vn 0.33632332 -0.71569285 -0.61210323
vn -0.58985296 0.39093363 -0.70657228
vn 0.35956389 -0.20244023 0.91089613
vn 0.08713792 0.69137194 -0.71722508
vn -0.35820771 0.60556978 -0.71061415
vn 0.22746669 -0.08328968 -0.97021736
vn 0.17886141 0.65563977 -0.73358373
vn 0.99381083 -0.10703456 0.02972621
vn 0.86997496 0.30189455 0.38987593
vn -0.41475254 -0.62390136 0.66236503
vn 0.36693281 -0.84878784 0.38068296
vn 0.13747758 0.79442094 -0.59160399
vn -0.07866670 -0.95461455 0.28726750
vn 0.38056883 -0.00884594 -0.92471029
vn 0.06261537 -0.97470542 -0.21454292
vn 0.04349317 -0.98666833 -0.15682461
vn 0.02678667 0.97128036 0.23642532
vn 0.60934787 -0.16723999 -0.77506513
vn -0.10119012 0.86409482 0.49305244
vn 0.78098151 0.46134202 0.42098863
vn 0.95338880 0.09800976 0.28538376
vn -0.49682934 0.59948347 -0.62751907
vn 0.81119521 -0.17711791 -0.55730743
vn 0.03447076 -0.99912589 -0.02364777
vn 0.64937140 -0.30856031 -0.69505923
vn 0.41239414 0.80053005 0.43483642
vn 0.23171375 0.10029842 -0.96759959
vn 0.21492623 0.29109346 -0.93223994
vn 0.34903793 -0.43438053 -0.83035298
vn -0.07519201 -0.01238933 0.99709211
vn -0.07296223 0.95951353 -0.27204836
vn -0.06654234 -0.90597546 0.41806767
vn 0.95413955 -0.07648683 -0.28942614
vn 0.09746555 -0.97846082 -0.18197499
vn 0.85180597 -0.08546449 0.51683886
vn -0.53530471 0.77793351 -0.32904153
vn -0.10348338 -0.89866151 0.42626128
vn -0.48048135 -0.31379430 0.81894494
vn -0.18441472 0.61262708 0.76855662
vn 0.07290697 0.95628814 -0.28319173
vn -0.51579661 -0.10935573 0.84970300
vn -0.11447336 0.80473814 0.58248810
vn 0.87601319 0.26866100 0.40052735
vn 0.17050867 0.40603243 -0.89781093
vn 0.67964225 -0.44004182 -0.58689829
vn 0.81048129 0.11322993 -0.57471651
vn 0.80451155 -0.46317923 -0.37178779
vn 0.47395662 -0.68503834 -0.55325183
vn 0.90113629 -0.21294951 -0.37763196
vn 0.19756388 -0.98017926 -0.01473567
vn -0.38765365 0.25881471 0.88472572
vn 0.43432291 0.41832883 -0.79772464
vn 0.85256196 -0.31243015 -0.41895763
vn 0.64249708 0.17979869 -0.74489592
vn -0.91023600 -0.32890179 0.25158306
vn 0.15273213 -0.72807300 -0.66826836
vn 0.23776012 0.70057647 -0.67280215
vn -0.35805325 0.04547584 0.93259306
vn 0.00222665 0.89655694 0.44292289
vn 0.14851816 0.89123746 -0.42853022
vn -0.03919948 0.91605365 0.39913546
vn -0.14821931 -0.26295334 0.95335543
vn 0.15074669 0.93441855 -0.32270329
vn 0.04306278 -0.99828144 -0.03974631
vn 0.32639331 0.36825955 -0.87054713
vn 0.18678725 -0.59230571 -0.78376302
vn 0.25746293 -0.02583058 0.96594287
vn -0.11498053 0.06744625 0.99107542
vn 0.95906464 -0.22776694 -0.16827728
vn 0.20095645 -0.59867195 -0.77537630
vn 0.04156765 0.99183642 0.12055142
vn -0.84518438 0.32099665 0.42734590
vn 0.85124913 0.01553026 0.52453191
vn 0.58984481 0.65979455 -0.46556873
vn 0.25823975 -0.00558076 -0.96606474
vn -0.34151604 0.93914991 -0.03693549
vn 0.41344944 0.06858437 -0.90794039
vn 0.09513515 -0.99012311 0.10298317
vn 0.35662478 0.24785603 -0.90076976
vn 0.47881381 -0.54515256 0.68814680
vn 0.31946011 0.42537491 -0.84675936
vn -0.30167710 0.52579484 0.79531799
vn -0.11804993 0.68454326 0.71935022
vn 0.12660431 -0.85563643 -0.50185420
vn 0.06206903 -0.93447270 -0.35058267
vn 0.00704507 -0.99609958 0.08795453
vn 0.21159490 0.31180441 -0.92628592
vn 0.27025512 0.41443069 -0.86902783
vn 0.15058516 -0.91443335 -0.37568038
vn 0.05420759 -0.98118338 -0.18531249
vn 0.10985810 -0.94508270 -0.30781469
vn 0.43339840 0.71966153 0.54245102
vn 0.19419642 -0.78900529 -0.58288799
vn 0.93178443 0.29728967 -0.20831860
vn -0.43176237 0.89477564 -0.11383238
vn 0.22700615 0.26296163 -0.93772031
vn 0.18237777 0.89036335 -0.41712283
vn -0.11856069 0.79364814 0.59671265
vn -0.11995197 0.66664783 0.73565766
vn -0.40865831 -0.85636394 0.31565676
vn 0.03619934 -0.98590016 0.16337222
vn 0.63088106 -0.68439155 -0.36550965
vn 0.57414897 0.54557452 0.61049275
vn 0.24067441 0.49455468 -0.83515956
vn -0.36675002 0.20783857 0.90680624
vn 0.01290494 -0.95308937 0.30241381
vn 0.14311198 0.86063457 -0.48869940
vn 0.25646620 0.42286393 -0.86914394
vn 0.16658856 0.73718567 -0.65483246
vn 0.31838336 -0.36489142 -0.87492073
vn -0.04877557 -0.96486092 0.25819442
vn -0.05438725 -0.95940472 0.27673923
vn 0.19676009 0.51888501 -0.83189171
vn -0.08725830 -0.91914460 0.38413434
vn 0.11208815 -0.84886352 -0.51659169
vn -0.12340557 -0.81059188 0.57246124
vn -0.20859427 -0.86378620 0.45865220
vn 0.48988767 0.35180850 -0.79764707
vn -0.13619794 -0.17462999 0.97516895
vn -0.71049793 -0.66753669 0.22268241
vn -0.01126401 -0.90685790 0.42128597
vn 0.20489402 0.07192709 -0.97613776
vn 0.19505585 0.80173190 -0.56495945
vn -0.16987416 -0.78591883 0.59453710
vn 0.29853823 -0.48591541 -0.82143846
vn 0.08275394 0.99653204 0.00869970
vn -0.21257322 -0.91773066 -0.33553401
vn 0.22670212 -0.92812553 -0.29527807
vn 0.38305134 -0.21135356 -0.89922264
vn -0.11629501 0.95948952 0.25662293
vn -0.01917094 0.98650522 0.16260358
vn 0.91336528 -0.40692620 -0.01322645
vn -0.13354282 0.88276566 0.45043435
vn -0.01100432 -0.83805397 0.54547635
vn 0.17930307 0.40836770 -0.89503420
vn -0.04602194 0.75726588 0.65148321
vn 0.05570573 -0.30900081 0.94942897
vn -0.52438423 -0.70412383 0.47878054
vn -0.11986295 0.61075033 0.78269848
vn 0.06900439 -0.94824304 -0.30995731
vn -0.13488366 0.95125794 0.27733505
vn 0.59658072 0.77831597 -0.19574398
vn 0.17760935 0.08573902 0.98035898
vn 0.42853814 0.85086243 -0.30395425
vn 0.62896838 0.41405495 0.65799489
vn 0.23905371 -0.26567107 -0.93395514
vn 0.60539710 0.07454030 -0.79242545
vn -0.19048890 -0.20534435 0.95997275
vn 0.07531031 -0.99068763 -0.11343008
vn 0.35990989 -0.91479961 -0.18332089
vn 0.43171563 -0.82164577 -0.37218255
vn 0.22978119 -0.23024080 -0.94561609
vn -0.04749132 0.88874364 -0.45593784
vn -0.05557543 0.58363205 0.81011419
vn 0.41683982 0.90307748 -0.10341965
vn 0.79944011 -0.27502872 0.53409243
vn 0.97597660 0.19205602 0.10287934
vn 0.91059875 0.39911411 -0.10732125
vn -0.03655541 -0.69318108 0.71983588
vn 0.22405100 0.55045627 -0.80423818
vn 0.14662303 -0.73897383 0.65758601
vn -0.11787624 -0.73199956 0.67103043
vn 0.14667951 0.98905366 -0.01606163
vn 0.24348361 -0.24051771 -0.93961001
vn 0.48200995 0.87351480 0.06810511
vn -0.06611351 0.92950147 0.36284435
vn 0.99252962 0.09265182 0.07937629
vn 0.81226352 0.13525445 0.56739246
vn -0.09922540 0.87279431 0.47789582
vn 0.21819913 -0.97315668 -0.07317938
vn 0.18521121 -0.42116442 -0.88787237
vn -0.41959885 0.27391096 -0.86539563
vn 0.21984078 -0.40228719 -0.88872664
vn -0.16637768 0.48469873 0.85871160
vn -0.14553957 -0.63064957 0.76229873
vn -0.17784344 -0.48840193 0.85430396
vn -0.57354301 -0.29880931 -0.76273286
vn -0.75958172 -0.18956272 0.62217489
vn -0.25481810 0.68928449 0.67819955
vn -0.12753600 0.65737591 0.74269205
vn -0.10517309 0.46357496 0.87979366
vn 0.41512445 0.87529351 0.24805836
vn 0.45649625 0.23903286 0.85701486
vn 0.81762631 0.25019570 -0.51854539
vn 0.17821426 0.96206760 0.20655655
vn 0.12280489 -0.95762458 -0.26052663
vn 0.23880259 -0.29472311 -0.92526300
vn 0.23348678 -0.42956122 -0.87233084
vn 0.47354575 0.37835602 0.79536227
vn -0.98290533 0.11082540 -0.14701989
vn -0.60437551 -0.40694388 0.68492840
vn -0.01504774 -0.99961094 -0.02348481
vn 0.00048324 -0.22242667 0.97494930
vn 0.00859051 0.47365200 0.88067019
vn 0.12141025 0.95421532 -0.27337279
vn -0.13500195 -0.46636163 0.87423184
vn 0.16382871 0.39710734 0.90303151
vn 0.56509635 -0.63232059 0.52994036
vn 0.76256660 0.21303688 -0.61082523
vn 0.72603219 -0.65691602 0.20331896
vn 0.76160239 0.38085741 0.52431806
vn 0.06316669 0.80304315 0.59256364
vn 0.10600928 0.90138061 0.41985121
vn -0.12087603 0.33508800 0.93440089
vn -0.14752126 0.44708164 0.88224457
vn -0.05171114 0.83343736 0.55018917
vn 0.57208407 -0.10441188 0.81352196
vn -0.12392744 0.66398386 0.73740587
vn -0.17008252 -0.36989455 0.91337285
vn 0.11574355 -0.99290437 -0.02728255
vn 0.09762126 0.95315409 -0.28629943
vn 0.24941960 -0.96770116 0.03666498
vn 0.59505112 0.04921477 0.80217958
vn -0.73122050 -0.12611491 0.67038169
vn 0.17235060 -0.56685666 -0.80558599
vn 0.21607393 0.75981557 0.61318216
vn 0.73841538 0.31992335 -0.59362595
vn 0.09722388 0.98405401 0.14894702
vn 0.78462648 0.29945031 0.54285430
vn 0.76925342 0.48038577 -0.42128220
vn 0.08748517 0.19552008 0.97678976
vn -0.12216601 -0.68414455 0.71904221
vn -0.49162414 0.07684855 0.86740994
vn 0.56667452 0.31337965 0.76201915
vn -0.35396059 -0.59331674 0.72297106
vn 0.00838219 0.64737310 0.76212716
vn -0.38433005 0.01411520 0.92308785
vn 0.14569048 0.91389499 -0.37890663
vn 0.09393926 0.98362870 -0.15378558
vn 0.68676120 -0.57990804 -0.43825302
vn -0.32083254 0.83163954 -0.45325728
vn 0.15322180 -0.71090095 -0.68639851
vn -0.55711180 0.26332602 -0.78758228
vn 0.24131754 0.60733776 0.75690599
vn -0.38317530 0.23082384 -0.89436964
vn -0.00623964 0.98045945 -0.19662233
vn -0.33251633 -0.25282559 0.90857697
vn -0.05003862 0.43214522 -0.90041471
vn -0.13807220 0.84888960 -0.51021811
vn 0.22749874 0.56947289 -0.78990186
vn -0.14529298 0.53244604 -0.83390118
vn 0.38705763 0.78151827 -0.48930111
vn 0.10531767 0.98121010 -0.16166300
vn -0.00430633 0.04473256 -0.99898972
vn 0.03206041 -0.97863700 -0.20308065
vn 0.58579578 -0.81004846 0.02578387
vn -0.00171267 -0.99898948 -0.04491204
vn 0.61595397 0.55239085 -0.56166276
vn 0.18425118 0.98287326 0.00341534
vn 0.17029065 0.70138497 -0.69214176
vn 0.92040021 -0.39093738 -0.00560564
vn 0.21491281 0.24927661 -0.94428473
vn -0.09974556 -0.97824093 0.18192168
vn -0.00549559 0.99568861 0.09259587
vn 0.29240307 0.69266196 -0.65933289
vn 0.10107049 -0.87731849 -0.46914500
vn -0.65005140 0.73234427 0.20274380
vn -0.07375010 -0.99026489 0.11805237
vn 0.12670417 0.90440966 -0.40741774
vn -0.06431055 0.92494215 0.37462803
vn 0.23783097 0.67210932 -0.70121715
vn 0.00776756 -0.97611577 -0.21711211
vn 0.11589007 -0.76326962 -0.63560127
vn 0.25577463 -0.31164675 -0.91512603
vn -0.05671097 -0.99587419 -0.07084116
vn -0.12380249 0.97912471 0.16120716
vn 0.24763964 0.58783884 -0.77014292
vn -0.98378625 -0.14107207 0.11073968
vn -0.19256415 0.23911736 0.95170475
vn -0.16488242 -0.94939049 0.26734151
vn -0.46617889 0.88376437 0.04046957
vn 0.19118579 -0.94848241 -0.25264424
vn 0.14561329 0.91033578 -0.38740875
vn 0.68531077 -0.71151458 -0.15522938
vn -0.31795458 0.39509229 0.86186250
vn -0.22255506 -0.97415385 0.03864609
vn 0.07555959 0.95410450 -0.28978500
vn 0.05913772 0.99688016 -0.05227492
vn 0.60894861 -0.73841214 0.28970518
vn -0.20870906 0.28085218 0.93678310
vn 0.03153863 0.99892891 -0.03385780
vn 0.69941384 0.65715900 -0.28100238
vn -0.01907674 -0.01158163 0.99975094
vn -0.34902813 0.93574816 0.05054448
vn -0.22816465 -0.92922361 -0.29066194
vn -0.01017566 0.99553020 0.09389391
vn 0.38498686 0.35891558 0.85027332
vn 0.23559493 0.02047928 -0.97163554
vn 0.86239949 0.27431320 -0.42546374
vn 0.80017094 0.59043998 -0.10539020
vn 0.97279962 -0.23151045 0.00798826
vn 0.97703285 -0.14139193 0.15942122
vn 0.00458801 0.96462409 0.26358931
vn 0.24556577 0.95496737 -0.16653760
vn 0.82353140 0.51302565 -0.24207584
vn 0.87169376 0.38947710 -0.29741818
vn -0.93405758 0.08272845 -0.34740816
vn -0.93733177 -0.05397770 -0.34423184
vn 0.00324684 0.92192616 0.38735205
vn 0.55229217 0.83287465 -0.03596071
vn 0.03434670 0.99824478 -0.04824587
vn 0.03837584 0.99605048 -0.08006710
vn 0.91676135 0.39828286 -0.03032155
vn 0.23302316 0.17735873 -0.95616112
vn 0.18259938 -0.96918545 0.16533917
vn 0.48324841 -0.87499483 0.02924062
vn 0.11574475 0.94555842 0.30417499
vn 0.06055678 -0.94607878 0.31822605
vn -0.03930633 0.94774372 0.31660204
vn 0.89926846 -0.37701730 0.22175256
vn 0.02226535 0.99922361 0.03250269
vn 0.10762799 -0.95969033 0.25963567
vn -0.20227176 0.38600854 0.90004641
vn 0.11210592 0.29193460 -0.94984549
vn 0.12918960 0.71874393 -0.68316704
vn -0.02952144 0.95040774 0.30960236
vn -0.30456162 0.90925417 0.28372358
vn 0.35202287 -0.00047659 -0.93599128
vn 0.26718724 0.26217003 -0.92729599
vn 0.24807987 0.15312374 -0.95656129
vn 0.85286046 -0.35024847 0.38724030
vn 0.80081777 -0.59326574 0.08201623
vn -0.06858348 0.93517565 0.34748067
vn 0.24766092 0.78334131 -0.57012319
vn 0.15939252 0.72221090 -0.67305679
vn 0.39153680 -0.80140654 0.45215761
vn 0.14732660 0.81722560 -0.55716890
vn 0.09452946 0.85713498 -0.50634357
vn 0.18567796 0.17268672 -0.96731742
vn 0.25151474 0.01540546 -0.96773085
vn 0.12710438 -0.84592974 0.51792600
vn 0.64538538 0.03182176 -0.76319401
vn 0.39890245 0.44492091 -0.80182430
vn 0.25701375 -0.72291388 -0.64135751
vn -0.06766556 0.87426530 0.48070942
vn 0.89944435 -0.13909838 0.41430846
vn 0.94967828 -0.07335775 0.30451568
vn -0.10668913 -0.81379861 0.57126986
vn 0.18408222 0.47804088 -0.85883098
vn 0.12457292 0.93211543 -0.34006236
vn 0.33234292 0.48542592 -0.80864693
vn -0.65392610 0.70710639 0.26903756
vn 0.08079098 0.97444850 -0.20957799
vn -0.28082718 0.87145061 0.40213174
vn 0.17551296 0.37140717 -0.91173018
vn 0.03609312 0.99543281 -0.08837875
vn 0.49274363 0.19453381 -0.84815112
vn 0.70626343 -0.47813854 0.52208764
vn 0.13700834 0.69214415 -0.70863615
vn 0.76618315 0.34905761 -0.53955737
vn 0.41538520 -0.46673782 -0.78077586
vn 0.09844014 0.90688272 -0.40972340
vn -0.22894405 0.83556039 0.49942313
vn 0.11292710 0.88122334 -0.45901296
vn -0.07826937 0.82286476 0.56282101
vn 0.10178665 0.95133284 -0.29086992
vn 0.51325837 0.57257068 -0.63931891
vn 0.32173839 0.76260443 -0.56117634
vn 0.05631459 0.99041983 -0.12608421
vn 0.05886246 0.96117349 -0.26959364
vn 0.46097944 -0.86449798 0.20035267
vn -0.16298339 0.17752396 0.97052648
vn -0.16530176 0.40428613 0.89957104
vn -0.19034128 0.14304647 0.97124040
vn -0.18648918 0.31222754 0.93152335
vn 0.07309018 0.93702921 -0.34151734
vn 0.87362937 0.44122716 0.20515926
vn 0.02330014 0.98274267 -0.18350462
vn 0.90390771 0.42756071 -0.01194556
vn 0.77997816 0.61771732 0.10029651
vn 0.36108644 -0.91968549 -0.15425688
vn -0.00738251 0.99054677 0.13697662
vn 0.53562634 0.07582909 0.84104362
vn -0.03169256 0.95718641 0.28773209
vn -0.05404933 0.86931635 0.49129192
vn -0.05491149 0.82820842 0.55772354
f 330//330 21//21 13//13
f 26//26 24//24 21//21
f 11//11 19//19 24//24
f 229//229 7//7 19//19
f 19//19 23//23 24//24
f 24//24 23//23 21//21
f 21//21 23//23 22//22
f 22//22 20//20 21//21
f 20//20 13//13 21//21
f 26//26 12//12 17//17
f 24//24 15//15 11//11
f 19//19 18//18 23//23
f 14//14 20//20 22//22
f 22//22 18//18 645//645
f 14//14 22//22 10//10
f 17//17 126//126 4//4
f 645//645 10//10 22//22
f 26//26 16//16 25//25
f 25//25 24//24 26//26
f 25//25 2//2 24//24
f 24//24 2//2 15//15
f 25//25 16//16 2//2
f 16//16 26//26 17//17
f 18//18 22//22 23//23
f 12//12 26//26 21//21
f 21//21 330//330 12//12
f 423//423 27//27 586//586
f 300//300 111//111 671//671
f 407//407 131//131 590//590
f 671//671 131//131 586//586
f 586//586 131//131 423//423
f 596//596 423//423 131//131
f 190//190 27//27 632//632
f 348//348 598//598 679//679
f 401//401 476//476 679//679
f 145//145 476//476 401//401
f 472//472 424//424 426//426
f 457//457 435//435 665//665
f 117//117 440//440 348//348
f 591//591 111//111 300//300
f 410//410 145//145 407//407
f 680//680 688//688 575//575
f 680//680 575//575 602//602
f 407//407 145//145 679//679
f 679//679 133//133 407//407
f 133//133 565//565 131//131
f 631//631 423//423 418//418
f 644//644 632//632 27//27
f 632//632 440//440 190//190
f 136//136 476//476 153//153
f 566//566 596//596 133//133
f 566//566 418//418 596//596
f 527//527 418//418 566//566
f 527//527 386//386 418//418
f 644//644 631//631 615//615
f 632//632 615//615 623//623
f 440//440 718//718 348//348
f 679//679 145//145 401//401
f 679//679 598//598 133//133
f 566//566 133//133 598//598
f 527//527 566//566 548//548
f 527//527 548//548 501//501
f 386//386 631//631 418//418
f 631//631 604//604 615//615
f 644//644 615//615 632//632
f 623//623 569//569 384//384
f 623//623 384//384 397//397
f 397//397 718//718 632//632
f 348//348 718//718 598//598
f 604//604 631//631 429//429
f 718//718 566//566 598//598
f 566//566 397//397 545//545
f 358//358 490//490 548//548
f 386//386 429//429 631//631
f 490//490 358//358 484//484
f 545//545 358//358 548//548
f 397//397 566//566 718//718
f 397//397 358//358 545//545
f 195//195 490//490 711//711
f 490//490 195//195 501//501
f 501//501 195//195 527//527
f 429//429 386//386 135//135
f 358//358 384//384 272//272
f 290//290 490//490 484//484
f 490//490 290//290 711//711
f 527//527 195//195 135//135
f 386//386 527//527 135//135
f 229//229 405//405 398//398
f 290//290 484//484 187//187
f 405//405 415//415 398//398
f 129//129 220//220 398//398
f 5//5 13//13 20//20
f 276//276 369//369 20//20
f 20//20 369//369 5//5
f 5//5 349//349 13//13
f 349//349 580//580 13//13
f 106//106 13//13 582//582
f 255//255 106//106 582//582
f 229//229 19//19 310//310
f 310//310 405//405 229//229
f 334//334 709//709 466//466
f 709//709 334//334 135//135
f 135//135 334//334 429//429
f 409//409 334//334 466//466
f 316//316 466//466 405//405
f 409//409 556//556 334//334
f 334//334 556//556 572//572
f 572//572 556//556 130//130
f 272//272 130//130 187//187
f 272//272 384//384 130//130
f 86//86 495//495 73//73
f 495//495 86//86 342//342
f 342//342 290//290 495//495
f 290//290 342//342 711//711
f 711//711 342//342 712//712
f 166//166 195//195 710//710
f 135//135 195//195 166//166
f 129//129 398//398 415//415
f 129//129 415//415 709//709
f 166//166 710//710 552//552
f 213//213 7//7 220//220
f 276//276 20//20 9//9
f 9//9 20//20 14//14
f 9//9 14//14 383//383
f 369//369 352//352 5//5
f 352//352 349//349 5//5
f 330//330 106//106 95//95
f 12//12 107//107 115//115
f 538//538 525//525 11//11
f 415//415 466//466 709//709
f 466//466 556//556 409//409
f 179//179 86//86 80//80
f 86//86 179//179 176//176
f 249//249 712//712 616//616
f 710//710 195//195 711//711
f 166//166 709//709 135//135
f 129//129 709//709 552//552
f 155//155 220//220 129//129
f 19//19 213//213 18//18
f 213//213 19//19 7//7
f 14//14 10//10 618//618
f 618//618 442//442 14//14
f 618//618 601//601 442//442
f 378//378 383//383 442//442
f 500//500 276//276 9//9
f 297//297 369//369 276//276
f 349//349 352//352 588//588
f 580//580 349//349 585//585
f 255//255 582//582 661//661
f 330//330 95//95 107//107
f 115//115 126//126 17//17
f 36//36 126//126 115//115
f 301//301 538//538 345//345
f 385//385 538//538 301//301
f 538//538 357//357 345//345
f 357//357 538//538 6//6
f 6//6 11//11 15//15
f 538//538 11//11 6//6
f 310//310 525//525 388//388
f 385//385 316//316 388//388
f 385//385 525//525 538//538
f 385//385 388//388 525//525
f 316//316 385//385 301//301
f 316//316 301//301 466//466
f 301//301 305//305 466//466
f 556//556 466//466 305//305
f 556//556 112//112 130//130
f 523//523 80//80 73//73
f 344//344 91//91 179//179
f 342//342 616//616 712//712
f 711//711 712//712 226//226
f 226//226 710//710 711//711
f 226//226 221//221 710//710
f 555//555 552//552 710//710
f 220//220 212//212 213//213
f 212//212 18//18 213//213
f 212//212 220//220 155//155
f 18//18 689//689 645//645
f 640//640 633//633 625//625
f 252//252 451//451 666//666
f 434//434 651//651 258//258
f 252//252 666//666 257//257
f 252//252 257//257 661//661
f 661//661 257//257 255//255
f 666//666 651//651 422//422
f 422//422 257//257 666//666
f 422//422 651//651 635//635
f 422//422 119//119 257//257
f 95//95 98//98 107//107
f 119//119 251//251 95//95
f 118//118 251//251 119//119
f 36//36 28//28 154//154
f 64//64 150//150 154//154
f 67//67 150//150 64//64
f 162//162 4//4 67//67
f 6//6 485//485 357//357
f 179//179 80//80 543//543
f 91//91 344//344 377//377
f 262//262 521//521 446//446
f 262//262 249//249 273//273
f 430//430 249//249 262//262
f 196//196 249//249 430//430
f 196//196 221//221 226//226
f 221//221 555//555 710//710
f 555//555 93//93 552//552
f 555//555 332//332 93//93
f 152//152 332//332 40//40
f 700//700 82//82 152//152
f 152//152 40//40 700//700
f 82//82 212//212 155//155
f 3//3 10//10 645//645
f 3//3 691//691 664//664
f 700//700 691//691 645//645
f 3//3 618//618 10//10
f 3//3 664//664 618//618
f 318//318 326//326 328//328
f 318//318 633//633 326//326
f 378//378 442//442 601//601
f 601//601 625//625 576//576
f 576//576 378//378 601//601
f 383//383 378//378 9//9
f 297//297 276//276 500//500
f 297//297 352//352 369//369
f 352//352 297//297 351//351
f 587//587 597//597 451//451
f 587//587 588//588 351//351
f 587//587 585//585 588//588
f 258//258 666//666 451//451
f 258//258 277//277 434//434
f 277//277 443//443 434//434
f 455//455 264//264 443//443
f 455//455 283//283 264//264
f 283//283 391//391 599//599
f 443//443 651//651 434//434
f 266//266 265//265 77//77
f 77//77 499//499 635//635
f 499//499 422//422 635//635
f 422//422 493//493 119//119
f 493//493 499//499 30//30
f 114//114 28//28 118//118
f 114//114 154//154 28//28
f 154//154 114//114 122//122
f 64//64 154//154 122//122
f 108//108 162//162 97//97
f 16//16 143//143 238//238
f 467//467 485//485 15//15
f 90//90 345//345 357//357
f 345//345 90//90 305//305
f 290//290 55//55 71//71
f 262//262 445//445 389//389
f 191//191 196//196 723//723
f 516//516 555//555 191//191
f 555//555 221//221 191//191
f 702//702 332//332 555//555
f 155//155 93//93 152//152
f 152//152 93//93 332//332
f 329//329 40//40 332//332
f 689//689 700//700 645//645
f 664//664 601//601 618//618
f 516//516 488//488 322//322
f 322//322 318//318 327//327
f 620//620 378//378 576//576
f 387//387 576//576 625//625
f 625//625 558//558 542//542
f 542//542 620//620 387//387
f 542//542 558//558 620//620
f 558//558 454//454 620//620
f 454//454 279//279 620//620
f 456//456 597//597 454//454
f 456//456 267//267 597//597
f 608//608 267//267 456//456
f 608//608 456//456 281//281
f 608//608 281//281 470//470
f 614//614 608//608 470//470
f 662//662 614//614 470//470
f 455//455 277//277 614//614
f 608//608 614//614 277//277
f 267//267 608//608 277//277
f 455//455 614//614 283//283
f 391//391 283//283 268//268
f 311//311 325//325 312//312
f 391//391 311//311 312//312
f 391//391 312//312 295//295
f 599//599 266//266 264//264
f 192//192 266//266 599//599
f 266//266 77//77 635//635
f 192//192 265//265 266//266
f 686//686 204//204 203//203
f 203//203 200//200 201//201
f 201//201 197//197 203//203
f 469//469 307//307 197//197
f 676//676 677//677 667//667
f 667//667 215//215 374//374
f 667//667 677//677 215//215
f 192//192 374//374 205//205
f 192//192 205//205 336//336
f 511//511 192//192 336//336
f 192//192 511//511 265//265
f 265//265 511//511 48//48
f 265//265 499//499 77//77
f 265//265 48//48 44//44
f 511//511 518//518 48//48
f 33//33 30//30 499//499
f 611//611 114//114 118//118
f 611//611 493//493 114//114
f 493//493 121//121 114//114
f 161//161 122//122 121//121
f 121//121 149//149 161//161
f 96//96 64//64 122//122
f 67//67 64//64 97//97
f 2//2 238//238 259//259
f 238//238 2//2 16//16
f 1//1 8//8 2//2
f 467//467 346//346 447//447
f 471//471 90//90 357//357
f 275//275 112//112 305//305
f 556//556 305//305 112//112
f 112//112 172//172 130//130
f 72//72 73//73 71//71
f 73//73 72//72 523//523
f 377//377 344//344 540//540
f 91//91 335//335 627//627
f 335//335 271//271 528//528
f 521//521 528//528 486//486
f 446//446 486//486 573//573
f 486//486 528//528 573//573
f 389//389 196//196 430//430
f 555//555 516//516 702//702
f 601//601 664//664 646//646
f 328//328 326//326 329//329
f 328//328 329//329 327//327
f 516//516 322//322 327//327
f 488//488 516//516 513//513
f 682//682 656//656 513//513
f 488//488 513//513 478//478
f 322//322 473//473 318//318
f 308//308 633//633 318//318
f 308//308 625//625 633//633
f 558//558 625//625 308//308
f 693//693 658//658 690//690
f 687//687 298//298 693//693
f 308//308 298//298 288//288
f 298//298 687//687 288//288
f 454//454 558//558 288//288
f 606//606 320//320 289//289
f 320//320 286//286 289//289
f 674//674 320//320 606//606
f 314//314 269//269 510//510
f 707//707 703//703 706//706
f 707//707 263//263 703//703
f 701//701 675//675 624//624
f 675//675 253//253 624//624
f 672//672 354//354 325//325
f 359//359 696//696 347//347
f 325//325 482//482 312//312
f 686//686 307//307 482//482
f 312//312 482//482 295//295
f 375//375 599//599 391//391
f 599//599 374//374 192//192
f 375//375 374//374 599//599
f 307//307 676//676 482//482
f 676//676 667//667 295//295
f 295//295 482//482 676//676
f 686//686 203//203 307//307
f 686//686 507//507 204//204
f 692//692 218//218 216//216
f 469//469 197//197 282//282
f 282//282 88//88 469//469
f 85//85 676//676 469//469
f 83//83 215//215 677//677
f 511//511 336//336 518//518
f 534//534 520//520 336//336
f 336//336 520//520 518//518
f 48//48 518//518 160//160
f 121//121 33//33 149//149
f 33//33 44//44 149//149
f 148//148 149//149 160//160
f 148//148 208//208 161//161
f 161//161 210//210 122//122
f 210//210 96//96 122//122
f 180//180 210//210 161//161
f 158//158 97//97 96//96
f 238//238 143//143 157//157
f 259//259 1//1 2//2
f 8//8 331//331 346//346
f 464//464 467//467 447//447
f 543//543 80//80 523//523
f 521//521 335//335 528//528
f 271//271 551//551 528//528
f 549//549 573//573 581//581
f 366//366 723//723 196//196
f 332//332 702//702 329//329
f 646//646 691//691 700//700
f 326//326 40//40 329//329
f 40//40 326//326 640//640
f 640//640 646//646 40//40
f 691//691 646//646 664//664
f 327//327 702//702 516//516
f 327//327 329//329 702//702
f 516//516 682//682 513//513
f 366//366 656//656 723//723
f 721//721 445//445 408//408
f 722//722 721//721 719//719
f 663//663 670//670 366//366
f 670//670 663//663 658//658
f 658//658 656//656 670//670
f 656//656 478//478 513//513
f 488//488 478//478 322//322
f 322//322 298//298 473//473
f 308//308 473//473 298//298
f 649//649 690//690 658//658
f 624//624 690//690 649//649
f 693//693 690//690 687//687
f 690//690 606//606 687//687
f 687//687 289//289 286//286
f 281//281 288//288 687//687
f 699//699 674//674 606//606
f 320//320 662//662 286//286
f 674//674 253//253 675//675
f 699//699 253//253 674//674
f 253//253 699//699 690//690
f 253//253 690//690 624//624
f 321//321 314//314 502//502
f 291//291 302//302 314//314
f 707//707 302//302 263//263
f 675//675 701//701 343//343
f 359//359 280//280 696//696
f 507//507 227//227 204//204
f 225//225 692//692 227//227
f 692//692 204//204 227//227
f 282//282 197//197 201//201
f 206//206 201//201 200//200
f 206//206 200//200 216//216
f 206//206 353//353 201//201
f 201//201 353//353 282//282
f 294//294 282//282 353//353
f 285//285 88//88 294//294
f 339//339 83//83 287//287
f 535//535 61//61 520//520
f 48//48 160//160 44//44
f 160//160 149//149 44//44
f 163//163 148//148 160//160
f 186//186 181//181 120//120
f 175//175 148//148 170//170
f 208//208 148//148 175//175
f 208//208 175//175 180//180
f 210//210 158//158 96//96
f 331//331 1//1 254//254
f 360//360 331//331 254//254
f 292//292 247//247 254//254
f 256//256 261//261 274//274
f 274//274 270//270 275//275
f 274//274 261//261 270//270
f 247//247 256//256 254//254
f 447//447 331//331 360//360
f 471//471 485//485 464//464
f 274//274 275//275 90//90
f 172//172 55//55 187//187
f 71//71 60//60 72//72
f 68//68 523//523 72//72
f 523//523 522//522 543//543
f 178//178 350//350 124//124
f 540//540 124//124 185//185
f 377//377 540//540 185//185
f 581//581 563//563 549//549
f 406//406 483//483 549//549
f 406//406 553//553 483//483
f 722//722 366//366 389//389
f 366//366 670//670 656//656
f 553//553 408//408 445//445
f 364//364 406//406 550//550
f 306//306 649//649 719//719
f 478//478 658//658 693//693
f 649//649 658//658 719//719
f 306//306 715//715 649//649
f 706//706 715//715 306//306
f 706//706 306//306 313//313
f 510//510 269//269 313//313
f 510//510 313//313 364//364
f 510//510 364//364 532//532
f 529//529 512//512 532//532
f 512//512 338//338 717//717
f 303//303 717//717 338//338
f 390//390 504//504 303//303
f 717//717 303//303 716//716
f 321//321 502//502 491//491
f 701//701 263//263 359//359
f 675//675 343//343 672//672
f 672//672 674//674 675//675
f 354//354 343//343 359//359
f 263//263 280//280 359//359
f 359//359 343//343 701//701
f 291//291 280//280 302//302
f 491//491 589//589 321//321
f 321//321 589//589 291//291
f 404//404 280//280 291//291
f 507//507 347//347 227//227
f 460//460 225//225 696//696
f 218//218 460//460 237//237
f 218//218 237//237 465//465
f 225//225 460//460 692//692
f 216//216 218//218 694//694
f 694//694 218//218 465//465
f 214//214 353//353 206//206
f 494//494 361//361 694//694
f 361//361 365//365 319//319
f 353//353 214//214 361//361
f 304//304 296//296 294//294
f 562//562 287//287 296//296
f 70//70 535//535 339//339
f 534//534 339//339 535//535
f 520//520 61//61 518//518
f 61//61 160//160 518//518
f 171//171 167//167 61//61
f 171//171 61//61 70//70
f 287//287 562//562 70//70
f 70//70 562//562 92//92
f 462//462 32//32 579//579
f 92//92 579//579 32//32
f 92//92 171//171 70//70
f 181//181 163//163 167//167
f 128//128 120//120 110//110
f 163//163 186//186 193//193
f 161//161 149//149 148//148
f 170//170 148//148 163//163
f 186//186 163//163 181//181
f 120//120 181//181 110//110
f 259//259 238//238 228//228
f 254//254 1//1 292//292
f 244//244 247//247 235//235
f 270//270 247//247 379//379
f 275//275 379//379 278//278
f 112//112 275//275 278//278
f 172//172 278//278 102//102
f 102//102 41//41 172//172
f 41//41 42//42 46//46
f 41//41 46//46 55//55
f 523//523 68//68 522//522
f 506//506 123//123 543//543
f 79//79 177//177 178//178
f 124//124 350//350 414//414
f 568//568 185//185 414//414
f 568//568 377//377 185//185
f 271//271 568//568 551//551
f 551//551 568//568 544//544
f 563//563 439//439 550//550
f 549//549 563//563 550//550
f 406//406 549//549 550//550
f 406//406 408//408 553//553
f 341//341 408//408 406//406
f 373//373 338//338 529//529
f 390//390 450//450 492//492
f 338//338 367//367 303//303
f 502//502 717//717 637//637
f 696//696 280//280 404//404
f 704//704 236//236 589//589
f 421//421 704//704 589//589
f 595//595 567//567 704//704
f 216//216 214//214 206//206
f 546//546 694//694 465//465
f 546//546 393//393 694//694
f 393//393 494//494 694//694
f 494//494 393//393 370//370
f 396//396 372//372 380//380
f 309//309 294//294 353//353
f 319//319 309//309 353//353
f 309//309 304//304 294//294
f 413//413 403//403 417//417
f 431//431 462//462 403//403
f 32//32 99//99 92//92
f 32//32 603//603 99//99
f 110//110 99//99 603//603
f 184//184 175//175 362//362
f 193//193 362//362 175//175
f 193//193 175//175 170//170
f 235//235 292//292 228//228
f 184//184 371//371 244//244
f 244//244 371//371 142//142
f 244//244 142//142 151//151
f 379//379 244//244 151//151
f 379//379 151//151 278//278
f 543//543 522//522 506//506
f 174//174 123//123 506//506
f 530//530 544//544 568//568
f 439//439 563//563 450//450
f 373//373 439//439 367//367
f 367//367 439//439 450//450
f 532//532 550//550 373//373
f 364//364 550//550 532//532
f 492//492 450//450 581//581
f 492//492 536//536 515//515
f 650//650 303//303 504//504
f 505//505 650//650 504//504
f 637//637 489//489 502//502
f 489//489 491//491 502//502
f 637//637 629//629 489//489
f 637//637 716//716 629//629
f 629//629 567//567 421//421
f 567//567 595//595 421//421
f 393//393 546//546 293//293
f 441//441 293//293 697//697
f 639//639 324//324 323//323
f 441//441 514//514 293//293
f 416//416 380//380 324//324
f 324//324 638//638 416//416
f 380//380 293//293 324//324
f 380//380 365//365 370//370
f 370//370 393//393 380//380
f 416//416 638//638 394//394
f 380//380 416//416 396//396
f 400//400 396//396 416//416
f 400//400 372//372 396//396
f 100//100 376//376 372//372
f 372//372 376//376 319//319
f 376//376 309//309 319//319
f 100//100 103//103 376//376
f 309//309 413//413 317//317
f 449//449 498//498 165//165
f 449//449 621//621 498//498
f 621//621 497//497 498//498
f 497//497 475//475 498//498
f 333//333 497//497 517//517
f 436//436 438//438 431//431
f 403//403 169//169 431//431
f 462//462 431//431 438//438
f 39//39 603//603 32//32
f 186//186 120//120 363//363
f 362//362 193//193 363//363
f 219//219 184//184 235//235
f 362//362 371//371 184//184
f 41//41 102//102 42//42
f 72//72 463//463 68//68
f 234//234 368//368 515//515
f 390//390 492//492 515//515
f 530//530 515//515 536//536
f 530//530 560//560 515//515
f 560//560 684//684 515//515
f 560//560 420//420 684//684
f 554//554 63//63 420//420
f 63//63 554//554 177//177
f 63//63 177//177 173//173
f 173//173 503//503 63//63
f 420//420 503//503 683//683
f 504//504 390//390 368//368
f 368//368 514//514 504//504
f 234//234 323//323 514//514
f 683//683 657//657 684//684
f 479//479 684//684 657//657
f 668//668 657//657 683//683
f 503//503 695//695 668//668
f 503//503 668//668 683//683
f 668//668 695//695 260//260
f 638//638 479//479 394//394
f 416//416 394//394 400//400
f 372//372 392//392 100//100
f 559//559 557//557 333//333
f 559//559 333//333 517//517
f 559//559 517//517 593//593
f 621//621 593//593 497//497
f 517//517 497//497 593//593
f 381//381 333//333 557//557
f 333//333 475//475 497//497
f 475//475 165//165 498//498
f 431//431 169//169 165//165
f 431//431 165//165 315//315
f 431//431 315//315 436//436
f 32//32 462//462 487//487
f 32//32 487//487 39//39
f 362//362 363//363 142//142
f 144//144 69//69 76//76
f 156//156 42//42 102//102
f 60//60 42//42 34//34
f 522//522 68//68 685//685
f 522//522 509//509 506//506
f 503//503 79//79 427//427
f 673//673 217//217 260//260
f 260//260 695//695 427//427
f 78//78 79//79 174//174
f 506//506 78//78 174//174
f 506//506 508//508 78//78
f 79//79 508//508 427//427
f 427//427 508//508 260//260
f 669//669 621//621 479//479
f 411//411 557//557 425//425
f 433//433 411//411 448//448
f 42//42 156//156 76//76
f 42//42 76//76 34//34
f 60//60 34//34 463//463
f 481//481 509//509 685//685
f 506//506 481//481 508//508
f 673//673 134//134 217//217
f 217//217 134//134 708//708
f 669//669 479//479 657//657
f 652//652 708//708 134//134
f 559//559 708//708 652//652
f 425//425 652//652 659//659
f 458//458 448//448 453//453
f 678//678 481//481 468//468
f 678//678 468//468 655//655
f 659//659 134//134 655//655
f 468//468 453//453 655//655
f 461//461 468//468 685//685
f 685//685 468//468 481//481
f 468//468 461//461 458//458
f 463//463 461//461 685//685
f 425//425 655//655 448//448
f 453//453 448//448 655//655
f 453//453 468//468 458//458
f 425//425 659//659 655//655
f 659//659 652//652 134//134
f 134//134 678//678 655//655
f 678//678 134//134 673//673
f 481//481 678//678 508//508
f 463//463 459//459 461//461
f 34//34 459//459 463//463
f 76//76 459//459 34//34
f 458//458 461//461 433//433
f 448//448 458//458 433//433
f 461//461 459//459 433//433
f 708//708 593//593 217//217
f 593//593 657//657 217//217
f 669//669 657//657 593//593
f 678//678 673//673 260//260
f 509//509 481//481 506//506
f 76//76 66//66 459//459
f 66//66 433//433 459//459
f 66//66 496//496 433//433
f 433//433 496//496 437//437
f 437//437 411//411 433//433
f 381//381 557//557 411//411
f 411//411 437//437 438//438
f 165//165 475//475 315//315
f 475//475 333//333 315//315
f 315//315 333//333 381//381
f 381//381 438//438 436//436
f 51//51 66//66 54//54
f 66//66 51//51 496//496
f 496//496 487//487 437//437
f 51//51 487//487 496//496
f 69//69 54//54 66//66
f 128//128 69//69 363//363
f 54//54 69//69 128//128
f 432//432 438//438 437//437
f 438//438 432//432 462//462
f 487//487 51//51 39//39
f 51//51 603//603 39//39
f 315//315 381//381 436//436
f 411//411 438//438 381//381
f 448//448 411//411 425//425
f 557//557 652//652 425//425
f 559//559 593//593 708//708
f 621//621 669//669 593//593
f 508//508 678//678 260//260
f 508//508 79//79 78//78
f 503//503 427//427 695//695
f 173//173 79//79 503//503
f 102//102 84//84 156//156
f 151//151 142//142 84//84
f 69//69 144//144 363//363
f 142//142 363//363 144//144
f 156//156 144//144 76//76
f 84//84 142//142 144//144
f 144//144 156//156 84//84
f 69//69 66//66 76//76
f 363//363 120//120 128//128
f 110//110 603//603 54//54
f 54//54 603//603 51//51
f 487//487 462//462 432//432
f 487//487 432//432 437//437
f 559//559 652//652 557//557
f 449//449 479//479 621//621
f 449//449 394//394 479//479
f 449//449 109//109 395//395
f 100//100 109//109 103//103
f 169//169 109//109 165//165
f 165//165 109//109 449//449
f 394//394 449//449 395//395
f 394//394 100//100 392//392
f 400//400 394//394 392//392
f 400//400 392//392 372//372
f 638//638 684//684 479//479
f 260//260 217//217 668//668
f 657//657 668//668 217//217
f 684//684 323//323 234//234
f 639//639 323//323 684//684
f 638//638 639//639 684//684
f 554//554 420//420 560//560
f 368//368 390//390 515//515
f 350//350 177//177 554//554
f 79//79 173//173 177//177
f 522//522 685//685 509//509
f 463//463 685//685 68//68
f 151//151 84//84 102//102
f 362//362 142//142 371//371
f 184//184 219//219 180//180
f 363//363 193//193 186//186
f 403//403 413//413 169//169
f 169//169 413//413 109//109
f 103//103 109//109 413//413
f 317//317 296//296 304//304
f 413//413 296//296 317//317
f 413//413 309//309 103//103
f 296//296 413//413 417//417
f 395//395 109//109 100//100
f 395//395 100//100 394//394
f 376//376 103//103 309//309
f 319//319 365//365 372//372
f 380//380 393//393 293//293
f 324//324 293//293 514//514
f 293//293 546//546 697//697
f 638//638 324//324 639//639
f 324//324 514//514 323//323
f 504//504 514//514 441//441
f 504//504 441//441 505//505
f 650//650 629//629 716//716
f 567//567 629//629 505//505
f 441//441 697//697 567//567
f 567//567 505//505 441//441
f 505//505 629//629 650//650
f 489//489 629//629 589//589
f 234//234 514//514 368//368
f 683//683 684//684 420//420
f 63//63 503//503 420//420
f 684//684 234//234 515//515
f 536//536 544//544 530//530
f 414//414 350//350 554//554
f 185//185 124//124 414//414
f 414//414 554//554 560//560
f 560//560 568//568 414//414
f 568//568 560//560 530//530
f 463//463 72//72 60//60
f 102//102 278//278 151//151
f 259//259 228//228 292//292
f 219//219 235//235 228//228
f 180//180 175//175 184//184
f 110//110 54//54 128//128
f 171//171 99//99 181//181
f 171//171 181//181 167//167
f 181//181 99//99 110//110
f 462//462 579//579 403//403
f 403//403 579//579 417//417
f 579//579 92//92 562//562
f 562//562 296//296 417//417
f 309//309 317//317 304//304
f 380//380 372//372 365//365
f 494//494 370//370 365//365
f 697//697 546//546 465//465
f 697//697 465//465 239//239
f 694//694 214//214 216//216
f 361//361 214//214 694//694
f 697//697 239//239 567//567
f 704//704 567//567 239//239
f 421//421 595//595 704//704
f 629//629 421//421 589//589
f 404//404 236//236 237//237
f 236//236 239//239 465//465
f 236//236 404//404 589//589
f 489//489 589//589 491//491
f 716//716 637//637 717//717
f 390//390 367//367 450//450
f 338//338 373//373 367//367
f 529//529 532//532 373//373
f 439//439 373//373 550//550
f 581//581 450//450 563//563
f 178//178 177//177 350//350
f 174//174 79//79 178//178
f 178//178 123//123 174//174
f 42//42 60//60 46//46
f 379//379 275//275 270//270
f 379//379 247//247 244//244
f 184//184 244//244 235//235
f 228//228 238//238 158//158
f 210//210 228//228 158//158
f 210//210 219//219 228//228
f 167//167 160//160 61//61
f 171//171 92//92 99//99
f 562//562 417//417 579//579
f 287//287 70//70 339//339
f 70//70 61//61 535//535
f 285//285 296//296 287//287
f 294//294 296//296 285//285
f 361//361 319//319 353//353
f 365//365 361//361 494//494
f 236//236 704//704 239//239
f 236//236 465//465 237//237
f 404//404 237//237 460//460
f 404//404 460//460 696//696
f 227//227 347//347 225//225
f 347//347 696//696 225//225
f 589//589 404//404 291//291
f 321//321 291//291 314//314
f 512//512 502//502 510//510
f 512//512 717//717 502//502
f 716//716 303//303 650//650
f 367//367 390//390 303//303
f 529//529 338//338 512//512
f 512//512 510//510 532//532
f 510//510 502//502 314//314
f 341//341 364//364 313//313
f 341//341 313//313 306//306
f 269//269 706//706 313//313
f 721//721 306//306 719//719
f 306//306 721//721 341//341
f 406//406 364//364 341//341
f 389//389 445//445 721//721
f 722//722 389//389 721//721
f 722//722 663//663 366//366
f 536//536 492//492 581//581
f 544//544 541//541 551//551
f 124//124 123//123 178//178
f 60//60 71//71 46//46
f 71//71 55//55 46//46
f 172//172 41//41 55//55
f 471//471 464//464 274//274
f 464//464 256//256 274//274
f 447//447 360//360 464//464
f 464//464 360//360 256//256
f 261//261 247//247 270//270
f 256//256 247//247 261//261
f 292//292 235//235 247//247
f 1//1 259//259 292//292
f 157//157 158//158 238//238
f 180//180 219//219 210//210
f 193//193 170//170 163//163
f 167//167 163//163 160//160
f 83//83 339//339 534//534
f 285//285 287//287 88//88
f 88//88 287//287 83//83
f 294//294 88//88 282//282
f 88//88 85//85 469//469
f 460//460 218//218 692//692
f 347//347 354//354 359//359
f 263//263 701//701 713//713
f 703//703 263//263 713//713
f 280//280 263//263 302//302
f 703//703 713//713 706//706
f 699//699 606//606 690//690
f 606//606 289//289 687//687
f 715//715 624//624 649//649
f 298//298 322//322 693//693
f 473//473 308//308 318//318
f 478//478 693//693 322//322
f 656//656 658//658 478//478
f 658//658 663//663 719//719
f 719//719 663//663 722//722
f 341//341 721//721 408//408
f 682//682 516//516 191//191
f 723//723 682//682 191//191
f 553//553 445//445 446//446
f 581//581 573//573 541//541
f 581//581 544//544 536//536
f 541//541 544//544 581//581
f 551//551 541//541 528//528
f 271//271 377//377 568//568
f 124//124 540//540 123//123
f 278//278 172//172 112//112
f 90//90 275//275 305//305
f 90//90 471//471 274//274
f 485//485 467//467 464//464
f 360//360 254//254 256//256
f 8//8 1//1 331//331
f 97//97 158//158 157//157
f 161//161 208//208 180//180
f 122//122 114//114 121//121
f 30//30 33//33 121//121
f 534//534 535//535 520//520
f 205//205 534//534 336//336
f 534//534 205//205 83//83
f 83//83 205//205 215//215
f 88//88 83//83 85//85
f 83//83 677//677 85//85
f 676//676 85//85 677//677
f 216//216 200//200 692//692
f 692//692 200//200 204//204
f 686//686 482//482 325//325
f 507//507 686//686 354//354
f 354//354 347//347 507//507
f 686//686 325//325 354//354
f 354//354 672//672 343//343
f 325//325 311//311 320//320
f 325//325 320//320 672//672
f 311//311 268//268 320//320
f 614//614 268//268 283//283
f 391//391 268//268 311//311
f 701//701 624//624 715//715
f 713//713 701//701 715//715
f 302//302 707//707 314//314
f 314//314 707//707 269//269
f 269//269 707//707 706//706
f 715//715 706//706 713//713
f 286//286 662//662 470//470
f 687//687 286//286 470//470
f 288//288 281//281 454//454
f 288//288 558//558 308//308
f 656//656 682//682 723//723
f 196//196 389//389 366//366
f 262//262 446//446 445//445
f 446//446 483//483 553//553
f 446//446 573//573 483//483
f 573//573 549//549 483//483
f 528//528 541//541 573//573
f 486//486 446//446 521//521
f 187//187 130//130 172//172
f 331//331 447//447 346//346
f 8//8 346//346 2//2
f 108//108 97//97 157//157
f 143//143 108//108 157//157
f 96//96 97//97 64//64
f 30//30 121//121 493//493
f 44//44 33//33 499//499
f 44//44 499//499 265//265
f 205//205 374//374 215//215
f 203//203 197//197 307//307
f 469//469 676//676 307//307
f 204//204 200//200 203//203
f 295//295 667//667 374//374
f 295//295 374//374 375//375
f 295//295 375//375 391//391
f 277//277 258//258 267//267
f 267//267 258//258 451//451
f 267//267 451//451 597//597
f 662//662 268//268 614//614
f 662//662 320//320 268//268
f 672//672 320//320 674//674
f 351//351 297//297 279//279
f 279//279 454//454 597//597
f 470//470 281//281 687//687
f 281//281 456//456 454//454
f 620//620 576//576 387//387
f 625//625 542//542 387//387
f 620//620 500//500 378//378
f 500//500 9//9 378//378
f 318//318 328//328 327//327
f 640//640 601//601 646//646
f 700//700 689//689 82//82
f 646//646 700//700 40//40
f 430//430 262//262 389//389
f 616//616 91//91 627//627
f 176//176 91//91 616//616
f 271//271 335//335 91//91
f 91//91 377//377 271//271
f 344//344 123//123 540//540
f 123//123 344//344 543//543
f 357//357 485//485 471//471
f 15//15 346//346 467//467
f 2//2 346//346 15//15
f 17//17 4//4 162//162
f 150//150 67//67 4//4
f 36//36 115//115 28//28
f 98//98 28//28 115//115
f 98//98 251//251 28//28
f 118//118 28//28 251//251
f 493//493 611//611 119//119
f 422//422 499//499 493//493
f 264//264 266//266 443//443
f 599//599 264//264 283//283
f 455//455 443//443 277//277
f 588//588 585//585 349//349
f 279//279 587//587 351//351
f 597//597 587//587 279//279
f 279//279 297//297 500//500
f 620//620 279//279 500//500
f 640//640 625//625 601//601
f 633//633 640//640 326//326
f 3//3 645//645 691//691
f 155//155 152//152 82//82
f 93//93 155//155 129//129
f 191//191 221//221 196//196
f 196//196 226//226 249//249
f 521//521 262//262 273//273
f 521//521 273//273 627//627
f 521//521 627//627 335//335
f 627//627 273//273 616//616
f 176//176 616//616 342//342
f 91//91 176//176 179//179
f 344//344 179//179 543//543
f 290//290 187//187 55//55
f 305//305 301//301 345//345
f 16//16 17//17 143//143
f 143//143 17//17 108//108
f 17//17 162//162 108//108
f 162//162 67//67 97//97
f 150//150 36//36 154//154
f 95//95 251//251 98//98
f 611//611 118//118 119//119
f 119//119 95//95 255//255
f 255//255 257//257 119//119
f 443//443 266//266 635//635
f 443//443 635//635 651//651
f 258//258 651//651 666//666
f 661//661 585//585 252//252
f 451//451 252//252 587//587
f 252//252 585//585 587//587
f 351//351 588//588 352//352
f 18//18 82//82 689//689
f 212//212 82//82 18//18
f 552//552 93//93 129//129
f 249//249 226//226 712//712
f 249//249 616//616 273//273
f 6//6 15//15 485//485
f 126//126 36//36 4//4
f 36//36 150//150 4//4
f 115//115 107//107 98//98
f 585//585 661//661 582//582
f 582//582 580//580 585//585
f 73//73 80//80 86//86
f 71//71 73//73 495//495
f 316//316 405//405 388//388
f 310//310 388//388 405//405
f 115//115 17//17 12//12
f 106//106 255//255 95//95
f 442//442 383//383 14//14
f 229//229 398//398 7//7
f 7//7 398//398 220//220
f 552//552 709//709 166//166
f 342//342 86//86 176//176
f 495//495 290//290 71//71
f 384//384 569//569 130//130
f 130//130 569//569 572//572
f 405//405 466//466 415//415
f 604//604 334//334 615//615
f 429//429 334//334 604//604
f 11//11 310//310 19//19
f 310//310 11//11 525//525
f 12//12 330//330 107//107
f 330//330 13//13 106//106
f 582//582 13//13 580//580
f 572//572 569//569 623//623
f 187//187 484//484 272//272
f 615//615 334//334 572//572
f 615//615 572//572 623//623
f 484//484 358//358 272//272
f 397//397 384//384 358//358
f 548//548 566//566 545//545
f 501//501 548//548 490//490
f 632//632 623//623 397//397
f 153//153 476//476 412//412
f 399//399 153//153 428//428
f 412//412 428//428 153//153
f 399//399 428//428 444//444
f 444//444 424//424 399//399
f 435//435 457//457 426//426
f 412//412 476//476 145//145
f 476//476 681//681 679//679
f 681//681 348//348 679//679
f 632//632 718//718 440//440
f 596//596 418//418 423//423
f 133//133 596//596 565//565
f 426//426 444//444 168//168
f 168//168 435//435 426//426
f 531//531 698//698 159//159
f 199//199 190//190 440//440
f 199//199 440//440 117//117
f 190//190 29//29 300//300
f 591//591 29//29 524//524
f 524//524 519//519 591//591
f 35//35 113//113 537//537
f 35//35 578//578 113//113
f 35//35 243//243 127//127
f 607//607 407//407 590//590
f 407//407 607//607 613//613
f 410//410 407//407 628//628
f 477//477 444//444 410//410
f 230//230 168//168 444//444
f 648//648 705//705 602//602
f 688//688 435//435 168//168
f 705//705 636//636 531//531
f 531//531 602//602 705//705
f 547//547 194//194 531//531
f 194//194 189//189 531//531
f 577//577 698//698 564//564
f 159//159 698//698 231//231
f 472//472 153//153 424//424
f 472//472 138//138 153//153
f 113//113 524//524 537//537
f 402//402 561//561 419//419
f 202//202 198//198 452//452
f 146//146 74//74 147//147
f 147//147 480//480 146//146
f 480//480 147//147 622//622
f 50//50 198//198 202//202
f 35//35 537//537 222//222
f 480//480 628//628 613//613
f 648//648 223//223 246//246
f 648//648 246//246 242//242
f 654//654 648//648 242//242
f 241//241 444//444 477//477
f 410//410 480//480 477//477
f 628//628 480//480 410//410
f 137//137 127//127 243//243
f 583//583 137//137 590//590
f 590//590 50//50 607//607
f 583//583 127//127 137//137
f 590//590 137//137 50//50
f 223//223 575//575 168//168
f 654//654 714//714 647//647
f 636//636 647//647 714//714
f 636//636 705//705 641//641
f 531//531 159//159 602//602
f 159//159 680//680 602//602
f 665//665 688//688 680//680
f 159//159 665//665 680//680
f 194//194 547//547 643//643
f 194//194 643//643 564//564
f 194//194 188//188 164//164
f 188//188 571//571 164//164
f 189//189 571//571 188//188
f 194//194 571//571 189//189
f 188//188 531//531 189//189
f 194//194 164//164 571//571
f 355//355 564//564 642//642
f 577//577 626//626 653//653
f 577//577 619//619 698//698
f 619//619 626//626 232//232
f 87//87 89//89 94//94
f 299//299 81//81 284//284
f 299//299 622//622 116//116
f 87//87 224//224 89//89
f 340//340 62//62 207//207
f 472//472 457//457 141//141
f 457//457 231//231 141//141
f 681//681 132//132 117//117
f 132//132 199//199 117//117
f 47//47 37//37 474//474
f 537//537 524//524 209//209
f 537//537 209//209 59//59
f 75//75 402//402 59//59
f 43//43 52//52 75//75
f 105//105 584//584 45//45
f 584//584 574//574 52//52
f 584//584 52//52 49//49
f 243//243 419//419 570//570
f 241//241 240//240 526//526
f 240//240 477//477 622//622
f 477//477 480//480 622//622
f 202//202 74//74 146//146
f 243//243 198//198 137//137
f 613//613 607//607 202//202
f 337//337 634//634 356//356
f 356//356 382//382 355//355
f 245//245 233//233 382//382
f 382//382 626//626 355//355
f 245//245 382//382 720//720
f 233//233 232//232 626//626
f 248//248 125//125 62//62
f 62//62 245//245 248//248
f 207//207 62//62 125//125
f 89//89 224//224 207//207
f 250//250 660//660 242//242
f 630//630 660//660 125//125
f 250//250 207//207 125//125
f 65//65 299//299 284//284
f 65//65 284//284 94//94
f 622//622 299//299 65//65
f 52//52 570//570 75//75
f 223//223 526//526 246//246
f 660//660 337//337 242//242
f 654//654 242//242 337//337
f 382//382 356//356 634//634
f 634//634 720//720 382//382
f 630//630 248//248 720//720
f 720//720 248//248 245//245
f 232//232 233//233 62//62
f 62//62 233//233 245//245
f 250//250 125//125 660//660
f 250//250 246//246 104//104
f 65//65 94//94 104//104
f 584//584 105//105 202//202
f 116//116 74//74 105//105
f 622//622 147//147 116//116
f 452//452 584//584 202//202
f 574//574 452//452 198//198
f 105//105 74//74 202//202
f 74//74 116//116 147//147
f 570//570 574//574 243//243
f 574//574 584//584 452//452
f 526//526 240//240 65//65
f 660//660 630//630 634//634
f 630//630 720//720 634//634
f 65//65 104//104 526//526
f 246//246 526//526 104//104
f 242//242 246//246 250//250
f 198//198 243//243 574//574
f 574//574 570//570 52//52
f 89//89 207//207 250//250
f 89//89 250//250 104//104
f 104//104 94//94 89//89
f 125//125 248//248 630//630
f 626//626 382//382 233//233
f 337//337 660//660 634//634
f 241//241 526//526 230//230
f 230//230 526//526 223//223
f 477//477 240//240 241//241
f 480//480 613//613 146//146
f 607//607 50//50 202//202
f 50//50 137//137 198//198
f 146//146 613//613 202//202
f 622//622 65//65 240//240
f 570//570 561//561 75//75
f 101//101 58//58 116//116
f 49//49 45//45 584//584
f 58//58 299//299 116//116
f 211//211 340//340 207//207
f 340//340 232//232 62//62
f 87//87 284//284 605//605
f 600//600 284//284 81//81
f 600//600 81//81 53//53
f 605//605 284//284 56//56
f 87//87 211//211 224//224
f 605//605 57//57 87//87
f 87//87 183//183 211//211
f 577//577 653//653 619//619
f 183//183 141//141 231//231
f 138//138 141//141 57//57
f 681//681 136//136 594//594
f 59//59 31//31 52//52
f 474//474 609//609 31//31
f 43//43 75//75 59//59
f 101//101 53//53 58//58
f 81//81 299//299 53//53
f 94//94 284//284 87//87
f 87//87 57//57 183//183
f 182//182 612//612 340//340
f 340//340 211//211 182//182
f 183//183 182//182 211//211
f 141//141 183//183 57//57
f 182//182 619//619 612//612
f 231//231 182//182 183//183
f 139//139 136//136 138//138
f 136//136 139//139 594//594
f 539//539 533//533 199//199
f 52//52 43//43 59//59
f 56//56 138//138 605//605
f 57//57 605//605 138//138
f 140//140 139//139 138//138
f 37//37 610//610 474//474
f 474//474 610//610 609//609
f 533//533 610//610 199//199
f 132//132 539//539 199//199
f 617//617 533//533 539//539
f 38//38 594//594 101//101
f 594//594 53//53 101//101
f 45//45 38//38 101//101
f 600//600 140//140 56//56
f 38//38 592//592 594//594
f 140//140 600//600 139//139
f 539//539 132//132 38//38
f 617//617 539//539 49//49
f 132//132 592//592 38//38
f 594//594 592//592 681//681
f 53//53 594//594 139//139
f 600//600 53//53 139//139
f 539//539 38//38 49//49
f 49//49 38//38 45//45
f 609//609 533//533 617//617
f 132//132 681//681 592//592
f 140//140 138//138 56//56
f 31//31 617//617 52//52
f 31//31 609//609 617//617
f 610//610 533//533 609//609
f 37//37 29//29 610//610
f 299//299 58//58 53//53
f 52//52 617//617 49//49
f 402//402 537//537 59//59
f 47//47 31//31 59//59
f 199//199 610//610 29//29
f 612//612 619//619 232//232
f 340//340 612//612 232//232
f 600//600 56//56 284//284
f 105//105 45//45 101//101
f 105//105 101//101 116//116
f 47//47 524//524 37//37
f 209//209 524//524 47//47
f 113//113 519//519 524//524
f 59//59 209//209 47//47
f 31//31 47//47 474//474
f 141//141 138//138 472//472
f 211//211 207//207 224//224
f 619//619 653//653 626//626
f 619//619 182//182 698//698
f 182//182 231//231 698//698
f 626//626 577//577 355//355
f 355//355 642//642 356//356
f 356//356 642//642 643//643
f 356//356 643//643 714//714
f 636//636 547//547 531//531
f 547//547 636//636 643//643
f 636//636 714//714 643//643
f 355//355 577//577 564//564
f 647//647 636//636 641//641
f 648//648 641//641 705//705
f 356//356 714//714 337//337
f 337//337 714//714 654//654
f 654//654 641//641 648//648
f 647//647 641//641 654//654
f 648//648 575//575 223//223
f 168//168 230//230 223//223
f 230//230 444//444 241//241
f 35//35 222//222 243//243
f 561//561 402//402 75//75
f 419//419 537//537 402//402
f 524//524 29//29 37//37
f 199//199 29//29 190//190
f 681//681 476//476 136//136
f 698//698 531//531 564//564
f 564//564 188//188 194//194
f 159//159 231//231 665//665
f 168//168 575//575 688//688
f 602//602 575//575 648//648
f 578//578 35//35 127//127
f 578//578 519//519 113//113
f 583//583 111//111 578//578
f 111//111 519//519 578//578
f 519//519 111//111 591//591
f 628//628 407//407 613//613
f 127//127 583//583 578//578
f 243//243 222//222 419//419
f 419//419 561//561 570//570
f 537//537 419//419 222//222
f 300//300 29//29 591//591
f 153//153 138//138 136//136
f 231//231 457//457 665//665
f 643//643 642//642 564//564
f 564//564 531//531 188//188
f 665//665 435//435 688//688
f 428//428 410//410 444//444
f 428//428 412//412 410//410
f 671//671 583//583 590//590
f 590//590 131//131 671//671
f 583//583 671//671 111//111
f 426//426 424//424 444//444
f 426//426 457//457 472//472
f 424//424 153//153 399//399
f 681//681 117//117 348//348
f 631//631 644//644 423//423
f 596//596 131//131 565//565
f 300//300 671//671 586//586
f 412//412 145//145 410//410
f 133//133 131//131 407//407
f 190//190 300//300 27//27
f 27//27 423//423 644//644
f 300//300 586//586 27//27