# https://github.com/mikedh/trimesh
v -0.02075500 -0.01334600 -0.03714400
v -0.01787300 -0.03266600 -0.03855100
v -0.03895700 -0.01892200 -0.03693200
v -0.01972700 -0.03697800 0.00496100
v -0.01161600 -0.03891600 -0.03569500
v -0.00078600 -0.03972100 -0.03613700
v -0.04244200 -0.01055400 -0.03477200
v 0.01465800 -0.03226500 -0.03889600
v 0.00710300 -0.01146100 -0.03724900
v -0.02707500 -0.03288300 0.03897000
v -0.02411100 -0.03447300 -0.03590800
v 0.00680600 -0.03570800 -0.03586300
v -0.04403600 0.00523700 -0.03207200
v -0.03537500 -0.02564800 -0.01061300
v -0.00505500 -0.04028300 0.01349700
v -0.03720000 -0.01061100 -0.03767100
v -0.04138200 -0.01085000 -0.03510500
v -0.00427900 -0.03582600 -0.03695400
v -0.02151800 -0.03195800 -0.03757400
v -0.02069900 -0.02167100 -0.03670000
v -0.03225500 -0.02089100 -0.03548000
v -0.01428600 -0.03198600 -0.03484100
v -0.03558300 -0.02365300 -0.00051100
v -0.03079200 -0.00360300 -0.02812400
v -0.01520200 -0.02033000 -0.02628200
v 0.00421700 -0.01936500 -0.02340000
v 0.01434700 -0.02060900 -0.00152000
v -0.02497100 -0.01737900 -0.00068600
v -0.02188800 -0.00961600 -0.01522100
v -0.00473000 -0.02404200 -0.00315800
v 0.00892900 -0.03896600 0.03693000
v 0.01209600 -0.03685700 -0.03291800
v 0.02249900 -0.03023600 -0.03678900
v 0.01076500 -0.03765700 -0.00906500
v 0.01929700 -0.03200600 -0.00047900
v 0.03205300 -0.01877900 0.00260900
v 0.01590500 -0.02999800 -0.03769900
v -0.01218800 0.03630800 -0.03873200
v 0.03070800 0.00523900 -0.03888900
v -0.00149800 0.01825900 -0.03713700
v 0.01662700 0.03270500 -0.03888500
v -0.04024100 0.00863200 -0.03876200
v 0.00578000 0.00330200 -0.03558100
v -0.03169000 0.02252600 -0.03784200
v 0.01220900 0.03664700 -0.03513600
v -0.03891900 0.01579900 -0.03430800
v -0.00852500 0.01914400 -0.03558700
v -0.01091700 0.04069900 -0.03332700
v -0.00524800 0.03610700 -0.03734700
v 0.00176800 0.02719800 -0.02431600
v -0.02709500 0.01496100 -0.02690800
v -0.01850300 0.03745000 -0.03356100
v 0.01931200 0.01992900 -0.02873800
v -0.02397500 0.01002700 -0.00778100
v -0.01915000 0.02446800 -0.02574500
v -0.00946200 0.02189500 -0.01315800
v 0.01291600 0.01365000 -0.01157800
v 0.00690800 0.02147100 -0.00672400
v 0.03329000 0.01768900 -0.02469500
v 0.03164400 -0.01923300 -0.03639000
v 0.03567200 -0.01094800 -0.00806600
v 0.03618900 0.00107900 -0.03624900
v 0.06455100 -0.00636700 -0.00735200
v 0.02567500 0.02875900 -0.03658300
v 0.02951300 -0.01440500 -0.03753100
v 0.03762800 -0.00207800 -0.02633900
v 0.06711800 0.00191400 0.00501600
v 0.02485600 0.02806600 -0.00095000
v 0.03005000 0.02114400 -0.03370100
v 0.03646200 0.00046800 -0.00215500
v 0.02866700 0.01553300 -0.03777300
v 0.05693600 -0.00566400 -0.01969900
v 0.05254500 0.00240500 -0.01987400
v 0.03719900 0.00326400 -0.02253000
v 0.04801600 -0.00538300 0.02891600
v 0.01702200 0.02387800 -0.00017100
v 0.02459300 -0.01649100 -0.03426400
v 0.05822700 -0.00587800 0.00461500
v 0.03131400 0.00057400 -0.03502700
v 0.03268600 0.01759500 0.00294200
v 0.05920900 0.00371700 0.02121100
v 0.05873500 0.00258400 -0.01592000
v 0.01369200 -0.01005300 -0.01842000
v 0.02109200 0.00292900 -0.02544100
v 0.02591300 0.00524600 -0.00060800
v 0.01719900 -0.00300500 -0.01019300
v -0.01894400 -0.04132100 0.04086200
v -0.03355900 -0.02636800 0.04085200
v -0.03766800 -0.02209800 0.03871300
v -0.04315100 0.00710900 0.04058800
v -0.01219700 -0.04034700 0.03906800
v -0.01864800 -0.03639000 0.03805300
v -0.04111000 -0.01353400 0.04083700
v -0.04354400 -0.00024500 0.04026400
v -0.04739300 -0.01700200 0.04037900
v -0.04372400 -0.01032900 0.03882000
v -0.02522900 -0.03286600 0.00380300
v -0.04432600 -0.00382000 -0.00487400
v -0.04154800 0.01381500 0.00133700
v -0.04351600 0.01112000 -0.00794300
v -0.04440200 0.00660700 0.03868000
v 0.01511100 -0.03524400 0.03946500
v 0.02429900 -0.02972500 0.03756800
v 0.03065600 -0.03003100 0.04045400
v 0.02967100 -0.02250100 0.03830100
v -0.00938700 -0.03883700 -0.00089000
v 0.00294900 -0.04383500 0.04151300
v -0.00201100 -0.03958400 0.03719100
v 0.03695500 -0.00059900 0.02708400
v 0.01672300 -0.03392600 0.01615100
v 0.03197800 -0.01995900 0.03703000
v -0.03234900 0.03084900 0.00046100
v -0.01750500 0.03971100 0.00651500
v 0.00667800 0.03969300 -0.03494300
v -0.04049700 0.01979000 0.02360600
v -0.03141200 0.03135900 0.03706800
v -0.01486700 0.04079200 0.03797200
v -0.02667900 0.03401100 -0.03564500
v -0.00129100 0.04188700 0.03544100
v 0.00021100 0.04562800 0.04073000
v -0.02501800 0.04041900 0.04135800
v -0.03879500 0.02278700 0.03845100
v -0.03783400 0.02183300 -0.03458700
v 0.00979700 0.03802000 0.00385000
v -0.02381000 0.03517200 0.00340500
v -0.01546800 0.03871600 0.03990200
v -0.00641400 0.04058800 0.03646700
v -0.03800500 0.02102700 0.04025800
v -0.02811000 0.03236800 0.04108000
v -0.03419300 0.02671700 0.00202300
v -0.00364800 0.04030000 0.00033300
v -0.04239100 -0.00815200 0.00334000
v -0.01509000 0.02448400 -0.00339300
v -0.00775900 0.03362800 -0.00032300
v 0.06011000 0.00121500 0.02749100
v 0.03676900 0.00210200 0.04063100
v 0.03773100 -0.00638500 0.02920900
v 0.06454400 -0.00978100 0.01417400
v 0.03860800 0.00339500 0.03971200
v 0.03785400 0.00590000 0.02744500
v 0.02934600 0.02521500 0.01537500
v 0.01686000 0.03488700 0.03762300
v 0.01957000 0.03418500 -0.03498100
v 0.02329600 0.03046000 0.04110800
v 0.00738100 0.03916900 0.04103900
v 0.01436300 0.03785100 0.03646900
v 0.03299700 0.01769300 0.03981900
v 0.02155400 0.03925900 0.04017800
v 0.04372400 0.00930700 0.04052000
v 0.03182700 0.02233300 0.03805100
vn 0.08624770 0.05260871 -0.99488374
vn -0.10442378 -0.26722781 -0.95795875
vn -0.67279690 -0.39395248 -0.62621543
vn -0.40482427 -0.91430183 -0.01301836
vn -0.15054519 -0.84325324 -0.51600399
vn 0.03705032 -0.80680030 -0.58966138
vn -0.90755398 -0.19892182 -0.36983222
vn 0.19908691 -0.47125240 -0.85923546
vn -0.04429034 0.03272331 -0.99848262
vn -0.57407694 -0.74889992 -0.33103560
vn -0.46770220 -0.73254661 -0.49460097
vn 0.00000000 0.00000000 0.00000000
vn -0.96722783 0.10867635 -0.22947716
vn -0.75647968 -0.65395965 -0.00867598
vn -0.02548082 -0.99944609 -0.02140652
vn 0.29274499 0.12260517 0.94829760
vn 0.94936224 0.31356470 -0.01971087
vn -0.00649555 0.95569758 0.29427868
vn 0.52863525 0.77705369 0.34166113
vn 0.01650482 -0.02351719 0.99958718
vn 0.66997543 0.73007587 0.13461851
vn 0.20250083 0.68316558 -0.70162540
vn 0.55424931 0.42321269 0.71672779
vn 0.64388967 0.13480957 -0.75314838
vn 0.40551017 0.73304963 -0.54607668
vn -0.35138683 0.82621247 -0.44034106
vn -0.28393267 0.37186272 0.88379882
vn 0.34075701 0.30314288 0.88993767
vn 0.89174956 0.45066723 -0.04100934
vn 0.04510464 0.61439404 0.78770904
vn 0.31867131 -0.91318734 -0.25404228
vn 0.37202140 -0.89971048 -0.22830054
vn 0.56764940 -0.63086950 -0.52894028
vn 0.35227983 -0.93587993 -0.00526164
vn -0.44663024 0.63336234 0.63196011
vn -0.76222591 0.43098945 0.48296973
vn -0.50715484 0.78489548 0.35599586
vn -0.09317783 0.44158864 -0.89236616
vn 0.27303906 0.06251043 -0.95996985
vn -0.00721270 -0.04486763 -0.99896690
vn 0.20724103 0.41229009 -0.88716855
vn -0.54028475 0.12150523 -0.83266372
vn 0.03586521 -0.00191682 0.99935480
vn 0.45553848 -0.40957889 0.79039852
vn -0.41981298 -0.89091015 0.17330945
vn 0.95393328 -0.29994332 -0.00673012
vn -0.01981827 0.05769333 0.99813762
vn -0.14649274 0.94089311 -0.30538506
vn 0.00972958 -0.56227941 0.82689007
vn -0.17070724 -0.79627226 -0.58035294
vn 0.67475876 -0.28561962 -0.68053071
vn 0.38782645 -0.92173075 0.00175012
vn -0.54536759 -0.39656141 -0.73845328
vn 0.88816082 -0.39503155 0.23477742
vn 0.43916604 -0.56025824 -0.70231324
vn 0.28624947 -0.95446560 -0.08400398
vn -0.82853078 -0.55978663 0.01325441
vn -0.43585428 -0.78326867 0.44330716
vn 0.91353466 0.39430082 -0.09990637
vn 0.71944849 -0.37543900 -0.58432819
vn 0.95140647 -0.30793724 -0.00062192
vn 0.82068566 0.03566185 -0.57026597
vn 0.71249001 -0.63215133 -0.30453683
vn 0.66631240 0.50837271 -0.54551350
vn -0.85882989 0.37351015 0.35057293
vn 0.99475051 -0.08143784 -0.06196205
vn 0.84213425 0.53906801 -0.01468269
vn -0.47670283 -0.43435567 0.76425752
vn -0.86829604 -0.46870311 -0.16241732
vn -0.64204222 0.02105456 0.76638012
vn -0.49879198 -0.12248948 0.85802266
vn -0.30427870 -0.35858476 -0.88251428
vn 0.00000000 -0.00000000 0.00000000
vn 0.99052604 0.13531426 -0.02341382
vn -0.65403747 -0.55510644 0.51389866
vn -0.18327212 -0.22178745 0.95771690
vn -0.60698989 0.42469203 -0.67171419
vn -0.83660677 -0.53444322 -0.12024792
vn -0.99222143 0.03812170 -0.11850470
vn -0.76450950 -0.36385404 0.53210474
vn -0.02004462 0.99897470 -0.04059267
vn -0.12909646 0.73534974 -0.66527803
vn -0.78909077 0.58659687 -0.18231802
vn -0.83984853 -0.01615681 -0.54258032
vn -0.35580609 -0.17135200 0.91871678
vn -0.91242909 0.12105080 0.39092181
vn -0.98970593 -0.13735804 -0.04018638
vn 0.44214821 0.40488465 0.80035828
vn -0.65556016 -0.51619248 -0.55116803
vn 0.66936138 -0.12338054 -0.73262036
vn -0.15308306 -0.88911702 -0.43131949
vn 0.37673048 0.79538278 0.47480562
vn 0.58355109 0.24018779 0.77574349
vn 0.77021847 0.00098197 0.63777939
vn -0.93272204 -0.34786683 0.09496458
vn -0.75903700 -0.17716738 -0.62647789
vn 0.47408051 0.73938012 0.47808441
vn -0.99288905 -0.11798260 -0.01585702
vn 0.62281044 -0.16954466 0.76378122
vn -0.97005112 0.24226226 -0.01760191
vn -0.87822408 0.15307649 0.45308945
vn -0.36883787 0.75450470 0.54284554
vn 0.55878331 -0.65923241 -0.50316384
vn 0.71579860 -0.59043997 0.37284448
vn -0.77947291 0.39942706 0.48257643
vn 0.11087880 0.76628713 0.63285853
vn -0.42866763 -0.75624717 0.49430181
vn 0.00122639 0.93021022 0.36702511
vn -0.99876691 0.04815316 -0.01208028
vn -0.46117873 0.88634452 0.04132272
vn 0.85770272 -0.40688834 -0.31430547
vn -0.68232405 0.73096714 -0.01099707
vn -0.33247635 0.94310611 -0.00321683
vn 0.18058620 0.88331958 -0.43259119
vn -0.88945915 0.45696975 0.00640927
vn -0.68717663 0.71126322 -0.14796255
vn -0.25438391 0.91433835 -0.31507810
vn -0.49502111 0.67824072 -0.54308713
vn 0.04805458 0.95320912 -0.29846798
vn -0.13916930 0.84456342 0.51705370
vn -0.38787586 0.83231467 0.39598560
vn -0.82615934 0.47248390 0.30695228
vn -0.76089458 0.47814426 -0.43865419
vn -0.30285436 -0.80431524 0.51123011
vn 0.39534468 -0.77179219 0.49803554
vn 0.27050031 -0.74056980 0.61513085
vn 0.11838176 -0.95307913 0.27861430
vn 0.13938250 -0.26064773 0.95531947
vn 0.37168664 -0.52952426 0.76253072
vn 0.62633127 -0.50454474 0.59425899
vn -0.05643504 -0.71192102 0.69998825
vn 0.83651471 0.13874320 0.53008816
vn 0.31427311 -0.53474743 0.78439632
vn 0.05344417 -0.31218938 0.94851542
vn 0.59025043 0.24888171 0.76789473
vn -0.63141985 -0.00022642 0.77544111
vn 0.94539127 -0.09527720 0.31170115
vn 0.54140506 -0.82154026 0.17875168
vn 0.61617399 0.05304367 -0.78582185
vn 0.98667171 0.16270388 -0.00252566
vn 0.79842883 0.60208733 0.00150080
vn -0.49283818 -0.86680067 -0.07594161
vn 0.50305271 0.81822341 -0.27829557
vn -0.37914345 -0.43161536 0.81850988
vn -0.19101099 -0.58489272 0.78829900
vn 0.39178595 0.82076701 -0.41574667
vn -0.69317221 -0.41305419 0.59067633
vn 0.59323799 0.78277260 0.18797805
vn 0.98444202 0.14431196 0.10023958
vn 0.75759419 0.50947899 -0.40802231
f 3//3 2//2 11//11
f 98//98 7//7 3//3
f 8//8 2//2 1//1
f 5//5 11//11 2//2
f 13//13 42//42 7//7
f 42//42 3//3 7//7
f 4//4 11//11 5//5
f 3//3 42//42 2//2
f 42//42 1//1 2//2
f 5//5 2//2 8//8
f 6//6 5//5 8//8
f 6//6 32//32 34//34
f 8//8 33//33 6//6
f 4//4 5//5 15//15
f 37//37 20//20 18//18
f 9//9 8//8 1//1
f 37//37 43//43 20//20
f 18//18 20//20 19//19
f 13//13 7//7 98//98
f 34//34 15//15 6//6
f 18//18 12//12 37//37
f 19//19 22//22 18//18
f 5//5 6//6 15//15
f 3//3 96//96 98//98
f 98//98 100//100 13//13
f 4//4 14//14 11//11
f 3//3 11//11 14//14
f 4//4 10//10 14//14
f 17//17 21//21 16//16
f 21//21 20//20 16//16
f 12//12 18//18 37//37
f 22//22 19//19 21//21
f 21//21 19//19 20//20
f 21//21 17//17 24//24
f 24//24 25//25 21//21
f 24//24 17//17 46//46
f 26//26 18//18 25//25
f 25//25 22//22 21//21
f 26//26 37//37 18//18
f 25//25 18//18 22//22
f 23//23 97//97 28//28
f 25//25 24//24 29//29
f 30//30 83//83 26//26
f 30//30 28//28 106//106
f 28//28 97//97 106//106
f 29//29 30//30 25//25
f 30//30 26//26 25//25
f 28//28 30//30 29//29
f 29//29 54//54 28//28
f 31//31 34//34 103//103
f 103//103 34//34 33//33
f 6//6 33//33 32//32
f 33//33 8//8 60//60
f 31//31 15//15 34//34
f 61//61 103//103 60//60
f 111//111 103//103 61//61
f 60//60 103//103 33//33
f 37//37 65//65 43//43
f 108//108 35//35 106//106
f 34//34 32//32 33//33
f 108//108 110//110 35//35
f 108//108 102//102 110//110
f 35//35 110//110 36//36
f 105//105 36//36 110//110
f 137//137 111//111 61//61
f 35//35 30//30 106//106
f 36//36 27//27 35//35
f 83//83 30//30 27//27
f 37//37 26//26 77//77
f 27//27 30//30 35//35
f 27//27 86//86 83//83
f 20//20 43//43 47//47
f 40//40 9//9 1//1
f 113//113 48//48 118//118
f 1//1 42//42 40//40
f 41//41 40//40 38//38
f 40//40 39//39 9//9
f 38//38 114//114 41//41
f 38//38 40//40 42//42
f 41//41 39//39 40//40
f 42//42 123//123 118//118
f 42//42 118//118 38//38
f 13//13 123//123 42//42
f 41//41 143//143 64//64
f 48//48 38//38 118//118
f 114//114 143//143 41//41
f 119//119 114//114 48//48
f 48//48 114//114 38//38
f 45//45 52//52 49//49
f 49//49 71//71 45//45
f 46//46 44//44 52//52
f 45//45 71//71 69//69
f 44//44 46//46 17//17
f 49//49 44//44 47//47
f 44//44 17//17 16//16
f 100//100 123//123 13//13
f 71//71 47//47 43//43
f 47//47 44//44 16//16
f 49//49 47//47 71//71
f 52//52 44//44 49//49
f 20//20 47//47 16//16
f 53//53 50//50 45//45
f 52//52 45//45 50//50
f 53//53 45//45 69//69
f 46//46 55//55 51//51
f 52//52 55//55 46//46
f 24//24 46//46 51//51
f 84//84 57//57 53//53
f 50//50 53//53 57//57
f 54//54 51//51 56//56
f 55//55 56//56 51//51
f 55//55 52//52 50//50
f 50//50 56//56 55//55
f 133//133 54//54 56//56
f 58//58 76//76 134//134
f 51//51 29//29 24//24
f 54//54 29//29 51//51
f 58//58 56//56 50//50
f 58//58 50//50 57//57
f 133//133 56//56 58//58
f 66//66 73//73 72//72
f 8//8 39//39 60//60
f 138//138 67//67 135//135
f 141//141 59//59 64//64
f 64//64 62//62 39//39
f 39//39 8//8 9//9
f 63//63 72//72 82//82
f 72//72 73//73 82//82
f 62//62 60//60 39//39
f 59//59 62//62 64//64
f 64//64 39//39 41//41
f 36//36 109//109 70//70
f 67//67 63//63 82//82
f 67//67 138//138 63//63
f 105//105 109//109 36//36
f 137//137 61//61 140//140
f 63//63 138//138 78//78
f 60//60 62//62 66//66
f 140//140 61//61 74//74
f 61//61 60//60 66//66
f 81//81 67//67 82//82
f 65//65 71//71 43//43
f 74//74 61//61 66//66
f 81//81 135//135 67//67
f 140//140 74//74 59//59
f 62//62 74//74 66//66
f 71//71 65//65 79//79
f 69//69 71//71 79//79
f 62//62 59//59 74//74
f 78//78 72//72 63//63
f 66//66 74//74 73//73
f 73//73 72//72 82//82
f 74//74 66//66 73//73
f 72//72 73//73 66//66
f 78//78 138//138 75//75
f 76//76 80//80 68//68
f 53//53 69//69 79//79
f 65//65 37//37 77//77
f 84//84 79//79 77//77
f 77//77 79//79 65//65
f 80//80 85//85 70//70
f 81//81 82//82 78//78
f 84//84 53//53 79//79
f 78//78 82//82 72//72
f 70//70 85//85 36//36
f 58//58 57//57 85//85
f 85//85 76//76 58//58
f 85//85 80//80 76//76
f 83//83 77//77 26//26
f 83//83 84//84 77//77
f 86//86 84//84 83//83
f 86//86 27//27 36//36
f 85//85 86//86 36//36
f 57//57 84//84 86//86
f 57//57 86//86 85//85
f 95//95 10//10 87//87
f 88//88 95//95 87//87
f 92//92 97//97 88//88
f 88//88 87//87 92//92
f 90//90 95//95 94//94
f 128//128 122//122 101//101
f 4//4 15//15 91//91
f 10//10 89//89 14//14
f 14//14 89//89 96//96
f 95//95 90//90 128//128
f 93//93 95//95 88//88
f 10//10 91//91 87//87
f 96//96 89//89 95//95
f 95//95 93//93 94//94
f 4//4 91//91 10//10
f 96//96 3//3 14//14
f 92//92 106//106 97//97
f 93//93 23//23 132//132
f 95//95 89//89 10//10
f 128//128 101//101 95//95
f 88//88 97//97 23//23
f 101//101 100//100 98//98
f 93//93 88//88 23//23
f 98//98 96//96 101//101
f 132//132 99//99 94//94
f 93//93 132//132 94//94
f 92//92 87//87 107//107
f 95//95 101//101 96//96
f 122//122 115//115 101//101
f 90//90 99//99 128//128
f 90//90 94//94 99//99
f 132//132 23//23 28//28
f 132//132 28//28 54//54
f 91//91 15//15 31//31
f 31//31 104//104 107//107
f 107//107 102//102 108//108
f 102//102 107//107 104//104
f 105//105 102//102 104//104
f 149//149 136//136 104//104
f 105//105 136//136 109//109
f 136//136 105//105 104//104
f 108//108 106//106 92//92
f 104//104 31//31 103//103
f 91//91 31//31 107//107
f 111//111 104//104 103//103
f 104//104 111//111 149//149
f 107//107 87//87 91//91
f 107//107 108//108 92//92
f 111//111 137//137 140//140
f 110//110 102//102 105//105
f 113//113 118//118 112//112
f 115//115 123//123 100//100
f 146//146 143//143 114//114
f 116//116 113//113 112//112
f 114//114 119//119 146//146
f 100//100 101//101 115//115
f 129//129 126//126 121//121
f 129//129 121//121 128//128
f 122//122 121//121 116//116
f 126//126 127//127 120//120
f 120//120 121//121 126//126
f 120//120 127//127 145//145
f 145//145 127//127 124//124
f 113//113 119//119 48//48
f 121//121 122//122 128//128
f 123//123 115//115 112//112
f 125//125 131//131 126//126
f 131//131 127//127 126//126
f 123//123 112//112 118//118
f 117//117 113//113 116//116
f 129//129 130//130 125//125
f 124//124 127//127 131//131
f 129//129 125//125 126//126
f 116//116 121//121 117//117
f 115//115 122//122 116//116
f 116//116 112//112 115//115
f 99//99 130//130 128//128
f 129//129 128//128 130//130
f 119//119 117//117 120//120
f 121//121 120//120 117//117
f 119//119 113//113 117//117
f 142//142 145//145 124//124
f 134//134 131//131 125//125
f 130//130 99//99 132//132
f 131//131 134//134 124//124
f 76//76 124//124 134//134
f 134//134 130//130 133//133
f 125//125 130//130 134//134
f 133//133 58//58 134//134
f 133//133 130//130 132//132
f 54//54 133//133 132//132
f 141//141 64//64 143//143
f 141//141 140//140 59//59
f 141//141 150//150 140//140
f 120//120 146//146 119//119
f 149//149 147//147 136//136
f 145//145 142//142 144//144
f 150//150 141//141 146//146
f 146//146 120//120 148//148
f 148//148 150//150 146//146
f 147//147 149//149 144//144
f 145//145 144//144 148//148
f 75//75 138//138 135//135
f 75//75 135//135 137//137
f 148//148 144//144 149//149
f 148//148 120//120 145//145
f 111//111 139//139 149//149
f 148//148 149//149 150//150
f 111//111 140//140 139//139
f 150//150 139//139 140//140
f 137//137 140//140 75//75
f 149//149 139//139 150//150
f 140//140 135//135 81//81
f 147//147 109//109 136//136
f 144//144 68//68 80//80
f 144//144 80//80 147//147
f 142//142 124//124 68//68
f 142//142 68//68 144//144
f 146//146 141//141 143//143
f 140//140 137//137 135//135
f 75//75 140//140 81//81
f 70//70 109//109 80//80
f 147//147 80//80 109//109
f 76//76 68//68 124//124
f 81//81 78//78 75//75

