# https://github.com/mikedh/trimesh
v 0.01644400 -0.04529400 -0.11968400
v -0.04290000 -0.03322900 -0.11995700
v -0.02999600 -0.03611100 -0.11988200
v -0.01322700 -0.03270900 -0.11978500
v -0.05006900 -0.03108700 -0.11461700
v -0.05219200 -0.02792300 -0.08798300
v -0.05166400 -0.02695900 -0.11983900
v -0.01689200 -0.03890100 -0.11634800
v -0.01100600 -0.04011400 -0.11994200
v 0.03442800 -0.04317100 -0.11981700
v -0.00274800 -0.04198400 -0.09604200
v -0.04989400 -0.03224500 -0.08890900
v -0.04721800 0.00064300 -0.05917200
v -0.03395600 -0.03554400 -0.06965400
v -0.05036500 -0.03189800 -0.04433600
v -0.05263500 -0.02679500 -0.03797800
v -0.05097600 -0.03215600 -0.01864400
v 0.03027700 -0.04877800 -0.11976200
v 0.02949700 -0.04857400 -0.09310500
v 0.03437500 -0.04431000 -0.09620600
v 0.03021300 -0.04886100 -0.05484100
v 0.03390100 -0.04558300 -0.07948800
v 0.03393000 -0.04468600 -0.04647700
v 0.00824800 -0.04475200 0.00812100
v 0.02884100 -0.04892000 0.00958500
v 0.03235900 -0.04668400 -0.00103700
v 0.02916100 -0.04890500 -0.02475900
v 0.03425800 -0.04144200 -0.00516000
v -0.04745700 -0.00350100 -0.11949700
v -0.00373800 -0.00662100 -0.11944400
v 0.05073100 0.03511300 -0.11989100
v -0.03986300 0.03327900 -0.11982300
v -0.03396400 0.05399500 -0.11669400
v -0.04320700 0.02039600 -0.07986500
v -0.03572900 0.05047600 -0.11994800
v -0.01903200 0.05105100 -0.11975000
v -0.03265800 0.05397000 -0.08224900
v -0.04073300 0.03231200 -0.06536400
v -0.03559500 0.05123200 -0.08110600
v -0.03592100 0.05162500 -0.05612000
v -0.03255700 0.05406300 -0.05294900
v -0.01278100 0.04956900 -0.07977200
v 0.03961000 -0.01868800 -0.11962700
v 0.04601600 0.01048800 -0.11989600
v 0.05096600 0.03507800 -0.10578500
v 0.02157700 0.04171000 -0.07380200
v 0.05024000 0.03070600 -0.09911400
v 0.04889900 0.03560600 -0.08611000
v 0.04262800 -0.00297300 -0.06047400
v 0.04832300 0.02373100 -0.02003100
v 0.04986500 0.03100700 -0.04227900
v 0.04982800 0.03345000 -0.01493300
v -0.05270600 -0.02703100 -0.00116400
v -0.05089900 -0.03231200 0.01013400
v -0.04876600 -0.00503200 -0.01124000
v -0.04670600 0.00683300 0.04768000
v -0.05263000 -0.02871200 0.03071800
v -0.05216100 -0.02230500 0.02827400
v -0.05315700 -0.02650200 0.06448200
v -0.04939400 -0.03301200 0.08365400
v -0.04223800 0.02718200 0.04897600
v -0.05016600 -0.03281400 0.05342600
v -0.05333400 -0.02822900 0.08464300
v -0.04359800 0.02323800 0.08429900
v -0.03586900 0.05227800 0.08427000
v 0.03570100 -0.03259600 0.05118700
v 0.02950000 -0.04936200 0.05296700
v 0.03250300 -0.04600000 0.06213200
v 0.01441000 -0.04640300 0.08471600
v 0.02918900 -0.04899100 0.08519400
v 0.03484800 -0.03512000 0.08528000
v -0.03714200 -0.03562200 0.08458100
v -0.05200800 -0.01936700 0.08459700
v -0.01876700 0.00249200 0.08481100
v -0.01770400 -0.03928500 0.08497300
v -0.02585400 0.02527800 0.08463900
v 0.00008900 0.02274800 0.08486100
v 0.00886000 0.02397200 0.08481500
v 0.01400800 0.01029000 0.08519100
v -0.04278800 0.02428400 -0.01905400
v -0.03546000 0.05250100 -0.00871200
v 0.02125500 0.04163200 -0.02598400
v -0.03269600 0.05407300 -0.00486900
v -0.01655100 0.05008300 0.03397100
v -0.03743100 0.04593800 0.02783600
v -0.03276500 0.05381700 0.05459600
v -0.03614400 0.05124000 0.05532400
v 0.04936100 0.02923400 0.01537600
v 0.04802500 0.03556800 -0.02261500
v 0.04874500 0.03507300 0.01053600
v 0.04121500 -0.00484600 0.08553100
v 0.04205000 -0.00466500 -0.00807300
v 0.04858200 0.02584300 0.04591100
v 0.04949700 0.03483100 0.04056000
v 0.03065500 0.03916300 0.02248900
v -0.01182100 0.02567800 0.08444500
v 0.00592500 0.04461900 0.08474600
v 0.04515900 0.01323400 0.08524200
v 0.04976300 0.03458100 0.08500600
v 0.02339500 0.02564400 0.08514000
v 0.02179300 0.04088200 0.08465400
v -0.03112800 0.05305000 0.08424300
vn -0.15360545 -0.68497315 -0.71219179
vn -0.21705640 -0.70430600 -0.67589909
vn -0.12776959 -0.68952181 -0.71290575
vn -0.06112941 -0.08965958 -0.99409474
vn -0.64827029 -0.75047830 -0.12856107
vn -0.98776038 -0.15575860 -0.00828739
vn -0.72862154 -0.18589235 -0.65920762
vn -0.21328262 -0.88036572 -0.42363514
vn -0.26597002 -0.63859329 -0.72212087
vn 0.67785814 -0.29972944 -0.67132004
vn -0.20223345 -0.97930592 -0.00784580
vn -0.59958978 -0.80025414 -0.00924188
vn -0.98162375 0.19062475 -0.00877660
vn -0.20674011 -0.97839453 -0.00163347
vn -0.64467203 -0.76435464 -0.01264772
vn -0.99490924 -0.09972570 -0.01450482
vn -0.66888411 -0.74334073 -0.00621350
vn 0.26876793 -0.74779361 -0.60709844
vn 0.24251392 -0.97011137 -0.00842245
vn 0.87060653 -0.49197959 0.00059356
vn 0.30571937 -0.95210463 0.00569556
vn 0.84214750 -0.53922349 -0.00506137
vn 0.88517129 -0.46506963 0.01349211
vn -0.20233697 -0.97930361 -0.00491781
vn 0.16231311 -0.98668895 -0.00996888
vn 0.79205191 -0.61022498 0.01671081
vn 0.23694936 -0.97149476 -0.00727598
vn 0.96313037 -0.26864791 0.01442890
vn -0.69489956 0.13539690 -0.70624520
vn -0.00128681 -0.00064813 -0.99999896
vn 0.67712656 0.44801206 -0.58376778
vn -0.68927518 0.15231434 -0.70830789
vn -0.38572048 0.88008880 -0.27688157
vn -0.97754954 0.21049491 -0.00942253
vn -0.59238361 0.39994248 -0.69937663
vn 0.14056471 0.69810832 -0.70205864
vn -0.25778882 0.96617085 0.00766838
vn -0.97375153 0.22728533 -0.01222079
vn -0.86164578 0.50750825 -0.00138787
vn -0.82462941 0.56554633 -0.01198653
vn -0.19613118 0.98055827 -0.00616687
vn 0.22056291 0.97537219 0.00104762
vn 0.69218546 -0.14637554 -0.70672023
vn 0.69317930 -0.15124505 -0.70471796
vn 0.83735372 0.54665046 0.00346661
vn 0.22108444 0.97525264 0.00198819
vn 0.99335640 -0.10913001 0.03651989
vn 0.69327893 0.72061788 0.00861370
vn 0.97819929 -0.20760329 0.00519832
vn 0.98192993 -0.18917174 0.00525910
vn 0.99813087 0.06068316 0.00723266
vn 0.96409443 0.26551477 -0.00488245
vn -0.99695057 -0.07794573 -0.00374385
vn -0.65023437 -0.75965947 -0.01061859
vn -0.98219063 0.18779637 -0.00583824
vn -0.97985009 0.19965541 -0.00561393
vn -0.97637673 -0.21607424 -0.00063893
vn -0.99109854 0.13306037 -0.00431449
vn -0.99524418 -0.09551852 -0.01911107
vn -0.43151792 -0.75043055 0.50064586
vn -0.97277368 0.23166741 -0.00644756
vn -0.60720351 -0.79454150 0.00277541
vn -0.74073962 -0.21940692 0.63495308
vn -0.70511084 0.16583865 0.68943182
vn -0.53867821 0.58497844 0.60632170
vn 0.97671866 -0.21433990 0.00889221
vn 0.33544397 -0.94199825 -0.01079963
vn 0.88049916 -0.47376710 0.01630824
vn -0.14225157 -0.71308855 0.68649050
vn 0.35764238 -0.70050004 0.61756912
vn 0.68180353 -0.19907461 0.70392701
vn -0.15366582 -0.70590299 0.69143893
vn -0.70469458 0.12449076 0.69850383
vn -0.00875026 0.00598301 0.99994382
vn -0.15086533 -0.68083653 0.71672956
vn -0.00192584 0.01101216 0.99993751
vn -0.01539072 0.01491535 0.99977030
vn -0.00603283 0.01710981 0.99983542
vn -0.01081738 0.00733583 0.99991458
vn -0.97488425 0.22267901 -0.00384060
vn -0.79171804 0.61088492 -0.00146779
vn 0.22279768 0.97485601 0.00411662
vn -0.14521491 0.98939547 0.00303935
vn 0.22786929 0.97367586 0.00556024
vn -0.96738887 0.25326327 -0.00406029
vn -0.19906582 0.97997709 0.00420615
vn -0.83669005 0.54763650 -0.00663594
vn 0.99779461 -0.06633649 -0.00232149
vn 0.57177470 0.82022380 -0.01751016
vn 0.73854622 0.67404856 0.01442300
vn 0.68028342 -0.14604319 0.71825195
vn 0.97762653 -0.21026993 0.00573708
vn 0.98609785 -0.16607699 0.00542871
vn 0.80827831 0.58877026 0.00597848
vn 0.22412134 0.97454783 0.00511308
vn -0.01107618 0.01300934 0.99985403
vn 0.15422255 0.68739363 0.70972206
vn 0.68633096 -0.14068152 0.71355345
vn 0.68301994 0.44395928 0.57998614
vn -0.01151730 0.01930958 0.99974721
vn 0.15329870 0.69634609 0.70114309
vn 0.02988368 0.74304280 0.66857637
f 11//11 1//1 18//18
f 5//5 7//7 2//2
f 4//4 8//8 3//3
f 8//8 4//4 9//9
f 11//11 3//3 8//8
f 3//3 2//2 29//29
f 3//3 29//29 4//4
f 3//3 12//12 5//5
f 5//5 6//6 7//7
f 2//2 3//3 5//5
f 6//6 5//5 12//12
f 29//29 2//2 7//7
f 29//29 7//7 6//6
f 11//11 8//8 9//9
f 9//9 1//1 11//11
f 21//21 11//11 19//19
f 4//4 10//10 9//9
f 10//10 1//1 9//9
f 19//19 11//11 18//18
f 12//12 3//3 14//14
f 14//14 3//3 11//11
f 12//12 16//16 6//6
f 15//15 16//16 12//12
f 15//15 12//12 14//14
f 15//15 14//14 17//17
f 13//13 29//29 6//6
f 13//13 34//34 29//29
f 17//17 14//14 11//11
f 17//17 16//16 15//15
f 24//24 17//17 11//11
f 54//54 17//17 24//24
f 6//6 16//16 13//13
f 55//55 13//13 16//16
f 55//55 80//80 13//13
f 18//18 1//1 10//10
f 20//20 18//18 10//10
f 18//18 20//20 19//19
f 43//43 20//20 10//10
f 22//22 21//21 19//19
f 22//22 19//19 20//20
f 49//49 20//20 43//43
f 22//22 20//20 49//49
f 23//23 21//21 22//22
f 49//49 23//23 22//22
f 27//27 11//11 21//21
f 92//92 23//23 49//49
f 24//24 11//11 27//27
f 25//25 27//27 26//26
f 27//27 25//25 24//24
f 27//27 21//21 23//23
f 92//92 28//28 23//23
f 26//26 23//23 28//28
f 27//27 23//23 26//26
f 66//66 28//28 92//92
f 30//30 4//4 29//29
f 32//32 30//30 29//29
f 34//34 32//32 29//29
f 30//30 10//10 4//4
f 30//30 43//43 10//10
f 43//43 30//30 44//44
f 30//30 32//32 44//44
f 32//32 36//36 31//31
f 31//31 44//44 32//32
f 46//46 45//45 31//31
f 34//34 35//35 32//32
f 32//32 35//35 36//36
f 35//35 33//33 36//36
f 37//37 36//36 33//33
f 37//37 42//42 36//36
f 35//35 39//39 33//33
f 34//34 39//39 35//35
f 33//33 39//39 37//37
f 46//46 31//31 36//36
f 46//46 36//36 42//42
f 34//34 13//13 38//38
f 80//80 38//38 13//13
f 38//38 39//39 34//34
f 38//38 40//40 39//39
f 41//41 37//37 39//39
f 41//41 42//42 37//37
f 40//40 41//41 39//39
f 81//81 41//41 40//40
f 82//82 46//46 42//42
f 82//82 42//42 41//41
f 47//47 43//43 44//44
f 49//49 43//43 47//47
f 31//31 45//45 44//44
f 47//47 44//44 45//45
f 46//46 48//48 45//45
f 48//48 47//47 45//45
f 47//47 48//48 51//51
f 49//49 47//47 51//51
f 48//48 46//46 82//82
f 50//50 92//92 49//49
f 51//51 50//50 49//49
f 48//48 82//82 89//89
f 89//89 51//51 48//48
f 52//52 51//51 89//89
f 50//50 51//51 52//52
f 53//53 16//16 17//17
f 53//53 55//55 16//16
f 53//53 17//17 54//54
f 57//57 53//53 54//54
f 58//58 55//55 53//53
f 55//55 56//56 80//80
f 55//55 58//58 56//56
f 62//62 57//57 54//54
f 59//59 58//58 57//57
f 54//54 24//24 62//62
f 57//57 58//58 53//53
f 59//59 57//57 62//62
f 72//72 60//60 62//62
f 58//58 59//59 56//56
f 56//56 61//61 80//80
f 63//63 62//62 60//60
f 63//63 59//59 62//62
f 59//59 73//73 56//56
f 73//73 59//59 63//63
f 64//64 56//56 73//73
f 56//56 64//64 61//61
f 76//76 64//64 73//73
f 64//64 87//87 61//61
f 64//64 76//76 65//65
f 25//25 26//26 67//67
f 67//67 26//26 28//28
f 68//68 67//67 28//28
f 68//68 28//28 66//66
f 67//67 24//24 25//25
f 91//91 66//66 92//92
f 69//69 62//62 24//24
f 62//62 69//69 75//75
f 69//69 24//24 67//67
f 67//67 70//70 69//69
f 70//70 67//67 68//68
f 71//71 68//68 66//66
f 91//91 71//71 66//66
f 68//68 71//71 70//70
f 62//62 75//75 72//72
f 73//73 72//72 75//75
f 73//73 75//75 74//74
f 74//74 75//75 71//71
f 63//63 60//60 72//72
f 72//72 73//73 63//63
f 71//71 75//75 69//69
f 71//71 69//69 70//70
f 74//74 71//71 79//79
f 76//76 73//73 74//74
f 74//74 96//96 76//76
f 79//79 77//77 74//74
f 77//77 96//96 74//74
f 79//79 71//71 91//91
f 91//91 98//98 79//79
f 98//98 100//100 79//79
f 91//91 93//93 98//98
f 77//77 79//79 78//78
f 78//78 79//79 100//100
f 80//80 40//40 38//38
f 40//40 80//80 81//81
f 41//41 81//81 83//83
f 82//82 41//41 83//83
f 81//81 80//80 85//85
f 81//81 86//86 83//83
f 83//83 84//84 82//82
f 85//85 80//80 61//61
f 85//85 61//61 87//87
f 83//83 86//86 84//84
f 87//87 81//81 85//85
f 87//87 86//86 81//81
f 65//65 86//86 87//87
f 86//86 102//102 84//84
f 65//65 87//87 64//64
f 102//102 86//86 65//65
f 91//91 92//92 93//93
f 92//92 50//50 88//88
f 94//94 88//88 90//90
f 82//82 95//95 89//89
f 52//52 88//88 50//50
f 90//90 52//52 89//89
f 52//52 90//90 88//88
f 89//89 95//95 90//90
f 94//94 90//90 95//95
f 82//82 84//84 95//95
f 92//92 88//88 93//93
f 93//93 88//88 94//94
f 101//101 94//94 95//95
f 94//94 99//99 93//93
f 97//97 95//95 84//84
f 102//102 65//65 76//76
f 102//102 76//76 96//96
f 97//97 84//84 102//102
f 102//102 96//96 97//97
f 97//97 77//77 78//78
f 97//97 96//96 77//77
f 98//98 93//93 99//99
f 99//99 100//100 98//98
f 101//101 95//95 97//97
f 99//99 94//94 101//101
f 101//101 78//78 100//100
f 97//97 78//78 101//101
f 101//101 100//100 99//99

