# https://github.com/mikedh/trimesh
v 0.04803880 0.13681300 0.03005690
v 0.04992920 0.13284100 0.02593230
v 0.08380600 0.14632300 0.02640770
v 0.08380600 0.14583400 0.02597770
v 0.04815340 0.13635400 0.07491770
v 0.04815340 0.14040200 0.06855260
v 0.08380600 0.14579300 0.07861120
v 0.08380600 0.14621600 0.07794600
v 0.04803880 0.14070800 0.03647280
v 0.00811090 0.12611900 0.03407960
v 0.01206360 0.11779400 0.07888950
v 0.00828276 0.12581400 0.07079310
v 0.05577230 0.09587260 0.09711890
v 0.03091050 0.07784680 0.09355450
v 0.02357800 0.09335200 0.09075390
v 0.02592660 0.02965070 0.07557960
v 0.02592660 0.02567890 0.07211710
v 0.00000000 0.03351120 0.07031540
v 0.00000000 0.03258100 0.06950440
v 0.05560050 0.09678920 0.00744825
v 0.05560050 0.08647780 0.00648076
v 0.08380600 0.09905230 0.00190143
v 0.08380600 0.09772670 0.00177706
v 0.03050950 0.07868700 0.01091080
v 0.08380600 0.07982160 0.00009084
v 0.08380600 0.07882870 0.00000000
v 0.05262160 0.10259400 0.09462380
v 0.08380600 0.09800090 0.10270600
v 0.08380600 0.09882030 0.10248600
v 0.05244980 0.10343400 0.01004520
v 0.02323420 0.09411580 0.01381330
v 0.05983960 0.01666600 0.07552870
v 0.02781710 0.02163080 0.06651580
v 0.02581210 0.02613720 0.03178820
v 0.05955320 0.01720070 0.02827470
v 0.05359550 0.02987990 0.01946540
v 0.05393920 0.02911610 0.08454160
v 0.00000000 0.04090280 0.07677260
v 0.00000000 0.03959440 0.07561860
v 0.01721930 0.10687100 0.08571280
v 0.05004380 0.11771700 0.08861520
v 0.05262160 0.11221800 0.09202690
v 0.08380600 0.11693500 0.09755280
v 0.08380600 0.11758100 0.09722870
v 0.02581210 0.02361670 0.03581090
v 0.00000000 0.03238140 0.03542130
v 0.00000000 0.03297370 0.03447600
v 0.05244980 0.11305800 0.01274400
v 0.04992920 0.11840500 0.01615560
v 0.01693280 0.10748200 0.01900720
v 0.02775980 0.01941570 0.04136120
v 0.06350590 0.00879885 0.03942620
v 0.00000000 0.02761450 0.04286630
v 0.00000000 0.02846650 0.04153710
v 0.08380600 0.11580200 0.09785850
v 0.08380600 0.11791300 0.00716951
v 0.08380600 0.11678600 0.00685336
v 0.02775980 0.01849920 0.04568940
v 0.00000000 0.02741080 0.04382790
v 0.02781710 0.01918660 0.06244220
v 0.06362040 0.00856971 0.06432620
v 0.02850450 0.01781170 0.05622990
v 0.00000000 0.02799060 0.06191930
v 0.00000000 0.02744850 0.06101570
v 0.08380600 0.09986030 0.00213307
v 0.02850450 0.01697160 0.05190170
v 0.00000000 0.02575600 0.05194150
v 0.00000000 0.02604440 0.05056110
v 0.00000000 0.03179470 0.06821970
v 0.00000000 0.02593880 0.05288350
v 0.05004380 0.12596700 0.08443980
v 0.05004380 0.13230600 0.07899130
v 0.08380600 0.13324300 0.08933580
v 0.08380600 0.13393800 0.08873800
v 0.01183450 0.11832800 0.02588140
v 0.04992920 0.12657800 0.02043290
v 0.08380600 0.13467700 0.01613660
v 0.08380600 0.13399200 0.01553510
v 0.06493800 0.00582000 0.05185080
v 0.00000000 0.02719370 0.05965600
v 0.08380600 0.13309800 0.01506720
v 0.08380600 0.14529400 0.07903660
v 0.08380600 0.11854100 0.00749368
v 0.08380600 0.13233800 0.08979390
v 0.04695040 0.14284700 0.06407160
v 0.08380600 0.15346700 0.06650070
v 0.04695040 0.14429800 0.05719740
v 0.03589430 0.14063200 0.05841950
v 0.03595160 0.14116600 0.05592440
v 0.00513206 0.13245900 0.05246180
v 0.00593406 0.13070200 0.06183120
v 0.07920200 0.15292900 0.06330780
v 0.07605130 0.15308200 0.05796120
v 0.08223820 0.15376900 0.06340970
v 0.08218090 0.15376900 0.06340970
v 0.08380600 0.15487700 0.06044120
v 0.08380600 0.15410300 0.06419010
v 0.08380600 0.15401200 0.06485920
v 0.08380600 0.15390600 0.06534180
v 0.07605130 0.15376900 0.05460050
v 0.08223820 0.15560200 0.05475320
v 0.08212360 0.15560200 0.05475320
v 0.08380600 0.15620800 0.05415400
v 0.08380600 0.15640400 0.05327490
v 0.08380600 0.15644600 0.05303370
v 0.08380600 0.09682410 0.10280700
v 0.08380600 0.07770520 0.10436500
v 0.04654940 0.14513800 0.05251270
v 0.04695040 0.14437400 0.04782810
v 0.04695040 0.14307600 0.04095380
v 0.08380600 0.15418900 0.03972940
v 0.08380600 0.15405700 0.03903210
v 0.08380600 0.15645400 0.05208330
v 0.03881590 0.06119590 0.09360540
v 0.08380600 0.07629750 0.10423200
v 0.08380600 0.05749040 0.10250800
v 0.00587677 0.13085500 0.04304160
v 0.08380600 0.14672900 0.02707630
v 0.04666400 0.04446850 0.09065210
v 0.08380600 0.05587040 0.10205400
v 0.08380600 0.03869890 0.09720010
v 0.08380600 0.03695990 0.09629620
v 0.08380600 0.02254600 0.08883230
v 0.08380600 0.02089640 0.08737360
v 0.08380600 0.01022290 0.07795850
v 0.08380600 0.00901300 0.07597850
v 0.08380600 0.00255360 0.06533950
v 0.08380600 0.00212775 0.06307360
v 0.08380600 0.00000000 0.05180910
v 0.03835760 0.06203600 0.01070710
v 0.08380600 0.05853730 0.00170376
v 0.08380600 0.07743040 0.00011768
v 0.08380600 0.00284032 0.03832750
v 0.08380600 0.00237807 0.04058630
v 0.04626300 0.04530870 0.01350780
v 0.08380600 0.03960160 0.00681511
v 0.08380600 0.05692920 0.00213941
v 0.08380600 0.01074630 0.02579720
v 0.08380600 0.00949611 0.02776270
v 0.08380600 0.02330070 0.01503460
v 0.08380600 0.03786890 0.00769452
v 0.08380600 0.02163400 0.01645250
v 0.04546100 0.12596700 0.07084410
v 0.04546100 0.12260600 0.07369560
v 0.08380600 0.13599400 0.07475830
v 0.08380600 0.13553600 0.07514690
v 0.00106480 0.11435700 0.06631210
v 0.08380600 0.12603600 0.08332720
v 0.04546100 0.11710600 0.07843120
v 0.08380600 0.12528700 0.08397270
v 0.04546100 0.10992700 0.08204650
v 0.00106480 0.10763500 0.07206610
v 0.00106480 0.09892780 0.07644530
v 0.08380600 0.11190600 0.09066660
v 0.08380600 0.12430800 0.08446540
v 0.04546100 0.13161900 0.06198390
v 0.00106480 0.11863400 0.05959070
v 0.04546100 0.12948000 0.06534470
v 0.08380600 0.13647300 0.07400870
v 0.00037738 0.07830510 0.05220720
v 0.04546100 0.09724740 0.08647660
v 0.00106480 0.08884560 0.07919500
v 0.08380600 0.09586210 0.09518460
v 0.08380600 0.11017800 0.09127040
v 0.04546100 0.13360500 0.05246180
v 0.00106480 0.12008500 0.05241090
v 0.04546100 0.13284100 0.05607720
v 0.08380600 0.14293400 0.06324590
v 0.08380600 0.14276800 0.06405100
v 0.04546100 0.08678330 0.08830970
v 0.08380600 0.07899890 0.09670990
v 0.08380600 0.09443580 0.09543450
v 0.04546100 0.07792320 0.08907350
v 0.08380600 0.07779120 0.09681400
v 0.04546100 0.09220630 0.08785140
v 0.04546100 0.13177100 0.04288880
v 0.04546100 0.13245900 0.04650410
v 0.08380600 0.14305200 0.04095370
v 0.08380600 0.14314600 0.04144640
v 0.00106480 0.11878700 0.04518020
v 0.08380600 0.14505900 0.05169380
v 0.08380600 0.14521500 0.05250580
v 0.04546100 0.07250020 0.08856430
v 0.04546100 0.06356360 0.08774960
v 0.08380600 0.06174710 0.09529330
v 0.08380600 0.06052900 0.09518220
v 0.00106480 0.07799960 0.08006060
v 0.04546100 0.12634800 0.03397770
v 0.04546100 0.12841100 0.03733850
v 0.08380600 0.13644200 0.03015150
v 0.08380600 0.13672300 0.03060950
v 0.00106480 0.11466200 0.03840780
v 0.08380600 0.14259400 0.04019720
v 0.04546100 0.05859890 0.08632380
v 0.04546100 0.05027340 0.08398150
v 0.08380600 0.04553690 0.09098570
v 0.08380600 0.04440210 0.09066650
v 0.00106480 0.06715350 0.07909310
v 0.04546100 0.11764100 0.02633970
v 0.00106480 0.10809300 0.03260290
v 0.04546100 0.12092500 0.02924210
v 0.08380600 0.13570300 0.02950600
v 0.04546100 0.04599610 0.08174100
v 0.04546100 0.03889280 0.07807470
v 0.08380600 0.03161470 0.08402800
v 0.08380600 0.03064650 0.08352830
v 0.00106480 0.05714770 0.07624160
v 0.04546100 0.10626000 0.02038200
v 0.00106480 0.09946250 0.02812190
v 0.04546100 0.11053800 0.02262250
v 0.08380600 0.12498500 0.02037950
v 0.08380600 0.12595300 0.02088620
v 0.08380600 0.11271500 0.01400240
v 0.00106480 0.04851670 0.07176060
v 0.04546100 0.03560840 0.07517230
v 0.04546100 0.03018540 0.07038580
v 0.08380600 0.02083110 0.07486440
v 0.08380600 0.02009200 0.07421200
v 0.00106480 0.08938020 0.02532130
v 0.04546100 0.09801120 0.01809060
v 0.04546100 0.09297010 0.01666480
v 0.08380600 0.09607070 0.00918823
v 0.08380600 0.09675780 0.00938255
v 0.08380600 0.11100700 0.01338470
v 0.08380600 0.11213200 0.01369710
v 0.00106480 0.04187160 0.06595570
v 0.04546100 0.02812310 0.06702500
v 0.04546100 0.02476240 0.06147470
v 0.08380600 0.01400550 0.06421030
v 0.08380600 0.01354750 0.06345380
v 0.04546100 0.07868700 0.01534090
v 0.00106480 0.07861060 0.02430290
v 0.04546100 0.08411000 0.01585010
v 0.08380600 0.09486310 0.00907718
v 0.00106480 0.03782340 0.05923420
v 0.04546100 0.02407490 0.05785940
v 0.04546100 0.02300560 0.05195260
v 0.08380600 0.01154060 0.05266970
v 0.08380600 0.01139490 0.05186460
v 0.04546100 0.07326400 0.01579920
v 0.08380600 0.07801380 0.00766288
v 0.08380600 0.06264280 0.00893830
v 0.00106480 0.06776460 0.02521940
v 0.00106480 0.03644860 0.05200350
v 0.04546100 0.02376940 0.04833730
v 0.04546100 0.02499150 0.04237960
v 0.08380600 0.01361000 0.04116850
v 0.08380600 0.01377660 0.04035650
v 0.04546100 0.05928630 0.01788690
v 0.08380600 0.06073770 0.00922285
v 0.08380600 0.04635620 0.01309310
v 0.00106480 0.05760600 0.02791820
v 0.00106480 0.03797620 0.04477280
v 0.04546100 0.02713020 0.03906980
v 0.04546100 0.03056730 0.03351950
v 0.08380600 0.02013730 0.03036170
v 0.08380600 0.02060580 0.02960520
v 0.04546100 0.04660720 0.02231700
v 0.08380600 0.04462810 0.01369690
v 0.08380600 0.03229170 0.01994210
v 0.00106480 0.04889860 0.03234830
v 0.00106480 0.04217710 0.03810230
v 0.04546100 0.03392800 0.03066790
v 0.04546100 0.03950380 0.02593230
v 0.08380600 0.03056360 0.02108030
v 0.08380600 0.03132350 0.02043480
v 0.00000000 0.04290160 0.07781230
v 0.00000000 0.05171540 0.08242590
v 0.00000000 0.05434600 0.08316150
v 0.00000000 0.06430370 0.08595220
v 0.00000000 0.06757370 0.08626000
v 0.00000000 0.07790760 0.08723260
v 0.00000000 0.08180600 0.08690520
v 0.00000000 0.09152300 0.08610500
v 0.00000000 0.10425600 0.08264460
v 0.00000000 0.10061100 0.08362810
v 0.00000000 0.11516700 0.07713810
v 0.00000000 0.11136900 0.07905350
v 0.00000000 0.12362800 0.06993460
v 0.00000000 0.12005200 0.07299020
v 0.00000000 0.12893700 0.06150420
v 0.00000000 0.12620400 0.06582410
v 0.00000000 0.12913200 0.04334500
v 0.00000000 0.13023800 0.04904040
v 0.00000000 0.13086800 0.05244180
v 0.00000000 0.12395600 0.03490350
v 0.00000000 0.12701800 0.03992030
v 0.00000000 0.11572100 0.02758890
v 0.00000000 0.11997800 0.03137590
v 0.00000000 0.11190400 0.02563120
v 0.00000000 0.10488100 0.02198970
v 0.00000000 0.10123400 0.02095060
v 0.00000000 0.09223660 0.01840700
v 0.00000000 0.08893260 0.01810500
v 0.00000000 0.07862640 0.01717540
v 0.00000000 0.06832010 0.01802420
v 0.00000000 0.06501100 0.01830270
v 0.00000000 0.12972100 0.05779880
v 0.00000000 0.05501010 0.02100340
v 0.00000000 0.05235080 0.02172360
v 0.00000000 0.04341780 0.02624450
v 0.00000000 0.04139070 0.02727240
v 0.00000000 0.03440440 0.03326080
v 0.08380600 0.15375900 0.06603910
v 0.08380600 0.15377600 0.03857110
v 0.08380600 0.15654300 0.05255850
v 0.03595160 0.14116600 0.05577160
v 0.03600890 0.14170100 0.05358210
v 0.08380600 0.14511100 0.05299860
v 0.08380600 0.07875290 0.00760042
v 0.08380600 0.07949210 0.00766982
v 0.08380600 0.09517500 0.09537200
v 0.04546100 0.10557300 0.08423610
v 0.04546100 0.05096090 0.02012740
v 0.08380600 0.04522150 0.01339850
v 0.04546100 0.06432750 0.01651210
v 0.08380600 0.04381910 0.09036110
v 0.08380600 0.01345380 0.06296110
v 0.08380600 0.05985230 0.09498790
v 0.08380600 0.11131200 0.09096500
v 0.08380600 0.02106390 0.02921660
v 0.08380600 0.07705210 0.09674460
v 0.08380600 0.01981090 0.07375400
v 0.08380600 0.06142480 0.00903547
v 0.08380600 0.01406810 0.03990540
v 0.08380600 0.14247600 0.06450900
v 0.08380600 0.03019890 0.08313270
v 0.08380600 0.01149900 0.05137190
v 0.08380600 0.12640100 0.02128180
v 0.03749830 0.14345800 0.05373480
v 0.03795660 0.14422100 0.05378570
v 0.03749830 0.14177700 0.06239130
v 0.03795660 0.14261700 0.06244220
v 0.03835760 0.14513800 0.05383670
v 0.03835760 0.14345800 0.06249310
v 0.03864400 0.14605500 0.05393850
v 0.03864400 0.14437400 0.06259500
v 0.03887310 0.14697100 0.05404030
v 0.03887310 0.14529100 0.06264590
v 0.03904500 0.14796400 0.05409130
v 0.03904500 0.14628400 0.06274770
v 0.03910230 0.14895700 0.05419310
v 0.03910230 0.14727700 0.06284960
v 0.03910230 0.14995000 0.05429500
v 0.03910230 0.14834600 0.06295140
v 0.03904500 0.15094300 0.05434590
v 0.03904500 0.14933900 0.06300230
v 0.03887310 0.15193600 0.05444770
v 0.03887310 0.15025600 0.06310420
v 0.03795660 0.16148300 0.05526240
v 0.03795660 0.15980300 0.06391890
v 0.03944600 0.17080200 0.05607720
v 0.03944600 0.16919800 0.06473360
v 0.04311230 0.17905100 0.05679000
v 0.04311230 0.17744700 0.06539560
v 0.04855440 0.18371000 0.06595570
v 0.04855440 0.18539100 0.05729920
v 0.05525680 0.18730000 0.06626120
v 0.05525680 0.18898000 0.05760480
v 0.06247470 0.18791100 0.06631210
v 0.06247470 0.18951500 0.05765570
v 0.06946350 0.18539100 0.06610850
v 0.06946350 0.18707100 0.05745200
v 0.07547850 0.18004400 0.06565020
v 0.07547850 0.18172400 0.05699370
v 0.07988950 0.17408600 0.05633180
v 0.07988950 0.17240600 0.06498820
v 0.08218090 0.16507300 0.05556800
v 0.08218090 0.16339300 0.06422440
v 0.04391420 0.14452700 0.05378570
v 0.04357050 0.14414500 0.05378570
v 0.04391420 0.14284700 0.06244220
v 0.07650960 0.16087200 0.05521150
v 0.07605130 0.15193600 0.06325690
v 0.07650960 0.15919200 0.06386800
v 0.07576490 0.16453900 0.05551700
v 0.07507750 0.16789900 0.05582260
v 0.07507750 0.16621900 0.06447900
v 0.07198410 0.17393300 0.05633180
v 0.07198410 0.17225300 0.06498820
v 0.06751580 0.17821100 0.05668820
v 0.06751580 0.17653000 0.06534470
v 0.06224560 0.18027300 0.05689190
v 0.06224560 0.17859300 0.06549740
v 0.05674620 0.17981500 0.05684100
v 0.05674620 0.17821100 0.06549740
v 0.05164780 0.17706500 0.05658640
v 0.05164780 0.17538500 0.06524280
v 0.04758050 0.17217700 0.05617900
v 0.04758050 0.17049600 0.06483540
v 0.04500270 0.16408000 0.06427530
v 0.04500270 0.16576100 0.05561890
v 0.04414340 0.15858100 0.05500780
v 0.04414340 0.15690100 0.06366430
v 0.04517450 0.15140100 0.05439680
v 0.04517450 0.14972100 0.06305320
v 0.04534640 0.15071400 0.05434590
v 0.04534640 0.14903300 0.06300230
v 0.04546100 0.14827000 0.06290050
v 0.04546100 0.14995000 0.05429500
v 0.04546100 0.14750600 0.06284960
v 0.04546100 0.14918600 0.05419310
v 0.04546100 0.14842200 0.05414220
v 0.04546100 0.14681800 0.06279860
v 0.04534640 0.14773500 0.05409130
v 0.04534640 0.14605500 0.06274770
v 0.04517450 0.14697100 0.05404030
v 0.04517450 0.14529100 0.06264590
v 0.04494540 0.14628400 0.05393850
v 0.04494540 0.14460300 0.06259500
v 0.04465900 0.14567300 0.05388760
v 0.04465900 0.14399200 0.06254400
v 0.04431530 0.14506200 0.05383670
v 0.04431530 0.14338100 0.06249310
v 0.03640990 0.14040200 0.06223850
v 0.03612340 0.14093700 0.05791030
v 0.03640990 0.14208300 0.05358210
v 0.03577970 0.13979100 0.06218760
v 0.03583700 0.13979100 0.06213670
v 0.03698270 0.14269400 0.05363300
v 0.03698270 0.14101300 0.06228940
v 0.04299770 0.14193000 0.06239130
v 0.04299770 0.14200600 0.06239130
v 0.04345600 0.14238800 0.06244220
v 0.04294040 0.14200600 0.06234040
v 0.04299770 0.14200600 0.06228940
vn 0.25993390 -0.73992612 0.62043832
vn 0.24403919 -0.64018487 0.72842858
vn -0.57351580 -0.63213923 0.52103707
vn -0.61469147 -0.52123685 0.59200215
vn 0.25836997 -0.72877072 -0.63414367
vn 0.26853299 -0.81318628 -0.51635075
vn -0.57464530 -0.62212551 -0.53173548
vn -0.60451325 -0.67252830 -0.42693022
vn 0.27054103 -0.82256047 0.50020179
vn 0.26065566 -0.74063052 0.61929400
vn 0.23413267 -0.53825001 -0.80961029
vn 0.25880842 -0.72991316 -0.63264918
vn 0.20470138 -0.16936426 -0.96406073
vn 0.20040163 0.00493635 -0.97970139
vn 0.20393521 -0.16909904 -0.96426964
vn 0.24402279 0.63941115 -0.72911334
vn 0.25897637 0.73745396 -0.62377312
vn 0.78846182 0.40419767 -0.46362938
vn 0.76544979 0.48773187 -0.41976689
vn 0.20391440 -0.18134057 0.96204704
vn 0.19965778 -0.09043034 0.97568393
vn -0.60939620 -0.14878833 0.77878001
vn -0.63278864 -0.07243515 0.77092910
vn 0.20065626 -0.00354972 0.97965528
vn -0.63224690 -0.07145394 0.77146497
vn -0.61187031 -0.00295873 0.79095257
vn 0.20677685 -0.25459100 -0.94468342
vn -0.60991631 -0.13884889 -0.78020708
vn -0.62914469 -0.20279961 -0.75036609
vn 0.20743099 -0.26656667 0.94123036
vn 0.20435079 -0.17938387 0.96232125
vn 0.26035525 0.73921048 -0.62111433
vn 0.26987385 0.82340749 -0.49916751
vn 0.25920746 0.73008561 0.63228672
vn 0.25945126 0.72828926 0.63425531
vn 0.23452686 0.53800156 0.80966133
vn 0.23550225 0.54961206 -0.80153931
vn 0.76300767 0.36156992 -0.53580452
vn 0.78929692 0.40505093 -0.46145869
vn 0.21555265 -0.34867089 -0.91212152
vn 0.22131746 -0.43876267 -0.87092244
vn 0.21474825 -0.34776077 -0.91265855
vn -0.60328802 -0.28769919 -0.74382306
vn -0.62406908 -0.35093566 -0.69812746
vn 0.26902040 0.81337712 0.51579616
vn 0.79734194 0.51005635 0.32262728
vn 0.76524848 0.48294518 0.42562744
vn 0.21662656 -0.35759240 0.90840553
vn 0.22278968 -0.44946019 0.86507242
vn 0.21570894 -0.35835293 0.90832419
vn 0.28290792 0.88730166 0.36422366
vn 0.28216140 0.88935060 0.35977833
vn 0.76835089 0.59037107 0.24718193
vn 0.79621255 0.50945424 0.32634636
vn -0.63025647 -0.20297334 -0.74938549
vn -0.60210981 -0.29604482 0.74149932
vn -0.62904700 -0.20952518 0.74859807
vn 0.28853929 0.93702585 0.19679339
vn 0.80170429 0.58522741 0.12156938
vn 0.28371536 0.89633802 -0.34071066
vn 0.28392433 0.89480638 -0.34454103
vn 0.28847430 0.94057950 -0.17914458
vn 0.79679901 0.51771580 -0.31157933
vn 0.76951804 0.59556859 -0.23052121
vn -0.63050374 -0.21150332 0.74681415
vn 0.29384152 0.95583145 0.00658775
vn 0.76970427 0.63838385 0.00462635
vn 0.80326323 0.58335853 0.12025395
vn 0.79627654 0.51677446 -0.31446436
vn 0.80361198 0.58471073 -0.11100066
vn 0.23397879 -0.54002945 -0.80846900
vn 0.24302750 -0.63069409 -0.73699566
vn -0.59096261 -0.45322138 -0.66734816
vn -0.61559449 -0.51298350 -0.59824022
vn 0.23597128 -0.54893695 0.80186394
vn 0.23496260 -0.54964474 0.80167527
vn -0.61407000 -0.52136595 0.59253319
vn -0.59030966 -0.46136502 0.66232683
vn 0.29314678 0.95603373 0.00802958
vn 0.80252785 0.58650647 -0.10935816
vn -0.62282623 -0.36212471 0.69350788
vn -0.61527225 -0.51167969 -0.59968655
vn -0.62287531 -0.35988954 0.69462642
vn -0.62392907 -0.35241908 -0.69750506
vn 0.28156974 -0.88827284 -0.36289095
vn -0.60468416 -0.67295235 -0.42601902
vn 0.28826170 -0.93752043 -0.19483491
vn 0.28911634 -0.93629890 -0.19938934
vn 0.29868395 -0.94799121 -0.11000254
vn 0.29382701 -0.95580813 -0.00982373
vn 0.28343596 -0.88788617 -0.36238406
vn 0.14856755 -0.56948287 0.80846579
vn 0.78322322 -0.60892275 -0.12559647
vn -0.02786981 -0.85725250 -0.51414144
vn -0.00051324 0.10225321 -0.99475827
vn -0.59728804 -0.78475874 -0.16553163
vn -0.60918587 -0.78285417 -0.12661722
vn -0.58999130 -0.79396985 -0.14670427
vn -0.59748986 -0.78399569 -0.16839426
vn 0.54939776 -0.83285695 0.06716695
vn -0.07289158 -0.97982508 0.18609036
vn 0.00013908 -0.08485017 0.99639371
vn -0.59966799 -0.78177236 -0.17096865
vn -0.59098029 -0.79176458 -0.15443820
vn -0.59956959 -0.78615439 -0.14992527
vn -0.63182008 -0.06498540 -0.77238610
vn -0.61196210 0.00515521 -0.79087029
vn 0.29311951 -0.95604385 -0.00781776
vn 0.28851139 -0.94083023 0.17776293
vn 0.28422996 -0.89487001 0.34412353
vn -0.59547123 -0.78974586 0.14736176
vn -0.55770791 -0.77649663 0.29328293
vn -0.59695376 -0.78881557 0.14634277
vn 0.20435196 0.17822188 -0.96253688
vn -0.63281841 0.07195378 -0.77094975
vn -0.60928712 0.14572933 -0.77944350
vn 0.28227803 -0.89410410 0.34770242
vn -0.60463940 -0.68000658 0.41473153
vn 0.21625109 0.35884202 -0.90800213
vn -0.62909552 0.21041102 -0.74830878
vn -0.60239435 0.29779426 -0.74056709
vn -0.62364899 0.36012231 -0.69381111
vn -0.58950421 0.46163154 -0.66285829
vn -0.61425016 0.52246150 -0.59138035
vn -0.57330529 0.63199585 -0.52144251
vn -0.60331149 0.68093399 -0.41514352
vn -0.55791981 0.77684398 -0.29195703
vn -0.59617513 0.78899338 -0.14854174
vn -0.55001158 0.83510721 0.00912184
vn 0.20399933 0.16962502 0.96416369
vn -0.60981581 0.13912030 0.78023729
vn -0.63260082 0.06488699 0.77175506
vn -0.55925275 0.77113405 0.30428380
vn -0.59788078 0.78492064 0.16259813
vn 0.21530300 0.35015901 0.91161027
vn -0.60223624 0.28979089 0.74386340
vn -0.62983954 0.20281225 0.74977953
vn -0.57490751 0.62286304 0.53058741
vn -0.60429304 0.67294718 0.42658179
vn -0.59047938 0.45101353 0.66926892
vn -0.62385695 0.35293445 0.69730896
vn -0.61410079 0.51235893 0.60030704
vn -0.25531348 0.72793151 0.63634169
vn -0.24041828 0.63075916 0.73779532
vn -0.82100653 0.43314402 0.37193350
vn -0.78685872 0.40073868 0.46932064
vn -0.75944842 0.48772355 0.43053902
vn -0.78779767 0.40199538 0.46666320
vn -0.23167484 0.53991991 0.80920533
vn -0.80899712 0.32993414 0.48648446
vn -0.21879828 0.43850175 0.87169004
vn -0.75530925 0.35931900 0.54808558
vn -0.75227894 0.23306860 0.61624299
vn -0.78041095 0.28018527 0.55897671
vn -0.78100907 0.28016074 0.55815301
vn -0.27891031 0.88970049 0.36144442
vn -0.76231297 0.59866147 0.24593368
vn -0.26530776 0.81307664 0.51818739
vn -0.79584779 0.51100031 0.32481531
vn -1.00000000 0.00000625 0.00001352
vn -0.20422888 0.25620150 0.94480228
vn -0.74940678 0.11266866 0.65245325
vn -0.77630444 0.16604513 0.60809574
vn -0.77565833 0.16508692 0.60918016
vn -0.29052486 0.95682759 0.00873349
vn -0.76533382 0.64359572 0.00697777
vn -0.28464830 0.93833848 0.19620461
vn -0.80063642 0.58646646 0.12263120
vn -0.83360053 0.51313633 0.20445357
vn -0.19741261 0.08298661 0.97680166
vn -0.77334556 0.05347661 0.63172534
vn -0.77408134 0.05280138 0.63088041
vn -0.19841453 -0.00368795 0.98011126
vn -0.79192893 -0.00242202 0.61060847
vn -0.20168024 0.17069244 0.96446315
vn -0.28041337 0.89603364 -0.34422674
vn -0.28546944 0.94140111 -0.17964175
vn -0.83356376 0.51692830 -0.19482450
vn -0.80219939 0.58668813 -0.11078434
vn -0.76236350 0.60367363 -0.23319529
vn -0.80115354 0.58796988 -0.11155460
vn -0.83981848 0.54284574 0.00483946
vn -0.19740238 -0.09036932 0.97614839
vn -0.20158640 -0.18041575 0.96271132
vn -0.77317715 -0.05855246 0.63148136
vn -0.79380584 -0.11349109 0.59748813
vn -0.74994620 -0.00292207 0.66149237
vn -0.25652064 0.73783002 -0.62434288
vn -0.26686897 0.82282285 -0.50174049
vn -0.82173357 0.43834195 -0.36415694
vn -0.79585642 0.51622565 -0.31642320
vn -0.75953428 0.49513185 -0.42184372
vn -0.79645200 0.51661633 -0.31427979
vn -0.20477535 -0.26747424 0.94155434
vn -0.21381548 -0.36075995 0.90781892
vn -0.77625605 -0.17030864 0.60697736
vn -0.79970235 -0.22453412 0.55683084
vn -0.74960083 -0.11926715 0.65105602
vn -0.23254007 0.55126419 -0.80126956
vn -0.75537930 0.36707585 -0.54282357
vn -0.24143350 0.64068821 -0.72885423
vn -0.78736283 0.40670484 -0.46330438
vn -0.22012783 -0.45001227 0.86546675
vn -0.23270581 -0.54899631 0.80277709
vn -0.78074034 -0.28708020 0.55500404
vn -0.80927306 -0.33523636 0.48238335
vn -0.75266805 -0.24031780 0.61297484
vn -0.21339328 0.35921549 -0.90853043
vn -0.75186886 0.23866975 -0.61459740
vn -0.21997302 0.45221269 -0.86435846
vn -0.78150089 0.28867813 -0.55310153
vn -0.80899777 0.33668798 -0.48183381
vn -0.78073754 0.28904978 -0.55398477
vn -0.75615614 -0.36497506 0.54315845
vn -0.24185085 -0.64218414 0.72739790
vn -0.25674799 -0.73949632 0.62227459
vn -0.78791944 -0.40749316 0.46166251
vn -0.82127067 -0.43970332 0.36355946
vn -0.75053166 0.11860531 -0.65010385
vn -0.20487871 0.26417698 -0.94246233
vn -0.20220271 0.17879076 -0.96288521
vn -0.79372116 0.11256520 -0.59777571
vn -0.77611097 0.17109452 -0.60694187
vn -0.77587466 0.16954326 -0.60767886
vn -0.79999087 0.22348173 -0.55683976
vn -0.75892128 -0.49557212 0.42242960
vn -0.26690698 -0.82296183 0.50149227
vn -0.28040406 -0.89610490 0.34404878
vn -0.79602237 -0.51748988 0.31393091
vn -0.83332117 -0.51729215 0.19489652
vn -0.19787830 0.00456271 -0.98021598
vn -0.74892866 0.00326884 -0.66264257
vn -0.19738906 0.09070529 -0.97611993
vn -0.77384549 0.05789464 -0.63072289
vn -0.76374921 -0.60153895 0.23417520
vn -0.28528591 -0.94231681 0.17507420
vn -0.28979654 -0.95698740 -0.01389569
vn -0.80194569 -0.58762234 0.10762480
vn -0.83883660 -0.54432717 -0.00781556
vn -0.19709377 -0.08045182 -0.97707807
vn -0.77352701 -0.05292957 -0.63154922
vn -0.77325237 -0.05127044 -0.63202224
vn -0.75056329 -0.11169549 -0.65129016
vn -0.76372874 -0.64549990 -0.00694886
vn -0.28463675 -0.93849697 -0.19546191
vn -0.27928800 -0.88860614 -0.36383696
vn -0.80137760 -0.58586159 -0.12066535
vn -0.83453279 -0.51137269 -0.20506829
vn -0.20417546 -0.25575136 -0.94493578
vn -0.77549645 -0.16515025 -0.60936906
vn -0.77588181 -0.16395580 -0.60920105
vn -0.75149209 -0.23277306 -0.61731381
vn -0.76307709 -0.59739702 -0.24663769
vn -0.26528805 -0.81469088 -0.51565592
vn -0.25563923 -0.73230494 -0.63117197
vn -0.79428147 -0.51471514 -0.32277743
vn -0.82221680 -0.43445099 -0.36771168
vn -0.21888977 -0.44053340 -0.87064206
vn -0.78081869 -0.28140497 -0.55779334
vn -0.78085201 -0.28285382 -0.55701333
vn -0.75595455 -0.36017321 -0.54663331
vn -0.75918784 -0.48914592 -0.42938339
vn -0.23992571 -0.62851460 -0.73986826
vn -0.23109894 -0.53892969 -0.81002967
vn -0.78777852 -0.39967122 -0.46868744
vn -0.80755041 -0.33026408 -0.48865936
vn 0.78213719 0.28818628 -0.55245822
vn 0.75958794 0.23652223 -0.60587408
vn 0.77689557 0.16970983 -0.60632653
vn 0.75855281 0.11737765 -0.64095251
vn 0.77449844 0.05927884 -0.62979217
vn 0.75751098 0.00324739 -0.65281434
vn 0.77452557 -0.05256691 -0.63035455
vn 0.75785927 -0.11144807 -0.64282864
vn 0.75998542 -0.22925931 -0.60816308
vn 0.77699078 -0.16458927 -0.60761476
vn 0.76325128 -0.35297544 -0.54116155
vn 0.78168725 -0.28092802 -0.55681639
vn 0.76524597 -0.48361526 -0.42487043
vn 0.78811584 -0.39932582 -0.46841468
vn 0.76959553 -0.58981195 -0.24463152
vn 0.79719259 -0.51067611 -0.32201534
vn 0.76778790 -0.59519482 0.23716001
vn 0.80141923 -0.58743353 0.11246807
vn 0.77055744 -0.63730854 -0.00889158
vn 0.76650791 -0.48894474 0.41641165
vn 0.79706055 -0.51500761 0.31537541
vn 0.76242632 -0.36132594 0.53679574
vn 0.78945686 -0.40775981 0.45879167
vn 0.78225289 -0.28522748 0.55382822
vn 0.76019348 -0.23676838 0.60501786
vn 0.77671274 -0.17210775 0.60588468
vn 0.75829325 -0.11722194 0.64128805
vn 0.77456918 -0.05727616 0.62989049
vn 0.75828951 -0.00249469 0.65191319
vn 0.77440878 0.05261682 0.63049387
vn 0.75851190 0.11118961 0.64210323
vn 0.80344875 -0.58227726 -0.12419057
vn 0.77669342 0.16446730 0.60802782
vn 0.75987158 0.22987621 0.60807245
vn 0.78142163 0.28201280 0.55664083
vn 0.76275995 0.35525236 0.54036378
vn 0.78881222 0.39888480 0.46761757
vn -0.55898120 -0.77017938 -0.30718683
vn -0.60355810 -0.68035749 0.41572984
vn -0.55172458 -0.83400037 -0.00658582
vn 0.30290828 -0.94804344 -0.09726358
vn 0.28615174 -0.93655963 -0.20241848
vn -0.80143519 0.58511612 0.12385778
vn -0.79175550 0.00286757 -0.61083141
vn -0.77350710 0.05857822 -0.63107476
vn -0.79356131 0.10752705 0.59891434
vn -0.21233811 0.34812958 0.91308177
vn -0.21233926 -0.34814546 -0.91307545
vn -0.79880873 -0.21708962 -0.56104965
vn -0.20157890 -0.16850161 -0.96486950
vn -0.78066637 -0.28895820 0.55413281
vn -0.80179520 -0.58729490 0.11049505
vn -0.77522404 -0.17233008 0.60772529
vn -0.79875239 0.21703372 0.56115149
vn -0.78669548 -0.40031091 -0.46995894
vn -0.77381198 -0.05948089 0.63061640
vn -0.79613269 -0.51634588 0.31553078
vn -0.79359893 -0.10609317 -0.59912016
vn -0.79465164 -0.51092270 -0.32785174
vn -0.79481019 0.51228198 0.32533663
vn -0.78784838 -0.40770230 0.46159914
vn -0.80108709 -0.58585585 -0.12260667
vn -0.78830116 0.40740527 -0.46108809
vn 0.61237937 -0.46334340 0.64055008
vn 0.63642153 -0.36564763 0.67916820
vn 0.57415950 -0.26763172 -0.77376620
vn 0.60480865 -0.26380561 -0.75140741
vn 0.65915380 -0.29787998 0.69049532
vn 0.63206031 -0.19075805 -0.75107332
vn 0.68339759 -0.26585002 0.67992022
vn 0.65815307 -0.12101340 -0.74309507
vn 0.69905401 -0.20519645 0.68499482
vn 0.67932210 -0.08959822 -0.72834995
vn 0.68833405 -0.13009647 0.71363236
vn 0.68540544 -0.00652856 -0.72813237
vn 0.70171300 -0.09055510 0.70668143
vn 0.69762897 0.04880508 -0.71479499
vn 0.70513048 -0.03362486 0.70827987
vn 0.69605071 0.07212668 -0.71436065
vn 0.67854682 0.02312966 0.73419291
vn 0.69957170 0.14011518 -0.70069050
vn 0.70688658 0.02809836 0.70676859
vn 0.71148311 0.16813486 -0.68229206
vn 0.73458388 -0.08715199 0.67289751
vn 0.73210130 0.04179337 -0.67991249
vn 0.71230596 -0.27329495 0.64647512
vn 0.69575475 -0.14029240 -0.70444543
vn 0.63629164 -0.46304456 0.61702730
vn 0.61164372 -0.32168116 -0.72278157
vn 0.45321847 -0.49252187 -0.74297727
vn 0.47945713 -0.65463437 0.58444393
vn 0.20605195 -0.62089204 -0.75633040
vn 0.21697130 -0.79947985 0.56013875
vn -0.09630549 -0.64901746 -0.75465329
vn -0.10296474 -0.82307866 0.55851569
vn -0.36874148 -0.55032451 -0.74911458
vn -0.38981271 -0.72200769 0.57162133
vn -0.56017977 -0.38582559 -0.73303290
vn -0.58723545 -0.53920132 0.60366917
vn -0.69124520 -0.34211283 0.63650521
vn -0.67200311 -0.20623786 -0.71125085
vn -0.73038192 -0.15675813 0.66480759
vn -0.72332042 -0.02779718 -0.68995282
vn -0.52804856 0.38070806 0.75909558
vn -0.39218443 0.58000790 0.71399034
vn -0.56934919 0.54294088 -0.61729791
vn 0.67035204 -0.01136725 0.74195615
vn 0.50005437 0.73246655 -0.46199391
vn 0.67623243 0.10283839 -0.72947513
vn 0.68435916 0.07624094 0.72514816
vn 0.62290214 0.15842493 0.76609038
vn 0.64884612 0.28161466 -0.70688889
vn 0.51185268 0.32230018 0.79632244
vn 0.55606098 0.46409565 -0.68950084
vn 0.33410451 0.45531248 0.82526645
vn 0.37790926 0.63577143 -0.67303735
vn 0.08912280 0.53557021 0.83977478
vn 0.10691399 0.74246106 -0.66130249
vn -0.17700146 0.52302014 0.83373882
vn -0.20218894 0.71210178 -0.67233228
vn -0.39364913 0.41564361 0.81992729
vn -0.44268384 0.58742294 -0.67746979
vn -0.55294293 0.26935044 0.78848237
vn -0.59457092 0.40519007 -0.69448285
vn -0.66545663 0.22579208 -0.71146709
vn -0.64197904 0.10431192 0.75959327
vn -0.67493611 -0.06455826 0.73504658
vn -0.67475596 0.04882232 -0.73642432
vn -0.68935888 -0.18888033 0.69936296
vn -0.67466480 -0.07590974 -0.73421054
vn -0.71122929 -0.19127865 0.67643578
vn -0.69287154 -0.06153878 -0.71843024
vn -0.72845627 0.01619741 -0.68490080
vn -0.73058336 -0.12618169 0.67106344
vn -0.70795664 0.05059064 -0.70444161
vn -0.69926336 -0.07051590 0.71137772
vn -0.72030864 0.00534527 0.69363311
vn -0.72474225 0.10713979 -0.68063921
vn -0.69247759 0.08324503 0.71662058
vn -0.70011865 0.19898015 -0.68574104
vn -0.69266167 0.11992925 0.71122204
vn -0.70447527 0.26899146 -0.65677864
vn -0.65507953 0.16983176 0.73622550
vn -0.68100798 0.32502101 -0.65619317
vn -0.62109390 0.25534809 0.74097215
vn -0.65132617 0.39219917 -0.64957989
vn -0.59066636 0.31742583 0.74185854
vn -0.61846031 0.46205275 -0.63562104
vn 0.48376327 -0.41145099 -0.77245141
vn 0.84850911 0.49327157 0.19161274
vn 0.72013907 0.31947988 0.61589960
vn 0.45633081 -0.87009696 -0.18626181
vn 0.91132921 -0.09979982 0.39939837
vn 0.55292402 -0.49957661 0.66685698
vn 0.52476826 -0.34692562 -0.77734220
vn 0.97203943 -0.23421430 0.01682311
vn 0.10387020 -0.61603378 -0.78084145
vn -0.50731788 0.56314777 -0.65229837
vn 0.25244729 0.08479380 0.96388816
vn -0.46281263 -0.78950107 0.40310362
f 1//1 2//2 3//3
f 2//2 4//4 3//3
f 5//5 6//6 7//7
f 6//6 8//8 7//7
f 1//1 9//9 10//10
f 5//5 11//11 12//12
f 13//13 14//14 15//15
f 16//16 17//17 18//18
f 17//17 19//19 18//18
f 20//20 21//21 22//22
f 21//21 23//23 22//22
f 21//21 24//24 25//25
f 24//24 26//26 25//25
f 13//13 27//27 28//28
f 27//27 29//29 28//28
f 20//20 30//30 31//31
f 17//17 32//32 33//33
f 34//34 35//35 36//36
f 37//37 16//16 38//38
f 16//16 39//39 38//38
f 40//40 41//41 42//42
f 42//42 41//41 43//43
f 41//41 44//44 43//43
f 20//20 31//31 21//21
f 45//45 34//34 46//46
f 34//34 47//47 46//46
f 48//48 49//49 50//50
f 51//51 52//52 35//35
f 51//51 45//45 53//53
f 45//45 54//54 53//53
f 45//45 51//51 35//35
f 17//17 16//16 32//32
f 27//27 42//42 55//55
f 42//42 43//43 55//55
f 42//42 27//27 40//40
f 48//48 30//30 56//56
f 30//30 57//57 56//56
f 58//58 51//51 59//59
f 51//51 53//53 59//59
f 60//60 61//61 62//62
f 34//34 45//45 35//35
f 33//33 60//60 63//63
f 60//60 64//64 63//63
f 27//27 55//55 29//29
f 30//30 20//20 65//65
f 20//20 22//22 65//65
f 48//48 50//50 30//30
f 66//66 58//58 67//67
f 58//58 68//68 67//67
f 51//51 58//58 52//52
f 17//17 33//33 19//19
f 33//33 69//69 19//19
f 62//62 66//66 70//70
f 66//66 67//67 70//70
f 71//71 72//72 73//73
f 72//72 74//74 73//73
f 2//2 75//75 76//76
f 2//2 76//76 77//77
f 76//76 78//78 77//77
f 66//66 62//62 79//79
f 60//60 62//62 64//64
f 62//62 80//80 64//64
f 71//71 41//41 11//11
f 71//71 11//11 72//72
f 75//75 49//49 76//76
f 76//76 49//49 78//78
f 49//49 81//81 78//78
f 72//72 5//5 82//82
f 5//5 7//7 82//82
f 49//49 48//48 83//83
f 48//48 56//56 83//83
f 41//41 40//40 11//11
f 41//41 84//84 44//44
f 72//72 11//11 5//5
f 72//72 82//82 74//74
f 41//41 71//71 84//84
f 71//71 73//73 84//84
f 6//6 12//12 85//85
f 6//6 86//86 8//8
f 13//13 15//15 27//27
f 87//87 88//88 89//89
f 90//90 88//88 91//91
f 90//90 89//89 88//88
f 92//92 87//87 93//93
f 94//94 92//92 95//95
f 94//94 96//96 97//97
f 92//92 94//94 98//98
f 94//94 97//97 98//98
f 87//87 92//92 99//99
f 92//92 98//98 99//99
f 87//87 100//100 93//93
f 100//100 101//101 102//102
f 94//94 101//101 96//96
f 101//101 103//103 96//96
f 101//101 100//100 103//103
f 100//100 104//104 103//103
f 100//100 87//87 104//104
f 87//87 105//105 104//104
f 14//14 106//106 107//107
f 14//14 13//13 106//106
f 13//13 28//28 106//106
f 108//108 90//90 109//109
f 109//109 110//110 111//111
f 110//110 112//112 111//111
f 109//109 111//111 113//113
f 114//114 115//115 116//116
f 114//114 14//14 115//115
f 14//14 107//107 115//115
f 110//110 117//117 10//10
f 9//9 1//1 118//118
f 1//1 3//3 118//118
f 119//119 120//120 121//121
f 119//119 114//114 120//120
f 114//114 116//116 120//120
f 1//1 10//10 75//75
f 37//37 122//122 123//123
f 37//37 119//119 122//122
f 119//119 121//121 122//122
f 49//49 75//75 50//50
f 49//49 83//83 81//81
f 32//32 37//37 124//124
f 37//37 123//123 124//124
f 32//32 124//124 125//125
f 30//30 50//50 31//31
f 30//30 65//65 57//57
f 61//61 32//32 126//126
f 32//32 125//125 126//126
f 61//61 126//126 127//127
f 21//21 31//31 24//24
f 21//21 25//25 23//23
f 79//79 61//61 128//128
f 61//61 127//127 128//128
f 79//79 128//128 129//129
f 130//130 131//131 132//132
f 24//24 130//130 26//26
f 130//130 132//132 26//26
f 52//52 79//79 133//133
f 79//79 134//134 133//133
f 79//79 129//129 134//134
f 135//135 136//136 137//137
f 130//130 135//135 131//131
f 135//135 137//137 131//131
f 35//35 52//52 138//138
f 52//52 139//139 138//138
f 52//52 133//133 139//139
f 36//36 140//140 141//141
f 135//135 36//36 136//136
f 36//36 141//141 136//136
f 36//36 35//35 140//140
f 35//35 142//142 140//140
f 35//35 138//138 142//142
f 143//143 144//144 145//145
f 144//144 146//146 145//145
f 144//144 143//143 147//147
f 144//144 148//148 146//146
f 144//144 149//149 148//148
f 149//149 150//150 148//148
f 151//151 152//152 153//153
f 151//151 154//154 155//155
f 156//156 157//157 158//158
f 158//158 143//143 159//159
f 143//143 145//145 159//159
f 143//143 158//158 147//147
f 147//147 160//160 152//152
f 161//161 153//153 162//162
f 161//161 163//163 164//164
f 152//152 160//160 153//153
f 165//165 166//166 167//167
f 167//167 156//156 168//168
f 156//156 169//169 168//168
f 157//157 160//160 147//147
f 170//170 171//171 172//172
f 170//170 173//173 171//171
f 173//173 174//174 171//171
f 175//175 162//162 170//170
f 153//153 160//160 162//162
f 176//176 177//177 178//178
f 177//177 179//179 178//178
f 177//177 176//176 180//180
f 177//177 165//165 181//181
f 165//165 182//182 181//181
f 166//166 160//160 157//157
f 183//183 184//184 185//185
f 184//184 186//186 185//185
f 173//173 187//187 183//183
f 162//162 160//160 187//187
f 188//188 189//189 190//190
f 189//189 191//191 190//190
f 189//189 188//188 192//192
f 189//189 176//176 193//193
f 176//176 178//178 193//193
f 176//176 189//189 180//180
f 180//180 160//160 166//166
f 194//194 195//195 196//196
f 195//195 197//197 196//196
f 184//184 198//198 194//194
f 160//160 198//198 187//187
f 199//199 200//200 201//201
f 201//201 188//188 202//202
f 188//188 190//190 202//202
f 188//188 201//201 192//192
f 180//180 192//192 160//160
f 203//203 204//204 205//205
f 204//204 206//206 205//205
f 195//195 207//207 203//203
f 160//160 207//207 198//198
f 208//208 209//209 210//210
f 210//210 199//199 211//211
f 199//199 212//212 211//211
f 210//210 211//211 213//213
f 192//192 200//200 160//160
f 204//204 214//214 215//215
f 215//215 216//216 217//217
f 216//216 218//218 217//217
f 160//160 214//214 207//207
f 219//219 220//220 221//221
f 221//221 220//220 222//222
f 220//220 223//223 222//222
f 220//220 208//208 224//224
f 208//208 225//225 224//224
f 200//200 209//209 160//160
f 216//216 226//226 227//227
f 227//227 228//228 229//229
f 228//228 230//230 229//229
f 160//160 226//226 214//214
f 231//231 232//232 233//233
f 221//221 233//233 219//219
f 233//233 221//221 234//234
f 221//221 222//222 234//234
f 209//209 219//219 160//160
f 228//228 235//235 236//236
f 236//236 237//237 238//238
f 237//237 239//239 238//238
f 160//160 235//235 226//226
f 240//240 241//241 242//242
f 240//240 243//243 232//232
f 219//219 232//232 160//160
f 237//237 244//244 245//245
f 245//245 246//246 247//247
f 246//246 248//248 247//247
f 160//160 244//244 235//235
f 249//249 250//250 251//251
f 249//249 252//252 243//243
f 232//232 243//243 160//160
f 246//246 253//253 254//254
f 254//254 255//255 256//256
f 255//255 257//257 256//256
f 253//253 244//244 160//160
f 258//258 259//259 260//260
f 258//258 261//261 252//252
f 243//243 252//252 160//160
f 255//255 262//262 263//263
f 263//263 261//261 264//264
f 263//263 264//264 265//265
f 264//264 266//266 265//265
f 262//262 253//253 160//160
f 252//252 261//261 160//160
f 261//261 262//262 160//160
f 33//33 32//32 61//61
f 33//33 63//63 69//69
f 16//16 37//37 32//32
f 16//16 18//18 39//39
f 119//119 267//267 268//268
f 119//119 37//37 267//267
f 37//37 38//38 267//267
f 114//114 269//269 270//270
f 114//114 119//119 269//269
f 119//119 268//268 269//269
f 14//14 271//271 272//272
f 14//14 114//114 271//271
f 114//114 270//270 271//271
f 15//15 273//273 274//274
f 15//15 14//14 273//273
f 14//14 272//272 273//273
f 40//40 15//15 275//275
f 15//15 276//276 275//275
f 15//15 274//274 276//276
f 11//11 40//40 277//277
f 40//40 278//278 277//277
f 40//40 275//275 278//278
f 12//12 11//11 279//279
f 11//11 280//280 279//279
f 11//11 277//277 280//280
f 91//91 12//12 281//281
f 12//12 282//282 281//281
f 12//12 279//279 282//282
f 62//62 61//61 79//79
f 62//62 70//70 80//80
f 117//117 90//90 283//283
f 90//90 284//284 283//283
f 90//90 285//285 284//284
f 10//10 117//117 286//286
f 117//117 287//287 286//286
f 117//117 283//283 287//287
f 75//75 10//10 288//288
f 10//10 289//289 288//288
f 10//10 286//286 289//289
f 50//50 75//75 290//290
f 75//75 288//288 290//290
f 50//50 290//290 291//291
f 31//31 50//50 292//292
f 50//50 291//291 292//292
f 31//31 292//292 293//293
f 24//24 31//31 294//294
f 31//31 293//293 294//294
f 24//24 294//294 295//295
f 24//24 295//295 296//296
f 130//130 24//24 297//297
f 24//24 296//296 297//297
f 90//90 91//91 285//285
f 91//91 298//298 285//285
f 91//91 281//281 298//298
f 58//58 66//66 52//52
f 58//58 59//59 68//68
f 130//130 297//297 299//299
f 135//135 130//130 300//300
f 130//130 299//299 300//300
f 45//45 46//46 54//54
f 135//135 300//300 301//301
f 36//36 135//135 302//302
f 135//135 301//301 302//302
f 34//34 36//36 47//47
f 36//36 303//303 47//47
f 36//36 302//302 303//303
f 6//6 85//85 86//86
f 85//85 304//304 86//86
f 5//5 12//12 6//6
f 2//2 77//77 4//4
f 2//2 1//1 75//75
f 9//9 118//118 305//305
f 9//9 110//110 10//10
f 66//66 79//79 52//52
f 60//60 33//33 61//61
f 27//27 15//15 40//40
f 215//215 214//214 226//226
f 85//85 12//12 91//91
f 85//85 87//87 304//304
f 87//87 99//99 304//304
f 144//144 147//147 152//152
f 110//110 9//9 112//112
f 9//9 305//305 112//112
f 108//108 109//109 306//306
f 109//109 113//113 306//306
f 183//183 187//187 198//198
f 108//108 307//307 308//308
f 108//108 89//89 307//307
f 87//87 89//89 108//108
f 90//90 307//307 89//89
f 90//90 308//308 307//307
f 90//90 108//108 308//308
f 167//167 166//166 157//157
f 167//167 168//168 309//309
f 246//246 245//245 253//253
f 237//237 236//236 244//244
f 231//231 233//233 310//310
f 233//233 311//311 310//310
f 165//165 177//177 166//166
f 161//161 175//175 163//163
f 175//175 312//312 163//163
f 227//227 226//226 235//235
f 313//313 153//153 161//161
f 240//240 231//231 241//241
f 231//231 310//310 241//241
f 258//258 314//314 259//259
f 314//314 315//315 259//259
f 316//316 249//249 243//243
f 165//165 167//167 182//182
f 167//167 309//309 182//182
f 195//195 203//203 197//197
f 203//203 317//317 197//197
f 228//228 227//227 235//235
f 208//208 210//210 225//225
f 210//210 213//213 225//225
f 228//228 236//236 230//230
f 236//236 318//318 230//230
f 204//204 203//203 214//214
f 184//184 194//194 186//186
f 194//194 319//319 186//186
f 314//314 249//249 315//315
f 249//249 251//251 315//315
f 314//314 258//258 252//252
f 149//149 152//152 151//151
f 151//151 313//313 154//154
f 313//313 320//320 154//154
f 255//255 263//263 257//257
f 263//263 321//321 257//257
f 149//149 144//144 152//152
f 173//173 183//183 174//174
f 183//183 322//322 174//174
f 173//173 170//170 187//187
f 175//175 170//170 312//312
f 170//170 172//172 312//312
f 314//314 252//252 249//249
f 216//216 227//227 218//218
f 227//227 323//323 218//218
f 216//216 215//215 226//226
f 249//249 316//316 250//250
f 316//316 324//324 250//250
f 245//245 244//244 253//253
f 233//233 234//234 311//311
f 203//203 207//207 214//214
f 263//263 265//265 321//321
f 254//254 256//256 325//325
f 220//220 219//219 209//209
f 201//201 200//200 192//192
f 254//254 253//253 262//262
f 220//220 224//224 223//223
f 158//158 159//159 326//326
f 316//316 243//243 240//240
f 316//316 240//240 324//324
f 240//240 242//242 324//324
f 264//264 258//258 266//266
f 258//258 260//260 266//266
f 264//264 261//261 258//258
f 204//204 215//215 206//206
f 215//215 327//327 206//206
f 255//255 254//254 262//262
f 149//149 151//151 150//150
f 151//151 155//155 150//150
f 227//227 229//229 323//323
f 189//189 193//193 191//191
f 189//189 192//192 180//180
f 210//210 209//209 200//200
f 237//237 245//245 239//239
f 245//245 328//328 239//239
f 231//231 240//240 232//232
f 109//109 90//90 117//117
f 246//246 254//254 248//248
f 254//254 325//325 248//248
f 183//183 185//185 322//322
f 245//245 247//247 328//328
f 203//203 205//205 317//317
f 233//233 232//232 219//219
f 263//263 262//262 261//261
f 177//177 180//180 166//166
f 177//177 181//181 179//179
f 201//201 202//202 329//329
f 158//158 157//157 147//147
f 170//170 162//162 187//187
f 215//215 217//217 327//327
f 194//194 198//198 207//207
f 199//199 210//210 200//200
f 313//313 161//161 320//320
f 161//161 164//164 320//320
f 313//313 151//151 153//153
f 330//330 331//331 332//332
f 333//333 332//332 331//331
f 331//331 334//334 333//333
f 335//335 333//333 334//334
f 334//334 336//336 335//335
f 337//337 335//335 336//336
f 336//336 338//338 337//337
f 339//339 337//337 338//338
f 338//338 340//340 339//339
f 341//341 339//339 340//340
f 340//340 342//342 341//341
f 343//343 341//341 342//342
f 342//342 344//344 343//343
f 345//345 343//343 344//344
f 344//344 346//346 345//345
f 347//347 345//345 346//346
f 346//346 348//348 347//347
f 349//349 347//347 348//348
f 348//348 350//350 349//349
f 351//351 349//349 350//350
f 350//350 352//352 351//351
f 353//353 351//351 352//352
f 352//352 354//354 353//353
f 355//355 353//353 354//354
f 355//355 354//354 356//356
f 357//357 356//356 354//354
f 356//356 357//357 358//358
f 359//359 358//358 357//357
f 358//358 359//359 360//360
f 361//361 360//360 359//359
f 360//360 361//361 362//362
f 363//363 362//362 361//361
f 362//362 363//363 364//364
f 365//365 364//364 363//363
f 366//366 367//367 365//365
f 364//364 365//365 367//367
f 368//368 369//369 366//366
f 367//367 366//366 369//369
f 370//370 371//371 372//372
f 101//101 94//94 368//368
f 369//369 368//368 94//94
f 100//100 373//373 93//93
f 374//374 93//93 373//373
f 375//375 374//374 373//373
f 373//373 376//376 375//375
f 377//377 375//375 376//376
f 378//378 375//375 377//377
f 377//377 379//379 378//378
f 380//380 378//378 379//379
f 381//381 382//382 379//379
f 380//380 379//379 382//382
f 383//383 384//384 381//381
f 382//382 381//381 384//384
f 385//385 386//386 383//383
f 384//384 383//383 386//386
f 387//387 388//388 385//385
f 386//386 385//385 388//388
f 389//389 390//390 387//387
f 388//388 387//387 390//390
f 390//390 389//389 391//391
f 392//392 391//391 389//389
f 393//393 394//394 392//392
f 391//391 392//392 394//394
f 395//395 396//396 393//393
f 394//394 393//393 396//396
f 397//397 398//398 395//395
f 396//396 395//395 398//398
f 398//398 397//397 399//399
f 400//400 399//399 397//397
f 399//399 400//400 401//401
f 402//402 401//401 400//400
f 403//403 404//404 402//402
f 401//401 402//402 404//404
f 405//405 406//406 403//403
f 404//404 403//403 406//406
f 407//407 408//408 405//405
f 406//406 405//405 408//408
f 409//409 410//410 407//407
f 408//408 407//407 410//410
f 411//411 412//412 409//409
f 410//410 409//409 412//412
f 413//413 414//414 411//411
f 412//412 411//411 414//414
f 414//414 413//413 372//372
f 370//370 372//372 413//413
f 415//415 416//416 417//417
f 416//416 418//418 419//419
f 415//415 418//418 416//416
f 420//420 330//330 421//421
f 332//332 421//421 330//330
f 374//374 95//95 92//92
f 374//374 375//375 95//95
f 95//95 375//375 94//94
f 369//369 94//94 375//375
f 378//378 369//369 375//375
f 367//367 369//369 378//378
f 380//380 367//367 378//378
f 382//382 367//367 380//380
f 364//364 367//367 382//382
f 384//384 364//364 382//382
f 422//422 418//418 415//415
f 421//421 423//423 422//422
f 422//422 415//415 421//421
f 423//423 421//421 332//332
f 332//332 333//333 423//423
f 423//423 333//333 424//424
f 372//372 424//424 333//333
f 335//335 372//372 333//333
f 414//414 372//372 335//335
f 412//412 414//414 335//335
f 337//337 412//412 335//335
f 410//410 412//412 337//337
f 339//339 410//410 337//337
f 408//408 410//410 339//339
f 341//341 408//408 339//339
f 406//406 408//408 341//341
f 404//404 406//406 341//341
f 343//343 404//404 341//341
f 401//401 404//404 343//343
f 345//345 401//401 343//343
f 399//399 401//401 345//345
f 398//398 399//399 345//345
f 347//347 398//398 345//345
f 396//396 398//398 347//347
f 349//349 396//396 347//347
f 394//394 396//396 349//349
f 351//351 394//394 349//349
f 391//391 394//394 351//351
f 353//353 391//391 351//351
f 390//390 391//391 353//353
f 355//355 390//390 353//353
f 388//388 390//390 355//355
f 386//386 388//388 355//355
f 356//356 386//386 355//355
f 384//384 386//386 356//356
f 364//364 384//384 356//356
f 362//362 364//364 356//356
f 358//358 362//362 356//356
f 360//360 362//362 358//358
f 415//415 417//417 421//421
f 420//420 421//421 417//417
f 208//208 220//220 209//209
f 195//195 194//194 207//207
f 199//199 201//201 212//212
f 201//201 329//329 212//212
f 92//92 93//93 374//374
f 175//175 161//161 162//162
f 425//425 417//417 416//416
f 425//425 416//416 419//419
f 417//417 425//425 426//426
f 417//417 426//426 371//371
f 236//236 235//235 244//244
f 236//236 238//238 318//318
f 424//424 426//426 423//423
f 426//426 424//424 371//371
f 422//422 91//91 418//418
f 423//423 91//91 422//422
f 87//87 423//423 426//426
f 85//85 423//423 87//87
f 85//85 91//91 423//423
f 425//425 419//419 88//88
f 88//88 426//426 425//425
f 88//88 87//87 426//426
f 91//91 419//419 418//418
f 91//91 88//88 419//419
f 87//87 108//108 105//105
f 108//108 306//306 105//105
f 194//194 196//196 319//319
f 110//110 109//109 117//117
f 156//156 167//167 157//157
f 156//156 158//158 169//169
f 158//158 326//326 169//169
f 371//371 424//424 372//372
f 184//184 183//183 198//198
f 100//100 102//102 373//373
f 368//368 373//373 101//101
f 102//102 101//101 373//373
f 373//373 368//368 376//376
f 376//376 368//368 377//377
f 377//377 368//368 366//366
f 377//377 366//366 379//379
f 379//379 366//366 381//381
f 381//381 366//366 365//365
f 381//381 365//365 383//383
f 371//371 420//420 417//417
f 420//420 371//371 330//330
f 330//330 371//371 331//331
f 331//331 371//371 370//370
f 331//331 370//370 334//334
f 334//334 370//370 413//413
f 334//334 413//413 411//411
f 334//334 411//411 336//336
f 336//336 411//411 409//409
f 336//336 409//409 338//338
f 338//338 409//409 407//407
f 338//338 407//407 340//340
f 340//340 407//407 405//405
f 340//340 405//405 403//403
f 340//340 403//403 342//342
f 342//342 403//403 402//402
f 342//342 402//402 344//344
f 344//344 402//402 400//400
f 344//344 400//400 397//397
f 344//344 397//397 346//346
f 346//346 397//397 395//395
f 346//346 395//395 348//348
f 348//348 395//395 393//393
f 348//348 393//393 350//350
f 350//350 393//393 392//392
f 350//350 392//392 352//352
f 352//352 392//392 389//389
f 352//352 389//389 354//354
f 354//354 389//389 387//387
f 354//354 387//387 385//385
f 354//354 385//385 357//357
f 357//357 385//385 383//383
f 357//357 383//383 365//365
f 357//357 365//365 363//363
f 357//357 363//363 359//359
f 359//359 363//363 361//361
f 107//107 106//106 115//115
f 106//106 28//28 115//115
f 115//115 28//28 116//116
f 28//28 29//29 116//116
f 116//116 29//29 120//120
f 29//29 55//55 120//120
f 120//120 55//55 43//43
f 44//44 84//84 154//154
f 44//44 154//154 320//320
f 44//44 320//320 164//164
f 44//44 164//164 163//163
f 44//44 163//163 312//312
f 44//44 312//312 172//172
f 44//44 172//172 171//171
f 44//44 171//171 174//174
f 44//44 174//174 121//121
f 44//44 121//121 120//120
f 44//44 120//120 43//43
f 150//150 155//155 74//74
f 155//155 154//154 74//74
f 74//74 154//154 73//73
f 154//154 84//84 73//73
f 148//148 150//150 74//74
f 148//148 74//74 82//82
f 148//148 82//82 7//7
f 148//148 7//7 8//8
f 148//148 8//8 146//146
f 8//8 86//86 159//159
f 8//8 159//159 145//145
f 8//8 145//145 146//146
f 159//159 86//86 304//304
f 159//159 304//304 99//99
f 159//159 99//99 98//98
f 159//159 98//98 326//326
f 97//97 96//96 168//168
f 97//97 168//168 169//169
f 97//97 169//169 326//326
f 97//97 326//326 98//98
f 168//168 96//96 103//103
f 168//168 103//103 104//104
f 168//168 104//104 105//105
f 168//168 105//105 309//309
f 179//179 181//181 113//113
f 181//181 182//182 113//113
f 113//113 182//182 306//306
f 182//182 309//309 306//306
f 306//306 309//309 105//105
f 113//113 111//111 193//193
f 113//113 193//193 178//178
f 113//113 178//178 179//179
f 190//190 191//191 305//305
f 191//191 193//193 305//305
f 305//305 193//193 112//112
f 193//193 111//111 112//112
f 202//202 190//190 305//305
f 202//202 305//305 118//118
f 202//202 118//118 3//3
f 202//202 3//3 4//4
f 202//202 4//4 329//329
f 4//4 77//77 211//211
f 4//4 211//211 212//212
f 4//4 212//212 329//329
f 225//225 213//213 81//81
f 213//213 211//211 81//81
f 81//81 211//211 78//78
f 211//211 77//77 78//78
f 81//81 83//83 222//222
f 81//81 222//222 223//223
f 81//81 223//223 224//224
f 81//81 224//224 225//225
f 311//311 234//234 310//310
f 234//234 83//83 310//310
f 310//310 83//83 141//141
f 83//83 56//56 141//141
f 141//141 56//56 57//57
f 322//322 185//185 122//122
f 322//322 122//122 121//121
f 322//322 121//121 174//174
f 122//122 185//185 186//186
f 122//122 186//186 319//319
f 122//122 319//319 196//196
f 122//122 196//196 197//197
f 122//122 197//197 317//317
f 122//122 317//317 123//123
f 124//124 123//123 317//317
f 124//124 317//317 205//205
f 124//124 205//205 206//206
f 124//124 206//206 327//327
f 124//124 327//327 125//125
f 126//126 125//125 327//327
f 126//126 327//327 217//217
f 126//126 217//217 218//218
f 126//126 218//218 323//323
f 126//126 323//323 127//127
f 323//323 229//229 127//127
f 229//229 230//230 127//127
f 127//127 230//230 128//128
f 230//230 318//318 128//128
f 128//128 318//318 238//238
f 239//239 328//328 129//129
f 239//239 129//129 128//128
f 239//239 128//128 238//238
f 247//247 248//248 134//134
f 247//247 134//134 129//129
f 247//247 129//129 328//328
f 325//325 256//256 133//133
f 325//325 133//133 134//134
f 325//325 134//134 248//248
f 138//138 139//139 321//321
f 139//139 133//133 321//321
f 321//321 133//133 257//257
f 133//133 256//256 257//257
f 138//138 321//321 265//265
f 138//138 265//265 266//266
f 138//138 266//266 260//260
f 138//138 260//260 142//142
f 140//140 142//142 260//260
f 140//140 260//260 259//259
f 140//140 259//259 315//315
f 140//140 315//315 251//251
f 140//140 251//251 250//250
f 140//140 250//250 324//324
f 140//140 324//324 141//141
f 141//141 324//324 242//242
f 141//141 242//242 241//241
f 141//141 241//241 310//310
f 57//57 65//65 137//137
f 57//57 137//137 136//136
f 57//57 136//136 141//141
f 132//132 131//131 23//23
f 131//131 137//137 23//23
f 23//23 137//137 22//22
f 137//137 65//65 22//22
f 25//25 26//26 132//132
f 25//25 132//132 23//23
f 222//222 83//83 234//234
f 39//39 277//277 38//38
f 38//38 277//277 267//267
f 277//277 278//278 267//267
f 267//267 278//278 268//268
f 278//278 275//275 268//268
f 268//268 275//275 269//269
f 275//275 276//276 269//269
f 269//269 276//276 270//270
f 276//276 274//274 270//270
f 270//270 274//274 271//271
f 274//274 273//273 271//271
f 271//271 273//273 272//272
f 69//69 279//279 19//19
f 19//19 279//279 18//18
f 279//279 280//280 18//18
f 18//18 280//280 39//39
f 280//280 277//277 39//39
f 80//80 281//281 64//64
f 64//64 281//281 63//63
f 281//281 282//282 63//63
f 63//63 282//282 69//69
f 282//282 279//279 69//69
f 68//68 285//285 67//67
f 67//67 285//285 70//70
f 285//285 298//298 70//70
f 70//70 298//298 80//80
f 298//298 281//281 80//80
f 54//54 283//283 53//53
f 53//53 283//283 59//59
f 283//283 284//284 59//59
f 59//59 284//284 68//68
f 284//284 285//285 68//68
f 303//303 286//286 47//47
f 47//47 286//286 46//46
f 286//286 287//287 46//46
f 46//46 287//287 54//54
f 287//287 283//283 54//54
f 301//301 288//288 302//302
f 302//302 288//288 303//303
f 288//288 289//289 303//303
f 303//303 289//289 286//286
f 299//299 291//291 300//300
f 300//300 291//291 301//301
f 291//291 290//290 301//301
f 301//301 290//290 288//288
f 295//295 294//294 296//296
f 296//296 294//294 297//297
f 294//294 293//293 297//297
f 297//297 293//293 299//299
f 293//293 292//292 299//299
f 299//299 292//292 291//291