# https://github.com/mikedh/trimesh
v 0.01504600 0.00916281 -0.00673598
v 0.04628420 0.00916281 -0.00673598
v 0.01504600 0.00917103 -0.00672392
v 0.01504600 0.01419670 -0.02127560
v 0.01504600 0.01198750 -0.00274694
v 0.01504600 0.01199640 -0.00273488
v 0.01504600 0.01200210 -0.00272149
v 0.01504600 0.01398410 0.00180785
v 0.01504600 0.01399040 0.00182192
v 0.01504600 0.01419670 0.02480830
v 0.01504600 0.01199640 0.00637872
v 0.01504600 0.00916281 0.01037980
v 0.01504600 0.00915206 0.01038990
v 0.01504600 0.00550103 0.01359350
v 0.01504600 0.00548964 0.01360290
v 0.01504600 0.00547763 0.01361090
v 0.01504600 0.00140934 0.01615180
v 0.01504600 0.00139669 0.01615920
v 0.01504600 0.00138277 0.01616390
v 0.01504600 -0.00310278 0.01760000
v 0.01504600 -0.00311607 0.01760400
v 0.01504600 -0.00313061 0.01760600
v 0.01504600 -0.00782479 0.01815840
v 0.01504600 -0.00783871 0.01815970
v 0.01504600 -0.00785326 0.01815840
v 0.01504600 -0.01254740 0.01760600
v 0.01504600 -0.01256140 0.01760400
v 0.01504600 -0.03017630 0.02480830
v -0.00159980 -0.03017630 0.02480830
v -0.00159980 0.01419670 0.02480830
v -0.00159980 0.01419670 -0.02127560
v -0.00159980 -0.03017630 -0.02127560
v 0.01504600 -0.03017630 -0.02127560
v 0.01504600 -0.00783871 -0.01462700
v 0.01504600 -0.00782479 -0.01462500
v 0.01504600 -0.00313061 -0.01407270
v 0.01504600 -0.00311607 -0.01407130
v 0.01504600 -0.00310278 -0.01406660
v 0.01504600 0.00138277 -0.01252000
v 0.01504600 0.00139669 -0.01251530
v 0.01504600 0.00140934 -0.01250800
v 0.01504600 0.00416782 -0.01086010
v 0.04628420 0.00349564 -0.01129280
v 0.04628420 0.00139669 -0.01251530
v 0.07778310 0.00139669 -0.01251530
v 0.07778310 0.00202637 -0.01218190
v 0.07778310 0.00244616 -0.01195960
v 0.07778310 0.00370553 -0.01118160
v 0.07778310 0.01126180 -0.01207080
v 0.07778310 0.01210130 -0.01107050
v 0.08028300 0.01210130 -0.01107050
v 0.08028300 0.01273100 -0.01007020
v 0.08028300 -0.02872330 -0.01018140
v 0.08028300 -0.02956290 -0.00884766
v 0.08028300 0.01325580 -0.00884766
v 0.08028300 -0.03019260 -0.00740282
v 0.08028300 0.01367560 -0.00762511
v 0.07778310 0.01325580 -0.00884766
v 0.07778310 0.01273100 -0.01007020
v 0.07778310 0.00685397 -0.00884766
v 0.07778310 0.00580449 -0.00984794
v 0.07778310 0.00559459 -0.01007020
v 0.04628420 0.00737870 -0.00840310
v 0.07778310 0.00548964 -0.01007020
v 0.04628420 0.00548964 -0.01007020
v 0.01504600 0.00550103 -0.01006020
v 0.01504600 0.00915206 -0.00674602
v 0.01504600 0.00548964 -0.01007020
v 0.01504600 0.00547763 -0.01007760
v 0.07778310 0.00916281 -0.00673598
v 0.07778310 0.00821828 -0.00762511
v 0.07778310 0.01367560 -0.00762511
v 0.07778310 0.00937271 -0.00640255
v 0.07778310 0.01388550 -0.00629141
v 0.08028300 0.01388550 -0.00629141
v 0.08028300 0.01399040 -0.00506885
v 0.08028300 -0.03071730 -0.00595799
v 0.08028300 -0.03103210 -0.00440201
v 0.08028300 0.00213132 -0.00295717
v 0.08028300 -0.02410560 -0.00295717
v 0.09085410 -0.02410560 -0.00295717
v 0.09071120 -0.02253140 -0.00295717
v 0.09092550 -0.02106210 -0.00295717
v 0.09142550 -0.01980270 -0.00295717
v 0.09213980 -0.01875330 -0.00295717
v 0.09306830 -0.01801860 -0.00295717
v 0.09406830 -0.01780870 -0.00295717
v 0.12335300 -0.00626450 -0.00295717
v 0.12149600 -0.00458533 -0.00295717
v 0.11956700 -0.00301112 -0.00295717
v 0.11763900 -0.00164680 -0.00295717
v 0.11556800 -0.00049237 -0.00295717
v 0.11349600 0.00045215 -0.00295717
v 0.11135300 0.00118679 -0.00295717
v 0.10921100 0.00171153 -0.00295717
v 0.13378100 0.00192142 -0.00295717
v 0.12935300 0.00213132 -0.00295717
v 0.12942400 0.00653912 0.00371132
v 0.13399500 0.00632922 0.00371132
v 0.13378100 0.00192142 0.01037980
v 0.12935300 0.00213132 0.01037980
v 0.08028300 0.00653912 0.00371132
v 0.08028300 0.00213132 0.01037980
v 0.08028300 0.01399040 0.00493388
v 0.08028300 0.01388550 0.00671214
v 0.07778310 0.01399040 0.00493388
v 0.07778310 0.01399040 0.00182192
v 0.07778310 0.01252110 0.00515616
v 0.04628420 0.01294090 0.00404475
v 0.04628420 0.01399040 0.00182192
v 0.01504600 0.01398410 0.00183531
v 0.01504600 0.01200210 0.00636465
v 0.04628420 0.01199640 0.00637872
v 0.07778310 0.01199640 0.00637872
v 0.04628420 0.01052710 0.00837926
v 0.01504600 0.01198750 0.00639077
v 0.01504600 0.00917103 0.01036780
v 0.04628420 0.00916281 0.01037980
v 0.07778310 0.00916281 0.01037980
v 0.04628420 0.00737870 0.01204690
v 0.07778310 0.00779849 0.01160240
v 0.07778310 0.00769354 0.01171350
v 0.07778310 0.00748365 0.01182460
v 0.07778310 0.00611933 0.01315830
v 0.07778310 0.00601438 0.01326950
v 0.07778310 0.01136670 0.01326950
v 0.07778310 0.00548964 0.01360290
v 0.07778310 0.00433522 0.01438090
v 0.07778310 0.01021230 0.01460320
v 0.08028300 0.01021230 0.01460320
v 0.07778310 0.00895292 0.01571460
v 0.07778310 0.00223626 0.01560350
v 0.07778310 0.00381048 0.01471430
v 0.07778310 0.00412532 0.01449200
v 0.04628420 0.00349564 0.01493660
v 0.07778310 0.00192142 0.01582570
v 0.07778310 0.00139669 0.01615920
v 0.07778310 0.00003236 0.01660370
v 0.07778310 0.00758860 0.01671490
v 0.08028300 0.00895292 0.01571460
v 0.08028300 0.00758860 0.01671490
v 0.07778310 0.00611933 0.01749290
v 0.07778310 -0.00217154 0.01738170
v 0.07778310 -0.00038742 0.01671490
v 0.04628420 -0.00091217 0.01693720
v 0.07778310 -0.00259133 0.01749290
v 0.07778310 -0.00301112 0.01760400
v 0.07778310 -0.00311607 0.01760400
v 0.07778310 -0.00636944 0.01804860
v 0.07778310 0.00454511 0.01804860
v 0.08028300 0.00611933 0.01749290
v 0.08028300 0.00454511 0.01804860
v 0.07778310 0.00286595 0.01838200
v 0.07778310 -0.00783871 0.01815970
v 0.07778310 -0.00762882 0.01815970
v 0.04628420 -0.00552986 0.01793740
v 0.04628420 -0.00783871 0.01815970
v 0.04628420 -0.01025250 0.01793740
v 0.07778310 -0.00804861 0.01815970
v 0.07778310 -0.00941293 0.01793740
v 0.07778310 -0.01193170 0.01771510
v 0.07778310 -0.01256140 0.01760400
v 0.07778310 -0.02714910 0.01738170
v 0.07778310 -0.02630950 0.01793740
v 0.08028300 -0.02630950 0.01793740
v 0.08028300 -0.02526000 0.01827090
v 0.08028300 0.00286595 0.01838200
v 0.08028300 -0.02431550 0.01849310
v 0.08028300 -0.02326600 0.01849310
v 0.08028300 0.00118679 0.01849310
v 0.07778310 -0.02326600 0.01849310
v 0.07778310 -0.02431550 0.01849310
v 0.07778310 0.00118679 0.01849310
v 0.07778310 -0.02526000 0.01827090
v 0.08028300 -0.02714910 0.01738170
v 0.07778310 -0.02798870 0.01682600
v 0.07778310 -0.01424050 0.01704830
v 0.07778310 -0.01319100 0.01749290
v 0.04628420 -0.01487020 0.01693720
v 0.07778310 -0.01518500 0.01682600
v 0.07778310 -0.01654940 0.01627030
v 0.07778310 -0.02882820 0.01604800
v 0.08028300 -0.02798870 0.01682600
v 0.08028300 -0.02882820 0.01604800
v 0.08028300 -0.02945790 0.01527000
v 0.07778310 -0.02945790 0.01527000
v 0.08028300 -0.03008760 0.01438090
v 0.07778310 -0.03008760 0.01438090
v 0.08028300 -0.03050740 0.01338060
v 0.07778310 -0.03050740 0.01338060
v 0.08028300 -0.03082220 0.01238040
v 0.07778310 -0.03082220 0.01238040
v 0.08028300 -0.03103210 0.01138010
v 0.07778310 -0.03103210 0.01138010
v 0.08028300 -0.03103210 0.01026870
v 0.07778310 -0.03103210 0.01026870
v 0.08028300 -0.03103210 -0.00273488
v 0.07778310 -0.03103210 -0.00273488
v 0.07778310 -0.03103210 -0.00440201
v 0.07778310 -0.02693920 -0.00384630
v 0.07778310 -0.02767380 -0.00273488
v 0.04628420 -0.02620460 -0.00473543
v 0.04628420 -0.02767380 -0.00273488
v 0.04628420 -0.02872330 -0.00051205
v 0.07778310 -0.02777880 -0.00240146
v 0.07778310 -0.02966780 0.00182192
v 0.04628420 -0.02966780 0.00182192
v 0.04628420 -0.02872330 0.00404475
v 0.07778310 -0.02767380 0.00637872
v 0.04628420 -0.02767380 0.00637872
v 0.04628420 -0.02620460 0.00837926
v 0.07778310 -0.02557490 0.00926839
v 0.07778310 -0.02536500 0.00960182
v 0.07778310 -0.02515510 0.00982410
v 0.07778310 -0.02505010 0.01004640
v 0.07778310 -0.02484020 0.01026870
v 0.07778310 -0.02484020 0.01037980
v 0.04628420 -0.02484020 0.01037980
v 0.04628420 -0.02305610 0.01204690
v 0.07778310 -0.02463030 0.01049090
v 0.07778310 -0.02368580 0.01138010
v 0.07778310 -0.02274130 0.01226920
v 0.07778310 -0.02242640 0.01260260
v 0.07778310 -0.02148190 0.01338060
v 0.07778310 -0.02127200 0.01360290
v 0.07778310 -0.02116710 0.01371410
v 0.04628420 -0.01917310 0.01493660
v 0.07778310 -0.01990770 0.01438090
v 0.07778310 -0.01885820 0.01504780
v 0.07778310 -0.01833350 0.01538120
v 0.07778310 -0.01728400 0.01593690
v 0.07778310 -0.01707410 0.01615920
v 0.04628420 -0.01707410 0.01615920
v 0.01504600 -0.01706080 0.01616390
v 0.01504600 -0.01257530 0.01760000
v 0.04628420 -0.01256140 0.01760400
v 0.01504600 -0.01707410 0.01615920
v 0.01504600 -0.01708680 0.01615180
v 0.01504600 -0.02008390 0.01432670
v 0.01504600 -0.02125940 0.01361090
v 0.04628420 -0.02127200 0.01360290
v 0.01504600 -0.02127200 0.01360290
v 0.01504600 -0.02128280 0.01359350
v 0.01504600 -0.02482950 0.01038990
v 0.01504600 -0.02484020 0.01037980
v 0.01504600 -0.02484850 0.01036780
v 0.01504600 -0.02767380 0.00637872
v 0.01504600 -0.02766500 0.00639077
v 0.01504600 -0.02768010 0.00636465
v 0.01504600 -0.02966210 0.00183531
v 0.01504600 -0.02966780 0.00182192
v 0.01504600 -0.02966210 0.00180785
v 0.01504600 -0.02768010 -0.00272149
v 0.01504600 -0.02767380 -0.00273488
v 0.01504600 -0.02766500 -0.00274694
v 0.01504600 -0.02484850 -0.00672392
v 0.04628420 -0.02484020 -0.00673598
v 0.01504600 -0.02484020 -0.00673598
v 0.01504600 -0.02482950 -0.00674602
v 0.01504600 -0.02128280 -0.01006020
v 0.04628420 -0.02305610 -0.00840310
v 0.04628420 -0.02127200 -0.01007020
v 0.07778310 -0.02127200 -0.01007020
v 0.07778310 -0.02232150 -0.00906995
v 0.07778310 -0.02872330 -0.01018140
v 0.07778310 -0.02956290 -0.00884766
v 0.08028300 -0.02767380 -0.01140390
v 0.07778310 -0.02767380 -0.01140390
v 0.07778310 -0.02651940 -0.01251530
v 0.07778310 -0.01875330 -0.01162620
v 0.07778310 -0.01906810 -0.01140390
v 0.04628420 -0.01917310 -0.01129280
v 0.07778310 -0.01738890 -0.01240420
v 0.07778310 -0.01707410 -0.01251530
v 0.04628420 -0.01707410 -0.01251530
v 0.01504600 -0.01708680 -0.01250800
v 0.01504600 -0.02125940 -0.01007760
v 0.01504600 -0.02127200 -0.01007020
v 0.01504600 -0.01707410 -0.01251530
v 0.01504600 -0.01706080 -0.01252000
v 0.04628420 -0.01487020 -0.01329330
v 0.01504600 -0.01257530 -0.01406660
v 0.04628420 -0.01256140 -0.01407130
v 0.07778310 -0.01256140 -0.01407130
v 0.07778310 -0.01298110 -0.01396020
v 0.07778310 -0.02389570 -0.01407130
v 0.07778310 -0.01434550 -0.01351560
v 0.07778310 -0.02526000 -0.01340450
v 0.08028300 -0.02526000 -0.01340450
v 0.08028300 -0.02389570 -0.01407130
v 0.08028300 0.00926776 -0.01362670
v 0.08028300 0.00821828 -0.01429360
v 0.08028300 -0.02253140 -0.01462700
v 0.08028300 0.00706386 -0.01462700
v 0.08028300 -0.02106210 -0.01496040
v 0.08028300 -0.01948790 -0.01496040
v 0.07778310 -0.01948790 -0.01496040
v 0.07778310 -0.02106210 -0.01496040
v 0.07778310 0.00706386 -0.01462700
v 0.07778310 -0.00783871 -0.01462700
v 0.07778310 -0.02253140 -0.01462700
v 0.07778310 -0.00909808 -0.01440470
v 0.07778310 -0.01182670 -0.01418250
v 0.04628420 -0.01025250 -0.01429360
v 0.04628420 -0.00783871 -0.01462700
v 0.01504600 -0.00785326 -0.01462500
v 0.01504600 -0.01254740 -0.01407270
v 0.01504600 -0.01256140 -0.01407130
v 0.04628420 -0.00552986 -0.01429360
v 0.07778310 -0.00626450 -0.01440470
v 0.07778310 -0.00416554 -0.01418250
v 0.07778310 0.00821828 -0.01429360
v 0.07778310 -0.00311607 -0.01407130
v 0.07778310 -0.00238143 -0.01384900
v 0.07778310 0.00926776 -0.01362670
v 0.07778310 -0.00164680 -0.01362670
v 0.04628420 -0.00091217 -0.01329330
v 0.07778310 -0.00017753 -0.01307100
v 0.07778310 0.00055711 -0.01284880
v 0.07778310 0.01031720 -0.01295990
v 0.08028300 0.01031720 -0.01295990
v 0.08028300 0.01126180 -0.01207080
v 0.08028300 -0.02651940 -0.01251530
v 0.04628420 -0.00311607 -0.01407130
v 0.08028300 0.00580449 -0.01496040
v 0.08028300 0.00454511 -0.01496040
v 0.07778310 0.00580449 -0.01496040
v 0.07778310 0.00454511 -0.01496040
v 0.07778310 -0.01686420 -0.01262650
v 0.07778310 -0.01497520 -0.01329330
v 0.07778310 -0.02074730 -0.01040360
v 0.07778310 -0.02106210 -0.01018140
v 0.07778310 -0.02253140 -0.00884766
v 0.07778310 -0.02379080 -0.00762511
v 0.07778310 -0.03019260 -0.00740282
v 0.07778310 -0.02400070 -0.00751397
v 0.07778310 -0.02421050 -0.00729168
v 0.07778310 -0.02484020 -0.00673598
v 0.07778310 -0.02536500 -0.00595799
v 0.07778310 -0.03071730 -0.00595799
v 0.07778310 -0.02651940 -0.00440201
v 0.07778310 -0.02546990 -0.00584684
v 0.08028300 -0.02410560 0.01037980
v 0.09085410 -0.02410560 0.01037980
v 0.09071120 -0.02253140 0.01037980
v 0.09092550 -0.02106210 0.01037980
v 0.09142550 -0.01980270 0.01037980
v 0.09213980 -0.01875330 0.01037980
v 0.09306830 -0.01801860 0.01037980
v 0.09406830 -0.01780870 0.01037980
v 0.09506820 -0.01801860 -0.00295717
v 0.10042500 -0.01791370 -0.00295717
v 0.10378200 -0.01791370 -0.00295717
v 0.10792500 -0.01791370 -0.00295717
v 0.11242500 -0.01791370 -0.00295717
v 0.11642500 -0.01791370 -0.00295717
v 0.12085300 -0.01791370 -0.00295717
v 0.13021000 -0.01623450 -0.00295717
v 0.16642300 -0.01466030 -0.00295717
v 0.16992300 -0.01854340 -0.00295717
v 0.16806600 -0.01109210 0.00371132
v 0.17178000 -0.01508010 0.00371132
v 0.16992300 -0.01854340 0.01037980
v 0.16642300 -0.01466030 0.01037980
v 0.16420900 -0.00752387 0.00371132
v 0.16270900 -0.01119700 0.01037980
v 0.16020900 -0.00427049 0.00371132
v 0.15885200 -0.00815355 0.01037980
v 0.15606600 -0.00143690 0.00371132
v 0.15492300 -0.00542491 0.01037980
v 0.15185200 0.00097689 0.00371132
v 0.15085200 -0.00311607 0.01037980
v 0.14749500 0.00297090 0.00371132
v 0.14670900 -0.00122701 0.01037980
v 0.14299500 0.00454511 0.00371132
v 0.14242400 0.00024226 0.01037980
v 0.13849500 0.00559459 0.00371132
v 0.13813800 0.00129174 0.01037980
v 0.13813800 0.00129174 -0.00295717
v 0.14242400 0.00024226 -0.00295717
v 0.11135300 0.00118679 0.01037980
v 0.10921100 0.00171153 0.01037980
v 0.11349600 0.00045215 0.01037980
v 0.11556800 -0.00049237 0.01037980
v 0.11763900 -0.00164680 0.01037980
v 0.11956700 -0.00301112 0.01037980
v 0.12149600 -0.00458533 0.01037980
v 0.12335300 -0.00626450 0.01037980
v 0.14670900 -0.00122701 -0.00295717
v 0.15085200 -0.00311607 -0.00295717
v 0.15492300 -0.00542491 -0.00295717
v 0.15885200 -0.00815355 -0.00295717
v 0.16270900 -0.01119700 -0.00295717
v 0.13021000 -0.01623450 0.01037980
v 0.13342400 -0.01633950 0.01037980
v 0.10042500 -0.01791370 0.01037980
v 0.10378200 -0.01791370 0.01037980
v 0.10378200 -0.02410560 0.01037980
v 0.10042500 -0.02410560 -0.00295717
v 0.09735390 -0.02253140 -0.00295717
v 0.09728240 -0.02410560 -0.00295717
v 0.09728240 -0.02410560 0.01037980
v 0.09735390 -0.02253140 0.01037980
v 0.09721100 -0.02106210 -0.00295717
v 0.09721100 -0.02106210 0.01037980
v 0.09671100 -0.01980270 -0.00295717
v 0.09671100 -0.01980270 0.01037980
v 0.09599680 -0.01875330 0.01037980
v 0.09506820 -0.01801860 0.01037980
v 0.09599680 -0.01875330 -0.00295717
v 0.10042500 -0.02410560 0.01037980
v 0.10378200 -0.02410560 -0.00295717
v 0.10792500 -0.02410560 0.01037980
v 0.10792500 -0.02410560 -0.00295717
v 0.10792500 -0.01791370 0.01037980
v 0.11242500 -0.02410560 -0.00295717
v 0.11242500 -0.02410560 0.01037980
v 0.11242500 -0.01791370 0.01037980
v 0.13713800 -0.01633950 0.01037980
v 0.13506700 -0.01633950 0.01037980
v 0.11642500 -0.01791370 0.01037980
v 0.11642500 -0.02410560 0.01037980
v 0.11642500 -0.02410560 -0.00295717
v 0.12085300 -0.02410560 -0.00295717
v 0.12085300 -0.02410560 0.01037980
v 0.12085300 -0.01791370 0.01037980
v 0.12506700 -0.02410560 -0.00295717
v 0.17420800 -0.02410560 -0.00295717
v 0.17328000 -0.02263630 -0.00295717
v 0.17528000 -0.01938300 0.00371132
v 0.17856500 -0.02410560 0.00371132
v 0.17420800 -0.02410560 0.01037980
v 0.17328000 -0.02263630 0.01037980
v 0.12506700 -0.02410560 0.01037980
v 0.08028300 0.01231120 0.01171350
v 0.08028300 0.01304590 0.01015750
v 0.08028300 0.01357060 0.00849040
v 0.07778310 0.01357060 0.00849040
v 0.07778310 0.01388550 0.00671214
v 0.07778310 0.01157660 0.00693442
v 0.07778310 0.01031720 0.00860155
v 0.07778310 0.00926776 0.01015750
v 0.07778310 0.01304590 0.01015750
v 0.07778310 0.01231120 0.01171350
v 0.08028300 0.01136670 0.01326950
v 0.04628420 -0.00311607 0.01760400
v 0.04628420 0.00139669 0.01615920
v 0.04628420 0.00548964 0.01360290
v 0.04628420 0.01294090 -0.00051205
v 0.07778310 0.01199640 -0.00273488
v 0.07778310 0.01399040 -0.00506885
v 0.07778310 0.01042220 -0.00495771
v 0.07778310 0.01031720 -0.00506885
v 0.04628420 0.01052710 -0.00473543
v 0.07778310 0.00947765 -0.00629141
v 0.04628420 0.01199640 -0.00273488
v 0.07778310 0.00706386 -0.00862538
v 0.07778310 0.00412532 -0.01095940
vn -0.73282329 -0.51649130 0.44295233
vn 0.00000006 -0.75907934 0.65099812
vn -0.70532323 -0.58233296 0.40423689
vn -0.57735027 -0.57735027 0.57735027
vn -0.70514182 -0.57443876 0.41568632
vn -0.73426641 -0.58942939 0.33678752
vn -0.70611803 -0.65019280 0.28044012
vn -0.70628905 -0.64726028 0.28672271
vn -0.81409146 -0.58071108 -0.00545306
vn -0.57735027 -0.57735027 -0.57735027
vn -0.73642589 -0.59025110 -0.33057609
vn -0.73218959 -0.51715287 -0.44322829
vn -0.71054870 -0.47341940 -0.52057143
vn -0.71012008 -0.45590404 -0.53654541
vn -0.71880378 -0.41450524 -0.55812770
vn -0.71002345 -0.38219322 -0.59143474
vn -0.70998374 -0.36389587 -0.60291200
vn -0.73072137 -0.28301279 -0.62124877
vn -0.70868938 -0.22066736 -0.67012333
vn -0.70888342 -0.20892863 -0.67367138
vn -0.72503324 -0.14661495 -0.67292708
vn -0.70905267 -0.08960229 -0.69943959
vn -0.70955786 -0.07359573 -0.70079335
vn -0.72817199 -0.00137430 -0.68539307
vn -0.70994825 0.07206364 -0.70055715
vn -0.70957622 0.09144042 -0.69867034
vn -0.72299478 0.14472329 -0.67552477
vn -0.57735027 0.57735027 -0.57735027
vn 0.57735027 0.57735027 -0.57735027
vn 0.57735027 -0.57735027 -0.57735027
vn 0.57735027 -0.57735027 0.57735027
vn 0.57735027 0.57735027 0.57735027
vn -0.57735027 0.57735027 0.57735027
vn -0.73982131 -0.00205223 0.67280029
vn -0.70456897 -0.09236579 0.70359870
vn -0.70506598 -0.07498181 0.70516643
vn -0.73554419 -0.14649394 0.66144862
vn -0.70631160 -0.23350452 0.66828105
vn -0.70647809 -0.22843592 0.66985502
vn -0.73001743 -0.28148579 0.62276825
vn -0.70866754 -0.35708608 0.60850625
vn -0.70680590 -0.36279862 0.60729118
vn 0.00005911 -0.51303289 0.85836895
vn -0.00000054 -0.41342114 0.91053993
vn 0.72075141 -0.29036774 0.62944736
vn 0.70821462 -0.33037607 0.62392604
vn 0.71529537 -0.34684431 0.60667253
vn 0.69978170 -0.35491402 0.61995291
vn 0.69413366 -0.52328682 0.49431706
vn 0.69208717 -0.58323368 0.42526911
vn -0.69208717 -0.58323368 0.42526911
vn -0.68994396 -0.64083513 0.33661205
vn -0.69088526 0.58177329 0.42920554
vn -0.69053542 0.63940471 0.33811603
vn -0.69879608 -0.66739740 0.25741940
vn -0.70012399 0.66317200 0.26463048
vn -0.68799209 -0.70432118 0.17492443
vn 0.69879608 -0.66739740 0.25741940
vn 0.68994396 -0.64083513 0.33661205
vn 0.71243464 -0.49717912 0.49522702
vn 0.70011772 -0.50662232 0.50315902
vn 0.81539042 -0.21946712 0.53569828
vn 0.00002776 -0.67228360 0.74029369
vn 0.65844663 -0.22607017 0.71787208
vn -0.00000056 -0.59441990 0.80415482
vn -0.70878834 -0.46959998 0.52639809
vn -0.70851863 -0.47819218 0.51897359
vn -0.72652282 -0.40834881 0.55264441
vn -0.70850755 -0.36623317 0.60323321
vn 0.73631904 -0.52197754 0.43055048
vn 0.71161777 -0.47116505 0.52115606
vn 0.68799209 -0.70432118 0.17492443
vn 0.68700986 -0.57613386 0.44281738
vn 0.69925898 -0.70965476 0.08618002
vn -0.69925898 -0.70965476 0.08618002
vn -0.69760268 -0.71582878 0.03065401
vn -0.69076088 0.69611257 0.19564431
vn -0.68535157 0.72458806 0.07256287
vn -0.83068093 -0.26367303 0.49035265
vn -0.90453403 0.30151134 0.30151134
vn -0.60527665 0.55282062 0.57273863
vn -0.67834453 0.01842239 0.73451298
vn -0.65582930 0.17543436 0.73424159
vn -0.60124225 0.31898603 0.73263611
vn -0.49009585 0.45613019 0.74279964
vn -0.27448559 0.58585719 0.76251493
vn 0.00000658 0.65410819 0.75640100
vn 0.00000000 0.00000000 1.00000000
vn 0.00000000 0.00000000 1.00000000
vn 0.00000000 0.00000000 1.00000000
vn 0.00000000 0.00000000 1.00000000
vn 0.00000000 0.00000000 1.00000000
vn 0.00000000 0.00000000 1.00000000
vn 0.00000000 0.00000000 1.00000000
vn 0.00000000 0.00000000 1.00000000
vn -0.04647308 -0.48254681 0.87463640
vn -0.01137578 -0.47894085 0.87777346
vn -0.02312243 -0.99973264 -0.00000034
vn -0.09978550 -0.99500897 -0.00000034
vn -0.04647305 -0.48254651 -0.87463657
vn -0.01137578 -0.47894055 -0.87777363
vn -0.85441828 -0.51958580 -0.00000018
vn -0.83068084 -0.26367293 -0.49035286
vn -0.70053643 -0.71330697 -0.02102081
vn -0.69425206 -0.71480344 -0.08408392
vn 0.70053643 -0.71330697 -0.02102081
vn 0.13694254 -0.99057867 -0.00079392
vn 0.70667459 -0.64886413 -0.28211056
vn -0.00000796 -0.91599159 -0.40119747
vn -0.00000039 -0.99995702 -0.00927158
vn -0.70442701 -0.64609414 -0.29384511
vn -0.70439378 -0.65433281 -0.27509630
vn 0.00000028 -0.87323067 -0.48730708
vn 0.73535769 -0.58630209 -0.33985133
vn -0.00007849 -0.81619814 -0.57777210
vn -0.70509692 -0.57439371 -0.41582473
vn -0.70558401 -0.58165121 -0.40476299
vn -0.00000057 -0.75907667 -0.65100124
vn 0.75239593 -0.52680061 -0.39545097
vn 0.00003918 -0.65958362 -0.75163119
vn 0.69757304 -0.49968962 -0.51351937
vn 0.74487130 -0.40475808 -0.53041272
vn 0.67489718 -0.43462746 -0.59633276
vn 0.70124265 -0.50885876 -0.49932105
vn 0.73694916 -0.42796094 -0.52321637
vn 0.68871122 -0.58605937 -0.42686212
vn 0.70573498 -0.38971821 -0.59165687
vn 0.71876602 -0.35804556 -0.59596878
vn 0.69231403 -0.51268928 -0.50779030
vn -0.69231403 -0.51268928 -0.50779030
vn 0.69707588 -0.44964704 -0.55848255
vn 0.69470552 -0.38561693 -0.60719340
vn 0.71839039 -0.37238221 -0.58757701
vn 0.69242087 -0.37699691 -0.61516394
vn 0.00002498 -0.52989525 -0.84806310
vn 0.71107854 -0.39088543 -0.58444495
vn 0.73581113 -0.28835294 -0.61272715
vn 0.71288509 -0.19886592 -0.67249327
vn 0.69108835 -0.38381306 -0.61244137
vn -0.69707588 -0.44964704 -0.55848255
vn -0.69108835 -0.38381306 -0.61244137
vn 0.69087791 -0.29027852 -0.66213752
vn 0.71885871 -0.21006099 -0.66265868
vn 0.69556620 -0.21762905 -0.68470816
vn 0.00003530 -0.30449440 -0.95251412
vn 0.70833632 -0.18066971 -0.68236216
vn -0.67450677 -0.09111241 -0.73262483
vn 0.69577651 -0.05358600 -0.71625665
vn 0.71271883 -0.07804587 -0.69709448
vn 0.69133861 -0.19110135 -0.69680069
vn -0.69087791 -0.29027852 -0.66213752
vn -0.69133861 -0.19110135 -0.69680069
vn 0.69278215 -0.09422540 -0.71496466
vn 0.70947931 -0.00000026 -0.70472626
vn -0.69581815 -0.03024642 -0.71758084
vn 0.00005035 -0.11635694 -0.99320746
vn -0.00000064 -0.00207452 -0.99999785
vn 0.00000184 0.11735026 -0.99309059
vn 0.72628612 0.05298314 -0.68534755
vn 0.69773841 0.08958996 -0.71072833
vn 0.71700371 0.09230806 -0.69093046
vn 0.70886258 0.12384217 -0.69438963
vn 0.70710678 0.39026905 -0.58965250
vn 0.67731411 0.31746482 -0.66367288
vn -0.67731411 0.31746482 -0.66367288
vn -0.69858649 0.19041675 -0.68972341
vn -0.69278215 -0.09422540 -0.71496466
vn -0.68205892 0.08429723 -0.72642247
vn -0.70710678 0.00000000 -0.70710678
vn -0.69974795 -0.02359477 -0.71400007
vn 0.70710678 0.00000000 -0.70710678
vn 0.68205892 0.08429723 -0.72642247
vn 0.69974795 -0.02359477 -0.71400007
vn 0.69858649 0.19041675 -0.68972341
vn -0.70710678 0.39026905 -0.58965250
vn 0.68926343 0.44765424 -0.56966798
vn 0.68749245 0.22637743 -0.69000536
vn 0.73407622 0.19005255 -0.65192954
vn 0.00002433 0.30530384 -0.95225499
vn 0.72491840 0.20979876 -0.65610807
vn 0.68588879 0.21121261 -0.69638050
vn 0.69137913 0.52769350 -0.49349211
vn -0.68926343 0.44765424 -0.56966798
vn -0.69137913 0.52769350 -0.49349211
vn -0.69995403 0.56927145 -0.43127066
vn 0.69995403 0.56927145 -0.43127066
vn -0.68332918 0.63833918 -0.35437879
vn 0.68332918 0.63833918 -0.35437879
vn -0.69685493 0.67344961 -0.24669583
vn 0.69685493 0.67344961 -0.24669583
vn -0.69623746 0.69444048 -0.18167505
vn 0.69623746 0.69444048 -0.18167505
vn -0.68459260 0.72503134 -0.07524980
vn 0.68459260 0.72503134 -0.07524980
vn -0.70710678 0.70710678 0.00000000
vn 0.70710678 0.70710678 0.00000000
vn -0.70710678 0.70710678 0.00000000
vn 0.70710678 0.70710678 0.00000000
vn 0.68535157 0.72458806 0.07256287
vn 0.71522514 0.57093002 0.40310286
vn 0.73870364 0.60717405 0.29267151
vn 0.00001769 0.81619783 0.57777253
vn -0.00000021 0.85910467 0.51179993
vn -0.00002934 0.91599137 0.40119797
vn 0.69185682 0.67565133 0.25461623
vn 0.80991676 0.58654145 0.00199089
vn 0.00000013 0.99996275 -0.00863146
vn 0.00000037 0.91624821 -0.40061106
vn 0.73209159 0.59091697 -0.33890860
vn -0.00000012 0.86381232 -0.50381373
vn -0.00004222 0.81619657 -0.57777431
vn 0.69944597 0.59215173 -0.40016455
vn 0.73064618 0.53844579 -0.41980031
vn 0.67267020 0.61346314 -0.41373636
vn 0.74421938 0.54921773 -0.38012814
vn 0.62536534 0.72986239 -0.27607805
vn 0.83489669 0.46939830 -0.28742435
vn -0.00000137 0.75906526 -0.65101454
vn -0.00002662 0.67011388 -0.74225831
vn 0.67397245 0.42631488 -0.60333802
vn 0.70650806 0.48509670 -0.51529366
vn 0.69981887 0.50479119 -0.50541013
vn 0.72117398 0.47242211 -0.50668081
vn 0.69210038 0.49419858 -0.52608443
vn 0.70910980 0.50866389 -0.48828714
vn 0.74835947 0.40583000 -0.52465237
vn -0.00003704 0.51990912 -0.85422158
vn 0.69703762 0.35986768 -0.62018852
vn 0.70626691 0.37968065 -0.59751959
vn 0.71570675 0.35049913 -0.60408129
vn 0.66798252 0.45476027 -0.58906065
vn 0.77595327 0.30655954 -0.55128738
vn -0.00000002 0.41995109 -0.90754674
vn -0.71011172 0.22513282 -0.66712559
vn -0.71009182 0.20426043 -0.67383031
vn 0.00000006 0.21069110 -0.97755269
vn -0.72884435 0.28768339 -0.62130844
vn -0.70904254 0.36061468 -0.60598327
vn -0.70657037 0.36804604 -0.60440088
vn -0.70896874 0.37270671 -0.59870947
vn -0.00000007 0.59850827 -0.80111663
vn -0.72442630 0.41220404 -0.55253448
vn -0.70896484 0.46766790 -0.52787838
vn -0.70936537 0.47838198 -0.51764028
vn -0.73137119 0.51733233 -0.44436859
vn -0.70609021 0.58031983 -0.40578998
vn -0.73144896 0.58976049 -0.34229371
vn -0.70570071 0.57502379 -0.41392529
vn -0.70792736 0.64576235 -0.28605916
vn -0.70809943 0.64837340 -0.27965538
vn -0.80444457 0.59400486 -0.00521122
vn -0.70984914 0.64930354 0.27298188
vn -0.70981534 0.64118899 0.29161424
vn -0.72916532 0.58868925 0.34894543
vn -0.70574554 0.57506812 0.41378724
vn -0.70582816 0.58100542 0.40526448
vn -0.00000074 0.75906793 0.65101143
vn -0.73200486 0.51667375 0.44409134
vn -0.70733958 0.48315150 0.51597998
vn -0.70762111 0.48124667 0.51737221
vn -0.00004183 0.68274536 0.73065640
vn -0.00000096 0.59677783 0.80240652
vn 0.73857676 0.39446724 0.54671745
vn 0.71253033 0.49702331 0.49524576
vn 0.69088526 0.58177329 0.42920554
vn 0.69053542 0.63940471 0.33811603
vn -0.69657707 0.52159293 0.49266744
vn 0.69657707 0.52159293 0.49266744
vn 0.69044777 0.46079373 0.55762981
vn 0.71876034 0.37285070 0.58682700
vn 0.69888769 0.38966821 0.59976219
vn 0.00006609 0.50330770 0.86410726
vn 0.73078097 0.28145283 0.62188704
vn 0.69519538 0.28938697 0.65799587
vn -0.00000071 0.41993455 0.90755439
vn -0.70775348 0.35381578 0.61147314
vn -0.70751246 0.35679051 0.61002185
vn -0.73218362 0.40620374 0.54672266
vn -0.72814465 0.28616043 0.62283030
vn -0.70787730 0.23291040 0.66683017
vn 0.00006361 0.32611193 0.94533116
vn -0.70768831 0.22819228 0.66865951
vn -0.00000029 0.20895175 0.97792595
vn 0.72103277 0.14095283 0.67841289
vn 0.71468160 0.19716387 0.67108615
vn 0.69955602 0.29183411 0.65226853
vn 0.71032742 0.22611756 0.66656268
vn 0.68953633 0.36906020 0.62316468
vn -0.68953633 0.36906020 0.62316468
vn -0.69955602 0.29183411 0.65226853
vn -0.70711248 -0.37922517 0.59680835
vn -0.67650198 -0.30272268 0.67134496
vn -0.68916327 0.21756971 0.69117104
vn -0.70459972 -0.18925740 0.68390121
vn -0.68288534 0.08133299 0.72598385
vn -0.70710678 0.00000000 0.70710678
vn 0.70710678 0.00000000 0.70710678
vn 0.68288534 0.08133299 0.72598385
vn 0.70459972 -0.18925740 0.68390121
vn 0.74374743 0.01084287 0.66837279
vn 0.68916327 0.21756971 0.69117104
vn 0.69630451 0.09238915 0.71177543
vn 0.71576001 0.08140330 0.69358569
vn -0.00003426 0.11635350 0.99320786
vn -0.00000016 -0.00307750 0.99999526
vn -0.70518404 0.09005457 0.70328205
vn -0.70541200 0.07632928 0.70467564
vn -0.73343681 0.14360619 0.66441531
vn -0.00002877 -0.11735161 0.99309043
vn 0.70343555 -0.08730105 0.70537718
vn 0.70749017 -0.07443376 0.70279249
vn 0.67650198 -0.30272268 0.67134496
vn 0.72961443 -0.13615535 0.67016752
vn 0.70829980 -0.20445282 0.67565556
vn 0.70711248 -0.37922517 0.59680835
vn 0.71569245 -0.22444237 0.66136975
vn 0.00004472 -0.32610833 0.94533240
vn 0.69983858 -0.22951969 0.67642197
vn 0.71746337 -0.23047787 0.65736311
vn 0.68646119 -0.44617517 0.57419400
vn -0.68646119 -0.44617517 0.57419400
vn -0.69413366 -0.52328682 0.49431706
vn -0.69044777 0.46079373 0.55762981
vn -0.00000042 -0.21392957 0.97684909
vn -0.67918366 -0.09471017 0.72783208
vn -0.70710678 0.00000000 0.70710678
vn 0.67918366 -0.09471017 0.72783208
vn 0.70710678 0.00000000 0.70710678
vn 0.72625890 0.27802916 0.62868736
vn 0.70749556 0.23524955 0.66641405
vn 0.71718121 0.38036692 0.58392818
vn 0.69345696 0.37542418 0.61495864
vn 0.70154718 0.50751958 0.50025536
vn 0.67430709 0.43251824 0.59852979
vn 0.70012399 0.66317200 0.26463048
vn 0.74432180 0.40674441 0.52966409
vn 0.69699833 0.49773558 0.51619049
vn 0.73637325 0.50864499 0.44613306
vn 0.69043288 0.56587587 0.45065168
vn 0.69076088 0.69611257 0.19564431
vn 0.70561502 0.56934287 0.42184848
vn 0.72342198 0.53068434 0.44162740
vn -0.90453403 0.30151134 -0.30151134
vn -0.60527665 0.55282062 -0.57273863
vn -0.67834453 0.01842239 -0.73451298
vn -0.65582930 0.17543436 -0.73424159
vn -0.60124225 0.31898603 -0.73263611
vn -0.49009585 0.45613019 -0.74279964
vn -0.27448559 0.58585719 -0.76251493
vn 0.00000658 0.65410819 -0.75640100
vn 0.27448070 0.58587139 0.76250578
vn -0.03252873 0.12824743 0.99120859
vn -0.04600632 0.15148889 0.98738773
vn -0.05230933 0.16095334 0.98557484
vn -0.04350175 0.14750835 0.98810368
vn -0.05103435 0.15909831 0.98594281
vn -0.04725514 0.15342470 0.98702979
vn 0.00000000 0.00000000 1.00000000
vn -0.37206671 -0.36261192 0.85444658
vn -0.39100205 -0.33633208 0.85673691
vn -0.70496690 -0.70924021 -0.00000031
vn -0.75125131 -0.66001626 -0.00000031
vn -0.39100184 -0.33633190 -0.85673707
vn -0.37206652 -0.36261173 -0.85444674
vn -0.65337598 -0.75703357 -0.00000032
vn -0.33699427 -0.38722048 -0.85819296
vn -0.59307186 -0.80514954 -0.00000032
vn -0.30075875 -0.40445046 -0.86369207
vn -0.52906402 -0.84858191 -0.00000033
vn -0.27060379 -0.42540394 -0.86360007
vn -0.45332414 -0.89134574 -0.00000033
vn -0.22818299 -0.44302530 -0.86698391
vn -0.37053438 -0.92881875 -0.00000033
vn -0.18508473 -0.45884530 -0.86902511
vn -0.27552349 -0.96129434 -0.00000034
vn -0.13825475 -0.47038558 -0.87156356
vn -0.19462888 -0.98087695 -0.00000034
vn -0.09557331 -0.47957487 -0.87228074
vn -0.09557337 -0.47957517 0.87228057
vn -0.13825483 -0.47038587 0.87156339
vn 0.00000000 0.00000000 -1.00000000
vn 0.00000000 0.00000000 -1.00000000
vn 0.00000000 0.00000000 -1.00000000
vn 0.00000000 0.00000000 -1.00000000
vn 0.00000000 0.00000000 -1.00000000
vn 0.00000000 0.00000000 -1.00000000
vn 0.00000000 0.00000000 -1.00000000
vn 0.00000000 0.00000000 -1.00000000
vn -0.18508484 -0.45884557 0.86902494
vn -0.22818313 -0.44302557 0.86698374
vn -0.27060394 -0.42540419 0.86359990
vn -0.30075892 -0.40445069 0.86369191
vn -0.33699445 -0.38722070 0.85819280
vn 0.00000000 0.00000000 -1.00000000
vn 0.00000000 0.00000000 -1.00000000
vn -0.03252873 0.12824743 -0.99120859
vn -0.04600632 0.15148889 -0.98738773
vn -0.20677463 0.81522737 -0.54097004
vn -0.57735027 0.57735027 0.57735027
vn 0.69012823 0.01779668 0.72346825
vn 0.59150040 0.56524432 0.57500098
vn 0.59150040 0.56524432 -0.57500098
vn 0.69012823 0.01779668 -0.72346825
vn 0.65370909 0.15820171 0.74002476
vn 0.65370909 0.15820171 -0.74002476
vn 0.60126004 0.31897039 0.73262832
vn 0.60126004 0.31897039 -0.73262832
vn 0.49008710 0.45611622 -0.74281399
vn 0.27448070 0.58587139 -0.76250578
vn 0.49008710 0.45611622 0.74281399
vn -0.57735027 0.57735027 -0.57735027
vn -0.20677463 0.81522737 0.54097004
vn -0.24409481 0.80375156 -0.54258746
vn -0.24409481 0.80375156 0.54258746
vn -0.05230933 0.16095334 -0.98557484
vn -0.25947832 0.79840245 0.54334568
vn -0.25947832 0.79840245 -0.54334568
vn -0.04350175 0.14750835 -0.98810368
vn 0.00000000 0.00000000 -1.00000000
vn 0.00000000 0.00000000 -1.00000000
vn -0.05103435 0.15909831 -0.98594281
vn -0.23766227 0.80587959 -0.54228658
vn -0.23766227 0.80587959 0.54228658
vn -0.25645236 0.79948387 0.54319217
vn -0.25645236 0.79948387 -0.54319217
vn -0.04725514 0.15342470 -0.98702979
vn 0.36858103 0.69668542 0.61544899
vn -0.52436622 0.47062824 0.70961196
vn -0.43319127 -0.30705908 0.84738424
vn -0.79808921 -0.60253930 -0.00000031
vn -0.92889038 0.37035478 -0.00000027
vn -0.52436592 0.47062834 -0.70961211
vn -0.43319105 -0.30705893 -0.84738440
vn 0.36858103 0.69668542 -0.61544899
vn -0.69554775 -0.63280328 -0.34025482
vn -0.69210507 -0.67215675 -0.26305110
vn -0.69281220 -0.70043317 -0.17147780
vn 0.69281220 -0.70043317 -0.17147780
vn 0.69425206 -0.71480344 -0.08408392
vn 0.70672968 -0.56451029 -0.42645198
vn 0.70065509 -0.58069740 -0.41457566
vn 0.68782214 -0.63211705 -0.35683153
vn 0.69210507 -0.67215675 -0.26305110
vn 0.69554775 -0.63280328 -0.34025482
vn -0.68871122 -0.58605937 -0.42686212
vn -0.00000009 -0.21386181 -0.97686392
vn 0.00000015 -0.41343773 -0.91053239
vn 0.00000033 -0.59660861 -0.80253235
vn -0.00000037 -0.91624821 0.40061106
vn 0.73108203 -0.59395400 0.33576437
vn 0.69760268 -0.71582878 0.03065401
vn 0.72394141 -0.53339374 0.43749279
vn 0.69058960 -0.56293920 0.45407649
vn -0.00000731 -0.81619966 0.57776995
vn 0.72676300 -0.53317400 0.43306008
vn 0.00000020 -0.86899258 0.49482512
vn 0.69536510 -0.49738732 0.51872269
vn 0.71782561 -0.35368454 0.59969461
f 1//1 2//2 3//3
f 4//4 1//1 3//3
f 4//4 3//3 5//5
f 4//4 5//5 6//6
f 4//4 6//6 7//7
f 4//4 7//7 8//8
f 4//4 8//8 9//9
f 10//10 4//4 9//9
f 10//10 9//9 11//11
f 10//10 11//11 12//12
f 10//10 12//12 13//13
f 10//10 13//13 14//14
f 10//10 14//14 15//15
f 10//10 15//15 16//16
f 10//10 16//16 17//17
f 10//10 17//17 18//18
f 10//10 18//18 19//19
f 10//10 19//19 20//20
f 10//10 20//20 21//21
f 10//10 21//21 22//22
f 10//10 22//22 23//23
f 10//10 23//23 24//24
f 24//24 25//25 10//10
f 25//25 26//26 10//10
f 26//26 27//27 10//10
f 27//27 28//28 10//10
f 10//10 28//28 29//29
f 29//29 30//30 10//10
f 10//10 30//30 31//31
f 30//30 32//32 31//31
f 32//32 4//4 31//31
f 32//32 33//33 4//4
f 4//4 33//33 34//34
f 4//4 34//34 35//35
f 4//4 35//35 36//36
f 4//4 36//36 37//37
f 4//4 37//37 38//38
f 4//4 38//38 39//39
f 4//4 39//39 40//40
f 4//4 40//40 41//41
f 42//42 4//4 41//41
f 43//43 42//42 41//41
f 44//44 43//43 41//41
f 44//44 45//45 43//43
f 45//45 46//46 43//43
f 46//46 47//47 43//43
f 48//48 43//43 47//47
f 48//48 47//47 49//49
f 50//50 48//48 49//49
f 49//49 51//51 50//50
f 52//52 50//50 51//51
f 52//52 51//51 53//53
f 53//53 54//54 52//52
f 55//55 52//52 54//54
f 54//54 56//56 55//55
f 55//55 56//56 57//57
f 57//57 58//58 55//55
f 59//59 55//55 58//58
f 58//58 60//60 59//59
f 60//60 61//61 59//59
f 62//62 59//59 61//61
f 62//62 61//61 63//63
f 64//64 62//62 63//63
f 65//65 64//64 63//63
f 66//66 65//65 63//63
f 63//63 67//67 66//66
f 4//4 66//66 67//67
f 4//4 68//68 66//66
f 4//4 69//69 68//68
f 65//65 68//68 69//69
f 65//65 69//69 43//43
f 2//2 67//67 63//63
f 70//70 2//2 63//63
f 63//63 71//71 70//70
f 70//70 71//71 72//72
f 73//73 70//70 72//72
f 74//74 73//73 72//72
f 72//72 75//75 74//74
f 76//76 74//74 75//75
f 76//76 75//75 77//77
f 77//77 78//78 76//76
f 79//79 76//76 78//78
f 79//79 78//78 80//80
f 80//80 81//81 79//79
f 81//81 82//82 79//79
f 82//82 83//83 79//79
f 83//83 84//84 79//79
f 84//84 85//85 79//79
f 85//85 86//86 79//79
f 86//86 87//87 79//79
f 87//87 88//88 79//79
f 88//88 89//89 79//79
f 89//89 90//90 79//79
f 90//90 91//91 79//79
f 91//91 92//92 79//79
f 92//92 93//93 79//79
f 93//93 94//94 79//79
f 94//94 95//95 79//79
f 95//95 96//96 79//79
f 97//97 79//79 96//96
f 98//98 97//97 96//96
f 96//96 99//99 98//98
f 98//98 99//99 100//100
f 100//100 101//101 98//98
f 102//102 98//98 101//101
f 102//102 101//101 103//103
f 102//102 103//103 104//104
f 104//104 79//79 102//102
f 104//104 103//103 105//105
f 105//105 106//106 104//104
f 107//107 104//104 106//106
f 107//107 106//106 108//108
f 108//108 109//109 107//107
f 110//110 107//107 109//109
f 110//110 109//109 111//111
f 9//9 110//110 111//111
f 9//9 111//111 112//112
f 111//111 109//109 112//112
f 113//113 112//112 109//109
f 109//109 114//114 113//113
f 113//113 114//114 115//115
f 116//116 113//113 115//115
f 116//116 115//115 117//117
f 11//11 116//116 117//117
f 118//118 117//117 115//115
f 115//115 119//119 118//118
f 119//119 120//120 118//118
f 118//118 120//120 13//13
f 120//120 119//119 121//121
f 120//120 121//121 122//122
f 120//120 122//122 123//123
f 123//123 124//124 120//120
f 125//125 120//120 124//124
f 124//124 126//126 125//125
f 127//127 125//125 126//126
f 128//128 127//127 126//126
f 129//129 128//128 126//126
f 126//126 130//130 129//129
f 130//130 131//131 129//129
f 131//131 132//132 129//129
f 132//132 133//133 129//129
f 134//134 129//129 133//133
f 135//135 134//134 133//133
f 135//135 128//128 134//134
f 133//133 132//132 135//135
f 136//136 135//135 132//132
f 137//137 135//135 136//136
f 137//137 136//136 131//131
f 138//138 137//137 131//131
f 139//139 138//138 131//131
f 140//140 139//139 131//131
f 139//139 140//140 141//141
f 141//141 142//142 139//139
f 142//142 143//143 139//139
f 143//143 144//144 139//139
f 144//144 143//143 145//145
f 145//145 138//138 144//144
f 146//146 145//145 143//143
f 147//147 145//145 146//146
f 146//146 142//142 147//147
f 148//148 147//147 142//142
f 149//149 148//148 142//142
f 150//150 149//149 142//142
f 151//151 150//150 142//142
f 150//150 151//151 152//152
f 152//152 153//153 150//150
f 153//153 154//154 150//150
f 154//154 155//155 150//150
f 154//154 156//156 155//155
f 155//155 156//156 149//149
f 157//157 156//156 154//154
f 154//154 158//158 157//157
f 157//157 158//158 25//25
f 158//158 154//154 159//159
f 158//158 159//159 160//160
f 160//160 161//161 158//158
f 162//162 158//158 161//161
f 163//163 162//162 161//161
f 163//163 161//161 164//164
f 165//165 163//163 164//164
f 164//164 166//166 165//165
f 165//165 166//166 152//152
f 167//167 152//152 166//166
f 166//166 168//168 167//167
f 168//168 169//169 167//167
f 170//170 167//167 169//169
f 171//171 170//170 169//169
f 169//169 172//172 171//171
f 172//172 153//153 171//171
f 173//173 171//171 153//153
f 167//167 173//173 153//153
f 174//174 153//153 172//172
f 168//168 174//174 172//172
f 170//170 171//171 173//173
f 173//173 167//167 170//170
f 172//172 169//169 168//168
f 174//174 168//168 166//166
f 166//166 164//164 174//174
f 164//164 159//159 174//174
f 163//163 165//165 175//175
f 175//175 176//176 163//163
f 176//176 177//177 163//163
f 178//178 163//163 177//177
f 179//179 178//178 177//177
f 177//177 180//180 179//179
f 181//181 179//179 180//180
f 182//182 181//181 180//180
f 182//182 180//180 176//176
f 183//183 182//182 176//176
f 182//182 183//183 184//184
f 184//184 185//185 182//182
f 186//186 182//182 185//185
f 185//185 187//187 186//186
f 188//188 186//186 187//187
f 187//187 189//189 188//188
f 190//190 188//188 189//189
f 189//189 191//191 190//190
f 192//192 190//190 191//191
f 191//191 193//193 192//192
f 194//194 192//192 193//193
f 193//193 195//195 194//194
f 196//196 194//194 195//195
f 195//195 197//197 196//196
f 198//198 196//196 197//197
f 197//197 78//78 198//198
f 199//199 198//198 78//78
f 199//199 200//200 198//198
f 201//201 198//198 200//200
f 201//201 200//200 202//202
f 202//202 203//203 201//201
f 203//203 204//204 201//201
f 205//205 201//201 204//204
f 206//206 205//205 204//204
f 204//204 207//207 206//206
f 207//207 208//208 206//206
f 209//209 206//206 208//208
f 208//208 210//210 209//209
f 210//210 211//211 209//209
f 212//212 209//209 211//211
f 213//213 212//212 211//211
f 214//214 213//213 211//211
f 215//215 214//214 211//211
f 216//216 215//215 211//211
f 217//217 216//216 211//211
f 211//211 218//218 217//217
f 218//218 219//219 217//217
f 217//217 219//219 220//220
f 196//196 217//217 220//220
f 220//220 219//219 221//221
f 221//221 194//194 220//220
f 194//194 221//221 222//222
f 222//222 221//221 219//219
f 219//219 223//223 222//222
f 223//223 192//192 222//222
f 192//192 223//223 224//224
f 219//219 224//224 223//223
f 219//219 225//225 224//224
f 225//225 190//190 224//224
f 190//190 225//225 226//226
f 225//225 227//227 226//226
f 226//226 227//227 228//228
f 228//228 188//188 226//226
f 188//188 228//228 229//229
f 229//229 228//228 227//227
f 227//227 230//230 229//229
f 230//230 186//186 229//229
f 186//186 230//230 231//231
f 227//227 231//231 230//230
f 227//227 232//232 231//231
f 232//232 182//182 231//231
f 232//232 227//227 233//233
f 233//233 179//179 232//232
f 179//179 233//233 234//234
f 179//179 234//234 235//235
f 179//179 235//235 236//236
f 162//162 179//179 236//236
f 27//27 236//236 235//235
f 234//234 28//28 235//235
f 237//237 28//28 234//234
f 238//238 28//28 237//237
f 237//237 233//233 238//238
f 239//239 28//28 238//238
f 238//238 227//227 239//239
f 240//240 239//239 227//227
f 227//227 241//241 240//240
f 241//241 242//242 240//240
f 242//242 28//28 240//240
f 243//243 28//28 242//242
f 244//244 28//28 243//243
f 219//219 244//244 243//243
f 219//219 243//243 241//241
f 245//245 28//28 244//244
f 218//218 245//245 244//244
f 245//245 218//218 246//246
f 246//246 247//247 245//245
f 248//248 247//247 246//246
f 211//211 248//248 246//246
f 210//210 247//247 248//248
f 247//247 210//210 249//249
f 249//249 28//28 247//247
f 250//250 28//28 249//249
f 249//249 208//208 250//250
f 251//251 28//28 250//250
f 207//207 251//251 250//250
f 251//251 207//207 252//252
f 252//252 33//33 251//251
f 253//253 33//33 252//252
f 252//252 204//204 253//253
f 254//254 33//33 253//253
f 203//203 254//254 253//253
f 254//254 203//203 255//255
f 255//255 33//33 254//254
f 256//256 33//33 255//255
f 202//202 256//256 255//255
f 202//202 257//257 256//256
f 257//257 258//258 256//256
f 258//258 257//257 259//259
f 259//259 33//33 258//258
f 260//260 33//33 259//259
f 259//259 261//261 260//260
f 262//262 260//260 261//261
f 263//263 262//262 261//261
f 261//261 264//264 263//263
f 265//265 263//263 264//264
f 265//265 264//264 266//266
f 265//265 266//266 53//53
f 53//53 267//267 265//265
f 268//268 265//265 267//267
f 268//268 267//267 269//269
f 269//269 270//270 268//268
f 271//271 268//268 270//270
f 272//272 271//271 270//270
f 272//272 270//270 273//273
f 272//272 273//273 274//274
f 274//274 275//275 272//272
f 275//275 276//276 272//272
f 272//272 276//276 277//277
f 262//262 272//272 277//277
f 278//278 262//262 277//277
f 277//277 33//33 278//278
f 276//276 33//33 277//277
f 279//279 33//33 276//276
f 280//280 33//33 279//279
f 279//279 275//275 280//280
f 280//280 275//275 281//281
f 280//280 281//281 282//282
f 283//283 282//282 281//281
f 284//284 283//283 281//281
f 281//281 285//285 284//284
f 286//286 284//284 285//285
f 286//286 285//285 287//287
f 286//286 287//287 288//288
f 288//288 289//289 286//286
f 290//290 286//286 289//289
f 290//290 289//289 291//291
f 291//291 292//292 290//290
f 293//293 290//290 292//292
f 292//292 294//294 293//293
f 295//295 293//293 294//294
f 295//295 294//294 296//296
f 296//296 297//297 295//295
f 298//298 295//295 297//297
f 298//298 297//297 299//299
f 299//299 300//300 298//298
f 301//301 298//298 300//300
f 301//301 300//300 302//302
f 301//301 302//302 303//303
f 301//301 303//303 286//286
f 302//302 304//304 303//303
f 284//284 303//303 304//304
f 304//304 302//302 300//300
f 300//300 305//305 304//304
f 305//305 306//306 304//304
f 307//307 304//304 306//306
f 306//306 33//33 307//307
f 307//307 33//33 308//308
f 308//308 283//283 307//307
f 308//308 33//33 282//282
f 307//307 283//283 304//304
f 305//305 34//34 306//306
f 305//305 300//300 309//309
f 305//305 309//309 35//35
f 300//300 310//310 309//309
f 311//311 309//309 310//310
f 310//310 312//312 311//311
f 313//313 311//311 312//312
f 314//314 313//313 312//312
f 315//315 314//314 312//312
f 312//312 292//292 315//315
f 314//314 315//315 316//316
f 314//314 316//316 317//317
f 318//318 317//317 316//316
f 317//317 318//318 319//319
f 317//317 319//319 45//45
f 45//45 319//319 320//320
f 318//318 320//320 319//319
f 320//320 318//318 315//315
f 315//315 291//291 320//320
f 321//321 320//320 291//291
f 320//320 321//321 49//49
f 49//49 46//46 320//320
f 322//322 49//49 321//321
f 322//322 321//321 323//323
f 323//323 267//267 322//322
f 51//51 322//322 267//267
f 289//289 323//323 321//321
f 318//318 316//316 315//315
f 313//313 314//314 317//317
f 324//324 313//313 317//317
f 324//324 317//317 38//38
f 313//313 324//324 309//309
f 324//324 36//36 309//309
f 312//312 310//310 299//299
f 299//299 294//294 312//312
f 294//294 299//299 325//325
f 325//325 326//326 294//294
f 325//325 327//327 326//326
f 328//328 326//326 327//327
f 327//327 299//299 328//328
f 326//326 328//328 296//296
f 327//327 325//325 299//299
f 309//309 311//311 313//313
f 301//301 293//293 298//298
f 310//310 300//300 299//299
f 328//328 299//299 297//297
f 297//297 296//296 328//328
f 326//326 296//296 294//294
f 295//295 298//298 293//293
f 292//292 312//312 294//294
f 293//293 301//301 290//290
f 291//291 315//315 292//292
f 321//321 291//291 289//289
f 286//286 290//290 301//301
f 289//289 288//288 323//323
f 269//269 323//323 288//288
f 288//288 329//329 269//269
f 329//329 274//274 269//269
f 274//274 329//329 281//281
f 329//329 330//330 281//281
f 287//287 281//281 330//330
f 288//288 330//330 329//329
f 330//330 288//288 287//287
f 284//284 286//286 303//303
f 281//281 287//287 285//285
f 283//283 284//284 304//304
f 283//283 308//308 282//282
f 282//282 33//33 280//280
f 275//275 279//279 276//276
f 275//275 274//274 281//281
f 273//273 269//269 274//274
f 271//271 272//272 331//331
f 332//332 331//331 272//272
f 263//263 332//332 272//272
f 332//332 265//265 331//331
f 268//268 271//271 331//331
f 269//269 273//273 270//270
f 323//323 269//269 267//267
f 268//268 331//331 265//265
f 333//333 266//266 264//264
f 266//266 333//333 334//334
f 266//266 334//334 335//335
f 266//266 335//335 54//54
f 334//334 336//336 335//335
f 337//337 335//335 336//336
f 337//337 336//336 261//261
f 338//338 337//337 261//261
f 257//257 338//338 261//261
f 335//335 337//337 338//338
f 335//335 338//338 339//339
f 335//335 339//339 340//340
f 335//335 340//340 56//56
f 77//77 56//56 340//340
f 340//340 199//199 77//77
f 340//340 341//341 199//199
f 340//340 342//342 341//341
f 341//341 342//342 202//202
f 342//342 339//339 202//202
f 342//342 340//340 339//339
f 339//339 338//338 202//202
f 336//336 334//334 261//261
f 333//333 261//261 334//334
f 265//265 332//332 263//263
f 261//261 333//333 264//264
f 262//262 263//263 272//272
f 262//262 278//278 260//260
f 278//278 33//33 260//260
f 257//257 261//261 259//259
f 257//257 202//202 338//338
f 258//258 33//33 256//256
f 33//33 28//28 251//251
f 247//247 28//28 245//245
f 242//242 241//241 243//243
f 240//240 28//28 239//239
f 233//233 237//237 234//234
f 238//238 233//233 227//227
f 241//241 227//227 225//225
f 225//225 219//219 241//241
f 219//219 218//218 244//244
f 246//246 218//218 211//211
f 217//217 196//196 216//216
f 215//215 216//216 196//196
f 214//214 215//215 196//196
f 213//213 214//214 196//196
f 212//212 213//213 196//196
f 209//209 212//212 196//196
f 211//211 210//210 248//248
f 249//249 210//210 208//208
f 206//206 209//209 196//196
f 208//208 207//207 250//250
f 204//204 252//252 207//207
f 198//198 205//205 206//206
f 204//204 203//203 253//253
f 255//255 203//203 202//202
f 200//200 341//341 202//202
f 198//198 201//201 205//205
f 200//200 199//199 341//341
f 198//198 206//206 196//196
f 343//343 197//197 195//195
f 343//343 80//80 197//197
f 196//196 220//220 194//194
f 195//195 193//193 343//343
f 343//343 193//193 103//103
f 343//343 103//103 344//344
f 344//344 81//81 343//343
f 345//345 81//81 344//344
f 344//344 103//103 345//345
f 345//345 103//103 346//346
f 346//346 82//82 345//345
f 346//346 103//103 347//347
f 347//347 83//83 346//346
f 347//347 103//103 348//348
f 348//348 85//85 347//347
f 348//348 103//103 349//349
f 349//349 86//86 348//348
f 349//349 103//103 350//350
f 350//350 87//87 349//349
f 87//87 350//350 351//351
f 351//351 352//352 87//87
f 352//352 353//353 87//87
f 353//353 354//354 87//87
f 354//354 355//355 87//87
f 355//355 356//356 87//87
f 356//356 357//357 87//87
f 358//358 87//87 357//357
f 359//359 358//358 357//357
f 359//359 357//357 360//360
f 361//361 359//359 360//360
f 360//360 362//362 361//361
f 361//361 362//362 363//363
f 363//363 364//364 361//361
f 365//365 361//361 364//364
f 364//364 366//366 365//365
f 367//367 365//365 366//366
f 366//366 368//368 367//367
f 369//369 367//367 368//368
f 368//368 370//370 369//369
f 371//371 369//369 370//370
f 370//370 372//372 371//371
f 373//373 371//371 372//372
f 372//372 374//374 373//373
f 375//375 373//373 374//374
f 374//374 376//376 375//375
f 377//377 375//375 376//376
f 376//376 378//378 377//377
f 99//99 377//377 378//378
f 379//379 377//377 99//99
f 377//377 379//379 380//380
f 379//379 94//94 380//380
f 378//378 376//376 381//381
f 381//381 382//382 378//378
f 100//100 378//378 382//382
f 382//382 103//103 100//100
f 381//381 103//103 382//382
f 383//383 103//103 381//381
f 384//384 103//103 383//383
f 383//383 374//374 384//384
f 385//385 103//103 384//384
f 384//384 372//372 385//385
f 386//386 103//103 385//385
f 385//385 370//370 386//386
f 387//387 103//103 386//386
f 386//386 368//368 387//387
f 388//388 103//103 387//387
f 387//387 366//366 388//388
f 381//381 376//376 383//383
f 380//380 375//375 377//377
f 375//375 380//380 389//389
f 389//389 380//380 93//93
f 374//374 383//383 376//376
f 389//389 373//373 375//375
f 373//373 389//389 390//390
f 390//390 389//389 92//92
f 372//372 384//384 374//374
f 390//390 371//371 373//373
f 371//371 390//390 391//391
f 391//391 390//390 91//91
f 370//370 385//385 372//372
f 391//391 369//369 371//371
f 369//369 391//391 392//392
f 392//392 391//391 90//90
f 368//368 386//386 370//370
f 392//392 367//367 369//369
f 367//367 392//392 393//393
f 393//393 392//392 89//89
f 366//366 387//387 368//368
f 393//393 365//365 367//367
f 365//365 393//393 359//359
f 359//359 393//393 88//88
f 364//364 388//388 366//366
f 394//394 388//388 364//364
f 364//364 395//395 394//394
f 396//396 394//394 395//395
f 396//396 395//395 397//397
f 397//397 398//398 396//396
f 396//396 398//398 352//352
f 399//399 396//396 352//352
f 352//352 400//400 399//399
f 401//401 399//399 400//400
f 401//401 400//400 402//402
f 403//403 402//402 400//400
f 400//400 404//404 403//403
f 405//405 403//403 404//404
f 404//404 406//406 405//405
f 407//407 405//405 406//406
f 407//407 406//406 408//408
f 396//396 407//407 408//408
f 396//396 408//408 409//409
f 409//409 350//350 396//396
f 408//408 410//410 409//409
f 351//351 409//409 410//410
f 410//410 408//408 406//406
f 352//352 410//410 406//406
f 396//396 405//405 407//407
f 352//352 406//406 404//404
f 396//396 403//403 405//405
f 396//396 402//402 403//403
f 402//402 396//396 411//411
f 411//411 399//399 402//402
f 401//401 402//402 399//399
f 352//352 404//404 400//400
f 396//396 399//399 411//411
f 412//412 352//352 398//398
f 412//412 398//398 353//353
f 397//397 353//353 398//398
f 397//397 413//413 353//353
f 414//414 353//353 413//413
f 415//415 414//414 413//413
f 414//414 415//415 354//354
f 354//354 415//415 416//416
f 417//417 416//416 415//415
f 418//418 417//417 415//415
f 415//415 419//419 418//418
f 364//364 418//418 419//419
f 420//420 364//364 419//419
f 418//418 364//364 421//421
f 421//421 422//422 418//418
f 418//418 422//422 355//355
f 416//416 418//418 355//355
f 423//423 355//355 422//422
f 421//421 423//423 422//422
f 423//423 421//421 356//356
f 356//356 421//421 424//424
f 425//425 424//424 421//421
f 426//426 425//425 421//421
f 426//426 424//424 425//425
f 424//424 426//426 357//357
f 357//357 426//426 427//427
f 427//427 428//428 357//357
f 428//428 429//429 357//357
f 430//430 429//429 428//428
f 428//428 431//431 430//430
f 430//430 431//431 432//432
f 432//432 433//433 430//430
f 362//362 430//430 433//433
f 434//434 433//433 432//432
f 432//432 428//428 434//434
f 434//434 426//426 433//433
f 433//433 426//426 363//363
f 428//428 432//432 431//431
f 429//429 430//430 362//362
f 427//427 434//434 428//428
f 434//434 427//427 426//426
f 421//421 364//364 426//426
f 419//419 415//415 420//420
f 397//397 420//420 415//415
f 418//418 416//416 417//417
f 415//415 413//413 397//397
f 420//420 397//397 395//395
f 394//394 396//396 350//350
f 395//395 364//364 420//420
f 350//350 388//388 394//394
f 364//364 363//363 426//426
f 433//433 363//363 362//362
f 362//362 360//360 429//429
f 359//359 361//361 365//365
f 429//429 360//360 357//357
f 358//358 359//359 88//88
f 357//357 356//356 424//424
f 356//356 355//355 423//423
f 355//355 354//354 416//416
f 354//354 353//353 414//414
f 353//353 352//352 412//412
f 352//352 351//351 410//410
f 409//409 351//351 350//350
f 350//350 103//103 388//388
f 435//435 103//103 193//193
f 435//435 436//436 103//103
f 437//437 103//103 436//436
f 436//436 438//438 437//437
f 439//439 437//437 438//438
f 438//438 440//440 439//439
f 114//114 439//439 440//440
f 439//439 114//114 106//106
f 440//440 438//438 441//441
f 441//441 115//115 440//440
f 442//442 115//115 441//441
f 441//441 443//443 442//442
f 119//119 442//442 443//443
f 443//443 441//441 438//438
f 437//437 439//439 105//105
f 438//438 436//436 443//443
f 435//435 443//443 436//436
f 443//443 435//435 444//444
f 444//444 121//121 443//443
f 445//445 444//444 435//435
f 445//445 435//435 191//191
f 444//444 445//445 126//126
f 194//194 222//222 192//192
f 193//193 191//191 435//435
f 192//192 224//224 190//190
f 191//191 189//189 445//445
f 130//130 445//445 189//189
f 190//190 226//226 188//188
f 130//130 189//189 187//187
f 188//188 229//229 186//186
f 187//187 185//185 130//130
f 140//140 130//130 185//185
f 186//186 231//231 182//182
f 185//185 184//184 140//140
f 184//184 183//183 141//141
f 151//151 141//141 183//183
f 151//151 183//183 175//175
f 182//182 232//232 181//181
f 232//232 179//179 181//181
f 179//179 162//162 178//178
f 177//177 176//176 180//180
f 176//176 175//175 183//183
f 175//175 165//165 151//151
f 163//163 178//178 162//162
f 236//236 158//158 162//162
f 158//158 236//236 26//26
f 160//160 164//164 161//161
f 164//164 160//160 159//159
f 159//159 154//154 174//174
f 156//156 157//157 23//23
f 153//153 174//174 154//154
f 153//153 152//152 167//167
f 152//152 151//151 165//165
f 149//149 150//150 155//155
f 148//148 149//149 156//156
f 148//148 156//156 446//446
f 446//446 145//145 148//148
f 145//145 446//446 20//20
f 446//446 156//156 22//22
f 148//148 145//145 147//147
f 142//142 146//146 143//143
f 142//142 141//141 151//151
f 141//141 140//140 184//184
f 138//138 139//139 144//144
f 145//145 137//137 138//138
f 137//137 145//145 447//447
f 19//19 447//447 145//145
f 447//447 135//135 137//137
f 135//135 447//447 17//17
f 132//132 131//131 136//136
f 131//131 130//130 140//140
f 130//130 126//126 445//445
f 129//129 134//134 128//128
f 135//135 127//127 128//128
f 127//127 135//135 448//448
f 448//448 120//120 127//127
f 120//120 448//448 14//14
f 16//16 448//448 135//135
f 126//126 124//124 444//444
f 127//127 120//120 125//125
f 124//124 123//123 444//444
f 122//122 444//444 123//123
f 444//444 122//122 121//121
f 121//121 119//119 443//443
f 119//119 115//115 442//442
f 118//118 12//12 117//117
f 11//11 113//113 116//116
f 440//440 115//115 114//114
f 113//113 11//11 112//112
f 449//449 107//107 110//110
f 110//110 8//8 449//449
f 107//107 449//449 450//450
f 107//107 450//450 451//451
f 450//450 452//452 451//451
f 453//453 451//451 452//452
f 452//452 454//454 453//453
f 453//453 454//454 455//455
f 453//453 455//455 74//74
f 455//455 454//454 73//73
f 451//451 453//453 74//74
f 450//450 454//454 452//452
f 454//454 450//450 456//456
f 456//456 5//5 454//454
f 456//456 450//450 449//449
f 7//7 456//456 449//449
f 114//114 109//109 108//108
f 114//114 108//108 106//106
f 451//451 104//104 107//107
f 104//104 451//451 76//76
f 106//106 105//105 439//439
f 105//105 103//103 437//437
f 79//79 98//98 102//102
f 101//101 100//100 103//103
f 378//378 100//100 99//99
f 99//99 96//96 379//379
f 98//98 79//79 97//97
f 96//96 95//95 379//379
f 94//94 379//379 95//95
f 94//94 93//93 380//380
f 93//93 92//92 389//389
f 92//92 91//91 390//390
f 91//91 90//90 391//391
f 90//90 89//89 392//392
f 89//89 88//88 393//393
f 87//87 358//358 88//88
f 86//86 349//349 87//87
f 85//85 348//348 86//86
f 84//84 347//347 85//85
f 83//83 347//347 84//84
f 82//82 346//346 83//83
f 81//81 345//345 82//82
f 80//80 343//343 81//81
f 78//78 197//197 80//80
f 104//104 76//76 79//79
f 78//78 77//77 199//199
f 56//56 77//77 75//75
f 74//74 76//76 451//451
f 75//75 72//72 57//57
f 73//73 74//74 455//455
f 73//73 454//454 70//70
f 457//457 72//72 71//71
f 72//72 457//457 58//58
f 71//71 63//63 457//457
f 60//60 457//457 63//63
f 2//2 70//70 454//454
f 68//68 65//65 66//66
f 64//64 65//65 43//43
f 43//43 458//458 64//64
f 64//64 458//458 50//50
f 62//62 64//64 50//50
f 59//59 62//62 50//50
f 61//61 60//60 63//63
f 60//60 58//58 457//457
f 58//58 57//57 72//72
f 75//75 57//57 56//56
f 56//56 54//54 335//335
f 55//55 59//59 52//52
f 54//54 53//53 266//266
f 267//267 53//53 51//51
f 50//50 52//52 59//59
f 51//51 49//49 322//322
f 48//48 50//50 458//458
f 43//43 48//48 458//458
f 46//46 49//49 47//47
f 46//46 45//45 320//320
f 45//45 44//44 317//317
f 44//44 39//39 317//317
f 69//69 42//42 43//43
f 4//4 42//42 69//69
f 40//40 44//44 41//41
f 44//44 40//40 39//39
f 317//317 39//39 38//38
f 37//37 324//324 38//38
f 324//324 37//37 36//36
f 309//309 36//36 35//35
f 34//34 305//305 35//35
f 34//34 33//33 306//306
f 28//28 33//33 32//32
f 32//32 30//30 29//29
f 32//32 29//29 28//28
f 235//235 28//28 27//27
f 236//236 27//27 26//26
f 25//25 158//158 26//26
f 24//24 157//157 25//25
f 157//157 24//24 23//23
f 22//22 156//156 23//23
f 21//21 446//446 22//22
f 446//446 21//21 20//20
f 145//145 20//20 19//19
f 18//18 447//447 19//19
f 447//447 18//18 17//17
f 135//135 17//17 16//16
f 15//15 448//448 16//16
f 448//448 15//15 14//14
f 120//120 14//14 13//13
f 12//12 118//118 13//13
f 11//11 117//117 12//12
f 9//9 112//112 11//11
f 31//31 4//4 10//10
f 110//110 9//9 8//8
f 7//7 449//449 8//8
f 6//6 456//456 7//7
f 456//456 6//6 5//5
f 3//3 454//454 5//5
f 4//4 67//67 1//1
f 3//3 2//2 454//454
f 2//2 1//1 67//67