# https://github.com/mikedh/trimesh
v 0.00000000 0.03595620 0.03823890
v 0.00404390 0.03595620 0.06430410
v 0.00000000 0.03595620 0.10558500
v 0.00501340 0.03595620 0.06664420
v 0.02739520 0.03595620 0.10558500
v 0.00371350 0.03595620 0.06179250
v 0.00655550 0.03595620 0.06865320
v 0.00856450 0.03595620 0.07019530
v 0.01090460 0.03595620 0.07116480
v 0.01341550 0.03595620 0.07149520
v 0.01592710 0.03595620 0.07116480
v 0.01826720 0.03595620 0.07019530
v 0.02027620 0.03595620 0.06865320
v 0.02181830 0.03595620 0.06664420
v 0.02278780 0.03595620 0.06430410
v 0.02311820 0.03595620 0.06179250
v 0.00000000 0.03595620 0.00000000
v 0.02739520 0.03595620 0.00000000
v 0.00404390 0.03595620 0.05928160
v 0.00501340 0.03595620 0.05694150
v 0.00655550 0.03595620 0.05493180
v 0.00856450 0.03595620 0.05339040
v 0.01090460 0.03595620 0.05242090
v 0.01341550 0.03595620 0.05209050
v 0.01592710 0.03595620 0.05242090
v 0.01826720 0.03595620 0.05339040
v 0.02027620 0.03595620 0.05493180
v 0.02181830 0.03595620 0.05694150
v 0.02278780 0.03595620 0.05928160
v 0.00057120 0.00856101 0.03823890
v 0.02739520 0.00856101 0.03823890
v 0.00057120 0.00856101 0.10558500
v 0.02739520 0.00856101 0.10558500
v 0.00379960 0.00856101 0.06536810
v 0.00416920 0.00856101 0.06256110
v 0.00525280 0.00856101 0.05994590
v 0.00697620 0.00856101 0.05770030
v 0.00922180 0.00856101 0.05597690
v 0.01183700 0.00856101 0.05489330
v 0.01464330 0.00856101 0.05452440
v 0.01745030 0.00856101 0.05489330
v 0.02006550 0.00856101 0.05597690
v 0.02231110 0.00856101 0.05770030
v 0.02403450 0.00856101 0.05994590
v 0.02511810 0.00856101 0.06256110
v 0.02548770 0.00856101 0.06536810
v 0.00525280 0.00856101 0.07078960
v 0.00416920 0.00856101 0.06817440
v 0.00697620 0.00856101 0.07303520
v 0.00922180 0.00856101 0.07475860
v 0.01183700 0.00856101 0.07584220
v 0.01464330 0.00856101 0.07621180
v 0.01745030 0.00856101 0.07584220
v 0.02006550 0.00856101 0.07475860
v 0.02231110 0.00856101 0.07303520
v 0.02403450 0.00856101 0.07078960
v 0.02511810 0.00856101 0.06817440
v 0.01090460 0.17350100 0.07116480
v 0.00856450 0.17350100 0.07019530
v 0.00655550 0.17350100 0.06865320
v 0.00501340 0.17350100 0.06664420
v 0.00404390 0.17350100 0.06430410
v 0.00371350 0.17350100 0.06179250
v 0.00404390 0.17350100 0.05928160
v 0.00501340 0.17350100 0.05694150
v 0.00655550 0.17350100 0.05493180
v 0.00856450 0.17350100 0.05339040
v 0.01090460 0.17350100 0.05242090
v 0.01341550 0.17350100 0.05209050
v 0.01592710 0.17350100 0.05242090
v 0.01826720 0.17350100 0.05339040
v 0.02027620 0.17350100 0.05493180
v 0.02181830 0.17350100 0.05694150
v 0.02278780 0.17350100 0.05928160
v 0.02311820 0.17350100 0.06179250
v 0.02278780 0.17350100 0.06430410
v 0.02181830 0.17350100 0.06664420
v 0.02027620 0.17350100 0.06865320
v 0.01826720 0.17350100 0.07019530
v 0.01592710 0.17350100 0.07116480
v 0.01341550 0.17350100 0.07149520
v 0.02006550 0.00000000 0.07475860
v 0.01745030 0.00000000 0.07584220
v 0.02231110 0.00000000 0.07303520
v 0.02403450 0.00000000 0.07078960
v 0.02511810 0.00000000 0.06817440
v 0.02548770 0.00000000 0.06536810
v 0.02511810 0.00000000 0.06256110
v 0.02403450 0.00000000 0.05994590
v 0.02231110 0.00000000 0.05770030
v 0.02006550 0.00000000 0.05597690
v 0.01745030 0.00000000 0.05489330
v 0.01464330 0.00000000 0.05452440
v 0.01183700 0.00000000 0.05489330
v 0.00922180 0.00000000 0.05597690
v 0.00697620 0.00000000 0.05770030
v 0.00525280 0.00000000 0.05994590
v 0.00416920 0.00000000 0.06256110
v 0.00379960 0.00000000 0.06536810
v 0.00416920 0.00000000 0.06817440
v 0.00525280 0.00000000 0.07078960
v 0.00697620 0.00000000 0.07303520
v 0.00922180 0.00000000 0.07475860
v 0.01183700 0.00000000 0.07584220
v 0.01464330 0.00000000 0.07621180
vn 0.71443889 -0.69969785 0.00000000
vn 0.65210430 -0.73772124 -0.17472082
vn 0.58388595 -0.57183861 -0.57626193
vn 0.58462649 -0.73771192 -0.33762847
vn -0.57735027 -0.57735027 -0.57735027
vn 0.67515037 -0.73768013 0.00001217
vn 0.47741949 -0.73765932 -0.47741949
vn 0.33762847 -0.73771192 -0.58462649
vn 0.17473381 -0.73771688 -0.65210575
vn 0.00001217 -0.73768013 -0.67515037
vn -0.17472082 -0.73772124 -0.65210430
vn -0.33762847 -0.73771192 -0.58462649
vn -0.47741949 -0.73765932 -0.47741949
vn -0.58462649 -0.73771192 -0.33762847
vn -0.65210430 -0.73772124 -0.17472082
vn -0.67515037 -0.73768013 0.00001217
vn 0.54626274 -0.25553207 0.79768439
vn -0.54320924 -0.25679104 0.79936355
vn 0.65210575 -0.73771688 0.17473381
vn 0.58467415 -0.73769158 0.33759041
vn 0.47737110 -0.73770618 0.47739546
vn 0.33757886 -0.73768540 0.58468860
vn 0.17473381 -0.73771688 0.65210575
vn 0.00001217 -0.73768013 0.67515037
vn -0.17472082 -0.73772124 0.65210430
vn -0.33757886 -0.73768540 0.58468860
vn -0.47737110 -0.73770618 0.47739546
vn -0.58467415 -0.73769158 0.33759041
vn -0.65210575 -0.73771688 0.17473381
vn 0.63651063 0.73525697 0.23291930
vn -0.64430838 0.72811794 0.23390379
vn 0.57075381 0.58277829 -0.57845446
vn -0.57735027 0.57735027 -0.57735027
vn 0.67511938 0.73770849 -0.00001090
vn 0.65210022 0.73771182 0.17477579
vn 0.58464910 0.73769632 0.33762341
vn 0.47740309 0.73768054 0.47740309
vn 0.33762341 0.73769632 0.58464910
vn 0.17469909 0.73773757 0.65209164
vn 0.00001088 0.73764920 0.67518416
vn -0.17468748 0.73774146 0.65209034
vn -0.33762341 0.73769632 0.58464910
vn -0.47740309 0.73768054 0.47740309
vn -0.58464910 0.73769632 0.33762341
vn -0.65210022 0.73771182 0.17477579
vn -0.67511938 0.73770849 -0.00001090
vn 0.58464910 0.73769632 -0.33762341
vn 0.65210152 0.73770791 -0.17478742
vn 0.47740309 0.73768054 -0.47740309
vn 0.33762341 0.73769632 -0.58464910
vn 0.17478742 0.73770791 -0.65210152
vn 0.00001090 0.73770849 -0.67511938
vn -0.17477579 0.73771182 -0.65210022
vn -0.33762341 0.73769632 -0.58464910
vn -0.47740309 0.73768054 -0.47740309
vn -0.58464910 0.73769632 -0.33762341
vn -0.65210152 0.73770791 -0.17478742
vn 0.19004506 -0.67886023 -0.70924725
vn 0.36720865 -0.67886445 -0.63584657
vn 0.51917348 -0.67890926 -0.51917348
vn 0.63584657 -0.67886445 -0.36720865
vn 0.70925399 -0.67885652 -0.19003316
vn 0.73423858 -0.67889153 0.00001323
vn 0.70924725 -0.67886023 0.19004506
vn 0.63586358 -0.67888178 0.36714715
vn 0.51918634 -0.67886934 0.51921283
vn 0.36712849 -0.67888704 0.63586874
vn 0.19004506 -0.67886023 0.70924725
vn 0.00001323 -0.67889153 0.73423858
vn -0.19003316 -0.67885652 0.70925399
vn -0.36712849 -0.67888704 0.63586874
vn -0.51918634 -0.67886934 0.51921283
vn -0.63586358 -0.67888178 0.36714715
vn -0.70924725 -0.67886023 0.19004506
vn -0.73423858 -0.67889153 0.00001323
vn -0.70925399 -0.67885652 -0.19003316
vn -0.63584657 -0.67886445 -0.36720865
vn -0.51917348 -0.67890926 -0.51917348
vn -0.36720865 -0.67886445 -0.63584657
vn -0.19003316 -0.67885652 -0.70925399
vn 0.00001323 -0.67889153 -0.73423858
vn -0.36718773 0.67887774 -0.63584446
vn -0.19008813 0.67886454 -0.70923158
vn -0.51918531 0.67889118 -0.51918531
vn -0.63584446 0.67887774 -0.36718773
vn -0.70922554 0.67886787 -0.19009878
vn -0.73426092 0.67886737 -0.00001185
vn -0.70923158 0.67886454 0.19008813
vn -0.63584446 0.67887774 0.36718773
vn -0.51918531 0.67889118 0.51918531
vn -0.36718773 0.67887774 0.63584446
vn -0.19000724 0.67883929 0.70927742
vn 0.00001183 0.67891788 0.73421422
vn 0.19001787 0.67884261 0.70927140
vn 0.36718773 0.67887774 0.63584446
vn 0.51918531 0.67889118 0.51918531
vn 0.63584446 0.67887774 0.36718773
vn 0.70923158 0.67886454 0.19008813
vn 0.73426092 0.67886737 -0.00001185
vn 0.70922554 0.67886787 -0.19009878
vn 0.63584446 0.67887774 -0.36718773
vn 0.51918531 0.67889118 -0.51918531
vn 0.36718773 0.67887774 -0.63584446
vn 0.19009878 0.67886787 -0.70922554
vn 0.00001185 0.67886737 -0.73426092
f 1//1 2//2 3//3
f 4//4 3//3 2//2
f 5//5 3//3 4//4
f 6//6 2//2 1//1
f 7//7 5//5 4//4
f 8//8 5//5 7//7
f 9//9 5//5 8//8
f 10//10 5//5 9//9
f 11//11 5//5 10//10
f 12//12 5//5 11//11
f 13//13 5//5 12//12
f 14//14 5//5 13//13
f 15//15 5//5 14//14
f 16//16 5//5 15//15
f 17//17 18//18 1//1
f 19//19 1//1 18//18
f 6//6 1//1 19//19
f 20//20 19//19 18//18
f 21//21 20//20 18//18
f 22//22 21//21 18//18
f 23//23 22//22 18//18
f 24//24 23//23 18//18
f 25//25 24//24 18//18
f 26//26 25//25 18//18
f 27//27 26//26 18//18
f 28//28 27//27 18//18
f 29//29 28//28 18//18
f 16//16 29//29 18//18
f 5//5 16//16 18//18
f 17//17 30//30 18//18
f 31//31 18//18 30//30
f 17//17 1//1 30//30
f 32//32 30//30 1//1
f 3//3 32//32 1//1
f 33//33 32//32 5//5
f 3//3 5//5 32//32
f 18//18 31//31 5//5
f 33//33 5//5 31//31
f 32//32 34//34 30//30
f 35//35 30//30 34//34
f 36//36 30//30 35//35
f 37//37 30//30 36//36
f 31//31 30//30 37//37
f 38//38 31//31 37//37
f 39//39 31//31 38//38
f 40//40 31//31 39//39
f 41//41 31//31 40//40
f 42//42 31//31 41//41
f 43//43 31//31 42//42
f 44//44 31//31 43//43
f 45//45 31//31 44//44
f 46//46 31//31 45//45
f 33//33 47//47 32//32
f 48//48 32//32 47//47
f 34//34 32//32 48//48
f 49//49 47//47 33//33
f 50//50 49//49 33//33
f 51//51 50//50 33//33
f 52//52 51//51 33//33
f 53//53 52//52 33//33
f 54//54 53//53 33//33
f 55//55 54//54 33//33
f 56//56 55//55 33//33
f 57//57 56//56 33//33
f 46//46 57//57 33//33
f 31//31 46//46 33//33
f 9//9 8//8 58//58
f 59//59 58//58 8//8
f 8//8 7//7 59//59
f 60//60 59//59 7//7
f 4//4 61//61 7//7
f 60//60 7//7 61//61
f 2//2 62//62 4//4
f 61//61 4//4 62//62
f 6//6 63//63 2//2
f 62//62 2//2 63//63
f 19//19 64//64 6//6
f 63//63 6//6 64//64
f 20//20 65//65 19//19
f 64//64 19//19 65//65
f 21//21 66//66 20//20
f 65//65 20//20 66//66
f 21//21 22//22 66//66
f 67//67 66//66 22//22
f 22//22 23//23 67//67
f 68//68 67//67 23//23
f 23//23 24//24 68//68
f 69//69 68//68 24//24
f 24//24 25//25 69//69
f 70//70 69//69 25//25
f 25//25 26//26 70//70
f 71//71 70//70 26//26
f 26//26 27//27 71//71
f 72//72 71//71 27//27
f 72//72 27//27 73//73
f 28//28 73//73 27//27
f 73//73 28//28 74//74
f 29//29 74//74 28//28
f 74//74 29//29 75//75
f 16//16 75//75 29//29
f 75//75 16//16 76//76
f 15//15 76//76 16//16
f 76//76 15//15 77//77
f 14//14 77//77 15//15
f 77//77 14//14 78//78
f 13//13 78//78 14//14
f 13//13 12//12 78//78
f 79//79 78//78 12//12
f 12//12 11//11 79//79
f 80//80 79//79 11//11
f 11//11 10//10 80//80
f 81//81 80//80 10//10
f 10//10 9//9 81//81
f 58//58 81//81 9//9
f 63//63 64//64 62//62
f 61//61 62//62 64//64
f 65//65 61//61 64//64
f 60//60 61//61 65//65
f 66//66 60//60 65//65
f 67//67 60//60 66//66
f 59//59 60//60 67//67
f 68//68 59//59 67//67
f 58//58 59//59 68//68
f 69//69 58//58 68//68
f 81//81 58//58 69//69
f 70//70 81//81 69//69
f 80//80 81//81 70//70
f 71//71 80//80 70//70
f 79//79 80//80 71//71
f 72//72 79//79 71//71
f 78//78 79//79 72//72
f 73//73 78//78 72//72
f 77//77 78//78 73//73
f 74//74 77//77 73//73
f 76//76 77//77 74//74
f 75//75 76//76 74//74
f 82//82 83//83 54//54
f 53//53 54//54 83//83
f 84//84 82//82 55//55
f 54//54 55//55 82//82
f 56//56 85//85 55//55
f 84//84 55//55 85//85
f 57//57 86//86 56//56
f 85//85 56//56 86//86
f 46//46 87//87 57//57
f 86//86 57//57 87//87
f 45//45 88//88 46//46
f 87//87 46//46 88//88
f 44//44 89//89 45//45
f 88//88 45//45 89//89
f 43//43 90//90 44//44
f 89//89 44//44 90//90
f 91//91 90//90 42//42
f 43//43 42//42 90//90
f 92//92 91//91 41//41
f 42//42 41//41 91//91
f 93//93 92//92 40//40
f 41//41 40//40 92//92
f 94//94 93//93 39//39
f 40//40 39//39 93//93
f 95//95 94//94 38//38
f 39//39 38//38 94//94
f 96//96 95//95 37//37
f 38//38 37//37 95//95
f 96//96 37//37 97//97
f 36//36 97//97 37//37
f 97//97 36//36 98//98
f 35//35 98//98 36//36
f 98//98 35//35 99//99
f 34//34 99//99 35//35
f 99//99 34//34 100//100
f 48//48 100//100 34//34
f 100//100 48//48 101//101
f 47//47 101//101 48//48
f 101//101 47//47 102//102
f 49//49 102//102 47//47
f 103//103 102//102 50//50
f 49//49 50//50 102//102
f 104//104 103//103 51//51
f 50//50 51//51 103//103
f 105//105 104//104 52//52
f 51//51 52//52 104//104
f 83//83 105//105 53//53
f 52//52 53//53 105//105
f 99//99 100//100 98//98
f 101//101 98//98 100//100
f 97//97 98//98 101//101
f 102//102 97//97 101//101
f 96//96 97//97 102//102
f 103//103 96//96 102//102
f 95//95 96//96 103//103
f 104//104 95//95 103//103
f 94//94 95//95 104//104
f 105//105 94//94 104//104
f 93//93 94//94 105//105
f 83//83 93//93 105//105
f 92//92 93//93 83//83
f 82//82 92//92 83//83
f 91//91 92//92 82//82
f 84//84 91//91 82//82
f 90//90 91//91 84//84
f 85//85 90//90 84//84
f 89//89 90//90 85//85
f 86//86 89//89 85//85
f 88//88 89//89 86//86
f 87//87 88//88 86//86
f 32//32 32//32 30//30
f 3//3 32//32 32//32
f 16//16 18//18 5//5
f 29//29 18//18 16//16
f 28//28 18//18 29//29
f 27//27 18//18 28//28
f 26//26 18//18 27//27
f 25//25 18//18 26//26
f 24//24 18//18 25//25
f 23//23 18//18 24//24
f 22//22 18//18 23//23
f 21//21 18//18 22//22
f 20//20 18//18 21//21
f 19//19 18//18 20//20
f 1//1 19//19 6//6
f 1//1 18//18 19//19
f 18//18 1//1 17//17
f 5//5 15//15 16//16
f 5//5 14//14 15//15
f 5//5 13//13 14//14
f 5//5 12//12 13//13
f 5//5 11//11 12//12
f 5//5 10//10 11//11
f 5//5 9//9 10//10
f 5//5 8//8 9//9
f 5//5 7//7 8//8
f 5//5 4//4 7//7
f 2//2 1//1 6//6
f 3//3 4//4 5//5
f 3//3 2//2 4//4
f 2//2 3//3 1//1
f 18//18 30//30 31//31
f 30//30 18//18 17//17
f 32//32 1//1 3//3
f 30//30 1//1 32//32
f 1//1 30//30 17//17
f 5//5 32//32 3//3
f 32//32 5//5 33//33
f 5//5 31//31 33//33
f 31//31 5//5 18//18
f 46//46 33//33 31//31
f 57//57 33//33 46//46
f 56//56 33//33 57//57
f 55//55 33//33 56//56
f 54//54 33//33 55//55
f 53//53 33//33 54//54
f 52//52 33//33 53//53
f 51//51 33//33 52//52
f 50//50 33//33 51//51
f 49//49 33//33 50//50
f 47//47 33//33 49//49
f 32//32 48//48 34//34
f 32//32 47//47 48//48
f 47//47 32//32 33//33
f 31//31 45//45 46//46
f 31//31 44//44 45//45
f 31//31 43//43 44//44
f 31//31 42//42 43//43
f 31//31 41//41 42//42
f 31//31 40//40 41//41
f 31//31 39//39 40//40
f 31//31 38//38 39//39
f 31//31 37//37 38//38
f 30//30 37//37 31//31
f 30//30 36//36 37//37
f 30//30 35//35 36//36
f 30//30 34//34 35//35
f 34//34 30//30 32//32
f 58//58 8//8 59//59
f 8//8 58//58 9//9
f 59//59 7//7 60//60
f 7//7 59//59 8//8
f 7//7 61//61 60//60
f 61//61 7//7 4//4
f 4//4 62//62 61//61
f 62//62 4//4 2//2
f 2//2 63//63 62//62
f 63//63 2//2 6//6
f 6//6 64//64 63//63
f 64//64 6//6 19//19
f 19//19 65//65 64//64
f 65//65 19//19 20//20
f 20//20 66//66 65//65
f 66//66 20//20 21//21
f 66//66 22//22 67//67
f 22//22 66//66 21//21
f 67//67 23//23 68//68
f 23//23 67//67 22//22
f 68//68 24//24 69//69
f 24//24 68//68 23//23
f 69//69 25//25 70//70
f 25//25 69//69 24//24
f 70//70 26//26 71//71
f 26//26 70//70 25//25
f 71//71 27//27 72//72
f 27//27 71//71 26//26
f 73//73 27//27 28//28
f 27//27 73//73 72//72
f 74//74 28//28 29//29
f 28//28 74//74 73//73
f 75//75 29//29 16//16
f 29//29 75//75 74//74
f 76//76 16//16 15//15
f 16//16 76//76 75//75
f 77//77 15//15 14//14
f 15//15 77//77 76//76
f 78//78 14//14 13//13
f 14//14 78//78 77//77
f 78//78 12//12 79//79
f 12//12 78//78 13//13
f 79//79 11//11 80//80
f 11//11 79//79 12//12
f 80//80 10//10 81//81
f 10//10 80//80 11//11
f 81//81 9//9 58//58
f 9//9 81//81 10//10
f 76//76 74//74 75//75
f 77//77 74//74 76//76
f 77//77 73//73 74//74
f 78//78 73//73 77//77
f 78//78 72//72 73//73
f 79//79 72//72 78//78
f 79//79 71//71 72//72
f 80//80 71//71 79//79
f 80//80 70//70 71//71
f 81//81 70//70 80//80
f 81//81 69//69 70//70
f 58//58 69//69 81//81
f 58//58 68//68 69//69
f 59//59 68//68 58//58
f 59//59 67//67 68//68
f 60//60 67//67 59//59
f 60//60 66//66 67//67
f 60//60 65//65 66//66
f 61//61 65//65 60//60
f 61//61 64//64 65//65
f 62//62 64//64 61//61
f 64//64 62//62 63//63
f 54//54 83//83 53//53
f 83//83 54//54 82//82
f 55//55 82//82 54//54
f 82//82 55//55 84//84
f 55//55 85//85 84//84
f 85//85 55//55 56//56
f 56//56 86//86 85//85
f 86//86 56//56 57//57
f 57//57 87//87 86//86
f 87//87 57//57 46//46
f 46//46 88//88 87//87
f 88//88 46//46 45//45
f 45//45 89//89 88//88
f 89//89 45//45 44//44
f 44//44 90//90 89//89
f 90//90 44//44 43//43
f 42//42 90//90 43//43
f 90//90 42//42 91//91
f 41//41 91//91 42//42
f 91//91 41//41 92//92
f 40//40 92//92 41//41
f 92//92 40//40 93//93
f 39//39 93//93 40//40
f 93//93 39//39 94//94
f 38//38 94//94 39//39
f 94//94 38//38 95//95
f 37//37 95//95 38//38
f 95//95 37//37 96//96
f 97//97 37//37 36//36
f 37//37 97//97 96//96
f 98//98 36//36 35//35
f 36//36 98//98 97//97
f 99//99 35//35 34//34
f 35//35 99//99 98//98
f 100//100 34//34 48//48
f 34//34 100//100 99//99
f 101//101 48//48 47//47
f 48//48 101//101 100//100
f 102//102 47//47 49//49
f 47//47 102//102 101//101
f 50//50 102//102 49//49
f 102//102 50//50 103//103
f 51//51 103//103 50//50
f 103//103 51//51 104//104
f 52//52 104//104 51//51
f 104//104 52//52 105//105
f 53//53 105//105 52//52
f 105//105 53//53 83//83
f 88//88 86//86 87//87
f 89//89 86//86 88//88
f 89//89 85//85 86//86
f 90//90 85//85 89//89
f 90//90 84//84 85//85
f 91//91 84//84 90//90
f 91//91 82//82 84//84
f 92//92 82//82 91//91
f 92//92 83//83 82//82
f 93//93 83//83 92//92
f 93//93 105//105 83//83
f 94//94 105//105 93//93
f 94//94 104//104 105//105
f 95//95 104//104 94//94
f 95//95 103//103 104//104
f 96//96 103//103 95//95
f 96//96 102//102 103//103
f 97//97 102//102 96//96
f 97//97 101//101 102//102
f 98//98 101//101 97//97
f 98//98 100//100 101//101
f 100//100 98//98 99//99